<svg width="243" height="18" viewBox="0 0 243 18" fill="none" xmlns="http://www.w3.org/2000/svg">
<path d="M7.58203 7.50781C8.23047 7.78125 8.78516 8.13281 9.24609 8.5625C9.70703 8.99219 10.0586 9.5 10.3008 10.0859C10.543 10.6719 10.6641 11.293 10.6641 11.9492C10.6641 12.9336 10.4023 13.8359 9.87891 14.6562C9.36328 15.4688 8.65234 16.1133 7.74609 16.5898C6.84766 17.0586 5.85547 17.293 4.76953 17.293C3.52734 17.293 2.49609 17.0312 1.67578 16.5078C0.855469 15.9766 0.445312 15.3125 0.445312 14.5156C0.445312 14.1484 0.554688 13.8477 0.773438 13.6133C0.992188 13.3789 1.28125 13.2617 1.64062 13.2617C2.0625 13.2617 2.35938 13.4297 2.53125 13.7656C2.625 13.9453 2.71094 14.2852 2.78906 14.7852C2.88281 15.4727 3.09375 15.9648 3.42188 16.2617C3.75781 16.5586 4.26953 16.707 4.95703 16.707C5.59766 16.707 6.1875 16.5508 6.72656 16.2383C7.26562 15.9258 7.69141 15.5 8.00391 14.9609C8.31641 14.4141 8.47266 13.8203 8.47266 13.1797C8.47266 12.0781 8.01953 11.1328 7.11328 10.3438C6.21484 9.54688 4.90625 8.9375 3.1875 8.51562L3.19922 8.14062C3.97266 8 4.64062 7.74609 5.20312 7.37891C5.76562 7.01172 6.19141 6.54297 6.48047 5.97266C6.77734 5.40234 6.92578 4.76562 6.92578 4.0625C6.92578 3.17969 6.72656 2.46094 6.32812 1.90625C5.9375 1.34375 5.41797 1.0625 4.76953 1.0625C4.24609 1.0625 3.85938 1.25781 3.60938 1.64844C3.50781 1.8125 3.43359 1.98047 3.38672 2.15234C3.33984 2.31641 3.26562 2.68359 3.16406 3.25391C3.08594 3.75391 2.94922 4.11719 2.75391 4.34375C2.56641 4.5625 2.30859 4.67188 1.98047 4.67188C1.66797 4.67188 1.41016 4.5625 1.20703 4.34375C1.01172 4.11719 0.914062 3.82422 0.914062 3.46484C0.914062 2.93359 1.09766 2.44922 1.46484 2.01172C1.83984 1.56641 2.34766 1.21875 2.98828 0.96875C3.62891 0.710938 4.33594 0.582031 5.10938 0.582031C5.75781 0.582031 6.36328 0.667969 6.92578 0.839844C7.49609 1.01172 7.97266 1.25391 8.35547 1.56641C8.74609 1.87109 9.04688 2.25 9.25781 2.70312C9.47656 3.14844 9.58594 3.64453 9.58594 4.19141C9.58594 4.86328 9.41797 5.47656 9.08203 6.03125C8.75391 6.57812 8.25391 7.07031 7.58203 7.50781ZM3.51562 1.13281C2.85156 1.32031 2.31641 1.63281 1.91016 2.07031C1.51172 2.5 1.3125 2.97266 1.3125 3.48828C1.3125 3.64453 1.35156 3.77734 1.42969 3.88672C1.50781 3.98828 1.61328 4.03906 1.74609 4.03906C2.01172 4.03906 2.17188 3.83984 2.22656 3.44141C2.32812 2.82422 2.46875 2.35938 2.64844 2.04688C2.82812 1.73437 3.11719 1.42969 3.51562 1.13281ZM2.66016 16.5781C2.33984 16.2891 2.10547 16.0039 1.95703 15.7227C1.81641 15.4414 1.73438 15.1016 1.71094 14.7031L1.6875 14.3867C1.67188 14.0508 1.54297 13.8828 1.30078 13.8828C0.996094 13.8828 0.84375 14.0938 0.84375 14.5156C0.84375 14.9531 0.996094 15.3477 1.30078 15.6992C1.61328 16.0508 2.06641 16.3438 2.66016 16.5781ZM7.35938 16.2617C8.94531 15.3086 9.73828 14.0273 9.73828 12.418C9.73828 10.332 8.46094 8.79688 5.90625 7.8125C7.67188 6.92969 8.55469 5.73047 8.55469 4.21484C8.55469 3.66797 8.44922 3.16797 8.23828 2.71484C8.02734 2.26172 7.72266 1.89844 7.32422 1.625C6.92578 1.34375 6.46484 1.17578 5.94141 1.12109C6.89453 1.67578 7.37109 2.64844 7.37109 4.03906C7.37109 4.73438 7.24609 5.36719 6.99609 5.9375C6.74609 6.5 6.375 6.98828 5.88281 7.40234C5.39062 7.80859 4.80078 8.11719 4.11328 8.32812C5.12891 8.625 5.99609 9.01172 6.71484 9.48828C7.44141 9.95703 7.98828 10.4961 8.35547 11.1055C8.73047 11.707 8.91797 12.3672 8.91797 13.0859C8.91797 13.4766 8.86719 13.8438 8.76562 14.1875C8.67188 14.5312 8.52734 14.8555 8.33203 15.1602C8.20703 15.3711 7.88281 15.7383 7.35938 16.2617ZM12.5625 15.6875C12.5625 15.4062 12.6289 15.1523 12.7617 14.9258C12.8945 14.6992 13.0742 14.5195 13.3008 14.3867C13.5273 14.2539 13.7812 14.1875 14.0625 14.1875C14.3438 14.1875 14.5977 14.2539 14.8242 14.3867C15.0508 14.5195 15.2305 14.6992 15.3633 14.9258C15.4961 15.1523 15.5625 15.4062 15.5625 15.6875C15.5625 15.9688 15.4961 16.2227 15.3633 16.4492C15.2305 16.6758 15.0508 16.8555 14.8242 16.9883C14.5977 17.1211 14.3438 17.1875 14.0625 17.1875C13.7812 17.1875 13.5273 17.1211 13.3008 16.9883C13.0742 16.8555 12.8945 16.6758 12.7617 16.4492C12.6289 16.2227 12.5625 15.9688 12.5625 15.6875ZM14.2734 16.5547V14.8203C14.2734 14.625 14.1797 14.5273 13.9922 14.5273C13.7188 14.5273 13.4766 14.6445 13.2656 14.8789C13.0547 15.1133 12.9492 15.3828 12.9492 15.6875C12.9492 15.9922 13.0547 16.2617 13.2656 16.4961C13.4844 16.7305 13.7266 16.8477 13.9922 16.8477C14.1797 16.8477 14.2734 16.75 14.2734 16.5547ZM18.4102 14.5742H22.4766C23.5078 14.5742 24.3438 14.4258 24.9844 14.1289C25.625 13.832 26.1914 13.3398 26.6836 12.6523H27.0703L25.9453 17H16.7461L16.7344 16.5195C17.0859 15.7539 17.5 15.0156 17.9766 14.3047C18.4531 13.5938 19.1484 12.6836 20.0625 11.5742C20.4531 11.0898 20.7812 10.6836 21.0469 10.3555C21.3203 10.0195 21.5312 9.76172 21.6797 9.58203C22.4688 8.58203 23.0312 7.71094 23.3672 6.96875C23.7109 6.22656 23.8828 5.47656 23.8828 4.71875C23.8828 4.07812 23.7656 3.48438 23.5312 2.9375C23.3047 2.39062 22.9883 1.96484 22.582 1.66016C22.1758 1.34766 21.7383 1.19141 21.2695 1.19141C20.293 1.19141 19.7852 1.80078 19.7461 3.01953L19.7227 3.64062C19.6914 4.59375 19.3203 5.07031 18.6094 5.07031C18.2656 5.07031 17.9805 4.94922 17.7539 4.70703C17.5273 4.45703 17.4141 4.13672 17.4141 3.74609C17.4141 3.19141 17.6133 2.68359 18.0117 2.22266C18.4102 1.75391 18.9531 1.38281 19.6406 1.10938C20.3359 0.835938 21.0898 0.699219 21.9023 0.699219C22.8008 0.699219 23.6211 0.878906 24.3633 1.23828C25.1133 1.59766 25.6953 2.09766 26.1094 2.73828C26.5312 3.37109 26.7422 4.08203 26.7422 4.87109C26.7422 5.43359 26.6367 5.96484 26.4258 6.46484C26.2227 6.95703 25.8789 7.48047 25.3945 8.03516C24.918 8.58203 24.2891 9.17578 23.5078 9.81641L21.6094 11.3867C20.1562 12.5742 19.0898 13.6367 18.4102 14.5742ZM19.5352 1.48438C18.4023 2.11719 17.8359 2.88281 17.8359 3.78125C17.8359 3.98438 17.8789 4.15234 17.9648 4.28516C18.0508 4.41016 18.1641 4.47266 18.3047 4.47266C18.5859 4.47266 18.7266 4.26172 18.7266 3.83984C18.7266 3.25391 18.7852 2.79688 18.9023 2.46875C19.0195 2.13281 19.2305 1.80469 19.5352 1.48438ZM25.0664 16.4141L25.4766 14.8555C24.8359 15.2383 24 15.4297 22.9688 15.4297H17.7656C17.5703 15.7812 17.3984 16.1094 17.25 16.4141H25.0664ZM20.5664 11.5625C21.5273 10.6953 22.4219 9.82812 23.25 8.96094C24.1328 8.03125 24.7422 7.26172 25.0781 6.65234C25.4141 6.04297 25.582 5.40234 25.582 4.73047C25.582 4.10547 25.457 3.55078 25.207 3.06641C24.9648 2.57422 24.6133 2.16797 24.1523 1.84766C23.6914 1.52734 23.1562 1.32813 22.5469 1.25C23.125 1.57812 23.5625 2.03906 23.8594 2.63281C24.1641 3.21875 24.3164 3.91406 24.3164 4.71875C24.3164 5.35156 24.2031 5.97656 23.9766 6.59375C23.75 7.21094 23.3945 7.875 22.9102 8.58594C22.2227 9.57812 21.4414 10.5703 20.5664 11.5625ZM53.5898 1.36719L54.2695 5.26953H53.8711C53.6602 4.56641 53.4531 4.01172 53.25 3.60547C53.0469 3.19922 52.8203 2.85937 52.5703 2.58594C52.1719 2.14062 51.6914 1.79297 51.1289 1.54297C50.5742 1.29297 49.9922 1.16797 49.3828 1.16797C48.5234 1.16797 47.8203 1.40234 47.2734 1.87109C46.7266 2.33203 46.4531 2.92969 46.4531 3.66406C46.4531 4.46875 46.8086 5.13672 47.5195 5.66797C47.8867 5.93359 48.2773 6.17188 48.6914 6.38281C49.1133 6.58594 49.7695 6.875 50.6602 7.25C51.2695 7.49219 51.7852 7.71094 52.207 7.90625C52.6289 8.10156 52.9688 8.27734 53.2266 8.43359C53.4844 8.58984 53.7422 8.76953 54 8.97266C55.0859 9.84766 55.6289 10.9922 55.6289 12.4062C55.6289 13.3359 55.375 14.1758 54.8672 14.9258C54.3594 15.6758 53.6562 16.2656 52.7578 16.6953C51.8594 17.1172 50.8633 17.3281 49.7695 17.3281C49.0117 17.3281 48.1367 17.2148 47.1445 16.9883C46.5586 16.8477 45.7891 16.5977 44.8359 16.2383L44.5078 16.1211L44.1562 11.6797H44.5078C44.8516 12.875 45.4062 13.9414 46.1719 14.8789C47.1797 16.1055 48.3789 16.7188 49.7695 16.7188C50.4805 16.7188 51.1094 16.5859 51.6562 16.3203C52.2109 16.0469 52.6445 15.6758 52.957 15.207C53.2695 14.7305 53.4258 14.1875 53.4258 13.5781C53.4258 13.0391 53.3047 12.5547 53.0625 12.125C52.8203 11.6875 52.4258 11.2773 51.8789 10.8945C51.332 10.5039 50.582 10.1055 49.6289 9.69922C48.2461 9.09766 47.4062 8.71484 47.1094 8.55078C46.5391 8.23047 46.0664 7.88281 45.6914 7.50781C45.3164 7.13281 45.0391 6.72656 44.8594 6.28906C44.6797 5.85156 44.5898 5.38281 44.5898 4.88281C44.5898 4.10938 44.793 3.40234 45.1992 2.76172C45.6133 2.12109 46.1758 1.61719 46.8867 1.25C47.6055 0.882813 48.3984 0.699219 49.2656 0.699219C49.8125 0.699219 50.4219 0.789063 51.0938 0.96875L51.7969 1.15625C52.3203 1.29688 52.8789 1.36719 53.4727 1.36719H53.5898ZM52.6992 16.0156C53.9883 15.0859 54.6328 13.9688 54.6328 12.6641C54.6328 12.1484 54.5234 11.6484 54.3047 11.1641C54.0938 10.6719 53.7891 10.2539 53.3906 9.91016C52.8125 9.38672 51.793 8.82031 50.332 8.21094C49.1211 7.69531 48.332 7.34766 47.9648 7.16797C47.6055 6.98828 47.2383 6.74609 46.8633 6.44141C46.082 5.81641 45.6914 5.02734 45.6914 4.07422C45.6914 3.79297 45.7227 3.53906 45.7852 3.3125C45.8477 3.07812 45.9414 2.85547 46.0664 2.64453C46.1914 2.42578 46.3984 2.13672 46.6875 1.77734C45.5703 2.58203 45.0117 3.58594 45.0117 4.78906C45.0117 5.94531 45.4648 6.85938 46.3711 7.53125C46.8477 7.89062 47.3945 8.21094 48.0117 8.49219C48.0898 8.53125 48.6914 8.79688 49.8164 9.28906C51.1758 9.875 52.1133 10.4062 52.6289 10.8828C53.4492 11.6406 53.8594 12.5352 53.8594 13.5664C53.8594 14.0664 53.7656 14.5117 53.5781 14.9023C53.3984 15.2852 53.1055 15.6562 52.6992 16.0156ZM44.8828 15.5586C45.3984 15.8555 46.0547 16.1406 46.8516 16.4141C46.3281 15.9453 45.9297 15.5586 45.6562 15.2539C45.3906 14.9492 45.0859 14.5195 44.7422 13.9648L44.8828 15.5586ZM65.9414 8.99609V13.4258C65.9414 14.1055 65.9844 14.6094 66.0703 14.9375C66.1641 15.2656 66.3359 15.5547 66.5859 15.8047C67.0391 16.2344 67.6953 16.5117 68.5547 16.6367V17H60.6211V16.6367C61.582 16.4961 62.2773 16.1758 62.707 15.6758C62.9023 15.457 63.0352 15.1914 63.1055 14.8789C63.1836 14.5586 63.2227 14.0742 63.2227 13.4258V9.5L59.6484 4.32031L59.5195 4.14453C58.8398 3.12891 58.2695 2.42578 57.8086 2.03516C57.3555 1.64453 56.8594 1.42188 56.3203 1.36719V1.00391H63.7383V1.36719L63.4922 1.37891C62.8828 1.41016 62.4648 1.50391 62.2383 1.66016C62.0117 1.80859 61.8984 2.0625 61.8984 2.42188C61.8984 2.77344 62.0625 3.1875 62.3906 3.66406L65.7656 8.49219L68.4844 5.15234C69.0781 4.41016 69.375 3.73828 69.375 3.13672C69.375 2.58984 69.1719 2.16797 68.7656 1.87109C68.3672 1.56641 67.793 1.39844 67.043 1.36719V1.00391H73.3242V1.36719C72.9258 1.46875 72.5508 1.625 72.1992 1.83594C71.8555 2.03906 71.5156 2.29687 71.1797 2.60938C70.8516 2.92188 70.4844 3.33203 70.0781 3.83984L69.3398 4.76562L69.1641 4.97656L65.9414 8.99609ZM69.7734 3.10156C70.3281 2.42969 70.918 1.86328 71.543 1.40234H68.6719C69.0703 1.58984 69.3516 1.8125 69.5156 2.07031C69.6875 2.32812 69.7734 2.67187 69.7734 3.10156ZM62.5781 16.4023H66L65.543 16.0625C65.2773 15.8672 65.1055 15.7109 65.0273 15.5938C64.957 15.4766 64.9219 15.3008 64.9219 15.0664C64.9219 14.9414 64.918 14.8594 64.9102 14.8203C64.9102 14.7734 64.9102 14.7266 64.9102 14.6797V14.4805V8.99609L61.4414 4.05078C60.9883 3.38672 60.7617 2.85156 60.7617 2.44531C60.7617 2.22656 60.8203 2.03516 60.9375 1.87109C61.0547 1.69922 61.2383 1.53906 61.4883 1.39062H57.6094C57.9609 1.60156 58.2891 1.88281 58.5938 2.23438C58.9062 2.57812 59.3555 3.17188 59.9414 4.01562L60.1289 4.28516L63.668 9.41797V14.4805V14.6797C63.668 14.8047 63.6641 14.9336 63.6562 15.0664C63.6562 15.3086 63.6211 15.4883 63.5508 15.6055C63.4805 15.7148 63.3086 15.8672 63.0352 16.0625L62.5781 16.4023ZM83.5898 1.36719L84.2695 5.26953H83.8711C83.6602 4.56641 83.4531 4.01172 83.25 3.60547C83.0469 3.19922 82.8203 2.85937 82.5703 2.58594C82.1719 2.14062 81.6914 1.79297 81.1289 1.54297C80.5742 1.29297 79.9922 1.16797 79.3828 1.16797C78.5234 1.16797 77.8203 1.40234 77.2734 1.87109C76.7266 2.33203 76.4531 2.92969 76.4531 3.66406C76.4531 4.46875 76.8086 5.13672 77.5195 5.66797C77.8867 5.93359 78.2773 6.17188 78.6914 6.38281C79.1133 6.58594 79.7695 6.875 80.6602 7.25C81.2695 7.49219 81.7852 7.71094 82.207 7.90625C82.6289 8.10156 82.9688 8.27734 83.2266 8.43359C83.4844 8.58984 83.7422 8.76953 84 8.97266C85.0859 9.84766 85.6289 10.9922 85.6289 12.4062C85.6289 13.3359 85.375 14.1758 84.8672 14.9258C84.3594 15.6758 83.6562 16.2656 82.7578 16.6953C81.8594 17.1172 80.8633 17.3281 79.7695 17.3281C79.0117 17.3281 78.1367 17.2148 77.1445 16.9883C76.5586 16.8477 75.7891 16.5977 74.8359 16.2383L74.5078 16.1211L74.1562 11.6797H74.5078C74.8516 12.875 75.4062 13.9414 76.1719 14.8789C77.1797 16.1055 78.3789 16.7188 79.7695 16.7188C80.4805 16.7188 81.1094 16.5859 81.6562 16.3203C82.2109 16.0469 82.6445 15.6758 82.957 15.207C83.2695 14.7305 83.4258 14.1875 83.4258 13.5781C83.4258 13.0391 83.3047 12.5547 83.0625 12.125C82.8203 11.6875 82.4258 11.2773 81.8789 10.8945C81.332 10.5039 80.582 10.1055 79.6289 9.69922C78.2461 9.09766 77.4062 8.71484 77.1094 8.55078C76.5391 8.23047 76.0664 7.88281 75.6914 7.50781C75.3164 7.13281 75.0391 6.72656 74.8594 6.28906C74.6797 5.85156 74.5898 5.38281 74.5898 4.88281C74.5898 4.10938 74.793 3.40234 75.1992 2.76172C75.6133 2.12109 76.1758 1.61719 76.8867 1.25C77.6055 0.882813 78.3984 0.699219 79.2656 0.699219C79.8125 0.699219 80.4219 0.789063 81.0938 0.96875L81.7969 1.15625C82.3203 1.29688 82.8789 1.36719 83.4727 1.36719H83.5898ZM82.6992 16.0156C83.9883 15.0859 84.6328 13.9688 84.6328 12.6641C84.6328 12.1484 84.5234 11.6484 84.3047 11.1641C84.0938 10.6719 83.7891 10.2539 83.3906 9.91016C82.8125 9.38672 81.793 8.82031 80.332 8.21094C79.1211 7.69531 78.332 7.34766 77.9648 7.16797C77.6055 6.98828 77.2383 6.74609 76.8633 6.44141C76.082 5.81641 75.6914 5.02734 75.6914 4.07422C75.6914 3.79297 75.7227 3.53906 75.7852 3.3125C75.8477 3.07812 75.9414 2.85547 76.0664 2.64453C76.1914 2.42578 76.3984 2.13672 76.6875 1.77734C75.5703 2.58203 75.0117 3.58594 75.0117 4.78906C75.0117 5.94531 75.4648 6.85938 76.3711 7.53125C76.8477 7.89062 77.3945 8.21094 78.0117 8.49219C78.0898 8.53125 78.6914 8.79688 79.8164 9.28906C81.1758 9.875 82.1133 10.4062 82.6289 10.8828C83.4492 11.6406 83.8594 12.5352 83.8594 13.5664C83.8594 14.0664 83.7656 14.5117 83.5781 14.9023C83.3984 15.2852 83.1055 15.6562 82.6992 16.0156ZM74.8828 15.5586C75.3984 15.8555 76.0547 16.1406 76.8516 16.4141C76.3281 15.9453 75.9297 15.5586 75.6562 15.2539C75.3906 14.9492 75.0859 14.5195 74.7422 13.9648L74.8828 15.5586ZM101.93 1.00391L102.293 5.36328H101.918C101.684 4.55859 101.363 3.86328 100.957 3.27734C100.559 2.69141 100.09 2.24219 99.5508 1.92969C99.0195 1.60938 98.4609 1.44922 97.875 1.44922C97.4141 1.44922 97.0117 1.54687 96.668 1.74219C96.332 1.92969 96.082 2.19141 95.918 2.52734C95.7617 2.84766 95.6836 3.36328 95.6836 4.07422V13.4258C95.6836 14.1211 95.7305 14.6328 95.8242 14.9609C95.918 15.2812 96.0977 15.5625 96.3633 15.8047C96.8398 16.2344 97.5352 16.5117 98.4492 16.6367V17H90.1875V16.6367C91.2031 16.4961 91.9453 16.1758 92.4141 15.6758C92.625 15.4492 92.7695 15.1719 92.8477 14.8438C92.9258 14.5156 92.9648 14.043 92.9648 13.4258V4.07422C92.9648 3.30078 92.8594 2.73828 92.6484 2.38672C92.4844 2.09766 92.2383 1.87109 91.9102 1.70703C91.582 1.53516 91.2031 1.44922 90.7734 1.44922C89.8906 1.44922 89.082 1.80078 88.3477 2.50391C87.6211 3.19922 87.0781 4.15234 86.7188 5.36328H86.3555L86.7188 1.00391H101.93ZM101.039 1.4375H99.3398C99.7539 1.60938 100.102 1.80859 100.383 2.03516C100.664 2.25391 100.957 2.57422 101.262 2.99609L101.039 1.4375ZM92.3086 16.4023H95.7422L95.2852 16.0625C95.0039 15.8516 94.8281 15.6914 94.7578 15.582C94.6875 15.4727 94.6523 15.3008 94.6523 15.0664V14.6797C94.6523 14.6172 94.6484 14.5742 94.6406 14.5508C94.6406 14.5273 94.6406 14.5039 94.6406 14.4805V3.52344C94.6406 3.5 94.6406 3.47656 94.6406 3.45312C94.6484 3.42969 94.6523 3.38672 94.6523 3.32422V2.9375C94.6523 2.70312 94.6953 2.52344 94.7812 2.39844C94.8672 2.26563 95.0352 2.11328 95.2852 1.94141L95.9531 1.44922H92.3438L92.8945 1.94141C93.0898 2.11328 93.2227 2.27344 93.293 2.42188C93.3633 2.5625 93.3984 2.73438 93.3984 2.9375V3.32422C93.4062 3.39453 93.4102 3.46094 93.4102 3.52344V14.4805C93.4102 14.543 93.4062 14.6094 93.3984 14.6797V15.0664C93.3984 15.3008 93.3594 15.4766 93.2812 15.5938C93.2109 15.7109 93.043 15.8672 92.7773 16.0625L92.3086 16.4023ZM87.1055 1.4375L86.9414 3.16016C87.2773 2.66797 87.5625 2.30859 87.7969 2.08203C88.0312 1.85547 88.3359 1.64062 88.7109 1.4375H87.1055ZM116.52 1.00391L116.965 5.36328H116.59C116.184 4.01953 115.578 3.03125 114.773 2.39844C113.977 1.75781 112.938 1.4375 111.656 1.4375H111C109.977 1.4375 109.25 1.63672 108.82 2.03516C108.398 2.42578 108.188 3.08203 108.188 4.00391V7.98828H109.746C110.926 7.98828 111.785 7.80469 112.324 7.4375C112.863 7.0625 113.234 6.39062 113.438 5.42188H113.789V11.3516H113.438C113.281 10.5703 113.07 9.97656 112.805 9.57031C112.547 9.15625 112.18 8.86719 111.703 8.70312C111.234 8.53125 110.594 8.44531 109.781 8.44531H108.188V13.5195C108.188 14.293 108.258 14.8867 108.398 15.3008C108.547 15.707 108.801 15.9922 109.16 16.1562C109.527 16.3203 110.039 16.4023 110.695 16.4023H111.773C112.836 16.4023 113.844 16.0742 114.797 15.418C115.852 14.6836 116.887 13.6602 117.902 12.3477L117.996 12.2188H118.406L117.023 17H103.184V16.6367C104.027 16.4961 104.641 16.1719 105.023 15.6641C105.32 15.2891 105.469 14.543 105.469 13.4258V4.57812C105.469 3.86719 105.43 3.35156 105.352 3.03125C105.273 2.71094 105.129 2.4375 104.918 2.21094C104.527 1.77344 103.949 1.49219 103.184 1.36719V1.00391H116.52ZM115.641 1.4375H113.953C114.391 1.61719 114.742 1.8125 115.008 2.02344C115.273 2.23438 115.57 2.55859 115.898 2.99609L115.641 1.4375ZM112.945 7.48438C112.727 7.6875 112.555 7.82812 112.43 7.90625C112.312 7.97656 112.062 8.08594 111.68 8.23438C112.117 8.35938 112.539 8.61328 112.945 8.99609V7.48438ZM116.191 16.4023L116.848 14.2227C116.566 14.5352 116.285 14.8203 116.004 15.0781C115.73 15.3281 115.418 15.5664 115.066 15.793C114.723 16.0195 114.371 16.2227 114.012 16.4023H116.191ZM104.824 16.4023H108.246L107.789 16.0625C107.523 15.8672 107.352 15.7109 107.273 15.5938C107.203 15.4766 107.168 15.3008 107.168 15.0664C107.168 14.9414 107.164 14.8594 107.156 14.8203C107.156 14.7734 107.156 14.7266 107.156 14.6797V14.4805V3.52344V3.32422C107.156 3.27734 107.156 3.23047 107.156 3.18359C107.164 3.13672 107.168 3.05469 107.168 2.9375C107.168 2.70312 107.207 2.52344 107.285 2.39844C107.371 2.26563 107.539 2.11328 107.789 1.94141L108.457 1.44922H104.613L105.281 1.94141C105.547 2.13672 105.715 2.29297 105.785 2.41016C105.863 2.52734 105.902 2.70312 105.902 2.9375C105.91 3.07031 105.914 3.19922 105.914 3.32422V3.52344V14.4805V14.6797C105.914 14.8047 105.91 14.9336 105.902 15.0664C105.902 15.3086 105.867 15.4883 105.797 15.6055C105.727 15.7148 105.555 15.8672 105.281 16.0625L104.824 16.4023ZM129.762 16.2852H129.48L123.082 3.54688L122.391 11.4805C122.352 11.918 122.332 12.332 122.332 12.7227C122.332 13.8633 122.562 14.7422 123.023 15.3594C123.492 15.9766 124.246 16.4023 125.285 16.6367V17H118.887V16.6367C119.457 16.4336 119.961 16.1289 120.398 15.7227C120.836 15.3086 121.172 14.8281 121.406 14.2812C121.656 13.6797 121.84 12.7227 121.957 11.4102L122.695 2.96094C122.398 2.40625 122.059 2.00781 121.676 1.76562C121.293 1.52344 120.809 1.39062 120.223 1.36719V1.00391H125.895C125.863 1.08203 125.844 1.13281 125.836 1.15625C125.688 1.51563 125.613 1.79688 125.613 2C125.613 2.375 125.812 2.96094 126.211 3.75781L130.746 12.7578L134.496 4.00391C134.793 3.30078 134.941 2.76562 134.941 2.39844C134.941 2.02344 134.785 1.55859 134.473 1.00391H140.109V1.36719C139.328 1.47656 138.762 1.70703 138.41 2.05859C138.059 2.40234 137.883 2.91016 137.883 3.58203C137.883 3.79297 137.895 3.99219 137.918 4.17969L137.953 4.47266L138.938 13.168C138.953 13.2852 138.965 13.3867 138.973 13.4727C138.988 13.5586 139.027 13.8047 139.09 14.2109C139.207 14.9688 139.438 15.5312 139.781 15.8984C140.133 16.2656 140.672 16.5117 141.398 16.6367V17H133.945V16.6367C134.766 16.4336 135.367 16.168 135.75 15.8398C136.141 15.5039 136.336 15.082 136.336 14.5742C136.336 14.3789 136.309 14.0586 136.254 13.6133L135.105 3.60547L129.762 16.2852ZM135.598 16.4023H139.195L138.586 15.9102C138.32 15.6992 138.145 15.2422 138.059 14.5391L136.77 3.34766C136.754 3.14453 136.746 3.00391 136.746 2.92578C136.746 2.74609 136.785 2.59375 136.863 2.46875C136.941 2.33594 137.102 2.17188 137.344 1.97656L138.012 1.44922H135.293L136.77 14.375L136.816 14.6328C136.832 14.8203 136.84 14.9609 136.84 15.0547C136.84 15.25 136.801 15.4023 136.723 15.5117C136.652 15.6211 136.488 15.7695 136.23 15.957L135.598 16.4023ZM129.586 15.6055L130.23 14.082L124.84 3.34766C124.574 2.79297 124.441 2.39062 124.441 2.14062C124.441 1.89844 124.504 1.66797 124.629 1.44922H121.934C122.371 1.76172 122.699 2.09375 122.918 2.44531C123.215 2.89062 123.469 3.33203 123.68 3.76953L129.586 15.6055ZM122.895 16.4023C122.52 15.9961 122.262 15.6641 122.121 15.4062C121.988 15.1406 121.887 14.8047 121.816 14.3984C121.629 14.8672 121.422 15.2422 121.195 15.5234C120.969 15.8047 120.645 16.0977 120.223 16.4023H122.895ZM150.504 17L150.539 16.6367C151.383 16.4961 151.996 16.1719 152.379 15.6641C152.676 15.2891 152.824 14.543 152.824 13.4258V4.57812C152.824 3.90625 152.785 3.40625 152.707 3.07812C152.637 2.74219 152.492 2.45313 152.273 2.21094C151.883 1.77344 151.305 1.49219 150.539 1.36719V1.00391C150.836 1.01953 150.988 1.02734 150.996 1.02734L152.367 1.09766C152.812 1.12109 153.289 1.13281 153.797 1.13281C154.711 1.13281 155.703 1.08594 156.773 0.992188C157.766 0.914062 158.5 0.875 158.977 0.875C160.227 0.875 161.359 1.07031 162.375 1.46094C163.391 1.84375 164.27 2.39453 165.012 3.11328C165.762 3.83203 166.34 4.6875 166.746 5.67969C167.152 6.67188 167.355 7.76172 167.355 8.94922C167.355 10.1445 167.145 11.25 166.723 12.2656C166.309 13.2734 165.711 14.1367 164.93 14.8555C164.156 15.5664 163.23 16.1133 162.152 16.4961C161.082 16.8789 159.887 17.0703 158.566 17.0703C158.082 17.0703 157.309 17.0234 156.246 16.9297C155.496 16.8594 154.766 16.8242 154.055 16.8242C153.555 16.8242 153 16.8398 152.391 16.8711L150.797 16.9883C150.711 16.9883 150.613 16.9922 150.504 17ZM155.566 3.875L155.543 12.9336C155.543 13.9414 155.633 14.6719 155.812 15.125C155.984 15.5469 156.273 15.875 156.68 16.1094C157.094 16.3359 157.59 16.4492 158.168 16.4492C159.066 16.4492 159.895 16.2656 160.652 15.8984C161.41 15.5234 162.07 14.9922 162.633 14.3047C163.203 13.6094 163.637 12.7891 163.934 11.8438C164.23 10.8984 164.379 9.88281 164.379 8.79688C164.379 7.36719 164.113 6.08594 163.582 4.95312C163.059 3.82031 162.324 2.93359 161.379 2.29297C160.441 1.64453 159.395 1.32031 158.238 1.32031C157.324 1.32031 156.648 1.52734 156.211 1.94141C155.781 2.34766 155.566 2.99219 155.566 3.875ZM152.18 16.4023C152.859 16.332 153.473 16.2969 154.02 16.2969C154.566 16.2969 155.094 16.3242 155.602 16.3789L155.145 16.0625C154.91 15.9062 154.746 15.7578 154.652 15.6172C154.566 15.4766 154.523 15.293 154.523 15.0664C154.516 14.9336 154.512 14.8047 154.512 14.6797V14.4805V3.52344V3.32422C154.512 3.19922 154.516 3.07031 154.523 2.9375C154.523 2.70312 154.559 2.52734 154.629 2.41016C154.707 2.29297 154.879 2.13672 155.145 1.94141L155.766 1.48438C155.078 1.54687 154.484 1.57812 153.984 1.57812C153.516 1.57812 152.93 1.55078 152.227 1.49609L152.016 1.48438L152.637 1.94141C152.887 2.11328 153.051 2.26563 153.129 2.39844C153.215 2.52344 153.258 2.70312 153.258 2.9375C153.258 3.01562 153.258 3.08594 153.258 3.14844C153.266 3.21094 153.27 3.26953 153.27 3.32422V3.52344V14.4805V14.6797C153.27 14.7266 153.266 14.7812 153.258 14.8438C153.258 14.9062 153.258 14.9805 153.258 15.0664C153.258 15.3086 153.223 15.4883 153.152 15.6055C153.082 15.7148 152.91 15.8672 152.637 16.0625L152.18 16.4023ZM160.066 16.4609C160.965 16.25 161.738 15.957 162.387 15.582C163.035 15.207 163.645 14.707 164.215 14.082C165.504 12.6289 166.148 10.9062 166.148 8.91406C166.148 7.71875 165.922 6.60938 165.469 5.58594C165.016 4.5625 164.363 3.69531 163.512 2.98438C162.668 2.26563 161.691 1.75391 160.582 1.44922C161.004 1.65234 161.398 1.88281 161.766 2.14062C162.141 2.39062 162.469 2.66797 162.75 2.97266C163.039 3.27734 163.289 3.58984 163.5 3.91016C164.398 5.27734 164.848 6.90234 164.848 8.78516C164.848 9.78516 164.723 10.7422 164.473 11.6562C164.223 12.5703 163.863 13.3672 163.395 14.0469C162.996 14.6328 162.535 15.1133 162.012 15.4883C161.496 15.8555 160.848 16.1797 160.066 16.4609ZM182.121 1.00391L182.566 5.36328H182.191C181.785 4.01953 181.18 3.03125 180.375 2.39844C179.578 1.75781 178.539 1.4375 177.258 1.4375H176.602C175.578 1.4375 174.852 1.63672 174.422 2.03516C174 2.42578 173.789 3.08203 173.789 4.00391V7.98828H175.348C176.527 7.98828 177.387 7.80469 177.926 7.4375C178.465 7.0625 178.836 6.39062 179.039 5.42188H179.391V11.3516H179.039C178.883 10.5703 178.672 9.97656 178.406 9.57031C178.148 9.15625 177.781 8.86719 177.305 8.70312C176.836 8.53125 176.195 8.44531 175.383 8.44531H173.789V13.5195C173.789 14.293 173.859 14.8867 174 15.3008C174.148 15.707 174.402 15.9922 174.762 16.1562C175.129 16.3203 175.641 16.4023 176.297 16.4023H177.375C178.438 16.4023 179.445 16.0742 180.398 15.418C181.453 14.6836 182.488 13.6602 183.504 12.3477L183.598 12.2188H184.008L182.625 17H168.785V16.6367C169.629 16.4961 170.242 16.1719 170.625 15.6641C170.922 15.2891 171.07 14.543 171.07 13.4258V4.57812C171.07 3.86719 171.031 3.35156 170.953 3.03125C170.875 2.71094 170.73 2.4375 170.52 2.21094C170.129 1.77344 169.551 1.49219 168.785 1.36719V1.00391H182.121ZM181.242 1.4375H179.555C179.992 1.61719 180.344 1.8125 180.609 2.02344C180.875 2.23438 181.172 2.55859 181.5 2.99609L181.242 1.4375ZM178.547 7.48438C178.328 7.6875 178.156 7.82812 178.031 7.90625C177.914 7.97656 177.664 8.08594 177.281 8.23438C177.719 8.35938 178.141 8.61328 178.547 8.99609V7.48438ZM181.793 16.4023L182.449 14.2227C182.168 14.5352 181.887 14.8203 181.605 15.0781C181.332 15.3281 181.02 15.5664 180.668 15.793C180.324 16.0195 179.973 16.2227 179.613 16.4023H181.793ZM170.426 16.4023H173.848L173.391 16.0625C173.125 15.8672 172.953 15.7109 172.875 15.5938C172.805 15.4766 172.77 15.3008 172.77 15.0664C172.77 14.9414 172.766 14.8594 172.758 14.8203C172.758 14.7734 172.758 14.7266 172.758 14.6797V14.4805V3.52344V3.32422C172.758 3.27734 172.758 3.23047 172.758 3.18359C172.766 3.13672 172.77 3.05469 172.77 2.9375C172.77 2.70312 172.809 2.52344 172.887 2.39844C172.973 2.26563 173.141 2.11328 173.391 1.94141L174.059 1.44922H170.215L170.883 1.94141C171.148 2.13672 171.316 2.29297 171.387 2.41016C171.465 2.52734 171.504 2.70312 171.504 2.9375C171.512 3.07031 171.516 3.19922 171.516 3.32422V3.52344V14.4805V14.6797C171.516 14.8047 171.512 14.9336 171.504 15.0664C171.504 15.3086 171.469 15.4883 171.398 15.6055C171.328 15.7148 171.156 15.8672 170.883 16.0625L170.426 16.4023ZM194.027 1.36719L194.707 5.26953H194.309C194.098 4.56641 193.891 4.01172 193.688 3.60547C193.484 3.19922 193.258 2.85937 193.008 2.58594C192.609 2.14062 192.129 1.79297 191.566 1.54297C191.012 1.29297 190.43 1.16797 189.82 1.16797C188.961 1.16797 188.258 1.40234 187.711 1.87109C187.164 2.33203 186.891 2.92969 186.891 3.66406C186.891 4.46875 187.246 5.13672 187.957 5.66797C188.324 5.93359 188.715 6.17188 189.129 6.38281C189.551 6.58594 190.207 6.875 191.098 7.25C191.707 7.49219 192.223 7.71094 192.645 7.90625C193.066 8.10156 193.406 8.27734 193.664 8.43359C193.922 8.58984 194.18 8.76953 194.438 8.97266C195.523 9.84766 196.066 10.9922 196.066 12.4062C196.066 13.3359 195.812 14.1758 195.305 14.9258C194.797 15.6758 194.094 16.2656 193.195 16.6953C192.297 17.1172 191.301 17.3281 190.207 17.3281C189.449 17.3281 188.574 17.2148 187.582 16.9883C186.996 16.8477 186.227 16.5977 185.273 16.2383L184.945 16.1211L184.594 11.6797H184.945C185.289 12.875 185.844 13.9414 186.609 14.8789C187.617 16.1055 188.816 16.7188 190.207 16.7188C190.918 16.7188 191.547 16.5859 192.094 16.3203C192.648 16.0469 193.082 15.6758 193.395 15.207C193.707 14.7305 193.863 14.1875 193.863 13.5781C193.863 13.0391 193.742 12.5547 193.5 12.125C193.258 11.6875 192.863 11.2773 192.316 10.8945C191.77 10.5039 191.02 10.1055 190.066 9.69922C188.684 9.09766 187.844 8.71484 187.547 8.55078C186.977 8.23047 186.504 7.88281 186.129 7.50781C185.754 7.13281 185.477 6.72656 185.297 6.28906C185.117 5.85156 185.027 5.38281 185.027 4.88281C185.027 4.10938 185.23 3.40234 185.637 2.76172C186.051 2.12109 186.613 1.61719 187.324 1.25C188.043 0.882813 188.836 0.699219 189.703 0.699219C190.25 0.699219 190.859 0.789063 191.531 0.96875L192.234 1.15625C192.758 1.29688 193.316 1.36719 193.91 1.36719H194.027ZM193.137 16.0156C194.426 15.0859 195.07 13.9688 195.07 12.6641C195.07 12.1484 194.961 11.6484 194.742 11.1641C194.531 10.6719 194.227 10.2539 193.828 9.91016C193.25 9.38672 192.23 8.82031 190.77 8.21094C189.559 7.69531 188.77 7.34766 188.402 7.16797C188.043 6.98828 187.676 6.74609 187.301 6.44141C186.52 5.81641 186.129 5.02734 186.129 4.07422C186.129 3.79297 186.16 3.53906 186.223 3.3125C186.285 3.07812 186.379 2.85547 186.504 2.64453C186.629 2.42578 186.836 2.13672 187.125 1.77734C186.008 2.58203 185.449 3.58594 185.449 4.78906C185.449 5.94531 185.902 6.85938 186.809 7.53125C187.285 7.89062 187.832 8.21094 188.449 8.49219C188.527 8.53125 189.129 8.79688 190.254 9.28906C191.613 9.875 192.551 10.4062 193.066 10.8828C193.887 11.6406 194.297 12.5352 194.297 13.5664C194.297 14.0664 194.203 14.5117 194.016 14.9023C193.836 15.2852 193.543 15.6562 193.137 16.0156ZM185.32 15.5586C185.836 15.8555 186.492 16.1406 187.289 16.4141C186.766 15.9453 186.367 15.5586 186.094 15.2539C185.828 14.9492 185.523 14.5195 185.18 13.9648L185.32 15.5586ZM197.191 17V16.6367C198.035 16.4961 198.648 16.1719 199.031 15.6641C199.328 15.2891 199.477 14.543 199.477 13.4258V4.57812C199.477 3.86719 199.438 3.35156 199.359 3.03125C199.281 2.71094 199.137 2.4375 198.926 2.21094C198.535 1.77344 197.957 1.49219 197.191 1.36719V1.00391H204.492V1.36719C203.648 1.50781 203.031 1.83203 202.641 2.33984C202.484 2.54297 202.371 2.81641 202.301 3.16016C202.23 3.49609 202.195 3.96875 202.195 4.57812V13.4258C202.195 14.0898 202.234 14.5938 202.312 14.9375C202.398 15.2734 202.547 15.5586 202.758 15.793C203.148 16.2305 203.727 16.5117 204.492 16.6367V17H197.191ZM198.832 16.4023H202.254L201.797 16.0625C201.531 15.8672 201.359 15.7109 201.281 15.5938C201.211 15.4766 201.176 15.3008 201.176 15.0664C201.176 14.9414 201.172 14.8594 201.164 14.8203C201.164 14.7734 201.164 14.7266 201.164 14.6797V14.4805V3.52344V3.32422C201.164 3.27734 201.164 3.23047 201.164 3.18359C201.172 3.13672 201.176 3.05469 201.176 2.9375C201.176 2.70312 201.211 2.52734 201.281 2.41016C201.359 2.29297 201.531 2.13672 201.797 1.94141L202.465 1.44922H198.621L199.289 1.94141C199.562 2.13672 199.734 2.28906 199.805 2.39844C199.875 2.50781 199.91 2.6875 199.91 2.9375C199.918 3.07031 199.922 3.19922 199.922 3.32422V3.52344V14.4805V14.6797C199.922 14.8047 199.918 14.9336 199.91 15.0664C199.91 15.3086 199.875 15.4883 199.805 15.6055C199.734 15.7148 199.562 15.8672 199.289 16.0625L198.832 16.4023ZM219.984 1.20312L221.332 5.43359H220.98C220.184 3.92578 219.332 2.83594 218.426 2.16406C217.52 1.49219 216.441 1.15625 215.191 1.15625C214.277 1.15625 213.406 1.34766 212.578 1.73047C211.758 2.11328 211.035 2.66797 210.41 3.39453C209.262 4.71484 208.688 6.38672 208.688 8.41016C208.688 9.95703 208.984 11.3555 209.578 12.6055C210.172 13.8555 210.992 14.8359 212.039 15.5469C213.086 16.2578 214.246 16.6133 215.52 16.6133C216.309 16.6133 217.012 16.4844 217.629 16.2266C218.246 15.9609 218.684 15.6055 218.941 15.1602C219.184 14.7461 219.305 14.0742 219.305 13.1445V12.7461C219.305 12.0586 219.254 11.543 219.152 11.1992C219.059 10.8555 218.887 10.5625 218.637 10.3203C218.16 9.875 217.461 9.61328 216.539 9.53516V9.17188H223.758V9.53516C223.133 9.67578 222.664 10 222.352 10.5078C222.133 10.8984 222.023 11.6445 222.023 12.7461V14.8789L222.738 15.957C222.629 15.9492 222.504 15.9453 222.363 15.9453C221.762 15.9453 221.184 15.9961 220.629 16.0977C220.074 16.1992 219.355 16.3906 218.473 16.6719C217.629 16.9453 216.906 17.1289 216.305 17.2227C215.711 17.3242 215.078 17.375 214.406 17.375C211.859 17.375 209.863 16.6641 208.418 15.2422C207.629 14.4531 207.012 13.5273 206.566 12.4648C206.129 11.3945 205.91 10.3008 205.91 9.18359C205.91 8.02734 206.137 6.92969 206.59 5.89062C207.043 4.85156 207.672 3.94141 208.477 3.16016C209.281 2.37891 210.219 1.76953 211.289 1.33203C212.359 0.886719 213.492 0.664062 214.688 0.664062C215.367 0.664062 216.184 0.738281 217.137 0.886719C217.277 0.902344 217.441 0.929688 217.629 0.96875C217.824 1 218.191 1.0625 218.73 1.15625C219.012 1.21094 219.242 1.23828 219.422 1.23828C219.453 1.23828 219.508 1.23438 219.586 1.22656C219.664 1.21875 219.75 1.21484 219.844 1.21484C219.898 1.21484 219.945 1.21094 219.984 1.20312ZM218.426 9.59375L219.117 10.1094C219.383 10.3047 219.551 10.4609 219.621 10.5781C219.699 10.6953 219.738 10.8711 219.738 11.1055C219.738 11.1836 219.738 11.2539 219.738 11.3164C219.746 11.3789 219.75 11.4375 219.75 11.4922V11.6914V13.4727C219.75 14.1055 219.68 14.5938 219.539 14.9375C219.406 15.2812 219.145 15.6484 218.754 16.0391C219.496 15.7344 220.242 15.5352 220.992 15.4414V11.6914V11.4922C220.992 11.3672 220.996 11.2383 221.004 11.1055C221.004 10.8711 221.043 10.6914 221.121 10.5664C221.207 10.4336 221.375 10.2812 221.625 10.1094L222.316 9.59375H218.426ZM213.328 16.9531C212.453 16.6484 211.742 16.3281 211.195 15.9922C210.648 15.6562 210.129 15.2188 209.637 14.6797C208.973 13.9219 208.461 13.0508 208.102 12.0664C207.75 11.082 207.574 10.0469 207.574 8.96094C207.574 8.03125 207.703 7.12109 207.961 6.23047C208.219 5.33984 208.594 4.55469 209.086 3.875C209.609 3.125 210.434 2.35156 211.559 1.55469C210.441 2.09375 209.492 2.74609 208.711 3.51172C207.938 4.27734 207.352 5.14062 206.953 6.10156C206.562 7.0625 206.367 8.09375 206.367 9.19531C206.367 10.5547 206.656 11.8008 207.234 12.9336C207.82 14.0664 208.645 14.9844 209.707 15.6875C210.77 16.3906 211.977 16.8125 213.328 16.9531ZM240.645 17.375H240.293L227.426 3.67578L227.438 11.5391C227.438 12.4141 227.488 13.1172 227.59 13.6484C227.691 14.1797 227.855 14.6367 228.082 15.0195C228.613 15.8789 229.477 16.418 230.672 16.6367V17H224.543V16.6367C225.598 16.2461 226.301 15.5078 226.652 14.4219C226.777 14.0625 226.863 13.668 226.91 13.2383C226.957 12.8008 226.98 12.25 226.98 11.5859V3.19531C226.371 2.57031 225.902 2.14062 225.574 1.90625C225.246 1.67188 224.871 1.49219 224.449 1.36719V1.00391H228.996C229.184 1.33203 229.387 1.62891 229.605 1.89453C229.652 1.93359 229.734 2.02734 229.852 2.17578C229.977 2.32422 230.059 2.42188 230.098 2.46875C230.23 2.61719 230.297 2.69141 230.297 2.69141L240.199 13.2734V5.21094C240.199 4.39062 240.094 3.71875 239.883 3.19531C239.68 2.66406 239.355 2.25391 238.91 1.96484C238.473 1.67578 237.891 1.47656 237.164 1.36719V1.00391H242.754V1.36719C241.918 1.59375 241.355 1.96875 241.066 2.49219C240.785 3.01562 240.645 3.92188 240.645 5.21094V17.375ZM240.199 16.6367V14.7969L229.207 3.05469C228.707 2.53125 228.305 1.99609 228 1.44922H225.609C226.18 1.79297 226.762 2.28516 227.355 2.92578L240.199 16.6367ZM238.77 1.44922C239.145 1.63672 239.43 1.82812 239.625 2.02344C239.82 2.21875 240.012 2.50391 240.199 2.87891C240.34 2.50391 240.457 2.23438 240.551 2.07031C240.645 1.90625 240.801 1.69922 241.02 1.44922H238.77ZM228.211 16.4023C227.898 16.0586 227.66 15.7617 227.496 15.5117C227.34 15.2539 227.191 14.9375 227.051 14.5625C226.902 14.9609 226.742 15.293 226.57 15.5586C226.398 15.8164 226.148 16.0977 225.82 16.4023H228.211Z" fill="black"/>
</svg>
