<svg width="291" height="18" viewBox="0 0 291 18" fill="none" xmlns="http://www.w3.org/2000/svg">
<path d="M7.58203 7.50781C8.23047 7.78125 8.78516 8.13281 9.24609 8.5625C9.70703 8.99219 10.0586 9.5 10.3008 10.0859C10.543 10.6719 10.6641 11.293 10.6641 11.9492C10.6641 12.9336 10.4023 13.8359 9.87891 14.6562C9.36328 15.4688 8.65234 16.1133 7.74609 16.5898C6.84766 17.0586 5.85547 17.293 4.76953 17.293C3.52734 17.293 2.49609 17.0312 1.67578 16.5078C0.855469 15.9766 0.445312 15.3125 0.445312 14.5156C0.445312 14.1484 0.554688 13.8477 0.773438 13.6133C0.992188 13.3789 1.28125 13.2617 1.64062 13.2617C2.0625 13.2617 2.35938 13.4297 2.53125 13.7656C2.625 13.9453 2.71094 14.2852 2.78906 14.7852C2.88281 15.4727 3.09375 15.9648 3.42188 16.2617C3.75781 16.5586 4.26953 16.707 4.95703 16.707C5.59766 16.707 6.1875 16.5508 6.72656 16.2383C7.26562 15.9258 7.69141 15.5 8.00391 14.9609C8.31641 14.4141 8.47266 13.8203 8.47266 13.1797C8.47266 12.0781 8.01953 11.1328 7.11328 10.3438C6.21484 9.54688 4.90625 8.9375 3.1875 8.51562L3.19922 8.14062C3.97266 8 4.64062 7.74609 5.20312 7.37891C5.76562 7.01172 6.19141 6.54297 6.48047 5.97266C6.77734 5.40234 6.92578 4.76562 6.92578 4.0625C6.92578 3.17969 6.72656 2.46094 6.32812 1.90625C5.9375 1.34375 5.41797 1.0625 4.76953 1.0625C4.24609 1.0625 3.85938 1.25781 3.60938 1.64844C3.50781 1.8125 3.43359 1.98047 3.38672 2.15234C3.33984 2.31641 3.26562 2.68359 3.16406 3.25391C3.08594 3.75391 2.94922 4.11719 2.75391 4.34375C2.56641 4.5625 2.30859 4.67188 1.98047 4.67188C1.66797 4.67188 1.41016 4.5625 1.20703 4.34375C1.01172 4.11719 0.914062 3.82422 0.914062 3.46484C0.914062 2.93359 1.09766 2.44922 1.46484 2.01172C1.83984 1.56641 2.34766 1.21875 2.98828 0.96875C3.62891 0.710938 4.33594 0.582031 5.10938 0.582031C5.75781 0.582031 6.36328 0.667969 6.92578 0.839844C7.49609 1.01172 7.97266 1.25391 8.35547 1.56641C8.74609 1.87109 9.04688 2.25 9.25781 2.70312C9.47656 3.14844 9.58594 3.64453 9.58594 4.19141C9.58594 4.86328 9.41797 5.47656 9.08203 6.03125C8.75391 6.57812 8.25391 7.07031 7.58203 7.50781ZM3.51562 1.13281C2.85156 1.32031 2.31641 1.63281 1.91016 2.07031C1.51172 2.5 1.3125 2.97266 1.3125 3.48828C1.3125 3.64453 1.35156 3.77734 1.42969 3.88672C1.50781 3.98828 1.61328 4.03906 1.74609 4.03906C2.01172 4.03906 2.17188 3.83984 2.22656 3.44141C2.32812 2.82422 2.46875 2.35938 2.64844 2.04688C2.82812 1.73437 3.11719 1.42969 3.51562 1.13281ZM2.66016 16.5781C2.33984 16.2891 2.10547 16.0039 1.95703 15.7227C1.81641 15.4414 1.73438 15.1016 1.71094 14.7031L1.6875 14.3867C1.67188 14.0508 1.54297 13.8828 1.30078 13.8828C0.996094 13.8828 0.84375 14.0938 0.84375 14.5156C0.84375 14.9531 0.996094 15.3477 1.30078 15.6992C1.61328 16.0508 2.06641 16.3438 2.66016 16.5781ZM7.35938 16.2617C8.94531 15.3086 9.73828 14.0273 9.73828 12.418C9.73828 10.332 8.46094 8.79688 5.90625 7.8125C7.67188 6.92969 8.55469 5.73047 8.55469 4.21484C8.55469 3.66797 8.44922 3.16797 8.23828 2.71484C8.02734 2.26172 7.72266 1.89844 7.32422 1.625C6.92578 1.34375 6.46484 1.17578 5.94141 1.12109C6.89453 1.67578 7.37109 2.64844 7.37109 4.03906C7.37109 4.73438 7.24609 5.36719 6.99609 5.9375C6.74609 6.5 6.375 6.98828 5.88281 7.40234C5.39062 7.80859 4.80078 8.11719 4.11328 8.32812C5.12891 8.625 5.99609 9.01172 6.71484 9.48828C7.44141 9.95703 7.98828 10.4961 8.35547 11.1055C8.73047 11.707 8.91797 12.3672 8.91797 13.0859C8.91797 13.4766 8.86719 13.8438 8.76562 14.1875C8.67188 14.5312 8.52734 14.8555 8.33203 15.1602C8.20703 15.3711 7.88281 15.7383 7.35938 16.2617ZM12.5625 15.6875C12.5625 15.4062 12.6289 15.1523 12.7617 14.9258C12.8945 14.6992 13.0742 14.5195 13.3008 14.3867C13.5273 14.2539 13.7812 14.1875 14.0625 14.1875C14.3438 14.1875 14.5977 14.2539 14.8242 14.3867C15.0508 14.5195 15.2305 14.6992 15.3633 14.9258C15.4961 15.1523 15.5625 15.4062 15.5625 15.6875C15.5625 15.9688 15.4961 16.2227 15.3633 16.4492C15.2305 16.6758 15.0508 16.8555 14.8242 16.9883C14.5977 17.1211 14.3438 17.1875 14.0625 17.1875C13.7812 17.1875 13.5273 17.1211 13.3008 16.9883C13.0742 16.8555 12.8945 16.6758 12.7617 16.4492C12.6289 16.2227 12.5625 15.9688 12.5625 15.6875ZM14.2734 16.5547V14.8203C14.2734 14.625 14.1797 14.5273 13.9922 14.5273C13.7188 14.5273 13.4766 14.6445 13.2656 14.8789C13.0547 15.1133 12.9492 15.3828 12.9492 15.6875C12.9492 15.9922 13.0547 16.2617 13.2656 16.4961C13.4844 16.7305 13.7266 16.8477 13.9922 16.8477C14.1797 16.8477 14.2734 16.75 14.2734 16.5547ZM18.4102 14.5742H22.4766C23.5078 14.5742 24.3438 14.4258 24.9844 14.1289C25.625 13.832 26.1914 13.3398 26.6836 12.6523H27.0703L25.9453 17H16.7461L16.7344 16.5195C17.0859 15.7539 17.5 15.0156 17.9766 14.3047C18.4531 13.5938 19.1484 12.6836 20.0625 11.5742C20.4531 11.0898 20.7812 10.6836 21.0469 10.3555C21.3203 10.0195 21.5312 9.76172 21.6797 9.58203C22.4688 8.58203 23.0312 7.71094 23.3672 6.96875C23.7109 6.22656 23.8828 5.47656 23.8828 4.71875C23.8828 4.07812 23.7656 3.48438 23.5312 2.9375C23.3047 2.39062 22.9883 1.96484 22.582 1.66016C22.1758 1.34766 21.7383 1.19141 21.2695 1.19141C20.293 1.19141 19.7852 1.80078 19.7461 3.01953L19.7227 3.64062C19.6914 4.59375 19.3203 5.07031 18.6094 5.07031C18.2656 5.07031 17.9805 4.94922 17.7539 4.70703C17.5273 4.45703 17.4141 4.13672 17.4141 3.74609C17.4141 3.19141 17.6133 2.68359 18.0117 2.22266C18.4102 1.75391 18.9531 1.38281 19.6406 1.10938C20.3359 0.835938 21.0898 0.699219 21.9023 0.699219C22.8008 0.699219 23.6211 0.878906 24.3633 1.23828C25.1133 1.59766 25.6953 2.09766 26.1094 2.73828C26.5312 3.37109 26.7422 4.08203 26.7422 4.87109C26.7422 5.43359 26.6367 5.96484 26.4258 6.46484C26.2227 6.95703 25.8789 7.48047 25.3945 8.03516C24.918 8.58203 24.2891 9.17578 23.5078 9.81641L21.6094 11.3867C20.1562 12.5742 19.0898 13.6367 18.4102 14.5742ZM19.5352 1.48438C18.4023 2.11719 17.8359 2.88281 17.8359 3.78125C17.8359 3.98438 17.8789 4.15234 17.9648 4.28516C18.0508 4.41016 18.1641 4.47266 18.3047 4.47266C18.5859 4.47266 18.7266 4.26172 18.7266 3.83984C18.7266 3.25391 18.7852 2.79688 18.9023 2.46875C19.0195 2.13281 19.2305 1.80469 19.5352 1.48438ZM25.0664 16.4141L25.4766 14.8555C24.8359 15.2383 24 15.4297 22.9688 15.4297H17.7656C17.5703 15.7812 17.3984 16.1094 17.25 16.4141H25.0664ZM20.5664 11.5625C21.5273 10.6953 22.4219 9.82812 23.25 8.96094C24.1328 8.03125 24.7422 7.26172 25.0781 6.65234C25.4141 6.04297 25.582 5.40234 25.582 4.73047C25.582 4.10547 25.457 3.55078 25.207 3.06641C24.9648 2.57422 24.6133 2.16797 24.1523 1.84766C23.6914 1.52734 23.1562 1.32813 22.5469 1.25C23.125 1.57812 23.5625 2.03906 23.8594 2.63281C24.1641 3.21875 24.3164 3.91406 24.3164 4.71875C24.3164 5.35156 24.2031 5.97656 23.9766 6.59375C23.75 7.21094 23.3945 7.875 22.9102 8.58594C22.2227 9.57812 21.4414 10.5703 20.5664 11.5625ZM53.5898 1.36719L54.2695 5.26953H53.8711C53.6602 4.56641 53.4531 4.01172 53.25 3.60547C53.0469 3.19922 52.8203 2.85937 52.5703 2.58594C52.1719 2.14062 51.6914 1.79297 51.1289 1.54297C50.5742 1.29297 49.9922 1.16797 49.3828 1.16797C48.5234 1.16797 47.8203 1.40234 47.2734 1.87109C46.7266 2.33203 46.4531 2.92969 46.4531 3.66406C46.4531 4.46875 46.8086 5.13672 47.5195 5.66797C47.8867 5.93359 48.2773 6.17188 48.6914 6.38281C49.1133 6.58594 49.7695 6.875 50.6602 7.25C51.2695 7.49219 51.7852 7.71094 52.207 7.90625C52.6289 8.10156 52.9688 8.27734 53.2266 8.43359C53.4844 8.58984 53.7422 8.76953 54 8.97266C55.0859 9.84766 55.6289 10.9922 55.6289 12.4062C55.6289 13.3359 55.375 14.1758 54.8672 14.9258C54.3594 15.6758 53.6562 16.2656 52.7578 16.6953C51.8594 17.1172 50.8633 17.3281 49.7695 17.3281C49.0117 17.3281 48.1367 17.2148 47.1445 16.9883C46.5586 16.8477 45.7891 16.5977 44.8359 16.2383L44.5078 16.1211L44.1562 11.6797H44.5078C44.8516 12.875 45.4062 13.9414 46.1719 14.8789C47.1797 16.1055 48.3789 16.7188 49.7695 16.7188C50.4805 16.7188 51.1094 16.5859 51.6562 16.3203C52.2109 16.0469 52.6445 15.6758 52.957 15.207C53.2695 14.7305 53.4258 14.1875 53.4258 13.5781C53.4258 13.0391 53.3047 12.5547 53.0625 12.125C52.8203 11.6875 52.4258 11.2773 51.8789 10.8945C51.332 10.5039 50.582 10.1055 49.6289 9.69922C48.2461 9.09766 47.4062 8.71484 47.1094 8.55078C46.5391 8.23047 46.0664 7.88281 45.6914 7.50781C45.3164 7.13281 45.0391 6.72656 44.8594 6.28906C44.6797 5.85156 44.5898 5.38281 44.5898 4.88281C44.5898 4.10938 44.793 3.40234 45.1992 2.76172C45.6133 2.12109 46.1758 1.61719 46.8867 1.25C47.6055 0.882813 48.3984 0.699219 49.2656 0.699219C49.8125 0.699219 50.4219 0.789063 51.0938 0.96875L51.7969 1.15625C52.3203 1.29688 52.8789 1.36719 53.4727 1.36719H53.5898ZM52.6992 16.0156C53.9883 15.0859 54.6328 13.9688 54.6328 12.6641C54.6328 12.1484 54.5234 11.6484 54.3047 11.1641C54.0938 10.6719 53.7891 10.2539 53.3906 9.91016C52.8125 9.38672 51.793 8.82031 50.332 8.21094C49.1211 7.69531 48.332 7.34766 47.9648 7.16797C47.6055 6.98828 47.2383 6.74609 46.8633 6.44141C46.082 5.81641 45.6914 5.02734 45.6914 4.07422C45.6914 3.79297 45.7227 3.53906 45.7852 3.3125C45.8477 3.07812 45.9414 2.85547 46.0664 2.64453C46.1914 2.42578 46.3984 2.13672 46.6875 1.77734C45.5703 2.58203 45.0117 3.58594 45.0117 4.78906C45.0117 5.94531 45.4648 6.85938 46.3711 7.53125C46.8477 7.89062 47.3945 8.21094 48.0117 8.49219C48.0898 8.53125 48.6914 8.79688 49.8164 9.28906C51.1758 9.875 52.1133 10.4062 52.6289 10.8828C53.4492 11.6406 53.8594 12.5352 53.8594 13.5664C53.8594 14.0664 53.7656 14.5117 53.5781 14.9023C53.3984 15.2852 53.1055 15.6562 52.6992 16.0156ZM44.8828 15.5586C45.3984 15.8555 46.0547 16.1406 46.8516 16.4141C46.3281 15.9453 45.9297 15.5586 45.6562 15.2539C45.3906 14.9492 45.0859 14.5195 44.7422 13.9648L44.8828 15.5586ZM71.9297 1.00391L72.293 5.36328H71.918C71.6836 4.55859 71.3633 3.86328 70.957 3.27734C70.5586 2.69141 70.0898 2.24219 69.5508 1.92969C69.0195 1.60938 68.4609 1.44922 67.875 1.44922C67.4141 1.44922 67.0117 1.54687 66.668 1.74219C66.332 1.92969 66.082 2.19141 65.918 2.52734C65.7617 2.84766 65.6836 3.36328 65.6836 4.07422V13.4258C65.6836 14.1211 65.7305 14.6328 65.8242 14.9609C65.918 15.2812 66.0977 15.5625 66.3633 15.8047C66.8398 16.2344 67.5352 16.5117 68.4492 16.6367V17H60.1875V16.6367C61.2031 16.4961 61.9453 16.1758 62.4141 15.6758C62.625 15.4492 62.7695 15.1719 62.8477 14.8438C62.9258 14.5156 62.9648 14.043 62.9648 13.4258V4.07422C62.9648 3.30078 62.8594 2.73828 62.6484 2.38672C62.4844 2.09766 62.2383 1.87109 61.9102 1.70703C61.582 1.53516 61.2031 1.44922 60.7734 1.44922C59.8906 1.44922 59.082 1.80078 58.3477 2.50391C57.6211 3.19922 57.0781 4.15234 56.7188 5.36328H56.3555L56.7188 1.00391H71.9297ZM71.0391 1.4375H69.3398C69.7539 1.60938 70.1016 1.80859 70.3828 2.03516C70.6641 2.25391 70.957 2.57422 71.2617 2.99609L71.0391 1.4375ZM62.3086 16.4023H65.7422L65.2852 16.0625C65.0039 15.8516 64.8281 15.6914 64.7578 15.582C64.6875 15.4727 64.6523 15.3008 64.6523 15.0664V14.6797C64.6523 14.6172 64.6484 14.5742 64.6406 14.5508C64.6406 14.5273 64.6406 14.5039 64.6406 14.4805V3.52344C64.6406 3.5 64.6406 3.47656 64.6406 3.45312C64.6484 3.42969 64.6523 3.38672 64.6523 3.32422V2.9375C64.6523 2.70312 64.6953 2.52344 64.7812 2.39844C64.8672 2.26563 65.0352 2.11328 65.2852 1.94141L65.9531 1.44922H62.3438L62.8945 1.94141C63.0898 2.11328 63.2227 2.27344 63.293 2.42188C63.3633 2.5625 63.3984 2.73438 63.3984 2.9375V3.32422C63.4062 3.39453 63.4102 3.46094 63.4102 3.52344V14.4805C63.4102 14.543 63.4062 14.6094 63.3984 14.6797V15.0664C63.3984 15.3008 63.3594 15.4766 63.2812 15.5938C63.2109 15.7109 63.043 15.8672 62.7773 16.0625L62.3086 16.4023ZM57.1055 1.4375L56.9414 3.16016C57.2773 2.66797 57.5625 2.30859 57.7969 2.08203C58.0312 1.85547 58.3359 1.64062 58.7109 1.4375H57.1055ZM80.4961 1.00391V1.36719C79.5898 1.50781 78.9336 1.82812 78.5273 2.32812C78.3398 2.57031 78.2109 2.85547 78.1406 3.18359C78.0781 3.51172 78.0469 3.97656 78.0469 4.57812V11.0469V11.457C78.0547 13.0039 78.4414 14.2031 79.207 15.0547C79.6211 15.5156 80.1484 15.8789 80.7891 16.1445C81.4297 16.4023 82.0977 16.5312 82.793 16.5312C83.8086 16.5312 84.6836 16.2773 85.418 15.7695C86.1602 15.2617 86.7188 14.5469 87.0938 13.625C87.3906 12.8906 87.5391 11.875 87.5391 10.5781V5.12891C87.5391 3.80078 87.2344 2.84766 86.625 2.26953C86.1172 1.78516 85.4805 1.48438 84.7148 1.36719V1.00391H90.1641V1.36719C89.6406 1.50781 89.2188 1.71875 88.8984 2C88.5859 2.28125 88.3594 2.65234 88.2188 3.11328C88.0781 3.57422 88.0078 4.15234 88.0078 4.84766V10.5664C88.0078 11.5195 87.9492 12.2852 87.832 12.8633C87.7148 13.4414 87.5234 13.9688 87.2578 14.4453C86.9062 15.0703 86.4531 15.6016 85.8984 16.0391C85.3516 16.4766 84.7188 16.8086 84 17.0352C83.2812 17.2617 82.5078 17.375 81.6797 17.375C80.7969 17.375 79.9844 17.25 79.2422 17C78.5078 16.7422 77.8633 16.375 77.3086 15.8984C76.7539 15.4141 76.3125 14.832 75.9844 14.1523C75.5469 13.2383 75.3281 11.9258 75.3281 10.2148V4.57812C75.3281 3.90625 75.2891 3.40625 75.2109 3.07812C75.1406 2.74219 74.9961 2.45313 74.7773 2.21094C74.3867 1.77344 73.8086 1.49219 73.043 1.36719V1.00391H80.4961ZM88.3477 1.44922H86.2852C86.5898 1.62109 86.832 1.80078 87.0117 1.98828C87.1992 2.17578 87.3711 2.42578 87.5273 2.73828C87.7383 2.23047 88.0117 1.80078 88.3477 1.44922ZM74.4258 1.44922L75.1406 1.94141C75.3828 2.09766 75.5469 2.24609 75.6328 2.38672C75.7188 2.51953 75.7617 2.70312 75.7617 2.9375C75.7617 3.15625 75.7656 3.28516 75.7734 3.32422V3.52344V10.0742C75.7734 10.6289 75.8203 11.3047 75.9141 12.1016C76.0938 13.6172 76.6875 14.8125 77.6953 15.6875C78.7109 16.5625 80.0039 17.0039 81.5742 17.0117C79.9883 16.6758 78.7969 15.9727 78 14.9023C77.6328 14.418 77.375 13.8633 77.2266 13.2383C77.0859 12.6055 77.0156 11.7812 77.0156 10.7656V3.52344V3.32422V2.9375C77.0234 2.70312 77.0664 2.51953 77.1445 2.38672C77.2305 2.25391 77.3984 2.10547 77.6484 1.94141L78.3633 1.44922H74.4258ZM91.2773 17L91.3125 16.6367C92.1562 16.4961 92.7695 16.1719 93.1523 15.6641C93.4492 15.2891 93.5977 14.543 93.5977 13.4258V4.57812C93.5977 3.90625 93.5586 3.40625 93.4805 3.07812C93.4102 2.74219 93.2656 2.45313 93.0469 2.21094C92.6562 1.77344 92.0781 1.49219 91.3125 1.36719V1.00391C91.6094 1.01953 91.7617 1.02734 91.7695 1.02734L93.1406 1.09766C93.5859 1.12109 94.0625 1.13281 94.5703 1.13281C95.4844 1.13281 96.4766 1.08594 97.5469 0.992188C98.5391 0.914062 99.2734 0.875 99.75 0.875C101 0.875 102.133 1.07031 103.148 1.46094C104.164 1.84375 105.043 2.39453 105.785 3.11328C106.535 3.83203 107.113 4.6875 107.52 5.67969C107.926 6.67188 108.129 7.76172 108.129 8.94922C108.129 10.1445 107.918 11.25 107.496 12.2656C107.082 13.2734 106.484 14.1367 105.703 14.8555C104.93 15.5664 104.004 16.1133 102.926 16.4961C101.855 16.8789 100.66 17.0703 99.3398 17.0703C98.8555 17.0703 98.082 17.0234 97.0195 16.9297C96.2695 16.8594 95.5391 16.8242 94.8281 16.8242C94.3281 16.8242 93.7734 16.8398 93.1641 16.8711L91.5703 16.9883C91.4844 16.9883 91.3867 16.9922 91.2773 17ZM96.3398 3.875L96.3164 12.9336C96.3164 13.9414 96.4062 14.6719 96.5859 15.125C96.7578 15.5469 97.0469 15.875 97.4531 16.1094C97.8672 16.3359 98.3633 16.4492 98.9414 16.4492C99.8398 16.4492 100.668 16.2656 101.426 15.8984C102.184 15.5234 102.844 14.9922 103.406 14.3047C103.977 13.6094 104.41 12.7891 104.707 11.8438C105.004 10.8984 105.152 9.88281 105.152 8.79688C105.152 7.36719 104.887 6.08594 104.355 4.95312C103.832 3.82031 103.098 2.93359 102.152 2.29297C101.215 1.64453 100.168 1.32031 99.0117 1.32031C98.0977 1.32031 97.4219 1.52734 96.9844 1.94141C96.5547 2.34766 96.3398 2.99219 96.3398 3.875ZM92.9531 16.4023C93.6328 16.332 94.2461 16.2969 94.793 16.2969C95.3398 16.2969 95.8672 16.3242 96.375 16.3789L95.918 16.0625C95.6836 15.9062 95.5195 15.7578 95.4258 15.6172C95.3398 15.4766 95.2969 15.293 95.2969 15.0664C95.2891 14.9336 95.2852 14.8047 95.2852 14.6797V14.4805V3.52344V3.32422C95.2852 3.19922 95.2891 3.07031 95.2969 2.9375C95.2969 2.70312 95.332 2.52734 95.4023 2.41016C95.4805 2.29297 95.6523 2.13672 95.918 1.94141L96.5391 1.48438C95.8516 1.54687 95.2578 1.57812 94.7578 1.57812C94.2891 1.57812 93.7031 1.55078 93 1.49609L92.7891 1.48438L93.4102 1.94141C93.6602 2.11328 93.8242 2.26563 93.9023 2.39844C93.9883 2.52344 94.0312 2.70312 94.0312 2.9375C94.0312 3.01562 94.0312 3.08594 94.0312 3.14844C94.0391 3.21094 94.043 3.26953 94.043 3.32422V3.52344V14.4805V14.6797C94.043 14.7266 94.0391 14.7812 94.0312 14.8438C94.0312 14.9062 94.0312 14.9805 94.0312 15.0664C94.0312 15.3086 93.9961 15.4883 93.9258 15.6055C93.8555 15.7148 93.6836 15.8672 93.4102 16.0625L92.9531 16.4023ZM100.84 16.4609C101.738 16.25 102.512 15.957 103.16 15.582C103.809 15.207 104.418 14.707 104.988 14.082C106.277 12.6289 106.922 10.9062 106.922 8.91406C106.922 7.71875 106.695 6.60938 106.242 5.58594C105.789 4.5625 105.137 3.69531 104.285 2.98438C103.441 2.26563 102.465 1.75391 101.355 1.44922C101.777 1.65234 102.172 1.88281 102.539 2.14062C102.914 2.39062 103.242 2.66797 103.523 2.97266C103.812 3.27734 104.062 3.58984 104.273 3.91016C105.172 5.27734 105.621 6.90234 105.621 8.78516C105.621 9.78516 105.496 10.7422 105.246 11.6562C104.996 12.5703 104.637 13.3672 104.168 14.0469C103.77 14.6328 103.309 15.1133 102.785 15.4883C102.27 15.8555 101.621 16.1797 100.84 16.4609ZM118.746 8.99609V13.4258C118.746 14.1055 118.789 14.6094 118.875 14.9375C118.969 15.2656 119.141 15.5547 119.391 15.8047C119.844 16.2344 120.5 16.5117 121.359 16.6367V17H113.426V16.6367C114.387 16.4961 115.082 16.1758 115.512 15.6758C115.707 15.457 115.84 15.1914 115.91 14.8789C115.988 14.5586 116.027 14.0742 116.027 13.4258V9.5L112.453 4.32031L112.324 4.14453C111.645 3.12891 111.074 2.42578 110.613 2.03516C110.16 1.64453 109.664 1.42188 109.125 1.36719V1.00391H116.543V1.36719L116.297 1.37891C115.688 1.41016 115.27 1.50391 115.043 1.66016C114.816 1.80859 114.703 2.0625 114.703 2.42188C114.703 2.77344 114.867 3.1875 115.195 3.66406L118.57 8.49219L121.289 5.15234C121.883 4.41016 122.18 3.73828 122.18 3.13672C122.18 2.58984 121.977 2.16797 121.57 1.87109C121.172 1.56641 120.598 1.39844 119.848 1.36719V1.00391H126.129V1.36719C125.73 1.46875 125.355 1.625 125.004 1.83594C124.66 2.03906 124.32 2.29687 123.984 2.60938C123.656 2.92188 123.289 3.33203 122.883 3.83984L122.145 4.76562L121.969 4.97656L118.746 8.99609ZM122.578 3.10156C123.133 2.42969 123.723 1.86328 124.348 1.40234H121.477C121.875 1.58984 122.156 1.8125 122.32 2.07031C122.492 2.32812 122.578 2.67187 122.578 3.10156ZM115.383 16.4023H118.805L118.348 16.0625C118.082 15.8672 117.91 15.7109 117.832 15.5938C117.762 15.4766 117.727 15.3008 117.727 15.0664C117.727 14.9414 117.723 14.8594 117.715 14.8203C117.715 14.7734 117.715 14.7266 117.715 14.6797V14.4805V8.99609L114.246 4.05078C113.793 3.38672 113.566 2.85156 113.566 2.44531C113.566 2.22656 113.625 2.03516 113.742 1.87109C113.859 1.69922 114.043 1.53906 114.293 1.39062H110.414C110.766 1.60156 111.094 1.88281 111.398 2.23438C111.711 2.57812 112.16 3.17188 112.746 4.01562L112.934 4.28516L116.473 9.41797V14.4805V14.6797C116.473 14.8047 116.469 14.9336 116.461 15.0664C116.461 15.3086 116.426 15.4883 116.355 15.6055C116.285 15.7148 116.113 15.8672 115.84 16.0625L115.383 16.4023ZM139.945 9.28906V13.4258C139.945 14.1211 139.992 14.6289 140.086 14.9492C140.18 15.2617 140.359 15.5469 140.625 15.8047C141.109 16.2422 141.809 16.5195 142.723 16.6367V17H134.941V16.6367C135.785 16.4961 136.398 16.1719 136.781 15.6641C137.078 15.2891 137.227 14.543 137.227 13.4258V4.57812C137.227 3.86719 137.188 3.35156 137.109 3.03125C137.031 2.71094 136.887 2.4375 136.676 2.21094C136.301 1.79688 135.723 1.51563 134.941 1.36719V1.00391C135.059 1.01172 135.156 1.01562 135.234 1.01562L136.266 1.07422C136.68 1.09766 137.16 1.10938 137.707 1.10938C138.574 1.10938 139.359 1.07422 140.062 1.00391L141.703 0.863281C142.234 0.816406 142.742 0.792969 143.227 0.792969C145.047 0.792969 146.473 1.16406 147.504 1.90625C148.543 2.64063 149.062 3.65625 149.062 4.95312C149.062 5.71875 148.867 6.42578 148.477 7.07422C148.086 7.72266 147.555 8.22266 146.883 8.57422C145.938 9.05078 144.512 9.28906 142.605 9.28906H142.125H139.945ZM139.945 8.78516H141.867C143.109 8.78516 144.055 8.58594 144.703 8.1875C145.188 7.89062 145.562 7.46094 145.828 6.89844C146.102 6.33594 146.238 5.69922 146.238 4.98828C146.238 3.85547 145.898 2.95312 145.219 2.28125C144.539 1.60938 143.633 1.27344 142.5 1.27344C141.945 1.27344 141.477 1.35937 141.094 1.53125C140.719 1.70313 140.441 1.95312 140.262 2.28125C140.051 2.65625 139.945 3.25391 139.945 4.07422V8.78516ZM144.516 8.75C145.625 8.45312 146.469 7.97656 147.047 7.32031C147.633 6.65625 147.926 5.85156 147.926 4.90625C147.926 4.3125 147.789 3.77344 147.516 3.28906C147.242 2.80469 146.855 2.40234 146.355 2.08203C145.855 1.76172 145.254 1.53516 144.551 1.40234C145.965 2.14453 146.672 3.33203 146.672 4.96484C146.672 5.85547 146.492 6.61328 146.133 7.23828C145.773 7.86328 145.234 8.36719 144.516 8.75ZM136.582 16.4023H140.004L139.547 16.0625C139.281 15.8672 139.109 15.7109 139.031 15.5938C138.961 15.4766 138.926 15.3008 138.926 15.0664C138.926 14.9414 138.922 14.8594 138.914 14.8203C138.914 14.7734 138.914 14.7266 138.914 14.6797V14.4805V3.52344V3.32422C138.914 3.27734 138.914 3.23047 138.914 3.18359C138.922 3.13672 138.926 3.05469 138.926 2.9375C138.926 2.71875 138.957 2.55078 139.02 2.43359C139.09 2.31641 139.238 2.17188 139.465 2L139.547 1.94141L140.203 1.4375L139.781 1.46094C139.07 1.50781 138.43 1.53125 137.859 1.53125C137.508 1.53125 137.027 1.51953 136.418 1.49609L137.039 1.94141C137.297 2.11328 137.465 2.26563 137.543 2.39844C137.621 2.52344 137.66 2.70312 137.66 2.9375C137.668 3.07031 137.672 3.19922 137.672 3.32422V3.52344V14.4805V14.6797C137.672 14.8047 137.668 14.9336 137.66 15.0664C137.66 15.3086 137.625 15.4883 137.555 15.6055C137.484 15.7148 137.312 15.8672 137.039 16.0625L136.582 16.4023ZM155.016 8.60938V13.4258C155.016 14.0977 155.055 14.5977 155.133 14.9258C155.219 15.2539 155.379 15.5469 155.613 15.8047C156.027 16.2344 156.645 16.5117 157.465 16.6367V17H150.012V16.6367C150.855 16.4961 151.469 16.1719 151.852 15.6641C152.148 15.2891 152.297 14.543 152.297 13.4258V4.57812C152.297 3.86719 152.258 3.35156 152.18 3.03125C152.102 2.71094 151.957 2.4375 151.746 2.21094C151.371 1.79688 150.793 1.51563 150.012 1.36719V1.00391C150.121 1.01172 150.219 1.01562 150.305 1.01562L151.336 1.07422C151.75 1.09766 152.23 1.10938 152.777 1.10938C153.645 1.10938 154.43 1.07422 155.133 1.00391L156.773 0.863281C157.289 0.816406 157.797 0.792969 158.297 0.792969C159.219 0.792969 160.043 0.886719 160.77 1.07422C161.496 1.26172 162.109 1.53125 162.609 1.88281C163.109 2.23438 163.496 2.66797 163.77 3.18359C164.043 3.69141 164.18 4.26172 164.18 4.89453C164.18 5.94922 163.816 6.77344 163.09 7.36719C162.371 7.95312 161.305 8.29688 159.891 8.39844C160.766 8.74219 161.504 9.21484 162.105 9.81641C162.715 10.4102 163.438 11.3828 164.273 12.7344C165.219 14.25 165.965 15.3047 166.512 15.8984C167.059 16.4922 167.664 16.9141 168.328 17.1641V17.4922C167.477 17.4766 166.75 17.3984 166.148 17.2578C165.555 17.1172 164.961 16.8672 164.367 16.5078C163.625 16.0469 162.926 15.4258 162.27 14.6445C161.613 13.8633 161.039 12.9688 160.547 11.9609L159.926 10.6602C159.629 10.0508 159.367 9.60938 159.141 9.33594C158.914 9.05469 158.645 8.86328 158.332 8.76172C158.02 8.66016 157.594 8.60938 157.055 8.60938H155.016ZM155.016 8.14062H157.113C158.324 8.14062 159.195 8.00391 159.727 7.73047C160.203 7.48828 160.574 7.11328 160.84 6.60547C161.113 6.08984 161.25 5.5 161.25 4.83594C161.25 4.14844 161.09 3.53125 160.77 2.98438C160.457 2.4375 160.016 2.01562 159.445 1.71875C158.883 1.41406 158.238 1.26172 157.512 1.26172C156.434 1.26172 155.707 1.59766 155.332 2.26953C155.121 2.65234 155.016 3.25391 155.016 4.07422V8.14062ZM159.586 8.1875C160.109 8.07031 160.586 7.90234 161.016 7.68359C161.453 7.46484 161.812 7.21484 162.094 6.93359C162.375 6.65234 162.59 6.33203 162.738 5.97266C162.895 5.61328 162.973 5.23828 162.973 4.84766C162.973 3.99609 162.668 3.25391 162.059 2.62109C161.449 1.98828 160.645 1.58203 159.645 1.40234C160.09 1.64453 160.465 1.93359 160.77 2.26953C161.074 2.60547 161.305 2.98828 161.461 3.41797C161.617 3.83984 161.695 4.29688 161.695 4.78906C161.695 5.64062 161.527 6.33984 161.191 6.88672C160.855 7.42578 160.32 7.85938 159.586 8.1875ZM166.98 17.0117C166.566 16.7852 166.23 16.5781 165.973 16.3906C165.715 16.2031 165.414 15.9414 165.07 15.6055C164.664 15.168 164.344 14.7891 164.109 14.4688C163.883 14.1484 163.504 13.5508 162.973 12.6758C162.473 11.8398 162.02 11.1641 161.613 10.6484C161.215 10.1328 160.812 9.71875 160.406 9.40625C160 9.09375 159.551 8.83594 159.059 8.63281C159.371 8.95312 159.629 9.26953 159.832 9.58203C159.941 9.75391 160.137 10.1172 160.418 10.6719C160.504 10.8359 160.586 10.9961 160.664 11.1523C160.75 11.3086 160.832 11.4727 160.91 11.6445C161.746 13.2773 162.645 14.5195 163.605 15.3711C164.566 16.2148 165.691 16.7617 166.98 17.0117ZM151.652 16.4023H155.074L154.617 16.0625C154.352 15.8672 154.18 15.7109 154.102 15.5938C154.031 15.4766 153.996 15.3008 153.996 15.0664C153.996 14.9414 153.992 14.8594 153.984 14.8203C153.984 14.7734 153.984 14.7266 153.984 14.6797V14.4805V3.52344V3.32422C153.984 3.27734 153.984 3.23047 153.984 3.18359C153.992 3.13672 153.996 3.05469 153.996 2.9375C153.996 2.71875 154.027 2.55078 154.09 2.43359C154.16 2.31641 154.309 2.17188 154.535 2L154.617 1.94141L155.273 1.4375L154.852 1.46094C154.141 1.50781 153.5 1.53125 152.93 1.53125C152.578 1.53125 152.098 1.51953 151.488 1.49609L152.109 1.94141C152.367 2.11328 152.535 2.26563 152.613 2.39844C152.691 2.52344 152.73 2.70312 152.73 2.9375C152.738 3.07031 152.742 3.19922 152.742 3.32422V3.52344V14.4805V14.6797C152.742 14.8047 152.738 14.9336 152.73 15.0664C152.73 15.3086 152.695 15.4883 152.625 15.6055C152.555 15.7148 152.383 15.8672 152.109 16.0625L151.652 16.4023ZM169.008 9.01953C169.008 7.88672 169.227 6.80469 169.664 5.77344C170.102 4.74219 170.707 3.83984 171.48 3.06641C172.262 2.28516 173.16 1.68359 174.176 1.26172C175.199 0.832031 176.277 0.617188 177.41 0.617188C178.926 0.617188 180.324 0.996094 181.605 1.75391C182.895 2.50391 183.914 3.52344 184.664 4.8125C185.422 6.10156 185.801 7.50391 185.801 9.01953C185.801 10.1445 185.586 11.2188 185.156 12.2422C184.734 13.2578 184.133 14.1562 183.352 14.9375C182.57 15.7188 181.676 16.3281 180.668 16.7656C179.66 17.1953 178.586 17.4102 177.445 17.4102C175.906 17.4102 174.488 17.0352 173.191 16.2852C171.902 15.5352 170.883 14.5195 170.133 13.2383C169.383 11.9492 169.008 10.543 169.008 9.01953ZM171.961 8.9375C171.961 10.0859 172.09 11.1523 172.348 12.1367C172.605 13.1133 172.973 13.9492 173.449 14.6445C173.934 15.332 174.512 15.8594 175.184 16.2266C175.863 16.5938 176.613 16.7773 177.434 16.7773C178.77 16.7773 179.938 16.2461 180.938 15.1836C181.547 14.5273 182.016 13.668 182.344 12.6055C182.68 11.5352 182.848 10.3086 182.848 8.92578C182.848 7.72266 182.719 6.63672 182.461 5.66797C182.211 4.69922 181.848 3.875 181.371 3.19531C180.902 2.51562 180.332 1.99219 179.66 1.625C178.996 1.25781 178.246 1.07422 177.41 1.07422C176.582 1.07422 175.832 1.26172 175.16 1.63672C174.496 2.00391 173.926 2.53516 173.449 3.23047C172.973 3.91797 172.605 4.75391 172.348 5.73828C172.09 6.71484 171.961 7.78125 171.961 8.9375ZM173.871 16.2266C173.176 15.7109 172.598 15.1055 172.137 14.4102C171.684 13.707 171.34 12.8945 171.105 11.9727C170.879 11.0508 170.766 10.0391 170.766 8.9375C170.766 7.3125 171.012 5.92969 171.504 4.78906C172.004 3.64062 172.793 2.66016 173.871 1.84766C172.941 2.33984 172.145 2.94922 171.48 3.67578C170.824 4.40234 170.32 5.21875 169.969 6.125C169.625 7.02344 169.453 7.98438 169.453 9.00781C169.453 10.0234 169.625 10.9883 169.969 11.9023C170.32 12.8086 170.824 13.6289 171.48 14.3633C172.145 15.0977 172.941 15.7188 173.871 16.2266ZM180.305 16.2383C183.164 14.5898 184.594 12.1836 184.594 9.01953C184.594 8.00391 184.434 7.03516 184.113 6.11328C183.801 5.18359 183.352 4.35938 182.766 3.64062C182.188 2.91406 181.508 2.33594 180.727 1.90625C182.438 3.40625 183.293 5.74219 183.293 8.91406C183.293 9.84375 183.207 10.7344 183.035 11.5859C182.871 12.4297 182.641 13.168 182.344 13.8008C182.195 14.1211 182.035 14.4062 181.863 14.6562C181.691 14.9062 181.48 15.1602 181.23 15.418C180.98 15.668 180.672 15.9414 180.305 16.2383ZM201.375 1.17969L202.746 5.36328H202.348C201.965 4.62109 201.562 3.98438 201.141 3.45312C200.727 2.92188 200.289 2.49219 199.828 2.16406C199.375 1.82812 198.891 1.58203 198.375 1.42578C197.859 1.26953 197.277 1.19141 196.629 1.19141C195.707 1.19141 194.848 1.36719 194.051 1.71875C193.254 2.07031 192.562 2.56641 191.977 3.20703C191.391 3.84766 190.934 4.60547 190.605 5.48047C190.285 6.35547 190.125 7.29688 190.125 8.30469C190.125 9.82812 190.426 11.2188 191.027 12.4766C191.629 13.7266 192.453 14.7109 193.5 15.4297C194.555 16.1406 195.723 16.4961 197.004 16.4961C197.887 16.4961 198.711 16.3242 199.477 15.9805C200.25 15.6367 200.938 15.1406 201.539 14.4922C202.141 13.8438 202.664 13.0273 203.109 12.043H203.59C202.934 13.7773 201.945 15.0938 200.625 15.9922C199.305 16.8828 197.691 17.3281 195.785 17.3281C193.559 17.3281 191.715 16.7266 190.254 15.5234C189.629 15 189.102 14.4062 188.672 13.7422C188.25 13.0781 187.926 12.3516 187.699 11.5625C187.473 10.7656 187.359 9.94922 187.359 9.11328C187.359 7.55859 187.75 6.13672 188.531 4.84766C189.32 3.55859 190.402 2.54688 191.777 1.8125C193.16 1.07031 194.688 0.699219 196.359 0.699219C197.062 0.699219 197.988 0.800781 199.137 1.00391C199.934 1.15234 200.512 1.22656 200.871 1.22656C201.027 1.22656 201.195 1.21094 201.375 1.17969ZM195.34 16.9297C194.348 16.6562 193.449 16.2656 192.645 15.7578C191.84 15.25 191.168 14.6445 190.629 13.9414C190.09 13.2383 189.68 12.4414 189.398 11.5508C189.125 10.6523 188.988 9.67578 188.988 8.62109C188.988 7.83984 189.059 7.13672 189.199 6.51172C189.34 5.88672 189.566 5.29297 189.879 4.73047C190.199 4.16016 190.602 3.63281 191.086 3.14844C191.57 2.66406 192.16 2.1875 192.855 1.71875C192.035 2.08594 191.312 2.52344 190.688 3.03125C190.062 3.53125 189.535 4.09766 189.105 4.73047C188.676 5.35547 188.352 6.04297 188.133 6.79297C187.914 7.53516 187.805 8.3125 187.805 9.125C187.805 10 187.93 10.8359 188.18 11.6328C188.43 12.4297 188.785 13.1602 189.246 13.8242C189.707 14.4883 190.266 15.0508 190.922 15.5117C191.578 15.9648 192.254 16.3047 192.949 16.5312C193.652 16.75 194.449 16.8828 195.34 16.9297ZM217.887 1.00391L218.332 5.36328H217.957C217.551 4.01953 216.945 3.03125 216.141 2.39844C215.344 1.75781 214.305 1.4375 213.023 1.4375H212.367C211.344 1.4375 210.617 1.63672 210.188 2.03516C209.766 2.42578 209.555 3.08203 209.555 4.00391V7.98828H211.113C212.293 7.98828 213.152 7.80469 213.691 7.4375C214.23 7.0625 214.602 6.39062 214.805 5.42188H215.156V11.3516H214.805C214.648 10.5703 214.438 9.97656 214.172 9.57031C213.914 9.15625 213.547 8.86719 213.07 8.70312C212.602 8.53125 211.961 8.44531 211.148 8.44531H209.555V13.5195C209.555 14.293 209.625 14.8867 209.766 15.3008C209.914 15.707 210.168 15.9922 210.527 16.1562C210.895 16.3203 211.406 16.4023 212.062 16.4023H213.141C214.203 16.4023 215.211 16.0742 216.164 15.418C217.219 14.6836 218.254 13.6602 219.27 12.3477L219.363 12.2188H219.773L218.391 17H204.551V16.6367C205.395 16.4961 206.008 16.1719 206.391 15.6641C206.688 15.2891 206.836 14.543 206.836 13.4258V4.57812C206.836 3.86719 206.797 3.35156 206.719 3.03125C206.641 2.71094 206.496 2.4375 206.285 2.21094C205.895 1.77344 205.316 1.49219 204.551 1.36719V1.00391H217.887ZM217.008 1.4375H215.32C215.758 1.61719 216.109 1.8125 216.375 2.02344C216.641 2.23438 216.938 2.55859 217.266 2.99609L217.008 1.4375ZM214.312 7.48438C214.094 7.6875 213.922 7.82812 213.797 7.90625C213.68 7.97656 213.43 8.08594 213.047 8.23438C213.484 8.35938 213.906 8.61328 214.312 8.99609V7.48438ZM217.559 16.4023L218.215 14.2227C217.934 14.5352 217.652 14.8203 217.371 15.0781C217.098 15.3281 216.785 15.5664 216.434 15.793C216.09 16.0195 215.738 16.2227 215.379 16.4023H217.559ZM206.191 16.4023H209.613L209.156 16.0625C208.891 15.8672 208.719 15.7109 208.641 15.5938C208.57 15.4766 208.535 15.3008 208.535 15.0664C208.535 14.9414 208.531 14.8594 208.523 14.8203C208.523 14.7734 208.523 14.7266 208.523 14.6797V14.4805V3.52344V3.32422C208.523 3.27734 208.523 3.23047 208.523 3.18359C208.531 3.13672 208.535 3.05469 208.535 2.9375C208.535 2.70312 208.574 2.52344 208.652 2.39844C208.738 2.26563 208.906 2.11328 209.156 1.94141L209.824 1.44922H205.98L206.648 1.94141C206.914 2.13672 207.082 2.29297 207.152 2.41016C207.23 2.52734 207.27 2.70312 207.27 2.9375C207.277 3.07031 207.281 3.19922 207.281 3.32422V3.52344V14.4805V14.6797C207.281 14.8047 207.277 14.9336 207.27 15.0664C207.27 15.3086 207.234 15.4883 207.164 15.6055C207.094 15.7148 206.922 15.8672 206.648 16.0625L206.191 16.4023ZM220.395 17L220.43 16.6367C221.273 16.4961 221.887 16.1719 222.27 15.6641C222.566 15.2891 222.715 14.543 222.715 13.4258V4.57812C222.715 3.90625 222.676 3.40625 222.598 3.07812C222.527 2.74219 222.383 2.45313 222.164 2.21094C221.773 1.77344 221.195 1.49219 220.43 1.36719V1.00391C220.727 1.01953 220.879 1.02734 220.887 1.02734L222.258 1.09766C222.703 1.12109 223.18 1.13281 223.688 1.13281C224.602 1.13281 225.594 1.08594 226.664 0.992188C227.656 0.914062 228.391 0.875 228.867 0.875C230.117 0.875 231.25 1.07031 232.266 1.46094C233.281 1.84375 234.16 2.39453 234.902 3.11328C235.652 3.83203 236.23 4.6875 236.637 5.67969C237.043 6.67188 237.246 7.76172 237.246 8.94922C237.246 10.1445 237.035 11.25 236.613 12.2656C236.199 13.2734 235.602 14.1367 234.82 14.8555C234.047 15.5664 233.121 16.1133 232.043 16.4961C230.973 16.8789 229.777 17.0703 228.457 17.0703C227.973 17.0703 227.199 17.0234 226.137 16.9297C225.387 16.8594 224.656 16.8242 223.945 16.8242C223.445 16.8242 222.891 16.8398 222.281 16.8711L220.688 16.9883C220.602 16.9883 220.504 16.9922 220.395 17ZM225.457 3.875L225.434 12.9336C225.434 13.9414 225.523 14.6719 225.703 15.125C225.875 15.5469 226.164 15.875 226.57 16.1094C226.984 16.3359 227.48 16.4492 228.059 16.4492C228.957 16.4492 229.785 16.2656 230.543 15.8984C231.301 15.5234 231.961 14.9922 232.523 14.3047C233.094 13.6094 233.527 12.7891 233.824 11.8438C234.121 10.8984 234.27 9.88281 234.27 8.79688C234.27 7.36719 234.004 6.08594 233.473 4.95312C232.949 3.82031 232.215 2.93359 231.27 2.29297C230.332 1.64453 229.285 1.32031 228.129 1.32031C227.215 1.32031 226.539 1.52734 226.102 1.94141C225.672 2.34766 225.457 2.99219 225.457 3.875ZM222.07 16.4023C222.75 16.332 223.363 16.2969 223.91 16.2969C224.457 16.2969 224.984 16.3242 225.492 16.3789L225.035 16.0625C224.801 15.9062 224.637 15.7578 224.543 15.6172C224.457 15.4766 224.414 15.293 224.414 15.0664C224.406 14.9336 224.402 14.8047 224.402 14.6797V14.4805V3.52344V3.32422C224.402 3.19922 224.406 3.07031 224.414 2.9375C224.414 2.70312 224.449 2.52734 224.52 2.41016C224.598 2.29297 224.77 2.13672 225.035 1.94141L225.656 1.48438C224.969 1.54687 224.375 1.57812 223.875 1.57812C223.406 1.57812 222.82 1.55078 222.117 1.49609L221.906 1.48438L222.527 1.94141C222.777 2.11328 222.941 2.26563 223.02 2.39844C223.105 2.52344 223.148 2.70312 223.148 2.9375C223.148 3.01562 223.148 3.08594 223.148 3.14844C223.156 3.21094 223.16 3.26953 223.16 3.32422V3.52344V14.4805V14.6797C223.16 14.7266 223.156 14.7812 223.148 14.8438C223.148 14.9062 223.148 14.9805 223.148 15.0664C223.148 15.3086 223.113 15.4883 223.043 15.6055C222.973 15.7148 222.801 15.8672 222.527 16.0625L222.07 16.4023ZM229.957 16.4609C230.855 16.25 231.629 15.957 232.277 15.582C232.926 15.207 233.535 14.707 234.105 14.082C235.395 12.6289 236.039 10.9062 236.039 8.91406C236.039 7.71875 235.812 6.60938 235.359 5.58594C234.906 4.5625 234.254 3.69531 233.402 2.98438C232.559 2.26563 231.582 1.75391 230.473 1.44922C230.895 1.65234 231.289 1.88281 231.656 2.14062C232.031 2.39062 232.359 2.66797 232.641 2.97266C232.93 3.27734 233.18 3.58984 233.391 3.91016C234.289 5.27734 234.738 6.90234 234.738 8.78516C234.738 9.78516 234.613 10.7422 234.363 11.6562C234.113 12.5703 233.754 13.3672 233.285 14.0469C232.887 14.6328 232.426 15.1133 231.902 15.4883C231.387 15.8555 230.738 16.1797 229.957 16.4609ZM245.988 1.00391V1.36719C245.082 1.50781 244.426 1.82812 244.02 2.32812C243.832 2.57031 243.703 2.85547 243.633 3.18359C243.57 3.51172 243.539 3.97656 243.539 4.57812V11.0469V11.457C243.547 13.0039 243.934 14.2031 244.699 15.0547C245.113 15.5156 245.641 15.8789 246.281 16.1445C246.922 16.4023 247.59 16.5312 248.285 16.5312C249.301 16.5312 250.176 16.2773 250.91 15.7695C251.652 15.2617 252.211 14.5469 252.586 13.625C252.883 12.8906 253.031 11.875 253.031 10.5781V5.12891C253.031 3.80078 252.727 2.84766 252.117 2.26953C251.609 1.78516 250.973 1.48438 250.207 1.36719V1.00391H255.656V1.36719C255.133 1.50781 254.711 1.71875 254.391 2C254.078 2.28125 253.852 2.65234 253.711 3.11328C253.57 3.57422 253.5 4.15234 253.5 4.84766V10.5664C253.5 11.5195 253.441 12.2852 253.324 12.8633C253.207 13.4414 253.016 13.9688 252.75 14.4453C252.398 15.0703 251.945 15.6016 251.391 16.0391C250.844 16.4766 250.211 16.8086 249.492 17.0352C248.773 17.2617 248 17.375 247.172 17.375C246.289 17.375 245.477 17.25 244.734 17C244 16.7422 243.355 16.375 242.801 15.8984C242.246 15.4141 241.805 14.832 241.477 14.1523C241.039 13.2383 240.82 11.9258 240.82 10.2148V4.57812C240.82 3.90625 240.781 3.40625 240.703 3.07812C240.633 2.74219 240.488 2.45313 240.27 2.21094C239.879 1.77344 239.301 1.49219 238.535 1.36719V1.00391H245.988ZM253.84 1.44922H251.777C252.082 1.62109 252.324 1.80078 252.504 1.98828C252.691 2.17578 252.863 2.42578 253.02 2.73828C253.23 2.23047 253.504 1.80078 253.84 1.44922ZM239.918 1.44922L240.633 1.94141C240.875 2.09766 241.039 2.24609 241.125 2.38672C241.211 2.51953 241.254 2.70312 241.254 2.9375C241.254 3.15625 241.258 3.28516 241.266 3.32422V3.52344V10.0742C241.266 10.6289 241.312 11.3047 241.406 12.1016C241.586 13.6172 242.18 14.8125 243.188 15.6875C244.203 16.5625 245.496 17.0039 247.066 17.0117C245.48 16.6758 244.289 15.9727 243.492 14.9023C243.125 14.418 242.867 13.8633 242.719 13.2383C242.578 12.6055 242.508 11.7812 242.508 10.7656V3.52344V3.32422V2.9375C242.516 2.70312 242.559 2.51953 242.637 2.38672C242.723 2.25391 242.891 2.10547 243.141 1.94141L243.855 1.44922H239.918ZM261.773 8.60938V13.4258C261.773 14.0977 261.812 14.5977 261.891 14.9258C261.977 15.2539 262.137 15.5469 262.371 15.8047C262.785 16.2344 263.402 16.5117 264.223 16.6367V17H256.77V16.6367C257.613 16.4961 258.227 16.1719 258.609 15.6641C258.906 15.2891 259.055 14.543 259.055 13.4258V4.57812C259.055 3.86719 259.016 3.35156 258.938 3.03125C258.859 2.71094 258.715 2.4375 258.504 2.21094C258.129 1.79688 257.551 1.51563 256.77 1.36719V1.00391C256.879 1.01172 256.977 1.01562 257.062 1.01562L258.094 1.07422C258.508 1.09766 258.988 1.10938 259.535 1.10938C260.402 1.10938 261.188 1.07422 261.891 1.00391L263.531 0.863281C264.047 0.816406 264.555 0.792969 265.055 0.792969C265.977 0.792969 266.801 0.886719 267.527 1.07422C268.254 1.26172 268.867 1.53125 269.367 1.88281C269.867 2.23438 270.254 2.66797 270.527 3.18359C270.801 3.69141 270.938 4.26172 270.938 4.89453C270.938 5.94922 270.574 6.77344 269.848 7.36719C269.129 7.95312 268.062 8.29688 266.648 8.39844C267.523 8.74219 268.262 9.21484 268.863 9.81641C269.473 10.4102 270.195 11.3828 271.031 12.7344C271.977 14.25 272.723 15.3047 273.27 15.8984C273.816 16.4922 274.422 16.9141 275.086 17.1641V17.4922C274.234 17.4766 273.508 17.3984 272.906 17.2578C272.312 17.1172 271.719 16.8672 271.125 16.5078C270.383 16.0469 269.684 15.4258 269.027 14.6445C268.371 13.8633 267.797 12.9688 267.305 11.9609L266.684 10.6602C266.387 10.0508 266.125 9.60938 265.898 9.33594C265.672 9.05469 265.402 8.86328 265.09 8.76172C264.777 8.66016 264.352 8.60938 263.812 8.60938H261.773ZM261.773 8.14062H263.871C265.082 8.14062 265.953 8.00391 266.484 7.73047C266.961 7.48828 267.332 7.11328 267.598 6.60547C267.871 6.08984 268.008 5.5 268.008 4.83594C268.008 4.14844 267.848 3.53125 267.527 2.98438C267.215 2.4375 266.773 2.01562 266.203 1.71875C265.641 1.41406 264.996 1.26172 264.27 1.26172C263.191 1.26172 262.465 1.59766 262.09 2.26953C261.879 2.65234 261.773 3.25391 261.773 4.07422V8.14062ZM266.344 8.1875C266.867 8.07031 267.344 7.90234 267.773 7.68359C268.211 7.46484 268.57 7.21484 268.852 6.93359C269.133 6.65234 269.348 6.33203 269.496 5.97266C269.652 5.61328 269.73 5.23828 269.73 4.84766C269.73 3.99609 269.426 3.25391 268.816 2.62109C268.207 1.98828 267.402 1.58203 266.402 1.40234C266.848 1.64453 267.223 1.93359 267.527 2.26953C267.832 2.60547 268.062 2.98828 268.219 3.41797C268.375 3.83984 268.453 4.29688 268.453 4.78906C268.453 5.64062 268.285 6.33984 267.949 6.88672C267.613 7.42578 267.078 7.85938 266.344 8.1875ZM273.738 17.0117C273.324 16.7852 272.988 16.5781 272.73 16.3906C272.473 16.2031 272.172 15.9414 271.828 15.6055C271.422 15.168 271.102 14.7891 270.867 14.4688C270.641 14.1484 270.262 13.5508 269.73 12.6758C269.23 11.8398 268.777 11.1641 268.371 10.6484C267.973 10.1328 267.57 9.71875 267.164 9.40625C266.758 9.09375 266.309 8.83594 265.816 8.63281C266.129 8.95312 266.387 9.26953 266.59 9.58203C266.699 9.75391 266.895 10.1172 267.176 10.6719C267.262 10.8359 267.344 10.9961 267.422 11.1523C267.508 11.3086 267.59 11.4727 267.668 11.6445C268.504 13.2773 269.402 14.5195 270.363 15.3711C271.324 16.2148 272.449 16.7617 273.738 17.0117ZM258.41 16.4023H261.832L261.375 16.0625C261.109 15.8672 260.938 15.7109 260.859 15.5938C260.789 15.4766 260.754 15.3008 260.754 15.0664C260.754 14.9414 260.75 14.8594 260.742 14.8203C260.742 14.7734 260.742 14.7266 260.742 14.6797V14.4805V3.52344V3.32422C260.742 3.27734 260.742 3.23047 260.742 3.18359C260.75 3.13672 260.754 3.05469 260.754 2.9375C260.754 2.71875 260.785 2.55078 260.848 2.43359C260.918 2.31641 261.066 2.17188 261.293 2L261.375 1.94141L262.031 1.4375L261.609 1.46094C260.898 1.50781 260.258 1.53125 259.688 1.53125C259.336 1.53125 258.855 1.51953 258.246 1.49609L258.867 1.94141C259.125 2.11328 259.293 2.26563 259.371 2.39844C259.449 2.52344 259.488 2.70312 259.488 2.9375C259.496 3.07031 259.5 3.19922 259.5 3.32422V3.52344V14.4805V14.6797C259.5 14.8047 259.496 14.9336 259.488 15.0664C259.488 15.3086 259.453 15.4883 259.383 15.6055C259.312 15.7148 259.141 15.8672 258.867 16.0625L258.41 16.4023ZM288.973 1.00391L289.418 5.36328H289.043C288.637 4.01953 288.031 3.03125 287.227 2.39844C286.43 1.75781 285.391 1.4375 284.109 1.4375H283.453C282.43 1.4375 281.703 1.63672 281.273 2.03516C280.852 2.42578 280.641 3.08203 280.641 4.00391V7.98828H282.199C283.379 7.98828 284.238 7.80469 284.777 7.4375C285.316 7.0625 285.688 6.39062 285.891 5.42188H286.242V11.3516H285.891C285.734 10.5703 285.523 9.97656 285.258 9.57031C285 9.15625 284.633 8.86719 284.156 8.70312C283.688 8.53125 283.047 8.44531 282.234 8.44531H280.641V13.5195C280.641 14.293 280.711 14.8867 280.852 15.3008C281 15.707 281.254 15.9922 281.613 16.1562C281.98 16.3203 282.492 16.4023 283.148 16.4023H284.227C285.289 16.4023 286.297 16.0742 287.25 15.418C288.305 14.6836 289.34 13.6602 290.355 12.3477L290.449 12.2188H290.859L289.477 17H275.637V16.6367C276.48 16.4961 277.094 16.1719 277.477 15.6641C277.773 15.2891 277.922 14.543 277.922 13.4258V4.57812C277.922 3.86719 277.883 3.35156 277.805 3.03125C277.727 2.71094 277.582 2.4375 277.371 2.21094C276.98 1.77344 276.402 1.49219 275.637 1.36719V1.00391H288.973ZM288.094 1.4375H286.406C286.844 1.61719 287.195 1.8125 287.461 2.02344C287.727 2.23438 288.023 2.55859 288.352 2.99609L288.094 1.4375ZM285.398 7.48438C285.18 7.6875 285.008 7.82812 284.883 7.90625C284.766 7.97656 284.516 8.08594 284.133 8.23438C284.57 8.35938 284.992 8.61328 285.398 8.99609V7.48438ZM288.645 16.4023L289.301 14.2227C289.02 14.5352 288.738 14.8203 288.457 15.0781C288.184 15.3281 287.871 15.5664 287.52 15.793C287.176 16.0195 286.824 16.2227 286.465 16.4023H288.645ZM277.277 16.4023H280.699L280.242 16.0625C279.977 15.8672 279.805 15.7109 279.727 15.5938C279.656 15.4766 279.621 15.3008 279.621 15.0664C279.621 14.9414 279.617 14.8594 279.609 14.8203C279.609 14.7734 279.609 14.7266 279.609 14.6797V14.4805V3.52344V3.32422C279.609 3.27734 279.609 3.23047 279.609 3.18359C279.617 3.13672 279.621 3.05469 279.621 2.9375C279.621 2.70312 279.66 2.52344 279.738 2.39844C279.824 2.26563 279.992 2.11328 280.242 1.94141L280.91 1.44922H277.066L277.734 1.94141C278 2.13672 278.168 2.29297 278.238 2.41016C278.316 2.52734 278.355 2.70312 278.355 2.9375C278.363 3.07031 278.367 3.19922 278.367 3.32422V3.52344V14.4805V14.6797C278.367 14.8047 278.363 14.9336 278.355 15.0664C278.355 15.3086 278.32 15.4883 278.25 15.6055C278.18 15.7148 278.008 15.8672 277.734 16.0625L277.277 16.4023Z" fill="black"/>
</svg>
