<svg width="439" height="18" viewBox="0 0 439 18" fill="none" xmlns="http://www.w3.org/2000/svg">
<path d="M9.9375 12.6992V13.4258C9.9375 14.0898 9.97656 14.5938 10.0547 14.9375C10.1328 15.2734 10.2773 15.5586 10.4883 15.793C10.8789 16.2305 11.457 16.5117 12.2227 16.6367V17H4.6875V16.6367C5.625 16.4961 6.30078 16.1758 6.71484 15.6758C6.91016 15.4414 7.04297 15.1641 7.11328 14.8438C7.18359 14.5156 7.21875 14.043 7.21875 13.4258V12.6992H0.65625V11.3398L8.50781 1.00391H9.9375V10.4844C10.5781 10.4531 11.0664 10.3359 11.4023 10.1328C11.7383 9.92188 12.1016 9.50781 12.4922 8.89062H12.8203L11.8594 12.6992H9.9375ZM7.21875 10.4844V3.45312L1.875 10.4844H7.21875ZM6.5625 16.4023H9.98438L9.52734 16.0625C9.26172 15.8672 9.08984 15.7109 9.01172 15.5938C8.94141 15.4766 8.90625 15.3008 8.90625 15.0664V14.6797C8.89844 14.6094 8.89453 14.543 8.89453 14.4805V1.40234H8.75391L7.66406 2.85547V14.4805C7.66406 14.5039 7.66016 14.5312 7.65234 14.5625C7.65234 14.5938 7.65234 14.6328 7.65234 14.6797V15.0664C7.65234 15.3008 7.61328 15.4766 7.53516 15.5938C7.46484 15.7109 7.29297 15.8672 7.01953 16.0625L6.5625 16.4023ZM7.21875 11.8555V10.9062H1.53516L1.10156 11.4688V11.8555H7.21875ZM11.0859 11.8555L11.4023 10.6133C10.9648 10.8086 10.5859 10.9062 10.2656 10.9062H9.91406V11.8555H11.0859ZM14.3438 15.6875C14.3438 15.4062 14.4102 15.1523 14.543 14.9258C14.6758 14.6992 14.8555 14.5195 15.082 14.3867C15.3086 14.2539 15.5625 14.1875 15.8438 14.1875C16.125 14.1875 16.3789 14.2539 16.6055 14.3867C16.832 14.5195 17.0117 14.6992 17.1445 14.9258C17.2773 15.1523 17.3438 15.4062 17.3438 15.6875C17.3438 15.9688 17.2773 16.2227 17.1445 16.4492C17.0117 16.6758 16.832 16.8555 16.6055 16.9883C16.3789 17.1211 16.125 17.1875 15.8438 17.1875C15.5625 17.1875 15.3086 17.1211 15.082 16.9883C14.8555 16.8555 14.6758 16.6758 14.543 16.4492C14.4102 16.2227 14.3438 15.9688 14.3438 15.6875ZM16.0547 16.5547V14.8203C16.0547 14.625 15.9609 14.5273 15.7734 14.5273C15.5 14.5273 15.2578 14.6445 15.0469 14.8789C14.8359 15.1133 14.7305 15.3828 14.7305 15.6875C14.7305 15.9922 14.8359 16.2617 15.0469 16.4961C15.2656 16.7305 15.5078 16.8477 15.7734 16.8477C15.9609 16.8477 16.0547 16.75 16.0547 16.5547ZM20.1914 14.5742H24.2578C25.2891 14.5742 26.125 14.4258 26.7656 14.1289C27.4062 13.832 27.9727 13.3398 28.4648 12.6523H28.8516L27.7266 17H18.5273L18.5156 16.5195C18.8672 15.7539 19.2812 15.0156 19.7578 14.3047C20.2344 13.5938 20.9297 12.6836 21.8438 11.5742C22.2344 11.0898 22.5625 10.6836 22.8281 10.3555C23.1016 10.0195 23.3125 9.76172 23.4609 9.58203C24.25 8.58203 24.8125 7.71094 25.1484 6.96875C25.4922 6.22656 25.6641 5.47656 25.6641 4.71875C25.6641 4.07812 25.5469 3.48438 25.3125 2.9375C25.0859 2.39062 24.7695 1.96484 24.3633 1.66016C23.957 1.34766 23.5195 1.19141 23.0508 1.19141C22.0742 1.19141 21.5664 1.80078 21.5273 3.01953L21.5039 3.64062C21.4727 4.59375 21.1016 5.07031 20.3906 5.07031C20.0469 5.07031 19.7617 4.94922 19.5352 4.70703C19.3086 4.45703 19.1953 4.13672 19.1953 3.74609C19.1953 3.19141 19.3945 2.68359 19.793 2.22266C20.1914 1.75391 20.7344 1.38281 21.4219 1.10938C22.1172 0.835938 22.8711 0.699219 23.6836 0.699219C24.582 0.699219 25.4023 0.878906 26.1445 1.23828C26.8945 1.59766 27.4766 2.09766 27.8906 2.73828C28.3125 3.37109 28.5234 4.08203 28.5234 4.87109C28.5234 5.43359 28.418 5.96484 28.207 6.46484C28.0039 6.95703 27.6602 7.48047 27.1758 8.03516C26.6992 8.58203 26.0703 9.17578 25.2891 9.81641L23.3906 11.3867C21.9375 12.5742 20.8711 13.6367 20.1914 14.5742ZM21.3164 1.48438C20.1836 2.11719 19.6172 2.88281 19.6172 3.78125C19.6172 3.98438 19.6602 4.15234 19.7461 4.28516C19.832 4.41016 19.9453 4.47266 20.0859 4.47266C20.3672 4.47266 20.5078 4.26172 20.5078 3.83984C20.5078 3.25391 20.5664 2.79688 20.6836 2.46875C20.8008 2.13281 21.0117 1.80469 21.3164 1.48438ZM26.8477 16.4141L27.2578 14.8555C26.6172 15.2383 25.7812 15.4297 24.75 15.4297H19.5469C19.3516 15.7812 19.1797 16.1094 19.0312 16.4141H26.8477ZM22.3477 11.5625C23.3086 10.6953 24.2031 9.82812 25.0312 8.96094C25.9141 8.03125 26.5234 7.26172 26.8594 6.65234C27.1953 6.04297 27.3633 5.40234 27.3633 4.73047C27.3633 4.10547 27.2383 3.55078 26.9883 3.06641C26.7461 2.57422 26.3945 2.16797 25.9336 1.84766C25.4727 1.52734 24.9375 1.32813 24.3281 1.25C24.9062 1.57812 25.3438 2.03906 25.6406 2.63281C25.9453 3.21875 26.0977 3.91406 26.0977 4.71875C26.0977 5.35156 25.9844 5.97656 25.7578 6.59375C25.5312 7.21094 25.1758 7.875 24.6914 8.58594C24.0039 9.57812 23.2227 10.5703 22.3477 11.5625ZM45.9727 17V16.6367C46.8008 16.4961 47.4062 16.1719 47.7891 15.6641C48.0781 15.2812 48.2227 14.5352 48.2227 13.4258V4.57812C48.2227 3.91406 48.1836 3.41406 48.1055 3.07812C48.0273 2.73438 47.8828 2.44531 47.6719 2.21094C47.2969 1.77344 46.7305 1.49219 45.9727 1.36719V1.00391L46.1602 1.01562L47.5664 1.10938C48.0664 1.14063 48.5586 1.15625 49.043 1.15625C49.4492 1.15625 49.9297 1.14063 50.4844 1.10938C51.0391 1.07031 51.4609 1.03516 51.75 1.00391L52.9336 0.875C53.3555 0.828125 53.793 0.804688 54.2461 0.804688C55.0508 0.804688 55.7773 0.898438 56.4258 1.08594C57.082 1.27344 57.6406 1.54297 58.1016 1.89453C58.5625 2.23828 58.918 2.65625 59.168 3.14844C59.418 3.63281 59.543 4.17188 59.543 4.76562C59.543 5.6875 59.25 6.46094 58.6641 7.08594C58.0859 7.71094 57.2422 8.16406 56.1328 8.44531C57.0547 8.53906 57.8672 8.78516 58.5703 9.18359C59.2734 9.58203 59.8125 10.1055 60.1875 10.7539C60.5703 11.3945 60.7617 12.1172 60.7617 12.9219C60.7617 13.5781 60.6367 14.168 60.3867 14.6914C60.1367 15.207 59.7656 15.6602 59.2734 16.0508C58.7812 16.4336 58.1875 16.7227 57.4922 16.918C56.7969 17.1133 56.0352 17.2109 55.207 17.2109C54.7773 17.2109 54.1562 17.1758 53.3438 17.1055C52.1562 17.0117 51.3438 16.9531 50.9062 16.9297C50.1953 16.8906 49.5469 16.8711 48.9609 16.8711C48.5 16.8711 47.9844 16.8867 47.4141 16.918L46.207 16.9883L45.9727 17ZM50.9062 8.36328H52.8047C53.9297 8.36328 54.7891 8.13672 55.3828 7.68359C55.7891 7.38672 56.1133 6.98438 56.3555 6.47656C56.5977 5.96094 56.7188 5.42188 56.7188 4.85938C56.7188 4.17969 56.5742 3.57031 56.2852 3.03125C55.9961 2.49219 55.5938 2.07031 55.0781 1.76562C54.5625 1.46094 53.9844 1.30859 53.3438 1.30859C52.8359 1.30859 52.3984 1.40234 52.0312 1.58984C51.6641 1.77734 51.3789 2.04688 51.1758 2.39844C50.9961 2.75 50.9062 3.30859 50.9062 4.07422V8.36328ZM50.9062 8.82031V13.7539C50.9062 14.7695 51.1367 15.4883 51.5977 15.9102C52.0664 16.3242 52.8594 16.5312 53.9766 16.5312C55.25 16.5312 56.2188 16.168 56.8828 15.4414C57.5391 14.7227 57.8672 13.8281 57.8672 12.7578C57.8672 12.3047 57.8086 11.8867 57.6914 11.5039C57.582 11.1133 57.4141 10.7578 57.1875 10.4375C56.9688 10.1172 56.7031 9.84375 56.3906 9.61719C56.0781 9.38281 55.7227 9.20703 55.3242 9.08984C54.7852 8.91016 53.9805 8.82031 52.9102 8.82031H50.9062ZM55.9453 16.5781C56.6797 16.4609 57.3242 16.2383 57.8789 15.9102C58.4336 15.5742 58.8594 15.1523 59.1562 14.6445C59.4609 14.1367 59.6133 13.5742 59.6133 12.957C59.6133 12.0742 59.3203 11.2891 58.7344 10.6016C58.1484 9.91406 57.3281 9.39453 56.2734 9.04297C57.6328 9.92578 58.3125 11.168 58.3125 12.7695C58.3125 14.5977 57.5234 15.8672 55.9453 16.5781ZM55.4062 8.14062C56.3672 7.85938 57.1055 7.42188 57.6211 6.82812C58.1445 6.23438 58.4062 5.52344 58.4062 4.69531C58.4062 3.85938 58.1445 3.16016 57.6211 2.59766C57.0977 2.02734 56.3242 1.61719 55.3008 1.36719C56.543 2.24219 57.1641 3.38672 57.1641 4.80078C57.1641 6.30078 56.5781 7.41406 55.4062 8.14062ZM47.625 16.3789C48.2422 16.3008 48.7578 16.2617 49.1719 16.2617C49.5469 16.2617 50.0352 16.293 50.6367 16.3555L50.918 16.3789L50.5078 16.0625C50.2422 15.8672 50.0703 15.7109 49.9922 15.5938C49.9219 15.4766 49.8867 15.3008 49.8867 15.0664V14.6797C49.8867 14.6094 49.8828 14.5625 49.875 14.5391C49.875 14.5156 49.875 14.4961 49.875 14.4805V3.52344C49.875 3.5 49.875 3.47656 49.875 3.45312C49.8828 3.42969 49.8867 3.38672 49.8867 3.32422V2.9375C49.8867 2.77344 49.8984 2.64453 49.9219 2.55078C49.9531 2.45703 50.0078 2.37109 50.0859 2.29297C50.1641 2.20703 50.3047 2.08984 50.5078 1.94141L51.1289 1.47266L50.707 1.50781C50.1055 1.5625 49.5781 1.58984 49.125 1.58984C48.6094 1.58984 48.0391 1.54687 47.4141 1.46094L48.0352 1.94141C48.3086 2.14453 48.4805 2.30469 48.5508 2.42188C48.6211 2.53125 48.6562 2.70312 48.6562 2.9375V3.32422V3.52344V14.4805V14.6797V15.0664C48.6562 15.3008 48.6211 15.4766 48.5508 15.5938C48.4805 15.7031 48.3086 15.8594 48.0352 16.0625L47.625 16.3789ZM71.7422 11.082H65.707L65.0508 12.582C64.7383 13.3164 64.582 13.9219 64.582 14.3984C64.582 14.8047 64.6719 15.1562 64.8516 15.4531C65.0391 15.7422 65.3125 15.9844 65.6719 16.1797C66.0391 16.3672 66.5195 16.5195 67.1133 16.6367V17H61.0312V16.6484C61.7656 16.3984 62.3945 15.9609 62.918 15.3359C63.4492 14.7109 64.0078 13.7383 64.5938 12.418L69.7734 0.699219H70.0781L75.7148 13.3672C75.7305 13.375 75.7422 13.3984 75.75 13.4375C75.7656 13.4688 75.7812 13.5039 75.7969 13.543C75.8203 13.582 75.8438 13.625 75.8672 13.6719L76.3828 14.7383C76.6641 15.3086 76.9844 15.7383 77.3438 16.0273C77.7031 16.3164 78.1523 16.5195 78.6914 16.6367V17H71.2148V16.6367C71.8477 16.5898 72.3008 16.5156 72.5742 16.4141C73.1367 16.2031 73.418 15.8359 73.418 15.3125C73.418 15.0547 73.293 14.6328 73.043 14.0469L71.7422 11.082ZM71.5195 10.5898L68.6953 4.22656L65.918 10.5898H71.5195ZM68.9414 3.72266L73.4531 13.8828L73.5703 14.1406C73.8125 14.6641 73.9336 15.0469 73.9336 15.2891C73.9336 15.625 73.7422 15.9961 73.3594 16.4023H76.4531C76.1016 16.0742 75.7969 15.6992 75.5391 15.2773C75.2812 14.8477 74.9805 14.2539 74.6367 13.4961L69.6094 2.1875L68.9414 3.72266ZM64.8398 16.4023C64.5742 16.082 64.3867 15.7969 64.2773 15.5469C64.168 15.2891 64.1133 15.0117 64.1133 14.7148C64.1133 14.582 64.1172 14.4766 64.125 14.3984C63.8828 14.8672 63.6445 15.2461 63.4102 15.5352C63.1758 15.8164 62.8594 16.1055 62.4609 16.4023H64.8398ZM84.5625 8.60938V13.4258C84.5625 14.0977 84.6016 14.5977 84.6797 14.9258C84.7656 15.2539 84.9258 15.5469 85.1602 15.8047C85.5742 16.2344 86.1914 16.5117 87.0117 16.6367V17H79.5586V16.6367C80.4023 16.4961 81.0156 16.1719 81.3984 15.6641C81.6953 15.2891 81.8438 14.543 81.8438 13.4258V4.57812C81.8438 3.86719 81.8047 3.35156 81.7266 3.03125C81.6484 2.71094 81.5039 2.4375 81.293 2.21094C80.918 1.79688 80.3398 1.51563 79.5586 1.36719V1.00391C79.668 1.01172 79.7656 1.01562 79.8516 1.01562L80.8828 1.07422C81.2969 1.09766 81.7773 1.10938 82.3242 1.10938C83.1914 1.10938 83.9766 1.07422 84.6797 1.00391L86.3203 0.863281C86.8359 0.816406 87.3438 0.792969 87.8438 0.792969C88.7656 0.792969 89.5898 0.886719 90.3164 1.07422C91.043 1.26172 91.6562 1.53125 92.1562 1.88281C92.6562 2.23438 93.043 2.66797 93.3164 3.18359C93.5898 3.69141 93.7266 4.26172 93.7266 4.89453C93.7266 5.94922 93.3633 6.77344 92.6367 7.36719C91.918 7.95312 90.8516 8.29688 89.4375 8.39844C90.3125 8.74219 91.0508 9.21484 91.6523 9.81641C92.2617 10.4102 92.9844 11.3828 93.8203 12.7344C94.7656 14.25 95.5117 15.3047 96.0586 15.8984C96.6055 16.4922 97.2109 16.9141 97.875 17.1641V17.4922C97.0234 17.4766 96.2969 17.3984 95.6953 17.2578C95.1016 17.1172 94.5078 16.8672 93.9141 16.5078C93.1719 16.0469 92.4727 15.4258 91.8164 14.6445C91.1602 13.8633 90.5859 12.9688 90.0938 11.9609L89.4727 10.6602C89.1758 10.0508 88.9141 9.60938 88.6875 9.33594C88.4609 9.05469 88.1914 8.86328 87.8789 8.76172C87.5664 8.66016 87.1406 8.60938 86.6016 8.60938H84.5625ZM84.5625 8.14062H86.6602C87.8711 8.14062 88.7422 8.00391 89.2734 7.73047C89.75 7.48828 90.1211 7.11328 90.3867 6.60547C90.6602 6.08984 90.7969 5.5 90.7969 4.83594C90.7969 4.14844 90.6367 3.53125 90.3164 2.98438C90.0039 2.4375 89.5625 2.01562 88.9922 1.71875C88.4297 1.41406 87.7852 1.26172 87.0586 1.26172C85.9805 1.26172 85.2539 1.59766 84.8789 2.26953C84.668 2.65234 84.5625 3.25391 84.5625 4.07422V8.14062ZM89.1328 8.1875C89.6562 8.07031 90.1328 7.90234 90.5625 7.68359C91 7.46484 91.3594 7.21484 91.6406 6.93359C91.9219 6.65234 92.1367 6.33203 92.2852 5.97266C92.4414 5.61328 92.5195 5.23828 92.5195 4.84766C92.5195 3.99609 92.2148 3.25391 91.6055 2.62109C90.9961 1.98828 90.1914 1.58203 89.1914 1.40234C89.6367 1.64453 90.0117 1.93359 90.3164 2.26953C90.6211 2.60547 90.8516 2.98828 91.0078 3.41797C91.1641 3.83984 91.2422 4.29688 91.2422 4.78906C91.2422 5.64062 91.0742 6.33984 90.7383 6.88672C90.4023 7.42578 89.8672 7.85938 89.1328 8.1875ZM96.5273 17.0117C96.1133 16.7852 95.7773 16.5781 95.5195 16.3906C95.2617 16.2031 94.9609 15.9414 94.6172 15.6055C94.2109 15.168 93.8906 14.7891 93.6562 14.4688C93.4297 14.1484 93.0508 13.5508 92.5195 12.6758C92.0195 11.8398 91.5664 11.1641 91.1602 10.6484C90.7617 10.1328 90.3594 9.71875 89.9531 9.40625C89.5469 9.09375 89.0977 8.83594 88.6055 8.63281C88.918 8.95312 89.1758 9.26953 89.3789 9.58203C89.4883 9.75391 89.6836 10.1172 89.9648 10.6719C90.0508 10.8359 90.1328 10.9961 90.2109 11.1523C90.2969 11.3086 90.3789 11.4727 90.457 11.6445C91.293 13.2773 92.1914 14.5195 93.1523 15.3711C94.1133 16.2148 95.2383 16.7617 96.5273 17.0117ZM81.1992 16.4023H84.6211L84.1641 16.0625C83.8984 15.8672 83.7266 15.7109 83.6484 15.5938C83.5781 15.4766 83.543 15.3008 83.543 15.0664C83.543 14.9414 83.5391 14.8594 83.5312 14.8203C83.5312 14.7734 83.5312 14.7266 83.5312 14.6797V14.4805V3.52344V3.32422C83.5312 3.27734 83.5312 3.23047 83.5312 3.18359C83.5391 3.13672 83.543 3.05469 83.543 2.9375C83.543 2.71875 83.5742 2.55078 83.6367 2.43359C83.707 2.31641 83.8555 2.17188 84.082 2L84.1641 1.94141L84.8203 1.4375L84.3984 1.46094C83.6875 1.50781 83.0469 1.53125 82.4766 1.53125C82.125 1.53125 81.6445 1.51953 81.0352 1.49609L81.6562 1.94141C81.9141 2.11328 82.082 2.26563 82.1602 2.39844C82.2383 2.52344 82.2773 2.70312 82.2773 2.9375C82.2852 3.07031 82.2891 3.19922 82.2891 3.32422V3.52344V14.4805V14.6797C82.2891 14.8047 82.2852 14.9336 82.2773 15.0664C82.2773 15.3086 82.2422 15.4883 82.1719 15.6055C82.1016 15.7148 81.9297 15.8672 81.6562 16.0625L81.1992 16.4023ZM103.43 8.60938V13.4258C103.43 14.0977 103.469 14.5977 103.547 14.9258C103.633 15.2539 103.793 15.5469 104.027 15.8047C104.441 16.2344 105.059 16.5117 105.879 16.6367V17H98.4258V16.6367C99.2695 16.4961 99.8828 16.1719 100.266 15.6641C100.562 15.2891 100.711 14.543 100.711 13.4258V4.57812C100.711 3.86719 100.672 3.35156 100.594 3.03125C100.516 2.71094 100.371 2.4375 100.16 2.21094C99.7852 1.79688 99.207 1.51563 98.4258 1.36719V1.00391C98.5352 1.01172 98.6328 1.01562 98.7188 1.01562L99.75 1.07422C100.164 1.09766 100.645 1.10938 101.191 1.10938C102.059 1.10938 102.844 1.07422 103.547 1.00391L105.188 0.863281C105.703 0.816406 106.211 0.792969 106.711 0.792969C107.633 0.792969 108.457 0.886719 109.184 1.07422C109.91 1.26172 110.523 1.53125 111.023 1.88281C111.523 2.23438 111.91 2.66797 112.184 3.18359C112.457 3.69141 112.594 4.26172 112.594 4.89453C112.594 5.94922 112.23 6.77344 111.504 7.36719C110.785 7.95312 109.719 8.29688 108.305 8.39844C109.18 8.74219 109.918 9.21484 110.52 9.81641C111.129 10.4102 111.852 11.3828 112.688 12.7344C113.633 14.25 114.379 15.3047 114.926 15.8984C115.473 16.4922 116.078 16.9141 116.742 17.1641V17.4922C115.891 17.4766 115.164 17.3984 114.562 17.2578C113.969 17.1172 113.375 16.8672 112.781 16.5078C112.039 16.0469 111.34 15.4258 110.684 14.6445C110.027 13.8633 109.453 12.9688 108.961 11.9609L108.34 10.6602C108.043 10.0508 107.781 9.60938 107.555 9.33594C107.328 9.05469 107.059 8.86328 106.746 8.76172C106.434 8.66016 106.008 8.60938 105.469 8.60938H103.43ZM103.43 8.14062H105.527C106.738 8.14062 107.609 8.00391 108.141 7.73047C108.617 7.48828 108.988 7.11328 109.254 6.60547C109.527 6.08984 109.664 5.5 109.664 4.83594C109.664 4.14844 109.504 3.53125 109.184 2.98438C108.871 2.4375 108.43 2.01562 107.859 1.71875C107.297 1.41406 106.652 1.26172 105.926 1.26172C104.848 1.26172 104.121 1.59766 103.746 2.26953C103.535 2.65234 103.43 3.25391 103.43 4.07422V8.14062ZM108 8.1875C108.523 8.07031 109 7.90234 109.43 7.68359C109.867 7.46484 110.227 7.21484 110.508 6.93359C110.789 6.65234 111.004 6.33203 111.152 5.97266C111.309 5.61328 111.387 5.23828 111.387 4.84766C111.387 3.99609 111.082 3.25391 110.473 2.62109C109.863 1.98828 109.059 1.58203 108.059 1.40234C108.504 1.64453 108.879 1.93359 109.184 2.26953C109.488 2.60547 109.719 2.98828 109.875 3.41797C110.031 3.83984 110.109 4.29688 110.109 4.78906C110.109 5.64062 109.941 6.33984 109.605 6.88672C109.27 7.42578 108.734 7.85938 108 8.1875ZM115.395 17.0117C114.98 16.7852 114.645 16.5781 114.387 16.3906C114.129 16.2031 113.828 15.9414 113.484 15.6055C113.078 15.168 112.758 14.7891 112.523 14.4688C112.297 14.1484 111.918 13.5508 111.387 12.6758C110.887 11.8398 110.434 11.1641 110.027 10.6484C109.629 10.1328 109.227 9.71875 108.82 9.40625C108.414 9.09375 107.965 8.83594 107.473 8.63281C107.785 8.95312 108.043 9.26953 108.246 9.58203C108.355 9.75391 108.551 10.1172 108.832 10.6719C108.918 10.8359 109 10.9961 109.078 11.1523C109.164 11.3086 109.246 11.4727 109.324 11.6445C110.16 13.2773 111.059 14.5195 112.02 15.3711C112.98 16.2148 114.105 16.7617 115.395 17.0117ZM100.066 16.4023H103.488L103.031 16.0625C102.766 15.8672 102.594 15.7109 102.516 15.5938C102.445 15.4766 102.41 15.3008 102.41 15.0664C102.41 14.9414 102.406 14.8594 102.398 14.8203C102.398 14.7734 102.398 14.7266 102.398 14.6797V14.4805V3.52344V3.32422C102.398 3.27734 102.398 3.23047 102.398 3.18359C102.406 3.13672 102.41 3.05469 102.41 2.9375C102.41 2.71875 102.441 2.55078 102.504 2.43359C102.574 2.31641 102.723 2.17188 102.949 2L103.031 1.94141L103.688 1.4375L103.266 1.46094C102.555 1.50781 101.914 1.53125 101.344 1.53125C100.992 1.53125 100.512 1.51953 99.9023 1.49609L100.523 1.94141C100.781 2.11328 100.949 2.26563 101.027 2.39844C101.105 2.52344 101.145 2.70312 101.145 2.9375C101.152 3.07031 101.156 3.19922 101.156 3.32422V3.52344V14.4805V14.6797C101.156 14.8047 101.152 14.9336 101.145 15.0664C101.145 15.3086 101.109 15.4883 101.039 15.6055C100.969 15.7148 100.797 15.8672 100.523 16.0625L100.066 16.4023ZM117.293 17V16.6367C118.137 16.4961 118.75 16.1719 119.133 15.6641C119.43 15.2891 119.578 14.543 119.578 13.4258V4.57812C119.578 3.86719 119.539 3.35156 119.461 3.03125C119.383 2.71094 119.238 2.4375 119.027 2.21094C118.637 1.77344 118.059 1.49219 117.293 1.36719V1.00391H124.594V1.36719C123.75 1.50781 123.133 1.83203 122.742 2.33984C122.586 2.54297 122.473 2.81641 122.402 3.16016C122.332 3.49609 122.297 3.96875 122.297 4.57812V13.4258C122.297 14.0898 122.336 14.5938 122.414 14.9375C122.5 15.2734 122.648 15.5586 122.859 15.793C123.25 16.2305 123.828 16.5117 124.594 16.6367V17H117.293ZM118.934 16.4023H122.355L121.898 16.0625C121.633 15.8672 121.461 15.7109 121.383 15.5938C121.312 15.4766 121.277 15.3008 121.277 15.0664C121.277 14.9414 121.273 14.8594 121.266 14.8203C121.266 14.7734 121.266 14.7266 121.266 14.6797V14.4805V3.52344V3.32422C121.266 3.27734 121.266 3.23047 121.266 3.18359C121.273 3.13672 121.277 3.05469 121.277 2.9375C121.277 2.70312 121.312 2.52734 121.383 2.41016C121.461 2.29297 121.633 2.13672 121.898 1.94141L122.566 1.44922H118.723L119.391 1.94141C119.664 2.13672 119.836 2.28906 119.906 2.39844C119.977 2.50781 120.012 2.6875 120.012 2.9375C120.02 3.07031 120.023 3.19922 120.023 3.32422V3.52344V14.4805V14.6797C120.023 14.8047 120.02 14.9336 120.012 15.0664C120.012 15.3086 119.977 15.4883 119.906 15.6055C119.836 15.7148 119.664 15.8672 119.391 16.0625L118.934 16.4023ZM139.23 1.00391L139.676 5.36328H139.301C138.895 4.01953 138.289 3.03125 137.484 2.39844C136.688 1.75781 135.648 1.4375 134.367 1.4375H133.711C132.688 1.4375 131.961 1.63672 131.531 2.03516C131.109 2.42578 130.898 3.08203 130.898 4.00391V7.98828H132.457C133.637 7.98828 134.496 7.80469 135.035 7.4375C135.574 7.0625 135.945 6.39062 136.148 5.42188H136.5V11.3516H136.148C135.992 10.5703 135.781 9.97656 135.516 9.57031C135.258 9.15625 134.891 8.86719 134.414 8.70312C133.945 8.53125 133.305 8.44531 132.492 8.44531H130.898V13.5195C130.898 14.293 130.969 14.8867 131.109 15.3008C131.258 15.707 131.512 15.9922 131.871 16.1562C132.238 16.3203 132.75 16.4023 133.406 16.4023H134.484C135.547 16.4023 136.555 16.0742 137.508 15.418C138.562 14.6836 139.598 13.6602 140.613 12.3477L140.707 12.2188H141.117L139.734 17H125.895V16.6367C126.738 16.4961 127.352 16.1719 127.734 15.6641C128.031 15.2891 128.18 14.543 128.18 13.4258V4.57812C128.18 3.86719 128.141 3.35156 128.062 3.03125C127.984 2.71094 127.84 2.4375 127.629 2.21094C127.238 1.77344 126.66 1.49219 125.895 1.36719V1.00391H139.23ZM138.352 1.4375H136.664C137.102 1.61719 137.453 1.8125 137.719 2.02344C137.984 2.23438 138.281 2.55859 138.609 2.99609L138.352 1.4375ZM135.656 7.48438C135.438 7.6875 135.266 7.82812 135.141 7.90625C135.023 7.97656 134.773 8.08594 134.391 8.23438C134.828 8.35938 135.25 8.61328 135.656 8.99609V7.48438ZM138.902 16.4023L139.559 14.2227C139.277 14.5352 138.996 14.8203 138.715 15.0781C138.441 15.3281 138.129 15.5664 137.777 15.793C137.434 16.0195 137.082 16.2227 136.723 16.4023H138.902ZM127.535 16.4023H130.957L130.5 16.0625C130.234 15.8672 130.062 15.7109 129.984 15.5938C129.914 15.4766 129.879 15.3008 129.879 15.0664C129.879 14.9414 129.875 14.8594 129.867 14.8203C129.867 14.7734 129.867 14.7266 129.867 14.6797V14.4805V3.52344V3.32422C129.867 3.27734 129.867 3.23047 129.867 3.18359C129.875 3.13672 129.879 3.05469 129.879 2.9375C129.879 2.70312 129.918 2.52344 129.996 2.39844C130.082 2.26563 130.25 2.11328 130.5 1.94141L131.168 1.44922H127.324L127.992 1.94141C128.258 2.13672 128.426 2.29297 128.496 2.41016C128.574 2.52734 128.613 2.70312 128.613 2.9375C128.621 3.07031 128.625 3.19922 128.625 3.32422V3.52344V14.4805V14.6797C128.625 14.8047 128.621 14.9336 128.613 15.0664C128.613 15.3086 128.578 15.4883 128.508 15.6055C128.438 15.7148 128.266 15.8672 127.992 16.0625L127.535 16.4023ZM146.742 8.60938V13.4258C146.742 14.0977 146.781 14.5977 146.859 14.9258C146.945 15.2539 147.105 15.5469 147.34 15.8047C147.754 16.2344 148.371 16.5117 149.191 16.6367V17H141.738V16.6367C142.582 16.4961 143.195 16.1719 143.578 15.6641C143.875 15.2891 144.023 14.543 144.023 13.4258V4.57812C144.023 3.86719 143.984 3.35156 143.906 3.03125C143.828 2.71094 143.684 2.4375 143.473 2.21094C143.098 1.79688 142.52 1.51563 141.738 1.36719V1.00391C141.848 1.01172 141.945 1.01562 142.031 1.01562L143.062 1.07422C143.477 1.09766 143.957 1.10938 144.504 1.10938C145.371 1.10938 146.156 1.07422 146.859 1.00391L148.5 0.863281C149.016 0.816406 149.523 0.792969 150.023 0.792969C150.945 0.792969 151.77 0.886719 152.496 1.07422C153.223 1.26172 153.836 1.53125 154.336 1.88281C154.836 2.23438 155.223 2.66797 155.496 3.18359C155.77 3.69141 155.906 4.26172 155.906 4.89453C155.906 5.94922 155.543 6.77344 154.816 7.36719C154.098 7.95312 153.031 8.29688 151.617 8.39844C152.492 8.74219 153.23 9.21484 153.832 9.81641C154.441 10.4102 155.164 11.3828 156 12.7344C156.945 14.25 157.691 15.3047 158.238 15.8984C158.785 16.4922 159.391 16.9141 160.055 17.1641V17.4922C159.203 17.4766 158.477 17.3984 157.875 17.2578C157.281 17.1172 156.688 16.8672 156.094 16.5078C155.352 16.0469 154.652 15.4258 153.996 14.6445C153.34 13.8633 152.766 12.9688 152.273 11.9609L151.652 10.6602C151.355 10.0508 151.094 9.60938 150.867 9.33594C150.641 9.05469 150.371 8.86328 150.059 8.76172C149.746 8.66016 149.32 8.60938 148.781 8.60938H146.742ZM146.742 8.14062H148.84C150.051 8.14062 150.922 8.00391 151.453 7.73047C151.93 7.48828 152.301 7.11328 152.566 6.60547C152.84 6.08984 152.977 5.5 152.977 4.83594C152.977 4.14844 152.816 3.53125 152.496 2.98438C152.184 2.4375 151.742 2.01562 151.172 1.71875C150.609 1.41406 149.965 1.26172 149.238 1.26172C148.16 1.26172 147.434 1.59766 147.059 2.26953C146.848 2.65234 146.742 3.25391 146.742 4.07422V8.14062ZM151.312 8.1875C151.836 8.07031 152.312 7.90234 152.742 7.68359C153.18 7.46484 153.539 7.21484 153.82 6.93359C154.102 6.65234 154.316 6.33203 154.465 5.97266C154.621 5.61328 154.699 5.23828 154.699 4.84766C154.699 3.99609 154.395 3.25391 153.785 2.62109C153.176 1.98828 152.371 1.58203 151.371 1.40234C151.816 1.64453 152.191 1.93359 152.496 2.26953C152.801 2.60547 153.031 2.98828 153.188 3.41797C153.344 3.83984 153.422 4.29688 153.422 4.78906C153.422 5.64062 153.254 6.33984 152.918 6.88672C152.582 7.42578 152.047 7.85938 151.312 8.1875ZM158.707 17.0117C158.293 16.7852 157.957 16.5781 157.699 16.3906C157.441 16.2031 157.141 15.9414 156.797 15.6055C156.391 15.168 156.07 14.7891 155.836 14.4688C155.609 14.1484 155.23 13.5508 154.699 12.6758C154.199 11.8398 153.746 11.1641 153.34 10.6484C152.941 10.1328 152.539 9.71875 152.133 9.40625C151.727 9.09375 151.277 8.83594 150.785 8.63281C151.098 8.95312 151.355 9.26953 151.559 9.58203C151.668 9.75391 151.863 10.1172 152.145 10.6719C152.23 10.8359 152.312 10.9961 152.391 11.1523C152.477 11.3086 152.559 11.4727 152.637 11.6445C153.473 13.2773 154.371 14.5195 155.332 15.3711C156.293 16.2148 157.418 16.7617 158.707 17.0117ZM143.379 16.4023H146.801L146.344 16.0625C146.078 15.8672 145.906 15.7109 145.828 15.5938C145.758 15.4766 145.723 15.3008 145.723 15.0664C145.723 14.9414 145.719 14.8594 145.711 14.8203C145.711 14.7734 145.711 14.7266 145.711 14.6797V14.4805V3.52344V3.32422C145.711 3.27734 145.711 3.23047 145.711 3.18359C145.719 3.13672 145.723 3.05469 145.723 2.9375C145.723 2.71875 145.754 2.55078 145.816 2.43359C145.887 2.31641 146.035 2.17188 146.262 2L146.344 1.94141L147 1.4375L146.578 1.46094C145.867 1.50781 145.227 1.53125 144.656 1.53125C144.305 1.53125 143.824 1.51953 143.215 1.49609L143.836 1.94141C144.094 2.11328 144.262 2.26563 144.34 2.39844C144.418 2.52344 144.457 2.70312 144.457 2.9375C144.465 3.07031 144.469 3.19922 144.469 3.32422V3.52344V14.4805V14.6797C144.469 14.8047 144.465 14.9336 144.457 15.0664C144.457 15.3086 144.422 15.4883 144.352 15.6055C144.281 15.7148 144.109 15.8672 143.836 16.0625L143.379 16.4023ZM170.004 1.36719L170.684 5.26953H170.285C170.074 4.56641 169.867 4.01172 169.664 3.60547C169.461 3.19922 169.234 2.85937 168.984 2.58594C168.586 2.14062 168.105 1.79297 167.543 1.54297C166.988 1.29297 166.406 1.16797 165.797 1.16797C164.938 1.16797 164.234 1.40234 163.688 1.87109C163.141 2.33203 162.867 2.92969 162.867 3.66406C162.867 4.46875 163.223 5.13672 163.934 5.66797C164.301 5.93359 164.691 6.17188 165.105 6.38281C165.527 6.58594 166.184 6.875 167.074 7.25C167.684 7.49219 168.199 7.71094 168.621 7.90625C169.043 8.10156 169.383 8.27734 169.641 8.43359C169.898 8.58984 170.156 8.76953 170.414 8.97266C171.5 9.84766 172.043 10.9922 172.043 12.4062C172.043 13.3359 171.789 14.1758 171.281 14.9258C170.773 15.6758 170.07 16.2656 169.172 16.6953C168.273 17.1172 167.277 17.3281 166.184 17.3281C165.426 17.3281 164.551 17.2148 163.559 16.9883C162.973 16.8477 162.203 16.5977 161.25 16.2383L160.922 16.1211L160.57 11.6797H160.922C161.266 12.875 161.82 13.9414 162.586 14.8789C163.594 16.1055 164.793 16.7188 166.184 16.7188C166.895 16.7188 167.523 16.5859 168.07 16.3203C168.625 16.0469 169.059 15.6758 169.371 15.207C169.684 14.7305 169.84 14.1875 169.84 13.5781C169.84 13.0391 169.719 12.5547 169.477 12.125C169.234 11.6875 168.84 11.2773 168.293 10.8945C167.746 10.5039 166.996 10.1055 166.043 9.69922C164.66 9.09766 163.82 8.71484 163.523 8.55078C162.953 8.23047 162.48 7.88281 162.105 7.50781C161.73 7.13281 161.453 6.72656 161.273 6.28906C161.094 5.85156 161.004 5.38281 161.004 4.88281C161.004 4.10938 161.207 3.40234 161.613 2.76172C162.027 2.12109 162.59 1.61719 163.301 1.25C164.02 0.882813 164.812 0.699219 165.68 0.699219C166.227 0.699219 166.836 0.789063 167.508 0.96875L168.211 1.15625C168.734 1.29688 169.293 1.36719 169.887 1.36719H170.004ZM169.113 16.0156C170.402 15.0859 171.047 13.9688 171.047 12.6641C171.047 12.1484 170.938 11.6484 170.719 11.1641C170.508 10.6719 170.203 10.2539 169.805 9.91016C169.227 9.38672 168.207 8.82031 166.746 8.21094C165.535 7.69531 164.746 7.34766 164.379 7.16797C164.02 6.98828 163.652 6.74609 163.277 6.44141C162.496 5.81641 162.105 5.02734 162.105 4.07422C162.105 3.79297 162.137 3.53906 162.199 3.3125C162.262 3.07812 162.355 2.85547 162.48 2.64453C162.605 2.42578 162.812 2.13672 163.102 1.77734C161.984 2.58203 161.426 3.58594 161.426 4.78906C161.426 5.94531 161.879 6.85938 162.785 7.53125C163.262 7.89062 163.809 8.21094 164.426 8.49219C164.504 8.53125 165.105 8.79688 166.23 9.28906C167.59 9.875 168.527 10.4062 169.043 10.8828C169.863 11.6406 170.273 12.5352 170.273 13.5664C170.273 14.0664 170.18 14.5117 169.992 14.9023C169.812 15.2852 169.52 15.6562 169.113 16.0156ZM161.297 15.5586C161.812 15.8555 162.469 16.1406 163.266 16.4141C162.742 15.9453 162.344 15.5586 162.07 15.2539C161.805 14.9492 161.5 14.5195 161.156 13.9648L161.297 15.5586ZM181.113 17V16.6367C181.957 16.4961 182.57 16.1719 182.953 15.6641C183.25 15.2891 183.398 14.543 183.398 13.4258V4.57812C183.398 3.86719 183.359 3.35156 183.281 3.03125C183.203 2.71094 183.059 2.4375 182.848 2.21094C182.457 1.77344 181.879 1.49219 181.113 1.36719V1.00391H188.414V1.36719C187.57 1.50781 186.953 1.83203 186.562 2.33984C186.406 2.54297 186.293 2.81641 186.223 3.16016C186.152 3.49609 186.117 3.96875 186.117 4.57812V13.4258C186.117 14.0898 186.156 14.5938 186.234 14.9375C186.32 15.2734 186.469 15.5586 186.68 15.793C187.07 16.2305 187.648 16.5117 188.414 16.6367V17H181.113ZM182.754 16.4023H186.176L185.719 16.0625C185.453 15.8672 185.281 15.7109 185.203 15.5938C185.133 15.4766 185.098 15.3008 185.098 15.0664C185.098 14.9414 185.094 14.8594 185.086 14.8203C185.086 14.7734 185.086 14.7266 185.086 14.6797V14.4805V3.52344V3.32422C185.086 3.27734 185.086 3.23047 185.086 3.18359C185.094 3.13672 185.098 3.05469 185.098 2.9375C185.098 2.70312 185.133 2.52734 185.203 2.41016C185.281 2.29297 185.453 2.13672 185.719 1.94141L186.387 1.44922H182.543L183.211 1.94141C183.484 2.13672 183.656 2.28906 183.727 2.39844C183.797 2.50781 183.832 2.6875 183.832 2.9375C183.84 3.07031 183.844 3.19922 183.844 3.32422V3.52344V14.4805V14.6797C183.844 14.8047 183.84 14.9336 183.832 15.0664C183.832 15.3086 183.797 15.4883 183.727 15.6055C183.656 15.7148 183.484 15.8672 183.211 16.0625L182.754 16.4023ZM205.91 17.375H205.559L192.691 3.67578L192.703 11.5391C192.703 12.4141 192.754 13.1172 192.855 13.6484C192.957 14.1797 193.121 14.6367 193.348 15.0195C193.879 15.8789 194.742 16.418 195.938 16.6367V17H189.809V16.6367C190.863 16.2461 191.566 15.5078 191.918 14.4219C192.043 14.0625 192.129 13.668 192.176 13.2383C192.223 12.8008 192.246 12.25 192.246 11.5859V3.19531C191.637 2.57031 191.168 2.14062 190.84 1.90625C190.512 1.67188 190.137 1.49219 189.715 1.36719V1.00391H194.262C194.449 1.33203 194.652 1.62891 194.871 1.89453C194.918 1.93359 195 2.02734 195.117 2.17578C195.242 2.32422 195.324 2.42188 195.363 2.46875C195.496 2.61719 195.562 2.69141 195.562 2.69141L205.465 13.2734V5.21094C205.465 4.39062 205.359 3.71875 205.148 3.19531C204.945 2.66406 204.621 2.25391 204.176 1.96484C203.738 1.67578 203.156 1.47656 202.43 1.36719V1.00391H208.02V1.36719C207.184 1.59375 206.621 1.96875 206.332 2.49219C206.051 3.01562 205.91 3.92188 205.91 5.21094V17.375ZM205.465 16.6367V14.7969L194.473 3.05469C193.973 2.53125 193.57 1.99609 193.266 1.44922H190.875C191.445 1.79297 192.027 2.28516 192.621 2.92578L205.465 16.6367ZM204.035 1.44922C204.41 1.63672 204.695 1.82812 204.891 2.02344C205.086 2.21875 205.277 2.50391 205.465 2.87891C205.605 2.50391 205.723 2.23438 205.816 2.07031C205.91 1.90625 206.066 1.69922 206.285 1.44922H204.035ZM193.477 16.4023C193.164 16.0586 192.926 15.7617 192.762 15.5117C192.605 15.2539 192.457 14.9375 192.316 14.5625C192.168 14.9609 192.008 15.293 191.836 15.5586C191.664 15.8164 191.414 16.0977 191.086 16.4023H193.477ZM222.211 9.28906V13.4258C222.211 14.1211 222.258 14.6289 222.352 14.9492C222.445 15.2617 222.625 15.5469 222.891 15.8047C223.375 16.2422 224.074 16.5195 224.988 16.6367V17H217.207V16.6367C218.051 16.4961 218.664 16.1719 219.047 15.6641C219.344 15.2891 219.492 14.543 219.492 13.4258V4.57812C219.492 3.86719 219.453 3.35156 219.375 3.03125C219.297 2.71094 219.152 2.4375 218.941 2.21094C218.566 1.79688 217.988 1.51563 217.207 1.36719V1.00391C217.324 1.01172 217.422 1.01562 217.5 1.01562L218.531 1.07422C218.945 1.09766 219.426 1.10938 219.973 1.10938C220.84 1.10938 221.625 1.07422 222.328 1.00391L223.969 0.863281C224.5 0.816406 225.008 0.792969 225.492 0.792969C227.312 0.792969 228.738 1.16406 229.77 1.90625C230.809 2.64063 231.328 3.65625 231.328 4.95312C231.328 5.71875 231.133 6.42578 230.742 7.07422C230.352 7.72266 229.82 8.22266 229.148 8.57422C228.203 9.05078 226.777 9.28906 224.871 9.28906H224.391H222.211ZM222.211 8.78516H224.133C225.375 8.78516 226.32 8.58594 226.969 8.1875C227.453 7.89062 227.828 7.46094 228.094 6.89844C228.367 6.33594 228.504 5.69922 228.504 4.98828C228.504 3.85547 228.164 2.95312 227.484 2.28125C226.805 1.60938 225.898 1.27344 224.766 1.27344C224.211 1.27344 223.742 1.35937 223.359 1.53125C222.984 1.70313 222.707 1.95312 222.527 2.28125C222.316 2.65625 222.211 3.25391 222.211 4.07422V8.78516ZM226.781 8.75C227.891 8.45312 228.734 7.97656 229.312 7.32031C229.898 6.65625 230.191 5.85156 230.191 4.90625C230.191 4.3125 230.055 3.77344 229.781 3.28906C229.508 2.80469 229.121 2.40234 228.621 2.08203C228.121 1.76172 227.52 1.53516 226.816 1.40234C228.23 2.14453 228.938 3.33203 228.938 4.96484C228.938 5.85547 228.758 6.61328 228.398 7.23828C228.039 7.86328 227.5 8.36719 226.781 8.75ZM218.848 16.4023H222.27L221.812 16.0625C221.547 15.8672 221.375 15.7109 221.297 15.5938C221.227 15.4766 221.191 15.3008 221.191 15.0664C221.191 14.9414 221.188 14.8594 221.18 14.8203C221.18 14.7734 221.18 14.7266 221.18 14.6797V14.4805V3.52344V3.32422C221.18 3.27734 221.18 3.23047 221.18 3.18359C221.188 3.13672 221.191 3.05469 221.191 2.9375C221.191 2.71875 221.223 2.55078 221.285 2.43359C221.355 2.31641 221.504 2.17188 221.73 2L221.812 1.94141L222.469 1.4375L222.047 1.46094C221.336 1.50781 220.695 1.53125 220.125 1.53125C219.773 1.53125 219.293 1.51953 218.684 1.49609L219.305 1.94141C219.562 2.11328 219.73 2.26563 219.809 2.39844C219.887 2.52344 219.926 2.70312 219.926 2.9375C219.934 3.07031 219.938 3.19922 219.938 3.32422V3.52344V14.4805V14.6797C219.938 14.8047 219.934 14.9336 219.926 15.0664C219.926 15.3086 219.891 15.4883 219.82 15.6055C219.75 15.7148 219.578 15.8672 219.305 16.0625L218.848 16.4023ZM239.812 1.00391V1.36719C238.875 1.50781 238.199 1.82812 237.785 2.32812C237.598 2.55469 237.465 2.83594 237.387 3.17188C237.316 3.50781 237.281 3.97656 237.281 4.57812V13.5195C237.281 14.1055 237.312 14.5664 237.375 14.9023C237.445 15.2383 237.566 15.5156 237.738 15.7344C238.09 16.1797 238.758 16.4023 239.742 16.4023H239.988C240.512 16.4023 241.023 16.3242 241.523 16.168C242.023 16.0039 242.531 15.7461 243.047 15.3945C243.57 15.0352 244.098 14.5859 244.629 14.0469C245.168 13.5078 245.719 12.8711 246.281 12.1367H246.645L245.238 17H232.277V16.6367C233.121 16.4961 233.734 16.1719 234.117 15.6641C234.414 15.2891 234.562 14.543 234.562 13.4258V4.57812C234.562 3.86719 234.523 3.35156 234.445 3.03125C234.367 2.71094 234.223 2.4375 234.012 2.21094C233.621 1.77344 233.043 1.49219 232.277 1.36719V1.00391H239.812ZM244.406 16.4023L245.039 14.2227C244.273 15.1367 243.363 15.8633 242.309 16.4023H244.406ZM233.918 16.4023H237.34L236.883 16.0625C236.617 15.8672 236.445 15.7109 236.367 15.5938C236.297 15.4766 236.262 15.3008 236.262 15.0664C236.262 14.9414 236.258 14.8594 236.25 14.8203C236.25 14.7734 236.25 14.7266 236.25 14.6797V14.4805V3.52344V3.32422C236.25 3.27734 236.25 3.23047 236.25 3.18359C236.258 3.13672 236.262 3.05469 236.262 2.9375C236.262 2.70312 236.301 2.52344 236.379 2.39844C236.465 2.26563 236.633 2.11328 236.883 1.94141L237.551 1.44922H233.719L234.375 1.94141C234.648 2.13672 234.82 2.28906 234.891 2.39844C234.961 2.50781 234.996 2.6875 234.996 2.9375C235.004 3.07031 235.008 3.19922 235.008 3.32422V3.52344V14.4805V14.6797C235.008 14.8047 235.004 14.9336 234.996 15.0664C234.996 15.3086 234.961 15.4883 234.891 15.6055C234.82 15.7148 234.648 15.8672 234.375 16.0625L233.918 16.4023ZM257.156 11.082H251.121L250.465 12.582C250.152 13.3164 249.996 13.9219 249.996 14.3984C249.996 14.8047 250.086 15.1562 250.266 15.4531C250.453 15.7422 250.727 15.9844 251.086 16.1797C251.453 16.3672 251.934 16.5195 252.527 16.6367V17H246.445V16.6484C247.18 16.3984 247.809 15.9609 248.332 15.3359C248.863 14.7109 249.422 13.7383 250.008 12.418L255.188 0.699219H255.492L261.129 13.3672C261.145 13.375 261.156 13.3984 261.164 13.4375C261.18 13.4688 261.195 13.5039 261.211 13.543C261.234 13.582 261.258 13.625 261.281 13.6719L261.797 14.7383C262.078 15.3086 262.398 15.7383 262.758 16.0273C263.117 16.3164 263.566 16.5195 264.105 16.6367V17H256.629V16.6367C257.262 16.5898 257.715 16.5156 257.988 16.4141C258.551 16.2031 258.832 15.8359 258.832 15.3125C258.832 15.0547 258.707 14.6328 258.457 14.0469L257.156 11.082ZM256.934 10.5898L254.109 4.22656L251.332 10.5898H256.934ZM254.355 3.72266L258.867 13.8828L258.984 14.1406C259.227 14.6641 259.348 15.0469 259.348 15.2891C259.348 15.625 259.156 15.9961 258.773 16.4023H261.867C261.516 16.0742 261.211 15.6992 260.953 15.2773C260.695 14.8477 260.395 14.2539 260.051 13.4961L255.023 2.1875L254.355 3.72266ZM250.254 16.4023C249.988 16.082 249.801 15.7969 249.691 15.5469C249.582 15.2891 249.527 15.0117 249.527 14.7148C249.527 14.582 249.531 14.4766 249.539 14.3984C249.297 14.8672 249.059 15.2461 248.824 15.5352C248.59 15.8164 248.273 16.1055 247.875 16.4023H250.254ZM281.168 17.375H280.816L267.949 3.67578L267.961 11.5391C267.961 12.4141 268.012 13.1172 268.113 13.6484C268.215 14.1797 268.379 14.6367 268.605 15.0195C269.137 15.8789 270 16.418 271.195 16.6367V17H265.066V16.6367C266.121 16.2461 266.824 15.5078 267.176 14.4219C267.301 14.0625 267.387 13.668 267.434 13.2383C267.48 12.8008 267.504 12.25 267.504 11.5859V3.19531C266.895 2.57031 266.426 2.14062 266.098 1.90625C265.77 1.67188 265.395 1.49219 264.973 1.36719V1.00391H269.52C269.707 1.33203 269.91 1.62891 270.129 1.89453C270.176 1.93359 270.258 2.02734 270.375 2.17578C270.5 2.32422 270.582 2.42188 270.621 2.46875C270.754 2.61719 270.82 2.69141 270.82 2.69141L280.723 13.2734V5.21094C280.723 4.39062 280.617 3.71875 280.406 3.19531C280.203 2.66406 279.879 2.25391 279.434 1.96484C278.996 1.67578 278.414 1.47656 277.688 1.36719V1.00391H283.277V1.36719C282.441 1.59375 281.879 1.96875 281.59 2.49219C281.309 3.01562 281.168 3.92188 281.168 5.21094V17.375ZM280.723 16.6367V14.7969L269.73 3.05469C269.23 2.53125 268.828 1.99609 268.523 1.44922H266.133C266.703 1.79297 267.285 2.28516 267.879 2.92578L280.723 16.6367ZM279.293 1.44922C279.668 1.63672 279.953 1.82812 280.148 2.02344C280.344 2.21875 280.535 2.50391 280.723 2.87891C280.863 2.50391 280.98 2.23438 281.074 2.07031C281.168 1.90625 281.324 1.69922 281.543 1.44922H279.293ZM268.734 16.4023C268.422 16.0586 268.184 15.7617 268.02 15.5117C267.863 15.2539 267.715 14.9375 267.574 14.5625C267.426 14.9609 267.266 15.293 267.094 15.5586C266.922 15.8164 266.672 16.0977 266.344 16.4023H268.734ZM305.801 1.00391L306.246 5.36328H305.871C305.465 4.01953 304.859 3.03125 304.055 2.39844C303.258 1.75781 302.219 1.4375 300.938 1.4375H300.281C299.258 1.4375 298.531 1.63672 298.102 2.03516C297.68 2.42578 297.469 3.08203 297.469 4.00391V7.98828H299.027C300.207 7.98828 301.066 7.80469 301.605 7.4375C302.145 7.0625 302.516 6.39062 302.719 5.42188H303.07V11.3516H302.719C302.562 10.5703 302.352 9.97656 302.086 9.57031C301.828 9.15625 301.461 8.86719 300.984 8.70312C300.516 8.53125 299.875 8.44531 299.062 8.44531H297.469V13.5195C297.469 14.293 297.539 14.8867 297.68 15.3008C297.828 15.707 298.082 15.9922 298.441 16.1562C298.809 16.3203 299.32 16.4023 299.977 16.4023H301.055C302.117 16.4023 303.125 16.0742 304.078 15.418C305.133 14.6836 306.168 13.6602 307.184 12.3477L307.277 12.2188H307.688L306.305 17H292.465V16.6367C293.309 16.4961 293.922 16.1719 294.305 15.6641C294.602 15.2891 294.75 14.543 294.75 13.4258V4.57812C294.75 3.86719 294.711 3.35156 294.633 3.03125C294.555 2.71094 294.41 2.4375 294.199 2.21094C293.809 1.77344 293.23 1.49219 292.465 1.36719V1.00391H305.801ZM304.922 1.4375H303.234C303.672 1.61719 304.023 1.8125 304.289 2.02344C304.555 2.23438 304.852 2.55859 305.18 2.99609L304.922 1.4375ZM302.227 7.48438C302.008 7.6875 301.836 7.82812 301.711 7.90625C301.594 7.97656 301.344 8.08594 300.961 8.23438C301.398 8.35938 301.82 8.61328 302.227 8.99609V7.48438ZM305.473 16.4023L306.129 14.2227C305.848 14.5352 305.566 14.8203 305.285 15.0781C305.012 15.3281 304.699 15.5664 304.348 15.793C304.004 16.0195 303.652 16.2227 303.293 16.4023H305.473ZM294.105 16.4023H297.527L297.07 16.0625C296.805 15.8672 296.633 15.7109 296.555 15.5938C296.484 15.4766 296.449 15.3008 296.449 15.0664C296.449 14.9414 296.445 14.8594 296.438 14.8203C296.438 14.7734 296.438 14.7266 296.438 14.6797V14.4805V3.52344V3.32422C296.438 3.27734 296.438 3.23047 296.438 3.18359C296.445 3.13672 296.449 3.05469 296.449 2.9375C296.449 2.70312 296.488 2.52344 296.566 2.39844C296.652 2.26563 296.82 2.11328 297.07 1.94141L297.738 1.44922H293.895L294.562 1.94141C294.828 2.13672 294.996 2.29297 295.066 2.41016C295.145 2.52734 295.184 2.70312 295.184 2.9375C295.191 3.07031 295.195 3.19922 295.195 3.32422V3.52344V14.4805V14.6797C295.195 14.8047 295.191 14.9336 295.184 15.0664C295.184 15.3086 295.148 15.4883 295.078 15.6055C295.008 15.7148 294.836 15.8672 294.562 16.0625L294.105 16.4023ZM315.164 9.75781L312.41 13.4844C311.965 14.0938 311.742 14.625 311.742 15.0781C311.742 15.9922 312.535 16.5117 314.121 16.6367V17H307.957V16.6484C308.402 16.5391 308.82 16.3438 309.211 16.0625C309.516 15.8359 309.848 15.5586 310.207 15.2305C310.574 14.8945 310.871 14.5977 311.098 14.3398L311.766 13.5547L311.906 13.3906L314.883 9.35938L312.07 5.11719C312.062 5.09375 312.039 5.05469 312 5C311.961 4.9375 311.898 4.85156 311.812 4.74219L311.133 3.76953C310.57 2.95703 310.082 2.375 309.668 2.02344C309.254 1.66406 308.801 1.44531 308.309 1.36719V1.00391H315.738V1.36719C315.051 1.39062 314.574 1.48438 314.309 1.64844C314.043 1.80469 313.91 2.07422 313.91 2.45703C313.91 2.82422 314.094 3.28516 314.461 3.83984L316.664 7.21484L318.797 4.51953C319.461 3.68359 319.793 3.04297 319.793 2.59766C319.793 1.87109 319.164 1.46094 317.906 1.36719V1.00391H323.531V1.35547C323.117 1.43359 322.703 1.59375 322.289 1.83594C321.883 2.07031 321.453 2.39844 321 2.82031C320.562 3.22656 320.141 3.66406 319.734 4.13281C319.562 4.32031 319.422 4.48047 319.312 4.61328L316.934 7.60156L320.941 13.5078C321.699 14.6094 322.32 15.3828 322.805 15.8281C323.297 16.2734 323.816 16.543 324.363 16.6367V17H316.793V16.6367C317.301 16.5977 317.688 16.543 317.953 16.4727C318.219 16.3945 318.41 16.2852 318.527 16.1445C318.652 15.9961 318.715 15.7969 318.715 15.5469C318.715 15.2188 318.566 14.832 318.27 14.3867L315.164 9.75781ZM322.078 16.4023C321.789 16.1523 321.559 15.9414 321.387 15.7695C321.215 15.5977 320.988 15.332 320.707 14.9727C320.074 14.1055 319.699 13.582 319.582 13.4023L313.781 4.70703C313.125 3.73047 312.797 3.00781 312.797 2.53906C312.797 2.125 313.004 1.76172 313.418 1.44922H309.621C309.98 1.69922 310.285 1.96484 310.535 2.24609C310.793 2.52734 311.168 3.02734 311.66 3.74609L312.387 4.78906C312.59 5.08594 312.691 5.23438 312.691 5.23438L318.645 14.1758C318.777 14.3711 318.898 14.6055 319.008 14.8789C319.117 15.1523 319.172 15.3672 319.172 15.5234C319.172 15.7656 319.062 16.0586 318.844 16.4023H322.078ZM311.684 16.4023C311.418 16.0508 311.285 15.6953 311.285 15.3359C311.285 15.2266 311.309 15.0195 311.355 14.7148C310.879 15.2852 310.246 15.8477 309.457 16.4023H311.684ZM319.488 1.4375C319.973 1.74219 320.215 2.10937 320.215 2.53906C320.215 2.625 320.188 2.77734 320.133 2.99609C320.633 2.40234 321.195 1.88281 321.82 1.4375H319.488ZM338.637 1.00391L339.082 5.36328H338.707C338.301 4.01953 337.695 3.03125 336.891 2.39844C336.094 1.75781 335.055 1.4375 333.773 1.4375H333.117C332.094 1.4375 331.367 1.63672 330.938 2.03516C330.516 2.42578 330.305 3.08203 330.305 4.00391V7.98828H331.863C333.043 7.98828 333.902 7.80469 334.441 7.4375C334.98 7.0625 335.352 6.39062 335.555 5.42188H335.906V11.3516H335.555C335.398 10.5703 335.188 9.97656 334.922 9.57031C334.664 9.15625 334.297 8.86719 333.82 8.70312C333.352 8.53125 332.711 8.44531 331.898 8.44531H330.305V13.5195C330.305 14.293 330.375 14.8867 330.516 15.3008C330.664 15.707 330.918 15.9922 331.277 16.1562C331.645 16.3203 332.156 16.4023 332.812 16.4023H333.891C334.953 16.4023 335.961 16.0742 336.914 15.418C337.969 14.6836 339.004 13.6602 340.02 12.3477L340.113 12.2188H340.523L339.141 17H325.301V16.6367C326.145 16.4961 326.758 16.1719 327.141 15.6641C327.438 15.2891 327.586 14.543 327.586 13.4258V4.57812C327.586 3.86719 327.547 3.35156 327.469 3.03125C327.391 2.71094 327.246 2.4375 327.035 2.21094C326.645 1.77344 326.066 1.49219 325.301 1.36719V1.00391H338.637ZM337.758 1.4375H336.07C336.508 1.61719 336.859 1.8125 337.125 2.02344C337.391 2.23438 337.688 2.55859 338.016 2.99609L337.758 1.4375ZM335.062 7.48438C334.844 7.6875 334.672 7.82812 334.547 7.90625C334.43 7.97656 334.18 8.08594 333.797 8.23438C334.234 8.35938 334.656 8.61328 335.062 8.99609V7.48438ZM338.309 16.4023L338.965 14.2227C338.684 14.5352 338.402 14.8203 338.121 15.0781C337.848 15.3281 337.535 15.5664 337.184 15.793C336.84 16.0195 336.488 16.2227 336.129 16.4023H338.309ZM326.941 16.4023H330.363L329.906 16.0625C329.641 15.8672 329.469 15.7109 329.391 15.5938C329.32 15.4766 329.285 15.3008 329.285 15.0664C329.285 14.9414 329.281 14.8594 329.273 14.8203C329.273 14.7734 329.273 14.7266 329.273 14.6797V14.4805V3.52344V3.32422C329.273 3.27734 329.273 3.23047 329.273 3.18359C329.281 3.13672 329.285 3.05469 329.285 2.9375C329.285 2.70312 329.324 2.52344 329.402 2.39844C329.488 2.26563 329.656 2.11328 329.906 1.94141L330.574 1.44922H326.73L327.398 1.94141C327.664 2.13672 327.832 2.29297 327.902 2.41016C327.98 2.52734 328.02 2.70312 328.02 2.9375C328.027 3.07031 328.031 3.19922 328.031 3.32422V3.52344V14.4805V14.6797C328.031 14.8047 328.027 14.9336 328.02 15.0664C328.02 15.3086 327.984 15.4883 327.914 15.6055C327.844 15.7148 327.672 15.8672 327.398 16.0625L326.941 16.4023ZM355.289 1.17969L356.66 5.36328H356.262C355.879 4.62109 355.477 3.98438 355.055 3.45312C354.641 2.92188 354.203 2.49219 353.742 2.16406C353.289 1.82812 352.805 1.58203 352.289 1.42578C351.773 1.26953 351.191 1.19141 350.543 1.19141C349.621 1.19141 348.762 1.36719 347.965 1.71875C347.168 2.07031 346.477 2.56641 345.891 3.20703C345.305 3.84766 344.848 4.60547 344.52 5.48047C344.199 6.35547 344.039 7.29688 344.039 8.30469C344.039 9.82812 344.34 11.2188 344.941 12.4766C345.543 13.7266 346.367 14.7109 347.414 15.4297C348.469 16.1406 349.637 16.4961 350.918 16.4961C351.801 16.4961 352.625 16.3242 353.391 15.9805C354.164 15.6367 354.852 15.1406 355.453 14.4922C356.055 13.8438 356.578 13.0273 357.023 12.043H357.504C356.848 13.7773 355.859 15.0938 354.539 15.9922C353.219 16.8828 351.605 17.3281 349.699 17.3281C347.473 17.3281 345.629 16.7266 344.168 15.5234C343.543 15 343.016 14.4062 342.586 13.7422C342.164 13.0781 341.84 12.3516 341.613 11.5625C341.387 10.7656 341.273 9.94922 341.273 9.11328C341.273 7.55859 341.664 6.13672 342.445 4.84766C343.234 3.55859 344.316 2.54688 345.691 1.8125C347.074 1.07031 348.602 0.699219 350.273 0.699219C350.977 0.699219 351.902 0.800781 353.051 1.00391C353.848 1.15234 354.426 1.22656 354.785 1.22656C354.941 1.22656 355.109 1.21094 355.289 1.17969ZM349.254 16.9297C348.262 16.6562 347.363 16.2656 346.559 15.7578C345.754 15.25 345.082 14.6445 344.543 13.9414C344.004 13.2383 343.594 12.4414 343.312 11.5508C343.039 10.6523 342.902 9.67578 342.902 8.62109C342.902 7.83984 342.973 7.13672 343.113 6.51172C343.254 5.88672 343.48 5.29297 343.793 4.73047C344.113 4.16016 344.516 3.63281 345 3.14844C345.484 2.66406 346.074 2.1875 346.77 1.71875C345.949 2.08594 345.227 2.52344 344.602 3.03125C343.977 3.53125 343.449 4.09766 343.02 4.73047C342.59 5.35547 342.266 6.04297 342.047 6.79297C341.828 7.53516 341.719 8.3125 341.719 9.125C341.719 10 341.844 10.8359 342.094 11.6328C342.344 12.4297 342.699 13.1602 343.16 13.8242C343.621 14.4883 344.18 15.0508 344.836 15.5117C345.492 15.9648 346.168 16.3047 346.863 16.5312C347.566 16.75 348.363 16.8828 349.254 16.9297ZM365.777 1.00391V1.36719C364.871 1.50781 364.215 1.82812 363.809 2.32812C363.621 2.57031 363.492 2.85547 363.422 3.18359C363.359 3.51172 363.328 3.97656 363.328 4.57812V11.0469V11.457C363.336 13.0039 363.723 14.2031 364.488 15.0547C364.902 15.5156 365.43 15.8789 366.07 16.1445C366.711 16.4023 367.379 16.5312 368.074 16.5312C369.09 16.5312 369.965 16.2773 370.699 15.7695C371.441 15.2617 372 14.5469 372.375 13.625C372.672 12.8906 372.82 11.875 372.82 10.5781V5.12891C372.82 3.80078 372.516 2.84766 371.906 2.26953C371.398 1.78516 370.762 1.48438 369.996 1.36719V1.00391H375.445V1.36719C374.922 1.50781 374.5 1.71875 374.18 2C373.867 2.28125 373.641 2.65234 373.5 3.11328C373.359 3.57422 373.289 4.15234 373.289 4.84766V10.5664C373.289 11.5195 373.23 12.2852 373.113 12.8633C372.996 13.4414 372.805 13.9688 372.539 14.4453C372.188 15.0703 371.734 15.6016 371.18 16.0391C370.633 16.4766 370 16.8086 369.281 17.0352C368.562 17.2617 367.789 17.375 366.961 17.375C366.078 17.375 365.266 17.25 364.523 17C363.789 16.7422 363.145 16.375 362.59 15.8984C362.035 15.4141 361.594 14.832 361.266 14.1523C360.828 13.2383 360.609 11.9258 360.609 10.2148V4.57812C360.609 3.90625 360.57 3.40625 360.492 3.07812C360.422 2.74219 360.277 2.45313 360.059 2.21094C359.668 1.77344 359.09 1.49219 358.324 1.36719V1.00391H365.777ZM373.629 1.44922H371.566C371.871 1.62109 372.113 1.80078 372.293 1.98828C372.48 2.17578 372.652 2.42578 372.809 2.73828C373.02 2.23047 373.293 1.80078 373.629 1.44922ZM359.707 1.44922L360.422 1.94141C360.664 2.09766 360.828 2.24609 360.914 2.38672C361 2.51953 361.043 2.70312 361.043 2.9375C361.043 3.15625 361.047 3.28516 361.055 3.32422V3.52344V10.0742C361.055 10.6289 361.102 11.3047 361.195 12.1016C361.375 13.6172 361.969 14.8125 362.977 15.6875C363.992 16.5625 365.285 17.0039 366.855 17.0117C365.27 16.6758 364.078 15.9727 363.281 14.9023C362.914 14.418 362.656 13.8633 362.508 13.2383C362.367 12.6055 362.297 11.7812 362.297 10.7656V3.52344V3.32422V2.9375C362.305 2.70312 362.348 2.51953 362.426 2.38672C362.512 2.25391 362.68 2.10547 362.93 1.94141L363.645 1.44922H359.707ZM391.734 1.00391L392.098 5.36328H391.723C391.488 4.55859 391.168 3.86328 390.762 3.27734C390.363 2.69141 389.895 2.24219 389.355 1.92969C388.824 1.60938 388.266 1.44922 387.68 1.44922C387.219 1.44922 386.816 1.54687 386.473 1.74219C386.137 1.92969 385.887 2.19141 385.723 2.52734C385.566 2.84766 385.488 3.36328 385.488 4.07422V13.4258C385.488 14.1211 385.535 14.6328 385.629 14.9609C385.723 15.2812 385.902 15.5625 386.168 15.8047C386.645 16.2344 387.34 16.5117 388.254 16.6367V17H379.992V16.6367C381.008 16.4961 381.75 16.1758 382.219 15.6758C382.43 15.4492 382.574 15.1719 382.652 14.8438C382.73 14.5156 382.77 14.043 382.77 13.4258V4.07422C382.77 3.30078 382.664 2.73828 382.453 2.38672C382.289 2.09766 382.043 1.87109 381.715 1.70703C381.387 1.53516 381.008 1.44922 380.578 1.44922C379.695 1.44922 378.887 1.80078 378.152 2.50391C377.426 3.19922 376.883 4.15234 376.523 5.36328H376.16L376.523 1.00391H391.734ZM390.844 1.4375H389.145C389.559 1.60938 389.906 1.80859 390.188 2.03516C390.469 2.25391 390.762 2.57422 391.066 2.99609L390.844 1.4375ZM382.113 16.4023H385.547L385.09 16.0625C384.809 15.8516 384.633 15.6914 384.562 15.582C384.492 15.4727 384.457 15.3008 384.457 15.0664V14.6797C384.457 14.6172 384.453 14.5742 384.445 14.5508C384.445 14.5273 384.445 14.5039 384.445 14.4805V3.52344C384.445 3.5 384.445 3.47656 384.445 3.45312C384.453 3.42969 384.457 3.38672 384.457 3.32422V2.9375C384.457 2.70312 384.5 2.52344 384.586 2.39844C384.672 2.26563 384.84 2.11328 385.09 1.94141L385.758 1.44922H382.148L382.699 1.94141C382.895 2.11328 383.027 2.27344 383.098 2.42188C383.168 2.5625 383.203 2.73438 383.203 2.9375V3.32422C383.211 3.39453 383.215 3.46094 383.215 3.52344V14.4805C383.215 14.543 383.211 14.6094 383.203 14.6797V15.0664C383.203 15.3008 383.164 15.4766 383.086 15.5938C383.016 15.7109 382.848 15.8672 382.582 16.0625L382.113 16.4023ZM376.91 1.4375L376.746 3.16016C377.082 2.66797 377.367 2.30859 377.602 2.08203C377.836 1.85547 378.141 1.64062 378.516 1.4375H376.91ZM392.988 17V16.6367C393.832 16.4961 394.445 16.1719 394.828 15.6641C395.125 15.2891 395.273 14.543 395.273 13.4258V4.57812C395.273 3.86719 395.234 3.35156 395.156 3.03125C395.078 2.71094 394.934 2.4375 394.723 2.21094C394.332 1.77344 393.754 1.49219 392.988 1.36719V1.00391H400.289V1.36719C399.445 1.50781 398.828 1.83203 398.438 2.33984C398.281 2.54297 398.168 2.81641 398.098 3.16016C398.027 3.49609 397.992 3.96875 397.992 4.57812V13.4258C397.992 14.0898 398.031 14.5938 398.109 14.9375C398.195 15.2734 398.344 15.5586 398.555 15.793C398.945 16.2305 399.523 16.5117 400.289 16.6367V17H392.988ZM394.629 16.4023H398.051L397.594 16.0625C397.328 15.8672 397.156 15.7109 397.078 15.5938C397.008 15.4766 396.973 15.3008 396.973 15.0664C396.973 14.9414 396.969 14.8594 396.961 14.8203C396.961 14.7734 396.961 14.7266 396.961 14.6797V14.4805V3.52344V3.32422C396.961 3.27734 396.961 3.23047 396.961 3.18359C396.969 3.13672 396.973 3.05469 396.973 2.9375C396.973 2.70312 397.008 2.52734 397.078 2.41016C397.156 2.29297 397.328 2.13672 397.594 1.94141L398.262 1.44922H394.418L395.086 1.94141C395.359 2.13672 395.531 2.28906 395.602 2.39844C395.672 2.50781 395.707 2.6875 395.707 2.9375C395.715 3.07031 395.719 3.19922 395.719 3.32422V3.52344V14.4805V14.6797C395.719 14.8047 395.715 14.9336 395.707 15.0664C395.707 15.3086 395.672 15.4883 395.602 15.6055C395.531 15.7148 395.359 15.8672 395.086 16.0625L394.629 16.4023ZM401.719 9.01953C401.719 7.88672 401.938 6.80469 402.375 5.77344C402.812 4.74219 403.418 3.83984 404.191 3.06641C404.973 2.28516 405.871 1.68359 406.887 1.26172C407.91 0.832031 408.988 0.617188 410.121 0.617188C411.637 0.617188 413.035 0.996094 414.316 1.75391C415.605 2.50391 416.625 3.52344 417.375 4.8125C418.133 6.10156 418.512 7.50391 418.512 9.01953C418.512 10.1445 418.297 11.2188 417.867 12.2422C417.445 13.2578 416.844 14.1562 416.062 14.9375C415.281 15.7188 414.387 16.3281 413.379 16.7656C412.371 17.1953 411.297 17.4102 410.156 17.4102C408.617 17.4102 407.199 17.0352 405.902 16.2852C404.613 15.5352 403.594 14.5195 402.844 13.2383C402.094 11.9492 401.719 10.543 401.719 9.01953ZM404.672 8.9375C404.672 10.0859 404.801 11.1523 405.059 12.1367C405.316 13.1133 405.684 13.9492 406.16 14.6445C406.645 15.332 407.223 15.8594 407.895 16.2266C408.574 16.5938 409.324 16.7773 410.145 16.7773C411.48 16.7773 412.648 16.2461 413.648 15.1836C414.258 14.5273 414.727 13.668 415.055 12.6055C415.391 11.5352 415.559 10.3086 415.559 8.92578C415.559 7.72266 415.43 6.63672 415.172 5.66797C414.922 4.69922 414.559 3.875 414.082 3.19531C413.613 2.51562 413.043 1.99219 412.371 1.625C411.707 1.25781 410.957 1.07422 410.121 1.07422C409.293 1.07422 408.543 1.26172 407.871 1.63672C407.207 2.00391 406.637 2.53516 406.16 3.23047C405.684 3.91797 405.316 4.75391 405.059 5.73828C404.801 6.71484 404.672 7.78125 404.672 8.9375ZM406.582 16.2266C405.887 15.7109 405.309 15.1055 404.848 14.4102C404.395 13.707 404.051 12.8945 403.816 11.9727C403.59 11.0508 403.477 10.0391 403.477 8.9375C403.477 7.3125 403.723 5.92969 404.215 4.78906C404.715 3.64062 405.504 2.66016 406.582 1.84766C405.652 2.33984 404.855 2.94922 404.191 3.67578C403.535 4.40234 403.031 5.21875 402.68 6.125C402.336 7.02344 402.164 7.98438 402.164 9.00781C402.164 10.0234 402.336 10.9883 402.68 11.9023C403.031 12.8086 403.535 13.6289 404.191 14.3633C404.855 15.0977 405.652 15.7188 406.582 16.2266ZM413.016 16.2383C415.875 14.5898 417.305 12.1836 417.305 9.01953C417.305 8.00391 417.145 7.03516 416.824 6.11328C416.512 5.18359 416.062 4.35938 415.477 3.64062C414.898 2.91406 414.219 2.33594 413.438 1.90625C415.148 3.40625 416.004 5.74219 416.004 8.91406C416.004 9.84375 415.918 10.7344 415.746 11.5859C415.582 12.4297 415.352 13.168 415.055 13.8008C414.906 14.1211 414.746 14.4062 414.574 14.6562C414.402 14.9062 414.191 15.1602 413.941 15.418C413.691 15.668 413.383 15.9414 413.016 16.2383ZM436.137 17.375H435.785L422.918 3.67578L422.93 11.5391C422.93 12.4141 422.98 13.1172 423.082 13.6484C423.184 14.1797 423.348 14.6367 423.574 15.0195C424.105 15.8789 424.969 16.418 426.164 16.6367V17H420.035V16.6367C421.09 16.2461 421.793 15.5078 422.145 14.4219C422.27 14.0625 422.355 13.668 422.402 13.2383C422.449 12.8008 422.473 12.25 422.473 11.5859V3.19531C421.863 2.57031 421.395 2.14062 421.066 1.90625C420.738 1.67188 420.363 1.49219 419.941 1.36719V1.00391H424.488C424.676 1.33203 424.879 1.62891 425.098 1.89453C425.145 1.93359 425.227 2.02734 425.344 2.17578C425.469 2.32422 425.551 2.42188 425.59 2.46875C425.723 2.61719 425.789 2.69141 425.789 2.69141L435.691 13.2734V5.21094C435.691 4.39062 435.586 3.71875 435.375 3.19531C435.172 2.66406 434.848 2.25391 434.402 1.96484C433.965 1.67578 433.383 1.47656 432.656 1.36719V1.00391H438.246V1.36719C437.41 1.59375 436.848 1.96875 436.559 2.49219C436.277 3.01562 436.137 3.92188 436.137 5.21094V17.375ZM435.691 16.6367V14.7969L424.699 3.05469C424.199 2.53125 423.797 1.99609 423.492 1.44922H421.102C421.672 1.79297 422.254 2.28516 422.848 2.92578L435.691 16.6367ZM434.262 1.44922C434.637 1.63672 434.922 1.82812 435.117 2.02344C435.312 2.21875 435.504 2.50391 435.691 2.87891C435.832 2.50391 435.949 2.23438 436.043 2.07031C436.137 1.90625 436.293 1.69922 436.512 1.44922H434.262ZM423.703 16.4023C423.391 16.0586 423.152 15.7617 422.988 15.5117C422.832 15.2539 422.684 14.9375 422.543 14.5625C422.395 14.9609 422.234 15.293 422.062 15.5586C421.891 15.8164 421.641 16.0977 421.312 16.4023H423.703Z" fill="black"/>
</svg>
