<svg width="658" height="18" viewBox="0 0 658 18" fill="none" xmlns="http://www.w3.org/2000/svg">
<path d="M9.9375 12.6992V13.4258C9.9375 14.0898 9.97656 14.5938 10.0547 14.9375C10.1328 15.2734 10.2773 15.5586 10.4883 15.793C10.8789 16.2305 11.457 16.5117 12.2227 16.6367V17H4.6875V16.6367C5.625 16.4961 6.30078 16.1758 6.71484 15.6758C6.91016 15.4414 7.04297 15.1641 7.11328 14.8438C7.18359 14.5156 7.21875 14.043 7.21875 13.4258V12.6992H0.65625V11.3398L8.50781 1.00391H9.9375V10.4844C10.5781 10.4531 11.0664 10.3359 11.4023 10.1328C11.7383 9.92188 12.1016 9.50781 12.4922 8.89062H12.8203L11.8594 12.6992H9.9375ZM7.21875 10.4844V3.45312L1.875 10.4844H7.21875ZM6.5625 16.4023H9.98438L9.52734 16.0625C9.26172 15.8672 9.08984 15.7109 9.01172 15.5938C8.94141 15.4766 8.90625 15.3008 8.90625 15.0664V14.6797C8.89844 14.6094 8.89453 14.543 8.89453 14.4805V1.40234H8.75391L7.66406 2.85547V14.4805C7.66406 14.5039 7.66016 14.5312 7.65234 14.5625C7.65234 14.5938 7.65234 14.6328 7.65234 14.6797V15.0664C7.65234 15.3008 7.61328 15.4766 7.53516 15.5938C7.46484 15.7109 7.29297 15.8672 7.01953 16.0625L6.5625 16.4023ZM7.21875 11.8555V10.9062H1.53516L1.10156 11.4688V11.8555H7.21875ZM11.0859 11.8555L11.4023 10.6133C10.9648 10.8086 10.5859 10.9062 10.2656 10.9062H9.91406V11.8555H11.0859ZM14.3438 15.6875C14.3438 15.4062 14.4102 15.1523 14.543 14.9258C14.6758 14.6992 14.8555 14.5195 15.082 14.3867C15.3086 14.2539 15.5625 14.1875 15.8438 14.1875C16.125 14.1875 16.3789 14.2539 16.6055 14.3867C16.832 14.5195 17.0117 14.6992 17.1445 14.9258C17.2773 15.1523 17.3438 15.4062 17.3438 15.6875C17.3438 15.9688 17.2773 16.2227 17.1445 16.4492C17.0117 16.6758 16.832 16.8555 16.6055 16.9883C16.3789 17.1211 16.125 17.1875 15.8438 17.1875C15.5625 17.1875 15.3086 17.1211 15.082 16.9883C14.8555 16.8555 14.6758 16.6758 14.543 16.4492C14.4102 16.2227 14.3438 15.9688 14.3438 15.6875ZM16.0547 16.5547V14.8203C16.0547 14.625 15.9609 14.5273 15.7734 14.5273C15.5 14.5273 15.2578 14.6445 15.0469 14.8789C14.8359 15.1133 14.7305 15.3828 14.7305 15.6875C14.7305 15.9922 14.8359 16.2617 15.0469 16.4961C15.2656 16.7305 15.5078 16.8477 15.7734 16.8477C15.9609 16.8477 16.0547 16.75 16.0547 16.5547ZM28.4531 12.6992V13.4258C28.4531 14.0898 28.4922 14.5938 28.5703 14.9375C28.6484 15.2734 28.793 15.5586 29.0039 15.793C29.3945 16.2305 29.9727 16.5117 30.7383 16.6367V17H23.2031V16.6367C24.1406 16.4961 24.8164 16.1758 25.2305 15.6758C25.4258 15.4414 25.5586 15.1641 25.6289 14.8438C25.6992 14.5156 25.7344 14.043 25.7344 13.4258V12.6992H19.1719V11.3398L27.0234 1.00391H28.4531V10.4844C29.0938 10.4531 29.582 10.3359 29.918 10.1328C30.2539 9.92188 30.6172 9.50781 31.0078 8.89062H31.3359L30.375 12.6992H28.4531ZM25.7344 10.4844V3.45312L20.3906 10.4844H25.7344ZM25.0781 16.4023H28.5L28.043 16.0625C27.7773 15.8672 27.6055 15.7109 27.5273 15.5938C27.457 15.4766 27.4219 15.3008 27.4219 15.0664V14.6797C27.4141 14.6094 27.4102 14.543 27.4102 14.4805V1.40234H27.2695L26.1797 2.85547V14.4805C26.1797 14.5039 26.1758 14.5312 26.168 14.5625C26.168 14.5938 26.168 14.6328 26.168 14.6797V15.0664C26.168 15.3008 26.1289 15.4766 26.0508 15.5938C25.9805 15.7109 25.8086 15.8672 25.5352 16.0625L25.0781 16.4023ZM25.7344 11.8555V10.9062H20.0508L19.6172 11.4688V11.8555H25.7344ZM29.6016 11.8555L29.918 10.6133C29.4805 10.8086 29.1016 10.9062 28.7812 10.9062H28.4297V11.8555H29.6016ZM48.2227 17V16.6367C49.0664 16.4961 49.6797 16.1719 50.0625 15.6641C50.3594 15.2891 50.5078 14.543 50.5078 13.4258V4.57812C50.5078 3.86719 50.4688 3.35156 50.3906 3.03125C50.3125 2.71094 50.168 2.4375 49.957 2.21094C49.5664 1.77344 48.9883 1.49219 48.2227 1.36719V1.00391H55.5234V1.36719C54.6797 1.50781 54.0625 1.83203 53.6719 2.33984C53.5156 2.54297 53.4023 2.81641 53.332 3.16016C53.2617 3.49609 53.2266 3.96875 53.2266 4.57812V13.4258C53.2266 14.0898 53.2656 14.5938 53.3438 14.9375C53.4297 15.2734 53.5781 15.5586 53.7891 15.793C54.1797 16.2305 54.7578 16.5117 55.5234 16.6367V17H48.2227ZM49.8633 16.4023H53.2852L52.8281 16.0625C52.5625 15.8672 52.3906 15.7109 52.3125 15.5938C52.2422 15.4766 52.207 15.3008 52.207 15.0664C52.207 14.9414 52.2031 14.8594 52.1953 14.8203C52.1953 14.7734 52.1953 14.7266 52.1953 14.6797V14.4805V3.52344V3.32422C52.1953 3.27734 52.1953 3.23047 52.1953 3.18359C52.2031 3.13672 52.207 3.05469 52.207 2.9375C52.207 2.70312 52.2422 2.52734 52.3125 2.41016C52.3906 2.29297 52.5625 2.13672 52.8281 1.94141L53.4961 1.44922H49.6523L50.3203 1.94141C50.5938 2.13672 50.7656 2.28906 50.8359 2.39844C50.9062 2.50781 50.9414 2.6875 50.9414 2.9375C50.9492 3.07031 50.9531 3.19922 50.9531 3.32422V3.52344V14.4805V14.6797C50.9531 14.8047 50.9492 14.9336 50.9414 15.0664C50.9414 15.3086 50.9062 15.4883 50.8359 15.6055C50.7656 15.7148 50.5938 15.8672 50.3203 16.0625L49.8633 16.4023ZM73.0195 17.375H72.668L59.8008 3.67578L59.8125 11.5391C59.8125 12.4141 59.8633 13.1172 59.9648 13.6484C60.0664 14.1797 60.2305 14.6367 60.457 15.0195C60.9883 15.8789 61.8516 16.418 63.0469 16.6367V17H56.918V16.6367C57.9727 16.2461 58.6758 15.5078 59.0273 14.4219C59.1523 14.0625 59.2383 13.668 59.2852 13.2383C59.332 12.8008 59.3555 12.25 59.3555 11.5859V3.19531C58.7461 2.57031 58.2773 2.14062 57.9492 1.90625C57.6211 1.67188 57.2461 1.49219 56.8242 1.36719V1.00391H61.3711C61.5586 1.33203 61.7617 1.62891 61.9805 1.89453C62.0273 1.93359 62.1094 2.02734 62.2266 2.17578C62.3516 2.32422 62.4336 2.42188 62.4727 2.46875C62.6055 2.61719 62.6719 2.69141 62.6719 2.69141L72.5742 13.2734V5.21094C72.5742 4.39062 72.4688 3.71875 72.2578 3.19531C72.0547 2.66406 71.7305 2.25391 71.2852 1.96484C70.8477 1.67578 70.2656 1.47656 69.5391 1.36719V1.00391H75.1289V1.36719C74.293 1.59375 73.7305 1.96875 73.4414 2.49219C73.1602 3.01562 73.0195 3.92188 73.0195 5.21094V17.375ZM72.5742 16.6367V14.7969L61.582 3.05469C61.082 2.53125 60.6797 1.99609 60.375 1.44922H57.9844C58.5547 1.79297 59.1367 2.28516 59.7305 2.92578L72.5742 16.6367ZM71.1445 1.44922C71.5195 1.63672 71.8047 1.82812 72 2.02344C72.1953 2.21875 72.3867 2.50391 72.5742 2.87891C72.7148 2.50391 72.832 2.23438 72.9258 2.07031C73.0195 1.90625 73.1758 1.69922 73.3945 1.44922H71.1445ZM60.5859 16.4023C60.2734 16.0586 60.0352 15.7617 59.8711 15.5117C59.7148 15.2539 59.5664 14.9375 59.4258 14.5625C59.2773 14.9609 59.1172 15.293 58.9453 15.5586C58.7734 15.8164 58.5234 16.0977 58.1953 16.4023H60.5859ZM85.7695 1.36719L86.4492 5.26953H86.0508C85.8398 4.56641 85.6328 4.01172 85.4297 3.60547C85.2266 3.19922 85 2.85937 84.75 2.58594C84.3516 2.14062 83.8711 1.79297 83.3086 1.54297C82.7539 1.29297 82.1719 1.16797 81.5625 1.16797C80.7031 1.16797 80 1.40234 79.4531 1.87109C78.9062 2.33203 78.6328 2.92969 78.6328 3.66406C78.6328 4.46875 78.9883 5.13672 79.6992 5.66797C80.0664 5.93359 80.457 6.17188 80.8711 6.38281C81.293 6.58594 81.9492 6.875 82.8398 7.25C83.4492 7.49219 83.9648 7.71094 84.3867 7.90625C84.8086 8.10156 85.1484 8.27734 85.4062 8.43359C85.6641 8.58984 85.9219 8.76953 86.1797 8.97266C87.2656 9.84766 87.8086 10.9922 87.8086 12.4062C87.8086 13.3359 87.5547 14.1758 87.0469 14.9258C86.5391 15.6758 85.8359 16.2656 84.9375 16.6953C84.0391 17.1172 83.043 17.3281 81.9492 17.3281C81.1914 17.3281 80.3164 17.2148 79.3242 16.9883C78.7383 16.8477 77.9688 16.5977 77.0156 16.2383L76.6875 16.1211L76.3359 11.6797H76.6875C77.0312 12.875 77.5859 13.9414 78.3516 14.8789C79.3594 16.1055 80.5586 16.7188 81.9492 16.7188C82.6602 16.7188 83.2891 16.5859 83.8359 16.3203C84.3906 16.0469 84.8242 15.6758 85.1367 15.207C85.4492 14.7305 85.6055 14.1875 85.6055 13.5781C85.6055 13.0391 85.4844 12.5547 85.2422 12.125C85 11.6875 84.6055 11.2773 84.0586 10.8945C83.5117 10.5039 82.7617 10.1055 81.8086 9.69922C80.4258 9.09766 79.5859 8.71484 79.2891 8.55078C78.7188 8.23047 78.2461 7.88281 77.8711 7.50781C77.4961 7.13281 77.2188 6.72656 77.0391 6.28906C76.8594 5.85156 76.7695 5.38281 76.7695 4.88281C76.7695 4.10938 76.9727 3.40234 77.3789 2.76172C77.793 2.12109 78.3555 1.61719 79.0664 1.25C79.7852 0.882813 80.5781 0.699219 81.4453 0.699219C81.9922 0.699219 82.6016 0.789063 83.2734 0.96875L83.9766 1.15625C84.5 1.29688 85.0586 1.36719 85.6523 1.36719H85.7695ZM84.8789 16.0156C86.168 15.0859 86.8125 13.9688 86.8125 12.6641C86.8125 12.1484 86.7031 11.6484 86.4844 11.1641C86.2734 10.6719 85.9688 10.2539 85.5703 9.91016C84.9922 9.38672 83.9727 8.82031 82.5117 8.21094C81.3008 7.69531 80.5117 7.34766 80.1445 7.16797C79.7852 6.98828 79.418 6.74609 79.043 6.44141C78.2617 5.81641 77.8711 5.02734 77.8711 4.07422C77.8711 3.79297 77.9023 3.53906 77.9648 3.3125C78.0273 3.07812 78.1211 2.85547 78.2461 2.64453C78.3711 2.42578 78.5781 2.13672 78.8672 1.77734C77.75 2.58203 77.1914 3.58594 77.1914 4.78906C77.1914 5.94531 77.6445 6.85938 78.5508 7.53125C79.0273 7.89062 79.5742 8.21094 80.1914 8.49219C80.2695 8.53125 80.8711 8.79688 81.9961 9.28906C83.3555 9.875 84.293 10.4062 84.8086 10.8828C85.6289 11.6406 86.0391 12.5352 86.0391 13.5664C86.0391 14.0664 85.9453 14.5117 85.7578 14.9023C85.5781 15.2852 85.2852 15.6562 84.8789 16.0156ZM77.0625 15.5586C77.5781 15.8555 78.2344 16.1406 79.0312 16.4141C78.5078 15.9453 78.1094 15.5586 77.8359 15.2539C77.5703 14.9492 77.2656 14.5195 76.9219 13.9648L77.0625 15.5586ZM88.9336 17V16.6367C89.7773 16.4961 90.3906 16.1719 90.7734 15.6641C91.0703 15.2891 91.2188 14.543 91.2188 13.4258V4.57812C91.2188 3.86719 91.1797 3.35156 91.1016 3.03125C91.0234 2.71094 90.8789 2.4375 90.668 2.21094C90.2773 1.77344 89.6992 1.49219 88.9336 1.36719V1.00391H96.2344V1.36719C95.3906 1.50781 94.7734 1.83203 94.3828 2.33984C94.2266 2.54297 94.1133 2.81641 94.043 3.16016C93.9727 3.49609 93.9375 3.96875 93.9375 4.57812V13.4258C93.9375 14.0898 93.9766 14.5938 94.0547 14.9375C94.1406 15.2734 94.2891 15.5586 94.5 15.793C94.8906 16.2305 95.4688 16.5117 96.2344 16.6367V17H88.9336ZM90.5742 16.4023H93.9961L93.5391 16.0625C93.2734 15.8672 93.1016 15.7109 93.0234 15.5938C92.9531 15.4766 92.918 15.3008 92.918 15.0664C92.918 14.9414 92.9141 14.8594 92.9062 14.8203C92.9062 14.7734 92.9062 14.7266 92.9062 14.6797V14.4805V3.52344V3.32422C92.9062 3.27734 92.9062 3.23047 92.9062 3.18359C92.9141 3.13672 92.918 3.05469 92.918 2.9375C92.918 2.70312 92.9531 2.52734 93.0234 2.41016C93.1016 2.29297 93.2734 2.13672 93.5391 1.94141L94.207 1.44922H90.3633L91.0312 1.94141C91.3047 2.13672 91.4766 2.28906 91.5469 2.39844C91.6172 2.50781 91.6523 2.6875 91.6523 2.9375C91.6602 3.07031 91.6641 3.19922 91.6641 3.32422V3.52344V14.4805V14.6797C91.6641 14.8047 91.6602 14.9336 91.6523 15.0664C91.6523 15.3086 91.6172 15.4883 91.5469 15.6055C91.4766 15.7148 91.3047 15.8672 91.0312 16.0625L90.5742 16.4023ZM111.727 1.20312L113.074 5.43359H112.723C111.926 3.92578 111.074 2.83594 110.168 2.16406C109.262 1.49219 108.184 1.15625 106.934 1.15625C106.02 1.15625 105.148 1.34766 104.32 1.73047C103.5 2.11328 102.777 2.66797 102.152 3.39453C101.004 4.71484 100.43 6.38672 100.43 8.41016C100.43 9.95703 100.727 11.3555 101.32 12.6055C101.914 13.8555 102.734 14.8359 103.781 15.5469C104.828 16.2578 105.988 16.6133 107.262 16.6133C108.051 16.6133 108.754 16.4844 109.371 16.2266C109.988 15.9609 110.426 15.6055 110.684 15.1602C110.926 14.7461 111.047 14.0742 111.047 13.1445V12.7461C111.047 12.0586 110.996 11.543 110.895 11.1992C110.801 10.8555 110.629 10.5625 110.379 10.3203C109.902 9.875 109.203 9.61328 108.281 9.53516V9.17188H115.5V9.53516C114.875 9.67578 114.406 10 114.094 10.5078C113.875 10.8984 113.766 11.6445 113.766 12.7461V14.8789L114.48 15.957C114.371 15.9492 114.246 15.9453 114.105 15.9453C113.504 15.9453 112.926 15.9961 112.371 16.0977C111.816 16.1992 111.098 16.3906 110.215 16.6719C109.371 16.9453 108.648 17.1289 108.047 17.2227C107.453 17.3242 106.82 17.375 106.148 17.375C103.602 17.375 101.605 16.6641 100.16 15.2422C99.3711 14.4531 98.7539 13.5273 98.3086 12.4648C97.8711 11.3945 97.6523 10.3008 97.6523 9.18359C97.6523 8.02734 97.8789 6.92969 98.332 5.89062C98.7852 4.85156 99.4141 3.94141 100.219 3.16016C101.023 2.37891 101.961 1.76953 103.031 1.33203C104.102 0.886719 105.234 0.664062 106.43 0.664062C107.109 0.664062 107.926 0.738281 108.879 0.886719C109.02 0.902344 109.184 0.929688 109.371 0.96875C109.566 1 109.934 1.0625 110.473 1.15625C110.754 1.21094 110.984 1.23828 111.164 1.23828C111.195 1.23828 111.25 1.23438 111.328 1.22656C111.406 1.21875 111.492 1.21484 111.586 1.21484C111.641 1.21484 111.688 1.21094 111.727 1.20312ZM110.168 9.59375L110.859 10.1094C111.125 10.3047 111.293 10.4609 111.363 10.5781C111.441 10.6953 111.48 10.8711 111.48 11.1055C111.48 11.1836 111.48 11.2539 111.48 11.3164C111.488 11.3789 111.492 11.4375 111.492 11.4922V11.6914V13.4727C111.492 14.1055 111.422 14.5938 111.281 14.9375C111.148 15.2812 110.887 15.6484 110.496 16.0391C111.238 15.7344 111.984 15.5352 112.734 15.4414V11.6914V11.4922C112.734 11.3672 112.738 11.2383 112.746 11.1055C112.746 10.8711 112.785 10.6914 112.863 10.5664C112.949 10.4336 113.117 10.2812 113.367 10.1094L114.059 9.59375H110.168ZM105.07 16.9531C104.195 16.6484 103.484 16.3281 102.938 15.9922C102.391 15.6562 101.871 15.2188 101.379 14.6797C100.715 13.9219 100.203 13.0508 99.8438 12.0664C99.4922 11.082 99.3164 10.0469 99.3164 8.96094C99.3164 8.03125 99.4453 7.12109 99.7031 6.23047C99.9609 5.33984 100.336 4.55469 100.828 3.875C101.352 3.125 102.176 2.35156 103.301 1.55469C102.184 2.09375 101.234 2.74609 100.453 3.51172C99.6797 4.27734 99.0938 5.14062 98.6953 6.10156C98.3047 7.0625 98.1094 8.09375 98.1094 9.19531C98.1094 10.5547 98.3984 11.8008 98.9766 12.9336C99.5625 14.0664 100.387 14.9844 101.449 15.6875C102.512 16.3906 103.719 16.8125 105.07 16.9531ZM116.191 17V16.6367C117.035 16.4961 117.648 16.1719 118.031 15.6641C118.328 15.2891 118.477 14.543 118.477 13.4258V4.57812C118.477 3.86719 118.438 3.35156 118.359 3.03125C118.281 2.71094 118.137 2.4375 117.926 2.21094C117.535 1.77344 116.957 1.49219 116.191 1.36719V1.00391H123.492V1.36719C122.648 1.50781 122.031 1.83203 121.641 2.33984C121.484 2.54297 121.371 2.81641 121.301 3.16016C121.23 3.49609 121.195 3.96875 121.195 4.57812V8.49219H129.434V4.57812C129.434 3.86719 129.395 3.35156 129.316 3.03125C129.238 2.71094 129.094 2.4375 128.883 2.21094C128.492 1.77344 127.914 1.49219 127.148 1.36719V1.00391H134.449V1.36719C133.605 1.50781 132.988 1.83203 132.598 2.33984C132.441 2.54297 132.328 2.81641 132.258 3.16016C132.188 3.49609 132.152 3.96875 132.152 4.57812V13.4258C132.152 14.0898 132.191 14.5938 132.27 14.9375C132.355 15.2734 132.504 15.5586 132.715 15.793C133.105 16.2305 133.684 16.5117 134.449 16.6367V17H127.148V16.6367C127.992 16.4961 128.605 16.1719 128.988 15.6641C129.285 15.2891 129.434 14.543 129.434 13.4258V9.03125H121.195V13.4258C121.195 14.0898 121.234 14.5938 121.312 14.9375C121.398 15.2734 121.547 15.5586 121.758 15.793C122.148 16.2305 122.727 16.5117 123.492 16.6367V17H116.191ZM117.832 16.4023H121.254L120.797 16.0625C120.531 15.8672 120.359 15.7109 120.281 15.5938C120.211 15.4766 120.176 15.3008 120.176 15.0664C120.176 14.9414 120.172 14.8594 120.164 14.8203C120.164 14.7734 120.164 14.7266 120.164 14.6797V14.4805V3.52344V3.32422C120.164 3.27734 120.164 3.23047 120.164 3.18359C120.172 3.13672 120.176 3.05469 120.176 2.9375C120.176 2.70312 120.211 2.52734 120.281 2.41016C120.359 2.29297 120.531 2.13672 120.797 1.94141L121.465 1.44922H117.621L118.289 1.94141C118.555 2.13672 118.723 2.29297 118.793 2.41016C118.871 2.52734 118.91 2.70312 118.91 2.9375C118.918 3.07031 118.922 3.19922 118.922 3.32422V3.52344V14.4805V14.6797C118.922 14.8047 118.918 14.9336 118.91 15.0664C118.91 15.3086 118.875 15.4883 118.805 15.6055C118.734 15.7148 118.562 15.8672 118.289 16.0625L117.832 16.4023ZM128.789 16.4023H132.211L131.754 16.0625C131.488 15.8672 131.316 15.7109 131.238 15.5938C131.168 15.4766 131.133 15.3008 131.133 15.0664C131.133 14.8398 131.129 14.7109 131.121 14.6797V14.4805V3.52344V3.32422C131.129 3.28516 131.133 3.15625 131.133 2.9375C131.133 2.70312 131.168 2.52734 131.238 2.41016C131.316 2.29297 131.488 2.13672 131.754 1.94141L132.422 1.44922H128.578L129.246 1.94141C129.512 2.13672 129.68 2.29297 129.75 2.41016C129.828 2.52734 129.867 2.70312 129.867 2.9375C129.875 3.07031 129.879 3.19922 129.879 3.32422V3.52344V14.4805V14.6797C129.879 14.8047 129.875 14.9336 129.867 15.0664C129.867 15.3086 129.832 15.4883 129.762 15.6055C129.691 15.7148 129.52 15.8672 129.246 16.0625L128.789 16.4023ZM150.914 1.00391L151.277 5.36328H150.902C150.668 4.55859 150.348 3.86328 149.941 3.27734C149.543 2.69141 149.074 2.24219 148.535 1.92969C148.004 1.60938 147.445 1.44922 146.859 1.44922C146.398 1.44922 145.996 1.54687 145.652 1.74219C145.316 1.92969 145.066 2.19141 144.902 2.52734C144.746 2.84766 144.668 3.36328 144.668 4.07422V13.4258C144.668 14.1211 144.715 14.6328 144.809 14.9609C144.902 15.2812 145.082 15.5625 145.348 15.8047C145.824 16.2344 146.52 16.5117 147.434 16.6367V17H139.172V16.6367C140.188 16.4961 140.93 16.1758 141.398 15.6758C141.609 15.4492 141.754 15.1719 141.832 14.8438C141.91 14.5156 141.949 14.043 141.949 13.4258V4.07422C141.949 3.30078 141.844 2.73828 141.633 2.38672C141.469 2.09766 141.223 1.87109 140.895 1.70703C140.566 1.53516 140.188 1.44922 139.758 1.44922C138.875 1.44922 138.066 1.80078 137.332 2.50391C136.605 3.19922 136.062 4.15234 135.703 5.36328H135.34L135.703 1.00391H150.914ZM150.023 1.4375H148.324C148.738 1.60938 149.086 1.80859 149.367 2.03516C149.648 2.25391 149.941 2.57422 150.246 2.99609L150.023 1.4375ZM141.293 16.4023H144.727L144.27 16.0625C143.988 15.8516 143.812 15.6914 143.742 15.582C143.672 15.4727 143.637 15.3008 143.637 15.0664V14.6797C143.637 14.6172 143.633 14.5742 143.625 14.5508C143.625 14.5273 143.625 14.5039 143.625 14.4805V3.52344C143.625 3.5 143.625 3.47656 143.625 3.45312C143.633 3.42969 143.637 3.38672 143.637 3.32422V2.9375C143.637 2.70312 143.68 2.52344 143.766 2.39844C143.852 2.26563 144.02 2.11328 144.27 1.94141L144.938 1.44922H141.328L141.879 1.94141C142.074 2.11328 142.207 2.27344 142.277 2.42188C142.348 2.5625 142.383 2.73438 142.383 2.9375V3.32422C142.391 3.39453 142.395 3.46094 142.395 3.52344V14.4805C142.395 14.543 142.391 14.6094 142.383 14.6797V15.0664C142.383 15.3008 142.344 15.4766 142.266 15.5938C142.195 15.7109 142.027 15.8672 141.762 16.0625L141.293 16.4023ZM136.09 1.4375L135.926 3.16016C136.262 2.66797 136.547 2.30859 136.781 2.08203C137.016 1.85547 137.32 1.64062 137.695 1.4375H136.09ZM161.566 1.36719L162.246 5.26953H161.848C161.637 4.56641 161.43 4.01172 161.227 3.60547C161.023 3.19922 160.797 2.85937 160.547 2.58594C160.148 2.14062 159.668 1.79297 159.105 1.54297C158.551 1.29297 157.969 1.16797 157.359 1.16797C156.5 1.16797 155.797 1.40234 155.25 1.87109C154.703 2.33203 154.43 2.92969 154.43 3.66406C154.43 4.46875 154.785 5.13672 155.496 5.66797C155.863 5.93359 156.254 6.17188 156.668 6.38281C157.09 6.58594 157.746 6.875 158.637 7.25C159.246 7.49219 159.762 7.71094 160.184 7.90625C160.605 8.10156 160.945 8.27734 161.203 8.43359C161.461 8.58984 161.719 8.76953 161.977 8.97266C163.062 9.84766 163.605 10.9922 163.605 12.4062C163.605 13.3359 163.352 14.1758 162.844 14.9258C162.336 15.6758 161.633 16.2656 160.734 16.6953C159.836 17.1172 158.84 17.3281 157.746 17.3281C156.988 17.3281 156.113 17.2148 155.121 16.9883C154.535 16.8477 153.766 16.5977 152.812 16.2383L152.484 16.1211L152.133 11.6797H152.484C152.828 12.875 153.383 13.9414 154.148 14.8789C155.156 16.1055 156.355 16.7188 157.746 16.7188C158.457 16.7188 159.086 16.5859 159.633 16.3203C160.188 16.0469 160.621 15.6758 160.934 15.207C161.246 14.7305 161.402 14.1875 161.402 13.5781C161.402 13.0391 161.281 12.5547 161.039 12.125C160.797 11.6875 160.402 11.2773 159.855 10.8945C159.309 10.5039 158.559 10.1055 157.605 9.69922C156.223 9.09766 155.383 8.71484 155.086 8.55078C154.516 8.23047 154.043 7.88281 153.668 7.50781C153.293 7.13281 153.016 6.72656 152.836 6.28906C152.656 5.85156 152.566 5.38281 152.566 4.88281C152.566 4.10938 152.77 3.40234 153.176 2.76172C153.59 2.12109 154.152 1.61719 154.863 1.25C155.582 0.882813 156.375 0.699219 157.242 0.699219C157.789 0.699219 158.398 0.789063 159.07 0.96875L159.773 1.15625C160.297 1.29688 160.855 1.36719 161.449 1.36719H161.566ZM160.676 16.0156C161.965 15.0859 162.609 13.9688 162.609 12.6641C162.609 12.1484 162.5 11.6484 162.281 11.1641C162.07 10.6719 161.766 10.2539 161.367 9.91016C160.789 9.38672 159.77 8.82031 158.309 8.21094C157.098 7.69531 156.309 7.34766 155.941 7.16797C155.582 6.98828 155.215 6.74609 154.84 6.44141C154.059 5.81641 153.668 5.02734 153.668 4.07422C153.668 3.79297 153.699 3.53906 153.762 3.3125C153.824 3.07812 153.918 2.85547 154.043 2.64453C154.168 2.42578 154.375 2.13672 154.664 1.77734C153.547 2.58203 152.988 3.58594 152.988 4.78906C152.988 5.94531 153.441 6.85938 154.348 7.53125C154.824 7.89062 155.371 8.21094 155.988 8.49219C156.066 8.53125 156.668 8.79688 157.793 9.28906C159.152 9.875 160.09 10.4062 160.605 10.8828C161.426 11.6406 161.836 12.5352 161.836 13.5664C161.836 14.0664 161.742 14.5117 161.555 14.9023C161.375 15.2852 161.082 15.6562 160.676 16.0156ZM152.859 15.5586C153.375 15.8555 154.031 16.1406 154.828 16.4141C154.305 15.9453 153.906 15.5586 153.633 15.2539C153.367 14.9492 153.062 14.5195 152.719 13.9648L152.859 15.5586ZM172.676 17L172.711 16.6367C173.555 16.4961 174.168 16.1719 174.551 15.6641C174.848 15.2891 174.996 14.543 174.996 13.4258V4.57812C174.996 3.90625 174.957 3.40625 174.879 3.07812C174.809 2.74219 174.664 2.45313 174.445 2.21094C174.055 1.77344 173.477 1.49219 172.711 1.36719V1.00391C173.008 1.01953 173.16 1.02734 173.168 1.02734L174.539 1.09766C174.984 1.12109 175.461 1.13281 175.969 1.13281C176.883 1.13281 177.875 1.08594 178.945 0.992188C179.938 0.914062 180.672 0.875 181.148 0.875C182.398 0.875 183.531 1.07031 184.547 1.46094C185.562 1.84375 186.441 2.39453 187.184 3.11328C187.934 3.83203 188.512 4.6875 188.918 5.67969C189.324 6.67188 189.527 7.76172 189.527 8.94922C189.527 10.1445 189.316 11.25 188.895 12.2656C188.48 13.2734 187.883 14.1367 187.102 14.8555C186.328 15.5664 185.402 16.1133 184.324 16.4961C183.254 16.8789 182.059 17.0703 180.738 17.0703C180.254 17.0703 179.48 17.0234 178.418 16.9297C177.668 16.8594 176.938 16.8242 176.227 16.8242C175.727 16.8242 175.172 16.8398 174.562 16.8711L172.969 16.9883C172.883 16.9883 172.785 16.9922 172.676 17ZM177.738 3.875L177.715 12.9336C177.715 13.9414 177.805 14.6719 177.984 15.125C178.156 15.5469 178.445 15.875 178.852 16.1094C179.266 16.3359 179.762 16.4492 180.34 16.4492C181.238 16.4492 182.066 16.2656 182.824 15.8984C183.582 15.5234 184.242 14.9922 184.805 14.3047C185.375 13.6094 185.809 12.7891 186.105 11.8438C186.402 10.8984 186.551 9.88281 186.551 8.79688C186.551 7.36719 186.285 6.08594 185.754 4.95312C185.23 3.82031 184.496 2.93359 183.551 2.29297C182.613 1.64453 181.566 1.32031 180.41 1.32031C179.496 1.32031 178.82 1.52734 178.383 1.94141C177.953 2.34766 177.738 2.99219 177.738 3.875ZM174.352 16.4023C175.031 16.332 175.645 16.2969 176.191 16.2969C176.738 16.2969 177.266 16.3242 177.773 16.3789L177.316 16.0625C177.082 15.9062 176.918 15.7578 176.824 15.6172C176.738 15.4766 176.695 15.293 176.695 15.0664C176.688 14.9336 176.684 14.8047 176.684 14.6797V14.4805V3.52344V3.32422C176.684 3.19922 176.688 3.07031 176.695 2.9375C176.695 2.70312 176.73 2.52734 176.801 2.41016C176.879 2.29297 177.051 2.13672 177.316 1.94141L177.938 1.48438C177.25 1.54687 176.656 1.57812 176.156 1.57812C175.688 1.57812 175.102 1.55078 174.398 1.49609L174.188 1.48438L174.809 1.94141C175.059 2.11328 175.223 2.26563 175.301 2.39844C175.387 2.52344 175.43 2.70312 175.43 2.9375C175.43 3.01562 175.43 3.08594 175.43 3.14844C175.438 3.21094 175.441 3.26953 175.441 3.32422V3.52344V14.4805V14.6797C175.441 14.7266 175.438 14.7812 175.43 14.8438C175.43 14.9062 175.43 14.9805 175.43 15.0664C175.43 15.3086 175.395 15.4883 175.324 15.6055C175.254 15.7148 175.082 15.8672 174.809 16.0625L174.352 16.4023ZM182.238 16.4609C183.137 16.25 183.91 15.957 184.559 15.582C185.207 15.207 185.816 14.707 186.387 14.082C187.676 12.6289 188.32 10.9062 188.32 8.91406C188.32 7.71875 188.094 6.60938 187.641 5.58594C187.188 4.5625 186.535 3.69531 185.684 2.98438C184.84 2.26563 183.863 1.75391 182.754 1.44922C183.176 1.65234 183.57 1.88281 183.938 2.14062C184.312 2.39062 184.641 2.66797 184.922 2.97266C185.211 3.27734 185.461 3.58984 185.672 3.91016C186.57 5.27734 187.02 6.90234 187.02 8.78516C187.02 9.78516 186.895 10.7422 186.645 11.6562C186.395 12.5703 186.035 13.3672 185.566 14.0469C185.168 14.6328 184.707 15.1133 184.184 15.4883C183.668 15.8555 183.02 16.1797 182.238 16.4609ZM204.293 1.00391L204.738 5.36328H204.363C203.957 4.01953 203.352 3.03125 202.547 2.39844C201.75 1.75781 200.711 1.4375 199.43 1.4375H198.773C197.75 1.4375 197.023 1.63672 196.594 2.03516C196.172 2.42578 195.961 3.08203 195.961 4.00391V7.98828H197.52C198.699 7.98828 199.559 7.80469 200.098 7.4375C200.637 7.0625 201.008 6.39062 201.211 5.42188H201.562V11.3516H201.211C201.055 10.5703 200.844 9.97656 200.578 9.57031C200.32 9.15625 199.953 8.86719 199.477 8.70312C199.008 8.53125 198.367 8.44531 197.555 8.44531H195.961V13.5195C195.961 14.293 196.031 14.8867 196.172 15.3008C196.32 15.707 196.574 15.9922 196.934 16.1562C197.301 16.3203 197.812 16.4023 198.469 16.4023H199.547C200.609 16.4023 201.617 16.0742 202.57 15.418C203.625 14.6836 204.66 13.6602 205.676 12.3477L205.77 12.2188H206.18L204.797 17H190.957V16.6367C191.801 16.4961 192.414 16.1719 192.797 15.6641C193.094 15.2891 193.242 14.543 193.242 13.4258V4.57812C193.242 3.86719 193.203 3.35156 193.125 3.03125C193.047 2.71094 192.902 2.4375 192.691 2.21094C192.301 1.77344 191.723 1.49219 190.957 1.36719V1.00391H204.293ZM203.414 1.4375H201.727C202.164 1.61719 202.516 1.8125 202.781 2.02344C203.047 2.23438 203.344 2.55859 203.672 2.99609L203.414 1.4375ZM200.719 7.48438C200.5 7.6875 200.328 7.82812 200.203 7.90625C200.086 7.97656 199.836 8.08594 199.453 8.23438C199.891 8.35938 200.312 8.61328 200.719 8.99609V7.48438ZM203.965 16.4023L204.621 14.2227C204.34 14.5352 204.059 14.8203 203.777 15.0781C203.504 15.3281 203.191 15.5664 202.84 15.793C202.496 16.0195 202.145 16.2227 201.785 16.4023H203.965ZM192.598 16.4023H196.02L195.562 16.0625C195.297 15.8672 195.125 15.7109 195.047 15.5938C194.977 15.4766 194.941 15.3008 194.941 15.0664C194.941 14.9414 194.938 14.8594 194.93 14.8203C194.93 14.7734 194.93 14.7266 194.93 14.6797V14.4805V3.52344V3.32422C194.93 3.27734 194.93 3.23047 194.93 3.18359C194.938 3.13672 194.941 3.05469 194.941 2.9375C194.941 2.70312 194.98 2.52344 195.059 2.39844C195.145 2.26563 195.312 2.11328 195.562 1.94141L196.23 1.44922H192.387L193.055 1.94141C193.32 2.13672 193.488 2.29297 193.559 2.41016C193.637 2.52734 193.676 2.70312 193.676 2.9375C193.684 3.07031 193.688 3.19922 193.688 3.32422V3.52344V14.4805V14.6797C193.688 14.8047 193.684 14.9336 193.676 15.0664C193.676 15.3086 193.641 15.4883 193.57 15.6055C193.5 15.7148 193.328 15.8672 193.055 16.0625L192.598 16.4023ZM211.805 8.60938V13.4258C211.805 14.0977 211.844 14.5977 211.922 14.9258C212.008 15.2539 212.168 15.5469 212.402 15.8047C212.816 16.2344 213.434 16.5117 214.254 16.6367V17H206.801V16.6367C207.645 16.4961 208.258 16.1719 208.641 15.6641C208.938 15.2891 209.086 14.543 209.086 13.4258V4.57812C209.086 3.86719 209.047 3.35156 208.969 3.03125C208.891 2.71094 208.746 2.4375 208.535 2.21094C208.16 1.79688 207.582 1.51563 206.801 1.36719V1.00391C206.91 1.01172 207.008 1.01562 207.094 1.01562L208.125 1.07422C208.539 1.09766 209.02 1.10938 209.566 1.10938C210.434 1.10938 211.219 1.07422 211.922 1.00391L213.562 0.863281C214.078 0.816406 214.586 0.792969 215.086 0.792969C216.008 0.792969 216.832 0.886719 217.559 1.07422C218.285 1.26172 218.898 1.53125 219.398 1.88281C219.898 2.23438 220.285 2.66797 220.559 3.18359C220.832 3.69141 220.969 4.26172 220.969 4.89453C220.969 5.94922 220.605 6.77344 219.879 7.36719C219.16 7.95312 218.094 8.29688 216.68 8.39844C217.555 8.74219 218.293 9.21484 218.895 9.81641C219.504 10.4102 220.227 11.3828 221.062 12.7344C222.008 14.25 222.754 15.3047 223.301 15.8984C223.848 16.4922 224.453 16.9141 225.117 17.1641V17.4922C224.266 17.4766 223.539 17.3984 222.938 17.2578C222.344 17.1172 221.75 16.8672 221.156 16.5078C220.414 16.0469 219.715 15.4258 219.059 14.6445C218.402 13.8633 217.828 12.9688 217.336 11.9609L216.715 10.6602C216.418 10.0508 216.156 9.60938 215.93 9.33594C215.703 9.05469 215.434 8.86328 215.121 8.76172C214.809 8.66016 214.383 8.60938 213.844 8.60938H211.805ZM211.805 8.14062H213.902C215.113 8.14062 215.984 8.00391 216.516 7.73047C216.992 7.48828 217.363 7.11328 217.629 6.60547C217.902 6.08984 218.039 5.5 218.039 4.83594C218.039 4.14844 217.879 3.53125 217.559 2.98438C217.246 2.4375 216.805 2.01562 216.234 1.71875C215.672 1.41406 215.027 1.26172 214.301 1.26172C213.223 1.26172 212.496 1.59766 212.121 2.26953C211.91 2.65234 211.805 3.25391 211.805 4.07422V8.14062ZM216.375 8.1875C216.898 8.07031 217.375 7.90234 217.805 7.68359C218.242 7.46484 218.602 7.21484 218.883 6.93359C219.164 6.65234 219.379 6.33203 219.527 5.97266C219.684 5.61328 219.762 5.23828 219.762 4.84766C219.762 3.99609 219.457 3.25391 218.848 2.62109C218.238 1.98828 217.434 1.58203 216.434 1.40234C216.879 1.64453 217.254 1.93359 217.559 2.26953C217.863 2.60547 218.094 2.98828 218.25 3.41797C218.406 3.83984 218.484 4.29688 218.484 4.78906C218.484 5.64062 218.316 6.33984 217.98 6.88672C217.645 7.42578 217.109 7.85938 216.375 8.1875ZM223.77 17.0117C223.355 16.7852 223.02 16.5781 222.762 16.3906C222.504 16.2031 222.203 15.9414 221.859 15.6055C221.453 15.168 221.133 14.7891 220.898 14.4688C220.672 14.1484 220.293 13.5508 219.762 12.6758C219.262 11.8398 218.809 11.1641 218.402 10.6484C218.004 10.1328 217.602 9.71875 217.195 9.40625C216.789 9.09375 216.34 8.83594 215.848 8.63281C216.16 8.95312 216.418 9.26953 216.621 9.58203C216.73 9.75391 216.926 10.1172 217.207 10.6719C217.293 10.8359 217.375 10.9961 217.453 11.1523C217.539 11.3086 217.621 11.4727 217.699 11.6445C218.535 13.2773 219.434 14.5195 220.395 15.3711C221.355 16.2148 222.48 16.7617 223.77 17.0117ZM208.441 16.4023H211.863L211.406 16.0625C211.141 15.8672 210.969 15.7109 210.891 15.5938C210.82 15.4766 210.785 15.3008 210.785 15.0664C210.785 14.9414 210.781 14.8594 210.773 14.8203C210.773 14.7734 210.773 14.7266 210.773 14.6797V14.4805V3.52344V3.32422C210.773 3.27734 210.773 3.23047 210.773 3.18359C210.781 3.13672 210.785 3.05469 210.785 2.9375C210.785 2.71875 210.816 2.55078 210.879 2.43359C210.949 2.31641 211.098 2.17188 211.324 2L211.406 1.94141L212.062 1.4375L211.641 1.46094C210.93 1.50781 210.289 1.53125 209.719 1.53125C209.367 1.53125 208.887 1.51953 208.277 1.49609L208.898 1.94141C209.156 2.11328 209.324 2.26563 209.402 2.39844C209.48 2.52344 209.52 2.70312 209.52 2.9375C209.527 3.07031 209.531 3.19922 209.531 3.32422V3.52344V14.4805V14.6797C209.531 14.8047 209.527 14.9336 209.52 15.0664C209.52 15.3086 209.484 15.4883 209.414 15.6055C209.344 15.7148 209.172 15.8672 208.898 16.0625L208.441 16.4023ZM225.668 17V16.6367C226.512 16.4961 227.125 16.1719 227.508 15.6641C227.805 15.2891 227.953 14.543 227.953 13.4258V4.57812C227.953 3.86719 227.914 3.35156 227.836 3.03125C227.758 2.71094 227.613 2.4375 227.402 2.21094C227.012 1.77344 226.434 1.49219 225.668 1.36719V1.00391H232.969V1.36719C232.125 1.50781 231.508 1.83203 231.117 2.33984C230.961 2.54297 230.848 2.81641 230.777 3.16016C230.707 3.49609 230.672 3.96875 230.672 4.57812V13.4258C230.672 14.0898 230.711 14.5938 230.789 14.9375C230.875 15.2734 231.023 15.5586 231.234 15.793C231.625 16.2305 232.203 16.5117 232.969 16.6367V17H225.668ZM227.309 16.4023H230.73L230.273 16.0625C230.008 15.8672 229.836 15.7109 229.758 15.5938C229.688 15.4766 229.652 15.3008 229.652 15.0664C229.652 14.9414 229.648 14.8594 229.641 14.8203C229.641 14.7734 229.641 14.7266 229.641 14.6797V14.4805V3.52344V3.32422C229.641 3.27734 229.641 3.23047 229.641 3.18359C229.648 3.13672 229.652 3.05469 229.652 2.9375C229.652 2.70312 229.688 2.52734 229.758 2.41016C229.836 2.29297 230.008 2.13672 230.273 1.94141L230.941 1.44922H227.098L227.766 1.94141C228.039 2.13672 228.211 2.28906 228.281 2.39844C228.352 2.50781 228.387 2.6875 228.387 2.9375C228.395 3.07031 228.398 3.19922 228.398 3.32422V3.52344V14.4805V14.6797C228.398 14.8047 228.395 14.9336 228.387 15.0664C228.387 15.3086 228.352 15.4883 228.281 15.6055C228.211 15.7148 228.039 15.8672 227.766 16.0625L227.309 16.4023ZM243.785 13.8711L247.453 5.42188C247.766 4.69531 247.922 4.08984 247.922 3.60547C247.922 3.00391 247.711 2.52344 247.289 2.16406C246.875 1.79688 246.242 1.53125 245.391 1.36719V1.00391H251.473V1.35547C250.965 1.53516 250.516 1.78906 250.125 2.11719C249.734 2.4375 249.367 2.86719 249.023 3.40625C248.688 3.9375 248.312 4.66406 247.898 5.58594L242.695 17.3867H242.438L236.766 4.63672C236.25 3.44922 235.805 2.64844 235.43 2.23438C235.055 1.8125 234.523 1.52344 233.836 1.36719V1.00391H241.453V1.36719L241.195 1.37891C240.445 1.44141 239.918 1.57422 239.613 1.77734C239.309 1.98047 239.156 2.30469 239.156 2.75C239.156 3.09375 239.258 3.49609 239.461 3.95703L243.785 13.8711ZM243.211 15.1836L238.406 4.12109C238.18 3.60547 238.066 3.15625 238.066 2.77344C238.066 2.53906 238.117 2.32812 238.219 2.14062C238.32 1.94531 238.516 1.72266 238.805 1.47266H235.219C235.703 1.85547 236.105 2.33203 236.426 2.90234C236.605 3.23047 236.758 3.51953 236.883 3.76953C237.008 4.01953 237.121 4.26562 237.223 4.50781L242.566 16.6484L243.211 15.1836ZM246.926 1.44922C247.395 1.73828 247.727 2.01953 247.922 2.29297C248.125 2.56641 248.242 2.91016 248.273 3.32422C248.484 2.88672 248.699 2.53125 248.918 2.25781C249.137 1.98438 249.426 1.71484 249.785 1.44922H246.926ZM265.676 1.00391L266.121 5.36328H265.746C265.34 4.01953 264.734 3.03125 263.93 2.39844C263.133 1.75781 262.094 1.4375 260.812 1.4375H260.156C259.133 1.4375 258.406 1.63672 257.977 2.03516C257.555 2.42578 257.344 3.08203 257.344 4.00391V7.98828H258.902C260.082 7.98828 260.941 7.80469 261.48 7.4375C262.02 7.0625 262.391 6.39062 262.594 5.42188H262.945V11.3516H262.594C262.438 10.5703 262.227 9.97656 261.961 9.57031C261.703 9.15625 261.336 8.86719 260.859 8.70312C260.391 8.53125 259.75 8.44531 258.938 8.44531H257.344V13.5195C257.344 14.293 257.414 14.8867 257.555 15.3008C257.703 15.707 257.957 15.9922 258.316 16.1562C258.684 16.3203 259.195 16.4023 259.852 16.4023H260.93C261.992 16.4023 263 16.0742 263.953 15.418C265.008 14.6836 266.043 13.6602 267.059 12.3477L267.152 12.2188H267.562L266.18 17H252.34V16.6367C253.184 16.4961 253.797 16.1719 254.18 15.6641C254.477 15.2891 254.625 14.543 254.625 13.4258V4.57812C254.625 3.86719 254.586 3.35156 254.508 3.03125C254.43 2.71094 254.285 2.4375 254.074 2.21094C253.684 1.77344 253.105 1.49219 252.34 1.36719V1.00391H265.676ZM264.797 1.4375H263.109C263.547 1.61719 263.898 1.8125 264.164 2.02344C264.43 2.23438 264.727 2.55859 265.055 2.99609L264.797 1.4375ZM262.102 7.48438C261.883 7.6875 261.711 7.82812 261.586 7.90625C261.469 7.97656 261.219 8.08594 260.836 8.23438C261.273 8.35938 261.695 8.61328 262.102 8.99609V7.48438ZM265.348 16.4023L266.004 14.2227C265.723 14.5352 265.441 14.8203 265.16 15.0781C264.887 15.3281 264.574 15.5664 264.223 15.793C263.879 16.0195 263.527 16.2227 263.168 16.4023H265.348ZM253.98 16.4023H257.402L256.945 16.0625C256.68 15.8672 256.508 15.7109 256.43 15.5938C256.359 15.4766 256.324 15.3008 256.324 15.0664C256.324 14.9414 256.32 14.8594 256.312 14.8203C256.312 14.7734 256.312 14.7266 256.312 14.6797V14.4805V3.52344V3.32422C256.312 3.27734 256.312 3.23047 256.312 3.18359C256.32 3.13672 256.324 3.05469 256.324 2.9375C256.324 2.70312 256.363 2.52344 256.441 2.39844C256.527 2.26563 256.695 2.11328 256.945 1.94141L257.613 1.44922H253.77L254.438 1.94141C254.703 2.13672 254.871 2.29297 254.941 2.41016C255.02 2.52734 255.059 2.70312 255.059 2.9375C255.066 3.07031 255.07 3.19922 255.07 3.32422V3.52344V14.4805V14.6797C255.07 14.8047 255.066 14.9336 255.059 15.0664C255.059 15.3086 255.023 15.4883 254.953 15.6055C254.883 15.7148 254.711 15.8672 254.438 16.0625L253.98 16.4023ZM268.184 17L268.219 16.6367C269.062 16.4961 269.676 16.1719 270.059 15.6641C270.355 15.2891 270.504 14.543 270.504 13.4258V4.57812C270.504 3.90625 270.465 3.40625 270.387 3.07812C270.316 2.74219 270.172 2.45313 269.953 2.21094C269.562 1.77344 268.984 1.49219 268.219 1.36719V1.00391C268.516 1.01953 268.668 1.02734 268.676 1.02734L270.047 1.09766C270.492 1.12109 270.969 1.13281 271.477 1.13281C272.391 1.13281 273.383 1.08594 274.453 0.992188C275.445 0.914062 276.18 0.875 276.656 0.875C277.906 0.875 279.039 1.07031 280.055 1.46094C281.07 1.84375 281.949 2.39453 282.691 3.11328C283.441 3.83203 284.02 4.6875 284.426 5.67969C284.832 6.67188 285.035 7.76172 285.035 8.94922C285.035 10.1445 284.824 11.25 284.402 12.2656C283.988 13.2734 283.391 14.1367 282.609 14.8555C281.836 15.5664 280.91 16.1133 279.832 16.4961C278.762 16.8789 277.566 17.0703 276.246 17.0703C275.762 17.0703 274.988 17.0234 273.926 16.9297C273.176 16.8594 272.445 16.8242 271.734 16.8242C271.234 16.8242 270.68 16.8398 270.07 16.8711L268.477 16.9883C268.391 16.9883 268.293 16.9922 268.184 17ZM273.246 3.875L273.223 12.9336C273.223 13.9414 273.312 14.6719 273.492 15.125C273.664 15.5469 273.953 15.875 274.359 16.1094C274.773 16.3359 275.27 16.4492 275.848 16.4492C276.746 16.4492 277.574 16.2656 278.332 15.8984C279.09 15.5234 279.75 14.9922 280.312 14.3047C280.883 13.6094 281.316 12.7891 281.613 11.8438C281.91 10.8984 282.059 9.88281 282.059 8.79688C282.059 7.36719 281.793 6.08594 281.262 4.95312C280.738 3.82031 280.004 2.93359 279.059 2.29297C278.121 1.64453 277.074 1.32031 275.918 1.32031C275.004 1.32031 274.328 1.52734 273.891 1.94141C273.461 2.34766 273.246 2.99219 273.246 3.875ZM269.859 16.4023C270.539 16.332 271.152 16.2969 271.699 16.2969C272.246 16.2969 272.773 16.3242 273.281 16.3789L272.824 16.0625C272.59 15.9062 272.426 15.7578 272.332 15.6172C272.246 15.4766 272.203 15.293 272.203 15.0664C272.195 14.9336 272.191 14.8047 272.191 14.6797V14.4805V3.52344V3.32422C272.191 3.19922 272.195 3.07031 272.203 2.9375C272.203 2.70312 272.238 2.52734 272.309 2.41016C272.387 2.29297 272.559 2.13672 272.824 1.94141L273.445 1.48438C272.758 1.54687 272.164 1.57812 271.664 1.57812C271.195 1.57812 270.609 1.55078 269.906 1.49609L269.695 1.48438L270.316 1.94141C270.566 2.11328 270.73 2.26563 270.809 2.39844C270.895 2.52344 270.938 2.70312 270.938 2.9375C270.938 3.01562 270.938 3.08594 270.938 3.14844C270.945 3.21094 270.949 3.26953 270.949 3.32422V3.52344V14.4805V14.6797C270.949 14.7266 270.945 14.7812 270.938 14.8438C270.938 14.9062 270.938 14.9805 270.938 15.0664C270.938 15.3086 270.902 15.4883 270.832 15.6055C270.762 15.7148 270.59 15.8672 270.316 16.0625L269.859 16.4023ZM277.746 16.4609C278.645 16.25 279.418 15.957 280.066 15.582C280.715 15.207 281.324 14.707 281.895 14.082C283.184 12.6289 283.828 10.9062 283.828 8.91406C283.828 7.71875 283.602 6.60938 283.148 5.58594C282.695 4.5625 282.043 3.69531 281.191 2.98438C280.348 2.26563 279.371 1.75391 278.262 1.44922C278.684 1.65234 279.078 1.88281 279.445 2.14062C279.82 2.39062 280.148 2.66797 280.43 2.97266C280.719 3.27734 280.969 3.58984 281.18 3.91016C282.078 5.27734 282.527 6.90234 282.527 8.78516C282.527 9.78516 282.402 10.7422 282.152 11.6562C281.902 12.5703 281.543 13.3672 281.074 14.0469C280.676 14.6328 280.215 15.1133 279.691 15.4883C279.176 15.8555 278.527 16.1797 277.746 16.4609ZM307.406 1.00391L307.863 5.36328H307.5C307.211 4.44922 306.848 3.70703 306.41 3.13672C305.973 2.56641 305.438 2.14453 304.805 1.87109C304.172 1.58984 303.422 1.44922 302.555 1.44922H302.227C301.203 1.44922 300.477 1.64062 300.047 2.02344C299.625 2.39844 299.414 3.05859 299.414 4.00391V7.98828H300.574C301.754 7.98828 302.613 7.80469 303.152 7.4375C303.691 7.0625 304.062 6.39062 304.266 5.42188H304.617V11.668H304.266C304.109 10.7852 303.898 10.1211 303.633 9.67578C303.367 9.22266 303 8.90625 302.531 8.72656C302.07 8.53906 301.414 8.44531 300.562 8.44531H299.414V13.4258C299.414 14.1211 299.461 14.6328 299.555 14.9609C299.648 15.2812 299.828 15.5625 300.094 15.8047C300.562 16.2266 301.262 16.5039 302.191 16.6367V17H294.41V16.6367C295.254 16.4961 295.867 16.1719 296.25 15.6641C296.547 15.2891 296.695 14.543 296.695 13.4258V4.57812C296.695 3.86719 296.656 3.35156 296.578 3.03125C296.5 2.71094 296.355 2.4375 296.145 2.21094C295.754 1.77344 295.176 1.49219 294.41 1.36719V1.00391H307.406ZM306.539 1.4375H304.863C305.316 1.63281 305.676 1.83594 305.941 2.04688C306.207 2.25781 306.492 2.57422 306.797 2.99609L306.539 1.4375ZM303.738 7.48438C303.559 7.66406 303.387 7.80078 303.223 7.89453C303.066 7.98828 302.816 8.10156 302.473 8.23438C302.918 8.36719 303.34 8.62109 303.738 8.99609V7.48438ZM296.051 16.4023H299.473L299.016 16.0625C298.75 15.8672 298.578 15.7109 298.5 15.5938C298.43 15.4766 298.395 15.3008 298.395 15.0664C298.395 14.9414 298.391 14.8594 298.383 14.8203C298.383 14.7734 298.383 14.7266 298.383 14.6797V14.4805V3.52344V3.32422C298.383 3.27734 298.383 3.23047 298.383 3.18359C298.391 3.13672 298.395 3.05469 298.395 2.9375C298.395 2.70312 298.434 2.52344 298.512 2.39844C298.598 2.26563 298.766 2.11328 299.016 1.94141L299.684 1.44922H295.84L296.508 1.94141C296.781 2.13672 296.953 2.28906 297.023 2.39844C297.094 2.50781 297.129 2.6875 297.129 2.9375C297.137 3.07031 297.141 3.19922 297.141 3.32422V3.52344V14.4805V14.6797C297.141 14.8047 297.137 14.9336 297.129 15.0664C297.129 15.3086 297.094 15.4883 297.023 15.6055C296.953 15.7148 296.781 15.8672 296.508 16.0625L296.051 16.4023ZM313.664 8.60938V13.4258C313.664 14.0977 313.703 14.5977 313.781 14.9258C313.867 15.2539 314.027 15.5469 314.262 15.8047C314.676 16.2344 315.293 16.5117 316.113 16.6367V17H308.66V16.6367C309.504 16.4961 310.117 16.1719 310.5 15.6641C310.797 15.2891 310.945 14.543 310.945 13.4258V4.57812C310.945 3.86719 310.906 3.35156 310.828 3.03125C310.75 2.71094 310.605 2.4375 310.395 2.21094C310.02 1.79688 309.441 1.51563 308.66 1.36719V1.00391C308.77 1.01172 308.867 1.01562 308.953 1.01562L309.984 1.07422C310.398 1.09766 310.879 1.10938 311.426 1.10938C312.293 1.10938 313.078 1.07422 313.781 1.00391L315.422 0.863281C315.938 0.816406 316.445 0.792969 316.945 0.792969C317.867 0.792969 318.691 0.886719 319.418 1.07422C320.145 1.26172 320.758 1.53125 321.258 1.88281C321.758 2.23438 322.145 2.66797 322.418 3.18359C322.691 3.69141 322.828 4.26172 322.828 4.89453C322.828 5.94922 322.465 6.77344 321.738 7.36719C321.02 7.95312 319.953 8.29688 318.539 8.39844C319.414 8.74219 320.152 9.21484 320.754 9.81641C321.363 10.4102 322.086 11.3828 322.922 12.7344C323.867 14.25 324.613 15.3047 325.16 15.8984C325.707 16.4922 326.312 16.9141 326.977 17.1641V17.4922C326.125 17.4766 325.398 17.3984 324.797 17.2578C324.203 17.1172 323.609 16.8672 323.016 16.5078C322.273 16.0469 321.574 15.4258 320.918 14.6445C320.262 13.8633 319.688 12.9688 319.195 11.9609L318.574 10.6602C318.277 10.0508 318.016 9.60938 317.789 9.33594C317.562 9.05469 317.293 8.86328 316.98 8.76172C316.668 8.66016 316.242 8.60938 315.703 8.60938H313.664ZM313.664 8.14062H315.762C316.973 8.14062 317.844 8.00391 318.375 7.73047C318.852 7.48828 319.223 7.11328 319.488 6.60547C319.762 6.08984 319.898 5.5 319.898 4.83594C319.898 4.14844 319.738 3.53125 319.418 2.98438C319.105 2.4375 318.664 2.01562 318.094 1.71875C317.531 1.41406 316.887 1.26172 316.16 1.26172C315.082 1.26172 314.355 1.59766 313.98 2.26953C313.77 2.65234 313.664 3.25391 313.664 4.07422V8.14062ZM318.234 8.1875C318.758 8.07031 319.234 7.90234 319.664 7.68359C320.102 7.46484 320.461 7.21484 320.742 6.93359C321.023 6.65234 321.238 6.33203 321.387 5.97266C321.543 5.61328 321.621 5.23828 321.621 4.84766C321.621 3.99609 321.316 3.25391 320.707 2.62109C320.098 1.98828 319.293 1.58203 318.293 1.40234C318.738 1.64453 319.113 1.93359 319.418 2.26953C319.723 2.60547 319.953 2.98828 320.109 3.41797C320.266 3.83984 320.344 4.29688 320.344 4.78906C320.344 5.64062 320.176 6.33984 319.84 6.88672C319.504 7.42578 318.969 7.85938 318.234 8.1875ZM325.629 17.0117C325.215 16.7852 324.879 16.5781 324.621 16.3906C324.363 16.2031 324.062 15.9414 323.719 15.6055C323.312 15.168 322.992 14.7891 322.758 14.4688C322.531 14.1484 322.152 13.5508 321.621 12.6758C321.121 11.8398 320.668 11.1641 320.262 10.6484C319.863 10.1328 319.461 9.71875 319.055 9.40625C318.648 9.09375 318.199 8.83594 317.707 8.63281C318.02 8.95312 318.277 9.26953 318.48 9.58203C318.59 9.75391 318.785 10.1172 319.066 10.6719C319.152 10.8359 319.234 10.9961 319.312 11.1523C319.398 11.3086 319.48 11.4727 319.559 11.6445C320.395 13.2773 321.293 14.5195 322.254 15.3711C323.215 16.2148 324.34 16.7617 325.629 17.0117ZM310.301 16.4023H313.723L313.266 16.0625C313 15.8672 312.828 15.7109 312.75 15.5938C312.68 15.4766 312.645 15.3008 312.645 15.0664C312.645 14.9414 312.641 14.8594 312.633 14.8203C312.633 14.7734 312.633 14.7266 312.633 14.6797V14.4805V3.52344V3.32422C312.633 3.27734 312.633 3.23047 312.633 3.18359C312.641 3.13672 312.645 3.05469 312.645 2.9375C312.645 2.71875 312.676 2.55078 312.738 2.43359C312.809 2.31641 312.957 2.17188 313.184 2L313.266 1.94141L313.922 1.4375L313.5 1.46094C312.789 1.50781 312.148 1.53125 311.578 1.53125C311.227 1.53125 310.746 1.51953 310.137 1.49609L310.758 1.94141C311.016 2.11328 311.184 2.26563 311.262 2.39844C311.34 2.52344 311.379 2.70312 311.379 2.9375C311.387 3.07031 311.391 3.19922 311.391 3.32422V3.52344V14.4805V14.6797C311.391 14.8047 311.387 14.9336 311.379 15.0664C311.379 15.3086 311.344 15.4883 311.273 15.6055C311.203 15.7148 311.031 15.8672 310.758 16.0625L310.301 16.4023ZM327.656 9.01953C327.656 7.88672 327.875 6.80469 328.312 5.77344C328.75 4.74219 329.355 3.83984 330.129 3.06641C330.91 2.28516 331.809 1.68359 332.824 1.26172C333.848 0.832031 334.926 0.617188 336.059 0.617188C337.574 0.617188 338.973 0.996094 340.254 1.75391C341.543 2.50391 342.562 3.52344 343.312 4.8125C344.07 6.10156 344.449 7.50391 344.449 9.01953C344.449 10.1445 344.234 11.2188 343.805 12.2422C343.383 13.2578 342.781 14.1562 342 14.9375C341.219 15.7188 340.324 16.3281 339.316 16.7656C338.309 17.1953 337.234 17.4102 336.094 17.4102C334.555 17.4102 333.137 17.0352 331.84 16.2852C330.551 15.5352 329.531 14.5195 328.781 13.2383C328.031 11.9492 327.656 10.543 327.656 9.01953ZM330.609 8.9375C330.609 10.0859 330.738 11.1523 330.996 12.1367C331.254 13.1133 331.621 13.9492 332.098 14.6445C332.582 15.332 333.16 15.8594 333.832 16.2266C334.512 16.5938 335.262 16.7773 336.082 16.7773C337.418 16.7773 338.586 16.2461 339.586 15.1836C340.195 14.5273 340.664 13.668 340.992 12.6055C341.328 11.5352 341.496 10.3086 341.496 8.92578C341.496 7.72266 341.367 6.63672 341.109 5.66797C340.859 4.69922 340.496 3.875 340.02 3.19531C339.551 2.51562 338.98 1.99219 338.309 1.625C337.645 1.25781 336.895 1.07422 336.059 1.07422C335.23 1.07422 334.48 1.26172 333.809 1.63672C333.145 2.00391 332.574 2.53516 332.098 3.23047C331.621 3.91797 331.254 4.75391 330.996 5.73828C330.738 6.71484 330.609 7.78125 330.609 8.9375ZM332.52 16.2266C331.824 15.7109 331.246 15.1055 330.785 14.4102C330.332 13.707 329.988 12.8945 329.754 11.9727C329.527 11.0508 329.414 10.0391 329.414 8.9375C329.414 7.3125 329.66 5.92969 330.152 4.78906C330.652 3.64062 331.441 2.66016 332.52 1.84766C331.59 2.33984 330.793 2.94922 330.129 3.67578C329.473 4.40234 328.969 5.21875 328.617 6.125C328.273 7.02344 328.102 7.98438 328.102 9.00781C328.102 10.0234 328.273 10.9883 328.617 11.9023C328.969 12.8086 329.473 13.6289 330.129 14.3633C330.793 15.0977 331.59 15.7188 332.52 16.2266ZM338.953 16.2383C341.812 14.5898 343.242 12.1836 343.242 9.01953C343.242 8.00391 343.082 7.03516 342.762 6.11328C342.449 5.18359 342 4.35938 341.414 3.64062C340.836 2.91406 340.156 2.33594 339.375 1.90625C341.086 3.40625 341.941 5.74219 341.941 8.91406C341.941 9.84375 341.855 10.7344 341.684 11.5859C341.52 12.4297 341.289 13.168 340.992 13.8008C340.844 14.1211 340.684 14.4062 340.512 14.6562C340.34 14.9062 340.129 15.1602 339.879 15.418C339.629 15.668 339.32 15.9414 338.953 16.2383ZM356.613 16.2852H356.332L349.934 3.54688L349.242 11.4805C349.203 11.918 349.184 12.332 349.184 12.7227C349.184 13.8633 349.414 14.7422 349.875 15.3594C350.344 15.9766 351.098 16.4023 352.137 16.6367V17H345.738V16.6367C346.309 16.4336 346.812 16.1289 347.25 15.7227C347.688 15.3086 348.023 14.8281 348.258 14.2812C348.508 13.6797 348.691 12.7227 348.809 11.4102L349.547 2.96094C349.25 2.40625 348.91 2.00781 348.527 1.76562C348.145 1.52344 347.66 1.39062 347.074 1.36719V1.00391H352.746C352.715 1.08203 352.695 1.13281 352.688 1.15625C352.539 1.51563 352.465 1.79688 352.465 2C352.465 2.375 352.664 2.96094 353.062 3.75781L357.598 12.7578L361.348 4.00391C361.645 3.30078 361.793 2.76562 361.793 2.39844C361.793 2.02344 361.637 1.55859 361.324 1.00391H366.961V1.36719C366.18 1.47656 365.613 1.70703 365.262 2.05859C364.91 2.40234 364.734 2.91016 364.734 3.58203C364.734 3.79297 364.746 3.99219 364.77 4.17969L364.805 4.47266L365.789 13.168C365.805 13.2852 365.816 13.3867 365.824 13.4727C365.84 13.5586 365.879 13.8047 365.941 14.2109C366.059 14.9688 366.289 15.5312 366.633 15.8984C366.984 16.2656 367.523 16.5117 368.25 16.6367V17H360.797V16.6367C361.617 16.4336 362.219 16.168 362.602 15.8398C362.992 15.5039 363.188 15.082 363.188 14.5742C363.188 14.3789 363.16 14.0586 363.105 13.6133L361.957 3.60547L356.613 16.2852ZM362.449 16.4023H366.047L365.438 15.9102C365.172 15.6992 364.996 15.2422 364.91 14.5391L363.621 3.34766C363.605 3.14453 363.598 3.00391 363.598 2.92578C363.598 2.74609 363.637 2.59375 363.715 2.46875C363.793 2.33594 363.953 2.17188 364.195 1.97656L364.863 1.44922H362.145L363.621 14.375L363.668 14.6328C363.684 14.8203 363.691 14.9609 363.691 15.0547C363.691 15.25 363.652 15.4023 363.574 15.5117C363.504 15.6211 363.34 15.7695 363.082 15.957L362.449 16.4023ZM356.438 15.6055L357.082 14.082L351.691 3.34766C351.426 2.79297 351.293 2.39062 351.293 2.14062C351.293 1.89844 351.355 1.66797 351.48 1.44922H348.785C349.223 1.76172 349.551 2.09375 349.77 2.44531C350.066 2.89062 350.32 3.33203 350.531 3.76953L356.438 15.6055ZM349.746 16.4023C349.371 15.9961 349.113 15.6641 348.973 15.4062C348.84 15.1406 348.738 14.8047 348.668 14.3984C348.48 14.8672 348.273 15.2422 348.047 15.5234C347.82 15.8047 347.496 16.0977 347.074 16.4023H349.746ZM377.355 17V16.6367C378.199 16.4961 378.812 16.1719 379.195 15.6641C379.492 15.2891 379.641 14.543 379.641 13.4258V4.57812C379.641 3.86719 379.602 3.35156 379.523 3.03125C379.445 2.71094 379.301 2.4375 379.09 2.21094C378.699 1.77344 378.121 1.49219 377.355 1.36719V1.00391H384.656V1.36719C383.812 1.50781 383.195 1.83203 382.805 2.33984C382.648 2.54297 382.535 2.81641 382.465 3.16016C382.395 3.49609 382.359 3.96875 382.359 4.57812V8.49219H390.598V4.57812C390.598 3.86719 390.559 3.35156 390.48 3.03125C390.402 2.71094 390.258 2.4375 390.047 2.21094C389.656 1.77344 389.078 1.49219 388.312 1.36719V1.00391H395.613V1.36719C394.77 1.50781 394.152 1.83203 393.762 2.33984C393.605 2.54297 393.492 2.81641 393.422 3.16016C393.352 3.49609 393.316 3.96875 393.316 4.57812V13.4258C393.316 14.0898 393.355 14.5938 393.434 14.9375C393.52 15.2734 393.668 15.5586 393.879 15.793C394.27 16.2305 394.848 16.5117 395.613 16.6367V17H388.312V16.6367C389.156 16.4961 389.77 16.1719 390.152 15.6641C390.449 15.2891 390.598 14.543 390.598 13.4258V9.03125H382.359V13.4258C382.359 14.0898 382.398 14.5938 382.477 14.9375C382.562 15.2734 382.711 15.5586 382.922 15.793C383.312 16.2305 383.891 16.5117 384.656 16.6367V17H377.355ZM378.996 16.4023H382.418L381.961 16.0625C381.695 15.8672 381.523 15.7109 381.445 15.5938C381.375 15.4766 381.34 15.3008 381.34 15.0664C381.34 14.9414 381.336 14.8594 381.328 14.8203C381.328 14.7734 381.328 14.7266 381.328 14.6797V14.4805V3.52344V3.32422C381.328 3.27734 381.328 3.23047 381.328 3.18359C381.336 3.13672 381.34 3.05469 381.34 2.9375C381.34 2.70312 381.375 2.52734 381.445 2.41016C381.523 2.29297 381.695 2.13672 381.961 1.94141L382.629 1.44922H378.785L379.453 1.94141C379.719 2.13672 379.887 2.29297 379.957 2.41016C380.035 2.52734 380.074 2.70312 380.074 2.9375C380.082 3.07031 380.086 3.19922 380.086 3.32422V3.52344V14.4805V14.6797C380.086 14.8047 380.082 14.9336 380.074 15.0664C380.074 15.3086 380.039 15.4883 379.969 15.6055C379.898 15.7148 379.727 15.8672 379.453 16.0625L378.996 16.4023ZM389.953 16.4023H393.375L392.918 16.0625C392.652 15.8672 392.48 15.7109 392.402 15.5938C392.332 15.4766 392.297 15.3008 392.297 15.0664C392.297 14.8398 392.293 14.7109 392.285 14.6797V14.4805V3.52344V3.32422C392.293 3.28516 392.297 3.15625 392.297 2.9375C392.297 2.70312 392.332 2.52734 392.402 2.41016C392.48 2.29297 392.652 2.13672 392.918 1.94141L393.586 1.44922H389.742L390.41 1.94141C390.676 2.13672 390.844 2.29297 390.914 2.41016C390.992 2.52734 391.031 2.70312 391.031 2.9375C391.039 3.07031 391.043 3.19922 391.043 3.32422V3.52344V14.4805V14.6797C391.043 14.8047 391.039 14.9336 391.031 15.0664C391.031 15.3086 390.996 15.4883 390.926 15.6055C390.855 15.7148 390.684 15.8672 390.41 16.0625L389.953 16.4023ZM396.902 17V16.6367C397.746 16.4961 398.359 16.1719 398.742 15.6641C399.039 15.2891 399.188 14.543 399.188 13.4258V4.57812C399.188 3.86719 399.148 3.35156 399.07 3.03125C398.992 2.71094 398.848 2.4375 398.637 2.21094C398.246 1.77344 397.668 1.49219 396.902 1.36719V1.00391H404.203V1.36719C403.359 1.50781 402.742 1.83203 402.352 2.33984C402.195 2.54297 402.082 2.81641 402.012 3.16016C401.941 3.49609 401.906 3.96875 401.906 4.57812V13.4258C401.906 14.0898 401.945 14.5938 402.023 14.9375C402.109 15.2734 402.258 15.5586 402.469 15.793C402.859 16.2305 403.438 16.5117 404.203 16.6367V17H396.902ZM398.543 16.4023H401.965L401.508 16.0625C401.242 15.8672 401.07 15.7109 400.992 15.5938C400.922 15.4766 400.887 15.3008 400.887 15.0664C400.887 14.9414 400.883 14.8594 400.875 14.8203C400.875 14.7734 400.875 14.7266 400.875 14.6797V14.4805V3.52344V3.32422C400.875 3.27734 400.875 3.23047 400.875 3.18359C400.883 3.13672 400.887 3.05469 400.887 2.9375C400.887 2.70312 400.922 2.52734 400.992 2.41016C401.07 2.29297 401.242 2.13672 401.508 1.94141L402.176 1.44922H398.332L399 1.94141C399.273 2.13672 399.445 2.28906 399.516 2.39844C399.586 2.50781 399.621 2.6875 399.621 2.9375C399.629 3.07031 399.633 3.19922 399.633 3.32422V3.52344V14.4805V14.6797C399.633 14.8047 399.629 14.9336 399.621 15.0664C399.621 15.3086 399.586 15.4883 399.516 15.6055C399.445 15.7148 399.273 15.8672 399 16.0625L398.543 16.4023ZM414.902 1.36719L415.582 5.26953H415.184C414.973 4.56641 414.766 4.01172 414.562 3.60547C414.359 3.19922 414.133 2.85937 413.883 2.58594C413.484 2.14062 413.004 1.79297 412.441 1.54297C411.887 1.29297 411.305 1.16797 410.695 1.16797C409.836 1.16797 409.133 1.40234 408.586 1.87109C408.039 2.33203 407.766 2.92969 407.766 3.66406C407.766 4.46875 408.121 5.13672 408.832 5.66797C409.199 5.93359 409.59 6.17188 410.004 6.38281C410.426 6.58594 411.082 6.875 411.973 7.25C412.582 7.49219 413.098 7.71094 413.52 7.90625C413.941 8.10156 414.281 8.27734 414.539 8.43359C414.797 8.58984 415.055 8.76953 415.312 8.97266C416.398 9.84766 416.941 10.9922 416.941 12.4062C416.941 13.3359 416.688 14.1758 416.18 14.9258C415.672 15.6758 414.969 16.2656 414.07 16.6953C413.172 17.1172 412.176 17.3281 411.082 17.3281C410.324 17.3281 409.449 17.2148 408.457 16.9883C407.871 16.8477 407.102 16.5977 406.148 16.2383L405.82 16.1211L405.469 11.6797H405.82C406.164 12.875 406.719 13.9414 407.484 14.8789C408.492 16.1055 409.691 16.7188 411.082 16.7188C411.793 16.7188 412.422 16.5859 412.969 16.3203C413.523 16.0469 413.957 15.6758 414.27 15.207C414.582 14.7305 414.738 14.1875 414.738 13.5781C414.738 13.0391 414.617 12.5547 414.375 12.125C414.133 11.6875 413.738 11.2773 413.191 10.8945C412.645 10.5039 411.895 10.1055 410.941 9.69922C409.559 9.09766 408.719 8.71484 408.422 8.55078C407.852 8.23047 407.379 7.88281 407.004 7.50781C406.629 7.13281 406.352 6.72656 406.172 6.28906C405.992 5.85156 405.902 5.38281 405.902 4.88281C405.902 4.10938 406.105 3.40234 406.512 2.76172C406.926 2.12109 407.488 1.61719 408.199 1.25C408.918 0.882813 409.711 0.699219 410.578 0.699219C411.125 0.699219 411.734 0.789063 412.406 0.96875L413.109 1.15625C413.633 1.29688 414.191 1.36719 414.785 1.36719H414.902ZM414.012 16.0156C415.301 15.0859 415.945 13.9688 415.945 12.6641C415.945 12.1484 415.836 11.6484 415.617 11.1641C415.406 10.6719 415.102 10.2539 414.703 9.91016C414.125 9.38672 413.105 8.82031 411.645 8.21094C410.434 7.69531 409.645 7.34766 409.277 7.16797C408.918 6.98828 408.551 6.74609 408.176 6.44141C407.395 5.81641 407.004 5.02734 407.004 4.07422C407.004 3.79297 407.035 3.53906 407.098 3.3125C407.16 3.07812 407.254 2.85547 407.379 2.64453C407.504 2.42578 407.711 2.13672 408 1.77734C406.883 2.58203 406.324 3.58594 406.324 4.78906C406.324 5.94531 406.777 6.85938 407.684 7.53125C408.16 7.89062 408.707 8.21094 409.324 8.49219C409.402 8.53125 410.004 8.79688 411.129 9.28906C412.488 9.875 413.426 10.4062 413.941 10.8828C414.762 11.6406 415.172 12.5352 415.172 13.5664C415.172 14.0664 415.078 14.5117 414.891 14.9023C414.711 15.2852 414.418 15.6562 414.012 16.0156ZM406.195 15.5586C406.711 15.8555 407.367 16.1406 408.164 16.4141C407.641 15.9453 407.242 15.5586 406.969 15.2539C406.703 14.9492 406.398 14.5195 406.055 13.9648L406.195 15.5586ZM433.242 1.00391L433.605 5.36328H433.23C432.996 4.55859 432.676 3.86328 432.27 3.27734C431.871 2.69141 431.402 2.24219 430.863 1.92969C430.332 1.60938 429.773 1.44922 429.188 1.44922C428.727 1.44922 428.324 1.54687 427.98 1.74219C427.645 1.92969 427.395 2.19141 427.23 2.52734C427.074 2.84766 426.996 3.36328 426.996 4.07422V13.4258C426.996 14.1211 427.043 14.6328 427.137 14.9609C427.23 15.2812 427.41 15.5625 427.676 15.8047C428.152 16.2344 428.848 16.5117 429.762 16.6367V17H421.5V16.6367C422.516 16.4961 423.258 16.1758 423.727 15.6758C423.938 15.4492 424.082 15.1719 424.16 14.8438C424.238 14.5156 424.277 14.043 424.277 13.4258V4.07422C424.277 3.30078 424.172 2.73828 423.961 2.38672C423.797 2.09766 423.551 1.87109 423.223 1.70703C422.895 1.53516 422.516 1.44922 422.086 1.44922C421.203 1.44922 420.395 1.80078 419.66 2.50391C418.934 3.19922 418.391 4.15234 418.031 5.36328H417.668L418.031 1.00391H433.242ZM432.352 1.4375H430.652C431.066 1.60938 431.414 1.80859 431.695 2.03516C431.977 2.25391 432.27 2.57422 432.574 2.99609L432.352 1.4375ZM423.621 16.4023H427.055L426.598 16.0625C426.316 15.8516 426.141 15.6914 426.07 15.582C426 15.4727 425.965 15.3008 425.965 15.0664V14.6797C425.965 14.6172 425.961 14.5742 425.953 14.5508C425.953 14.5273 425.953 14.5039 425.953 14.4805V3.52344C425.953 3.5 425.953 3.47656 425.953 3.45312C425.961 3.42969 425.965 3.38672 425.965 3.32422V2.9375C425.965 2.70312 426.008 2.52344 426.094 2.39844C426.18 2.26563 426.348 2.11328 426.598 1.94141L427.266 1.44922H423.656L424.207 1.94141C424.402 2.11328 424.535 2.27344 424.605 2.42188C424.676 2.5625 424.711 2.73438 424.711 2.9375V3.32422C424.719 3.39453 424.723 3.46094 424.723 3.52344V14.4805C424.723 14.543 424.719 14.6094 424.711 14.6797V15.0664C424.711 15.3008 424.672 15.4766 424.594 15.5938C424.523 15.7109 424.355 15.8672 424.09 16.0625L423.621 16.4023ZM418.418 1.4375L418.254 3.16016C418.59 2.66797 418.875 2.30859 419.109 2.08203C419.344 1.85547 419.648 1.64062 420.023 1.4375H418.418ZM434.625 9.01953C434.625 7.88672 434.844 6.80469 435.281 5.77344C435.719 4.74219 436.324 3.83984 437.098 3.06641C437.879 2.28516 438.777 1.68359 439.793 1.26172C440.816 0.832031 441.895 0.617188 443.027 0.617188C444.543 0.617188 445.941 0.996094 447.223 1.75391C448.512 2.50391 449.531 3.52344 450.281 4.8125C451.039 6.10156 451.418 7.50391 451.418 9.01953C451.418 10.1445 451.203 11.2188 450.773 12.2422C450.352 13.2578 449.75 14.1562 448.969 14.9375C448.188 15.7188 447.293 16.3281 446.285 16.7656C445.277 17.1953 444.203 17.4102 443.062 17.4102C441.523 17.4102 440.105 17.0352 438.809 16.2852C437.52 15.5352 436.5 14.5195 435.75 13.2383C435 11.9492 434.625 10.543 434.625 9.01953ZM437.578 8.9375C437.578 10.0859 437.707 11.1523 437.965 12.1367C438.223 13.1133 438.59 13.9492 439.066 14.6445C439.551 15.332 440.129 15.8594 440.801 16.2266C441.48 16.5938 442.23 16.7773 443.051 16.7773C444.387 16.7773 445.555 16.2461 446.555 15.1836C447.164 14.5273 447.633 13.668 447.961 12.6055C448.297 11.5352 448.465 10.3086 448.465 8.92578C448.465 7.72266 448.336 6.63672 448.078 5.66797C447.828 4.69922 447.465 3.875 446.988 3.19531C446.52 2.51562 445.949 1.99219 445.277 1.625C444.613 1.25781 443.863 1.07422 443.027 1.07422C442.199 1.07422 441.449 1.26172 440.777 1.63672C440.113 2.00391 439.543 2.53516 439.066 3.23047C438.59 3.91797 438.223 4.75391 437.965 5.73828C437.707 6.71484 437.578 7.78125 437.578 8.9375ZM439.488 16.2266C438.793 15.7109 438.215 15.1055 437.754 14.4102C437.301 13.707 436.957 12.8945 436.723 11.9727C436.496 11.0508 436.383 10.0391 436.383 8.9375C436.383 7.3125 436.629 5.92969 437.121 4.78906C437.621 3.64062 438.41 2.66016 439.488 1.84766C438.559 2.33984 437.762 2.94922 437.098 3.67578C436.441 4.40234 435.938 5.21875 435.586 6.125C435.242 7.02344 435.07 7.98438 435.07 9.00781C435.07 10.0234 435.242 10.9883 435.586 11.9023C435.938 12.8086 436.441 13.6289 437.098 14.3633C437.762 15.0977 438.559 15.7188 439.488 16.2266ZM445.922 16.2383C448.781 14.5898 450.211 12.1836 450.211 9.01953C450.211 8.00391 450.051 7.03516 449.73 6.11328C449.418 5.18359 448.969 4.35938 448.383 3.64062C447.805 2.91406 447.125 2.33594 446.344 1.90625C448.055 3.40625 448.91 5.74219 448.91 8.91406C448.91 9.84375 448.824 10.7344 448.652 11.5859C448.488 12.4297 448.258 13.168 447.961 13.8008C447.812 14.1211 447.652 14.4062 447.48 14.6562C447.309 14.9062 447.098 15.1602 446.848 15.418C446.598 15.668 446.289 15.9414 445.922 16.2383ZM457.852 8.60938V13.4258C457.852 14.0977 457.891 14.5977 457.969 14.9258C458.055 15.2539 458.215 15.5469 458.449 15.8047C458.863 16.2344 459.48 16.5117 460.301 16.6367V17H452.848V16.6367C453.691 16.4961 454.305 16.1719 454.688 15.6641C454.984 15.2891 455.133 14.543 455.133 13.4258V4.57812C455.133 3.86719 455.094 3.35156 455.016 3.03125C454.938 2.71094 454.793 2.4375 454.582 2.21094C454.207 1.79688 453.629 1.51563 452.848 1.36719V1.00391C452.957 1.01172 453.055 1.01562 453.141 1.01562L454.172 1.07422C454.586 1.09766 455.066 1.10938 455.613 1.10938C456.48 1.10938 457.266 1.07422 457.969 1.00391L459.609 0.863281C460.125 0.816406 460.633 0.792969 461.133 0.792969C462.055 0.792969 462.879 0.886719 463.605 1.07422C464.332 1.26172 464.945 1.53125 465.445 1.88281C465.945 2.23438 466.332 2.66797 466.605 3.18359C466.879 3.69141 467.016 4.26172 467.016 4.89453C467.016 5.94922 466.652 6.77344 465.926 7.36719C465.207 7.95312 464.141 8.29688 462.727 8.39844C463.602 8.74219 464.34 9.21484 464.941 9.81641C465.551 10.4102 466.273 11.3828 467.109 12.7344C468.055 14.25 468.801 15.3047 469.348 15.8984C469.895 16.4922 470.5 16.9141 471.164 17.1641V17.4922C470.312 17.4766 469.586 17.3984 468.984 17.2578C468.391 17.1172 467.797 16.8672 467.203 16.5078C466.461 16.0469 465.762 15.4258 465.105 14.6445C464.449 13.8633 463.875 12.9688 463.383 11.9609L462.762 10.6602C462.465 10.0508 462.203 9.60938 461.977 9.33594C461.75 9.05469 461.48 8.86328 461.168 8.76172C460.855 8.66016 460.43 8.60938 459.891 8.60938H457.852ZM457.852 8.14062H459.949C461.16 8.14062 462.031 8.00391 462.562 7.73047C463.039 7.48828 463.41 7.11328 463.676 6.60547C463.949 6.08984 464.086 5.5 464.086 4.83594C464.086 4.14844 463.926 3.53125 463.605 2.98438C463.293 2.4375 462.852 2.01562 462.281 1.71875C461.719 1.41406 461.074 1.26172 460.348 1.26172C459.27 1.26172 458.543 1.59766 458.168 2.26953C457.957 2.65234 457.852 3.25391 457.852 4.07422V8.14062ZM462.422 8.1875C462.945 8.07031 463.422 7.90234 463.852 7.68359C464.289 7.46484 464.648 7.21484 464.93 6.93359C465.211 6.65234 465.426 6.33203 465.574 5.97266C465.73 5.61328 465.809 5.23828 465.809 4.84766C465.809 3.99609 465.504 3.25391 464.895 2.62109C464.285 1.98828 463.48 1.58203 462.48 1.40234C462.926 1.64453 463.301 1.93359 463.605 2.26953C463.91 2.60547 464.141 2.98828 464.297 3.41797C464.453 3.83984 464.531 4.29688 464.531 4.78906C464.531 5.64062 464.363 6.33984 464.027 6.88672C463.691 7.42578 463.156 7.85938 462.422 8.1875ZM469.816 17.0117C469.402 16.7852 469.066 16.5781 468.809 16.3906C468.551 16.2031 468.25 15.9414 467.906 15.6055C467.5 15.168 467.18 14.7891 466.945 14.4688C466.719 14.1484 466.34 13.5508 465.809 12.6758C465.309 11.8398 464.855 11.1641 464.449 10.6484C464.051 10.1328 463.648 9.71875 463.242 9.40625C462.836 9.09375 462.387 8.83594 461.895 8.63281C462.207 8.95312 462.465 9.26953 462.668 9.58203C462.777 9.75391 462.973 10.1172 463.254 10.6719C463.34 10.8359 463.422 10.9961 463.5 11.1523C463.586 11.3086 463.668 11.4727 463.746 11.6445C464.582 13.2773 465.48 14.5195 466.441 15.3711C467.402 16.2148 468.527 16.7617 469.816 17.0117ZM454.488 16.4023H457.91L457.453 16.0625C457.188 15.8672 457.016 15.7109 456.938 15.5938C456.867 15.4766 456.832 15.3008 456.832 15.0664C456.832 14.9414 456.828 14.8594 456.82 14.8203C456.82 14.7734 456.82 14.7266 456.82 14.6797V14.4805V3.52344V3.32422C456.82 3.27734 456.82 3.23047 456.82 3.18359C456.828 3.13672 456.832 3.05469 456.832 2.9375C456.832 2.71875 456.863 2.55078 456.926 2.43359C456.996 2.31641 457.145 2.17188 457.371 2L457.453 1.94141L458.109 1.4375L457.688 1.46094C456.977 1.50781 456.336 1.53125 455.766 1.53125C455.414 1.53125 454.934 1.51953 454.324 1.49609L454.945 1.94141C455.203 2.11328 455.371 2.26563 455.449 2.39844C455.527 2.52344 455.566 2.70312 455.566 2.9375C455.574 3.07031 455.578 3.19922 455.578 3.32422V3.52344V14.4805V14.6797C455.578 14.8047 455.574 14.9336 455.566 15.0664C455.566 15.3086 455.531 15.4883 455.461 15.6055C455.391 15.7148 455.219 15.8672 454.945 16.0625L454.488 16.4023ZM471.715 17V16.6367C472.559 16.4961 473.172 16.1719 473.555 15.6641C473.852 15.2891 474 14.543 474 13.4258V4.57812C474 3.86719 473.961 3.35156 473.883 3.03125C473.805 2.71094 473.66 2.4375 473.449 2.21094C473.059 1.77344 472.48 1.49219 471.715 1.36719V1.00391H479.016V1.36719C478.172 1.50781 477.555 1.83203 477.164 2.33984C477.008 2.54297 476.895 2.81641 476.824 3.16016C476.754 3.49609 476.719 3.96875 476.719 4.57812V13.4258C476.719 14.0898 476.758 14.5938 476.836 14.9375C476.922 15.2734 477.07 15.5586 477.281 15.793C477.672 16.2305 478.25 16.5117 479.016 16.6367V17H471.715ZM473.355 16.4023H476.777L476.32 16.0625C476.055 15.8672 475.883 15.7109 475.805 15.5938C475.734 15.4766 475.699 15.3008 475.699 15.0664C475.699 14.9414 475.695 14.8594 475.688 14.8203C475.688 14.7734 475.688 14.7266 475.688 14.6797V14.4805V3.52344V3.32422C475.688 3.27734 475.688 3.23047 475.688 3.18359C475.695 3.13672 475.699 3.05469 475.699 2.9375C475.699 2.70312 475.734 2.52734 475.805 2.41016C475.883 2.29297 476.055 2.13672 476.32 1.94141L476.988 1.44922H473.145L473.812 1.94141C474.086 2.13672 474.258 2.28906 474.328 2.39844C474.398 2.50781 474.434 2.6875 474.434 2.9375C474.441 3.07031 474.445 3.19922 474.445 3.32422V3.52344V14.4805V14.6797C474.445 14.8047 474.441 14.9336 474.434 15.0664C474.434 15.3086 474.398 15.4883 474.328 15.6055C474.258 15.7148 474.086 15.8672 473.812 16.0625L473.355 16.4023ZM494.461 1.17969L495.832 5.36328H495.434C495.051 4.62109 494.648 3.98438 494.227 3.45312C493.812 2.92188 493.375 2.49219 492.914 2.16406C492.461 1.82812 491.977 1.58203 491.461 1.42578C490.945 1.26953 490.363 1.19141 489.715 1.19141C488.793 1.19141 487.934 1.36719 487.137 1.71875C486.34 2.07031 485.648 2.56641 485.062 3.20703C484.477 3.84766 484.02 4.60547 483.691 5.48047C483.371 6.35547 483.211 7.29688 483.211 8.30469C483.211 9.82812 483.512 11.2188 484.113 12.4766C484.715 13.7266 485.539 14.7109 486.586 15.4297C487.641 16.1406 488.809 16.4961 490.09 16.4961C490.973 16.4961 491.797 16.3242 492.562 15.9805C493.336 15.6367 494.023 15.1406 494.625 14.4922C495.227 13.8438 495.75 13.0273 496.195 12.043H496.676C496.02 13.7773 495.031 15.0938 493.711 15.9922C492.391 16.8828 490.777 17.3281 488.871 17.3281C486.645 17.3281 484.801 16.7266 483.34 15.5234C482.715 15 482.188 14.4062 481.758 13.7422C481.336 13.0781 481.012 12.3516 480.785 11.5625C480.559 10.7656 480.445 9.94922 480.445 9.11328C480.445 7.55859 480.836 6.13672 481.617 4.84766C482.406 3.55859 483.488 2.54688 484.863 1.8125C486.246 1.07031 487.773 0.699219 489.445 0.699219C490.148 0.699219 491.074 0.800781 492.223 1.00391C493.02 1.15234 493.598 1.22656 493.957 1.22656C494.113 1.22656 494.281 1.21094 494.461 1.17969ZM488.426 16.9297C487.434 16.6562 486.535 16.2656 485.73 15.7578C484.926 15.25 484.254 14.6445 483.715 13.9414C483.176 13.2383 482.766 12.4414 482.484 11.5508C482.211 10.6523 482.074 9.67578 482.074 8.62109C482.074 7.83984 482.145 7.13672 482.285 6.51172C482.426 5.88672 482.652 5.29297 482.965 4.73047C483.285 4.16016 483.688 3.63281 484.172 3.14844C484.656 2.66406 485.246 2.1875 485.941 1.71875C485.121 2.08594 484.398 2.52344 483.773 3.03125C483.148 3.53125 482.621 4.09766 482.191 4.73047C481.762 5.35547 481.438 6.04297 481.219 6.79297C481 7.53516 480.891 8.3125 480.891 9.125C480.891 10 481.016 10.8359 481.266 11.6328C481.516 12.4297 481.871 13.1602 482.332 13.8242C482.793 14.4883 483.352 15.0508 484.008 15.5117C484.664 15.9648 485.34 16.3047 486.035 16.5312C486.738 16.75 487.535 16.8828 488.426 16.9297ZM507.914 11.082H501.879L501.223 12.582C500.91 13.3164 500.754 13.9219 500.754 14.3984C500.754 14.8047 500.844 15.1562 501.023 15.4531C501.211 15.7422 501.484 15.9844 501.844 16.1797C502.211 16.3672 502.691 16.5195 503.285 16.6367V17H497.203V16.6484C497.938 16.3984 498.566 15.9609 499.09 15.3359C499.621 14.7109 500.18 13.7383 500.766 12.418L505.945 0.699219H506.25L511.887 13.3672C511.902 13.375 511.914 13.3984 511.922 13.4375C511.938 13.4688 511.953 13.5039 511.969 13.543C511.992 13.582 512.016 13.625 512.039 13.6719L512.555 14.7383C512.836 15.3086 513.156 15.7383 513.516 16.0273C513.875 16.3164 514.324 16.5195 514.863 16.6367V17H507.387V16.6367C508.02 16.5898 508.473 16.5156 508.746 16.4141C509.309 16.2031 509.59 15.8359 509.59 15.3125C509.59 15.0547 509.465 14.6328 509.215 14.0469L507.914 11.082ZM507.691 10.5898L504.867 4.22656L502.09 10.5898H507.691ZM505.113 3.72266L509.625 13.8828L509.742 14.1406C509.984 14.6641 510.105 15.0469 510.105 15.2891C510.105 15.625 509.914 15.9961 509.531 16.4023H512.625C512.273 16.0742 511.969 15.6992 511.711 15.2773C511.453 14.8477 511.152 14.2539 510.809 13.4961L505.781 2.1875L505.113 3.72266ZM501.012 16.4023C500.746 16.082 500.559 15.7969 500.449 15.5469C500.34 15.2891 500.285 15.0117 500.285 14.7148C500.285 14.582 500.289 14.4766 500.297 14.3984C500.055 14.8672 499.816 15.2461 499.582 15.5352C499.348 15.8164 499.031 16.1055 498.633 16.4023H501.012ZM523.266 1.00391V1.36719C522.328 1.50781 521.652 1.82812 521.238 2.32812C521.051 2.55469 520.918 2.83594 520.84 3.17188C520.77 3.50781 520.734 3.97656 520.734 4.57812V13.5195C520.734 14.1055 520.766 14.5664 520.828 14.9023C520.898 15.2383 521.02 15.5156 521.191 15.7344C521.543 16.1797 522.211 16.4023 523.195 16.4023H523.441C523.965 16.4023 524.477 16.3242 524.977 16.168C525.477 16.0039 525.984 15.7461 526.5 15.3945C527.023 15.0352 527.551 14.5859 528.082 14.0469C528.621 13.5078 529.172 12.8711 529.734 12.1367H530.098L528.691 17H515.73V16.6367C516.574 16.4961 517.188 16.1719 517.57 15.6641C517.867 15.2891 518.016 14.543 518.016 13.4258V4.57812C518.016 3.86719 517.977 3.35156 517.898 3.03125C517.82 2.71094 517.676 2.4375 517.465 2.21094C517.074 1.77344 516.496 1.49219 515.73 1.36719V1.00391H523.266ZM527.859 16.4023L528.492 14.2227C527.727 15.1367 526.816 15.8633 525.762 16.4023H527.859ZM517.371 16.4023H520.793L520.336 16.0625C520.07 15.8672 519.898 15.7109 519.82 15.5938C519.75 15.4766 519.715 15.3008 519.715 15.0664C519.715 14.9414 519.711 14.8594 519.703 14.8203C519.703 14.7734 519.703 14.7266 519.703 14.6797V14.4805V3.52344V3.32422C519.703 3.27734 519.703 3.23047 519.703 3.18359C519.711 3.13672 519.715 3.05469 519.715 2.9375C519.715 2.70312 519.754 2.52344 519.832 2.39844C519.918 2.26563 520.086 2.11328 520.336 1.94141L521.004 1.44922H517.172L517.828 1.94141C518.102 2.13672 518.273 2.28906 518.344 2.39844C518.414 2.50781 518.449 2.6875 518.449 2.9375C518.457 3.07031 518.461 3.19922 518.461 3.32422V3.52344V14.4805V14.6797C518.461 14.8047 518.457 14.9336 518.449 15.0664C518.449 15.3086 518.414 15.4883 518.344 15.6055C518.273 15.7148 518.102 15.8672 517.828 16.0625L517.371 16.4023ZM543.281 8.60938V13.4258C543.281 14.0977 543.32 14.5977 543.398 14.9258C543.484 15.2539 543.645 15.5469 543.879 15.8047C544.293 16.2344 544.91 16.5117 545.73 16.6367V17H538.277V16.6367C539.121 16.4961 539.734 16.1719 540.117 15.6641C540.414 15.2891 540.562 14.543 540.562 13.4258V4.57812C540.562 3.86719 540.523 3.35156 540.445 3.03125C540.367 2.71094 540.223 2.4375 540.012 2.21094C539.637 1.79688 539.059 1.51563 538.277 1.36719V1.00391C538.387 1.01172 538.484 1.01562 538.57 1.01562L539.602 1.07422C540.016 1.09766 540.496 1.10938 541.043 1.10938C541.91 1.10938 542.695 1.07422 543.398 1.00391L545.039 0.863281C545.555 0.816406 546.062 0.792969 546.562 0.792969C547.484 0.792969 548.309 0.886719 549.035 1.07422C549.762 1.26172 550.375 1.53125 550.875 1.88281C551.375 2.23438 551.762 2.66797 552.035 3.18359C552.309 3.69141 552.445 4.26172 552.445 4.89453C552.445 5.94922 552.082 6.77344 551.355 7.36719C550.637 7.95312 549.57 8.29688 548.156 8.39844C549.031 8.74219 549.77 9.21484 550.371 9.81641C550.98 10.4102 551.703 11.3828 552.539 12.7344C553.484 14.25 554.23 15.3047 554.777 15.8984C555.324 16.4922 555.93 16.9141 556.594 17.1641V17.4922C555.742 17.4766 555.016 17.3984 554.414 17.2578C553.82 17.1172 553.227 16.8672 552.633 16.5078C551.891 16.0469 551.191 15.4258 550.535 14.6445C549.879 13.8633 549.305 12.9688 548.812 11.9609L548.191 10.6602C547.895 10.0508 547.633 9.60938 547.406 9.33594C547.18 9.05469 546.91 8.86328 546.598 8.76172C546.285 8.66016 545.859 8.60938 545.32 8.60938H543.281ZM543.281 8.14062H545.379C546.59 8.14062 547.461 8.00391 547.992 7.73047C548.469 7.48828 548.84 7.11328 549.105 6.60547C549.379 6.08984 549.516 5.5 549.516 4.83594C549.516 4.14844 549.355 3.53125 549.035 2.98438C548.723 2.4375 548.281 2.01562 547.711 1.71875C547.148 1.41406 546.504 1.26172 545.777 1.26172C544.699 1.26172 543.973 1.59766 543.598 2.26953C543.387 2.65234 543.281 3.25391 543.281 4.07422V8.14062ZM547.852 8.1875C548.375 8.07031 548.852 7.90234 549.281 7.68359C549.719 7.46484 550.078 7.21484 550.359 6.93359C550.641 6.65234 550.855 6.33203 551.004 5.97266C551.16 5.61328 551.238 5.23828 551.238 4.84766C551.238 3.99609 550.934 3.25391 550.324 2.62109C549.715 1.98828 548.91 1.58203 547.91 1.40234C548.355 1.64453 548.73 1.93359 549.035 2.26953C549.34 2.60547 549.57 2.98828 549.727 3.41797C549.883 3.83984 549.961 4.29688 549.961 4.78906C549.961 5.64062 549.793 6.33984 549.457 6.88672C549.121 7.42578 548.586 7.85938 547.852 8.1875ZM555.246 17.0117C554.832 16.7852 554.496 16.5781 554.238 16.3906C553.98 16.2031 553.68 15.9414 553.336 15.6055C552.93 15.168 552.609 14.7891 552.375 14.4688C552.148 14.1484 551.77 13.5508 551.238 12.6758C550.738 11.8398 550.285 11.1641 549.879 10.6484C549.48 10.1328 549.078 9.71875 548.672 9.40625C548.266 9.09375 547.816 8.83594 547.324 8.63281C547.637 8.95312 547.895 9.26953 548.098 9.58203C548.207 9.75391 548.402 10.1172 548.684 10.6719C548.77 10.8359 548.852 10.9961 548.93 11.1523C549.016 11.3086 549.098 11.4727 549.176 11.6445C550.012 13.2773 550.91 14.5195 551.871 15.3711C552.832 16.2148 553.957 16.7617 555.246 17.0117ZM539.918 16.4023H543.34L542.883 16.0625C542.617 15.8672 542.445 15.7109 542.367 15.5938C542.297 15.4766 542.262 15.3008 542.262 15.0664C542.262 14.9414 542.258 14.8594 542.25 14.8203C542.25 14.7734 542.25 14.7266 542.25 14.6797V14.4805V3.52344V3.32422C542.25 3.27734 542.25 3.23047 542.25 3.18359C542.258 3.13672 542.262 3.05469 542.262 2.9375C542.262 2.71875 542.293 2.55078 542.355 2.43359C542.426 2.31641 542.574 2.17188 542.801 2L542.883 1.94141L543.539 1.4375L543.117 1.46094C542.406 1.50781 541.766 1.53125 541.195 1.53125C540.844 1.53125 540.363 1.51953 539.754 1.49609L540.375 1.94141C540.633 2.11328 540.801 2.26563 540.879 2.39844C540.957 2.52344 540.996 2.70312 540.996 2.9375C541.004 3.07031 541.008 3.19922 541.008 3.32422V3.52344V14.4805V14.6797C541.008 14.8047 541.004 14.9336 540.996 15.0664C540.996 15.3086 540.961 15.4883 540.891 15.6055C540.82 15.7148 540.648 15.8672 540.375 16.0625L539.918 16.4023ZM570.48 1.00391L570.926 5.36328H570.551C570.145 4.01953 569.539 3.03125 568.734 2.39844C567.938 1.75781 566.898 1.4375 565.617 1.4375H564.961C563.938 1.4375 563.211 1.63672 562.781 2.03516C562.359 2.42578 562.148 3.08203 562.148 4.00391V7.98828H563.707C564.887 7.98828 565.746 7.80469 566.285 7.4375C566.824 7.0625 567.195 6.39062 567.398 5.42188H567.75V11.3516H567.398C567.242 10.5703 567.031 9.97656 566.766 9.57031C566.508 9.15625 566.141 8.86719 565.664 8.70312C565.195 8.53125 564.555 8.44531 563.742 8.44531H562.148V13.5195C562.148 14.293 562.219 14.8867 562.359 15.3008C562.508 15.707 562.762 15.9922 563.121 16.1562C563.488 16.3203 564 16.4023 564.656 16.4023H565.734C566.797 16.4023 567.805 16.0742 568.758 15.418C569.812 14.6836 570.848 13.6602 571.863 12.3477L571.957 12.2188H572.367L570.984 17H557.145V16.6367C557.988 16.4961 558.602 16.1719 558.984 15.6641C559.281 15.2891 559.43 14.543 559.43 13.4258V4.57812C559.43 3.86719 559.391 3.35156 559.312 3.03125C559.234 2.71094 559.09 2.4375 558.879 2.21094C558.488 1.77344 557.91 1.49219 557.145 1.36719V1.00391H570.48ZM569.602 1.4375H567.914C568.352 1.61719 568.703 1.8125 568.969 2.02344C569.234 2.23438 569.531 2.55859 569.859 2.99609L569.602 1.4375ZM566.906 7.48438C566.688 7.6875 566.516 7.82812 566.391 7.90625C566.273 7.97656 566.023 8.08594 565.641 8.23438C566.078 8.35938 566.5 8.61328 566.906 8.99609V7.48438ZM570.152 16.4023L570.809 14.2227C570.527 14.5352 570.246 14.8203 569.965 15.0781C569.691 15.3281 569.379 15.5664 569.027 15.793C568.684 16.0195 568.332 16.2227 567.973 16.4023H570.152ZM558.785 16.4023H562.207L561.75 16.0625C561.484 15.8672 561.312 15.7109 561.234 15.5938C561.164 15.4766 561.129 15.3008 561.129 15.0664C561.129 14.9414 561.125 14.8594 561.117 14.8203C561.117 14.7734 561.117 14.7266 561.117 14.6797V14.4805V3.52344V3.32422C561.117 3.27734 561.117 3.23047 561.117 3.18359C561.125 3.13672 561.129 3.05469 561.129 2.9375C561.129 2.70312 561.168 2.52344 561.246 2.39844C561.332 2.26563 561.5 2.11328 561.75 1.94141L562.418 1.44922H558.574L559.242 1.94141C559.508 2.13672 559.676 2.29297 559.746 2.41016C559.824 2.52734 559.863 2.70312 559.863 2.9375C559.871 3.07031 559.875 3.19922 559.875 3.32422V3.52344V14.4805V14.6797C559.875 14.8047 559.871 14.9336 559.863 15.0664C559.863 15.3086 559.828 15.4883 559.758 15.6055C559.688 15.7148 559.516 15.8672 559.242 16.0625L558.785 16.4023ZM587.133 1.17969L588.504 5.36328H588.105C587.723 4.62109 587.32 3.98438 586.898 3.45312C586.484 2.92188 586.047 2.49219 585.586 2.16406C585.133 1.82812 584.648 1.58203 584.133 1.42578C583.617 1.26953 583.035 1.19141 582.387 1.19141C581.465 1.19141 580.605 1.36719 579.809 1.71875C579.012 2.07031 578.32 2.56641 577.734 3.20703C577.148 3.84766 576.691 4.60547 576.363 5.48047C576.043 6.35547 575.883 7.29688 575.883 8.30469C575.883 9.82812 576.184 11.2188 576.785 12.4766C577.387 13.7266 578.211 14.7109 579.258 15.4297C580.312 16.1406 581.48 16.4961 582.762 16.4961C583.645 16.4961 584.469 16.3242 585.234 15.9805C586.008 15.6367 586.695 15.1406 587.297 14.4922C587.898 13.8438 588.422 13.0273 588.867 12.043H589.348C588.691 13.7773 587.703 15.0938 586.383 15.9922C585.062 16.8828 583.449 17.3281 581.543 17.3281C579.316 17.3281 577.473 16.7266 576.012 15.5234C575.387 15 574.859 14.4062 574.43 13.7422C574.008 13.0781 573.684 12.3516 573.457 11.5625C573.23 10.7656 573.117 9.94922 573.117 9.11328C573.117 7.55859 573.508 6.13672 574.289 4.84766C575.078 3.55859 576.16 2.54688 577.535 1.8125C578.918 1.07031 580.445 0.699219 582.117 0.699219C582.82 0.699219 583.746 0.800781 584.895 1.00391C585.691 1.15234 586.27 1.22656 586.629 1.22656C586.785 1.22656 586.953 1.21094 587.133 1.17969ZM581.098 16.9297C580.105 16.6562 579.207 16.2656 578.402 15.7578C577.598 15.25 576.926 14.6445 576.387 13.9414C575.848 13.2383 575.438 12.4414 575.156 11.5508C574.883 10.6523 574.746 9.67578 574.746 8.62109C574.746 7.83984 574.816 7.13672 574.957 6.51172C575.098 5.88672 575.324 5.29297 575.637 4.73047C575.957 4.16016 576.359 3.63281 576.844 3.14844C577.328 2.66406 577.918 2.1875 578.613 1.71875C577.793 2.08594 577.07 2.52344 576.445 3.03125C575.82 3.53125 575.293 4.09766 574.863 4.73047C574.434 5.35547 574.109 6.04297 573.891 6.79297C573.672 7.53516 573.562 8.3125 573.562 9.125C573.562 10 573.688 10.8359 573.938 11.6328C574.188 12.4297 574.543 13.1602 575.004 13.8242C575.465 14.4883 576.023 15.0508 576.68 15.5117C577.336 15.9648 578.012 16.3047 578.707 16.5312C579.41 16.75 580.207 16.8828 581.098 16.9297ZM590.438 9.01953C590.438 7.88672 590.656 6.80469 591.094 5.77344C591.531 4.74219 592.137 3.83984 592.91 3.06641C593.691 2.28516 594.59 1.68359 595.605 1.26172C596.629 0.832031 597.707 0.617188 598.84 0.617188C600.355 0.617188 601.754 0.996094 603.035 1.75391C604.324 2.50391 605.344 3.52344 606.094 4.8125C606.852 6.10156 607.23 7.50391 607.23 9.01953C607.23 10.1445 607.016 11.2188 606.586 12.2422C606.164 13.2578 605.562 14.1562 604.781 14.9375C604 15.7188 603.105 16.3281 602.098 16.7656C601.09 17.1953 600.016 17.4102 598.875 17.4102C597.336 17.4102 595.918 17.0352 594.621 16.2852C593.332 15.5352 592.312 14.5195 591.562 13.2383C590.812 11.9492 590.438 10.543 590.438 9.01953ZM593.391 8.9375C593.391 10.0859 593.52 11.1523 593.777 12.1367C594.035 13.1133 594.402 13.9492 594.879 14.6445C595.363 15.332 595.941 15.8594 596.613 16.2266C597.293 16.5938 598.043 16.7773 598.863 16.7773C600.199 16.7773 601.367 16.2461 602.367 15.1836C602.977 14.5273 603.445 13.668 603.773 12.6055C604.109 11.5352 604.277 10.3086 604.277 8.92578C604.277 7.72266 604.148 6.63672 603.891 5.66797C603.641 4.69922 603.277 3.875 602.801 3.19531C602.332 2.51562 601.762 1.99219 601.09 1.625C600.426 1.25781 599.676 1.07422 598.84 1.07422C598.012 1.07422 597.262 1.26172 596.59 1.63672C595.926 2.00391 595.355 2.53516 594.879 3.23047C594.402 3.91797 594.035 4.75391 593.777 5.73828C593.52 6.71484 593.391 7.78125 593.391 8.9375ZM595.301 16.2266C594.605 15.7109 594.027 15.1055 593.566 14.4102C593.113 13.707 592.77 12.8945 592.535 11.9727C592.309 11.0508 592.195 10.0391 592.195 8.9375C592.195 7.3125 592.441 5.92969 592.934 4.78906C593.434 3.64062 594.223 2.66016 595.301 1.84766C594.371 2.33984 593.574 2.94922 592.91 3.67578C592.254 4.40234 591.75 5.21875 591.398 6.125C591.055 7.02344 590.883 7.98438 590.883 9.00781C590.883 10.0234 591.055 10.9883 591.398 11.9023C591.75 12.8086 592.254 13.6289 592.91 14.3633C593.574 15.0977 594.371 15.7188 595.301 16.2266ZM601.734 16.2383C604.594 14.5898 606.023 12.1836 606.023 9.01953C606.023 8.00391 605.863 7.03516 605.543 6.11328C605.23 5.18359 604.781 4.35938 604.195 3.64062C603.617 2.91406 602.938 2.33594 602.156 1.90625C603.867 3.40625 604.723 5.74219 604.723 8.91406C604.723 9.84375 604.637 10.7344 604.465 11.5859C604.301 12.4297 604.07 13.168 603.773 13.8008C603.625 14.1211 603.465 14.4062 603.293 14.6562C603.121 14.9062 602.91 15.1602 602.66 15.418C602.41 15.668 602.102 15.9414 601.734 16.2383ZM613.664 8.60938V13.4258C613.664 14.0977 613.703 14.5977 613.781 14.9258C613.867 15.2539 614.027 15.5469 614.262 15.8047C614.676 16.2344 615.293 16.5117 616.113 16.6367V17H608.66V16.6367C609.504 16.4961 610.117 16.1719 610.5 15.6641C610.797 15.2891 610.945 14.543 610.945 13.4258V4.57812C610.945 3.86719 610.906 3.35156 610.828 3.03125C610.75 2.71094 610.605 2.4375 610.395 2.21094C610.02 1.79688 609.441 1.51563 608.66 1.36719V1.00391C608.77 1.01172 608.867 1.01562 608.953 1.01562L609.984 1.07422C610.398 1.09766 610.879 1.10938 611.426 1.10938C612.293 1.10938 613.078 1.07422 613.781 1.00391L615.422 0.863281C615.938 0.816406 616.445 0.792969 616.945 0.792969C617.867 0.792969 618.691 0.886719 619.418 1.07422C620.145 1.26172 620.758 1.53125 621.258 1.88281C621.758 2.23438 622.145 2.66797 622.418 3.18359C622.691 3.69141 622.828 4.26172 622.828 4.89453C622.828 5.94922 622.465 6.77344 621.738 7.36719C621.02 7.95312 619.953 8.29688 618.539 8.39844C619.414 8.74219 620.152 9.21484 620.754 9.81641C621.363 10.4102 622.086 11.3828 622.922 12.7344C623.867 14.25 624.613 15.3047 625.16 15.8984C625.707 16.4922 626.312 16.9141 626.977 17.1641V17.4922C626.125 17.4766 625.398 17.3984 624.797 17.2578C624.203 17.1172 623.609 16.8672 623.016 16.5078C622.273 16.0469 621.574 15.4258 620.918 14.6445C620.262 13.8633 619.688 12.9688 619.195 11.9609L618.574 10.6602C618.277 10.0508 618.016 9.60938 617.789 9.33594C617.562 9.05469 617.293 8.86328 616.98 8.76172C616.668 8.66016 616.242 8.60938 615.703 8.60938H613.664ZM613.664 8.14062H615.762C616.973 8.14062 617.844 8.00391 618.375 7.73047C618.852 7.48828 619.223 7.11328 619.488 6.60547C619.762 6.08984 619.898 5.5 619.898 4.83594C619.898 4.14844 619.738 3.53125 619.418 2.98438C619.105 2.4375 618.664 2.01562 618.094 1.71875C617.531 1.41406 616.887 1.26172 616.16 1.26172C615.082 1.26172 614.355 1.59766 613.98 2.26953C613.77 2.65234 613.664 3.25391 613.664 4.07422V8.14062ZM618.234 8.1875C618.758 8.07031 619.234 7.90234 619.664 7.68359C620.102 7.46484 620.461 7.21484 620.742 6.93359C621.023 6.65234 621.238 6.33203 621.387 5.97266C621.543 5.61328 621.621 5.23828 621.621 4.84766C621.621 3.99609 621.316 3.25391 620.707 2.62109C620.098 1.98828 619.293 1.58203 618.293 1.40234C618.738 1.64453 619.113 1.93359 619.418 2.26953C619.723 2.60547 619.953 2.98828 620.109 3.41797C620.266 3.83984 620.344 4.29688 620.344 4.78906C620.344 5.64062 620.176 6.33984 619.84 6.88672C619.504 7.42578 618.969 7.85938 618.234 8.1875ZM625.629 17.0117C625.215 16.7852 624.879 16.5781 624.621 16.3906C624.363 16.2031 624.062 15.9414 623.719 15.6055C623.312 15.168 622.992 14.7891 622.758 14.4688C622.531 14.1484 622.152 13.5508 621.621 12.6758C621.121 11.8398 620.668 11.1641 620.262 10.6484C619.863 10.1328 619.461 9.71875 619.055 9.40625C618.648 9.09375 618.199 8.83594 617.707 8.63281C618.02 8.95312 618.277 9.26953 618.48 9.58203C618.59 9.75391 618.785 10.1172 619.066 10.6719C619.152 10.8359 619.234 10.9961 619.312 11.1523C619.398 11.3086 619.48 11.4727 619.559 11.6445C620.395 13.2773 621.293 14.5195 622.254 15.3711C623.215 16.2148 624.34 16.7617 625.629 17.0117ZM610.301 16.4023H613.723L613.266 16.0625C613 15.8672 612.828 15.7109 612.75 15.5938C612.68 15.4766 612.645 15.3008 612.645 15.0664C612.645 14.9414 612.641 14.8594 612.633 14.8203C612.633 14.7734 612.633 14.7266 612.633 14.6797V14.4805V3.52344V3.32422C612.633 3.27734 612.633 3.23047 612.633 3.18359C612.641 3.13672 612.645 3.05469 612.645 2.9375C612.645 2.71875 612.676 2.55078 612.738 2.43359C612.809 2.31641 612.957 2.17188 613.184 2L613.266 1.94141L613.922 1.4375L613.5 1.46094C612.789 1.50781 612.148 1.53125 611.578 1.53125C611.227 1.53125 610.746 1.51953 610.137 1.49609L610.758 1.94141C611.016 2.11328 611.184 2.26563 611.262 2.39844C611.34 2.52344 611.379 2.70312 611.379 2.9375C611.387 3.07031 611.391 3.19922 611.391 3.32422V3.52344V14.4805V14.6797C611.391 14.8047 611.387 14.9336 611.379 15.0664C611.379 15.3086 611.344 15.4883 611.273 15.6055C611.203 15.7148 611.031 15.8672 610.758 16.0625L610.301 16.4023ZM627.527 17L627.562 16.6367C628.406 16.4961 629.02 16.1719 629.402 15.6641C629.699 15.2891 629.848 14.543 629.848 13.4258V4.57812C629.848 3.90625 629.809 3.40625 629.73 3.07812C629.66 2.74219 629.516 2.45313 629.297 2.21094C628.906 1.77344 628.328 1.49219 627.562 1.36719V1.00391C627.859 1.01953 628.012 1.02734 628.02 1.02734L629.391 1.09766C629.836 1.12109 630.312 1.13281 630.82 1.13281C631.734 1.13281 632.727 1.08594 633.797 0.992188C634.789 0.914062 635.523 0.875 636 0.875C637.25 0.875 638.383 1.07031 639.398 1.46094C640.414 1.84375 641.293 2.39453 642.035 3.11328C642.785 3.83203 643.363 4.6875 643.77 5.67969C644.176 6.67188 644.379 7.76172 644.379 8.94922C644.379 10.1445 644.168 11.25 643.746 12.2656C643.332 13.2734 642.734 14.1367 641.953 14.8555C641.18 15.5664 640.254 16.1133 639.176 16.4961C638.105 16.8789 636.91 17.0703 635.59 17.0703C635.105 17.0703 634.332 17.0234 633.27 16.9297C632.52 16.8594 631.789 16.8242 631.078 16.8242C630.578 16.8242 630.023 16.8398 629.414 16.8711L627.82 16.9883C627.734 16.9883 627.637 16.9922 627.527 17ZM632.59 3.875L632.566 12.9336C632.566 13.9414 632.656 14.6719 632.836 15.125C633.008 15.5469 633.297 15.875 633.703 16.1094C634.117 16.3359 634.613 16.4492 635.191 16.4492C636.09 16.4492 636.918 16.2656 637.676 15.8984C638.434 15.5234 639.094 14.9922 639.656 14.3047C640.227 13.6094 640.66 12.7891 640.957 11.8438C641.254 10.8984 641.402 9.88281 641.402 8.79688C641.402 7.36719 641.137 6.08594 640.605 4.95312C640.082 3.82031 639.348 2.93359 638.402 2.29297C637.465 1.64453 636.418 1.32031 635.262 1.32031C634.348 1.32031 633.672 1.52734 633.234 1.94141C632.805 2.34766 632.59 2.99219 632.59 3.875ZM629.203 16.4023C629.883 16.332 630.496 16.2969 631.043 16.2969C631.59 16.2969 632.117 16.3242 632.625 16.3789L632.168 16.0625C631.934 15.9062 631.77 15.7578 631.676 15.6172C631.59 15.4766 631.547 15.293 631.547 15.0664C631.539 14.9336 631.535 14.8047 631.535 14.6797V14.4805V3.52344V3.32422C631.535 3.19922 631.539 3.07031 631.547 2.9375C631.547 2.70312 631.582 2.52734 631.652 2.41016C631.73 2.29297 631.902 2.13672 632.168 1.94141L632.789 1.48438C632.102 1.54687 631.508 1.57812 631.008 1.57812C630.539 1.57812 629.953 1.55078 629.25 1.49609L629.039 1.48438L629.66 1.94141C629.91 2.11328 630.074 2.26563 630.152 2.39844C630.238 2.52344 630.281 2.70312 630.281 2.9375C630.281 3.01562 630.281 3.08594 630.281 3.14844C630.289 3.21094 630.293 3.26953 630.293 3.32422V3.52344V14.4805V14.6797C630.293 14.7266 630.289 14.7812 630.281 14.8438C630.281 14.9062 630.281 14.9805 630.281 15.0664C630.281 15.3086 630.246 15.4883 630.176 15.6055C630.105 15.7148 629.934 15.8672 629.66 16.0625L629.203 16.4023ZM637.09 16.4609C637.988 16.25 638.762 15.957 639.41 15.582C640.059 15.207 640.668 14.707 641.238 14.082C642.527 12.6289 643.172 10.9062 643.172 8.91406C643.172 7.71875 642.945 6.60938 642.492 5.58594C642.039 4.5625 641.387 3.69531 640.535 2.98438C639.691 2.26563 638.715 1.75391 637.605 1.44922C638.027 1.65234 638.422 1.88281 638.789 2.14062C639.164 2.39062 639.492 2.66797 639.773 2.97266C640.062 3.27734 640.312 3.58984 640.523 3.91016C641.422 5.27734 641.871 6.90234 641.871 8.78516C641.871 9.78516 641.746 10.7422 641.496 11.6562C641.246 12.5703 640.887 13.3672 640.418 14.0469C640.02 14.6328 639.559 15.1133 639.035 15.4883C638.52 15.8555 637.871 16.1797 637.09 16.4609ZM655.207 1.36719L655.887 5.26953H655.488C655.277 4.56641 655.07 4.01172 654.867 3.60547C654.664 3.19922 654.438 2.85937 654.188 2.58594C653.789 2.14062 653.309 1.79297 652.746 1.54297C652.191 1.29297 651.609 1.16797 651 1.16797C650.141 1.16797 649.438 1.40234 648.891 1.87109C648.344 2.33203 648.07 2.92969 648.07 3.66406C648.07 4.46875 648.426 5.13672 649.137 5.66797C649.504 5.93359 649.895 6.17188 650.309 6.38281C650.73 6.58594 651.387 6.875 652.277 7.25C652.887 7.49219 653.402 7.71094 653.824 7.90625C654.246 8.10156 654.586 8.27734 654.844 8.43359C655.102 8.58984 655.359 8.76953 655.617 8.97266C656.703 9.84766 657.246 10.9922 657.246 12.4062C657.246 13.3359 656.992 14.1758 656.484 14.9258C655.977 15.6758 655.273 16.2656 654.375 16.6953C653.477 17.1172 652.48 17.3281 651.387 17.3281C650.629 17.3281 649.754 17.2148 648.762 16.9883C648.176 16.8477 647.406 16.5977 646.453 16.2383L646.125 16.1211L645.773 11.6797H646.125C646.469 12.875 647.023 13.9414 647.789 14.8789C648.797 16.1055 649.996 16.7188 651.387 16.7188C652.098 16.7188 652.727 16.5859 653.273 16.3203C653.828 16.0469 654.262 15.6758 654.574 15.207C654.887 14.7305 655.043 14.1875 655.043 13.5781C655.043 13.0391 654.922 12.5547 654.68 12.125C654.438 11.6875 654.043 11.2773 653.496 10.8945C652.949 10.5039 652.199 10.1055 651.246 9.69922C649.863 9.09766 649.023 8.71484 648.727 8.55078C648.156 8.23047 647.684 7.88281 647.309 7.50781C646.934 7.13281 646.656 6.72656 646.477 6.28906C646.297 5.85156 646.207 5.38281 646.207 4.88281C646.207 4.10938 646.41 3.40234 646.816 2.76172C647.23 2.12109 647.793 1.61719 648.504 1.25C649.223 0.882813 650.016 0.699219 650.883 0.699219C651.43 0.699219 652.039 0.789063 652.711 0.96875L653.414 1.15625C653.938 1.29688 654.496 1.36719 655.09 1.36719H655.207ZM654.316 16.0156C655.605 15.0859 656.25 13.9688 656.25 12.6641C656.25 12.1484 656.141 11.6484 655.922 11.1641C655.711 10.6719 655.406 10.2539 655.008 9.91016C654.43 9.38672 653.41 8.82031 651.949 8.21094C650.738 7.69531 649.949 7.34766 649.582 7.16797C649.223 6.98828 648.855 6.74609 648.48 6.44141C647.699 5.81641 647.309 5.02734 647.309 4.07422C647.309 3.79297 647.34 3.53906 647.402 3.3125C647.465 3.07812 647.559 2.85547 647.684 2.64453C647.809 2.42578 648.016 2.13672 648.305 1.77734C647.188 2.58203 646.629 3.58594 646.629 4.78906C646.629 5.94531 647.082 6.85938 647.988 7.53125C648.465 7.89062 649.012 8.21094 649.629 8.49219C649.707 8.53125 650.309 8.79688 651.434 9.28906C652.793 9.875 653.73 10.4062 654.246 10.8828C655.066 11.6406 655.477 12.5352 655.477 13.5664C655.477 14.0664 655.383 14.5117 655.195 14.9023C655.016 15.2852 654.723 15.6562 654.316 16.0156ZM646.5 15.5586C647.016 15.8555 647.672 16.1406 648.469 16.4141C647.945 15.9453 647.547 15.5586 647.273 15.2539C647.008 14.9492 646.703 14.5195 646.359 13.9648L646.5 15.5586Z" fill="black"/>
</svg>
