<svg width="75" height="17" viewBox="0 0 75 17" fill="none" xmlns="http://www.w3.org/2000/svg">
<path d="M0.774 2.074H3.438C5.622 2.074 6.714 3.064 6.714 5.044C6.714 6.016 6.396 6.724 5.76 7.168C6.336 7.264 6.786 7.57 7.11 8.086C7.446 8.602 7.614 9.208 7.614 9.904C7.614 10.924 7.29 11.698 6.642 12.226C6.006 12.742 5.166 13 4.122 13H0.774V2.074ZM2.628 11.524H3.654C5.07 11.524 5.778 10.924 5.778 9.724C5.778 8.644 5.034 8.104 3.546 8.104H2.628V11.524ZM2.628 6.772H3.456C4.488 6.772 5.004 6.244 5.004 5.188C5.004 4.06 4.494 3.496 3.474 3.496H2.628V6.772ZM15.4676 13H13.7576V12.352C13.2536 12.94 12.5036 13.234 11.5076 13.234C10.5116 13.234 9.71363 12.85 9.11363 12.082C8.52563 11.314 8.23163 10.414 8.23163 9.382C8.23163 8.35 8.53163 7.474 9.13163 6.754C9.74363 6.022 10.5236 5.656 11.4716 5.656C12.4796 5.656 13.2416 5.956 13.7576 6.556V5.89H15.4676V13ZM13.9556 9.436C13.9556 8.776 13.7696 8.236 13.3976 7.816C13.0256 7.384 12.5456 7.168 11.9576 7.168C11.3816 7.168 10.9076 7.378 10.5356 7.798C10.1756 8.206 9.99563 8.752 9.99563 9.436C9.99563 10.12 10.1816 10.672 10.5536 11.092C10.9256 11.512 11.4056 11.722 11.9936 11.722C12.5816 11.722 13.0556 11.518 13.4156 11.11C13.7756 10.702 13.9556 10.144 13.9556 9.436ZM21.769 7.744C21.325 7.3 20.827 7.078 20.275 7.078C19.627 7.078 19.117 7.312 18.745 7.78C18.373 8.248 18.187 8.824 18.187 9.508C18.187 10.18 18.397 10.732 18.817 11.164C19.237 11.596 19.747 11.812 20.347 11.812C20.863 11.812 21.337 11.584 21.769 11.128V12.802C21.265 13.09 20.683 13.234 20.023 13.234C18.991 13.234 18.133 12.868 17.449 12.136C16.765 11.404 16.423 10.51 16.423 9.454C16.423 8.398 16.771 7.504 17.467 6.772C18.175 6.028 19.057 5.656 20.113 5.656C20.737 5.656 21.289 5.806 21.769 6.106V7.744ZM24.8806 8.878L27.3646 5.89H29.7046L26.7166 9.022L29.9386 13H27.5626L24.9166 9.544L24.8806 13H23.1346V0.705999H24.8806V8.878ZM37.406 12.388C37.406 14.824 36.272 16.042 34.004 16.042C32.996 16.042 32.144 15.766 31.448 15.214C30.752 14.674 30.404 13.966 30.404 13.09H32.258C32.258 13.438 32.432 13.78 32.78 14.116C33.128 14.452 33.518 14.62 33.95 14.62C35.09 14.62 35.66 13.936 35.66 12.568V12.118C35.168 12.742 34.418 13.054 33.41 13.054C32.414 13.054 31.628 12.706 31.052 12.01C30.488 11.314 30.206 10.462 30.206 9.454C30.206 8.362 30.512 7.45 31.124 6.718C31.736 5.986 32.528 5.62 33.5 5.62C34.484 5.62 35.204 5.926 35.66 6.538V5.854H37.406V12.388ZM35.912 9.292C35.912 8.644 35.732 8.122 35.372 7.726C35.012 7.33 34.538 7.132 33.95 7.132C33.362 7.132 32.882 7.348 32.51 7.78C32.15 8.212 31.97 8.758 31.97 9.418C31.97 10.834 32.63 11.542 33.95 11.542C34.55 11.542 35.024 11.332 35.372 10.912C35.732 10.48 35.912 9.94 35.912 9.292ZM40.5226 6.628C40.9666 5.98 41.6626 5.656 42.6106 5.656C42.9106 5.656 43.1866 5.716 43.4386 5.836L43.2226 7.42C42.9586 7.252 42.6706 7.168 42.3586 7.168C41.1346 7.168 40.5226 8.044 40.5226 9.796V13H38.7766V5.89H40.5226V6.628ZM51.0692 9.436C51.0692 10.552 50.7272 11.464 50.0432 12.172C49.3592 12.88 48.4592 13.234 47.3432 13.234C46.2392 13.234 45.3392 12.88 44.6432 12.172C43.9472 11.464 43.5992 10.558 43.5992 9.454C43.5992 8.338 43.9412 7.426 44.6252 6.718C45.3092 6.01 46.2092 5.656 47.3252 5.656C48.4412 5.656 49.3412 6.01 50.0252 6.718C50.7212 7.414 51.0692 8.32 51.0692 9.436ZM45.3632 9.472C45.3632 10.132 45.5492 10.672 45.9212 11.092C46.2932 11.512 46.7732 11.722 47.3612 11.722C47.9492 11.722 48.4172 11.5 48.7652 11.056C49.1252 10.6 49.3052 10.066 49.3052 9.454C49.3052 8.83 49.1252 8.296 48.7652 7.852C48.4052 7.396 47.9312 7.168 47.3432 7.168C46.7672 7.168 46.2932 7.384 45.9212 7.816C45.5492 8.248 45.3632 8.8 45.3632 9.472ZM53.7405 5.89V9.742C53.7405 11.122 54.2205 11.812 55.1805 11.812C56.1405 11.812 56.6205 11.122 56.6205 9.742V5.89H58.3665V10.066C58.3665 12.178 57.3045 13.234 55.1805 13.234C53.0565 13.234 51.9945 12.178 51.9945 10.066V5.89H53.7405ZM61.5285 6.538C62.0205 5.95 62.7465 5.656 63.7065 5.656C65.3385 5.656 66.1545 6.658 66.1545 8.662V13H64.4265V9.238C64.4265 7.738 63.9645 6.988 63.0405 6.988C62.0325 6.988 61.5285 7.792 61.5285 9.4V13H59.7825V5.89H61.5285V6.538ZM72.6088 12.334C72.1408 12.934 71.4028 13.234 70.3948 13.234C69.3868 13.234 68.5828 12.85 67.9828 12.082C67.3948 11.314 67.1008 10.414 67.1008 9.382C67.1008 8.35 67.4008 7.474 68.0008 6.754C68.6128 6.022 69.3928 5.656 70.3408 5.656C71.3488 5.656 72.0928 5.95 72.5728 6.538L72.6088 0.705999H74.3548V13H72.6088V12.334ZM72.8068 9.436C72.8068 8.812 72.6148 8.278 72.2308 7.834C71.8468 7.39 71.3848 7.168 70.8448 7.168C70.3048 7.168 69.8368 7.39 69.4408 7.834C69.0568 8.266 68.8648 8.806 68.8648 9.454C68.8648 10.09 69.0508 10.63 69.4228 11.074C69.8068 11.506 70.2868 11.722 70.8628 11.722C71.4388 11.722 71.9068 11.512 72.2668 11.092C72.6268 10.66 72.8068 10.108 72.8068 9.436Z" fill="black"/>
</svg>
