<svg width="67" height="16" viewBox="0 0 67 16" fill="none" xmlns="http://www.w3.org/2000/svg">
<path d="M11.1084 8.896C11.0724 9.076 11.0364 9.292 11.0004 9.544C10.9644 9.784 10.9224 10.036 10.8744 10.3C10.8264 10.564 10.7724 10.822 10.7124 11.074C10.6644 11.326 10.6104 11.554 10.5504 11.758C10.1664 11.914 9.68635 12.028 9.11035 12.1C8.53435 12.172 7.82635 12.208 6.98635 12.208C6.14635 12.208 5.34235 12.082 4.57435 11.83C3.81835 11.578 3.14635 11.212 2.55835 10.732C1.98235 10.252 1.52035 9.664 1.17235 8.968C0.824352 8.26 0.650352 7.45 0.650352 6.538C0.650352 5.626 0.806352 4.798 1.11835 4.054C1.43035 3.31 1.85635 2.674 2.39635 2.146C2.94835 1.618 3.59035 1.21 4.32235 0.922C5.06635 0.633999 5.86435 0.489999 6.71635 0.489999C7.41235 0.489999 8.01235 0.531999 8.51635 0.616C9.02035 0.687999 9.43435 0.771999 9.75835 0.868C10.1424 0.976 10.4604 1.096 10.7124 1.228C10.7244 1.372 10.7364 1.576 10.7484 1.84C10.7604 2.092 10.7664 2.362 10.7664 2.65C10.7784 2.938 10.7784 3.214 10.7664 3.478C10.7664 3.742 10.7664 3.952 10.7664 4.108H10.2444C10.2084 3.76 10.1244 3.418 9.99235 3.082C9.87235 2.734 9.68635 2.422 9.43435 2.146C9.19435 1.87 8.88235 1.648 8.49835 1.48C8.12635 1.312 7.67035 1.228 7.13035 1.228C6.53035 1.228 5.98435 1.324 5.49235 1.516C5.01235 1.708 4.59835 2.002 4.25035 2.398C3.91435 2.794 3.65035 3.304 3.45835 3.928C3.26635 4.54 3.17035 5.272 3.17035 6.124C3.17035 7.084 3.27835 7.9 3.49435 8.572C3.72235 9.244 4.02235 9.796 4.39435 10.228C4.77835 10.648 5.22835 10.96 5.74435 11.164C6.26035 11.356 6.81835 11.452 7.41835 11.452C7.82635 11.452 8.19235 11.392 8.51635 11.272C8.84035 11.152 9.12835 10.984 9.38035 10.768C9.64435 10.552 9.87835 10.288 10.0824 9.976C10.2984 9.652 10.5024 9.292 10.6944 8.896H11.1084ZM15.7837 12.208C15.1477 12.208 14.5957 12.118 14.1277 11.938C13.6597 11.746 13.2637 11.482 12.9397 11.146C12.6277 10.81 12.3937 10.42 12.2377 9.976C12.0817 9.52 12.0037 9.022 12.0037 8.482C12.0037 7.93 12.0817 7.426 12.2377 6.97C12.3937 6.502 12.6277 6.106 12.9397 5.782C13.2637 5.446 13.6717 5.188 14.1637 5.008C14.6557 4.816 15.2437 4.72 15.9277 4.72C16.6117 4.72 17.1937 4.816 17.6737 5.008C18.1657 5.2 18.5677 5.47 18.8797 5.818C19.2037 6.154 19.4377 6.556 19.5817 7.024C19.7377 7.48 19.8157 7.978 19.8157 8.518C19.8157 9.07 19.7197 9.574 19.5277 10.03C19.3477 10.474 19.0837 10.858 18.7357 11.182C18.3997 11.506 17.9797 11.758 17.4757 11.938C16.9717 12.118 16.4077 12.208 15.7837 12.208ZM14.2717 8.608C14.2717 9.508 14.4037 10.222 14.6677 10.75C14.9437 11.266 15.3457 11.524 15.8737 11.524C16.3897 11.524 16.7917 11.248 17.0797 10.696C17.3677 10.144 17.5117 9.412 17.5117 8.5C17.5117 7.588 17.3737 6.85 17.0977 6.286C16.8337 5.71 16.4257 5.422 15.8737 5.422C15.3337 5.422 14.9317 5.692 14.6677 6.232C14.4037 6.76 14.2717 7.552 14.2717 8.608ZM29.7765 11.506L30.2985 11.398C30.5865 11.338 30.7785 11.266 30.8745 11.182C30.9705 11.086 31.0185 10.906 31.0185 10.642V7.6C31.0185 7.408 31.0065 7.216 30.9825 7.024C30.9585 6.82 30.9105 6.64 30.8385 6.484C30.7665 6.316 30.6585 6.184 30.5145 6.088C30.3825 5.992 30.1965 5.944 29.9565 5.944C29.6565 5.944 29.3685 6.076 29.0925 6.34C28.8165 6.592 28.5885 6.886 28.4085 7.222V10.498C28.4085 10.75 28.4325 10.942 28.4805 11.074C28.5285 11.206 28.6605 11.296 28.8765 11.344L29.4345 11.524V11.992C28.8225 11.944 28.1625 11.92 27.4545 11.92C26.7465 11.92 26.0625 11.944 25.4025 11.992V11.524L25.7625 11.416C25.9665 11.356 26.1105 11.266 26.1945 11.146C26.2905 11.014 26.3385 10.828 26.3385 10.588V7.618C26.3385 7.426 26.3205 7.228 26.2845 7.024C26.2485 6.82 26.1885 6.64 26.1045 6.484C26.0325 6.328 25.9245 6.202 25.7805 6.106C25.6485 5.998 25.4745 5.944 25.2585 5.944C25.0545 5.944 24.8685 5.986 24.7005 6.07C24.5445 6.142 24.4005 6.244 24.2685 6.376C24.1485 6.496 24.0405 6.634 23.9445 6.79C23.8605 6.934 23.7885 7.072 23.7285 7.204V10.516C23.7285 10.816 23.7645 11.02 23.8365 11.128C23.9205 11.236 24.0465 11.308 24.2145 11.344L24.9525 11.524V11.992C24.6525 11.968 24.3105 11.95 23.9265 11.938C23.5545 11.926 23.1705 11.92 22.7745 11.92C22.3785 11.92 21.9885 11.926 21.6045 11.938C21.2205 11.95 20.8665 11.968 20.5425 11.992V11.524L20.9925 11.416C21.2565 11.356 21.4305 11.272 21.5145 11.164C21.6105 11.056 21.6585 10.876 21.6585 10.624V6.916C21.6585 6.772 21.6525 6.652 21.6405 6.556C21.6285 6.448 21.5925 6.364 21.5325 6.304C21.4725 6.232 21.3825 6.178 21.2625 6.142C21.1425 6.106 20.9745 6.07 20.7585 6.034V5.746C20.9145 5.71 21.1125 5.656 21.3525 5.584C21.5925 5.5 21.8385 5.404 22.0905 5.296C22.3545 5.188 22.6005 5.062 22.8285 4.918C23.0685 4.762 23.2545 4.594 23.3865 4.414H23.7285V6.142C24.2205 5.662 24.6345 5.314 24.9705 5.098C25.3065 4.87 25.6845 4.75 26.1045 4.738C26.7045 4.726 27.1845 4.828 27.5445 5.044C27.9165 5.26 28.1865 5.668 28.3545 6.268C28.5465 6.052 28.7265 5.848 28.8945 5.656C29.0625 5.464 29.2365 5.302 29.4165 5.17C29.6085 5.038 29.8185 4.936 30.0465 4.864C30.2745 4.78 30.5445 4.738 30.8565 4.738C31.2165 4.738 31.5345 4.774 31.8105 4.846C32.0985 4.918 32.3325 5.05 32.5125 5.242C32.7045 5.434 32.8485 5.692 32.9445 6.016C33.0405 6.328 33.0885 6.724 33.0885 7.204V10.66C33.0885 11.104 33.1845 11.344 33.3765 11.38L34.0065 11.524V11.992C33.7065 11.968 33.3585 11.95 32.9625 11.938C32.5785 11.926 32.1885 11.92 31.7925 11.92C31.3965 11.92 31.0185 11.926 30.6585 11.938C30.3105 11.95 30.0165 11.962 29.7765 11.974V11.506ZM37.8102 5.692C38.0022 5.536 38.1762 5.398 38.3322 5.278C38.5002 5.158 38.6682 5.056 38.8362 4.972C39.0162 4.888 39.2082 4.828 39.4122 4.792C39.6282 4.744 39.8742 4.72 40.1502 4.72C41.0862 4.72 41.8242 5.026 42.3642 5.638C42.9042 6.238 43.1742 7.084 43.1742 8.176C43.1742 8.788 43.0722 9.334 42.8682 9.814C42.6762 10.294 42.4182 10.702 42.0942 11.038C41.7702 11.362 41.3922 11.614 40.9602 11.794C40.5402 11.962 40.1022 12.046 39.6462 12.046C39.2982 12.046 38.9622 12.01 38.6382 11.938C38.3262 11.866 38.0502 11.728 37.8102 11.524V14.26C37.8102 14.428 37.8582 14.554 37.9542 14.638C38.0622 14.722 38.2662 14.788 38.5662 14.836L39.6462 15.016V15.502C39.4062 15.478 39.1182 15.46 38.7822 15.448C38.4462 15.436 38.0142 15.43 37.4862 15.43H37.0002C36.8082 15.43 36.5922 15.43 36.3522 15.43C36.1242 15.442 35.8962 15.448 35.6682 15.448C35.4402 15.46 35.2242 15.466 35.0202 15.466C34.8282 15.478 34.6722 15.49 34.5522 15.502V15.034L35.3082 14.89C35.4882 14.854 35.6022 14.794 35.6502 14.71C35.7102 14.638 35.7402 14.488 35.7402 14.26V6.304C35.7402 5.86 35.6622 5.632 35.5062 5.62L34.6242 5.476L34.6782 5.224C35.0142 5.14 35.3202 5.05 35.5962 4.954C35.8842 4.858 36.0942 4.78 36.2262 4.72C36.3102 4.684 36.4182 4.636 36.5502 4.576C36.6822 4.504 36.8142 4.432 36.9462 4.36C37.0782 4.276 37.1982 4.198 37.3062 4.126C37.4142 4.054 37.4922 3.988 37.5402 3.928H37.8102V5.692ZM37.8102 6.412V9.742C37.8102 10.174 37.9242 10.534 38.1522 10.822C38.3802 11.098 38.7582 11.236 39.2862 11.236C39.8382 11.236 40.2582 11.002 40.5462 10.534C40.8462 10.054 40.9962 9.4 40.9962 8.572C40.9962 8.176 40.9482 7.81 40.8522 7.474C40.7562 7.126 40.6182 6.826 40.4382 6.574C40.2702 6.322 40.0722 6.124 39.8442 5.98C39.6282 5.836 39.3942 5.764 39.1422 5.764C38.8542 5.764 38.6082 5.824 38.4042 5.944C38.2002 6.064 38.0022 6.22 37.8102 6.412ZM46.8562 12.19C46.3642 12.19 45.9382 12.106 45.5782 11.938C45.2302 11.758 44.9422 11.518 44.7142 11.218C44.4982 10.918 44.3362 10.564 44.2282 10.156C44.1202 9.748 44.0662 9.31 44.0662 8.842C44.0662 8.206 44.1622 7.642 44.3542 7.15C44.5462 6.658 44.8042 6.244 45.1282 5.908C45.4522 5.572 45.8302 5.32 46.2622 5.152C46.6942 4.972 47.1502 4.882 47.6302 4.882C47.9662 4.882 48.2602 4.906 48.5122 4.954C48.7642 5.002 48.9742 5.056 49.1422 5.116C49.3462 5.176 49.5142 5.248 49.6462 5.332L50.8342 4.666L50.9962 4.72V10.264C50.9962 10.744 51.2002 10.972 51.6082 10.948C51.7042 10.948 51.7762 10.936 51.8242 10.912C51.8842 10.876 51.9382 10.846 51.9862 10.822C52.0342 10.786 52.0762 10.75 52.1122 10.714L52.2202 10.966C52.1242 11.194 51.9982 11.398 51.8422 11.578C51.7102 11.734 51.5302 11.878 51.3022 12.01C51.0862 12.13 50.8162 12.19 50.4922 12.19C49.9642 12.19 49.5862 12.034 49.3582 11.722C49.1422 11.398 49.0342 11.008 49.0342 10.552V10.12C48.9742 10.384 48.8842 10.642 48.7642 10.894C48.6562 11.134 48.5182 11.35 48.3502 11.542C48.1822 11.734 47.9722 11.89 47.7202 12.01C47.4802 12.13 47.1922 12.19 46.8562 12.19ZM49.0342 8.05C49.0342 7.798 49.0222 7.534 48.9982 7.258C48.9742 6.982 48.9202 6.73 48.8362 6.502C48.7522 6.262 48.6202 6.064 48.4402 5.908C48.2722 5.752 48.0382 5.674 47.7382 5.674C47.5702 5.674 47.3902 5.722 47.1982 5.818C47.0182 5.902 46.8502 6.046 46.6942 6.25C46.5382 6.454 46.4062 6.736 46.2982 7.096C46.2022 7.444 46.1542 7.876 46.1542 8.392C46.1542 8.752 46.1782 9.094 46.2262 9.418C46.2862 9.742 46.3762 10.024 46.4962 10.264C46.6162 10.504 46.7602 10.696 46.9282 10.84C47.1082 10.972 47.3182 11.038 47.5582 11.038C47.7982 11.038 48.0082 10.96 48.1882 10.804C48.3682 10.648 48.5182 10.444 48.6382 10.192C48.7702 9.928 48.8662 9.628 48.9262 9.292C48.9982 8.956 49.0342 8.608 49.0342 8.248V8.05ZM52.7992 11.992V11.704L53.3392 11.542C53.5792 11.47 53.7292 11.38 53.7892 11.272C53.8612 11.152 53.8972 10.936 53.8972 10.624V7.168C53.8972 6.928 53.8492 6.748 53.7532 6.628C53.6572 6.508 53.4292 6.424 53.0692 6.376L52.7632 6.34V5.998C52.9912 5.938 53.2372 5.86 53.5012 5.764C53.7772 5.656 54.0412 5.536 54.2932 5.404C54.5572 5.26 54.7972 5.098 55.0132 4.918C55.2412 4.738 55.4272 4.54 55.5712 4.324H55.8952C55.8952 4.672 55.9012 4.996 55.9132 5.296C55.9252 5.596 55.9432 5.944 55.9672 6.34C56.0632 6.136 56.1532 5.956 56.2372 5.8C56.3332 5.644 56.4772 5.452 56.6692 5.224C56.8492 5.008 57.0352 4.876 57.2272 4.828C57.4192 4.768 57.5932 4.738 57.7492 4.738C58.0492 4.738 58.3132 4.828 58.5412 5.008C58.7692 5.188 58.8832 5.488 58.8832 5.908C58.8832 6.292 58.7992 6.604 58.6312 6.844C58.4632 7.072 58.2112 7.186 57.8752 7.186C57.7072 7.186 57.5632 7.138 57.4432 7.042C57.3352 6.946 57.2392 6.844 57.1552 6.736C57.0832 6.628 57.0112 6.526 56.9392 6.43C56.8672 6.334 56.7952 6.286 56.7232 6.286C56.5552 6.286 56.4052 6.4 56.2732 6.628C56.1532 6.856 56.0692 7.138 56.0212 7.474C55.9972 7.618 55.9792 7.75 55.9672 7.87C55.9552 7.978 55.9552 8.074 55.9672 8.158V10.66C55.9672 10.936 56.0212 11.122 56.1292 11.218C56.2372 11.314 56.4532 11.41 56.7772 11.506L57.3712 11.686V11.974C57.1072 11.95 56.8072 11.938 56.4712 11.938C56.1352 11.926 55.8172 11.92 55.5172 11.92H55.1032C54.7072 11.92 54.3112 11.926 53.9152 11.938C53.5192 11.95 53.1472 11.968 52.7992 11.992ZM66.3347 7.69H61.8707C61.8467 7.81 61.8287 7.882 61.8167 7.906C61.8167 7.93 61.8167 8.002 61.8167 8.122C61.8167 8.506 61.8707 8.86 61.9787 9.184C62.0867 9.496 62.2367 9.772 62.4287 10.012C62.6327 10.24 62.8727 10.42 63.1487 10.552C63.4367 10.684 63.7487 10.75 64.0847 10.75C64.5047 10.75 64.8887 10.696 65.2367 10.588C65.5967 10.468 65.9747 10.216 66.3707 9.832L66.4427 10.102C66.2987 10.378 66.1307 10.642 65.9387 10.894C65.7587 11.146 65.5367 11.368 65.2727 11.56C65.0087 11.752 64.6967 11.908 64.3367 12.028C63.9887 12.148 63.5747 12.208 63.0947 12.208C62.5907 12.208 62.1287 12.124 61.7087 11.956C61.2887 11.776 60.9287 11.524 60.6287 11.2C60.3407 10.876 60.1127 10.486 59.9447 10.03C59.7887 9.574 59.7107 9.064 59.7107 8.5C59.7107 7.936 59.7947 7.426 59.9627 6.97C60.1427 6.502 60.3887 6.106 60.7007 5.782C61.0247 5.446 61.4147 5.188 61.8707 5.008C62.3267 4.828 62.8367 4.738 63.4007 4.738C63.9167 4.738 64.3547 4.816 64.7147 4.972C65.0747 5.128 65.3687 5.344 65.5967 5.62C65.8367 5.884 66.0107 6.196 66.1187 6.556C66.2387 6.916 66.3107 7.294 66.3347 7.69ZM61.9607 7.024H63.6527C63.9767 7.024 64.1387 6.868 64.1387 6.556C64.1387 6.208 64.0847 5.914 63.9767 5.674C63.8687 5.422 63.6527 5.296 63.3287 5.296C62.6567 5.296 62.2007 5.872 61.9607 7.024Z" fill="#151CBD"/>
</svg>
