<svg width="67" height="14" viewBox="0 0 67 14" fill="none" xmlns="http://www.w3.org/2000/svg">
<path d="M8.082 4.684C7.446 3.916 6.648 3.532 5.688 3.532C4.692 3.532 3.858 3.946 3.186 4.774C2.514 5.59 2.178 6.526 2.178 7.582C2.178 8.602 2.508 9.52 3.168 10.336C3.84 11.14 4.674 11.542 5.67 11.542C6.618 11.542 7.422 11.158 8.082 10.39V12.64C7.194 13.072 6.372 13.288 5.616 13.288C4.104 13.288 2.832 12.73 1.8 11.614C0.768 10.498 0.252 9.166 0.252 7.618C0.252 6.01 0.768 4.636 1.8 3.496C2.832 2.356 4.116 1.786 5.652 1.786C6.456 1.786 7.266 1.996 8.082 2.416V4.684ZM16.4228 9.436C16.4228 10.552 16.0808 11.464 15.3968 12.172C14.7128 12.88 13.8128 13.234 12.6968 13.234C11.5928 13.234 10.6928 12.88 9.99675 12.172C9.30075 11.464 8.95275 10.558 8.95275 9.454C8.95275 8.338 9.29475 7.426 9.97875 6.718C10.6628 6.01 11.5628 5.656 12.6788 5.656C13.7948 5.656 14.6948 6.01 15.3788 6.718C16.0748 7.414 16.4228 8.32 16.4228 9.436ZM10.7168 9.472C10.7168 10.132 10.9028 10.672 11.2748 11.092C11.6468 11.512 12.1268 11.722 12.7148 11.722C13.3028 11.722 13.7708 11.5 14.1188 11.056C14.4788 10.6 14.6588 10.066 14.6588 9.454C14.6588 8.83 14.4788 8.296 14.1188 7.852C13.7588 7.396 13.2848 7.168 12.6968 7.168C12.1208 7.168 11.6468 7.384 11.2748 7.816C10.9028 8.248 10.7168 8.8 10.7168 9.472ZM19.1301 6.538C19.6221 5.95 20.3481 5.656 21.3081 5.656C22.9401 5.656 23.7561 6.658 23.7561 8.662V13H22.0281V9.238C22.0281 7.738 21.5661 6.988 20.6421 6.988C19.6341 6.988 19.1301 7.792 19.1301 9.4V13H17.3841V5.89H19.1301V6.538ZM30.0483 7.744C29.6043 7.3 29.1063 7.078 28.5543 7.078C27.9063 7.078 27.3963 7.312 27.0243 7.78C26.6523 8.248 26.4663 8.824 26.4663 9.508C26.4663 10.18 26.6763 10.732 27.0963 11.164C27.5163 11.596 28.0263 11.812 28.6263 11.812C29.1423 11.812 29.6163 11.584 30.0483 11.128V12.802C29.5443 13.09 28.9623 13.234 28.3023 13.234C27.2703 13.234 26.4123 12.868 25.7283 12.136C25.0443 11.404 24.7023 10.51 24.7023 9.454C24.7023 8.398 25.0503 7.504 25.7463 6.772C26.4543 6.028 27.3363 5.656 28.3923 5.656C29.0163 5.656 29.5683 5.806 30.0483 6.106V7.744ZM33.1959 13H31.4499V0.705999H33.1959V13ZM36.4788 5.89V9.742C36.4788 11.122 36.9588 11.812 37.9188 11.812C38.8788 11.812 39.3588 11.122 39.3588 9.742V5.89H41.1048V10.066C41.1048 12.178 40.0428 13.234 37.9188 13.234C35.7948 13.234 34.7328 12.178 34.7328 10.066V5.89H36.4788ZM46.3188 7.366C45.9348 7.006 45.5328 6.826 45.1128 6.826C44.4768 6.826 44.1588 7.114 44.1588 7.69C44.1588 8.014 44.4468 8.278 45.0228 8.482C46.0788 8.866 46.7328 9.22 46.9848 9.544C47.2368 9.856 47.3628 10.246 47.3628 10.714C47.3628 11.482 47.0928 12.094 46.5528 12.55C46.0248 13.006 45.3708 13.234 44.5908 13.234C43.5828 13.234 42.7488 12.838 42.0888 12.046L42.8628 11.056C43.4628 11.656 44.0148 11.956 44.5188 11.956C45.2508 11.956 45.6168 11.602 45.6168 10.894C45.6168 10.534 45.4248 10.27 45.0408 10.102C44.6568 9.922 44.3628 9.79 44.1588 9.706C43.0548 9.226 42.5028 8.644 42.5028 7.96C42.5028 7.276 42.7068 6.724 43.1148 6.304C43.5348 5.872 44.0808 5.656 44.7528 5.656C45.7128 5.656 46.4748 5.902 47.0388 6.394L46.3188 7.366ZM50.6042 2.902C50.6042 3.178 50.5022 3.418 50.2982 3.622C50.0942 3.826 49.8542 3.928 49.5782 3.928C49.3022 3.928 49.0622 3.826 48.8582 3.622C48.6542 3.418 48.5522 3.178 48.5522 2.902C48.5522 2.626 48.6542 2.386 48.8582 2.182C49.0622 1.978 49.3022 1.876 49.5782 1.876C49.8542 1.876 50.0942 1.978 50.2982 2.182C50.5022 2.386 50.6042 2.626 50.6042 2.902ZM50.4602 13H48.7142V5.89H50.4602V13ZM59.12 9.436C59.12 10.552 58.778 11.464 58.094 12.172C57.41 12.88 56.51 13.234 55.394 13.234C54.29 13.234 53.39 12.88 52.694 12.172C51.998 11.464 51.65 10.558 51.65 9.454C51.65 8.338 51.992 7.426 52.676 6.718C53.36 6.01 54.26 5.656 55.376 5.656C56.492 5.656 57.392 6.01 58.076 6.718C58.772 7.414 59.12 8.32 59.12 9.436ZM53.414 9.472C53.414 10.132 53.6 10.672 53.972 11.092C54.344 11.512 54.824 11.722 55.412 11.722C56 11.722 56.468 11.5 56.816 11.056C57.176 10.6 57.356 10.066 57.356 9.454C57.356 8.83 57.176 8.296 56.816 7.852C56.456 7.396 55.982 7.168 55.394 7.168C54.818 7.168 54.344 7.384 53.972 7.816C53.6 8.248 53.414 8.8 53.414 9.472ZM61.8273 6.538C62.3193 5.95 63.0453 5.656 64.0053 5.656C65.6373 5.656 66.4533 6.658 66.4533 8.662V13H64.7253V9.238C64.7253 7.738 64.2633 6.988 63.3393 6.988C62.3313 6.988 61.8273 7.792 61.8273 9.4V13H60.0813V5.89H61.8273V6.538Z" fill="black"/>
</svg>
