<svg width="52" height="17" viewBox="0 0 52 17" fill="none" xmlns="http://www.w3.org/2000/svg">
<path d="M2.628 3.64V6.484H5.994V8.05H2.628V13H0.774V2.074H6.21V3.64H2.628ZM9.57684 2.902C9.57684 3.178 9.47484 3.418 9.27084 3.622C9.06684 3.826 8.82684 3.928 8.55084 3.928C8.27484 3.928 8.03484 3.826 7.83084 3.622C7.62684 3.418 7.52484 3.178 7.52484 2.902C7.52484 2.626 7.62684 2.386 7.83084 2.182C8.03484 1.978 8.27484 1.876 8.55084 1.876C8.82684 1.876 9.06684 1.978 9.27084 2.182C9.47484 2.386 9.57684 2.626 9.57684 2.902ZM9.43284 13H7.68684V5.89H9.43284V13ZM12.8547 6.538C13.3467 5.95 14.0727 5.656 15.0327 5.656C16.6647 5.656 17.4807 6.658 17.4807 8.662V13H15.7527V9.238C15.7527 7.738 15.2907 6.988 14.3667 6.988C13.3587 6.988 12.8547 7.792 12.8547 9.4V13H11.1087V5.89H12.8547V6.538ZM23.9349 12.334C23.4669 12.934 22.7289 13.234 21.7209 13.234C20.7129 13.234 19.9089 12.85 19.3089 12.082C18.7209 11.314 18.4269 10.414 18.4269 9.382C18.4269 8.35 18.7269 7.474 19.3269 6.754C19.9389 6.022 20.7189 5.656 21.6669 5.656C22.6749 5.656 23.4189 5.95 23.8989 6.538L23.9349 0.705999H25.6809V13H23.9349V12.334ZM24.1329 9.436C24.1329 8.812 23.9409 8.278 23.5569 7.834C23.1729 7.39 22.7109 7.168 22.1709 7.168C21.6309 7.168 21.1629 7.39 20.7669 7.834C20.3829 8.266 20.1909 8.806 20.1909 9.454C20.1909 10.09 20.3769 10.63 20.7489 11.074C21.1329 11.506 21.6129 11.722 22.1889 11.722C22.7649 11.722 23.2329 11.512 23.5929 11.092C23.9529 10.66 24.1329 10.108 24.1329 9.436ZM29.2643 2.902C29.2643 3.178 29.1623 3.418 28.9583 3.622C28.7543 3.826 28.5143 3.928 28.2383 3.928C27.9623 3.928 27.7223 3.826 27.5183 3.622C27.3143 3.418 27.2123 3.178 27.2123 2.902C27.2123 2.626 27.3143 2.386 27.5183 2.182C27.7223 1.978 27.9623 1.876 28.2383 1.876C28.5143 1.876 28.7543 1.978 28.9583 2.182C29.1623 2.386 29.2643 2.626 29.2643 2.902ZM29.1203 13H27.3743V5.89H29.1203V13ZM32.5422 6.538C33.0342 5.95 33.7602 5.656 34.7202 5.656C36.3522 5.656 37.1682 6.658 37.1682 8.662V13H35.4402V9.238C35.4402 7.738 34.9782 6.988 34.0542 6.988C33.0462 6.988 32.5422 7.792 32.5422 9.4V13H30.7962V5.89H32.5422V6.538ZM45.3864 12.388C45.3864 14.824 44.2524 16.042 41.9844 16.042C40.9764 16.042 40.1244 15.766 39.4284 15.214C38.7324 14.674 38.3844 13.966 38.3844 13.09H40.2384C40.2384 13.438 40.4124 13.78 40.7604 14.116C41.1084 14.452 41.4984 14.62 41.9304 14.62C43.0704 14.62 43.6404 13.936 43.6404 12.568V12.118C43.1484 12.742 42.3984 13.054 41.3904 13.054C40.3944 13.054 39.6084 12.706 39.0324 12.01C38.4684 11.314 38.1864 10.462 38.1864 9.454C38.1864 8.362 38.4924 7.45 39.1044 6.718C39.7164 5.986 40.5084 5.62 41.4804 5.62C42.4644 5.62 43.1844 5.926 43.6404 6.538V5.854H45.3864V12.388ZM43.8924 9.292C43.8924 8.644 43.7124 8.122 43.3524 7.726C42.9924 7.33 42.5184 7.132 41.9304 7.132C41.3424 7.132 40.8624 7.348 40.4904 7.78C40.1304 8.212 39.9504 8.758 39.9504 9.418C39.9504 10.834 40.6104 11.542 41.9304 11.542C42.5304 11.542 43.0044 11.332 43.3524 10.912C43.7124 10.48 43.8924 9.94 43.8924 9.292ZM50.5551 7.366C50.1711 7.006 49.7691 6.826 49.3491 6.826C48.7131 6.826 48.3951 7.114 48.3951 7.69C48.3951 8.014 48.6831 8.278 49.2591 8.482C50.3151 8.866 50.9691 9.22 51.2211 9.544C51.4731 9.856 51.5991 10.246 51.5991 10.714C51.5991 11.482 51.3291 12.094 50.7891 12.55C50.2611 13.006 49.6071 13.234 48.8271 13.234C47.8191 13.234 46.9851 12.838 46.3251 12.046L47.0991 11.056C47.6991 11.656 48.2511 11.956 48.7551 11.956C49.4871 11.956 49.8531 11.602 49.8531 10.894C49.8531 10.534 49.6611 10.27 49.2771 10.102C48.8931 9.922 48.5991 9.79 48.3951 9.706C47.2911 9.226 46.7391 8.644 46.7391 7.96C46.7391 7.276 46.9431 6.724 47.3511 6.304C47.7711 5.872 48.3171 5.656 48.9891 5.656C49.9491 5.656 50.7111 5.902 51.2751 6.394L50.5551 7.366Z" fill="black"/>
</svg>
