<svg width="211" height="65" viewBox="0 0 211 65" fill="none" xmlns="http://www.w3.org/2000/svg">
<path d="M42.493 11.67C43.081 11.67 43.573 11.67 43.969 11.67C44.365 11.658 44.665 11.646 44.869 11.634L47.479 11.49C47.707 11.478 47.863 11.472 47.947 11.472C48.043 11.472 48.115 11.472 48.163 11.472C48.727 11.472 49.255 11.538 49.747 11.67C50.239 11.79 50.665 11.988 51.025 12.264C51.385 12.528 51.667 12.87 51.871 13.29C52.087 13.71 52.195 14.208 52.195 14.784C52.195 15.312 52.087 15.774 51.871 16.17C51.667 16.566 51.391 16.902 51.043 17.178C50.707 17.442 50.317 17.64 49.873 17.772C49.441 17.904 49.003 17.97 48.559 17.97C48.211 17.97 47.905 17.922 47.641 17.826C47.377 17.73 47.131 17.568 46.903 17.34L46.939 17.178C47.095 17.238 47.263 17.28 47.443 17.304C47.623 17.316 47.779 17.322 47.911 17.322C48.211 17.322 48.481 17.28 48.721 17.196C48.973 17.112 49.189 16.98 49.369 16.8C49.549 16.608 49.687 16.356 49.783 16.044C49.891 15.732 49.945 15.342 49.945 14.874C49.945 14.082 49.747 13.44 49.351 12.948C48.955 12.444 48.349 12.192 47.533 12.192C47.365 12.192 47.221 12.198 47.101 12.21C46.993 12.21 46.891 12.216 46.795 12.228C46.699 12.24 46.615 12.258 46.543 12.282C46.483 12.294 46.423 12.312 46.363 12.336V21.57C46.363 21.75 46.399 21.906 46.471 22.038C46.555 22.158 46.729 22.242 46.993 22.29L48.073 22.488V22.992C47.569 22.968 47.089 22.95 46.633 22.938C46.189 22.926 45.805 22.92 45.481 22.92C45.109 22.92 44.725 22.926 44.329 22.938C43.945 22.95 43.453 22.962 42.853 22.974V22.47L43.861 22.272C44.041 22.236 44.161 22.17 44.221 22.074C44.281 21.978 44.311 21.816 44.311 21.588V13.47C44.311 13.014 44.167 12.708 43.879 12.552C43.603 12.396 43.141 12.282 42.493 12.21V11.67ZM57.2326 22.974C56.9446 22.962 56.6086 22.95 56.2246 22.938C55.8526 22.926 55.4686 22.92 55.0726 22.92C54.6766 22.92 54.2866 22.926 53.9026 22.938C53.5306 22.95 53.2006 22.962 52.9126 22.974V22.506L53.7406 22.29C53.8966 22.254 54.0046 22.206 54.0646 22.146C54.1246 22.086 54.1546 21.966 54.1546 21.786V13.002C54.1546 12.75 54.0826 12.564 53.9386 12.444C53.7946 12.324 53.4766 12.192 52.9846 12.048V11.634C53.1046 11.61 53.2786 11.58 53.5066 11.544C53.7346 11.508 53.9866 11.466 54.2626 11.418C54.5386 11.37 54.8146 11.316 55.0906 11.256C55.3666 11.184 55.6066 11.112 55.8106 11.04H56.2246V21.75C56.2246 21.99 56.2486 22.14 56.2966 22.2C56.3446 22.248 56.4586 22.296 56.6386 22.344L57.2326 22.506V22.974ZM60.7341 23.19C60.2421 23.19 59.8161 23.106 59.4561 22.938C59.1081 22.758 58.8201 22.518 58.5921 22.218C58.3761 21.918 58.2141 21.564 58.1061 21.156C57.9981 20.748 57.9441 20.31 57.9441 19.842C57.9441 19.206 58.0401 18.642 58.2321 18.15C58.4241 17.658 58.6821 17.244 59.0061 16.908C59.3301 16.572 59.7081 16.32 60.1401 16.152C60.5721 15.972 61.0281 15.882 61.5081 15.882C61.8441 15.882 62.1381 15.906 62.3901 15.954C62.6421 16.002 62.8521 16.056 63.0201 16.116C63.2241 16.176 63.3921 16.248 63.5241 16.332L64.7121 15.666L64.8741 15.72V21.264C64.8741 21.744 65.0781 21.972 65.4861 21.948C65.5821 21.948 65.6541 21.936 65.7021 21.912C65.7621 21.876 65.8161 21.846 65.8641 21.822C65.9121 21.786 65.9541 21.75 65.9901 21.714L66.0981 21.966C66.0021 22.194 65.8761 22.398 65.7201 22.578C65.5881 22.734 65.4081 22.878 65.1801 23.01C64.9641 23.13 64.6941 23.19 64.3701 23.19C63.8421 23.19 63.4641 23.034 63.2361 22.722C63.0201 22.398 62.9121 22.008 62.9121 21.552V21.12C62.8521 21.384 62.7621 21.642 62.6421 21.894C62.5341 22.134 62.3961 22.35 62.2281 22.542C62.0601 22.734 61.8501 22.89 61.5981 23.01C61.3581 23.13 61.0701 23.19 60.7341 23.19ZM62.9121 19.05C62.9121 18.798 62.9001 18.534 62.8761 18.258C62.8521 17.982 62.7981 17.73 62.7141 17.502C62.6301 17.262 62.4981 17.064 62.3181 16.908C62.1501 16.752 61.9161 16.674 61.6161 16.674C61.4481 16.674 61.2681 16.722 61.0761 16.818C60.8961 16.902 60.7281 17.046 60.5721 17.25C60.4161 17.454 60.2841 17.736 60.1761 18.096C60.0801 18.444 60.0321 18.876 60.0321 19.392C60.0321 19.752 60.0561 20.094 60.1041 20.418C60.1641 20.742 60.2541 21.024 60.3741 21.264C60.4941 21.504 60.6381 21.696 60.8061 21.84C60.9861 21.972 61.1961 22.038 61.4361 22.038C61.6761 22.038 61.8861 21.96 62.0661 21.804C62.2461 21.648 62.3961 21.444 62.5161 21.192C62.6481 20.928 62.7441 20.628 62.8041 20.292C62.8761 19.956 62.9121 19.608 62.9121 19.248V19.05ZM75.6411 22.974C75.0171 22.938 74.3211 22.92 73.5531 22.92C72.7971 22.92 72.1071 22.938 71.4831 22.974V22.524L72.1131 22.38C72.3771 22.344 72.5091 22.11 72.5091 21.678V18.654C72.5091 18.39 72.4971 18.162 72.4731 17.97C72.4611 17.766 72.4191 17.598 72.3471 17.466C72.2871 17.322 72.1851 17.22 72.0411 17.16C71.9091 17.088 71.7231 17.052 71.4831 17.052C71.2071 17.052 70.9131 17.142 70.6011 17.322C70.3011 17.49 70.0491 17.694 69.8451 17.934V21.876C69.8451 22.068 69.9891 22.2 70.2771 22.272L70.7991 22.524V22.974C70.6911 22.962 70.5831 22.956 70.4751 22.956C70.3791 22.944 70.2711 22.938 70.1511 22.938C70.0311 22.926 69.8991 22.92 69.7551 22.92C69.6111 22.92 69.4311 22.92 69.2151 22.92H68.6571C68.2731 22.92 67.8831 22.926 67.4871 22.938C67.1031 22.938 66.8211 22.95 66.6411 22.974V22.524L67.4151 22.344C67.5351 22.32 67.6251 22.266 67.6851 22.182C67.7451 22.098 67.7751 21.972 67.7751 21.804V18.258C67.7751 17.886 67.6971 17.634 67.5411 17.502C67.3971 17.37 67.1331 17.274 66.7491 17.214V16.872C66.9411 16.824 67.1631 16.764 67.4151 16.692C67.6791 16.62 67.9371 16.53 68.1891 16.422C68.4411 16.302 68.6751 16.164 68.8911 16.008C69.1071 15.84 69.2691 15.642 69.3771 15.414H69.8451V17.16C70.2051 16.716 70.5951 16.368 71.0151 16.116C71.4351 15.864 71.8551 15.738 72.2751 15.738C72.9711 15.738 73.5291 15.942 73.9491 16.35C74.3691 16.758 74.5791 17.376 74.5791 18.204V21.624C74.5791 21.864 74.6091 22.038 74.6691 22.146C74.7291 22.254 74.8491 22.332 75.0291 22.38L75.6411 22.524V22.974ZM85.186 22.974C84.562 22.938 83.866 22.92 83.098 22.92C82.342 22.92 81.652 22.938 81.028 22.974V22.524L81.658 22.38C81.922 22.344 82.054 22.11 82.054 21.678V18.654C82.054 18.39 82.042 18.162 82.018 17.97C82.006 17.766 81.964 17.598 81.892 17.466C81.832 17.322 81.73 17.22 81.586 17.16C81.454 17.088 81.268 17.052 81.028 17.052C80.752 17.052 80.458 17.142 80.146 17.322C79.846 17.49 79.594 17.694 79.39 17.934V21.876C79.39 22.068 79.534 22.2 79.822 22.272L80.344 22.524V22.974C80.236 22.962 80.128 22.956 80.02 22.956C79.924 22.944 79.816 22.938 79.696 22.938C79.576 22.926 79.444 22.92 79.3 22.92C79.156 22.92 78.976 22.92 78.76 22.92H78.202C77.818 22.92 77.428 22.926 77.032 22.938C76.648 22.938 76.366 22.95 76.186 22.974V22.524L76.96 22.344C77.08 22.32 77.17 22.266 77.23 22.182C77.29 22.098 77.32 21.972 77.32 21.804V18.258C77.32 17.886 77.242 17.634 77.086 17.502C76.942 17.37 76.678 17.274 76.294 17.214V16.872C76.486 16.824 76.708 16.764 76.96 16.692C77.224 16.62 77.482 16.53 77.734 16.422C77.986 16.302 78.22 16.164 78.436 16.008C78.652 15.84 78.814 15.642 78.922 15.414H79.39V17.16C79.75 16.716 80.14 16.368 80.56 16.116C80.98 15.864 81.4 15.738 81.82 15.738C82.516 15.738 83.074 15.942 83.494 16.35C83.914 16.758 84.124 17.376 84.124 18.204V21.624C84.124 21.864 84.154 22.038 84.214 22.146C84.274 22.254 84.394 22.332 84.574 22.38L85.186 22.524V22.974ZM88.2329 11.85C88.5449 11.85 88.8089 11.97 89.0249 12.21C89.2529 12.438 89.3669 12.708 89.3669 13.02C89.3669 13.296 89.2529 13.548 89.0249 13.776C88.8089 14.004 88.5389 14.118 88.2149 14.118C87.9029 14.118 87.6389 14.016 87.4229 13.812C87.2189 13.596 87.1169 13.332 87.1169 13.02C87.1169 12.708 87.2249 12.438 87.4409 12.21C87.6569 11.97 87.9209 11.85 88.2329 11.85ZM90.0509 22.992C89.8589 22.968 89.5709 22.95 89.1869 22.938C88.8029 22.926 88.3709 22.92 87.8909 22.92C87.4109 22.92 86.9789 22.926 86.5949 22.938C86.2109 22.95 85.9229 22.968 85.7309 22.992V22.524L86.4149 22.344C86.7869 22.272 86.9729 22.05 86.9729 21.678V18.438C86.9729 18.15 86.9009 17.94 86.7569 17.808C86.6129 17.676 86.3249 17.562 85.8929 17.466V17.034C86.0969 16.986 86.3309 16.92 86.5949 16.836C86.8589 16.74 87.1169 16.638 87.3689 16.53C87.6209 16.41 87.8549 16.284 88.0709 16.152C88.2869 16.008 88.4549 15.864 88.5749 15.72C88.6589 15.72 88.7369 15.726 88.8089 15.738C88.8809 15.738 88.9589 15.738 89.0429 15.738V21.732C89.0429 21.912 89.0669 22.05 89.1149 22.146C89.1749 22.23 89.2829 22.29 89.4389 22.326L90.0509 22.524V22.992ZM99.5825 22.974C98.9585 22.938 98.2625 22.92 97.4945 22.92C96.7385 22.92 96.0485 22.938 95.4245 22.974V22.524L96.0545 22.38C96.3185 22.344 96.4505 22.11 96.4505 21.678V18.654C96.4505 18.39 96.4385 18.162 96.4145 17.97C96.4025 17.766 96.3605 17.598 96.2885 17.466C96.2285 17.322 96.1265 17.22 95.9825 17.16C95.8505 17.088 95.6645 17.052 95.4245 17.052C95.1485 17.052 94.8545 17.142 94.5425 17.322C94.2425 17.49 93.9905 17.694 93.7865 17.934V21.876C93.7865 22.068 93.9305 22.2 94.2185 22.272L94.7405 22.524V22.974C94.6325 22.962 94.5245 22.956 94.4165 22.956C94.3205 22.944 94.2125 22.938 94.0925 22.938C93.9725 22.926 93.8405 22.92 93.6965 22.92C93.5525 22.92 93.3725 22.92 93.1565 22.92H92.5985C92.2145 22.92 91.8245 22.926 91.4285 22.938C91.0445 22.938 90.7625 22.95 90.5825 22.974V22.524L91.3565 22.344C91.4765 22.32 91.5665 22.266 91.6265 22.182C91.6865 22.098 91.7165 21.972 91.7165 21.804V18.258C91.7165 17.886 91.6385 17.634 91.4825 17.502C91.3385 17.37 91.0745 17.274 90.6905 17.214V16.872C90.8825 16.824 91.1045 16.764 91.3565 16.692C91.6205 16.62 91.8785 16.53 92.1305 16.422C92.3825 16.302 92.6165 16.164 92.8325 16.008C93.0485 15.84 93.2105 15.642 93.3185 15.414H93.7865V17.16C94.1465 16.716 94.5365 16.368 94.9565 16.116C95.3765 15.864 95.7965 15.738 96.2165 15.738C96.9125 15.738 97.4705 15.942 97.8905 16.35C98.3105 16.758 98.5205 17.376 98.5205 18.204V21.624C98.5205 21.864 98.5505 22.038 98.6105 22.146C98.6705 22.254 98.7905 22.332 98.9705 22.38L99.5825 22.524V22.974ZM103.097 22.866C102.605 22.866 102.179 22.788 101.819 22.632C101.471 22.464 101.183 22.242 100.955 21.966C100.739 21.678 100.577 21.336 100.469 20.94C100.361 20.544 100.307 20.112 100.307 19.644C100.307 19.008 100.403 18.456 100.595 17.988C100.787 17.52 101.045 17.13 101.369 16.818C101.693 16.506 102.071 16.272 102.503 16.116C102.935 15.96 103.391 15.882 103.871 15.882C104.207 15.882 104.501 15.906 104.753 15.954C105.005 16.002 105.215 16.056 105.383 16.116C105.587 16.176 105.755 16.248 105.887 16.332L107.075 15.666L107.237 15.72V22.542C107.237 22.998 107.141 23.424 106.949 23.82C106.769 24.204 106.517 24.54 106.193 24.828C105.869 25.116 105.485 25.344 105.041 25.512C104.597 25.68 104.111 25.764 103.583 25.764C102.923 25.764 102.395 25.716 101.999 25.62C101.603 25.536 101.297 25.422 101.081 25.278C100.865 25.134 100.721 24.972 100.649 24.792C100.589 24.624 100.559 24.45 100.559 24.27C100.559 24.018 100.637 23.826 100.793 23.694C100.961 23.55 101.171 23.478 101.423 23.478C101.675 23.478 101.867 23.52 101.999 23.604C102.131 23.676 102.227 23.772 102.287 23.892C102.359 24.012 102.413 24.138 102.449 24.27C102.485 24.414 102.539 24.546 102.611 24.666C102.695 24.786 102.815 24.882 102.971 24.954C103.127 25.038 103.349 25.08 103.637 25.08C104.153 25.08 104.555 24.9 104.843 24.54C105.131 24.18 105.275 23.592 105.275 22.776V20.922C105.215 21.174 105.125 21.42 105.005 21.66C104.897 21.888 104.759 22.092 104.591 22.272C104.423 22.452 104.213 22.596 103.961 22.704C103.721 22.812 103.433 22.866 103.097 22.866ZM105.275 19.05C105.275 18.798 105.263 18.534 105.239 18.258C105.215 17.982 105.161 17.73 105.077 17.502C104.993 17.262 104.861 17.064 104.681 16.908C104.513 16.752 104.279 16.674 103.979 16.674C103.811 16.674 103.631 16.71 103.439 16.782C103.259 16.842 103.091 16.968 102.935 17.16C102.779 17.34 102.647 17.598 102.539 17.934C102.443 18.258 102.395 18.678 102.395 19.194C102.395 19.926 102.509 20.532 102.737 21.012C102.965 21.48 103.319 21.714 103.799 21.714C104.039 21.714 104.249 21.648 104.429 21.516C104.609 21.372 104.759 21.186 104.879 20.958C105.011 20.718 105.107 20.442 105.167 20.13C105.239 19.806 105.275 19.464 105.275 19.104V19.05ZM36.7756 42.146C36.7756 41.798 36.6616 41.552 36.4336 41.408C36.2176 41.252 35.9596 41.144 35.6596 41.084V40.688C35.7796 40.688 35.9536 40.67 36.1816 40.634C36.4216 40.598 36.6736 40.556 36.9376 40.508C37.2136 40.448 37.4836 40.382 37.7476 40.31C38.0116 40.226 38.2336 40.136 38.4136 40.04H38.8456V46.268C39.1576 45.824 39.4816 45.482 39.8176 45.242C40.1656 44.99 40.5676 44.834 41.0236 44.774C41.1196 44.762 41.2096 44.756 41.2936 44.756C41.3896 44.744 41.4916 44.738 41.5996 44.738C42.2716 44.738 42.7936 44.948 43.1656 45.368C43.5376 45.776 43.7236 46.382 43.7236 47.186V50.714C43.7236 50.834 43.7476 50.954 43.7956 51.074C43.8436 51.182 43.9696 51.272 44.1736 51.344L44.6776 51.524V51.992C44.2936 51.968 43.9216 51.95 43.5616 51.938C43.2136 51.926 42.9316 51.92 42.7156 51.92C42.5116 51.92 42.2116 51.926 41.8156 51.938C41.4196 51.95 41.0356 51.968 40.6636 51.992V51.524L41.2216 51.326C41.3896 51.266 41.5036 51.182 41.5636 51.074C41.6236 50.954 41.6536 50.792 41.6536 50.588V47.402C41.6536 47.006 41.5756 46.694 41.4196 46.466C41.2756 46.238 40.9816 46.124 40.5376 46.124C40.3216 46.124 40.1176 46.172 39.9256 46.268C39.7456 46.352 39.5836 46.46 39.4396 46.592C39.2956 46.712 39.1696 46.85 39.0616 47.006C38.9656 47.15 38.8936 47.276 38.8456 47.384V50.588C38.8456 50.72 38.8696 50.846 38.9176 50.966C38.9656 51.074 39.0556 51.158 39.1876 51.218L39.9616 51.524V51.992C39.7696 51.968 39.4696 51.95 39.0616 51.938C38.6536 51.926 38.2396 51.92 37.8196 51.92C37.3996 51.92 37.0096 51.926 36.6496 51.938C36.3016 51.95 36.0316 51.968 35.8396 51.992V51.524L36.3976 51.326C36.5416 51.266 36.6376 51.17 36.6856 51.038C36.7456 50.906 36.7756 50.768 36.7756 50.624V42.146ZM47.7241 40.85C48.0361 40.85 48.3001 40.97 48.5161 41.21C48.7441 41.438 48.8581 41.708 48.8581 42.02C48.8581 42.296 48.7441 42.548 48.5161 42.776C48.3001 43.004 48.0301 43.118 47.7061 43.118C47.3941 43.118 47.1301 43.016 46.9141 42.812C46.7101 42.596 46.6081 42.332 46.6081 42.02C46.6081 41.708 46.7161 41.438 46.9321 41.21C47.1481 40.97 47.4121 40.85 47.7241 40.85ZM49.5421 51.992C49.3501 51.968 49.0621 51.95 48.6781 51.938C48.2941 51.926 47.8621 51.92 47.3821 51.92C46.9021 51.92 46.4701 51.926 46.0861 51.938C45.7021 51.95 45.4141 51.968 45.2221 51.992V51.524L45.9061 51.344C46.2781 51.272 46.4641 51.05 46.4641 50.678V47.438C46.4641 47.15 46.3921 46.94 46.2481 46.808C46.1041 46.676 45.8161 46.562 45.3841 46.466V46.034C45.5881 45.986 45.8221 45.92 46.0861 45.836C46.3501 45.74 46.6081 45.638 46.8601 45.53C47.1121 45.41 47.3461 45.284 47.5621 45.152C47.7781 45.008 47.9461 44.864 48.0661 44.72C48.1501 44.72 48.2281 44.726 48.3001 44.738C48.3721 44.738 48.4501 44.738 48.5341 44.738V50.732C48.5341 50.912 48.5581 51.05 48.6061 51.146C48.6661 51.23 48.7741 51.29 48.9301 51.326L49.5421 51.524V51.992ZM54.8437 47.114C54.8077 46.946 54.7537 46.766 54.6817 46.574C54.6217 46.37 54.5257 46.184 54.3937 46.016C54.2737 45.848 54.1117 45.71 53.9077 45.602C53.7037 45.482 53.4457 45.422 53.1337 45.422C52.9897 45.422 52.8457 45.434 52.7017 45.458C52.5697 45.482 52.4437 45.524 52.3237 45.584C52.2037 45.644 52.1077 45.728 52.0357 45.836C51.9637 45.944 51.9277 46.082 51.9277 46.25C51.9277 46.43 51.9757 46.586 52.0717 46.718C52.1677 46.838 52.2997 46.946 52.4677 47.042C52.6477 47.126 52.8577 47.204 53.0977 47.276C53.3497 47.348 53.6257 47.426 53.9257 47.51C54.3217 47.618 54.6457 47.744 54.8977 47.888C55.1497 48.032 55.3477 48.194 55.4917 48.374C55.6357 48.554 55.7317 48.752 55.7797 48.968C55.8397 49.172 55.8697 49.394 55.8697 49.634C55.8697 50.114 55.7797 50.522 55.5997 50.858C55.4197 51.182 55.1797 51.446 54.8797 51.65C54.5797 51.842 54.2317 51.986 53.8357 52.082C53.4517 52.166 53.0557 52.208 52.6477 52.208C52.2157 52.208 51.8017 52.172 51.4057 52.1C51.0217 52.016 50.6917 51.896 50.4157 51.74L50.2357 49.526H50.6857C50.8537 50.174 51.1057 50.666 51.4417 51.002C51.7897 51.338 52.2577 51.506 52.8457 51.506C53.1937 51.506 53.5057 51.422 53.7817 51.254C54.0697 51.086 54.2137 50.81 54.2137 50.426C54.2137 50.078 54.0877 49.826 53.8357 49.67C53.5957 49.502 53.1757 49.346 52.5757 49.202C51.6997 48.998 51.0877 48.722 50.7397 48.374C50.3917 48.014 50.2177 47.522 50.2177 46.898C50.2177 46.538 50.3017 46.226 50.4697 45.962C50.6497 45.686 50.8777 45.458 51.1537 45.278C51.4417 45.098 51.7597 44.966 52.1077 44.882C52.4677 44.786 52.8337 44.738 53.2057 44.738C53.5777 44.738 53.9437 44.774 54.3037 44.846C54.6637 44.918 54.9637 45.026 55.2037 45.17L55.3117 47.114H54.8437ZM59.4045 43.244H59.8005C59.8005 43.568 59.8005 43.892 59.8005 44.216C59.8125 44.528 59.8185 44.846 59.8185 45.17L62.0685 45.116V45.962L59.8185 46.034V49.274C59.8185 49.802 59.8845 50.192 60.0165 50.444C60.1485 50.696 60.4245 50.822 60.8445 50.822C61.0245 50.822 61.2225 50.804 61.4385 50.768C61.6545 50.72 61.8885 50.588 62.1405 50.372L62.3025 50.624C62.2185 50.792 62.1045 50.972 61.9605 51.164C61.8165 51.344 61.6365 51.512 61.4205 51.668C61.2165 51.824 60.9825 51.956 60.7185 52.064C60.4545 52.16 60.1545 52.208 59.8185 52.208C59.1465 52.208 58.6365 52.04 58.2885 51.704C57.9525 51.356 57.7845 50.768 57.7845 49.94V46.07C57.6165 46.07 57.4545 46.076 57.2985 46.088C57.1425 46.088 56.9805 46.088 56.8125 46.088C56.6445 46.088 56.5545 46.01 56.5425 45.854C56.5425 45.698 56.6265 45.584 56.7945 45.512C57.0585 45.404 57.2985 45.29 57.5145 45.17C57.7425 45.05 57.9285 44.93 58.0725 44.81C58.1445 44.75 58.2405 44.672 58.3605 44.576C58.4925 44.468 58.6245 44.348 58.7565 44.216C58.8885 44.084 59.0085 43.934 59.1165 43.766C59.2365 43.598 59.3325 43.424 59.4045 43.244ZM66.6548 52.208C66.0188 52.208 65.4668 52.118 64.9988 51.938C64.5308 51.746 64.1348 51.482 63.8108 51.146C63.4988 50.81 63.2648 50.42 63.1088 49.976C62.9528 49.52 62.8748 49.022 62.8748 48.482C62.8748 47.93 62.9528 47.426 63.1088 46.97C63.2648 46.502 63.4988 46.106 63.8108 45.782C64.1348 45.446 64.5428 45.188 65.0348 45.008C65.5268 44.816 66.1148 44.72 66.7988 44.72C67.4828 44.72 68.0648 44.816 68.5448 45.008C69.0368 45.2 69.4388 45.47 69.7508 45.818C70.0748 46.154 70.3088 46.556 70.4528 47.024C70.6088 47.48 70.6868 47.978 70.6868 48.518C70.6868 49.07 70.5908 49.574 70.3988 50.03C70.2188 50.474 69.9548 50.858 69.6068 51.182C69.2708 51.506 68.8508 51.758 68.3468 51.938C67.8428 52.118 67.2788 52.208 66.6548 52.208ZM65.1428 48.608C65.1428 49.508 65.2748 50.222 65.5388 50.75C65.8148 51.266 66.2168 51.524 66.7448 51.524C67.2608 51.524 67.6628 51.248 67.9508 50.696C68.2388 50.144 68.3828 49.412 68.3828 48.5C68.3828 47.588 68.2448 46.85 67.9688 46.286C67.7048 45.71 67.2968 45.422 66.7448 45.422C66.2048 45.422 65.8028 45.692 65.5388 46.232C65.2748 46.76 65.1428 47.552 65.1428 48.608ZM71.4496 51.992V51.704L71.9896 51.542C72.2296 51.47 72.3796 51.38 72.4396 51.272C72.5116 51.152 72.5476 50.936 72.5476 50.624V47.168C72.5476 46.928 72.4996 46.748 72.4036 46.628C72.3076 46.508 72.0796 46.424 71.7196 46.376L71.4136 46.34V45.998C71.6416 45.938 71.8876 45.86 72.1516 45.764C72.4276 45.656 72.6916 45.536 72.9436 45.404C73.2076 45.26 73.4476 45.098 73.6636 44.918C73.8916 44.738 74.0776 44.54 74.2216 44.324H74.5456C74.5456 44.672 74.5516 44.996 74.5636 45.296C74.5756 45.596 74.5936 45.944 74.6176 46.34C74.7136 46.136 74.8036 45.956 74.8876 45.8C74.9836 45.644 75.1276 45.452 75.3196 45.224C75.4996 45.008 75.6856 44.876 75.8776 44.828C76.0696 44.768 76.2436 44.738 76.3996 44.738C76.6996 44.738 76.9636 44.828 77.1916 45.008C77.4196 45.188 77.5336 45.488 77.5336 45.908C77.5336 46.292 77.4496 46.604 77.2816 46.844C77.1136 47.072 76.8616 47.186 76.5256 47.186C76.3576 47.186 76.2136 47.138 76.0936 47.042C75.9856 46.946 75.8896 46.844 75.8056 46.736C75.7336 46.628 75.6616 46.526 75.5896 46.43C75.5176 46.334 75.4456 46.286 75.3736 46.286C75.2056 46.286 75.0556 46.4 74.9236 46.628C74.8036 46.856 74.7196 47.138 74.6716 47.474C74.6476 47.618 74.6296 47.75 74.6176 47.87C74.6056 47.978 74.6056 48.074 74.6176 48.158V50.66C74.6176 50.936 74.6716 51.122 74.7796 51.218C74.8876 51.314 75.1036 51.41 75.4276 51.506L76.0216 51.686V51.974C75.7576 51.95 75.4576 51.938 75.1216 51.938C74.7856 51.926 74.4676 51.92 74.1676 51.92H73.7536C73.3576 51.92 72.9616 51.926 72.5656 51.938C72.1696 51.95 71.7976 51.968 71.4496 51.992ZM80.6831 40.85C80.9951 40.85 81.2591 40.97 81.4751 41.21C81.7031 41.438 81.8171 41.708 81.8171 42.02C81.8171 42.296 81.7031 42.548 81.4751 42.776C81.2591 43.004 80.9891 43.118 80.6651 43.118C80.3531 43.118 80.0891 43.016 79.8731 42.812C79.6691 42.596 79.5671 42.332 79.5671 42.02C79.5671 41.708 79.6751 41.438 79.8911 41.21C80.1071 40.97 80.3711 40.85 80.6831 40.85ZM82.5011 51.992C82.3091 51.968 82.0211 51.95 81.6371 51.938C81.2531 51.926 80.8211 51.92 80.3411 51.92C79.8611 51.92 79.4291 51.926 79.0451 51.938C78.6611 51.95 78.3731 51.968 78.1811 51.992V51.524L78.8651 51.344C79.2371 51.272 79.4231 51.05 79.4231 50.678V47.438C79.4231 47.15 79.3511 46.94 79.2071 46.808C79.0631 46.676 78.7751 46.562 78.3431 46.466V46.034C78.5471 45.986 78.7811 45.92 79.0451 45.836C79.3091 45.74 79.5671 45.638 79.8191 45.53C80.0711 45.41 80.3051 45.284 80.5211 45.152C80.7371 45.008 80.9051 44.864 81.0251 44.72C81.1091 44.72 81.1871 44.726 81.2591 44.738C81.3311 44.738 81.4091 44.738 81.4931 44.738V50.732C81.4931 50.912 81.5171 51.05 81.5651 51.146C81.6251 51.23 81.7331 51.29 81.8891 51.326L82.5011 51.524V51.992ZM89.6927 50.228C89.5607 50.444 89.4047 50.672 89.2247 50.912C89.0567 51.14 88.8467 51.35 88.5947 51.542C88.3547 51.734 88.0727 51.896 87.7487 52.028C87.4247 52.148 87.0587 52.208 86.6507 52.208C85.5947 52.208 84.7547 51.89 84.1307 51.254C83.5187 50.606 83.2127 49.724 83.2127 48.608C83.2127 48.032 83.3147 47.51 83.5187 47.042C83.7227 46.562 84.0047 46.154 84.3647 45.818C84.7247 45.47 85.1447 45.206 85.6247 45.026C86.1167 44.834 86.6507 44.738 87.2267 44.738C87.8747 44.738 88.4087 44.84 88.8287 45.044C89.2487 45.248 89.4587 45.542 89.4587 45.926C89.4587 46.166 89.3927 46.352 89.2607 46.484C89.1407 46.616 88.9847 46.682 88.7927 46.682C88.6127 46.682 88.4387 46.622 88.2707 46.502C88.1027 46.37 87.9287 46.232 87.7487 46.088C87.5687 45.944 87.3827 45.812 87.1907 45.692C87.0107 45.56 86.8247 45.494 86.6327 45.494C86.3687 45.494 86.1467 45.578 85.9667 45.746C85.7867 45.902 85.6367 46.106 85.5167 46.358C85.4087 46.61 85.3307 46.892 85.2827 47.204C85.2347 47.504 85.2107 47.798 85.2107 48.086C85.2107 48.506 85.2647 48.872 85.3727 49.184C85.4807 49.484 85.6307 49.736 85.8227 49.94C86.0147 50.144 86.2367 50.306 86.4887 50.426C86.7407 50.534 87.0047 50.606 87.2807 50.642C87.7127 50.714 88.1207 50.678 88.5047 50.534C88.9007 50.378 89.2547 50.162 89.5667 49.886L89.6927 50.228ZM93.2976 52.19C92.8056 52.19 92.3796 52.106 92.0196 51.938C91.6716 51.758 91.3836 51.518 91.1556 51.218C90.9396 50.918 90.7776 50.564 90.6696 50.156C90.5616 49.748 90.5076 49.31 90.5076 48.842C90.5076 48.206 90.6036 47.642 90.7956 47.15C90.9876 46.658 91.2456 46.244 91.5696 45.908C91.8936 45.572 92.2716 45.32 92.7036 45.152C93.1356 44.972 93.5916 44.882 94.0716 44.882C94.4076 44.882 94.7016 44.906 94.9536 44.954C95.2056 45.002 95.4156 45.056 95.5836 45.116C95.7876 45.176 95.9556 45.248 96.0876 45.332L97.2756 44.666L97.4376 44.72V50.264C97.4376 50.744 97.6416 50.972 98.0496 50.948C98.1456 50.948 98.2176 50.936 98.2656 50.912C98.3256 50.876 98.3796 50.846 98.4276 50.822C98.4756 50.786 98.5176 50.75 98.5536 50.714L98.6616 50.966C98.5656 51.194 98.4396 51.398 98.2836 51.578C98.1516 51.734 97.9716 51.878 97.7436 52.01C97.5276 52.13 97.2576 52.19 96.9336 52.19C96.4056 52.19 96.0276 52.034 95.7996 51.722C95.5836 51.398 95.4756 51.008 95.4756 50.552V50.12C95.4156 50.384 95.3256 50.642 95.2056 50.894C95.0976 51.134 94.9596 51.35 94.7916 51.542C94.6236 51.734 94.4136 51.89 94.1616 52.01C93.9216 52.13 93.6336 52.19 93.2976 52.19ZM95.4756 48.05C95.4756 47.798 95.4636 47.534 95.4396 47.258C95.4156 46.982 95.3616 46.73 95.2776 46.502C95.1936 46.262 95.0616 46.064 94.8816 45.908C94.7136 45.752 94.4796 45.674 94.1796 45.674C94.0116 45.674 93.8316 45.722 93.6396 45.818C93.4596 45.902 93.2916 46.046 93.1356 46.25C92.9796 46.454 92.8476 46.736 92.7396 47.096C92.6436 47.444 92.5956 47.876 92.5956 48.392C92.5956 48.752 92.6196 49.094 92.6676 49.418C92.7276 49.742 92.8176 50.024 92.9376 50.264C93.0576 50.504 93.2016 50.696 93.3696 50.84C93.5496 50.972 93.7596 51.038 93.9996 51.038C94.2396 51.038 94.4496 50.96 94.6296 50.804C94.8096 50.648 94.9596 50.444 95.0796 50.192C95.2116 49.928 95.3076 49.628 95.3676 49.292C95.4396 48.956 95.4756 48.608 95.4756 48.248V48.05ZM103.525 51.974C103.237 51.962 102.901 51.95 102.517 51.938C102.145 51.926 101.761 51.92 101.365 51.92C100.969 51.92 100.579 51.926 100.195 51.938C99.8226 51.95 99.4926 51.962 99.2046 51.974V51.506L100.033 51.29C100.189 51.254 100.297 51.206 100.357 51.146C100.417 51.086 100.447 50.966 100.447 50.786V42.002C100.447 41.75 100.375 41.564 100.231 41.444C100.087 41.324 99.7686 41.192 99.2766 41.048V40.634C99.3966 40.61 99.5706 40.58 99.7986 40.544C100.027 40.508 100.279 40.466 100.555 40.418C100.831 40.37 101.107 40.316 101.383 40.256C101.659 40.184 101.899 40.112 102.103 40.04H102.517V50.75C102.517 50.99 102.541 51.14 102.589 51.2C102.637 51.248 102.751 51.296 102.931 51.344L103.525 51.506V51.974ZM108.592 51.992V51.704L109.132 51.542C109.372 51.47 109.522 51.38 109.582 51.272C109.654 51.152 109.69 50.936 109.69 50.624V47.168C109.69 46.928 109.642 46.748 109.546 46.628C109.45 46.508 109.222 46.424 108.862 46.376L108.556 46.34V45.998C108.784 45.938 109.03 45.86 109.294 45.764C109.57 45.656 109.834 45.536 110.086 45.404C110.35 45.26 110.59 45.098 110.806 44.918C111.034 44.738 111.22 44.54 111.364 44.324H111.688C111.688 44.672 111.694 44.996 111.706 45.296C111.718 45.596 111.736 45.944 111.76 46.34C111.856 46.136 111.946 45.956 112.03 45.8C112.126 45.644 112.27 45.452 112.462 45.224C112.642 45.008 112.828 44.876 113.02 44.828C113.212 44.768 113.386 44.738 113.542 44.738C113.842 44.738 114.106 44.828 114.334 45.008C114.562 45.188 114.676 45.488 114.676 45.908C114.676 46.292 114.592 46.604 114.424 46.844C114.256 47.072 114.004 47.186 113.668 47.186C113.5 47.186 113.356 47.138 113.236 47.042C113.128 46.946 113.032 46.844 112.948 46.736C112.876 46.628 112.804 46.526 112.732 46.43C112.66 46.334 112.588 46.286 112.516 46.286C112.348 46.286 112.198 46.4 112.066 46.628C111.946 46.856 111.862 47.138 111.814 47.474C111.79 47.618 111.772 47.75 111.76 47.87C111.748 47.978 111.748 48.074 111.76 48.158V50.66C111.76 50.936 111.814 51.122 111.922 51.218C112.03 51.314 112.246 51.41 112.57 51.506L113.164 51.686V51.974C112.9 51.95 112.6 51.938 112.264 51.938C111.928 51.926 111.61 51.92 111.31 51.92H110.896C110.5 51.92 110.104 51.926 109.708 51.938C109.312 51.95 108.94 51.968 108.592 51.992ZM122.128 47.69H117.664C117.64 47.81 117.622 47.882 117.61 47.906C117.61 47.93 117.61 48.002 117.61 48.122C117.61 48.506 117.664 48.86 117.772 49.184C117.88 49.496 118.03 49.772 118.222 50.012C118.426 50.24 118.666 50.42 118.942 50.552C119.23 50.684 119.542 50.75 119.878 50.75C120.298 50.75 120.682 50.696 121.03 50.588C121.39 50.468 121.768 50.216 122.164 49.832L122.236 50.102C122.092 50.378 121.924 50.642 121.732 50.894C121.552 51.146 121.33 51.368 121.066 51.56C120.802 51.752 120.49 51.908 120.13 52.028C119.782 52.148 119.368 52.208 118.888 52.208C118.384 52.208 117.922 52.124 117.502 51.956C117.082 51.776 116.722 51.524 116.422 51.2C116.134 50.876 115.906 50.486 115.738 50.03C115.582 49.574 115.504 49.064 115.504 48.5C115.504 47.936 115.588 47.426 115.756 46.97C115.936 46.502 116.182 46.106 116.494 45.782C116.818 45.446 117.208 45.188 117.664 45.008C118.12 44.828 118.63 44.738 119.194 44.738C119.71 44.738 120.148 44.816 120.508 44.972C120.868 45.128 121.162 45.344 121.39 45.62C121.63 45.884 121.804 46.196 121.912 46.556C122.032 46.916 122.104 47.294 122.128 47.69ZM117.754 47.024H119.446C119.77 47.024 119.932 46.868 119.932 46.556C119.932 46.208 119.878 45.914 119.77 45.674C119.662 45.422 119.446 45.296 119.122 45.296C118.45 45.296 117.994 45.872 117.754 47.024ZM126.301 45.026L128.587 45.08V45.71L126.337 45.782V50.12C126.337 50.504 126.397 50.792 126.517 50.984C126.649 51.164 126.841 51.278 127.093 51.326L128.065 51.506V51.974C127.309 51.938 126.505 51.92 125.653 51.92H125.095C124.687 51.92 124.273 51.926 123.853 51.938C123.445 51.938 123.151 51.95 122.971 51.974V51.524L123.529 51.398C123.709 51.362 123.847 51.326 123.943 51.29C124.039 51.242 124.111 51.182 124.159 51.11C124.207 51.026 124.237 50.918 124.249 50.786C124.261 50.654 124.267 50.48 124.267 50.264V45.998C124.039 45.95 123.601 45.914 122.953 45.89V45.62C123.241 45.5 123.469 45.398 123.637 45.314C123.805 45.218 123.931 45.134 124.015 45.062C124.111 44.99 124.171 44.918 124.195 44.846C124.219 44.774 124.231 44.696 124.231 44.612C124.231 44.504 124.243 44.318 124.267 44.054C124.291 43.778 124.345 43.472 124.429 43.136C124.525 42.788 124.657 42.434 124.825 42.074C124.993 41.714 125.215 41.384 125.491 41.084C125.779 40.772 126.127 40.52 126.535 40.328C126.955 40.136 127.459 40.04 128.047 40.04C128.143 40.04 128.239 40.046 128.335 40.058C128.431 40.058 128.527 40.064 128.623 40.076C129.007 40.136 129.331 40.25 129.595 40.418C129.871 40.574 130.009 40.82 130.009 41.156C130.009 41.504 129.919 41.78 129.739 41.984C129.571 42.188 129.313 42.29 128.965 42.29C128.689 42.29 128.467 42.224 128.299 42.092C128.143 41.948 128.011 41.792 127.903 41.624C127.795 41.444 127.699 41.288 127.615 41.156C127.543 41.012 127.465 40.94 127.381 40.94C127.081 40.94 126.853 41.03 126.697 41.21C126.553 41.378 126.445 41.6 126.373 41.876C126.313 42.14 126.283 42.44 126.283 42.776C126.283 43.112 126.283 43.442 126.283 43.766C126.283 44.09 126.283 44.36 126.283 44.576C126.283 44.78 126.289 44.93 126.301 45.026ZM136.19 47.69H131.726C131.702 47.81 131.684 47.882 131.672 47.906C131.672 47.93 131.672 48.002 131.672 48.122C131.672 48.506 131.726 48.86 131.834 49.184C131.942 49.496 132.092 49.772 132.284 50.012C132.488 50.24 132.728 50.42 133.004 50.552C133.292 50.684 133.604 50.75 133.94 50.75C134.36 50.75 134.744 50.696 135.092 50.588C135.452 50.468 135.83 50.216 136.226 49.832L136.298 50.102C136.154 50.378 135.986 50.642 135.794 50.894C135.614 51.146 135.392 51.368 135.128 51.56C134.864 51.752 134.552 51.908 134.192 52.028C133.844 52.148 133.43 52.208 132.95 52.208C132.446 52.208 131.984 52.124 131.564 51.956C131.144 51.776 130.784 51.524 130.484 51.2C130.196 50.876 129.968 50.486 129.8 50.03C129.644 49.574 129.566 49.064 129.566 48.5C129.566 47.936 129.65 47.426 129.818 46.97C129.998 46.502 130.244 46.106 130.556 45.782C130.88 45.446 131.27 45.188 131.726 45.008C132.182 44.828 132.692 44.738 133.256 44.738C133.772 44.738 134.21 44.816 134.57 44.972C134.93 45.128 135.224 45.344 135.452 45.62C135.692 45.884 135.866 46.196 135.974 46.556C136.094 46.916 136.166 47.294 136.19 47.69ZM131.816 47.024H133.508C133.832 47.024 133.994 46.868 133.994 46.556C133.994 46.208 133.94 45.914 133.832 45.674C133.724 45.422 133.508 45.296 133.184 45.296C132.512 45.296 132.056 45.872 131.816 47.024ZM137.051 51.992V51.704L137.591 51.542C137.831 51.47 137.981 51.38 138.041 51.272C138.113 51.152 138.149 50.936 138.149 50.624V47.168C138.149 46.928 138.101 46.748 138.005 46.628C137.909 46.508 137.681 46.424 137.321 46.376L137.015 46.34V45.998C137.243 45.938 137.489 45.86 137.753 45.764C138.029 45.656 138.293 45.536 138.545 45.404C138.809 45.26 139.049 45.098 139.265 44.918C139.493 44.738 139.679 44.54 139.823 44.324H140.147C140.147 44.672 140.153 44.996 140.165 45.296C140.177 45.596 140.195 45.944 140.219 46.34C140.315 46.136 140.405 45.956 140.489 45.8C140.585 45.644 140.729 45.452 140.921 45.224C141.101 45.008 141.287 44.876 141.479 44.828C141.671 44.768 141.845 44.738 142.001 44.738C142.301 44.738 142.565 44.828 142.793 45.008C143.021 45.188 143.135 45.488 143.135 45.908C143.135 46.292 143.051 46.604 142.883 46.844C142.715 47.072 142.463 47.186 142.127 47.186C141.959 47.186 141.815 47.138 141.695 47.042C141.587 46.946 141.491 46.844 141.407 46.736C141.335 46.628 141.263 46.526 141.191 46.43C141.119 46.334 141.047 46.286 140.975 46.286C140.807 46.286 140.657 46.4 140.525 46.628C140.405 46.856 140.321 47.138 140.273 47.474C140.249 47.618 140.231 47.75 140.219 47.87C140.207 47.978 140.207 48.074 140.219 48.158V50.66C140.219 50.936 140.273 51.122 140.381 51.218C140.489 51.314 140.705 51.41 141.029 51.506L141.623 51.686V51.974C141.359 51.95 141.059 51.938 140.723 51.938C140.387 51.926 140.069 51.92 139.769 51.92H139.355C138.959 51.92 138.563 51.926 138.167 51.938C137.771 51.95 137.399 51.968 137.051 51.992ZM150.587 47.69H146.123C146.099 47.81 146.081 47.882 146.069 47.906C146.069 47.93 146.069 48.002 146.069 48.122C146.069 48.506 146.123 48.86 146.231 49.184C146.339 49.496 146.489 49.772 146.681 50.012C146.885 50.24 147.125 50.42 147.401 50.552C147.689 50.684 148.001 50.75 148.337 50.75C148.757 50.75 149.141 50.696 149.489 50.588C149.849 50.468 150.227 50.216 150.623 49.832L150.695 50.102C150.551 50.378 150.383 50.642 150.191 50.894C150.011 51.146 149.789 51.368 149.525 51.56C149.261 51.752 148.949 51.908 148.589 52.028C148.241 52.148 147.827 52.208 147.347 52.208C146.843 52.208 146.381 52.124 145.961 51.956C145.541 51.776 145.181 51.524 144.881 51.2C144.593 50.876 144.365 50.486 144.197 50.03C144.041 49.574 143.963 49.064 143.963 48.5C143.963 47.936 144.047 47.426 144.215 46.97C144.395 46.502 144.641 46.106 144.953 45.782C145.277 45.446 145.667 45.188 146.123 45.008C146.579 44.828 147.089 44.738 147.653 44.738C148.169 44.738 148.607 44.816 148.967 44.972C149.327 45.128 149.621 45.344 149.849 45.62C150.089 45.884 150.263 46.196 150.371 46.556C150.491 46.916 150.563 47.294 150.587 47.69ZM146.213 47.024H147.905C148.229 47.024 148.391 46.868 148.391 46.556C148.391 46.208 148.337 45.914 148.229 45.674C148.121 45.422 147.905 45.296 147.581 45.296C146.909 45.296 146.453 45.872 146.213 47.024ZM160.412 51.974C159.788 51.938 159.092 51.92 158.324 51.92C157.568 51.92 156.878 51.938 156.254 51.974V51.524L156.884 51.38C157.148 51.344 157.28 51.11 157.28 50.678V47.654C157.28 47.39 157.268 47.162 157.244 46.97C157.232 46.766 157.19 46.598 157.118 46.466C157.058 46.322 156.956 46.22 156.812 46.16C156.68 46.088 156.494 46.052 156.254 46.052C155.978 46.052 155.684 46.142 155.372 46.322C155.072 46.49 154.82 46.694 154.616 46.934V50.876C154.616 51.068 154.76 51.2 155.048 51.272L155.57 51.524V51.974C155.462 51.962 155.354 51.956 155.246 51.956C155.15 51.944 155.042 51.938 154.922 51.938C154.802 51.926 154.67 51.92 154.526 51.92C154.382 51.92 154.202 51.92 153.986 51.92H153.428C153.044 51.92 152.654 51.926 152.258 51.938C151.874 51.938 151.592 51.95 151.412 51.974V51.524L152.186 51.344C152.306 51.32 152.396 51.266 152.456 51.182C152.516 51.098 152.546 50.972 152.546 50.804V47.258C152.546 46.886 152.468 46.634 152.312 46.502C152.168 46.37 151.904 46.274 151.52 46.214V45.872C151.712 45.824 151.934 45.764 152.186 45.692C152.45 45.62 152.708 45.53 152.96 45.422C153.212 45.302 153.446 45.164 153.662 45.008C153.878 44.84 154.04 44.642 154.148 44.414H154.616V46.16C154.976 45.716 155.366 45.368 155.786 45.116C156.206 44.864 156.626 44.738 157.046 44.738C157.742 44.738 158.3 44.942 158.72 45.35C159.14 45.758 159.35 46.376 159.35 47.204V50.624C159.35 50.864 159.38 51.038 159.44 51.146C159.5 51.254 159.62 51.332 159.8 51.38L160.412 51.524V51.974ZM167.617 50.228C167.485 50.444 167.329 50.672 167.149 50.912C166.981 51.14 166.771 51.35 166.519 51.542C166.279 51.734 165.997 51.896 165.673 52.028C165.349 52.148 164.983 52.208 164.575 52.208C163.519 52.208 162.679 51.89 162.055 51.254C161.443 50.606 161.137 49.724 161.137 48.608C161.137 48.032 161.239 47.51 161.443 47.042C161.647 46.562 161.929 46.154 162.289 45.818C162.649 45.47 163.069 45.206 163.549 45.026C164.041 44.834 164.575 44.738 165.151 44.738C165.799 44.738 166.333 44.84 166.753 45.044C167.173 45.248 167.383 45.542 167.383 45.926C167.383 46.166 167.317 46.352 167.185 46.484C167.065 46.616 166.909 46.682 166.717 46.682C166.537 46.682 166.363 46.622 166.195 46.502C166.027 46.37 165.853 46.232 165.673 46.088C165.493 45.944 165.307 45.812 165.115 45.692C164.935 45.56 164.749 45.494 164.557 45.494C164.293 45.494 164.071 45.578 163.891 45.746C163.711 45.902 163.561 46.106 163.441 46.358C163.333 46.61 163.255 46.892 163.207 47.204C163.159 47.504 163.135 47.798 163.135 48.086C163.135 48.506 163.189 48.872 163.297 49.184C163.405 49.484 163.555 49.736 163.747 49.94C163.939 50.144 164.161 50.306 164.413 50.426C164.665 50.534 164.929 50.606 165.205 50.642C165.637 50.714 166.045 50.678 166.429 50.534C166.825 50.378 167.179 50.162 167.491 49.886L167.617 50.228ZM175.055 47.69H170.591C170.567 47.81 170.549 47.882 170.537 47.906C170.537 47.93 170.537 48.002 170.537 48.122C170.537 48.506 170.591 48.86 170.699 49.184C170.807 49.496 170.957 49.772 171.149 50.012C171.353 50.24 171.593 50.42 171.869 50.552C172.157 50.684 172.469 50.75 172.805 50.75C173.225 50.75 173.609 50.696 173.957 50.588C174.317 50.468 174.695 50.216 175.091 49.832L175.163 50.102C175.019 50.378 174.851 50.642 174.659 50.894C174.479 51.146 174.257 51.368 173.993 51.56C173.729 51.752 173.417 51.908 173.057 52.028C172.709 52.148 172.295 52.208 171.815 52.208C171.311 52.208 170.849 52.124 170.429 51.956C170.009 51.776 169.649 51.524 169.349 51.2C169.061 50.876 168.833 50.486 168.665 50.03C168.509 49.574 168.431 49.064 168.431 48.5C168.431 47.936 168.515 47.426 168.683 46.97C168.863 46.502 169.109 46.106 169.421 45.782C169.745 45.446 170.135 45.188 170.591 45.008C171.047 44.828 171.557 44.738 172.121 44.738C172.637 44.738 173.075 44.816 173.435 44.972C173.795 45.128 174.089 45.344 174.317 45.62C174.557 45.884 174.731 46.196 174.839 46.556C174.959 46.916 175.031 47.294 175.055 47.69ZM170.681 47.024H172.373C172.697 47.024 172.859 46.868 172.859 46.556C172.859 46.208 172.805 45.914 172.697 45.674C172.589 45.422 172.373 45.296 172.049 45.296C171.377 45.296 170.921 45.872 170.681 47.024Z" fill="black"/>
<path d="M111.914 16.008C112.178 16.044 112.736 16.062 113.588 16.062C114.452 16.062 115.064 16.044 115.424 16.008V16.44C115.292 16.44 115.19 16.476 115.118 16.548C115.046 16.608 115.04 16.71 115.1 16.854L116.738 20.85L117.764 18.78L117.188 17.376C117.056 17.052 116.942 16.842 116.846 16.746C116.75 16.65 116.648 16.59 116.54 16.566L116.054 16.44V16.008C116.222 16.032 116.456 16.05 116.756 16.062C117.068 16.062 117.476 16.062 117.98 16.062C118.952 16.062 119.594 16.044 119.906 16.008V16.44L119.654 16.476C119.186 16.548 119.018 16.722 119.15 16.998L120.734 20.742L122.084 17.7C122.192 17.46 122.192 17.226 122.084 16.998C121.988 16.758 121.814 16.614 121.562 16.566L120.824 16.44V16.008C121.088 16.044 121.592 16.062 122.336 16.062C122.72 16.062 123.068 16.062 123.38 16.062C123.692 16.05 123.932 16.032 124.1 16.008V16.44L123.65 16.53C123.458 16.566 123.284 16.674 123.128 16.854C122.984 17.034 122.852 17.262 122.732 17.538L120.176 23.334H119.636L118.034 19.464L116.162 23.334H115.64L112.796 17.034C112.652 16.71 112.424 16.53 112.112 16.494L111.914 16.44V16.008ZM126.782 11.85C127.094 11.85 127.358 11.97 127.574 12.21C127.802 12.438 127.916 12.708 127.916 13.02C127.916 13.296 127.802 13.548 127.574 13.776C127.358 14.004 127.088 14.118 126.764 14.118C126.452 14.118 126.188 14.016 125.972 13.812C125.768 13.596 125.666 13.332 125.666 13.02C125.666 12.708 125.774 12.438 125.99 12.21C126.206 11.97 126.47 11.85 126.782 11.85ZM128.6 22.992C128.408 22.968 128.12 22.95 127.736 22.938C127.352 22.926 126.92 22.92 126.44 22.92C125.96 22.92 125.528 22.926 125.144 22.938C124.76 22.95 124.472 22.968 124.28 22.992V22.524L124.964 22.344C125.336 22.272 125.522 22.05 125.522 21.678V18.438C125.522 18.15 125.45 17.94 125.306 17.808C125.162 17.676 124.874 17.562 124.442 17.466V17.034C124.646 16.986 124.88 16.92 125.144 16.836C125.408 16.74 125.666 16.638 125.918 16.53C126.17 16.41 126.404 16.284 126.62 16.152C126.836 16.008 127.004 15.864 127.124 15.72C127.208 15.72 127.286 15.726 127.358 15.738C127.43 15.738 127.508 15.738 127.592 15.738V21.732C127.592 21.912 127.616 22.05 127.664 22.146C127.724 22.23 127.832 22.29 127.988 22.326L128.6 22.524V22.992ZM131.993 14.244H132.389C132.389 14.568 132.389 14.892 132.389 15.216C132.401 15.528 132.407 15.846 132.407 16.17L134.657 16.116V16.962L132.407 17.034V20.274C132.407 20.802 132.473 21.192 132.605 21.444C132.737 21.696 133.013 21.822 133.433 21.822C133.613 21.822 133.811 21.804 134.027 21.768C134.243 21.72 134.477 21.588 134.729 21.372L134.891 21.624C134.807 21.792 134.693 21.972 134.549 22.164C134.405 22.344 134.225 22.512 134.009 22.668C133.805 22.824 133.571 22.956 133.307 23.064C133.043 23.16 132.743 23.208 132.407 23.208C131.735 23.208 131.225 23.04 130.877 22.704C130.541 22.356 130.373 21.768 130.373 20.94V17.07C130.205 17.07 130.043 17.076 129.887 17.088C129.731 17.088 129.569 17.088 129.401 17.088C129.233 17.088 129.143 17.01 129.131 16.854C129.131 16.698 129.215 16.584 129.383 16.512C129.647 16.404 129.887 16.29 130.103 16.17C130.331 16.05 130.517 15.93 130.661 15.81C130.733 15.75 130.829 15.672 130.949 15.576C131.081 15.468 131.213 15.348 131.345 15.216C131.477 15.084 131.597 14.934 131.705 14.766C131.825 14.598 131.921 14.424 131.993 14.244ZM136.4 13.146C136.4 12.798 136.286 12.552 136.058 12.408C135.842 12.252 135.584 12.144 135.284 12.084V11.688C135.404 11.688 135.578 11.67 135.806 11.634C136.046 11.598 136.298 11.556 136.562 11.508C136.838 11.448 137.108 11.382 137.372 11.31C137.636 11.226 137.858 11.136 138.038 11.04H138.47V17.268C138.782 16.824 139.106 16.482 139.442 16.242C139.79 15.99 140.192 15.834 140.648 15.774C140.744 15.762 140.834 15.756 140.918 15.756C141.014 15.744 141.116 15.738 141.224 15.738C141.896 15.738 142.418 15.948 142.79 16.368C143.162 16.776 143.348 17.382 143.348 18.186V21.714C143.348 21.834 143.372 21.954 143.42 22.074C143.468 22.182 143.594 22.272 143.798 22.344L144.302 22.524V22.992C143.918 22.968 143.546 22.95 143.186 22.938C142.838 22.926 142.556 22.92 142.34 22.92C142.136 22.92 141.836 22.926 141.44 22.938C141.044 22.95 140.66 22.968 140.288 22.992V22.524L140.846 22.326C141.014 22.266 141.128 22.182 141.188 22.074C141.248 21.954 141.278 21.792 141.278 21.588V18.402C141.278 18.006 141.2 17.694 141.044 17.466C140.9 17.238 140.606 17.124 140.162 17.124C139.946 17.124 139.742 17.172 139.55 17.268C139.37 17.352 139.208 17.46 139.064 17.592C138.92 17.712 138.794 17.85 138.686 18.006C138.59 18.15 138.518 18.276 138.47 18.384V21.588C138.47 21.72 138.494 21.846 138.542 21.966C138.59 22.074 138.68 22.158 138.812 22.218L139.586 22.524V22.992C139.394 22.968 139.094 22.95 138.686 22.938C138.278 22.926 137.864 22.92 137.444 22.92C137.024 22.92 136.634 22.926 136.274 22.938C135.926 22.95 135.656 22.968 135.464 22.992V22.524L136.022 22.326C136.166 22.266 136.262 22.17 136.31 22.038C136.37 21.906 136.4 21.768 136.4 21.624V13.146ZM148.806 23.208C148.17 23.208 147.618 23.118 147.15 22.938C146.682 22.746 146.286 22.482 145.962 22.146C145.65 21.81 145.416 21.42 145.26 20.976C145.104 20.52 145.026 20.022 145.026 19.482C145.026 18.93 145.104 18.426 145.26 17.97C145.416 17.502 145.65 17.106 145.962 16.782C146.286 16.446 146.694 16.188 147.186 16.008C147.678 15.816 148.266 15.72 148.95 15.72C149.634 15.72 150.216 15.816 150.696 16.008C151.188 16.2 151.59 16.47 151.902 16.818C152.226 17.154 152.46 17.556 152.604 18.024C152.76 18.48 152.838 18.978 152.838 19.518C152.838 20.07 152.742 20.574 152.55 21.03C152.37 21.474 152.106 21.858 151.758 22.182C151.422 22.506 151.002 22.758 150.498 22.938C149.994 23.118 149.43 23.208 148.806 23.208ZM147.294 19.608C147.294 20.508 147.426 21.222 147.69 21.75C147.966 22.266 148.368 22.524 148.896 22.524C149.412 22.524 149.814 22.248 150.102 21.696C150.39 21.144 150.534 20.412 150.534 19.5C150.534 18.588 150.396 17.85 150.12 17.286C149.856 16.71 149.448 16.422 148.896 16.422C148.356 16.422 147.954 16.692 147.69 17.232C147.426 17.76 147.294 18.552 147.294 19.608ZM153.565 16.062H156.805V20.364C156.805 20.94 156.901 21.348 157.093 21.588C157.297 21.828 157.573 21.948 157.921 21.948C158.209 21.948 158.455 21.906 158.659 21.822C158.875 21.726 159.103 21.576 159.343 21.372V17.214C159.343 17.118 159.337 17.034 159.325 16.962C159.313 16.89 159.265 16.83 159.181 16.782C159.109 16.722 158.983 16.674 158.803 16.638C158.623 16.602 158.371 16.566 158.047 16.53V16.062H161.413V21.174C161.413 21.354 161.419 21.504 161.431 21.624C161.443 21.744 161.479 21.84 161.539 21.912C161.611 21.972 161.719 22.014 161.863 22.038C162.019 22.062 162.235 22.08 162.511 22.092C162.511 22.164 162.511 22.242 162.511 22.326C162.523 22.398 162.529 22.47 162.529 22.542L159.343 23.19V21.822C159.139 22.038 158.947 22.236 158.767 22.416C158.587 22.584 158.401 22.728 158.209 22.848C158.017 22.968 157.801 23.058 157.561 23.118C157.333 23.178 157.063 23.208 156.751 23.208C156.007 23.208 155.485 22.986 155.185 22.542C154.885 22.098 154.735 21.51 154.735 20.778V17.196C154.735 17.088 154.723 17.004 154.699 16.944C154.675 16.872 154.621 16.812 154.537 16.764C154.453 16.704 154.333 16.656 154.177 16.62C154.033 16.584 153.829 16.542 153.565 16.494V16.062ZM165.937 14.244H166.333C166.333 14.568 166.333 14.892 166.333 15.216C166.345 15.528 166.351 15.846 166.351 16.17L168.601 16.116V16.962L166.351 17.034V20.274C166.351 20.802 166.417 21.192 166.549 21.444C166.681 21.696 166.957 21.822 167.377 21.822C167.557 21.822 167.755 21.804 167.971 21.768C168.187 21.72 168.421 21.588 168.673 21.372L168.835 21.624C168.751 21.792 168.637 21.972 168.493 22.164C168.349 22.344 168.169 22.512 167.953 22.668C167.749 22.824 167.515 22.956 167.251 23.064C166.987 23.16 166.687 23.208 166.351 23.208C165.679 23.208 165.169 23.04 164.821 22.704C164.485 22.356 164.317 21.768 164.317 20.94V17.07C164.149 17.07 163.987 17.076 163.831 17.088C163.675 17.088 163.513 17.088 163.345 17.088C163.177 17.088 163.087 17.01 163.075 16.854C163.075 16.698 163.159 16.584 163.327 16.512C163.591 16.404 163.831 16.29 164.047 16.17C164.275 16.05 164.461 15.93 164.605 15.81C164.677 15.75 164.773 15.672 164.893 15.576C165.025 15.468 165.157 15.348 165.289 15.216C165.421 15.084 165.541 14.934 165.649 14.766C165.769 14.598 165.865 14.424 165.937 14.244Z" fill="#FF351A"/>
<rect x="1" y="1" width="209" height="63" rx="16" stroke="black" stroke-width="2"/>
</svg>
