<svg width="162" height="65" viewBox="0 0 162 65" fill="none" xmlns="http://www.w3.org/2000/svg">
<path d="M31.2799 34.464C31.2079 34.74 31.1479 35.04 31.0999 35.364C31.0519 35.676 31.0099 35.988 30.9739 36.3C30.9379 36.612 30.9079 36.918 30.8839 37.218C30.8599 37.506 30.8419 37.758 30.8299 37.974C30.0739 37.95 29.2879 37.938 28.4719 37.938C27.6679 37.926 26.7559 37.92 25.7359 37.92C24.7159 37.92 23.7139 37.926 22.7299 37.938C21.7459 37.938 20.8759 37.95 20.1199 37.974V37.488L21.3619 37.398C21.5659 37.374 21.7039 37.332 21.7759 37.272C21.8599 37.212 21.9019 37.044 21.9019 36.768V28.074C21.9019 27.786 21.8659 27.582 21.7939 27.462C21.7339 27.342 21.6199 27.27 21.4519 27.246L20.1919 27.12V26.616C20.6839 26.64 21.3919 26.658 22.3159 26.67C23.2399 26.67 24.2719 26.67 25.4119 26.67C26.5519 26.67 27.4939 26.67 28.2379 26.67C28.9819 26.658 29.5939 26.64 30.0739 26.616C30.0499 26.796 30.0319 27.018 30.0199 27.282C30.0199 27.534 30.0199 27.798 30.0199 28.074C30.0199 28.338 30.0199 28.602 30.0199 28.866C30.0319 29.118 30.0439 29.34 30.0559 29.532H29.8219C29.7019 29.088 29.5759 28.734 29.4439 28.47C29.3239 28.194 29.1859 27.984 29.0299 27.84C28.8859 27.684 28.7239 27.582 28.5439 27.534C28.3759 27.474 28.1839 27.444 27.9679 27.444H24.7279C24.5239 27.444 24.3859 27.504 24.3139 27.624C24.2419 27.732 24.2059 27.924 24.2059 28.2V31.872H26.9779C27.2299 31.872 27.4459 31.836 27.6259 31.764C27.8179 31.692 27.9499 31.548 28.0219 31.332L28.4359 30.126H28.9399C28.8679 31.554 28.8679 32.994 28.9399 34.446H28.5799L28.0039 33.222C27.8839 32.97 27.6919 32.79 27.4279 32.682C27.1639 32.574 26.8759 32.52 26.5639 32.52H24.2059V36.426C24.2059 36.69 24.2539 36.876 24.3499 36.984C24.4459 37.08 24.6499 37.128 24.9619 37.128H28.0219C28.2859 37.128 28.5379 37.092 28.7779 37.02C29.0179 36.948 29.2579 36.816 29.4979 36.624C29.7379 36.432 29.9719 36.162 30.1999 35.814C30.4399 35.466 30.6799 35.016 30.9199 34.464H31.2799ZM40.9985 37.974C40.3745 37.938 39.6785 37.92 38.9105 37.92C38.1545 37.92 37.4645 37.938 36.8405 37.974V37.524L37.4705 37.38C37.7345 37.344 37.8665 37.11 37.8665 36.678V33.654C37.8665 33.39 37.8545 33.162 37.8305 32.97C37.8185 32.766 37.7765 32.598 37.7045 32.466C37.6445 32.322 37.5425 32.22 37.3985 32.16C37.2665 32.088 37.0805 32.052 36.8405 32.052C36.5645 32.052 36.2705 32.142 35.9585 32.322C35.6585 32.49 35.4065 32.694 35.2025 32.934V36.876C35.2025 37.068 35.3465 37.2 35.6345 37.272L36.1565 37.524V37.974C36.0485 37.962 35.9405 37.956 35.8325 37.956C35.7365 37.944 35.6285 37.938 35.5085 37.938C35.3885 37.926 35.2565 37.92 35.1125 37.92C34.9685 37.92 34.7885 37.92 34.5725 37.92H34.0145C33.6305 37.92 33.2405 37.926 32.8445 37.938C32.4605 37.938 32.1785 37.95 31.9985 37.974V37.524L32.7725 37.344C32.8925 37.32 32.9825 37.266 33.0425 37.182C33.1025 37.098 33.1325 36.972 33.1325 36.804V33.258C33.1325 32.886 33.0545 32.634 32.8985 32.502C32.7545 32.37 32.4905 32.274 32.1065 32.214V31.872C32.2985 31.824 32.5205 31.764 32.7725 31.692C33.0365 31.62 33.2945 31.53 33.5465 31.422C33.7985 31.302 34.0325 31.164 34.2485 31.008C34.4645 30.84 34.6265 30.642 34.7345 30.414H35.2025V32.16C35.5625 31.716 35.9525 31.368 36.3725 31.116C36.7925 30.864 37.2125 30.738 37.6325 30.738C38.3285 30.738 38.8865 30.942 39.3065 31.35C39.7265 31.758 39.9365 32.376 39.9365 33.204V36.624C39.9365 36.864 39.9665 37.038 40.0265 37.146C40.0865 37.254 40.2065 37.332 40.3865 37.38L40.9985 37.524V37.974ZM47.0514 28.11C47.0514 27.882 47.0394 27.702 47.0154 27.57C46.9914 27.426 46.9314 27.312 46.8354 27.228C46.7394 27.132 46.5954 27.048 46.4034 26.976C46.2234 26.904 45.9714 26.826 45.6474 26.742V26.454C45.8394 26.442 46.0734 26.424 46.3494 26.4C46.6374 26.376 46.9254 26.346 47.2134 26.31C47.5014 26.274 47.7774 26.238 48.0414 26.202C48.3054 26.154 48.5154 26.1 48.6714 26.04H49.1214V36.516C49.1214 36.732 49.1274 36.9 49.1394 37.02C49.1634 37.14 49.2174 37.23 49.3014 37.29C49.3854 37.338 49.5054 37.368 49.6614 37.38C49.8294 37.392 50.0574 37.404 50.3454 37.416V37.884C50.1174 37.932 49.8474 37.98 49.5354 38.028C49.2354 38.064 48.9234 38.1 48.5994 38.136C48.2874 38.172 47.9934 38.208 47.7174 38.244C47.4414 38.268 47.2194 38.286 47.0514 38.298V37.11C46.6794 37.41 46.3134 37.668 45.9534 37.884C45.6054 38.1 45.1854 38.208 44.6934 38.208C44.2854 38.208 43.9014 38.154 43.5414 38.046C43.1814 37.938 42.8574 37.71 42.5694 37.362C42.2814 37.014 42.0654 36.624 41.9214 36.192C41.7894 35.76 41.7234 35.292 41.7234 34.788C41.7234 34.104 41.8374 33.51 42.0654 33.006C42.2934 32.49 42.5874 32.064 42.9474 31.728C43.3074 31.392 43.7094 31.146 44.1534 30.99C44.5974 30.822 45.0354 30.738 45.4674 30.738C45.8514 30.738 46.1694 30.786 46.4214 30.882C46.6734 30.966 46.8834 31.08 47.0514 31.224V28.11ZM47.0514 36.534V33.51C47.0514 33.258 47.0334 33.018 46.9974 32.79C46.9614 32.55 46.8954 32.34 46.7994 32.16C46.7034 31.968 46.5594 31.818 46.3674 31.71C46.1874 31.602 45.9474 31.548 45.6474 31.548C45.3834 31.548 45.1494 31.626 44.9454 31.782C44.7414 31.926 44.5674 32.13 44.4234 32.394C44.2794 32.658 44.1654 32.964 44.0814 33.312C44.0094 33.66 43.9734 34.038 43.9734 34.446C43.9734 35.19 44.1114 35.802 44.3874 36.282C44.6634 36.762 45.0834 37.002 45.6474 37.002C46.0194 37.002 46.3014 36.96 46.4934 36.876C46.6854 36.792 46.8714 36.678 47.0514 36.534ZM59.3374 38.208C58.7014 38.208 58.1494 38.118 57.6814 37.938C57.2134 37.746 56.8174 37.482 56.4934 37.146C56.1814 36.81 55.9474 36.42 55.7914 35.976C55.6354 35.52 55.5574 35.022 55.5574 34.482C55.5574 33.93 55.6354 33.426 55.7914 32.97C55.9474 32.502 56.1814 32.106 56.4934 31.782C56.8174 31.446 57.2254 31.188 57.7174 31.008C58.2094 30.816 58.7974 30.72 59.4814 30.72C60.1654 30.72 60.7474 30.816 61.2274 31.008C61.7194 31.2 62.1214 31.47 62.4334 31.818C62.7574 32.154 62.9914 32.556 63.1354 33.024C63.2914 33.48 63.3694 33.978 63.3694 34.518C63.3694 35.07 63.2734 35.574 63.0814 36.03C62.9014 36.474 62.6374 36.858 62.2894 37.182C61.9534 37.506 61.5334 37.758 61.0294 37.938C60.5254 38.118 59.9614 38.208 59.3374 38.208ZM57.8254 34.608C57.8254 35.508 57.9574 36.222 58.2214 36.75C58.4974 37.266 58.8994 37.524 59.4274 37.524C59.9434 37.524 60.3454 37.248 60.6334 36.696C60.9214 36.144 61.0654 35.412 61.0654 34.5C61.0654 33.588 60.9274 32.85 60.6514 32.286C60.3874 31.71 59.9794 31.422 59.4274 31.422C58.8874 31.422 58.4854 31.692 58.2214 32.232C57.9574 32.76 57.8254 33.552 57.8254 34.608ZM67.4442 31.026L69.7302 31.08V31.71L67.4802 31.782V36.12C67.4802 36.504 67.5402 36.792 67.6602 36.984C67.7922 37.164 67.9842 37.278 68.2362 37.326L69.2082 37.506V37.974C68.4522 37.938 67.6482 37.92 66.7962 37.92H66.2382C65.8302 37.92 65.4162 37.926 64.9962 37.938C64.5882 37.938 64.2942 37.95 64.1142 37.974V37.524L64.6722 37.398C64.8522 37.362 64.9902 37.326 65.0862 37.29C65.1822 37.242 65.2542 37.182 65.3022 37.11C65.3502 37.026 65.3802 36.918 65.3922 36.786C65.4042 36.654 65.4102 36.48 65.4102 36.264V31.998C65.1822 31.95 64.7442 31.914 64.0962 31.89V31.62C64.3842 31.5 64.6122 31.398 64.7802 31.314C64.9482 31.218 65.0742 31.134 65.1582 31.062C65.2542 30.99 65.3142 30.918 65.3382 30.846C65.3622 30.774 65.3742 30.696 65.3742 30.612C65.3742 30.504 65.3862 30.318 65.4102 30.054C65.4342 29.778 65.4882 29.472 65.5722 29.136C65.6682 28.788 65.8002 28.434 65.9682 28.074C66.1362 27.714 66.3582 27.384 66.6342 27.084C66.9222 26.772 67.2702 26.52 67.6782 26.328C68.0982 26.136 68.6022 26.04 69.1902 26.04C69.2862 26.04 69.3822 26.046 69.4782 26.058C69.5742 26.058 69.6702 26.064 69.7662 26.076C70.1502 26.136 70.4742 26.25 70.7382 26.418C71.0142 26.574 71.1522 26.82 71.1522 27.156C71.1522 27.504 71.0622 27.78 70.8822 27.984C70.7142 28.188 70.4562 28.29 70.1082 28.29C69.8322 28.29 69.6102 28.224 69.4422 28.092C69.2862 27.948 69.1542 27.792 69.0462 27.624C68.9382 27.444 68.8422 27.288 68.7582 27.156C68.6862 27.012 68.6082 26.94 68.5242 26.94C68.2242 26.94 67.9962 27.03 67.8402 27.21C67.6962 27.378 67.5882 27.6 67.5162 27.876C67.4562 28.14 67.4262 28.44 67.4262 28.776C67.4262 29.112 67.4262 29.442 67.4262 29.766C67.4262 30.09 67.4262 30.36 67.4262 30.576C67.4262 30.78 67.4322 30.93 67.4442 31.026ZM77.8918 29.244H78.2878C78.2878 29.568 78.2878 29.892 78.2878 30.216C78.2998 30.528 78.3058 30.846 78.3058 31.17L80.5558 31.116V31.962L78.3058 32.034V35.274C78.3058 35.802 78.3718 36.192 78.5038 36.444C78.6358 36.696 78.9118 36.822 79.3318 36.822C79.5118 36.822 79.7098 36.804 79.9258 36.768C80.1418 36.72 80.3758 36.588 80.6278 36.372L80.7898 36.624C80.7058 36.792 80.5918 36.972 80.4478 37.164C80.3038 37.344 80.1238 37.512 79.9078 37.668C79.7038 37.824 79.4698 37.956 79.2058 38.064C78.9418 38.16 78.6418 38.208 78.3058 38.208C77.6338 38.208 77.1238 38.04 76.7758 37.704C76.4398 37.356 76.2718 36.768 76.2718 35.94V32.07C76.1038 32.07 75.9418 32.076 75.7858 32.088C75.6298 32.088 75.4678 32.088 75.2998 32.088C75.1318 32.088 75.0418 32.01 75.0298 31.854C75.0298 31.698 75.1138 31.584 75.2818 31.512C75.5458 31.404 75.7858 31.29 76.0018 31.17C76.2298 31.05 76.4158 30.93 76.5598 30.81C76.6318 30.75 76.7278 30.672 76.8478 30.576C76.9798 30.468 77.1118 30.348 77.2438 30.216C77.3758 30.084 77.4958 29.934 77.6038 29.766C77.7238 29.598 77.8198 29.424 77.8918 29.244ZM82.2981 28.146C82.2981 27.798 82.1841 27.552 81.9561 27.408C81.7401 27.252 81.4821 27.144 81.1821 27.084V26.688C81.3021 26.688 81.4761 26.67 81.7041 26.634C81.9441 26.598 82.1961 26.556 82.4601 26.508C82.7361 26.448 83.0061 26.382 83.2701 26.31C83.5341 26.226 83.7561 26.136 83.9361 26.04H84.3681V32.268C84.6801 31.824 85.0041 31.482 85.3401 31.242C85.6881 30.99 86.0901 30.834 86.5461 30.774C86.6421 30.762 86.7321 30.756 86.8161 30.756C86.9121 30.744 87.0141 30.738 87.1221 30.738C87.7941 30.738 88.3161 30.948 88.6881 31.368C89.0601 31.776 89.2461 32.382 89.2461 33.186V36.714C89.2461 36.834 89.2701 36.954 89.3181 37.074C89.3661 37.182 89.4921 37.272 89.6961 37.344L90.2001 37.524V37.992C89.8161 37.968 89.4441 37.95 89.0841 37.938C88.7361 37.926 88.4541 37.92 88.2381 37.92C88.0341 37.92 87.7341 37.926 87.3381 37.938C86.9421 37.95 86.5581 37.968 86.1861 37.992V37.524L86.7441 37.326C86.9121 37.266 87.0261 37.182 87.0861 37.074C87.1461 36.954 87.1761 36.792 87.1761 36.588V33.402C87.1761 33.006 87.0981 32.694 86.9421 32.466C86.7981 32.238 86.5041 32.124 86.0601 32.124C85.8441 32.124 85.6401 32.172 85.4481 32.268C85.2681 32.352 85.1061 32.46 84.9621 32.592C84.8181 32.712 84.6921 32.85 84.5841 33.006C84.4881 33.15 84.4161 33.276 84.3681 33.384V36.588C84.3681 36.72 84.3921 36.846 84.4401 36.966C84.4881 37.074 84.5781 37.158 84.7101 37.218L85.4841 37.524V37.992C85.2921 37.968 84.9921 37.95 84.5841 37.938C84.1761 37.926 83.7621 37.92 83.3421 37.92C82.9221 37.92 82.5321 37.926 82.1721 37.938C81.8241 37.95 81.5541 37.968 81.3621 37.992V37.524L81.9201 37.326C82.0641 37.266 82.1601 37.17 82.2081 37.038C82.2681 36.906 82.2981 36.768 82.2981 36.624V28.146ZM97.5486 33.69H93.0846C93.0606 33.81 93.0426 33.882 93.0306 33.906C93.0306 33.93 93.0306 34.002 93.0306 34.122C93.0306 34.506 93.0846 34.86 93.1926 35.184C93.3006 35.496 93.4506 35.772 93.6426 36.012C93.8466 36.24 94.0866 36.42 94.3626 36.552C94.6506 36.684 94.9626 36.75 95.2986 36.75C95.7186 36.75 96.1026 36.696 96.4506 36.588C96.8106 36.468 97.1886 36.216 97.5846 35.832L97.6566 36.102C97.5126 36.378 97.3446 36.642 97.1526 36.894C96.9726 37.146 96.7506 37.368 96.4866 37.56C96.2226 37.752 95.9106 37.908 95.5506 38.028C95.2026 38.148 94.7886 38.208 94.3086 38.208C93.8046 38.208 93.3426 38.124 92.9226 37.956C92.5026 37.776 92.1426 37.524 91.8426 37.2C91.5546 36.876 91.3266 36.486 91.1586 36.03C91.0026 35.574 90.9246 35.064 90.9246 34.5C90.9246 33.936 91.0086 33.426 91.1766 32.97C91.3566 32.502 91.6026 32.106 91.9146 31.782C92.2386 31.446 92.6286 31.188 93.0846 31.008C93.5406 30.828 94.0506 30.738 94.6146 30.738C95.1306 30.738 95.5686 30.816 95.9286 30.972C96.2886 31.128 96.5826 31.344 96.8106 31.62C97.0506 31.884 97.2246 32.196 97.3326 32.556C97.4526 32.916 97.5246 33.294 97.5486 33.69ZM93.1746 33.024H94.8666C95.1906 33.024 95.3526 32.868 95.3526 32.556C95.3526 32.208 95.2986 31.914 95.1906 31.674C95.0826 31.422 94.8666 31.296 94.5426 31.296C93.8706 31.296 93.4146 31.872 93.1746 33.024ZM107.644 33.114C107.608 32.946 107.554 32.766 107.482 32.574C107.422 32.37 107.326 32.184 107.194 32.016C107.074 31.848 106.912 31.71 106.708 31.602C106.504 31.482 106.246 31.422 105.934 31.422C105.79 31.422 105.646 31.434 105.502 31.458C105.37 31.482 105.244 31.524 105.124 31.584C105.004 31.644 104.908 31.728 104.836 31.836C104.764 31.944 104.728 32.082 104.728 32.25C104.728 32.43 104.776 32.586 104.872 32.718C104.968 32.838 105.1 32.946 105.268 33.042C105.448 33.126 105.658 33.204 105.898 33.276C106.15 33.348 106.426 33.426 106.726 33.51C107.122 33.618 107.446 33.744 107.698 33.888C107.95 34.032 108.148 34.194 108.292 34.374C108.436 34.554 108.532 34.752 108.58 34.968C108.64 35.172 108.67 35.394 108.67 35.634C108.67 36.114 108.58 36.522 108.4 36.858C108.22 37.182 107.98 37.446 107.68 37.65C107.38 37.842 107.032 37.986 106.636 38.082C106.252 38.166 105.856 38.208 105.448 38.208C105.016 38.208 104.602 38.172 104.206 38.1C103.822 38.016 103.492 37.896 103.216 37.74L103.036 35.526H103.486C103.654 36.174 103.906 36.666 104.242 37.002C104.59 37.338 105.058 37.506 105.646 37.506C105.994 37.506 106.306 37.422 106.582 37.254C106.87 37.086 107.014 36.81 107.014 36.426C107.014 36.078 106.888 35.826 106.636 35.67C106.396 35.502 105.976 35.346 105.376 35.202C104.5 34.998 103.888 34.722 103.54 34.374C103.192 34.014 103.018 33.522 103.018 32.898C103.018 32.538 103.102 32.226 103.27 31.962C103.45 31.686 103.678 31.458 103.954 31.278C104.242 31.098 104.56 30.966 104.908 30.882C105.268 30.786 105.634 30.738 106.006 30.738C106.378 30.738 106.744 30.774 107.104 30.846C107.464 30.918 107.764 31.026 108.004 31.17L108.112 33.114H107.644ZM112.204 29.244H112.6C112.6 29.568 112.6 29.892 112.6 30.216C112.612 30.528 112.618 30.846 112.618 31.17L114.868 31.116V31.962L112.618 32.034V35.274C112.618 35.802 112.684 36.192 112.816 36.444C112.948 36.696 113.224 36.822 113.644 36.822C113.824 36.822 114.022 36.804 114.238 36.768C114.454 36.72 114.688 36.588 114.94 36.372L115.102 36.624C115.018 36.792 114.904 36.972 114.76 37.164C114.616 37.344 114.436 37.512 114.22 37.668C114.016 37.824 113.782 37.956 113.518 38.064C113.254 38.16 112.954 38.208 112.618 38.208C111.946 38.208 111.436 38.04 111.088 37.704C110.752 37.356 110.584 36.768 110.584 35.94V32.07C110.416 32.07 110.254 32.076 110.098 32.088C109.942 32.088 109.78 32.088 109.612 32.088C109.444 32.088 109.354 32.01 109.342 31.854C109.342 31.698 109.426 31.584 109.594 31.512C109.858 31.404 110.098 31.29 110.314 31.17C110.542 31.05 110.728 30.93 110.872 30.81C110.944 30.75 111.04 30.672 111.16 30.576C111.292 30.468 111.424 30.348 111.556 30.216C111.688 30.084 111.808 29.934 111.916 29.766C112.036 29.598 112.132 29.424 112.204 29.244ZM115.495 31.062H118.735V35.364C118.735 35.94 118.831 36.348 119.023 36.588C119.227 36.828 119.503 36.948 119.851 36.948C120.139 36.948 120.385 36.906 120.589 36.822C120.805 36.726 121.033 36.576 121.273 36.372V32.214C121.273 32.118 121.267 32.034 121.255 31.962C121.243 31.89 121.195 31.83 121.111 31.782C121.039 31.722 120.913 31.674 120.733 31.638C120.553 31.602 120.301 31.566 119.977 31.53V31.062H123.343V36.174C123.343 36.354 123.349 36.504 123.361 36.624C123.373 36.744 123.409 36.84 123.469 36.912C123.541 36.972 123.649 37.014 123.793 37.038C123.949 37.062 124.165 37.08 124.441 37.092C124.441 37.164 124.441 37.242 124.441 37.326C124.453 37.398 124.459 37.47 124.459 37.542L121.273 38.19V36.822C121.069 37.038 120.877 37.236 120.697 37.416C120.517 37.584 120.331 37.728 120.139 37.848C119.947 37.968 119.731 38.058 119.491 38.118C119.263 38.178 118.993 38.208 118.681 38.208C117.937 38.208 117.415 37.986 117.115 37.542C116.815 37.098 116.665 36.51 116.665 35.778V32.196C116.665 32.088 116.653 32.004 116.629 31.944C116.605 31.872 116.551 31.812 116.467 31.764C116.383 31.704 116.263 31.656 116.107 31.62C115.963 31.584 115.759 31.542 115.495 31.494V31.062ZM130.512 28.11C130.512 27.882 130.5 27.702 130.476 27.57C130.452 27.426 130.392 27.312 130.296 27.228C130.2 27.132 130.056 27.048 129.864 26.976C129.684 26.904 129.432 26.826 129.108 26.742V26.454C129.3 26.442 129.534 26.424 129.81 26.4C130.098 26.376 130.386 26.346 130.674 26.31C130.962 26.274 131.238 26.238 131.502 26.202C131.766 26.154 131.976 26.1 132.132 26.04H132.582V36.516C132.582 36.732 132.588 36.9 132.6 37.02C132.624 37.14 132.678 37.23 132.762 37.29C132.846 37.338 132.966 37.368 133.122 37.38C133.29 37.392 133.518 37.404 133.806 37.416V37.884C133.578 37.932 133.308 37.98 132.996 38.028C132.696 38.064 132.384 38.1 132.06 38.136C131.748 38.172 131.454 38.208 131.178 38.244C130.902 38.268 130.68 38.286 130.512 38.298V37.11C130.14 37.41 129.774 37.668 129.414 37.884C129.066 38.1 128.646 38.208 128.154 38.208C127.746 38.208 127.362 38.154 127.002 38.046C126.642 37.938 126.318 37.71 126.03 37.362C125.742 37.014 125.526 36.624 125.382 36.192C125.25 35.76 125.184 35.292 125.184 34.788C125.184 34.104 125.298 33.51 125.526 33.006C125.754 32.49 126.048 32.064 126.408 31.728C126.768 31.392 127.17 31.146 127.614 30.99C128.058 30.822 128.496 30.738 128.928 30.738C129.312 30.738 129.63 30.786 129.882 30.882C130.134 30.966 130.344 31.08 130.512 31.224V28.11ZM130.512 36.534V33.51C130.512 33.258 130.494 33.018 130.458 32.79C130.422 32.55 130.356 32.34 130.26 32.16C130.164 31.968 130.02 31.818 129.828 31.71C129.648 31.602 129.408 31.548 129.108 31.548C128.844 31.548 128.61 31.626 128.406 31.782C128.202 31.926 128.028 32.13 127.884 32.394C127.74 32.658 127.626 32.964 127.542 33.312C127.47 33.66 127.434 34.038 127.434 34.446C127.434 35.19 127.572 35.802 127.848 36.282C128.124 36.762 128.544 37.002 129.108 37.002C129.48 37.002 129.762 36.96 129.954 36.876C130.146 36.792 130.332 36.678 130.512 36.534ZM137.938 39.99C137.722 40.518 137.404 40.902 136.984 41.142C136.576 41.394 136.138 41.52 135.67 41.52C135.538 41.52 135.406 41.502 135.274 41.466C135.142 41.442 135.028 41.394 134.932 41.322C134.848 41.262 134.776 41.184 134.716 41.088C134.668 41.004 134.644 40.902 134.644 40.782C134.644 40.446 134.734 40.224 134.914 40.116C135.094 40.02 135.31 39.972 135.562 39.972C135.814 39.972 136.072 40.002 136.336 40.062C136.6 40.134 136.798 40.17 136.93 40.17C136.99 40.17 137.062 40.14 137.146 40.08C137.23 40.02 137.314 39.936 137.398 39.828C137.482 39.732 137.548 39.612 137.596 39.468C137.656 39.324 137.686 39.168 137.686 39C137.686 38.832 137.656 38.64 137.596 38.424C137.536 38.22 137.464 38.016 137.38 37.812C137.308 37.608 137.236 37.422 137.164 37.254L134.806 32.07C134.686 31.794 134.53 31.62 134.338 31.548L133.978 31.422V30.972C135.502 31.104 136.768 31.104 137.776 30.972V31.422C137.452 31.422 137.278 31.452 137.254 31.512C137.23 31.572 137.242 31.662 137.29 31.782L138.928 35.94L140.35 32.43C140.41 32.262 140.434 32.088 140.422 31.908C140.422 31.728 140.32 31.614 140.116 31.566L139.108 31.332V30.972C140.164 31.092 141.268 31.092 142.42 30.972V31.332L141.844 31.476C141.748 31.5 141.664 31.536 141.592 31.584C141.532 31.62 141.472 31.68 141.412 31.764C141.352 31.836 141.286 31.944 141.214 32.088C141.142 32.22 141.064 32.394 140.98 32.61L137.938 39.99Z" fill="#FF6107"/>
<path d="M17 1H145C153.837 1 161 8.16345 161 17V48C161 56.8366 153.837 64 145 64H17C8.16344 64 1 56.8366 1 48V17C1 8.16344 8.16344 1 17 1Z" stroke="black" stroke-width="2"/>
</svg>
