<svg width="162" height="169" viewBox="0 0 162 169" fill="none" xmlns="http://www.w3.org/2000/svg">
<path d="M17 134H145C153.837 134 161 141.163 161 150V152C161 160.837 153.837 168 145 168H17C8.16344 168 1 160.837 1 152V150C1 141.163 8.16344 134 17 134Z" fill="#C4C4C4" stroke="black" stroke-width="2"/>
<path d="M40.025 152.772C39.953 153.048 39.893 153.348 39.845 153.672C39.797 153.984 39.755 154.296 39.719 154.608C39.683 154.92 39.653 155.226 39.629 155.526C39.605 155.814 39.587 156.066 39.575 156.282C38.819 156.258 38.033 156.246 37.217 156.246C36.413 156.234 35.501 156.228 34.481 156.228C33.461 156.228 32.459 156.234 31.475 156.246C30.491 156.246 29.621 156.258 28.865 156.282V155.796L30.107 155.706C30.311 155.682 30.449 155.64 30.521 155.58C30.605 155.52 30.647 155.352 30.647 155.076V146.382C30.647 146.094 30.611 145.89 30.539 145.77C30.479 145.65 30.365 145.578 30.197 145.554L28.937 145.428V144.924C29.429 144.948 30.137 144.966 31.061 144.978C31.985 144.978 33.017 144.978 34.157 144.978C35.297 144.978 36.239 144.978 36.983 144.978C37.727 144.966 38.339 144.948 38.819 144.924C38.795 145.104 38.777 145.326 38.765 145.59C38.765 145.842 38.765 146.106 38.765 146.382C38.765 146.646 38.765 146.91 38.765 147.174C38.777 147.426 38.789 147.648 38.801 147.84H38.567C38.447 147.396 38.321 147.042 38.189 146.778C38.069 146.502 37.931 146.292 37.775 146.148C37.631 145.992 37.469 145.89 37.289 145.842C37.121 145.782 36.929 145.752 36.713 145.752H33.473C33.269 145.752 33.131 145.812 33.059 145.932C32.987 146.04 32.951 146.232 32.951 146.508V150.18H35.723C35.975 150.18 36.191 150.144 36.371 150.072C36.563 150 36.695 149.856 36.767 149.64L37.181 148.434H37.685C37.613 149.862 37.613 151.302 37.685 152.754H37.325L36.749 151.53C36.629 151.278 36.437 151.098 36.173 150.99C35.909 150.882 35.621 150.828 35.309 150.828H32.951V154.734C32.951 154.998 32.999 155.184 33.095 155.292C33.191 155.388 33.395 155.436 33.707 155.436H36.767C37.031 155.436 37.283 155.4 37.523 155.328C37.763 155.256 38.003 155.124 38.243 154.932C38.483 154.74 38.717 154.47 38.945 154.122C39.185 153.774 39.425 153.324 39.665 152.772H40.025ZM48.6996 156.246C48.4716 156.222 48.1536 156.216 47.7456 156.228C47.3376 156.228 46.9596 156.228 46.6116 156.228C46.4316 156.228 46.2396 156.228 46.0356 156.228C45.8436 156.228 45.6456 156.234 45.4416 156.246C45.2496 156.246 45.0696 156.252 44.9016 156.264C44.7336 156.276 44.5956 156.288 44.4876 156.3V155.922L44.8116 155.832C45.0396 155.772 45.1716 155.694 45.2076 155.598C45.2556 155.49 45.2436 155.364 45.1716 155.22C45.1476 155.172 45.1176 155.124 45.0816 155.076C45.0576 155.028 45.0216 154.974 44.9736 154.914L43.9296 153.51L42.8856 154.914C42.7536 155.082 42.6876 155.226 42.6876 155.346C42.6876 155.454 42.7296 155.55 42.8136 155.634C42.8976 155.706 43.0596 155.766 43.2996 155.814L43.8396 155.922V156.3C43.3596 156.252 42.8076 156.228 42.1836 156.228C41.5716 156.228 40.9716 156.252 40.3836 156.3V155.922L40.8876 155.796C41.1396 155.736 41.3796 155.592 41.6076 155.364C41.8476 155.136 42.0996 154.842 42.3636 154.482L43.5336 153.024L41.8956 150.72C41.6316 150.408 41.4276 150.192 41.2836 150.072C41.1396 149.94 41.0196 149.862 40.9236 149.838L40.4916 149.748V149.316C40.7436 149.352 41.3196 149.37 42.2196 149.37C42.6756 149.37 43.1076 149.37 43.5156 149.37C43.9356 149.358 44.2236 149.34 44.3796 149.316V149.73L44.2176 149.766C44.0256 149.802 43.9296 149.874 43.9296 149.982C43.9416 150.078 44.0676 150.3 44.3076 150.648L45.1176 151.8L45.8556 150.846C46.0236 150.618 46.1076 150.432 46.1076 150.288C46.1076 150.06 45.9396 149.91 45.6036 149.838L45.1536 149.748V149.316C45.2376 149.34 45.3516 149.358 45.4956 149.37C45.6396 149.37 45.7896 149.376 45.9456 149.388C46.1136 149.388 46.2756 149.388 46.4316 149.388C46.5876 149.388 46.7256 149.388 46.8456 149.388C47.3376 149.388 47.6916 149.382 47.9076 149.37C48.1236 149.358 48.3096 149.346 48.4656 149.334V149.748L47.8716 149.856C47.7396 149.892 47.6196 149.94 47.5116 150C47.4156 150.048 47.3196 150.114 47.2236 150.198C47.1396 150.282 47.0436 150.39 46.9356 150.522C46.8396 150.642 46.7196 150.792 46.5756 150.972L45.5316 152.286L47.5296 154.968C47.7336 155.232 47.8956 155.424 48.0156 155.544C48.1356 155.652 48.2496 155.724 48.3576 155.76L48.6996 155.868V156.246ZM51.3843 145.158C51.6963 145.158 51.9603 145.278 52.1763 145.518C52.4043 145.746 52.5183 146.016 52.5183 146.328C52.5183 146.604 52.4043 146.856 52.1763 147.084C51.9603 147.312 51.6903 147.426 51.3663 147.426C51.0543 147.426 50.7903 147.324 50.5743 147.12C50.3703 146.904 50.2683 146.64 50.2683 146.328C50.2683 146.016 50.3763 145.746 50.5923 145.518C50.8083 145.278 51.0723 145.158 51.3843 145.158ZM53.2023 156.3C53.0103 156.276 52.7223 156.258 52.3383 156.246C51.9543 156.234 51.5223 156.228 51.0423 156.228C50.5623 156.228 50.1303 156.234 49.7463 156.246C49.3623 156.258 49.0743 156.276 48.8823 156.3V155.832L49.5663 155.652C49.9383 155.58 50.1243 155.358 50.1243 154.986V151.746C50.1243 151.458 50.0523 151.248 49.9083 151.116C49.7643 150.984 49.4763 150.87 49.0443 150.774V150.342C49.2483 150.294 49.4823 150.228 49.7463 150.144C50.0103 150.048 50.2683 149.946 50.5203 149.838C50.7723 149.718 51.0063 149.592 51.2223 149.46C51.4383 149.316 51.6063 149.172 51.7263 149.028C51.8103 149.028 51.8883 149.034 51.9603 149.046C52.0323 149.046 52.1103 149.046 52.1943 149.046V155.04C52.1943 155.22 52.2183 155.358 52.2663 155.454C52.3263 155.538 52.4343 155.598 52.5903 155.634L53.2023 155.832V156.3ZM56.5959 147.552H56.9919C56.9919 147.876 56.9919 148.2 56.9919 148.524C57.0039 148.836 57.0099 149.154 57.0099 149.478L59.2599 149.424V150.27L57.0099 150.342V153.582C57.0099 154.11 57.0759 154.5 57.2079 154.752C57.3399 155.004 57.6159 155.13 58.0359 155.13C58.2159 155.13 58.4139 155.112 58.6299 155.076C58.8459 155.028 59.0799 154.896 59.3319 154.68L59.4939 154.932C59.4099 155.1 59.2959 155.28 59.1519 155.472C59.0079 155.652 58.8279 155.82 58.6119 155.976C58.4079 156.132 58.1739 156.264 57.9099 156.372C57.6459 156.468 57.3459 156.516 57.0099 156.516C56.3379 156.516 55.8279 156.348 55.4799 156.012C55.1439 155.664 54.9759 155.076 54.9759 154.248V150.378C54.8079 150.378 54.6459 150.384 54.4899 150.396C54.3339 150.396 54.1719 150.396 54.0039 150.396C53.8359 150.396 53.7459 150.318 53.7339 150.162C53.7339 150.006 53.8179 149.892 53.9859 149.82C54.2499 149.712 54.4899 149.598 54.7059 149.478C54.9339 149.358 55.1199 149.238 55.2639 149.118C55.3359 149.058 55.4319 148.98 55.5519 148.884C55.6839 148.776 55.8159 148.656 55.9479 148.524C56.0799 148.392 56.1999 148.242 56.3079 148.074C56.4279 147.906 56.5239 147.732 56.5959 147.552ZM66.1502 155.076V146.13C66.1502 145.926 66.1142 145.782 66.0422 145.698C65.9822 145.614 65.8682 145.566 65.7002 145.554L64.5662 145.392V144.924C64.6862 144.96 65.9462 144.978 68.3462 144.978C69.0542 144.978 69.6182 144.96 70.0382 144.924V145.41L68.9042 145.572C68.7362 145.584 68.6162 145.626 68.5442 145.698C68.4842 145.77 68.4542 145.914 68.4542 146.13V155.076C68.4542 155.292 68.4842 155.43 68.5442 155.49C68.6042 155.55 68.7242 155.586 68.9042 155.598L70.0382 155.688V156.3C69.7982 156.276 69.4502 156.258 68.9942 156.246C68.5502 156.234 67.9862 156.228 67.3022 156.228C66.6182 156.228 66.0482 156.234 65.5922 156.246C65.1482 156.258 64.8062 156.276 64.5662 156.3V155.688L65.7002 155.598C65.8802 155.574 66.0002 155.532 66.0602 155.472C66.1202 155.412 66.1502 155.28 66.1502 155.076ZM79.7495 156.282C79.1255 156.246 78.4295 156.228 77.6615 156.228C76.9055 156.228 76.2155 156.246 75.5915 156.282V155.832L76.2215 155.688C76.4855 155.652 76.6175 155.418 76.6175 154.986V151.962C76.6175 151.698 76.6055 151.47 76.5815 151.278C76.5695 151.074 76.5275 150.906 76.4555 150.774C76.3955 150.63 76.2935 150.528 76.1495 150.468C76.0175 150.396 75.8315 150.36 75.5915 150.36C75.3155 150.36 75.0215 150.45 74.7095 150.63C74.4095 150.798 74.1575 151.002 73.9535 151.242V155.184C73.9535 155.376 74.0975 155.508 74.3855 155.58L74.9075 155.832V156.282C74.7995 156.27 74.6915 156.264 74.5835 156.264C74.4875 156.252 74.3795 156.246 74.2595 156.246C74.1395 156.234 74.0075 156.228 73.8635 156.228C73.7195 156.228 73.5395 156.228 73.3235 156.228H72.7655C72.3815 156.228 71.9915 156.234 71.5955 156.246C71.2115 156.246 70.9295 156.258 70.7495 156.282V155.832L71.5235 155.652C71.6435 155.628 71.7335 155.574 71.7935 155.49C71.8535 155.406 71.8835 155.28 71.8835 155.112V151.566C71.8835 151.194 71.8055 150.942 71.6495 150.81C71.5055 150.678 71.2415 150.582 70.8575 150.522V150.18C71.0495 150.132 71.2715 150.072 71.5235 150C71.7875 149.928 72.0455 149.838 72.2975 149.73C72.5495 149.61 72.7835 149.472 72.9995 149.316C73.2155 149.148 73.3775 148.95 73.4855 148.722H73.9535V150.468C74.3135 150.024 74.7035 149.676 75.1235 149.424C75.5435 149.172 75.9635 149.046 76.3835 149.046C77.0795 149.046 77.6375 149.25 78.0575 149.658C78.4775 150.066 78.6875 150.684 78.6875 151.512V154.932C78.6875 155.172 78.7175 155.346 78.7775 155.454C78.8375 155.562 78.9575 155.64 79.1375 155.688L79.7495 155.832V156.282ZM83.1564 147.552H83.5524C83.5524 147.876 83.5524 148.2 83.5524 148.524C83.5644 148.836 83.5704 149.154 83.5704 149.478L85.8204 149.424V150.27L83.5704 150.342V153.582C83.5704 154.11 83.6364 154.5 83.7684 154.752C83.9004 155.004 84.1764 155.13 84.5964 155.13C84.7764 155.13 84.9744 155.112 85.1904 155.076C85.4064 155.028 85.6404 154.896 85.8924 154.68L86.0544 154.932C85.9704 155.1 85.8564 155.28 85.7124 155.472C85.5684 155.652 85.3884 155.82 85.1724 155.976C84.9684 156.132 84.7344 156.264 84.4704 156.372C84.2064 156.468 83.9064 156.516 83.5704 156.516C82.8984 156.516 82.3884 156.348 82.0404 156.012C81.7044 155.664 81.5364 155.076 81.5364 154.248V150.378C81.3684 150.378 81.2064 150.384 81.0504 150.396C80.8944 150.396 80.7324 150.396 80.5644 150.396C80.3964 150.396 80.3064 150.318 80.2944 150.162C80.2944 150.006 80.3784 149.892 80.5464 149.82C80.8104 149.712 81.0504 149.598 81.2664 149.478C81.4944 149.358 81.6804 149.238 81.8244 149.118C81.8964 149.058 81.9924 148.98 82.1124 148.884C82.2444 148.776 82.3764 148.656 82.5084 148.524C82.6404 148.392 82.7604 148.242 82.8684 148.074C82.9884 147.906 83.0844 147.732 83.1564 147.552ZM93.2508 151.998H88.7868C88.7628 152.118 88.7448 152.19 88.7328 152.214C88.7328 152.238 88.7328 152.31 88.7328 152.43C88.7328 152.814 88.7868 153.168 88.8948 153.492C89.0028 153.804 89.1528 154.08 89.3448 154.32C89.5488 154.548 89.7888 154.728 90.0648 154.86C90.3528 154.992 90.6648 155.058 91.0008 155.058C91.4208 155.058 91.8048 155.004 92.1528 154.896C92.5128 154.776 92.8908 154.524 93.2868 154.14L93.3588 154.41C93.2148 154.686 93.0468 154.95 92.8548 155.202C92.6748 155.454 92.4528 155.676 92.1888 155.868C91.9248 156.06 91.6128 156.216 91.2528 156.336C90.9048 156.456 90.4908 156.516 90.0108 156.516C89.5068 156.516 89.0448 156.432 88.6248 156.264C88.2048 156.084 87.8448 155.832 87.5448 155.508C87.2568 155.184 87.0288 154.794 86.8608 154.338C86.7048 153.882 86.6268 153.372 86.6268 152.808C86.6268 152.244 86.7108 151.734 86.8788 151.278C87.0588 150.81 87.3048 150.414 87.6168 150.09C87.9408 149.754 88.3308 149.496 88.7868 149.316C89.2428 149.136 89.7528 149.046 90.3168 149.046C90.8328 149.046 91.2708 149.124 91.6308 149.28C91.9908 149.436 92.2848 149.652 92.5128 149.928C92.7528 150.192 92.9268 150.504 93.0348 150.864C93.1548 151.224 93.2268 151.602 93.2508 151.998ZM88.8768 151.332H90.5688C90.8928 151.332 91.0548 151.176 91.0548 150.864C91.0548 150.516 91.0008 150.222 90.8928 149.982C90.7848 149.73 90.5688 149.604 90.2448 149.604C89.5728 149.604 89.1168 150.18 88.8768 151.332ZM94.1117 156.3V156.012L94.6517 155.85C94.8917 155.778 95.0417 155.688 95.1017 155.58C95.1737 155.46 95.2097 155.244 95.2097 154.932V151.476C95.2097 151.236 95.1617 151.056 95.0657 150.936C94.9697 150.816 94.7417 150.732 94.3817 150.684L94.0757 150.648V150.306C94.3037 150.246 94.5497 150.168 94.8137 150.072C95.0897 149.964 95.3537 149.844 95.6057 149.712C95.8697 149.568 96.1097 149.406 96.3257 149.226C96.5537 149.046 96.7397 148.848 96.8837 148.632H97.2077C97.2077 148.98 97.2137 149.304 97.2257 149.604C97.2377 149.904 97.2557 150.252 97.2797 150.648C97.3757 150.444 97.4657 150.264 97.5497 150.108C97.6457 149.952 97.7897 149.76 97.9817 149.532C98.1617 149.316 98.3477 149.184 98.5397 149.136C98.7317 149.076 98.9057 149.046 99.0617 149.046C99.3617 149.046 99.6257 149.136 99.8537 149.316C100.082 149.496 100.196 149.796 100.196 150.216C100.196 150.6 100.112 150.912 99.9437 151.152C99.7757 151.38 99.5237 151.494 99.1877 151.494C99.0197 151.494 98.8757 151.446 98.7557 151.35C98.6477 151.254 98.5517 151.152 98.4677 151.044C98.3957 150.936 98.3237 150.834 98.2517 150.738C98.1797 150.642 98.1077 150.594 98.0357 150.594C97.8677 150.594 97.7177 150.708 97.5857 150.936C97.4657 151.164 97.3817 151.446 97.3337 151.782C97.3097 151.926 97.2917 152.058 97.2797 152.178C97.2677 152.286 97.2677 152.382 97.2797 152.466V154.968C97.2797 155.244 97.3337 155.43 97.4417 155.526C97.5497 155.622 97.7657 155.718 98.0897 155.814L98.6837 155.994V156.282C98.4197 156.258 98.1197 156.246 97.7837 156.246C97.4477 156.234 97.1297 156.228 96.8297 156.228H96.4157C96.0197 156.228 95.6237 156.234 95.2277 156.246C94.8317 156.258 94.4597 156.276 94.1117 156.3ZM107.593 150.666L105.127 156.642H104.677L101.959 150.648C101.815 150.36 101.701 150.174 101.617 150.09C101.533 150.006 101.401 149.946 101.221 149.91L100.483 149.748V149.316C100.747 149.352 101.413 149.37 102.481 149.37C102.745 149.37 103.009 149.37 103.273 149.37C103.549 149.358 103.801 149.352 104.029 149.352C104.269 149.34 104.473 149.334 104.641 149.334C104.821 149.322 104.953 149.31 105.037 149.298V149.73L104.623 149.802C104.407 149.838 104.269 149.94 104.209 150.108C104.161 150.276 104.239 150.594 104.443 151.062L105.649 153.888L106.729 151.098C106.789 150.954 106.831 150.828 106.855 150.72C106.891 150.6 106.909 150.498 106.909 150.414C106.909 150.078 106.663 149.88 106.171 149.82L105.559 149.748V149.316C105.715 149.352 106.291 149.37 107.287 149.37C108.283 149.37 108.919 149.352 109.195 149.316V149.748L108.331 149.874C108.139 149.898 108.001 149.958 107.917 150.054C107.833 150.138 107.725 150.342 107.593 150.666ZM111.871 145.158C112.183 145.158 112.447 145.278 112.663 145.518C112.891 145.746 113.005 146.016 113.005 146.328C113.005 146.604 112.891 146.856 112.663 147.084C112.447 147.312 112.177 147.426 111.853 147.426C111.541 147.426 111.277 147.324 111.061 147.12C110.857 146.904 110.755 146.64 110.755 146.328C110.755 146.016 110.863 145.746 111.079 145.518C111.295 145.278 111.559 145.158 111.871 145.158ZM113.689 156.3C113.497 156.276 113.209 156.258 112.825 156.246C112.441 156.234 112.009 156.228 111.529 156.228C111.049 156.228 110.617 156.234 110.233 156.246C109.849 156.258 109.561 156.276 109.369 156.3V155.832L110.053 155.652C110.425 155.58 110.611 155.358 110.611 154.986V151.746C110.611 151.458 110.539 151.248 110.395 151.116C110.251 150.984 109.963 150.87 109.531 150.774V150.342C109.735 150.294 109.969 150.228 110.233 150.144C110.497 150.048 110.755 149.946 111.007 149.838C111.259 149.718 111.493 149.592 111.709 149.46C111.925 149.316 112.093 149.172 112.213 149.028C112.297 149.028 112.375 149.034 112.447 149.046C112.519 149.046 112.597 149.046 112.681 149.046V155.04C112.681 155.22 112.705 155.358 112.753 155.454C112.813 155.538 112.921 155.598 113.077 155.634L113.689 155.832V156.3ZM121.024 151.998H116.56C116.536 152.118 116.518 152.19 116.506 152.214C116.506 152.238 116.506 152.31 116.506 152.43C116.506 152.814 116.56 153.168 116.668 153.492C116.776 153.804 116.926 154.08 117.118 154.32C117.322 154.548 117.562 154.728 117.838 154.86C118.126 154.992 118.438 155.058 118.774 155.058C119.194 155.058 119.578 155.004 119.926 154.896C120.286 154.776 120.664 154.524 121.06 154.14L121.132 154.41C120.988 154.686 120.82 154.95 120.628 155.202C120.448 155.454 120.226 155.676 119.962 155.868C119.698 156.06 119.386 156.216 119.026 156.336C118.678 156.456 118.264 156.516 117.784 156.516C117.28 156.516 116.818 156.432 116.398 156.264C115.978 156.084 115.618 155.832 115.318 155.508C115.03 155.184 114.802 154.794 114.634 154.338C114.478 153.882 114.4 153.372 114.4 152.808C114.4 152.244 114.484 151.734 114.652 151.278C114.832 150.81 115.078 150.414 115.39 150.09C115.714 149.754 116.104 149.496 116.56 149.316C117.016 149.136 117.526 149.046 118.09 149.046C118.606 149.046 119.044 149.124 119.404 149.28C119.764 149.436 120.058 149.652 120.286 149.928C120.526 150.192 120.7 150.504 120.808 150.864C120.928 151.224 121 151.602 121.024 151.998ZM116.65 151.332H118.342C118.666 151.332 118.828 151.176 118.828 150.864C118.828 150.516 118.774 150.222 118.666 149.982C118.558 149.73 118.342 149.604 118.018 149.604C117.346 149.604 116.89 150.18 116.65 151.332ZM121.489 149.316C121.753 149.352 122.311 149.37 123.163 149.37C124.027 149.37 124.639 149.352 124.999 149.316V149.748C124.867 149.748 124.765 149.784 124.693 149.856C124.621 149.916 124.615 150.018 124.675 150.162L126.313 154.158L127.339 152.088L126.763 150.684C126.631 150.36 126.517 150.15 126.421 150.054C126.325 149.958 126.223 149.898 126.115 149.874L125.629 149.748V149.316C125.797 149.34 126.031 149.358 126.331 149.37C126.643 149.37 127.051 149.37 127.555 149.37C128.527 149.37 129.169 149.352 129.481 149.316V149.748L129.229 149.784C128.761 149.856 128.593 150.03 128.725 150.306L130.309 154.05L131.659 151.008C131.767 150.768 131.767 150.534 131.659 150.306C131.563 150.066 131.389 149.922 131.137 149.874L130.399 149.748V149.316C130.663 149.352 131.167 149.37 131.911 149.37C132.295 149.37 132.643 149.37 132.955 149.37C133.267 149.358 133.507 149.34 133.675 149.316V149.748L133.225 149.838C133.033 149.874 132.859 149.982 132.703 150.162C132.559 150.342 132.427 150.57 132.307 150.846L129.751 156.642H129.211L127.609 152.772L125.737 156.642H125.215L122.371 150.342C122.227 150.018 121.999 149.838 121.687 149.802L121.489 149.748V149.316Z" fill="black"/>
<path d="M81.7071 0.292893C81.3166 -0.0976311 80.6834 -0.0976311 80.2929 0.292893L73.9289 6.65685C73.5384 7.04738 73.5384 7.68054 73.9289 8.07107C74.3195 8.46159 74.9526 8.46159 75.3432 8.07107L81 2.41421L86.6569 8.07107C87.0474 8.46159 87.6805 8.46159 88.0711 8.07107C88.4616 7.68054 88.4616 7.04738 88.0711 6.65685L81.7071 0.292893ZM82 133L82 1L80 1L80 133L82 133Z" fill="black"/>
</svg>
