<svg width="213" height="38" viewBox="0 0 213 38" fill="none" xmlns="http://www.w3.org/2000/svg">
<path d="M82.8389 10.5244L81.8721 13.8467C81.7373 14.3154 81.6699 14.6465 81.6699 14.8398C81.6699 15.1094 81.7578 15.3145 81.9336 15.4551C82.1094 15.5898 82.5078 15.6631 83.1289 15.6748L83.0146 16H77.1963L77.293 15.6748C77.7852 15.6689 78.1338 15.6221 78.3389 15.5342C78.5439 15.4404 78.7139 15.291 78.8486 15.0859C78.9482 14.9512 79.0977 14.5381 79.2969 13.8467L81.5029 6.2793C81.6553 5.77539 81.7314 5.41504 81.7314 5.19824C81.7314 4.98145 81.6348 4.7998 81.4414 4.65332C81.248 4.50098 80.8965 4.41895 80.3867 4.40723L80.4834 4.08203H85.2031C86.498 4.08203 87.4297 4.24609 87.998 4.57422C88.877 5.08984 89.3164 5.86328 89.3164 6.89453C89.3164 7.89062 88.877 8.76953 87.998 9.53125C87.125 10.2871 85.9473 10.665 84.4648 10.665C84.0195 10.665 83.4775 10.6182 82.8389 10.5244ZM83.0146 9.84766C83.3955 9.89453 83.7119 9.91797 83.9639 9.91797C84.7725 9.91797 85.4082 9.54883 85.8711 8.81055C86.334 8.07227 86.5654 7.30176 86.5654 6.49902C86.5654 5.9541 86.416 5.53223 86.1172 5.2334C85.8184 4.92871 85.4053 4.77637 84.8779 4.77637C84.7666 4.77637 84.6289 4.78223 84.4648 4.79395L83.0146 9.84766ZM94.6514 3.80957L92.3662 11.7285C93.1572 10.5625 93.7314 9.77441 94.0889 9.36426C94.6221 8.77246 95.0791 8.37402 95.46 8.16895C95.8467 7.95801 96.2158 7.85254 96.5674 7.85254C96.8662 7.85254 97.1211 7.9668 97.332 8.19531C97.5488 8.41797 97.6572 8.7168 97.6572 9.0918C97.6572 9.4082 97.5869 9.80371 97.4463 10.2783L96.3301 14.0225C96.2305 14.3506 96.1807 14.5703 96.1807 14.6816C96.1807 14.7344 96.2012 14.7842 96.2422 14.8311C96.2832 14.8721 96.3301 14.8926 96.3828 14.8926C96.4531 14.8926 96.5234 14.8633 96.5938 14.8047C96.7812 14.6582 96.9805 14.4238 97.1914 14.1016C97.2441 14.0195 97.3291 13.8965 97.4463 13.7324L97.7891 13.9258C97.2852 14.7578 96.8076 15.3291 96.3564 15.6396C95.9053 15.9502 95.4775 16.1055 95.0732 16.1055C94.71 16.1055 94.4258 16.0117 94.2207 15.8242C94.0156 15.6367 93.9131 15.4023 93.9131 15.1211C93.9131 14.8633 93.9834 14.4971 94.124 14.0225L95.2139 10.2783C95.2842 10.0205 95.3193 9.83301 95.3193 9.71582C95.3193 9.65137 95.293 9.5957 95.2402 9.54883C95.1934 9.49609 95.1377 9.46973 95.0732 9.46973C94.8623 9.46973 94.5723 9.64551 94.2031 9.99707C93.4414 10.7178 92.6797 11.8486 91.918 13.3896L91.1357 16H88.9561L91.8389 6.06836C91.9561 5.64648 92.0146 5.34473 92.0146 5.16309C92.0146 5.0166 91.9561 4.90234 91.8389 4.82031C91.6865 4.70898 91.4521 4.66211 91.1357 4.67969L91.1973 4.32812L94.124 3.80957H94.6514ZM107.378 7.97559L105.673 13.8203L105.497 14.5322C105.479 14.6201 105.471 14.6846 105.471 14.7256C105.471 14.7959 105.494 14.8574 105.541 14.9102C105.594 14.9629 105.646 14.9893 105.699 14.9893C105.822 14.9893 105.992 14.8955 106.209 14.708C106.297 14.6318 106.508 14.3623 106.842 13.8994L107.149 14.0576C106.733 14.8193 106.288 15.376 105.813 15.7275C105.345 16.0732 104.838 16.2461 104.293 16.2461C103.959 16.2461 103.704 16.1611 103.528 15.9912C103.353 15.8154 103.265 15.5957 103.265 15.332C103.265 15.1035 103.358 14.6787 103.546 14.0576L103.757 13.3457C103.077 14.5117 102.424 15.3379 101.797 15.8242C101.434 16.1055 101.047 16.2461 100.637 16.2461C100.098 16.2461 99.708 16.0264 99.4678 15.5869C99.2275 15.1416 99.1074 14.6406 99.1074 14.084C99.1074 13.2578 99.3594 12.3115 99.8633 11.2451C100.367 10.1729 101.029 9.31152 101.85 8.66113C102.523 8.12207 103.156 7.85254 103.748 7.85254C104.076 7.85254 104.34 7.94922 104.539 8.14258C104.738 8.33008 104.885 8.67578 104.979 9.17969L105.295 8.09863L107.378 7.97559ZM104.565 9.64551C104.565 9.1709 104.492 8.82812 104.346 8.61719C104.24 8.4707 104.097 8.39746 103.915 8.39746C103.733 8.39746 103.546 8.48535 103.353 8.66113C102.96 9.02441 102.535 9.7627 102.078 10.876C101.627 11.9834 101.401 12.9414 101.401 13.75C101.401 14.0605 101.451 14.2861 101.551 14.4268C101.656 14.5615 101.771 14.6289 101.894 14.6289C102.157 14.6289 102.424 14.4766 102.693 14.1719C103.08 13.7383 103.429 13.208 103.739 12.5811C104.29 11.4795 104.565 10.501 104.565 9.64551ZM114.453 7.85254L114.066 10.5684H113.741C113.694 9.86523 113.478 9.31152 113.091 8.90723C112.71 8.50293 112.3 8.30078 111.86 8.30078C111.591 8.30078 111.368 8.37988 111.192 8.53809C111.017 8.69629 110.929 8.88672 110.929 9.10938C110.929 9.29688 110.967 9.47266 111.043 9.63672C111.119 9.80078 111.289 10.0234 111.553 10.3047C112.479 11.3008 113.041 11.9863 113.24 12.3613C113.439 12.7363 113.539 13.1377 113.539 13.5654C113.539 14.0283 113.422 14.4678 113.188 14.8838C112.953 15.2939 112.602 15.625 112.133 15.877C111.67 16.123 111.187 16.2461 110.683 16.2461C110.343 16.2461 109.924 16.1787 109.426 16.0439C109.098 15.9502 108.852 15.9033 108.688 15.9033C108.541 15.9033 108.427 15.9268 108.345 15.9736C108.263 16.0146 108.172 16.1055 108.072 16.2461H107.747L108.178 13.3193H108.459C108.664 14.0283 108.854 14.5352 109.03 14.8398C109.212 15.1387 109.452 15.3789 109.751 15.5605C110.05 15.7363 110.337 15.8242 110.612 15.8242C110.935 15.8242 111.201 15.7246 111.412 15.5254C111.623 15.3203 111.729 15.0771 111.729 14.7959C111.729 14.5205 111.658 14.2539 111.518 13.9961C111.383 13.7383 111.066 13.3369 110.568 12.792C109.883 12.0479 109.432 11.4736 109.215 11.0693C109.062 10.7764 108.986 10.4424 108.986 10.0674C108.986 9.43457 109.215 8.90723 109.672 8.48535C110.135 8.06348 110.782 7.85254 111.614 7.85254C111.978 7.85254 112.423 7.91699 112.95 8.0459C113.214 8.11035 113.425 8.14258 113.583 8.14258C113.812 8.14258 113.996 8.0459 114.137 7.85254H114.453ZM117.582 12.7041C117.529 13.085 117.503 13.3984 117.503 13.6445C117.503 14.084 117.629 14.4355 117.881 14.6992C118.139 14.9629 118.481 15.0947 118.909 15.0947C119.319 15.0947 119.729 14.9951 120.14 14.7959C120.556 14.5967 121.036 14.248 121.581 13.75L121.845 13.9873C121.171 14.8018 120.515 15.3818 119.876 15.7275C119.237 16.0732 118.531 16.2461 117.758 16.2461C116.779 16.2461 116.103 16.0117 115.728 15.543C115.353 15.0742 115.165 14.5322 115.165 13.917C115.165 12.9561 115.443 11.9951 116 11.0342C116.562 10.0732 117.324 9.30273 118.285 8.72266C119.252 8.14258 120.222 7.85254 121.194 7.85254C121.687 7.85254 122.059 7.96973 122.311 8.2041C122.562 8.43848 122.688 8.73438 122.688 9.0918C122.688 9.51953 122.565 9.93555 122.319 10.3398C121.979 10.8906 121.552 11.3359 121.036 11.6758C120.521 12.0098 119.943 12.2646 119.305 12.4404C118.877 12.5576 118.303 12.6455 117.582 12.7041ZM117.661 12.2471C118.177 12.1709 118.575 12.0684 118.856 11.9395C119.144 11.8047 119.422 11.5938 119.691 11.3066C119.967 11.0137 120.204 10.6475 120.403 10.208C120.603 9.7627 120.702 9.34668 120.702 8.95996C120.702 8.7959 120.655 8.66699 120.562 8.57324C120.474 8.47949 120.359 8.43262 120.219 8.43262C119.938 8.43262 119.621 8.62891 119.27 9.02148C118.625 9.73633 118.089 10.8115 117.661 12.2471ZM133.666 16H127.338V15.6748C128.984 14.1514 130.373 12.751 131.504 11.4736C132.453 10.4131 133.048 9.60449 133.288 9.04785C133.534 8.48535 133.657 7.91992 133.657 7.35156C133.657 6.81836 133.487 6.38477 133.147 6.05078C132.813 5.7168 132.395 5.5498 131.891 5.5498C131.076 5.5498 130.379 5.99805 129.799 6.89453L129.474 6.74512C129.778 5.87793 130.174 5.21875 130.66 4.76758C131.334 4.14648 132.125 3.83594 133.033 3.83594C133.877 3.83594 134.574 4.09668 135.125 4.61816C135.682 5.13965 135.96 5.74316 135.96 6.42871C135.96 7.03223 135.825 7.62988 135.556 8.22168C135.286 8.80762 134.729 9.5459 133.886 10.4365C133.241 11.1162 131.935 12.2969 129.966 13.9785H132.26C132.998 13.9785 133.514 13.8965 133.807 13.7324C134.105 13.5625 134.384 13.2256 134.642 12.7217H135.055L133.666 16ZM75.9863 26.873L75.3242 29.5684H75.1309C75.0879 29.1465 75.0117 28.8086 74.9023 28.5547C74.7383 28.1875 74.5195 27.9043 74.2461 27.7051C73.9766 27.5059 73.6836 27.4062 73.3672 27.4062C73.0625 27.4062 72.7949 27.5234 72.5645 27.7578C72.3379 27.9883 72.2246 28.25 72.2246 28.543C72.2246 28.832 72.3027 29.1172 72.459 29.3984C72.6191 29.6758 72.9941 30.0957 73.584 30.6582C74.0566 31.1074 74.373 31.4941 74.5332 31.8184C74.6973 32.1426 74.7793 32.4941 74.7793 32.873C74.7793 33.2988 74.666 33.6914 74.4395 34.0508C74.2129 34.4102 73.8828 34.6895 73.4492 34.8887C73.0195 35.084 72.5312 35.1816 71.9844 35.1816C71.6484 35.1816 71.2246 35.1309 70.7129 35.0293C70.2051 34.9316 69.8672 34.8828 69.6992 34.8828C69.5664 34.8828 69.4473 34.9043 69.3418 34.9473C69.2363 34.9863 69.1055 35.0645 68.9492 35.1816H68.7207L69.4297 32.1523H69.6523C69.7031 32.6836 69.8105 33.1367 69.9746 33.5117C70.1387 33.8828 70.373 34.1738 70.6777 34.3848C70.9824 34.5918 71.3301 34.6953 71.7207 34.6953C72.1074 34.6953 72.4297 34.5684 72.6875 34.3145C72.9492 34.0566 73.0801 33.7559 73.0801 33.4121C73.0801 33.1191 73.0059 32.8379 72.8574 32.5684C72.7129 32.2988 72.3789 31.9062 71.8555 31.3906C71.3359 30.875 70.9766 30.4141 70.7773 30.0078C70.6328 29.707 70.5605 29.3867 70.5605 29.0469C70.5605 28.457 70.793 27.9473 71.2578 27.5176C71.7227 27.0879 72.3301 26.873 73.0801 26.873C73.4199 26.873 73.8672 26.9492 74.4219 27.1016C74.7461 27.1914 74.9746 27.2363 75.1074 27.2363C75.2207 27.2363 75.3223 27.2129 75.4121 27.166C75.502 27.1152 75.6074 27.0176 75.7285 26.873H75.9863ZM77.5391 32.8027C77.5039 33.0566 77.4863 33.2656 77.4863 33.4297C77.4863 33.7227 77.5703 33.957 77.7383 34.1328C77.9102 34.3086 78.1387 34.3965 78.4238 34.3965C78.6973 34.3965 78.9707 34.3301 79.2441 34.1973C79.5215 34.0645 79.8418 33.832 80.2051 33.5L80.3809 33.6582C79.9316 34.2012 79.4941 34.5879 79.0684 34.8184C78.6426 35.0488 78.1719 35.1641 77.6562 35.1641C77.0039 35.1641 76.5527 35.0078 76.3027 34.6953C76.0527 34.3828 75.9277 34.0215 75.9277 33.6113C75.9277 32.9707 76.1133 32.3301 76.4844 31.6895C76.8594 31.0488 77.3672 30.5352 78.0078 30.1484C78.6523 29.7617 79.2988 29.5684 79.9473 29.5684C80.2754 29.5684 80.5234 29.6465 80.6914 29.8027C80.8594 29.959 80.9434 30.1562 80.9434 30.3945C80.9434 30.6797 80.8613 30.957 80.6973 31.2266C80.4707 31.5938 80.1855 31.8906 79.8418 32.1172C79.498 32.3398 79.1133 32.5098 78.6875 32.627C78.4023 32.7051 78.0195 32.7637 77.5391 32.8027ZM77.5918 32.498C77.9355 32.4473 78.2012 32.3789 78.3887 32.293C78.5801 32.2031 78.7656 32.0625 78.9453 31.8711C79.1289 31.6758 79.2871 31.4316 79.4199 31.1387C79.5527 30.8418 79.6191 30.5645 79.6191 30.3066C79.6191 30.1973 79.5879 30.1113 79.5254 30.0488C79.4668 29.9863 79.3906 29.9551 79.2969 29.9551C79.1094 29.9551 78.8984 30.0859 78.6641 30.3477C78.2344 30.8242 77.877 31.541 77.5918 32.498ZM85.502 33.5879L85.6777 33.7461C85.2988 34.1992 84.9258 34.5312 84.5586 34.7422C84.0703 35.0234 83.5645 35.1641 83.041 35.1641C82.6895 35.1641 82.377 35.0898 82.1035 34.9414C81.834 34.7891 81.6348 34.5781 81.5059 34.3086C81.377 34.0352 81.3125 33.7559 81.3125 33.4707C81.3125 32.8301 81.4863 32.2012 81.834 31.584C82.1816 30.9629 82.6406 30.4727 83.2109 30.1133C83.7812 29.75 84.3418 29.5684 84.8926 29.5684C85.334 29.5684 85.666 29.666 85.8887 29.8613C86.1113 30.0566 86.2227 30.2988 86.2227 30.5879C86.2227 30.8496 86.1387 31.0723 85.9707 31.2559C85.8027 31.4395 85.6152 31.5312 85.4082 31.5312C85.2285 31.5312 85.0781 31.4727 84.957 31.3555C84.8398 31.2383 84.7812 31.0996 84.7812 30.9395C84.7812 30.7285 84.8867 30.5449 85.0977 30.3887C85.2422 30.2793 85.3145 30.1836 85.3145 30.1016C85.3145 30.0312 85.2852 29.9746 85.2266 29.9316C85.1484 29.8691 85.0469 29.8379 84.9219 29.8379C84.5938 29.8379 84.2852 29.9707 83.9961 30.2363C83.6133 30.5879 83.3203 31.0332 83.1172 31.5723C82.9141 32.1113 82.8125 32.623 82.8125 33.1074C82.8125 33.4902 82.916 33.7969 83.123 34.0273C83.3301 34.2539 83.5762 34.3672 83.8613 34.3672C84.1113 34.3672 84.3809 34.3027 84.6699 34.1738C84.9629 34.0449 85.2402 33.8496 85.502 33.5879ZM90.2715 29.5684C90.5801 29.5684 90.8691 29.6406 91.1387 29.7852C91.4121 29.9258 91.6172 30.123 91.7539 30.377C91.8945 30.6309 91.9648 30.9121 91.9648 31.2207C91.9648 31.8535 91.7871 32.4863 91.4316 33.1191C91.0801 33.752 90.6152 34.252 90.0371 34.6191C89.459 34.9824 88.877 35.1641 88.291 35.1641C87.7598 35.1641 87.3477 35.0059 87.0547 34.6895C86.7656 34.373 86.6211 33.9863 86.6211 33.5293C86.6211 32.9863 86.7285 32.4785 86.9434 32.0059C87.1621 31.5293 87.4375 31.1152 87.7695 30.7637C88.1055 30.4082 88.4902 30.1211 88.9238 29.9023C89.3574 29.6797 89.8066 29.5684 90.2715 29.5684ZM90.0312 29.8789C89.8242 29.8789 89.6523 29.9395 89.5156 30.0605C89.2422 30.3066 88.9336 30.8828 88.5898 31.7891C88.2461 32.6914 88.0742 33.5059 88.0742 34.2324C88.0742 34.4121 88.1289 34.5605 88.2383 34.6777C88.3477 34.7949 88.4766 34.8535 88.625 34.8535C88.7773 34.8535 88.9121 34.8066 89.0293 34.7129C89.2012 34.5723 89.4121 34.2578 89.6621 33.7695C89.9121 33.2773 90.1172 32.7363 90.2773 32.1465C90.4375 31.5527 90.5176 31.0098 90.5176 30.5176C90.5176 30.3145 90.4688 30.1582 90.3711 30.0488C90.2734 29.9355 90.1602 29.8789 90.0312 29.8789ZM95.5332 29.5684L94.8066 32.082C95.2949 31.3477 95.6602 30.8457 95.9023 30.5762C96.2578 30.1855 96.5645 29.9199 96.8223 29.7793C97.0801 29.6387 97.3223 29.5684 97.5488 29.5684C97.752 29.5684 97.9258 29.6445 98.0703 29.7969C98.2148 29.9453 98.2871 30.1406 98.2871 30.3828C98.2871 30.6016 98.2402 30.8672 98.1465 31.1797L97.3965 33.6816C97.334 33.9004 97.3027 34.043 97.3027 34.1094C97.3027 34.1484 97.3164 34.1836 97.3438 34.2148C97.375 34.2461 97.4062 34.2617 97.4375 34.2617C97.4766 34.2617 97.5176 34.2461 97.5605 34.2148C97.6973 34.1016 97.8359 33.9414 97.9766 33.7344C98.0117 33.6797 98.0684 33.5977 98.1465 33.4883L98.3691 33.623C97.7949 34.5879 97.1914 35.0703 96.5586 35.0703C96.3164 35.0703 96.127 35.0078 95.9902 34.8828C95.8535 34.7578 95.7852 34.6016 95.7852 34.4141C95.7852 34.25 95.832 34.0059 95.9258 33.6816L96.6582 31.1797C96.709 31.0156 96.7344 30.8945 96.7344 30.8164C96.7344 30.7734 96.7168 30.7363 96.6816 30.7051C96.6465 30.6699 96.6055 30.6523 96.5586 30.6523C96.4102 30.6523 96.2305 30.7539 96.0195 30.957C95.4805 31.4727 94.959 32.2402 94.4551 33.2598L93.9746 35H92.4805L93.5762 31.2383C93.6816 30.8672 93.7344 30.6035 93.7344 30.4473C93.7344 30.3809 93.7188 30.3262 93.6875 30.2832C93.6562 30.2363 93.6055 30.2012 93.5352 30.1777C93.4648 30.1504 93.332 30.1367 93.1367 30.1367L93.2012 29.9141L95.1758 29.5684H95.5332ZM105.553 26.873L103.648 33.4297C103.527 33.8398 103.467 34.0879 103.467 34.1738C103.467 34.2168 103.482 34.2539 103.514 34.2852C103.545 34.3164 103.578 34.332 103.613 34.332C103.68 34.332 103.756 34.2988 103.842 34.2324C103.986 34.123 104.162 33.916 104.369 33.6113L104.58 33.7227C104.029 34.6836 103.424 35.1641 102.764 35.1641C102.529 35.1641 102.348 35.1035 102.219 34.9824C102.094 34.8574 102.031 34.6992 102.031 34.5078C102.031 34.3242 102.082 34.0625 102.184 33.7227L102.359 33.125C101.871 33.9883 101.447 34.5625 101.088 34.8477C100.814 35.0586 100.549 35.1641 100.291 35.1641C99.998 35.1641 99.75 35.0449 99.5469 34.8066C99.3477 34.5684 99.248 34.2207 99.248 33.7637C99.248 33.1816 99.377 32.6074 99.6348 32.041C99.8926 31.4746 100.189 31.002 100.525 30.623C100.865 30.2441 101.188 29.9746 101.492 29.8145C101.801 29.6504 102.104 29.5684 102.4 29.5684C102.553 29.5684 102.688 29.5996 102.805 29.6621C102.926 29.7246 103.062 29.8418 103.215 30.0137L103.648 28.5547C103.754 28.1953 103.807 27.9375 103.807 27.7812C103.807 27.6875 103.771 27.6074 103.701 27.541C103.631 27.4746 103.537 27.4414 103.42 27.4414C103.365 27.4414 103.297 27.4473 103.215 27.459L103.273 27.2305L105.201 26.873H105.553ZM102.975 30.5879C102.975 30.3496 102.928 30.1758 102.834 30.0664C102.74 29.957 102.631 29.9023 102.506 29.9023C102.381 29.9023 102.246 29.9668 102.102 30.0957C101.824 30.3457 101.533 30.8496 101.229 31.6074C100.928 32.3613 100.777 32.9961 100.777 33.5117C100.777 33.6992 100.811 33.8379 100.877 33.9277C100.943 34.0176 101.018 34.0625 101.1 34.0625C101.236 34.0625 101.373 34 101.51 33.875C101.842 33.5781 102.168 33.0684 102.488 32.3457C102.812 31.6191 102.975 31.0332 102.975 30.5879ZM113.346 26.8906L111.406 33.5586C111.305 33.9062 111.254 34.127 111.254 34.2207C111.254 34.3145 111.289 34.4121 111.359 34.5137C111.434 34.6113 111.512 34.6758 111.594 34.707C111.68 34.7344 111.934 34.7598 112.355 34.7832L112.291 35H108.289L108.354 34.7832C108.752 34.7754 109.029 34.7422 109.186 34.6836C109.342 34.625 109.469 34.5293 109.566 34.3965C109.668 34.2637 109.781 33.9844 109.906 33.5586L111.055 29.5977C111.23 28.9961 111.322 28.6777 111.33 28.6426C111.354 28.541 111.365 28.4453 111.365 28.3555C111.365 28.1797 111.311 28.041 111.201 27.9395C111.096 27.834 110.943 27.7812 110.744 27.7812C110.646 27.7812 110.453 27.7969 110.164 27.8281L110.117 27.6113L113.1 26.8906H113.346ZM116.814 33.3242H114.219L114.506 32.3398L119.264 26.8906H120.031L118.438 32.3398H119.357L119.047 33.3242H118.15L117.611 35.1641H116.281L116.814 33.3242ZM117.113 32.3398L118.092 28.8652L115.08 32.3398H117.113ZM129.553 26.873L127.648 33.4297C127.527 33.8398 127.467 34.0879 127.467 34.1738C127.467 34.2168 127.482 34.2539 127.514 34.2852C127.545 34.3164 127.578 34.332 127.613 34.332C127.68 34.332 127.756 34.2988 127.842 34.2324C127.986 34.123 128.162 33.916 128.369 33.6113L128.58 33.7227C128.029 34.6836 127.424 35.1641 126.764 35.1641C126.529 35.1641 126.348 35.1035 126.219 34.9824C126.094 34.8574 126.031 34.6992 126.031 34.5078C126.031 34.3242 126.082 34.0625 126.184 33.7227L126.359 33.125C125.871 33.9883 125.447 34.5625 125.088 34.8477C124.814 35.0586 124.549 35.1641 124.291 35.1641C123.998 35.1641 123.75 35.0449 123.547 34.8066C123.348 34.5684 123.248 34.2207 123.248 33.7637C123.248 33.1816 123.377 32.6074 123.635 32.041C123.893 31.4746 124.189 31.002 124.525 30.623C124.865 30.2441 125.188 29.9746 125.492 29.8145C125.801 29.6504 126.104 29.5684 126.4 29.5684C126.553 29.5684 126.688 29.5996 126.805 29.6621C126.926 29.7246 127.062 29.8418 127.215 30.0137L127.648 28.5547C127.754 28.1953 127.807 27.9375 127.807 27.7812C127.807 27.6875 127.771 27.6074 127.701 27.541C127.631 27.4746 127.537 27.4414 127.42 27.4414C127.365 27.4414 127.297 27.4473 127.215 27.459L127.273 27.2305L129.201 26.873H129.553ZM126.975 30.5879C126.975 30.3496 126.928 30.1758 126.834 30.0664C126.74 29.957 126.631 29.9023 126.506 29.9023C126.381 29.9023 126.246 29.9668 126.102 30.0957C125.824 30.3457 125.533 30.8496 125.229 31.6074C124.928 32.3613 124.777 32.9961 124.777 33.5117C124.777 33.6992 124.811 33.8379 124.877 33.9277C124.943 34.0176 125.018 34.0625 125.1 34.0625C125.236 34.0625 125.373 34 125.51 33.875C125.842 33.5781 126.168 33.0684 126.488 32.3457C126.812 31.6191 126.975 31.0332 126.975 30.5879ZM134.756 29.6504L133.619 33.5469L133.502 34.0215C133.49 34.0801 133.484 34.123 133.484 34.1504C133.484 34.1973 133.5 34.2383 133.531 34.2734C133.566 34.3086 133.602 34.3262 133.637 34.3262C133.719 34.3262 133.832 34.2637 133.977 34.1387C134.035 34.0879 134.176 33.9082 134.398 33.5996L134.604 33.7051C134.326 34.2129 134.029 34.584 133.713 34.8184C133.4 35.0488 133.062 35.1641 132.699 35.1641C132.477 35.1641 132.307 35.1074 132.189 34.9941C132.072 34.877 132.014 34.7305 132.014 34.5547C132.014 34.4023 132.076 34.1191 132.201 33.7051L132.342 33.2305C131.889 34.0078 131.453 34.5586 131.035 34.8828C130.793 35.0703 130.535 35.1641 130.262 35.1641C129.902 35.1641 129.643 35.0176 129.482 34.7246C129.322 34.4277 129.242 34.0938 129.242 33.7227C129.242 33.1719 129.41 32.541 129.746 31.8301C130.082 31.1152 130.523 30.541 131.07 30.1074C131.52 29.748 131.941 29.5684 132.336 29.5684C132.555 29.5684 132.73 29.6328 132.863 29.7617C132.996 29.8867 133.094 30.1172 133.156 30.4531L133.367 29.7324L134.756 29.6504ZM132.881 30.7637C132.881 30.4473 132.832 30.2188 132.734 30.0781C132.664 29.9805 132.568 29.9316 132.447 29.9316C132.326 29.9316 132.201 29.9902 132.072 30.1074C131.811 30.3496 131.527 30.8418 131.223 31.584C130.922 32.3223 130.771 32.9609 130.771 33.5C130.771 33.707 130.805 33.8574 130.871 33.9512C130.941 34.041 131.018 34.0859 131.1 34.0859C131.275 34.0859 131.453 33.9844 131.633 33.7812C131.891 33.4922 132.123 33.1387 132.33 32.7207C132.697 31.9863 132.881 31.334 132.881 30.7637ZM135.312 30.0957L137.117 29.5684C137.262 29.748 137.363 29.918 137.422 30.0781C137.527 30.3555 137.602 30.7383 137.645 31.2266C137.727 32.1875 137.783 33.2129 137.814 34.3027C138.232 33.752 138.711 33.0234 139.25 32.1172C139.414 31.8438 139.496 31.5859 139.496 31.3438C139.496 31.1914 139.4 31.0469 139.209 30.9102C139.021 30.7734 138.904 30.668 138.857 30.5938C138.811 30.5156 138.787 30.416 138.787 30.2949C138.787 30.0996 138.857 29.9297 138.998 29.7852C139.143 29.6406 139.316 29.5684 139.52 29.5684C139.734 29.5684 139.92 29.6504 140.076 29.8145C140.236 29.9785 140.316 30.1719 140.316 30.3945C140.316 30.6562 140.242 30.9609 140.094 31.3086C139.949 31.6523 139.607 32.2441 139.068 33.084C138.377 34.1582 137.699 35.0879 137.035 35.873C136.609 36.373 136.266 36.7324 136.004 36.9512C135.742 37.1738 135.471 37.3496 135.189 37.4785C135.021 37.5527 134.855 37.5898 134.691 37.5898C134.469 37.5898 134.279 37.5117 134.123 37.3555C133.963 37.1992 133.883 37.0137 133.883 36.7988C133.883 36.584 133.955 36.4023 134.1 36.2539C134.24 36.1055 134.406 36.0312 134.598 36.0312C134.836 36.0312 135.055 36.1562 135.254 36.4062C135.387 36.5742 135.496 36.6582 135.582 36.6582C135.672 36.6582 135.76 36.6328 135.846 36.582C135.963 36.5195 136.127 36.375 136.338 36.1484C136.361 35.6602 136.373 35.291 136.373 35.041C136.373 34.7051 136.357 34.2324 136.326 33.623L136.227 31.3906C136.191 30.9805 136.104 30.6855 135.963 30.5059C135.854 30.373 135.711 30.3066 135.535 30.3066C135.469 30.3066 135.395 30.3125 135.312 30.3242V30.0957ZM144.805 29.5684L144.547 31.3789H144.33C144.299 30.9102 144.154 30.541 143.896 30.2715C143.643 30.002 143.369 29.8672 143.076 29.8672C142.896 29.8672 142.748 29.9199 142.631 30.0254C142.514 30.1309 142.455 30.2578 142.455 30.4062C142.455 30.5312 142.48 30.6484 142.531 30.7578C142.582 30.8672 142.695 31.0156 142.871 31.2031C143.488 31.8672 143.863 32.3242 143.996 32.5742C144.129 32.8242 144.195 33.0918 144.195 33.377C144.195 33.6855 144.117 33.9785 143.961 34.2559C143.805 34.5293 143.57 34.75 143.258 34.918C142.949 35.082 142.627 35.1641 142.291 35.1641C142.064 35.1641 141.785 35.1191 141.453 35.0293C141.234 34.9668 141.07 34.9355 140.961 34.9355C140.863 34.9355 140.787 34.9512 140.732 34.9824C140.678 35.0098 140.617 35.0703 140.551 35.1641H140.334L140.621 33.2129H140.809C140.945 33.6855 141.072 34.0234 141.189 34.2266C141.311 34.4258 141.471 34.5859 141.67 34.707C141.869 34.8242 142.061 34.8828 142.244 34.8828C142.459 34.8828 142.637 34.8164 142.777 34.6836C142.918 34.5469 142.988 34.3848 142.988 34.1973C142.988 34.0137 142.941 33.8359 142.848 33.6641C142.758 33.4922 142.547 33.2246 142.215 32.8613C141.758 32.3652 141.457 31.9824 141.312 31.7129C141.211 31.5176 141.16 31.2949 141.16 31.0449C141.16 30.623 141.312 30.2715 141.617 29.9902C141.926 29.709 142.357 29.5684 142.912 29.5684C143.154 29.5684 143.451 29.6113 143.803 29.6973C143.979 29.7402 144.119 29.7617 144.225 29.7617C144.377 29.7617 144.5 29.6973 144.594 29.5684H144.805Z" fill="black"/>
<path d="M212.354 18.3536C212.549 18.1583 212.549 17.8417 212.354 17.6464L209.172 14.4645C208.976 14.2692 208.66 14.2692 208.464 14.4645C208.269 14.6597 208.269 14.9763 208.464 15.1716L211.293 18L208.464 20.8284C208.269 21.0237 208.269 21.3403 208.464 21.5355C208.66 21.7308 208.976 21.7308 209.172 21.5355L212.354 18.3536ZM162 18.5L212 18.5V17.5L162 17.5V18.5Z" fill="black"/>
<path d="M0.646447 17.6464C0.451184 17.8417 0.451184 18.1583 0.646447 18.3536L3.82843 21.5355C4.02369 21.7308 4.34027 21.7308 4.53553 21.5355C4.7308 21.3403 4.7308 21.0237 4.53553 20.8284L1.70711 18L4.53553 15.1716C4.7308 14.9763 4.7308 14.6597 4.53553 14.4645C4.34027 14.2692 4.02369 14.2692 3.82843 14.4645L0.646447 17.6464ZM51 17.5L1 17.5V18.5L51 18.5V17.5Z" fill="black"/>
</svg>
