<svg width="241" height="54" viewBox="0 0 241 54" fill="none" xmlns="http://www.w3.org/2000/svg">
<path d="M0.944 34.096H14.72V40H21.392V34.096H26.096V28.192H21.392V11.2H14.576L0.944 33.28V34.096ZM3.248 32.752L15.728 12.544H19.616V29.536H24.32V32.752H19.616V38.656H16.496V32.752H3.248ZM15.776 13.264H17.744L17.936 13.024H15.968L15.776 13.264ZM15.248 14.176H17.168L17.36 13.936H15.392L15.248 14.176ZM14.624 15.136H16.592L16.784 14.896H14.816L14.624 15.136ZM14.048 16.096H16.016L16.208 15.856H14.24L14.048 16.096ZM8.72 29.536H16.496V16.768H16.304L8.72 29.536ZM13.472 17.056H15.536L15.728 16.816H13.616L13.472 17.056ZM12.944 17.968H15.056L15.152 17.776H13.04L12.944 17.968ZM12.32 18.928H14.48L14.624 18.688H12.464L12.32 18.928ZM11.696 19.888H13.904L14.048 19.648H11.888L11.696 19.888ZM11.12 20.848H13.328L13.472 20.608H11.264L11.12 20.848ZM10.496 21.808H12.8L12.944 21.568H10.688L10.496 21.808ZM11.072 28.192L14.72 22.048V28.192H11.072ZM9.968 22.72H12.224L12.416 22.48H10.112L9.968 22.72ZM9.344 23.68H11.648L11.84 23.44H9.536L9.344 23.68ZM8.768 24.64H11.072L11.264 24.4H8.912L8.768 24.64ZM8.144 25.6H10.496L10.688 25.36H8.336L8.144 25.6ZM7.616 26.512H10.016L10.112 26.32H7.712L7.616 26.512ZM6.992 27.472H9.392L9.584 27.232H7.136L6.992 27.472ZM6.368 28.432H8.816L9.008 28.192H6.56L6.368 28.432ZM5.792 29.392H8.24L8.432 29.152H5.936L5.792 29.392ZM5.168 30.352H23.888V30.112H5.36L5.168 30.352ZM4.64 31.264H23.888V31.024H4.784L4.64 31.264ZM4.016 32.224H23.888V31.984H4.208L4.016 32.224ZM27.6777 37.408C27.6777 39.472 29.0698 40.72 31.1338 40.72C33.1978 40.72 34.5898 39.472 34.5898 37.408C34.5898 35.344 33.1978 34.096 31.1338 34.096C29.0698 34.096 27.6777 35.344 27.6777 37.408ZM29.1658 37.408C29.1658 36.064 30.0778 35.296 31.1338 35.296C32.2378 35.296 33.1497 36.064 33.1497 37.408C33.1497 38.752 32.2378 39.52 31.1338 39.52C30.0778 39.52 29.1658 38.752 29.1658 37.408ZM30.4618 36.064H31.8058L31.4218 35.824H30.8458L30.4618 36.064ZM29.7898 37.024H32.4778L32.3818 36.784H29.8858L29.7898 37.024ZM29.7898 38.032H32.5258L32.6218 37.792H29.6938L29.7898 38.032ZM30.5098 38.8L30.8458 39.04H31.4218L31.8058 38.8H30.5098ZM47.8509 40H54.9069V29.728H65.5149V23.584H54.9069V17.44H66.4269V11.2H47.8509V40ZM49.6269 38.656V12.544H64.6509V16.096H53.1309V24.928H63.7389V28.384H53.1309V38.656H49.6269ZM50.5389 13.456H64.1709V13.216H50.2989L50.5389 13.456ZM51.4989 14.416H64.1709V14.176H51.2589L51.4989 14.416ZM52.4589 15.376H64.1709V15.136H52.2189L52.4589 15.376ZM53.1309 25.792H63.2589V25.552H53.1309V25.792ZM53.1309 26.752H63.2589V26.512H53.1309V26.752ZM53.1309 27.712H63.2589V27.472H53.1309V27.712ZM69.3665 40H76.4225V11.2H69.3665V40ZM71.1425 38.656V12.544H74.6465V38.656H71.1425ZM71.6225 13.216H74.1665V12.976H71.6225V13.216ZM71.6225 14.176H74.1665V13.936H71.6225V14.176ZM71.6225 15.136H74.1665V14.896H71.6225V15.136ZM71.6225 16.096H74.1665V15.856H71.6225V16.096ZM71.6225 17.056H74.1665V16.816H71.6225V17.056ZM71.6225 18.016H74.1665V17.776H71.6225V18.016ZM71.6225 18.976H74.1665V18.736H71.6225V18.976ZM71.6225 19.936H74.1665V19.696H71.6225V19.936ZM71.6225 20.896H74.1665V20.656H71.6225V20.896ZM71.6225 21.856H74.1665V21.616H71.6225V21.856ZM71.6225 22.816H74.1665V22.576H71.6225V22.816ZM71.6225 23.776H74.1665V23.536H71.6225V23.776ZM71.6225 24.736H74.1665V24.496H71.6225V24.736ZM71.6225 25.696H74.1665V25.456H71.6225V25.696ZM71.6225 26.656H74.1665V26.416H71.6225V26.656ZM81.0384 40H88.0944V22.912L99.3264 40H106.67V11.2H99.6624V28.288L88.4784 11.2H81.0384V40ZM82.8144 38.656V12.544H87.3744L100.574 32.608H101.438V12.544H104.894V38.656H100.43L87.0384 18.352H86.3184V38.656H82.8144ZM84.2064 13.312H87.2784L87.0864 13.072H84.0624L84.2064 13.312ZM84.8784 14.272H87.9024L87.7104 14.032H84.7344L84.8784 14.272ZM85.5024 15.232H88.5264L88.3344 14.992H85.3584L85.5024 15.232ZM86.1744 16.192H89.1504L88.9584 15.952H86.0304L86.1744 16.192ZM86.7984 17.152H89.7744L89.5824 16.912H86.6544L86.7984 17.152ZM87.4704 18.112H90.3984L90.2064 17.872H87.3264L87.4704 18.112ZM88.0944 19.072H91.0704L90.8784 18.832H87.9504L88.0944 19.072ZM88.7184 20.032H91.6944L91.5024 19.792H88.5744L88.7184 20.032ZM89.3904 20.992H92.3184L92.1264 20.752H89.2464L89.3904 20.992ZM90.0144 21.952H92.9424L92.7504 21.712H89.8704L90.0144 21.952ZM90.6384 22.912H93.5664L93.3744 22.672H90.4944L90.6384 22.912ZM91.2624 23.872H94.2384L94.0464 23.632H91.1184L91.2624 23.872ZM91.8864 24.832H94.8624L94.6704 24.592H91.7424L91.8864 24.832ZM92.5104 25.792H95.4864L95.2944 25.552H92.3664L92.5104 25.792ZM93.1824 26.752H96.1104L95.9184 26.512H93.0384L93.1824 26.752ZM93.8064 27.712H96.7344L96.5424 27.472H93.6624L93.8064 27.712ZM94.4304 28.672H97.3584L97.1664 28.432H94.2864L94.4304 28.672ZM95.0544 29.632H98.0304L97.8384 29.392H94.9104L95.0544 29.632ZM95.5344 30.352L95.6784 30.592H98.6544L98.4624 30.352H95.5344ZM96.2064 31.312L96.3504 31.552H99.2784L99.0864 31.312H96.2064ZM96.8304 32.272L96.9744 32.512H99.9024L99.7104 32.272H96.8304ZM97.4544 33.232L97.5984 33.472H100.622L100.43 33.232H97.4544ZM98.0784 34.192L98.2224 34.432H101.342L101.102 34.192H98.0784ZM98.7024 35.152L98.8464 35.392H102.062L101.822 35.152H98.7024ZM99.3264 36.112L99.4704 36.352H102.734L102.542 36.112H99.3264ZM99.9984 37.072L100.142 37.312H103.502L103.262 37.072H99.9984ZM100.526 37.936L100.67 38.176H104.174L103.934 37.936H100.526ZM111.273 40H121.305C130.521 40 136.377 33.232 136.377 25.552C136.377 17.44 129.801 11.2 121.305 11.2H111.273V40ZM113.049 38.656V12.544H121.305C128.793 12.544 134.601 18.208 134.601 25.552C134.601 32.512 129.417 38.656 121.305 38.656H113.049ZM116.553 13.456H124.569L123.225 13.216H116.553V13.456ZM116.553 14.416H127.209L126.681 14.176H116.553V14.416ZM116.553 15.376H128.745L128.409 15.136H116.553V15.376ZM124.137 16.048L124.905 16.288H130.041L129.657 16L129.705 16.048H124.137ZM116.553 34.912H121.161C126.681 34.912 130.905 31.216 130.905 25.552C130.905 20.32 127.209 16.24 121.161 16.24H116.553V34.912ZM126.633 17.008L127.017 17.248H130.953L130.713 17.008H126.633ZM118.329 33.568V17.584H121.161C126.105 17.584 129.129 21.088 129.129 25.552C129.129 30.4 125.673 33.568 121.161 33.568H118.329ZM128.025 17.968L128.265 18.16H131.721L131.577 17.968H128.025ZM129.177 19.12H132.345L132.153 18.88H128.937L129.177 19.12ZM129.849 20.08H132.825L132.729 19.84H129.705L129.849 20.08ZM130.377 20.992H133.257L133.161 20.752H130.233L130.377 20.992ZM130.809 21.952H133.593L133.497 21.712H130.665L130.809 21.952ZM131.049 22.864H133.833L133.785 22.672H131.001L131.049 22.864ZM131.241 23.824H134.025L133.929 23.584H131.193L131.241 23.824ZM131.337 24.784H134.073V24.544H131.337V24.784ZM131.385 25.696H134.121V25.456H131.385V25.696ZM131.289 26.656H134.073V26.416H131.337L131.289 26.656ZM131.193 27.616H133.929L134.025 27.376H131.241L131.193 27.616ZM130.953 28.528H133.737L133.833 28.288H131.049L130.953 28.528ZM130.665 29.488H133.497L133.593 29.248H130.713L130.665 29.488ZM130.185 30.4H133.161L133.257 30.208H130.281L130.185 30.4ZM129.561 31.36H132.729L132.873 31.12H129.753L129.561 31.36ZM128.793 32.32H132.153L132.345 32.08H129.033L128.793 32.32ZM127.785 33.232H131.577L131.769 32.992H128.169L127.785 33.232ZM126.393 34.192H130.809L131.049 33.952H126.825L126.393 34.192ZM124.041 35.104H129.801L129.993 34.912H124.665L124.041 35.104ZM116.553 36.064H128.505L128.841 35.824H116.553V36.064ZM116.553 37.024H126.777L127.305 36.784H116.553V37.024ZM116.553 37.936H123.705L124.665 37.744H116.553V37.936ZM141.179 40H148.235V11.2H141.179V40ZM142.955 38.656V12.544H146.459V38.656H142.955ZM143.435 13.216H145.979V12.976H143.435V13.216ZM143.435 14.176H145.979V13.936H143.435V14.176ZM143.435 15.136H145.979V14.896H143.435V15.136ZM143.435 16.096H145.979V15.856H143.435V16.096ZM143.435 17.056H145.979V16.816H143.435V17.056ZM143.435 18.016H145.979V17.776H143.435V18.016ZM143.435 18.976H145.979V18.736H143.435V18.976ZM143.435 19.936H145.979V19.696H143.435V19.936ZM143.435 20.896H145.979V20.656H143.435V20.896ZM143.435 21.856H145.979V21.616H143.435V21.856ZM143.435 22.816H145.979V22.576H143.435V22.816ZM143.435 23.776H145.979V23.536H143.435V23.776ZM143.435 24.736H145.979V24.496H143.435V24.736ZM143.435 25.696H145.979V25.456H143.435V25.696ZM143.435 26.656H145.979V26.416H143.435V26.656ZM152.851 40H159.907V22.912L171.139 40H178.483V11.2H171.475V28.288L160.291 11.2H152.851V40ZM154.627 38.656V12.544H159.187L172.387 32.608H173.251V12.544H176.707V38.656H172.243L158.851 18.352H158.131V38.656H154.627ZM156.019 13.312H159.091L158.899 13.072H155.875L156.019 13.312ZM156.691 14.272H159.715L159.523 14.032H156.547L156.691 14.272ZM157.315 15.232H160.339L160.147 14.992H157.171L157.315 15.232ZM157.987 16.192H160.963L160.771 15.952H157.843L157.987 16.192ZM158.611 17.152H161.587L161.395 16.912H158.467L158.611 17.152ZM159.283 18.112H162.211L162.019 17.872H159.139L159.283 18.112ZM159.907 19.072H162.883L162.691 18.832H159.763L159.907 19.072ZM160.531 20.032H163.507L163.315 19.792H160.387L160.531 20.032ZM161.203 20.992H164.131L163.939 20.752H161.059L161.203 20.992ZM161.827 21.952H164.755L164.563 21.712H161.683L161.827 21.952ZM162.451 22.912H165.379L165.187 22.672H162.307L162.451 22.912ZM163.075 23.872H166.051L165.859 23.632H162.931L163.075 23.872ZM163.699 24.832H166.675L166.483 24.592H163.555L163.699 24.832ZM164.323 25.792H167.299L167.107 25.552H164.179L164.323 25.792ZM164.995 26.752H167.923L167.731 26.512H164.851L164.995 26.752ZM165.619 27.712H168.547L168.355 27.472H165.475L165.619 27.712ZM166.243 28.672H169.171L168.979 28.432H166.099L166.243 28.672ZM166.867 29.632H169.843L169.651 29.392H166.723L166.867 29.632ZM167.347 30.352L167.491 30.592H170.467L170.275 30.352H167.347ZM168.019 31.312L168.163 31.552H171.091L170.899 31.312H168.019ZM168.643 32.272L168.787 32.512H171.715L171.523 32.272H168.643ZM169.267 33.232L169.411 33.472H172.435L172.243 33.232H169.267ZM169.891 34.192L170.035 34.432H173.155L172.915 34.192H169.891ZM170.515 35.152L170.659 35.392H173.875L173.635 35.152H170.515ZM171.139 36.112L171.283 36.352H174.547L174.355 36.112H171.139ZM171.811 37.072L171.955 37.312H175.315L175.075 37.072H171.811ZM172.339 37.936L172.483 38.176H175.987L175.747 37.936H172.339ZM182.941 25.6C182.941 34.192 189.421 40.96 198.541 40.96C209.005 40.96 213.997 33.856 213.997 25.36V22.624H198.157V28.72H206.365C206.173 31.504 203.725 34.288 198.685 34.288C193.885 34.288 190.093 30.928 190.093 25.6C190.093 20.752 193.405 16.912 198.541 16.912C201.277 16.912 203.725 18.016 205.693 19.792L210.589 15.28C207.565 12.208 203.869 10.24 198.541 10.24C189.421 10.24 182.941 17.008 182.941 25.6ZM184.717 25.6C184.717 17.776 190.525 11.584 198.541 11.584C202.669 11.584 205.885 12.832 208.381 15.184L205.597 17.872C203.581 16.48 201.085 15.568 198.541 15.568C192.349 15.568 188.269 19.984 188.269 25.6C188.269 31.216 192.349 35.632 198.541 35.632C205.309 35.632 208.237 31.312 208.285 27.376H199.933V23.968H212.221V25.648C212.221 33.616 207.805 39.616 198.541 39.616C190.525 39.616 184.717 33.424 184.717 25.6ZM185.437 22.864H188.077L188.173 22.624H185.485L185.437 22.864ZM185.293 23.824H187.885L187.981 23.584H185.341L185.293 23.824ZM200.557 24.784H211.645V24.544H200.557V24.784ZM185.197 24.784H187.789L187.837 24.544H185.245L185.197 24.784ZM200.557 25.744H211.645V25.504H200.557V25.744ZM185.197 25.744H187.789V25.504H185.197V25.744ZM200.557 26.704H211.645V26.464H200.557V26.704ZM185.245 26.704H187.837L187.789 26.464H185.197L185.245 26.704ZM208.861 27.664H211.501V27.424H208.909L208.861 27.664ZM185.341 27.664H187.981L187.885 27.424H185.293L185.341 27.664ZM208.717 28.624H211.357L211.405 28.384H208.813L208.717 28.624ZM185.533 28.624H188.173L188.077 28.384H185.437L185.533 28.624ZM208.573 29.584H211.165L211.261 29.344H208.621L208.573 29.584ZM185.725 29.584H188.461L188.365 29.344H185.677L185.725 29.584ZM208.189 30.544H210.925L211.021 30.304H208.285L208.189 30.544ZM186.013 30.544H188.893L188.749 30.304H185.965L186.013 30.544ZM207.709 31.504H210.637L210.781 31.264H207.901L207.709 31.504ZM186.445 31.504H189.469L189.277 31.264H186.301L186.445 31.504ZM207.133 32.464H210.205L210.349 32.224H207.373L207.133 32.464ZM186.925 32.464H190.189L189.949 32.224H186.781L186.925 32.464ZM206.317 33.424H209.725L209.917 33.184H206.557L206.317 33.424ZM187.501 33.424H191.053L190.813 33.184H187.357L187.501 33.424ZM205.117 34.384H209.197L209.389 34.144H205.501L205.117 34.384ZM188.221 34.384H192.205L191.917 34.144H188.077L188.221 34.384ZM203.197 35.344H208.429L208.669 35.104H203.677L203.197 35.344ZM188.893 35.104L189.133 35.344H194.077L193.597 35.104H188.893ZM189.997 36.064L190.285 36.304H207.325L207.613 36.064H200.077C199.645 36.112 199.213 36.16 198.541 36.16C198.013 36.16 197.341 36.112 196.957 36.064H189.997ZM191.341 37.024L191.677 37.264H206.077L206.413 37.024H191.341ZM193.021 37.984L193.645 38.224H204.013L204.637 37.984H193.021ZM196.285 38.944C196.957 39.04 197.773 39.088 198.541 39.088C199.741 39.088 200.365 39.04 200.749 38.944H196.285ZM218.473 31.552C218.473 36.736 222.025 40.96 228.312 40.96C233.737 40.96 238.057 36.736 238.057 31.648C238.057 27.136 235.657 24.256 230.521 22.72C228.073 22 225.433 21.616 225.433 19.456C225.433 17.584 226.921 16.672 228.457 16.672C230.424 16.672 231.433 18.016 231.433 19.648H238.057C237.673 14.32 234.649 10.24 228.265 10.24C222.841 10.24 218.473 14.464 218.473 19.552C218.473 24.496 221.161 26.752 226.009 28.48C228.361 29.296 231.193 29.92 231.193 32.08C231.193 33.568 230.089 34.576 228.312 34.576C226.681 34.576 225.337 33.232 225.337 31.552H218.473ZM220.153 32.896H223.897C224.329 34.48 225.865 35.872 228.312 35.92C230.569 35.92 232.777 34.624 232.777 32.08C232.777 28.96 229.465 28.24 226.729 27.232C221.449 25.36 220.105 23.104 220.105 19.552C220.105 15.184 223.849 11.584 228.312 11.584C233.929 11.584 236.041 15.472 236.329 18.304H232.729C232.297 17.104 231.289 15.328 228.312 15.328C225.721 15.328 223.849 16.96 223.849 19.456C223.849 22.288 226.297 22.96 229.129 23.776C233.545 25.024 236.425 26.8 236.425 31.648C236.425 36.016 232.777 39.616 228.312 39.616C223.753 39.616 220.249 36.496 220.153 32.896ZM226.153 12.4H228.312V12.16H227.305L226.153 12.4ZM224.089 13.36H228.312V13.12H224.473L224.089 13.36ZM222.745 14.368H228.312V14.128H223.033L222.745 14.368ZM221.929 15.328H225.817L226.345 15.088H222.121L221.929 15.328ZM221.353 16.336H224.473L224.809 16.048H221.497L221.353 16.336ZM220.969 17.296H223.801L223.945 17.056H221.017L220.969 17.296ZM220.681 18.304H223.465L223.561 18.016H220.777L220.681 18.304ZM220.585 19.264H223.368V19.024H220.585V19.264ZM220.585 20.224H223.417L223.368 19.984H220.585V20.224ZM220.729 21.232H223.657L223.561 20.992H220.681L220.729 21.232ZM220.969 22.192H224.377L224.089 21.904L224.137 21.952H220.921L220.969 22.192ZM221.545 23.2H225.673L225.289 22.96H221.401L221.545 23.2ZM222.409 24.16H228.601L227.689 23.92H222.169L222.409 24.16ZM223.801 25.168H231.529L230.809 24.88H223.273L223.801 25.168ZM225.145 25.888L225.529 26.128H233.161L232.873 25.888H225.145ZM227.113 26.848L227.833 27.136H234.409L234.169 26.848H227.113ZM229.897 27.856L230.424 28.096H235.081L234.985 27.856H229.897ZM231.721 28.816L232.009 29.056H235.513L235.417 28.816H231.721ZM232.729 30.064H235.849L235.753 29.824H232.585L232.729 30.064ZM233.113 31.024H235.897V30.784H233.065L233.113 31.024ZM233.257 32.032H235.897L235.945 31.792H233.257V32.032ZM233.161 32.992H235.801L235.849 32.752H233.209L233.161 32.992ZM232.825 34H235.513L235.609 33.712H232.969L232.825 34ZM232.105 34.96H235.033L235.177 34.72H232.345L232.105 34.96ZM230.665 35.968H234.457L234.505 35.872L234.649 35.68H231.241L230.665 35.968ZM228.312 36.928H233.545L233.785 36.688H228.312V36.928ZM228.312 37.888H232.297L232.633 37.648H228.312V37.888ZM228.312 38.896H229.849L230.761 38.656H228.312V38.896Z" fill="black"/>
</svg>
