<svg width="162" height="65" viewBox="0 0 162 65" fill="none" xmlns="http://www.w3.org/2000/svg">
<path d="M23.622 29.514C23.454 28.722 23.166 28.152 22.758 27.804C22.362 27.456 21.816 27.282 21.12 27.282C20.616 27.282 20.172 27.414 19.788 27.678C19.404 27.942 19.212 28.308 19.212 28.776C19.212 29.064 19.272 29.31 19.392 29.514C19.524 29.718 19.704 29.898 19.932 30.054C20.16 30.198 20.43 30.336 20.742 30.468C21.054 30.6 21.396 30.744 21.768 30.9C22.32 31.128 22.788 31.356 23.172 31.584C23.568 31.8 23.892 32.052 24.144 32.34C24.396 32.616 24.582 32.94 24.702 33.312C24.822 33.672 24.882 34.116 24.882 34.644C24.882 35.196 24.78 35.694 24.576 36.138C24.372 36.57 24.078 36.942 23.694 37.254C23.322 37.554 22.872 37.788 22.344 37.956C21.828 38.124 21.258 38.208 20.634 38.208C19.47 38.208 18.408 37.926 17.448 37.362L17.646 34.5H18.042C18.066 34.896 18.156 35.268 18.312 35.616C18.48 35.952 18.696 36.252 18.96 36.516C19.224 36.768 19.524 36.966 19.86 37.11C20.196 37.254 20.556 37.326 20.94 37.326C21.24 37.326 21.528 37.29 21.804 37.218C22.092 37.134 22.338 37.02 22.542 36.876C22.758 36.72 22.926 36.534 23.046 36.318C23.178 36.09 23.244 35.832 23.244 35.544C23.244 35.172 23.178 34.866 23.046 34.626C22.914 34.374 22.716 34.158 22.452 33.978C22.2 33.798 21.882 33.636 21.498 33.492C21.126 33.336 20.7 33.156 20.22 32.952C19.68 32.724 19.236 32.484 18.888 32.232C18.54 31.98 18.264 31.716 18.06 31.44C17.868 31.164 17.73 30.876 17.646 30.576C17.574 30.264 17.538 29.946 17.538 29.622C17.538 29.058 17.652 28.578 17.88 28.182C18.108 27.786 18.408 27.462 18.78 27.21C19.152 26.958 19.566 26.778 20.022 26.67C20.49 26.55 20.952 26.49 21.408 26.49C22.452 26.49 23.322 26.754 24.018 27.282L23.946 29.514H23.622ZM28.4621 29.244H28.8581C28.8581 29.568 28.8581 29.892 28.8581 30.216C28.8701 30.528 28.8761 30.846 28.8761 31.17L31.1261 31.116V31.962L28.8761 32.034V35.274C28.8761 35.802 28.9421 36.192 29.0741 36.444C29.2061 36.696 29.4821 36.822 29.9021 36.822C30.0821 36.822 30.2801 36.804 30.4961 36.768C30.7121 36.72 30.9461 36.588 31.1981 36.372L31.3601 36.624C31.2761 36.792 31.1621 36.972 31.0181 37.164C30.8741 37.344 30.6941 37.512 30.4781 37.668C30.2741 37.824 30.0401 37.956 29.7761 38.064C29.5121 38.16 29.2121 38.208 28.8761 38.208C28.2041 38.208 27.6941 38.04 27.3461 37.704C27.0101 37.356 26.8421 36.768 26.8421 35.94V32.07C26.6741 32.07 26.5121 32.076 26.3561 32.088C26.2001 32.088 26.0381 32.088 25.8701 32.088C25.7021 32.088 25.6121 32.01 25.6001 31.854C25.6001 31.698 25.6841 31.584 25.8521 31.512C26.1161 31.404 26.3561 31.29 26.5721 31.17C26.8001 31.05 26.9861 30.93 27.1301 30.81C27.2021 30.75 27.2981 30.672 27.4181 30.576C27.5501 30.468 27.6821 30.348 27.8141 30.216C27.9461 30.084 28.0661 29.934 28.1741 29.766C28.2941 29.598 28.3901 29.424 28.4621 29.244ZM34.7224 38.19C34.2304 38.19 33.8044 38.106 33.4444 37.938C33.0964 37.758 32.8084 37.518 32.5804 37.218C32.3644 36.918 32.2024 36.564 32.0944 36.156C31.9864 35.748 31.9324 35.31 31.9324 34.842C31.9324 34.206 32.0284 33.642 32.2204 33.15C32.4124 32.658 32.6704 32.244 32.9944 31.908C33.3184 31.572 33.6964 31.32 34.1284 31.152C34.5604 30.972 35.0164 30.882 35.4964 30.882C35.8324 30.882 36.1264 30.906 36.3784 30.954C36.6304 31.002 36.8404 31.056 37.0084 31.116C37.2124 31.176 37.3804 31.248 37.5124 31.332L38.7004 30.666L38.8624 30.72V36.264C38.8624 36.744 39.0664 36.972 39.4744 36.948C39.5704 36.948 39.6424 36.936 39.6904 36.912C39.7504 36.876 39.8044 36.846 39.8524 36.822C39.9004 36.786 39.9424 36.75 39.9784 36.714L40.0864 36.966C39.9904 37.194 39.8644 37.398 39.7084 37.578C39.5764 37.734 39.3964 37.878 39.1684 38.01C38.9524 38.13 38.6824 38.19 38.3584 38.19C37.8304 38.19 37.4524 38.034 37.2244 37.722C37.0084 37.398 36.9004 37.008 36.9004 36.552V36.12C36.8404 36.384 36.7504 36.642 36.6304 36.894C36.5224 37.134 36.3844 37.35 36.2164 37.542C36.0484 37.734 35.8384 37.89 35.5864 38.01C35.3464 38.13 35.0584 38.19 34.7224 38.19ZM36.9004 34.05C36.9004 33.798 36.8884 33.534 36.8644 33.258C36.8404 32.982 36.7864 32.73 36.7024 32.502C36.6184 32.262 36.4864 32.064 36.3064 31.908C36.1384 31.752 35.9044 31.674 35.6044 31.674C35.4364 31.674 35.2564 31.722 35.0644 31.818C34.8844 31.902 34.7164 32.046 34.5604 32.25C34.4044 32.454 34.2724 32.736 34.1644 33.096C34.0684 33.444 34.0204 33.876 34.0204 34.392C34.0204 34.752 34.0444 35.094 34.0924 35.418C34.1524 35.742 34.2424 36.024 34.3624 36.264C34.4824 36.504 34.6264 36.696 34.7944 36.84C34.9744 36.972 35.1844 37.038 35.4244 37.038C35.6644 37.038 35.8744 36.96 36.0544 36.804C36.2344 36.648 36.3844 36.444 36.5044 36.192C36.6364 35.928 36.7324 35.628 36.7924 35.292C36.8644 34.956 36.9004 34.608 36.9004 34.248V34.05ZM40.6654 37.992V37.704L41.2054 37.542C41.4454 37.47 41.5954 37.38 41.6554 37.272C41.7274 37.152 41.7634 36.936 41.7634 36.624V33.168C41.7634 32.928 41.7154 32.748 41.6194 32.628C41.5234 32.508 41.2954 32.424 40.9354 32.376L40.6294 32.34V31.998C40.8574 31.938 41.1034 31.86 41.3674 31.764C41.6434 31.656 41.9074 31.536 42.1594 31.404C42.4234 31.26 42.6634 31.098 42.8794 30.918C43.1074 30.738 43.2934 30.54 43.4374 30.324H43.7614C43.7614 30.672 43.7674 30.996 43.7794 31.296C43.7914 31.596 43.8094 31.944 43.8334 32.34C43.9294 32.136 44.0194 31.956 44.1034 31.8C44.1994 31.644 44.3434 31.452 44.5354 31.224C44.7154 31.008 44.9014 30.876 45.0934 30.828C45.2854 30.768 45.4594 30.738 45.6154 30.738C45.9154 30.738 46.1794 30.828 46.4074 31.008C46.6354 31.188 46.7494 31.488 46.7494 31.908C46.7494 32.292 46.6654 32.604 46.4974 32.844C46.3294 33.072 46.0774 33.186 45.7414 33.186C45.5734 33.186 45.4294 33.138 45.3094 33.042C45.2014 32.946 45.1054 32.844 45.0214 32.736C44.9494 32.628 44.8774 32.526 44.8054 32.43C44.7334 32.334 44.6614 32.286 44.5894 32.286C44.4214 32.286 44.2714 32.4 44.1394 32.628C44.0194 32.856 43.9354 33.138 43.8874 33.474C43.8634 33.618 43.8454 33.75 43.8334 33.87C43.8214 33.978 43.8214 34.074 43.8334 34.158V36.66C43.8334 36.936 43.8874 37.122 43.9954 37.218C44.1034 37.314 44.3194 37.41 44.6434 37.506L45.2374 37.686V37.974C44.9734 37.95 44.6734 37.938 44.3374 37.938C44.0014 37.926 43.6834 37.92 43.3834 37.92H42.9694C42.5734 37.92 42.1774 37.926 41.7814 37.938C41.3854 37.95 41.0134 37.968 40.6654 37.992ZM50.259 29.244H50.655C50.655 29.568 50.655 29.892 50.655 30.216C50.667 30.528 50.673 30.846 50.673 31.17L52.923 31.116V31.962L50.673 32.034V35.274C50.673 35.802 50.739 36.192 50.871 36.444C51.003 36.696 51.279 36.822 51.699 36.822C51.879 36.822 52.077 36.804 52.293 36.768C52.509 36.72 52.743 36.588 52.995 36.372L53.157 36.624C53.073 36.792 52.959 36.972 52.815 37.164C52.671 37.344 52.491 37.512 52.275 37.668C52.071 37.824 51.837 37.956 51.573 38.064C51.309 38.16 51.009 38.208 50.673 38.208C50.001 38.208 49.491 38.04 49.143 37.704C48.807 37.356 48.639 36.768 48.639 35.94V32.07C48.471 32.07 48.309 32.076 48.153 32.088C47.997 32.088 47.835 32.088 47.667 32.088C47.499 32.088 47.409 32.01 47.397 31.854C47.397 31.698 47.481 31.584 47.649 31.512C47.913 31.404 48.153 31.29 48.369 31.17C48.597 31.05 48.783 30.93 48.927 30.81C48.999 30.75 49.095 30.672 49.215 30.576C49.347 30.468 49.479 30.348 49.611 30.216C49.743 30.084 49.863 29.934 49.971 29.766C50.091 29.598 50.187 29.424 50.259 29.244ZM62.0093 38.208C61.3733 38.208 60.8213 38.118 60.3533 37.938C59.8853 37.746 59.4893 37.482 59.1653 37.146C58.8533 36.81 58.6193 36.42 58.4633 35.976C58.3073 35.52 58.2293 35.022 58.2293 34.482C58.2293 33.93 58.3073 33.426 58.4633 32.97C58.6193 32.502 58.8533 32.106 59.1653 31.782C59.4893 31.446 59.8973 31.188 60.3893 31.008C60.8813 30.816 61.4693 30.72 62.1533 30.72C62.8373 30.72 63.4193 30.816 63.8993 31.008C64.3913 31.2 64.7933 31.47 65.1053 31.818C65.4293 32.154 65.6633 32.556 65.8073 33.024C65.9633 33.48 66.0413 33.978 66.0413 34.518C66.0413 35.07 65.9453 35.574 65.7533 36.03C65.5733 36.474 65.3093 36.858 64.9613 37.182C64.6253 37.506 64.2053 37.758 63.7013 37.938C63.1973 38.118 62.6333 38.208 62.0093 38.208ZM60.4973 34.608C60.4973 35.508 60.6293 36.222 60.8933 36.75C61.1693 37.266 61.5713 37.524 62.0993 37.524C62.6153 37.524 63.0173 37.248 63.3053 36.696C63.5933 36.144 63.7373 35.412 63.7373 34.5C63.7373 33.588 63.5993 32.85 63.3233 32.286C63.0593 31.71 62.6513 31.422 62.0993 31.422C61.5593 31.422 61.1573 31.692 60.8933 32.232C60.6293 32.76 60.4973 33.552 60.4973 34.608ZM70.116 31.026L72.402 31.08V31.71L70.152 31.782V36.12C70.152 36.504 70.212 36.792 70.332 36.984C70.464 37.164 70.656 37.278 70.908 37.326L71.88 37.506V37.974C71.124 37.938 70.32 37.92 69.468 37.92H68.91C68.502 37.92 68.088 37.926 67.668 37.938C67.26 37.938 66.966 37.95 66.786 37.974V37.524L67.344 37.398C67.524 37.362 67.662 37.326 67.758 37.29C67.854 37.242 67.926 37.182 67.974 37.11C68.022 37.026 68.052 36.918 68.064 36.786C68.076 36.654 68.082 36.48 68.082 36.264V31.998C67.854 31.95 67.416 31.914 66.768 31.89V31.62C67.056 31.5 67.284 31.398 67.452 31.314C67.62 31.218 67.746 31.134 67.83 31.062C67.926 30.99 67.986 30.918 68.01 30.846C68.034 30.774 68.046 30.696 68.046 30.612C68.046 30.504 68.058 30.318 68.082 30.054C68.106 29.778 68.16 29.472 68.244 29.136C68.34 28.788 68.472 28.434 68.64 28.074C68.808 27.714 69.03 27.384 69.306 27.084C69.594 26.772 69.942 26.52 70.35 26.328C70.77 26.136 71.274 26.04 71.862 26.04C71.958 26.04 72.054 26.046 72.15 26.058C72.246 26.058 72.342 26.064 72.438 26.076C72.822 26.136 73.146 26.25 73.41 26.418C73.686 26.574 73.824 26.82 73.824 27.156C73.824 27.504 73.734 27.78 73.554 27.984C73.386 28.188 73.128 28.29 72.78 28.29C72.504 28.29 72.282 28.224 72.114 28.092C71.958 27.948 71.826 27.792 71.718 27.624C71.61 27.444 71.514 27.288 71.43 27.156C71.358 27.012 71.28 26.94 71.196 26.94C70.896 26.94 70.668 27.03 70.512 27.21C70.368 27.378 70.26 27.6 70.188 27.876C70.128 28.14 70.098 28.44 70.098 28.776C70.098 29.112 70.098 29.442 70.098 29.766C70.098 30.09 70.098 30.36 70.098 30.576C70.098 30.78 70.104 30.93 70.116 31.026ZM80.5636 29.244H80.9596C80.9596 29.568 80.9596 29.892 80.9596 30.216C80.9716 30.528 80.9776 30.846 80.9776 31.17L83.2276 31.116V31.962L80.9776 32.034V35.274C80.9776 35.802 81.0436 36.192 81.1756 36.444C81.3076 36.696 81.5836 36.822 82.0036 36.822C82.1836 36.822 82.3816 36.804 82.5976 36.768C82.8136 36.72 83.0476 36.588 83.2996 36.372L83.4616 36.624C83.3776 36.792 83.2636 36.972 83.1196 37.164C82.9756 37.344 82.7956 37.512 82.5796 37.668C82.3756 37.824 82.1416 37.956 81.8776 38.064C81.6136 38.16 81.3136 38.208 80.9776 38.208C80.3056 38.208 79.7956 38.04 79.4476 37.704C79.1116 37.356 78.9436 36.768 78.9436 35.94V32.07C78.7756 32.07 78.6136 32.076 78.4576 32.088C78.3016 32.088 78.1396 32.088 77.9716 32.088C77.8036 32.088 77.7136 32.01 77.7016 31.854C77.7016 31.698 77.7856 31.584 77.9536 31.512C78.2176 31.404 78.4576 31.29 78.6736 31.17C78.9016 31.05 79.0876 30.93 79.2316 30.81C79.3036 30.75 79.3996 30.672 79.5196 30.576C79.6516 30.468 79.7836 30.348 79.9156 30.216C80.0476 30.084 80.1676 29.934 80.2756 29.766C80.3956 29.598 80.4916 29.424 80.5636 29.244ZM84.97 28.146C84.97 27.798 84.856 27.552 84.628 27.408C84.412 27.252 84.154 27.144 83.854 27.084V26.688C83.974 26.688 84.148 26.67 84.376 26.634C84.616 26.598 84.868 26.556 85.132 26.508C85.408 26.448 85.678 26.382 85.942 26.31C86.206 26.226 86.428 26.136 86.608 26.04H87.04V32.268C87.352 31.824 87.676 31.482 88.012 31.242C88.36 30.99 88.762 30.834 89.218 30.774C89.314 30.762 89.404 30.756 89.488 30.756C89.584 30.744 89.686 30.738 89.794 30.738C90.466 30.738 90.988 30.948 91.36 31.368C91.732 31.776 91.918 32.382 91.918 33.186V36.714C91.918 36.834 91.942 36.954 91.99 37.074C92.038 37.182 92.164 37.272 92.368 37.344L92.872 37.524V37.992C92.488 37.968 92.116 37.95 91.756 37.938C91.408 37.926 91.126 37.92 90.91 37.92C90.706 37.92 90.406 37.926 90.01 37.938C89.614 37.95 89.23 37.968 88.858 37.992V37.524L89.416 37.326C89.584 37.266 89.698 37.182 89.758 37.074C89.818 36.954 89.848 36.792 89.848 36.588V33.402C89.848 33.006 89.77 32.694 89.614 32.466C89.47 32.238 89.176 32.124 88.732 32.124C88.516 32.124 88.312 32.172 88.12 32.268C87.94 32.352 87.778 32.46 87.634 32.592C87.49 32.712 87.364 32.85 87.256 33.006C87.16 33.15 87.088 33.276 87.04 33.384V36.588C87.04 36.72 87.064 36.846 87.112 36.966C87.16 37.074 87.25 37.158 87.382 37.218L88.156 37.524V37.992C87.964 37.968 87.664 37.95 87.256 37.938C86.848 37.926 86.434 37.92 86.014 37.92C85.594 37.92 85.204 37.926 84.844 37.938C84.496 37.95 84.226 37.968 84.034 37.992V37.524L84.592 37.326C84.736 37.266 84.832 37.17 84.88 37.038C84.94 36.906 84.97 36.768 84.97 36.624V28.146ZM100.22 33.69H95.7565C95.7325 33.81 95.7145 33.882 95.7025 33.906C95.7025 33.93 95.7025 34.002 95.7025 34.122C95.7025 34.506 95.7565 34.86 95.8645 35.184C95.9725 35.496 96.1225 35.772 96.3145 36.012C96.5185 36.24 96.7585 36.42 97.0345 36.552C97.3225 36.684 97.6345 36.75 97.9705 36.75C98.3905 36.75 98.7745 36.696 99.1225 36.588C99.4825 36.468 99.8605 36.216 100.256 35.832L100.328 36.102C100.184 36.378 100.016 36.642 99.8245 36.894C99.6445 37.146 99.4225 37.368 99.1585 37.56C98.8945 37.752 98.5825 37.908 98.2225 38.028C97.8745 38.148 97.4605 38.208 96.9805 38.208C96.4765 38.208 96.0145 38.124 95.5945 37.956C95.1745 37.776 94.8145 37.524 94.5145 37.2C94.2265 36.876 93.9985 36.486 93.8305 36.03C93.6745 35.574 93.5965 35.064 93.5965 34.5C93.5965 33.936 93.6805 33.426 93.8485 32.97C94.0285 32.502 94.2745 32.106 94.5865 31.782C94.9105 31.446 95.3005 31.188 95.7565 31.008C96.2125 30.828 96.7225 30.738 97.2865 30.738C97.8025 30.738 98.2405 30.816 98.6005 30.972C98.9605 31.128 99.2545 31.344 99.4825 31.62C99.7225 31.884 99.8965 32.196 100.004 32.556C100.124 32.916 100.196 33.294 100.22 33.69ZM95.8465 33.024H97.5385C97.8625 33.024 98.0245 32.868 98.0245 32.556C98.0245 32.208 97.9705 31.914 97.8625 31.674C97.7545 31.422 97.5385 31.296 97.2145 31.296C96.5425 31.296 96.0865 31.872 95.8465 33.024ZM110.315 33.114C110.279 32.946 110.225 32.766 110.153 32.574C110.093 32.37 109.997 32.184 109.865 32.016C109.745 31.848 109.583 31.71 109.379 31.602C109.175 31.482 108.917 31.422 108.605 31.422C108.461 31.422 108.317 31.434 108.173 31.458C108.041 31.482 107.915 31.524 107.795 31.584C107.675 31.644 107.579 31.728 107.507 31.836C107.435 31.944 107.399 32.082 107.399 32.25C107.399 32.43 107.447 32.586 107.543 32.718C107.639 32.838 107.771 32.946 107.939 33.042C108.119 33.126 108.329 33.204 108.569 33.276C108.821 33.348 109.097 33.426 109.397 33.51C109.793 33.618 110.117 33.744 110.369 33.888C110.621 34.032 110.819 34.194 110.963 34.374C111.107 34.554 111.203 34.752 111.251 34.968C111.311 35.172 111.341 35.394 111.341 35.634C111.341 36.114 111.251 36.522 111.071 36.858C110.891 37.182 110.651 37.446 110.351 37.65C110.051 37.842 109.703 37.986 109.307 38.082C108.923 38.166 108.527 38.208 108.119 38.208C107.687 38.208 107.273 38.172 106.877 38.1C106.493 38.016 106.163 37.896 105.887 37.74L105.707 35.526H106.157C106.325 36.174 106.577 36.666 106.913 37.002C107.261 37.338 107.729 37.506 108.317 37.506C108.665 37.506 108.977 37.422 109.253 37.254C109.541 37.086 109.685 36.81 109.685 36.426C109.685 36.078 109.559 35.826 109.307 35.67C109.067 35.502 108.647 35.346 108.047 35.202C107.171 34.998 106.559 34.722 106.211 34.374C105.863 34.014 105.689 33.522 105.689 32.898C105.689 32.538 105.773 32.226 105.941 31.962C106.121 31.686 106.349 31.458 106.625 31.278C106.913 31.098 107.231 30.966 107.579 30.882C107.939 30.786 108.305 30.738 108.677 30.738C109.049 30.738 109.415 30.774 109.775 30.846C110.135 30.918 110.435 31.026 110.675 31.17L110.783 33.114H110.315ZM114.876 29.244H115.272C115.272 29.568 115.272 29.892 115.272 30.216C115.284 30.528 115.29 30.846 115.29 31.17L117.54 31.116V31.962L115.29 32.034V35.274C115.29 35.802 115.356 36.192 115.488 36.444C115.62 36.696 115.896 36.822 116.316 36.822C116.496 36.822 116.694 36.804 116.91 36.768C117.126 36.72 117.36 36.588 117.612 36.372L117.774 36.624C117.69 36.792 117.576 36.972 117.432 37.164C117.288 37.344 117.108 37.512 116.892 37.668C116.688 37.824 116.454 37.956 116.19 38.064C115.926 38.16 115.626 38.208 115.29 38.208C114.618 38.208 114.108 38.04 113.76 37.704C113.424 37.356 113.256 36.768 113.256 35.94V32.07C113.088 32.07 112.926 32.076 112.77 32.088C112.614 32.088 112.452 32.088 112.284 32.088C112.116 32.088 112.026 32.01 112.014 31.854C112.014 31.698 112.098 31.584 112.266 31.512C112.53 31.404 112.77 31.29 112.986 31.17C113.214 31.05 113.4 30.93 113.544 30.81C113.616 30.75 113.712 30.672 113.832 30.576C113.964 30.468 114.096 30.348 114.228 30.216C114.36 30.084 114.48 29.934 114.588 29.766C114.708 29.598 114.804 29.424 114.876 29.244ZM118.166 31.062H121.406V35.364C121.406 35.94 121.502 36.348 121.694 36.588C121.898 36.828 122.174 36.948 122.522 36.948C122.81 36.948 123.056 36.906 123.26 36.822C123.476 36.726 123.704 36.576 123.944 36.372V32.214C123.944 32.118 123.938 32.034 123.926 31.962C123.914 31.89 123.866 31.83 123.782 31.782C123.71 31.722 123.584 31.674 123.404 31.638C123.224 31.602 122.972 31.566 122.648 31.53V31.062H126.014V36.174C126.014 36.354 126.02 36.504 126.032 36.624C126.044 36.744 126.08 36.84 126.14 36.912C126.212 36.972 126.32 37.014 126.464 37.038C126.62 37.062 126.836 37.08 127.112 37.092C127.112 37.164 127.112 37.242 127.112 37.326C127.124 37.398 127.13 37.47 127.13 37.542L123.944 38.19V36.822C123.74 37.038 123.548 37.236 123.368 37.416C123.188 37.584 123.002 37.728 122.81 37.848C122.618 37.968 122.402 38.058 122.162 38.118C121.934 38.178 121.664 38.208 121.352 38.208C120.608 38.208 120.086 37.986 119.786 37.542C119.486 37.098 119.336 36.51 119.336 35.778V32.196C119.336 32.088 119.324 32.004 119.3 31.944C119.276 31.872 119.222 31.812 119.138 31.764C119.054 31.704 118.934 31.656 118.778 31.62C118.634 31.584 118.43 31.542 118.166 31.494V31.062ZM133.184 28.11C133.184 27.882 133.172 27.702 133.148 27.57C133.124 27.426 133.064 27.312 132.968 27.228C132.872 27.132 132.728 27.048 132.536 26.976C132.356 26.904 132.104 26.826 131.78 26.742V26.454C131.972 26.442 132.206 26.424 132.482 26.4C132.77 26.376 133.058 26.346 133.346 26.31C133.634 26.274 133.91 26.238 134.174 26.202C134.438 26.154 134.648 26.1 134.804 26.04H135.254V36.516C135.254 36.732 135.26 36.9 135.272 37.02C135.296 37.14 135.35 37.23 135.434 37.29C135.518 37.338 135.638 37.368 135.794 37.38C135.962 37.392 136.19 37.404 136.478 37.416V37.884C136.25 37.932 135.98 37.98 135.668 38.028C135.368 38.064 135.056 38.1 134.732 38.136C134.42 38.172 134.126 38.208 133.85 38.244C133.574 38.268 133.352 38.286 133.184 38.298V37.11C132.812 37.41 132.446 37.668 132.086 37.884C131.738 38.1 131.318 38.208 130.826 38.208C130.418 38.208 130.034 38.154 129.674 38.046C129.314 37.938 128.99 37.71 128.702 37.362C128.414 37.014 128.198 36.624 128.054 36.192C127.922 35.76 127.856 35.292 127.856 34.788C127.856 34.104 127.97 33.51 128.198 33.006C128.426 32.49 128.72 32.064 129.08 31.728C129.44 31.392 129.842 31.146 130.286 30.99C130.73 30.822 131.168 30.738 131.6 30.738C131.984 30.738 132.302 30.786 132.554 30.882C132.806 30.966 133.016 31.08 133.184 31.224V28.11ZM133.184 36.534V33.51C133.184 33.258 133.166 33.018 133.13 32.79C133.094 32.55 133.028 32.34 132.932 32.16C132.836 31.968 132.692 31.818 132.5 31.71C132.32 31.602 132.08 31.548 131.78 31.548C131.516 31.548 131.282 31.626 131.078 31.782C130.874 31.926 130.7 32.13 130.556 32.394C130.412 32.658 130.298 32.964 130.214 33.312C130.142 33.66 130.106 34.038 130.106 34.446C130.106 35.19 130.244 35.802 130.52 36.282C130.796 36.762 131.216 37.002 131.78 37.002C132.152 37.002 132.434 36.96 132.626 36.876C132.818 36.792 133.004 36.678 133.184 36.534ZM140.61 39.99C140.394 40.518 140.076 40.902 139.656 41.142C139.248 41.394 138.81 41.52 138.342 41.52C138.21 41.52 138.078 41.502 137.946 41.466C137.814 41.442 137.7 41.394 137.604 41.322C137.52 41.262 137.448 41.184 137.388 41.088C137.34 41.004 137.316 40.902 137.316 40.782C137.316 40.446 137.406 40.224 137.586 40.116C137.766 40.02 137.982 39.972 138.234 39.972C138.486 39.972 138.744 40.002 139.008 40.062C139.272 40.134 139.47 40.17 139.602 40.17C139.662 40.17 139.734 40.14 139.818 40.08C139.902 40.02 139.986 39.936 140.07 39.828C140.154 39.732 140.22 39.612 140.268 39.468C140.328 39.324 140.358 39.168 140.358 39C140.358 38.832 140.328 38.64 140.268 38.424C140.208 38.22 140.136 38.016 140.052 37.812C139.98 37.608 139.908 37.422 139.836 37.254L137.478 32.07C137.358 31.794 137.202 31.62 137.01 31.548L136.65 31.422V30.972C138.174 31.104 139.44 31.104 140.448 30.972V31.422C140.124 31.422 139.95 31.452 139.926 31.512C139.902 31.572 139.914 31.662 139.962 31.782L141.6 35.94L143.022 32.43C143.082 32.262 143.106 32.088 143.094 31.908C143.094 31.728 142.992 31.614 142.788 31.566L141.78 31.332V30.972C142.836 31.092 143.94 31.092 145.092 30.972V31.332L144.516 31.476C144.42 31.5 144.336 31.536 144.264 31.584C144.204 31.62 144.144 31.68 144.084 31.764C144.024 31.836 143.958 31.944 143.886 32.088C143.814 32.22 143.736 32.394 143.652 32.61L140.61 39.99Z" fill="#009962"/>
<path d="M17 1H145C153.837 1 161 8.16345 161 17V48C161 56.8366 153.837 64 145 64H17C8.16344 64 1 56.8366 1 48V17C1 8.16344 8.16344 1 17 1Z" stroke="black" stroke-width="2"/>
</svg>
