<svg width="162" height="169" viewBox="0 0 162 169" fill="none" xmlns="http://www.w3.org/2000/svg">
<path d="M17 134H145C153.837 134 161 141.163 161 150V152C161 160.837 153.837 168 145 168H17C8.16344 168 1 160.837 1 152V150C1 141.163 8.16344 134 17 134Z" fill="#C4C4C4" stroke="black" stroke-width="2"/>
<path d="M25.7387 156.282C25.3067 156.27 24.8207 156.258 24.2807 156.246C23.7527 156.234 23.2787 156.228 22.8587 156.228H22.1927C21.8687 156.228 21.4607 156.234 20.9687 156.246C20.4887 156.246 20.0027 156.258 19.5107 156.282V155.742L20.5907 155.526C20.8667 155.466 21.0407 155.376 21.1127 155.256C21.1847 155.136 21.2207 154.902 21.2207 154.554V147.138L16.8107 156.372L12.1487 147.264V154.662C12.1487 155.226 12.3287 155.526 12.6887 155.562L14.3447 155.742V156.282C13.6247 156.246 12.8747 156.228 12.0947 156.228C11.3147 156.228 10.4507 156.246 9.50273 156.282V155.742L10.4927 155.562C10.7207 155.526 10.8947 155.484 11.0147 155.436C11.1467 155.388 11.2427 155.334 11.3027 155.274C11.3747 155.202 11.4167 155.118 11.4287 155.022C11.4407 154.926 11.4467 154.806 11.4467 154.662V145.698L9.80873 145.5V144.924C10.0007 144.96 10.5407 144.978 11.4287 144.978C11.8727 144.978 12.2987 144.978 12.7067 144.978C13.1147 144.966 13.3967 144.948 13.5527 144.924L17.6567 152.7L21.3647 144.924C21.6527 144.948 21.9947 144.966 22.3907 144.978C22.7867 144.978 23.1887 144.978 23.5967 144.978C24.0047 144.978 24.3947 144.978 24.7667 144.978C25.1507 144.966 25.4687 144.948 25.7207 144.924V145.5L24.6047 145.734C24.2567 145.806 24.0167 145.914 23.8847 146.058C23.7527 146.202 23.6867 146.448 23.6867 146.796V154.428C23.6867 154.8 23.7167 155.052 23.7767 155.184C23.8487 155.304 23.9927 155.388 24.2087 155.436L25.7387 155.742V156.282ZM28.9634 145.158C29.2754 145.158 29.5394 145.278 29.7554 145.518C29.9834 145.746 30.0974 146.016 30.0974 146.328C30.0974 146.604 29.9834 146.856 29.7554 147.084C29.5394 147.312 29.2694 147.426 28.9454 147.426C28.6334 147.426 28.3694 147.324 28.1534 147.12C27.9494 146.904 27.8474 146.64 27.8474 146.328C27.8474 146.016 27.9554 145.746 28.1714 145.518C28.3874 145.278 28.6514 145.158 28.9634 145.158ZM30.7814 156.3C30.5894 156.276 30.3014 156.258 29.9174 156.246C29.5334 156.234 29.1014 156.228 28.6214 156.228C28.1414 156.228 27.7094 156.234 27.3254 156.246C26.9414 156.258 26.6534 156.276 26.4614 156.3V155.832L27.1454 155.652C27.5174 155.58 27.7034 155.358 27.7034 154.986V151.746C27.7034 151.458 27.6314 151.248 27.4874 151.116C27.3434 150.984 27.0554 150.87 26.6234 150.774V150.342C26.8274 150.294 27.0614 150.228 27.3254 150.144C27.5894 150.048 27.8474 149.946 28.0994 149.838C28.3514 149.718 28.5854 149.592 28.8014 149.46C29.0174 149.316 29.1854 149.172 29.3054 149.028C29.3894 149.028 29.4674 149.034 29.5394 149.046C29.6114 149.046 29.6894 149.046 29.7734 149.046V155.04C29.7734 155.22 29.7974 155.358 29.8454 155.454C29.9054 155.538 30.0134 155.598 30.1694 155.634L30.7814 155.832V156.3ZM36.821 146.418C36.821 146.19 36.809 146.01 36.785 145.878C36.761 145.734 36.701 145.62 36.605 145.536C36.509 145.44 36.365 145.356 36.173 145.284C35.993 145.212 35.741 145.134 35.417 145.05V144.762C35.609 144.75 35.843 144.732 36.119 144.708C36.407 144.684 36.695 144.654 36.983 144.618C37.271 144.582 37.547 144.546 37.811 144.51C38.075 144.462 38.285 144.408 38.441 144.348H38.891V154.824C38.891 155.04 38.897 155.208 38.909 155.328C38.933 155.448 38.987 155.538 39.071 155.598C39.155 155.646 39.275 155.676 39.431 155.688C39.599 155.7 39.827 155.712 40.115 155.724V156.192C39.887 156.24 39.617 156.288 39.305 156.336C39.005 156.372 38.693 156.408 38.369 156.444C38.057 156.48 37.763 156.516 37.487 156.552C37.211 156.576 36.989 156.594 36.821 156.606V155.418C36.449 155.718 36.083 155.976 35.723 156.192C35.375 156.408 34.955 156.516 34.463 156.516C34.055 156.516 33.671 156.462 33.311 156.354C32.951 156.246 32.627 156.018 32.339 155.67C32.051 155.322 31.835 154.932 31.691 154.5C31.559 154.068 31.493 153.6 31.493 153.096C31.493 152.412 31.607 151.818 31.835 151.314C32.063 150.798 32.357 150.372 32.717 150.036C33.077 149.7 33.479 149.454 33.923 149.298C34.367 149.13 34.805 149.046 35.237 149.046C35.621 149.046 35.939 149.094 36.191 149.19C36.443 149.274 36.653 149.388 36.821 149.532V146.418ZM36.821 154.842V151.818C36.821 151.566 36.803 151.326 36.767 151.098C36.731 150.858 36.665 150.648 36.569 150.468C36.473 150.276 36.329 150.126 36.137 150.018C35.957 149.91 35.717 149.856 35.417 149.856C35.153 149.856 34.919 149.934 34.715 150.09C34.511 150.234 34.337 150.438 34.193 150.702C34.049 150.966 33.935 151.272 33.851 151.62C33.779 151.968 33.743 152.346 33.743 152.754C33.743 153.498 33.881 154.11 34.157 154.59C34.433 155.07 34.853 155.31 35.417 155.31C35.789 155.31 36.071 155.268 36.263 155.184C36.455 155.1 36.641 154.986 36.821 154.842ZM43.905 150C44.097 149.844 44.271 149.706 44.427 149.586C44.595 149.466 44.763 149.364 44.931 149.28C45.111 149.196 45.303 149.136 45.507 149.1C45.723 149.052 45.969 149.028 46.245 149.028C47.181 149.028 47.919 149.334 48.459 149.946C48.999 150.546 49.269 151.392 49.269 152.484C49.269 153.096 49.167 153.642 48.963 154.122C48.771 154.602 48.513 155.01 48.189 155.346C47.865 155.67 47.487 155.922 47.055 156.102C46.635 156.27 46.197 156.354 45.741 156.354C45.393 156.354 45.057 156.318 44.733 156.246C44.421 156.174 44.145 156.036 43.905 155.832V158.568C43.905 158.736 43.953 158.862 44.049 158.946C44.157 159.03 44.361 159.096 44.661 159.144L45.741 159.324V159.81C45.501 159.786 45.213 159.768 44.877 159.756C44.541 159.744 44.109 159.738 43.581 159.738H43.095C42.903 159.738 42.687 159.738 42.447 159.738C42.219 159.75 41.991 159.756 41.763 159.756C41.535 159.768 41.319 159.774 41.115 159.774C40.923 159.786 40.767 159.798 40.647 159.81V159.342L41.403 159.198C41.583 159.162 41.697 159.102 41.745 159.018C41.805 158.946 41.835 158.796 41.835 158.568V150.612C41.835 150.168 41.757 149.94 41.601 149.928L40.719 149.784L40.773 149.532C41.109 149.448 41.415 149.358 41.691 149.262C41.979 149.166 42.189 149.088 42.321 149.028C42.405 148.992 42.513 148.944 42.645 148.884C42.777 148.812 42.909 148.74 43.041 148.668C43.173 148.584 43.293 148.506 43.401 148.434C43.509 148.362 43.587 148.296 43.635 148.236H43.905V150ZM43.905 150.72V154.05C43.905 154.482 44.019 154.842 44.247 155.13C44.475 155.406 44.853 155.544 45.381 155.544C45.933 155.544 46.353 155.31 46.641 154.842C46.941 154.362 47.091 153.708 47.091 152.88C47.091 152.484 47.043 152.118 46.947 151.782C46.851 151.434 46.713 151.134 46.533 150.882C46.365 150.63 46.167 150.432 45.939 150.288C45.723 150.144 45.489 150.072 45.237 150.072C44.949 150.072 44.703 150.132 44.499 150.252C44.295 150.372 44.097 150.528 43.905 150.72ZM53.9409 156.516C53.3049 156.516 52.7529 156.426 52.2849 156.246C51.8169 156.054 51.4209 155.79 51.0969 155.454C50.7849 155.118 50.5509 154.728 50.3949 154.284C50.2389 153.828 50.1609 153.33 50.1609 152.79C50.1609 152.238 50.2389 151.734 50.3949 151.278C50.5509 150.81 50.7849 150.414 51.0969 150.09C51.4209 149.754 51.8289 149.496 52.3209 149.316C52.8129 149.124 53.4009 149.028 54.0849 149.028C54.7689 149.028 55.3509 149.124 55.8309 149.316C56.3229 149.508 56.7249 149.778 57.0369 150.126C57.3609 150.462 57.5949 150.864 57.7389 151.332C57.8949 151.788 57.9729 152.286 57.9729 152.826C57.9729 153.378 57.8769 153.882 57.6849 154.338C57.5049 154.782 57.2409 155.166 56.8929 155.49C56.5569 155.814 56.1369 156.066 55.6329 156.246C55.1289 156.426 54.5649 156.516 53.9409 156.516ZM52.4289 152.916C52.4289 153.816 52.5609 154.53 52.8249 155.058C53.1009 155.574 53.5029 155.832 54.0309 155.832C54.5469 155.832 54.9489 155.556 55.2369 155.004C55.5249 154.452 55.6689 153.72 55.6689 152.808C55.6689 151.896 55.5309 151.158 55.2549 150.594C54.9909 150.018 54.5829 149.73 54.0309 149.73C53.4909 149.73 53.0889 150 52.8249 150.54C52.5609 151.068 52.4289 151.86 52.4289 152.916ZM61.2017 145.158C61.5137 145.158 61.7777 145.278 61.9937 145.518C62.2217 145.746 62.3357 146.016 62.3357 146.328C62.3357 146.604 62.2217 146.856 61.9937 147.084C61.7777 147.312 61.5077 147.426 61.1837 147.426C60.8717 147.426 60.6077 147.324 60.3917 147.12C60.1877 146.904 60.0857 146.64 60.0857 146.328C60.0857 146.016 60.1937 145.746 60.4097 145.518C60.6257 145.278 60.8897 145.158 61.2017 145.158ZM63.0197 156.3C62.8277 156.276 62.5397 156.258 62.1557 156.246C61.7717 156.234 61.3397 156.228 60.8597 156.228C60.3797 156.228 59.9477 156.234 59.5637 156.246C59.1797 156.258 58.8917 156.276 58.6997 156.3V155.832L59.3837 155.652C59.7557 155.58 59.9417 155.358 59.9417 154.986V151.746C59.9417 151.458 59.8697 151.248 59.7257 151.116C59.5817 150.984 59.2937 150.87 58.8617 150.774V150.342C59.0657 150.294 59.2997 150.228 59.5637 150.144C59.8277 150.048 60.0857 149.946 60.3377 149.838C60.5897 149.718 60.8237 149.592 61.0397 149.46C61.2557 149.316 61.4237 149.172 61.5437 149.028C61.6277 149.028 61.7057 149.034 61.7777 149.046C61.8497 149.046 61.9277 149.046 62.0117 149.046V155.04C62.0117 155.22 62.0357 155.358 62.0837 155.454C62.1437 155.538 62.2517 155.598 62.4077 155.634L63.0197 155.832V156.3ZM72.5513 156.282C71.9273 156.246 71.2313 156.228 70.4633 156.228C69.7073 156.228 69.0173 156.246 68.3933 156.282V155.832L69.0233 155.688C69.2873 155.652 69.4193 155.418 69.4193 154.986V151.962C69.4193 151.698 69.4073 151.47 69.3833 151.278C69.3713 151.074 69.3293 150.906 69.2573 150.774C69.1973 150.63 69.0953 150.528 68.9513 150.468C68.8193 150.396 68.6333 150.36 68.3933 150.36C68.1173 150.36 67.8233 150.45 67.5113 150.63C67.2113 150.798 66.9593 151.002 66.7553 151.242V155.184C66.7553 155.376 66.8993 155.508 67.1873 155.58L67.7093 155.832V156.282C67.6013 156.27 67.4933 156.264 67.3853 156.264C67.2893 156.252 67.1813 156.246 67.0613 156.246C66.9413 156.234 66.8093 156.228 66.6653 156.228C66.5213 156.228 66.3413 156.228 66.1253 156.228H65.5673C65.1833 156.228 64.7933 156.234 64.3973 156.246C64.0133 156.246 63.7313 156.258 63.5513 156.282V155.832L64.3253 155.652C64.4453 155.628 64.5353 155.574 64.5953 155.49C64.6553 155.406 64.6853 155.28 64.6853 155.112V151.566C64.6853 151.194 64.6073 150.942 64.4513 150.81C64.3073 150.678 64.0433 150.582 63.6593 150.522V150.18C63.8513 150.132 64.0733 150.072 64.3253 150C64.5893 149.928 64.8473 149.838 65.0993 149.73C65.3513 149.61 65.5853 149.472 65.8013 149.316C66.0173 149.148 66.1793 148.95 66.2873 148.722H66.7553V150.468C67.1153 150.024 67.5053 149.676 67.9253 149.424C68.3453 149.172 68.7653 149.046 69.1853 149.046C69.8813 149.046 70.4393 149.25 70.8593 149.658C71.2793 150.066 71.4893 150.684 71.4893 151.512V154.932C71.4893 155.172 71.5193 155.346 71.5793 155.454C71.6393 155.562 71.7593 155.64 71.9393 155.688L72.5513 155.832V156.282ZM75.9582 147.552H76.3542C76.3542 147.876 76.3542 148.2 76.3542 148.524C76.3662 148.836 76.3722 149.154 76.3722 149.478L78.6222 149.424V150.27L76.3722 150.342V153.582C76.3722 154.11 76.4382 154.5 76.5702 154.752C76.7022 155.004 76.9782 155.13 77.3982 155.13C77.5782 155.13 77.7762 155.112 77.9922 155.076C78.2082 155.028 78.4422 154.896 78.6942 154.68L78.8562 154.932C78.7722 155.1 78.6582 155.28 78.5142 155.472C78.3702 155.652 78.1902 155.82 77.9742 155.976C77.7702 156.132 77.5362 156.264 77.2722 156.372C77.0082 156.468 76.7082 156.516 76.3722 156.516C75.7002 156.516 75.1902 156.348 74.8422 156.012C74.5062 155.664 74.3382 155.076 74.3382 154.248V150.378C74.1702 150.378 74.0082 150.384 73.8522 150.396C73.6962 150.396 73.5342 150.396 73.3662 150.396C73.1982 150.396 73.1082 150.318 73.0962 150.162C73.0962 150.006 73.1802 149.892 73.3482 149.82C73.6122 149.712 73.8522 149.598 74.0682 149.478C74.2962 149.358 74.4822 149.238 74.6262 149.118C74.6982 149.058 74.7942 148.98 74.9142 148.884C75.0462 148.776 75.1782 148.656 75.3102 148.524C75.4422 148.392 75.5622 148.242 75.6702 148.074C75.7902 147.906 75.8862 147.732 75.9582 147.552ZM85.5125 155.076V146.13C85.5125 145.926 85.4765 145.782 85.4045 145.698C85.3445 145.614 85.2305 145.566 85.0625 145.554L83.9285 145.392V144.924C84.0485 144.96 85.3085 144.978 87.7085 144.978C88.4165 144.978 88.9805 144.96 89.4005 144.924V145.41L88.2665 145.572C88.0985 145.584 87.9785 145.626 87.9065 145.698C87.8465 145.77 87.8165 145.914 87.8165 146.13V155.076C87.8165 155.292 87.8465 155.43 87.9065 155.49C87.9665 155.55 88.0865 155.586 88.2665 155.598L89.4005 155.688V156.3C89.1605 156.276 88.8125 156.258 88.3565 156.246C87.9125 156.234 87.3485 156.228 86.6645 156.228C85.9805 156.228 85.4105 156.234 84.9545 156.246C84.5105 156.258 84.1685 156.276 83.9285 156.3V155.688L85.0625 155.598C85.2425 155.574 85.3625 155.532 85.4225 155.472C85.4825 155.412 85.5125 155.28 85.5125 155.076ZM99.1118 156.282C98.4878 156.246 97.7918 156.228 97.0238 156.228C96.2678 156.228 95.5778 156.246 94.9538 156.282V155.832L95.5838 155.688C95.8478 155.652 95.9798 155.418 95.9798 154.986V151.962C95.9798 151.698 95.9678 151.47 95.9438 151.278C95.9318 151.074 95.8898 150.906 95.8178 150.774C95.7578 150.63 95.6558 150.528 95.5118 150.468C95.3798 150.396 95.1938 150.36 94.9538 150.36C94.6778 150.36 94.3838 150.45 94.0718 150.63C93.7718 150.798 93.5198 151.002 93.3158 151.242V155.184C93.3158 155.376 93.4598 155.508 93.7478 155.58L94.2698 155.832V156.282C94.1618 156.27 94.0538 156.264 93.9458 156.264C93.8498 156.252 93.7418 156.246 93.6218 156.246C93.5018 156.234 93.3698 156.228 93.2258 156.228C93.0818 156.228 92.9018 156.228 92.6858 156.228H92.1278C91.7438 156.228 91.3538 156.234 90.9578 156.246C90.5738 156.246 90.2918 156.258 90.1118 156.282V155.832L90.8858 155.652C91.0058 155.628 91.0958 155.574 91.1558 155.49C91.2158 155.406 91.2458 155.28 91.2458 155.112V151.566C91.2458 151.194 91.1678 150.942 91.0118 150.81C90.8678 150.678 90.6038 150.582 90.2198 150.522V150.18C90.4118 150.132 90.6338 150.072 90.8858 150C91.1498 149.928 91.4078 149.838 91.6598 149.73C91.9118 149.61 92.1458 149.472 92.3618 149.316C92.5778 149.148 92.7398 148.95 92.8478 148.722H93.3158V150.468C93.6758 150.024 94.0658 149.676 94.4858 149.424C94.9058 149.172 95.3258 149.046 95.7458 149.046C96.4418 149.046 96.9998 149.25 97.4198 149.658C97.8398 150.066 98.0498 150.684 98.0498 151.512V154.932C98.0498 155.172 98.0798 155.346 98.1398 155.454C98.1998 155.562 98.3198 155.64 98.4998 155.688L99.1118 155.832V156.282ZM102.519 147.552H102.915C102.915 147.876 102.915 148.2 102.915 148.524C102.927 148.836 102.933 149.154 102.933 149.478L105.183 149.424V150.27L102.933 150.342V153.582C102.933 154.11 102.999 154.5 103.131 154.752C103.263 155.004 103.539 155.13 103.959 155.13C104.139 155.13 104.337 155.112 104.553 155.076C104.769 155.028 105.003 154.896 105.255 154.68L105.417 154.932C105.333 155.1 105.219 155.28 105.075 155.472C104.931 155.652 104.751 155.82 104.535 155.976C104.331 156.132 104.097 156.264 103.833 156.372C103.569 156.468 103.269 156.516 102.933 156.516C102.261 156.516 101.751 156.348 101.403 156.012C101.067 155.664 100.899 155.076 100.899 154.248V150.378C100.731 150.378 100.569 150.384 100.413 150.396C100.257 150.396 100.095 150.396 99.9267 150.396C99.7587 150.396 99.6687 150.318 99.6567 150.162C99.6567 150.006 99.7407 149.892 99.9087 149.82C100.173 149.712 100.413 149.598 100.629 149.478C100.857 149.358 101.043 149.238 101.187 149.118C101.259 149.058 101.355 148.98 101.475 148.884C101.607 148.776 101.739 148.656 101.871 148.524C102.003 148.392 102.123 148.242 102.231 148.074C102.351 147.906 102.447 147.732 102.519 147.552ZM112.613 151.998H108.149C108.125 152.118 108.107 152.19 108.095 152.214C108.095 152.238 108.095 152.31 108.095 152.43C108.095 152.814 108.149 153.168 108.257 153.492C108.365 153.804 108.515 154.08 108.707 154.32C108.911 154.548 109.151 154.728 109.427 154.86C109.715 154.992 110.027 155.058 110.363 155.058C110.783 155.058 111.167 155.004 111.515 154.896C111.875 154.776 112.253 154.524 112.649 154.14L112.721 154.41C112.577 154.686 112.409 154.95 112.217 155.202C112.037 155.454 111.815 155.676 111.551 155.868C111.287 156.06 110.975 156.216 110.615 156.336C110.267 156.456 109.853 156.516 109.373 156.516C108.869 156.516 108.407 156.432 107.987 156.264C107.567 156.084 107.207 155.832 106.907 155.508C106.619 155.184 106.391 154.794 106.223 154.338C106.067 153.882 105.989 153.372 105.989 152.808C105.989 152.244 106.073 151.734 106.241 151.278C106.421 150.81 106.667 150.414 106.979 150.09C107.303 149.754 107.693 149.496 108.149 149.316C108.605 149.136 109.115 149.046 109.679 149.046C110.195 149.046 110.633 149.124 110.993 149.28C111.353 149.436 111.647 149.652 111.875 149.928C112.115 150.192 112.289 150.504 112.397 150.864C112.517 151.224 112.589 151.602 112.613 151.998ZM108.239 151.332H109.931C110.255 151.332 110.417 151.176 110.417 150.864C110.417 150.516 110.363 150.222 110.255 149.982C110.147 149.73 109.931 149.604 109.607 149.604C108.935 149.604 108.479 150.18 108.239 151.332ZM113.474 156.3V156.012L114.014 155.85C114.254 155.778 114.404 155.688 114.464 155.58C114.536 155.46 114.572 155.244 114.572 154.932V151.476C114.572 151.236 114.524 151.056 114.428 150.936C114.332 150.816 114.104 150.732 113.744 150.684L113.438 150.648V150.306C113.666 150.246 113.912 150.168 114.176 150.072C114.452 149.964 114.716 149.844 114.968 149.712C115.232 149.568 115.472 149.406 115.688 149.226C115.916 149.046 116.102 148.848 116.246 148.632H116.57C116.57 148.98 116.576 149.304 116.588 149.604C116.6 149.904 116.618 150.252 116.642 150.648C116.738 150.444 116.828 150.264 116.912 150.108C117.008 149.952 117.152 149.76 117.344 149.532C117.524 149.316 117.71 149.184 117.902 149.136C118.094 149.076 118.268 149.046 118.424 149.046C118.724 149.046 118.988 149.136 119.216 149.316C119.444 149.496 119.558 149.796 119.558 150.216C119.558 150.6 119.474 150.912 119.306 151.152C119.138 151.38 118.886 151.494 118.55 151.494C118.382 151.494 118.238 151.446 118.118 151.35C118.01 151.254 117.914 151.152 117.83 151.044C117.758 150.936 117.686 150.834 117.614 150.738C117.542 150.642 117.47 150.594 117.398 150.594C117.23 150.594 117.08 150.708 116.948 150.936C116.828 151.164 116.744 151.446 116.696 151.782C116.672 151.926 116.654 152.058 116.642 152.178C116.63 152.286 116.63 152.382 116.642 152.466V154.968C116.642 155.244 116.696 155.43 116.804 155.526C116.912 155.622 117.128 155.718 117.452 155.814L118.046 155.994V156.282C117.782 156.258 117.482 156.246 117.146 156.246C116.81 156.234 116.492 156.228 116.192 156.228H115.778C115.382 156.228 114.986 156.234 114.59 156.246C114.194 156.258 113.822 156.276 113.474 156.3ZM126.956 150.666L124.49 156.642H124.04L121.322 150.648C121.178 150.36 121.064 150.174 120.98 150.09C120.896 150.006 120.764 149.946 120.584 149.91L119.846 149.748V149.316C120.11 149.352 120.776 149.37 121.844 149.37C122.108 149.37 122.372 149.37 122.636 149.37C122.912 149.358 123.164 149.352 123.392 149.352C123.632 149.34 123.836 149.334 124.004 149.334C124.184 149.322 124.316 149.31 124.4 149.298V149.73L123.986 149.802C123.77 149.838 123.632 149.94 123.572 150.108C123.524 150.276 123.602 150.594 123.806 151.062L125.012 153.888L126.092 151.098C126.152 150.954 126.194 150.828 126.218 150.72C126.254 150.6 126.272 150.498 126.272 150.414C126.272 150.078 126.026 149.88 125.534 149.82L124.922 149.748V149.316C125.078 149.352 125.654 149.37 126.65 149.37C127.646 149.37 128.282 149.352 128.558 149.316V149.748L127.694 149.874C127.502 149.898 127.364 149.958 127.28 150.054C127.196 150.138 127.088 150.342 126.956 150.666ZM131.233 145.158C131.545 145.158 131.809 145.278 132.025 145.518C132.253 145.746 132.367 146.016 132.367 146.328C132.367 146.604 132.253 146.856 132.025 147.084C131.809 147.312 131.539 147.426 131.215 147.426C130.903 147.426 130.639 147.324 130.423 147.12C130.219 146.904 130.117 146.64 130.117 146.328C130.117 146.016 130.225 145.746 130.441 145.518C130.657 145.278 130.921 145.158 131.233 145.158ZM133.051 156.3C132.859 156.276 132.571 156.258 132.187 156.246C131.803 156.234 131.371 156.228 130.891 156.228C130.411 156.228 129.979 156.234 129.595 156.246C129.211 156.258 128.923 156.276 128.731 156.3V155.832L129.415 155.652C129.787 155.58 129.973 155.358 129.973 154.986V151.746C129.973 151.458 129.901 151.248 129.757 151.116C129.613 150.984 129.325 150.87 128.893 150.774V150.342C129.097 150.294 129.331 150.228 129.595 150.144C129.859 150.048 130.117 149.946 130.369 149.838C130.621 149.718 130.855 149.592 131.071 149.46C131.287 149.316 131.455 149.172 131.575 149.028C131.659 149.028 131.737 149.034 131.809 149.046C131.881 149.046 131.959 149.046 132.043 149.046V155.04C132.043 155.22 132.067 155.358 132.115 155.454C132.175 155.538 132.283 155.598 132.439 155.634L133.051 155.832V156.3ZM140.387 151.998H135.923C135.899 152.118 135.881 152.19 135.869 152.214C135.869 152.238 135.869 152.31 135.869 152.43C135.869 152.814 135.923 153.168 136.031 153.492C136.139 153.804 136.289 154.08 136.481 154.32C136.685 154.548 136.925 154.728 137.201 154.86C137.489 154.992 137.801 155.058 138.137 155.058C138.557 155.058 138.941 155.004 139.289 154.896C139.649 154.776 140.027 154.524 140.423 154.14L140.495 154.41C140.351 154.686 140.183 154.95 139.991 155.202C139.811 155.454 139.589 155.676 139.325 155.868C139.061 156.06 138.749 156.216 138.389 156.336C138.041 156.456 137.627 156.516 137.147 156.516C136.643 156.516 136.181 156.432 135.761 156.264C135.341 156.084 134.981 155.832 134.681 155.508C134.393 155.184 134.165 154.794 133.997 154.338C133.841 153.882 133.763 153.372 133.763 152.808C133.763 152.244 133.847 151.734 134.015 151.278C134.195 150.81 134.441 150.414 134.753 150.09C135.077 149.754 135.467 149.496 135.923 149.316C136.379 149.136 136.889 149.046 137.453 149.046C137.969 149.046 138.407 149.124 138.767 149.28C139.127 149.436 139.421 149.652 139.649 149.928C139.889 150.192 140.063 150.504 140.171 150.864C140.291 151.224 140.363 151.602 140.387 151.998ZM136.013 151.332H137.705C138.029 151.332 138.191 151.176 138.191 150.864C138.191 150.516 138.137 150.222 138.029 149.982C137.921 149.73 137.705 149.604 137.381 149.604C136.709 149.604 136.253 150.18 136.013 151.332ZM140.851 149.316C141.115 149.352 141.673 149.37 142.525 149.37C143.389 149.37 144.001 149.352 144.361 149.316V149.748C144.229 149.748 144.127 149.784 144.055 149.856C143.983 149.916 143.977 150.018 144.037 150.162L145.675 154.158L146.701 152.088L146.125 150.684C145.993 150.36 145.879 150.15 145.783 150.054C145.687 149.958 145.585 149.898 145.477 149.874L144.991 149.748V149.316C145.159 149.34 145.393 149.358 145.693 149.37C146.005 149.37 146.413 149.37 146.917 149.37C147.889 149.37 148.531 149.352 148.843 149.316V149.748L148.591 149.784C148.123 149.856 147.955 150.03 148.087 150.306L149.671 154.05L151.021 151.008C151.129 150.768 151.129 150.534 151.021 150.306C150.925 150.066 150.751 149.922 150.499 149.874L149.761 149.748V149.316C150.025 149.352 150.529 149.37 151.273 149.37C151.657 149.37 152.005 149.37 152.317 149.37C152.629 149.358 152.869 149.34 153.037 149.316V149.748L152.587 149.838C152.395 149.874 152.221 149.982 152.065 150.162C151.921 150.342 151.789 150.57 151.669 150.846L149.113 156.642H148.573L146.971 152.772L145.099 156.642H144.577L141.733 150.342C141.589 150.018 141.361 149.838 141.049 149.802L140.851 149.748V149.316Z" fill="black"/>
<path d="M81.7071 0.292893C81.3166 -0.0976311 80.6834 -0.0976311 80.2929 0.292893L73.9289 6.65685C73.5384 7.04738 73.5384 7.68054 73.9289 8.07107C74.3195 8.46159 74.9526 8.46159 75.3432 8.07107L81 2.41421L86.6569 8.07107C87.0474 8.46159 87.6805 8.46159 88.0711 8.07107C88.4616 7.68054 88.4616 7.04738 88.0711 6.65685L81.7071 0.292893ZM82 133L82 1L80 1L80 133L82 133Z" fill="black"/>
</svg>
