<svg width="162" height="169" viewBox="0 0 162 169" fill="none" xmlns="http://www.w3.org/2000/svg">
<path d="M17 134H145C153.837 134 161 141.163 161 150V152C161 160.837 153.837 168 145 168H17C8.16344 168 1 160.837 1 152V150C1 141.163 8.16344 134 17 134Z" fill="#C4C4C4" stroke="black" stroke-width="2"/>
<path d="M23.3035 155.076V146.13C23.3035 145.926 23.2675 145.782 23.1955 145.698C23.1355 145.614 23.0215 145.566 22.8535 145.554L21.7195 145.392V144.924C21.8395 144.96 23.0995 144.978 25.4995 144.978C26.2075 144.978 26.7715 144.96 27.1915 144.924V145.41L26.0575 145.572C25.8895 145.584 25.7695 145.626 25.6975 145.698C25.6375 145.77 25.6075 145.914 25.6075 146.13V155.076C25.6075 155.292 25.6375 155.43 25.6975 155.49C25.7575 155.55 25.8775 155.586 26.0575 155.598L27.1915 155.688V156.3C26.9515 156.276 26.6035 156.258 26.1475 156.246C25.7035 156.234 25.1395 156.228 24.4555 156.228C23.7715 156.228 23.2015 156.234 22.7455 156.246C22.3015 156.258 21.9595 156.276 21.7195 156.3V155.688L22.8535 155.598C23.0335 155.574 23.1535 155.532 23.2135 155.472C23.2735 155.412 23.3035 155.28 23.3035 155.076ZM36.9028 156.282C36.2788 156.246 35.5828 156.228 34.8148 156.228C34.0588 156.228 33.3688 156.246 32.7448 156.282V155.832L33.3748 155.688C33.6388 155.652 33.7708 155.418 33.7708 154.986V151.962C33.7708 151.698 33.7588 151.47 33.7348 151.278C33.7228 151.074 33.6808 150.906 33.6088 150.774C33.5488 150.63 33.4468 150.528 33.3028 150.468C33.1708 150.396 32.9848 150.36 32.7448 150.36C32.4688 150.36 32.1748 150.45 31.8628 150.63C31.5628 150.798 31.3108 151.002 31.1068 151.242V155.184C31.1068 155.376 31.2508 155.508 31.5388 155.58L32.0608 155.832V156.282C31.9528 156.27 31.8448 156.264 31.7368 156.264C31.6408 156.252 31.5328 156.246 31.4128 156.246C31.2928 156.234 31.1608 156.228 31.0168 156.228C30.8728 156.228 30.6928 156.228 30.4768 156.228H29.9188C29.5348 156.228 29.1448 156.234 28.7488 156.246C28.3648 156.246 28.0828 156.258 27.9028 156.282V155.832L28.6768 155.652C28.7968 155.628 28.8868 155.574 28.9468 155.49C29.0068 155.406 29.0368 155.28 29.0368 155.112V151.566C29.0368 151.194 28.9588 150.942 28.8028 150.81C28.6588 150.678 28.3948 150.582 28.0108 150.522V150.18C28.2028 150.132 28.4248 150.072 28.6768 150C28.9408 149.928 29.1988 149.838 29.4508 149.73C29.7028 149.61 29.9368 149.472 30.1528 149.316C30.3688 149.148 30.5308 148.95 30.6388 148.722H31.1068V150.468C31.4668 150.024 31.8568 149.676 32.2768 149.424C32.6968 149.172 33.1168 149.046 33.5368 149.046C34.2328 149.046 34.7908 149.25 35.2108 149.658C35.6308 150.066 35.8408 150.684 35.8408 151.512V154.932C35.8408 155.172 35.8708 155.346 35.9308 155.454C35.9908 155.562 36.1108 155.64 36.2908 155.688L36.9028 155.832V156.282ZM39.9497 145.158C40.2617 145.158 40.5257 145.278 40.7417 145.518C40.9697 145.746 41.0837 146.016 41.0837 146.328C41.0837 146.604 40.9697 146.856 40.7417 147.084C40.5257 147.312 40.2557 147.426 39.9317 147.426C39.6197 147.426 39.3557 147.324 39.1397 147.12C38.9357 146.904 38.8337 146.64 38.8337 146.328C38.8337 146.016 38.9417 145.746 39.1577 145.518C39.3737 145.278 39.6377 145.158 39.9497 145.158ZM41.7677 156.3C41.5757 156.276 41.2877 156.258 40.9037 156.246C40.5197 156.234 40.0877 156.228 39.6077 156.228C39.1277 156.228 38.6957 156.234 38.3117 156.246C37.9277 156.258 37.6397 156.276 37.4477 156.3V155.832L38.1317 155.652C38.5037 155.58 38.6897 155.358 38.6897 154.986V151.746C38.6897 151.458 38.6177 151.248 38.4737 151.116C38.3297 150.984 38.0417 150.87 37.6097 150.774V150.342C37.8137 150.294 38.0477 150.228 38.3117 150.144C38.5757 150.048 38.8337 149.946 39.0857 149.838C39.3377 149.718 39.5717 149.592 39.7877 149.46C40.0037 149.316 40.1717 149.172 40.2917 149.028C40.3757 149.028 40.4537 149.034 40.5257 149.046C40.5977 149.046 40.6757 149.046 40.7597 149.046V155.04C40.7597 155.22 40.7837 155.358 40.8317 155.454C40.8917 155.538 40.9997 155.598 41.1557 155.634L41.7677 155.832V156.3ZM45.1613 147.552H45.5573C45.5573 147.876 45.5573 148.2 45.5573 148.524C45.5693 148.836 45.5753 149.154 45.5753 149.478L47.8253 149.424V150.27L45.5753 150.342V153.582C45.5753 154.11 45.6413 154.5 45.7733 154.752C45.9053 155.004 46.1813 155.13 46.6013 155.13C46.7813 155.13 46.9793 155.112 47.1953 155.076C47.4113 155.028 47.6453 154.896 47.8973 154.68L48.0593 154.932C47.9753 155.1 47.8613 155.28 47.7173 155.472C47.5733 155.652 47.3933 155.82 47.1773 155.976C46.9733 156.132 46.7393 156.264 46.4753 156.372C46.2113 156.468 45.9113 156.516 45.5753 156.516C44.9033 156.516 44.3933 156.348 44.0453 156.012C43.7093 155.664 43.5413 155.076 43.5413 154.248V150.378C43.3733 150.378 43.2113 150.384 43.0553 150.396C42.8993 150.396 42.7373 150.396 42.5693 150.396C42.4013 150.396 42.3113 150.318 42.2993 150.162C42.2993 150.006 42.3833 149.892 42.5513 149.82C42.8153 149.712 43.0553 149.598 43.2713 149.478C43.4993 149.358 43.6853 149.238 43.8293 149.118C43.9013 149.058 43.9973 148.98 44.1173 148.884C44.2493 148.776 44.3813 148.656 44.5133 148.524C44.6453 148.392 44.7653 148.242 44.8733 148.074C44.9933 147.906 45.0893 147.732 45.1613 147.552ZM50.9536 145.158C51.2656 145.158 51.5296 145.278 51.7456 145.518C51.9736 145.746 52.0876 146.016 52.0876 146.328C52.0876 146.604 51.9736 146.856 51.7456 147.084C51.5296 147.312 51.2596 147.426 50.9356 147.426C50.6236 147.426 50.3596 147.324 50.1436 147.12C49.9396 146.904 49.8376 146.64 49.8376 146.328C49.8376 146.016 49.9456 145.746 50.1616 145.518C50.3776 145.278 50.6416 145.158 50.9536 145.158ZM52.7716 156.3C52.5796 156.276 52.2916 156.258 51.9076 156.246C51.5236 156.234 51.0916 156.228 50.6116 156.228C50.1316 156.228 49.6996 156.234 49.3156 156.246C48.9316 156.258 48.6436 156.276 48.4516 156.3V155.832L49.1356 155.652C49.5076 155.58 49.6936 155.358 49.6936 154.986V151.746C49.6936 151.458 49.6216 151.248 49.4776 151.116C49.3336 150.984 49.0456 150.87 48.6136 150.774V150.342C48.8176 150.294 49.0516 150.228 49.3156 150.144C49.5796 150.048 49.8376 149.946 50.0896 149.838C50.3416 149.718 50.5756 149.592 50.7916 149.46C51.0076 149.316 51.1756 149.172 51.2956 149.028C51.3796 149.028 51.4576 149.034 51.5296 149.046C51.6016 149.046 51.6796 149.046 51.7636 149.046V155.04C51.7636 155.22 51.7876 155.358 51.8356 155.454C51.8956 155.538 52.0036 155.598 52.1596 155.634L52.7716 155.832V156.3ZM56.2732 156.498C55.7812 156.498 55.3552 156.414 54.9952 156.246C54.6472 156.066 54.3592 155.826 54.1312 155.526C53.9152 155.226 53.7532 154.872 53.6452 154.464C53.5372 154.056 53.4832 153.618 53.4832 153.15C53.4832 152.514 53.5792 151.95 53.7712 151.458C53.9632 150.966 54.2212 150.552 54.5452 150.216C54.8692 149.88 55.2472 149.628 55.6792 149.46C56.1112 149.28 56.5672 149.19 57.0472 149.19C57.3832 149.19 57.6772 149.214 57.9292 149.262C58.1812 149.31 58.3912 149.364 58.5592 149.424C58.7632 149.484 58.9312 149.556 59.0632 149.64L60.2512 148.974L60.4132 149.028V154.572C60.4132 155.052 60.6172 155.28 61.0252 155.256C61.1212 155.256 61.1932 155.244 61.2412 155.22C61.3012 155.184 61.3552 155.154 61.4032 155.13C61.4512 155.094 61.4932 155.058 61.5292 155.022L61.6372 155.274C61.5412 155.502 61.4152 155.706 61.2592 155.886C61.1272 156.042 60.9472 156.186 60.7192 156.318C60.5032 156.438 60.2332 156.498 59.9092 156.498C59.3812 156.498 59.0032 156.342 58.7752 156.03C58.5592 155.706 58.4512 155.316 58.4512 154.86V154.428C58.3912 154.692 58.3012 154.95 58.1812 155.202C58.0732 155.442 57.9352 155.658 57.7672 155.85C57.5992 156.042 57.3892 156.198 57.1372 156.318C56.8972 156.438 56.6092 156.498 56.2732 156.498ZM58.4512 152.358C58.4512 152.106 58.4392 151.842 58.4152 151.566C58.3912 151.29 58.3372 151.038 58.2532 150.81C58.1692 150.57 58.0372 150.372 57.8572 150.216C57.6892 150.06 57.4552 149.982 57.1552 149.982C56.9872 149.982 56.8072 150.03 56.6152 150.126C56.4352 150.21 56.2672 150.354 56.1112 150.558C55.9552 150.762 55.8232 151.044 55.7152 151.404C55.6192 151.752 55.5712 152.184 55.5712 152.7C55.5712 153.06 55.5952 153.402 55.6432 153.726C55.7032 154.05 55.7932 154.332 55.9132 154.572C56.0332 154.812 56.1772 155.004 56.3452 155.148C56.5252 155.28 56.7352 155.346 56.9752 155.346C57.2152 155.346 57.4252 155.268 57.6052 155.112C57.7852 154.956 57.9352 154.752 58.0552 154.5C58.1872 154.236 58.2832 153.936 58.3432 153.6C58.4152 153.264 58.4512 152.916 58.4512 152.556V152.358ZM66.5002 156.282C66.2122 156.27 65.8762 156.258 65.4922 156.246C65.1202 156.234 64.7362 156.228 64.3402 156.228C63.9442 156.228 63.5542 156.234 63.1702 156.246C62.7982 156.258 62.4682 156.27 62.1802 156.282V155.814L63.0082 155.598C63.1642 155.562 63.2722 155.514 63.3322 155.454C63.3922 155.394 63.4222 155.274 63.4222 155.094V146.31C63.4222 146.058 63.3502 145.872 63.2062 145.752C63.0622 145.632 62.7442 145.5 62.2522 145.356V144.942C62.3722 144.918 62.5462 144.888 62.7742 144.852C63.0022 144.816 63.2542 144.774 63.5302 144.726C63.8062 144.678 64.0822 144.624 64.3582 144.564C64.6342 144.492 64.8742 144.42 65.0782 144.348H65.4922V155.058C65.4922 155.298 65.5162 155.448 65.5642 155.508C65.6122 155.556 65.7262 155.604 65.9062 155.652L66.5002 155.814V156.282ZM73.2957 155.076V146.13C73.2957 145.926 73.2597 145.782 73.1877 145.698C73.1277 145.614 73.0137 145.566 72.8457 145.554L71.7117 145.392V144.924C71.8317 144.96 73.0917 144.978 75.4917 144.978C76.1997 144.978 76.7637 144.96 77.1837 144.924V145.41L76.0497 145.572C75.8817 145.584 75.7617 145.626 75.6897 145.698C75.6297 145.77 75.5997 145.914 75.5997 146.13V155.076C75.5997 155.292 75.6297 155.43 75.6897 155.49C75.7497 155.55 75.8697 155.586 76.0497 155.598L77.1837 155.688V156.3C76.9437 156.276 76.5957 156.258 76.1397 156.246C75.6957 156.234 75.1317 156.228 74.4477 156.228C73.7637 156.228 73.1937 156.234 72.7377 156.246C72.2937 156.258 71.9517 156.276 71.7117 156.3V155.688L72.8457 155.598C73.0257 155.574 73.1457 155.532 73.2057 155.472C73.2657 155.412 73.2957 155.28 73.2957 155.076ZM86.895 156.282C86.271 156.246 85.575 156.228 84.807 156.228C84.051 156.228 83.361 156.246 82.737 156.282V155.832L83.367 155.688C83.631 155.652 83.763 155.418 83.763 154.986V151.962C83.763 151.698 83.751 151.47 83.727 151.278C83.715 151.074 83.673 150.906 83.601 150.774C83.541 150.63 83.439 150.528 83.295 150.468C83.163 150.396 82.977 150.36 82.737 150.36C82.461 150.36 82.167 150.45 81.855 150.63C81.555 150.798 81.303 151.002 81.099 151.242V155.184C81.099 155.376 81.243 155.508 81.531 155.58L82.053 155.832V156.282C81.945 156.27 81.837 156.264 81.729 156.264C81.633 156.252 81.525 156.246 81.405 156.246C81.285 156.234 81.153 156.228 81.009 156.228C80.865 156.228 80.685 156.228 80.469 156.228H79.911C79.527 156.228 79.137 156.234 78.741 156.246C78.357 156.246 78.075 156.258 77.895 156.282V155.832L78.669 155.652C78.789 155.628 78.879 155.574 78.939 155.49C78.999 155.406 79.029 155.28 79.029 155.112V151.566C79.029 151.194 78.951 150.942 78.795 150.81C78.651 150.678 78.387 150.582 78.003 150.522V150.18C78.195 150.132 78.417 150.072 78.669 150C78.933 149.928 79.191 149.838 79.443 149.73C79.695 149.61 79.929 149.472 80.145 149.316C80.361 149.148 80.523 148.95 80.631 148.722H81.099V150.468C81.459 150.024 81.849 149.676 82.269 149.424C82.689 149.172 83.109 149.046 83.529 149.046C84.225 149.046 84.783 149.25 85.203 149.658C85.623 150.066 85.833 150.684 85.833 151.512V154.932C85.833 155.172 85.863 155.346 85.923 155.454C85.983 155.562 86.103 155.64 86.283 155.688L86.895 155.832V156.282ZM90.3019 147.552H90.6979C90.6979 147.876 90.6979 148.2 90.6979 148.524C90.7099 148.836 90.7159 149.154 90.7159 149.478L92.9659 149.424V150.27L90.7159 150.342V153.582C90.7159 154.11 90.7819 154.5 90.9139 154.752C91.0459 155.004 91.3219 155.13 91.7419 155.13C91.9219 155.13 92.1199 155.112 92.3359 155.076C92.5519 155.028 92.7859 154.896 93.0379 154.68L93.1999 154.932C93.1159 155.1 93.0019 155.28 92.8579 155.472C92.7139 155.652 92.5339 155.82 92.3179 155.976C92.1139 156.132 91.8799 156.264 91.6159 156.372C91.3519 156.468 91.0519 156.516 90.7159 156.516C90.0439 156.516 89.5339 156.348 89.1859 156.012C88.8499 155.664 88.6819 155.076 88.6819 154.248V150.378C88.5139 150.378 88.3519 150.384 88.1959 150.396C88.0399 150.396 87.8779 150.396 87.7099 150.396C87.5419 150.396 87.4519 150.318 87.4399 150.162C87.4399 150.006 87.5239 149.892 87.6919 149.82C87.9559 149.712 88.1959 149.598 88.4119 149.478C88.6399 149.358 88.8259 149.238 88.9699 149.118C89.0419 149.058 89.1379 148.98 89.2579 148.884C89.3899 148.776 89.5219 148.656 89.6539 148.524C89.7859 148.392 89.9059 148.242 90.0139 148.074C90.1339 147.906 90.2299 147.732 90.3019 147.552ZM100.396 151.998H95.9323C95.9083 152.118 95.8903 152.19 95.8783 152.214C95.8783 152.238 95.8783 152.31 95.8783 152.43C95.8783 152.814 95.9323 153.168 96.0403 153.492C96.1483 153.804 96.2983 154.08 96.4903 154.32C96.6943 154.548 96.9343 154.728 97.2103 154.86C97.4983 154.992 97.8103 155.058 98.1463 155.058C98.5663 155.058 98.9503 155.004 99.2983 154.896C99.6583 154.776 100.036 154.524 100.432 154.14L100.504 154.41C100.36 154.686 100.192 154.95 100 155.202C99.8203 155.454 99.5983 155.676 99.3343 155.868C99.0703 156.06 98.7583 156.216 98.3983 156.336C98.0503 156.456 97.6363 156.516 97.1563 156.516C96.6523 156.516 96.1903 156.432 95.7703 156.264C95.3503 156.084 94.9903 155.832 94.6903 155.508C94.4023 155.184 94.1743 154.794 94.0063 154.338C93.8503 153.882 93.7723 153.372 93.7723 152.808C93.7723 152.244 93.8563 151.734 94.0243 151.278C94.2043 150.81 94.4503 150.414 94.7623 150.09C95.0863 149.754 95.4763 149.496 95.9323 149.316C96.3883 149.136 96.8983 149.046 97.4623 149.046C97.9783 149.046 98.4163 149.124 98.7763 149.28C99.1363 149.436 99.4303 149.652 99.6583 149.928C99.8983 150.192 100.072 150.504 100.18 150.864C100.3 151.224 100.372 151.602 100.396 151.998ZM96.0223 151.332H97.7143C98.0383 151.332 98.2003 151.176 98.2003 150.864C98.2003 150.516 98.1463 150.222 98.0383 149.982C97.9303 149.73 97.7143 149.604 97.3903 149.604C96.7183 149.604 96.2623 150.18 96.0223 151.332ZM101.257 156.3V156.012L101.797 155.85C102.037 155.778 102.187 155.688 102.247 155.58C102.319 155.46 102.355 155.244 102.355 154.932V151.476C102.355 151.236 102.307 151.056 102.211 150.936C102.115 150.816 101.887 150.732 101.527 150.684L101.221 150.648V150.306C101.449 150.246 101.695 150.168 101.959 150.072C102.235 149.964 102.499 149.844 102.751 149.712C103.015 149.568 103.255 149.406 103.471 149.226C103.699 149.046 103.885 148.848 104.029 148.632H104.353C104.353 148.98 104.359 149.304 104.371 149.604C104.383 149.904 104.401 150.252 104.425 150.648C104.521 150.444 104.611 150.264 104.695 150.108C104.791 149.952 104.935 149.76 105.127 149.532C105.307 149.316 105.493 149.184 105.685 149.136C105.877 149.076 106.051 149.046 106.207 149.046C106.507 149.046 106.771 149.136 106.999 149.316C107.227 149.496 107.341 149.796 107.341 150.216C107.341 150.6 107.257 150.912 107.089 151.152C106.921 151.38 106.669 151.494 106.333 151.494C106.165 151.494 106.021 151.446 105.901 151.35C105.793 151.254 105.697 151.152 105.613 151.044C105.541 150.936 105.469 150.834 105.397 150.738C105.325 150.642 105.253 150.594 105.181 150.594C105.013 150.594 104.863 150.708 104.731 150.936C104.611 151.164 104.527 151.446 104.479 151.782C104.455 151.926 104.437 152.058 104.425 152.178C104.413 152.286 104.413 152.382 104.425 152.466V154.968C104.425 155.244 104.479 155.43 104.587 155.526C104.695 155.622 104.911 155.718 105.235 155.814L105.829 155.994V156.282C105.565 156.258 105.265 156.246 104.929 156.246C104.593 156.234 104.275 156.228 103.975 156.228H103.561C103.165 156.228 102.769 156.234 102.373 156.246C101.977 156.258 101.605 156.276 101.257 156.3ZM114.739 150.666L112.273 156.642H111.823L109.105 150.648C108.961 150.36 108.847 150.174 108.763 150.09C108.679 150.006 108.547 149.946 108.367 149.91L107.629 149.748V149.316C107.893 149.352 108.559 149.37 109.627 149.37C109.891 149.37 110.155 149.37 110.419 149.37C110.695 149.358 110.947 149.352 111.175 149.352C111.415 149.34 111.619 149.334 111.787 149.334C111.967 149.322 112.099 149.31 112.183 149.298V149.73L111.769 149.802C111.553 149.838 111.415 149.94 111.355 150.108C111.307 150.276 111.385 150.594 111.589 151.062L112.795 153.888L113.875 151.098C113.935 150.954 113.977 150.828 114.001 150.72C114.037 150.6 114.055 150.498 114.055 150.414C114.055 150.078 113.809 149.88 113.317 149.82L112.705 149.748V149.316C112.861 149.352 113.437 149.37 114.433 149.37C115.429 149.37 116.065 149.352 116.341 149.316V149.748L115.477 149.874C115.285 149.898 115.147 149.958 115.063 150.054C114.979 150.138 114.871 150.342 114.739 150.666ZM119.016 145.158C119.328 145.158 119.592 145.278 119.808 145.518C120.036 145.746 120.15 146.016 120.15 146.328C120.15 146.604 120.036 146.856 119.808 147.084C119.592 147.312 119.322 147.426 118.998 147.426C118.686 147.426 118.422 147.324 118.206 147.12C118.002 146.904 117.9 146.64 117.9 146.328C117.9 146.016 118.008 145.746 118.224 145.518C118.44 145.278 118.704 145.158 119.016 145.158ZM120.834 156.3C120.642 156.276 120.354 156.258 119.97 156.246C119.586 156.234 119.154 156.228 118.674 156.228C118.194 156.228 117.762 156.234 117.378 156.246C116.994 156.258 116.706 156.276 116.514 156.3V155.832L117.198 155.652C117.57 155.58 117.756 155.358 117.756 154.986V151.746C117.756 151.458 117.684 151.248 117.54 151.116C117.396 150.984 117.108 150.87 116.676 150.774V150.342C116.88 150.294 117.114 150.228 117.378 150.144C117.642 150.048 117.9 149.946 118.152 149.838C118.404 149.718 118.638 149.592 118.854 149.46C119.07 149.316 119.238 149.172 119.358 149.028C119.442 149.028 119.52 149.034 119.592 149.046C119.664 149.046 119.742 149.046 119.826 149.046V155.04C119.826 155.22 119.85 155.358 119.898 155.454C119.958 155.538 120.066 155.598 120.222 155.634L120.834 155.832V156.3ZM128.17 151.998H123.706C123.682 152.118 123.664 152.19 123.652 152.214C123.652 152.238 123.652 152.31 123.652 152.43C123.652 152.814 123.706 153.168 123.814 153.492C123.922 153.804 124.072 154.08 124.264 154.32C124.468 154.548 124.708 154.728 124.984 154.86C125.272 154.992 125.584 155.058 125.92 155.058C126.34 155.058 126.724 155.004 127.072 154.896C127.432 154.776 127.81 154.524 128.206 154.14L128.278 154.41C128.134 154.686 127.966 154.95 127.774 155.202C127.594 155.454 127.372 155.676 127.108 155.868C126.844 156.06 126.532 156.216 126.172 156.336C125.824 156.456 125.41 156.516 124.93 156.516C124.426 156.516 123.964 156.432 123.544 156.264C123.124 156.084 122.764 155.832 122.464 155.508C122.176 155.184 121.948 154.794 121.78 154.338C121.624 153.882 121.546 153.372 121.546 152.808C121.546 152.244 121.63 151.734 121.798 151.278C121.978 150.81 122.224 150.414 122.536 150.09C122.86 149.754 123.25 149.496 123.706 149.316C124.162 149.136 124.672 149.046 125.236 149.046C125.752 149.046 126.19 149.124 126.55 149.28C126.91 149.436 127.204 149.652 127.432 149.928C127.672 150.192 127.846 150.504 127.954 150.864C128.074 151.224 128.146 151.602 128.17 151.998ZM123.796 151.332H125.488C125.812 151.332 125.974 151.176 125.974 150.864C125.974 150.516 125.92 150.222 125.812 149.982C125.704 149.73 125.488 149.604 125.164 149.604C124.492 149.604 124.036 150.18 123.796 151.332ZM128.635 149.316C128.899 149.352 129.457 149.37 130.309 149.37C131.173 149.37 131.785 149.352 132.145 149.316V149.748C132.013 149.748 131.911 149.784 131.839 149.856C131.767 149.916 131.761 150.018 131.821 150.162L133.459 154.158L134.485 152.088L133.909 150.684C133.777 150.36 133.663 150.15 133.567 150.054C133.471 149.958 133.369 149.898 133.261 149.874L132.775 149.748V149.316C132.943 149.34 133.177 149.358 133.477 149.37C133.789 149.37 134.197 149.37 134.701 149.37C135.673 149.37 136.315 149.352 136.627 149.316V149.748L136.375 149.784C135.907 149.856 135.739 150.03 135.871 150.306L137.455 154.05L138.805 151.008C138.913 150.768 138.913 150.534 138.805 150.306C138.709 150.066 138.535 149.922 138.283 149.874L137.545 149.748V149.316C137.809 149.352 138.313 149.37 139.057 149.37C139.441 149.37 139.789 149.37 140.101 149.37C140.413 149.358 140.653 149.34 140.821 149.316V149.748L140.371 149.838C140.179 149.874 140.005 149.982 139.849 150.162C139.705 150.342 139.573 150.57 139.453 150.846L136.897 156.642H136.357L134.755 152.772L132.883 156.642H132.361L129.517 150.342C129.373 150.018 129.145 149.838 128.833 149.802L128.635 149.748V149.316Z" fill="black"/>
<path d="M81.7071 0.292893C81.3166 -0.0976311 80.6834 -0.0976311 80.2929 0.292893L73.9289 6.65685C73.5384 7.04738 73.5384 7.68054 73.9289 8.07107C74.3195 8.46159 74.9526 8.46159 75.3432 8.07107L81 2.41421L86.6569 8.07107C87.0474 8.46159 87.6805 8.46159 88.0711 8.07107C88.4616 7.68054 88.4616 7.04738 88.0711 6.65685L81.7071 0.292893ZM82 133L82 1L80 1L80 133L82 133Z" fill="black"/>
</svg>
