<svg width="289" height="65" viewBox="0 0 289 65" fill="none" xmlns="http://www.w3.org/2000/svg">
<path d="M44.7538 14.67C45.3418 14.67 45.8338 14.67 46.2298 14.67C46.6258 14.658 46.9258 14.646 47.1298 14.634L49.7218 14.49C49.9018 14.478 50.0338 14.472 50.1178 14.472C50.2138 14.472 50.2918 14.472 50.3518 14.472C51.5758 14.472 52.5358 14.766 53.2318 15.354C53.9398 15.942 54.2938 16.752 54.2938 17.784C54.2938 18.288 54.1918 18.744 53.9878 19.152C53.7958 19.548 53.5318 19.89 53.1958 20.178C52.8598 20.454 52.4758 20.67 52.0438 20.826C51.6238 20.97 51.1798 21.042 50.7118 21.042C50.3518 21.042 50.0338 20.994 49.7578 20.898C49.4818 20.79 49.2358 20.616 49.0198 20.376L49.0918 20.25C49.2478 20.31 49.4098 20.352 49.5778 20.376C49.7458 20.388 49.9078 20.394 50.0638 20.394C50.7118 20.394 51.2458 20.196 51.6658 19.8C52.0978 19.392 52.3138 18.75 52.3138 17.874C52.3138 17.13 52.1098 16.5 51.7018 15.984C51.2938 15.468 50.6638 15.186 49.8118 15.138C49.5238 15.126 49.2658 15.126 49.0378 15.138C48.7978 15.138 48.5818 15.18 48.3898 15.264V24.678C48.3898 24.858 48.4258 25.002 48.4978 25.11C48.5818 25.206 48.7558 25.284 49.0198 25.344L50.1898 25.578V25.992C49.6858 25.968 49.2238 25.95 48.8038 25.938C48.3838 25.926 48.0238 25.92 47.7238 25.92C47.3998 25.92 47.0338 25.926 46.6258 25.938C46.2298 25.938 45.7258 25.95 45.1138 25.974V25.56L46.1218 25.38C46.3018 25.344 46.4218 25.278 46.4818 25.182C46.5418 25.086 46.5718 24.924 46.5718 24.696V16.398C46.5718 15.942 46.4278 15.636 46.1398 15.48C45.8638 15.324 45.4018 15.21 44.7538 15.138V14.67ZM59.2997 25.974C59.0117 25.962 58.6817 25.95 58.3097 25.938C57.9497 25.926 57.5777 25.92 57.1937 25.92C56.8217 25.92 56.4497 25.926 56.0777 25.938C55.7177 25.95 55.3937 25.962 55.1057 25.974V25.578L56.0417 25.362C56.1977 25.326 56.3057 25.278 56.3657 25.218C56.4257 25.158 56.4557 25.038 56.4557 24.858V15.93C56.4557 15.678 56.3837 15.492 56.2397 15.372C56.0957 15.252 55.7777 15.12 55.2857 14.976V14.634C55.4057 14.61 55.5617 14.58 55.7537 14.544C55.9457 14.508 56.1557 14.466 56.3837 14.418C56.6117 14.37 56.8397 14.316 57.0677 14.256C57.3077 14.184 57.5297 14.112 57.7337 14.04H58.1477V24.822C58.1477 25.062 58.1717 25.212 58.2197 25.272C58.2677 25.32 58.3817 25.368 58.5617 25.416L59.2997 25.578V25.974ZM63.0704 26.154C62.5784 26.154 62.1524 26.07 61.7924 25.902C61.4324 25.722 61.1324 25.482 60.8924 25.182C60.6644 24.882 60.4904 24.528 60.3704 24.12C60.2624 23.712 60.2084 23.274 60.2084 22.806C60.2084 22.17 60.3104 21.612 60.5144 21.132C60.7184 20.64 60.9824 20.226 61.3064 19.89C61.6424 19.554 62.0264 19.302 62.4584 19.134C62.9024 18.966 63.3584 18.882 63.8264 18.882C64.1144 18.882 64.3724 18.906 64.6004 18.954C64.8284 19.002 65.0264 19.056 65.1944 19.116C65.3864 19.176 65.5604 19.248 65.7164 19.332L66.8144 18.738L66.9764 18.792C66.9764 19.728 66.9764 20.658 66.9764 21.582C66.9884 22.494 66.9944 23.418 66.9944 24.354C66.9944 24.834 67.1984 25.062 67.6064 25.038C67.7024 25.038 67.7804 25.026 67.8404 25.002C67.9004 24.966 67.9544 24.936 68.0024 24.912C68.0504 24.876 68.0984 24.834 68.1464 24.786L68.2724 24.966C68.1764 25.194 68.0564 25.392 67.9124 25.56C67.7804 25.716 67.6184 25.854 67.4264 25.974C67.2344 26.094 66.9944 26.154 66.7064 26.154C66.2384 26.154 65.9024 26.01 65.6984 25.722C65.4944 25.434 65.3924 25.062 65.3924 24.606V24.138C65.3204 24.39 65.2244 24.642 65.1044 24.894C64.9844 25.134 64.8284 25.35 64.6364 25.542C64.4564 25.722 64.2344 25.872 63.9704 25.992C63.7184 26.1 63.4184 26.154 63.0704 26.154ZM65.3924 22.086C65.3924 21.762 65.3684 21.45 65.3204 21.15C65.2844 20.85 65.2064 20.586 65.0864 20.358C64.9664 20.118 64.8044 19.926 64.6004 19.782C64.3964 19.638 64.1264 19.566 63.7904 19.566C63.5864 19.566 63.3704 19.614 63.1424 19.71C62.9144 19.806 62.7044 19.962 62.5124 20.178C62.3204 20.394 62.1644 20.682 62.0444 21.042C61.9244 21.402 61.8644 21.84 61.8644 22.356C61.8644 22.74 61.9004 23.106 61.9724 23.454C62.0564 23.79 62.1704 24.084 62.3144 24.336C62.4704 24.588 62.6564 24.792 62.8724 24.948C63.1004 25.092 63.3584 25.164 63.6464 25.164C63.9104 25.164 64.1504 25.086 64.3664 24.93C64.5824 24.774 64.7624 24.57 64.9064 24.318C65.0624 24.054 65.1824 23.748 65.2664 23.4C65.3504 23.052 65.3924 22.68 65.3924 22.284V22.086ZM77.8312 25.974C77.2072 25.938 76.5412 25.92 75.8332 25.92C75.1252 25.92 74.4592 25.938 73.8352 25.974V25.596L74.6092 25.452C74.8732 25.416 75.0052 25.182 75.0052 24.75V21.708C75.0052 21.42 74.9872 21.162 74.9512 20.934C74.9272 20.694 74.8672 20.496 74.7712 20.34C74.6872 20.184 74.5612 20.064 74.3932 19.98C74.2252 19.896 74.0032 19.854 73.7272 19.854C73.4032 19.854 73.0732 19.944 72.7372 20.124C72.4132 20.304 72.1132 20.538 71.8372 20.826V24.948C71.8372 25.14 71.9812 25.272 72.2692 25.344L73.0072 25.596V25.974C72.8032 25.95 72.5932 25.938 72.3772 25.938C72.1732 25.926 71.8852 25.92 71.5132 25.92H70.9372C70.5412 25.92 70.1632 25.926 69.8032 25.938C69.4432 25.938 69.1612 25.95 68.9572 25.974V25.596L69.8032 25.416C70.0432 25.356 70.1632 25.176 70.1632 24.876V21.312C70.1632 20.94 70.0852 20.688 69.9292 20.556C69.7852 20.424 69.5212 20.328 69.1372 20.268V19.944C69.3292 19.896 69.5332 19.836 69.7492 19.764C69.9772 19.68 70.1932 19.578 70.3972 19.458C70.6132 19.326 70.8112 19.176 70.9912 19.008C71.1832 18.84 71.3332 18.642 71.4412 18.414H71.8372V20.106C72.2332 19.686 72.6652 19.356 73.1332 19.116C73.6132 18.864 74.0632 18.738 74.4832 18.738C75.1792 18.738 75.7192 18.942 76.1032 19.35C76.4992 19.758 76.6972 20.376 76.6972 21.204V24.696C76.6972 24.924 76.7272 25.098 76.7872 25.218C76.8472 25.326 76.9672 25.404 77.1472 25.452L77.8312 25.596V25.974ZM87.3937 25.974C86.7697 25.938 86.1037 25.92 85.3957 25.92C84.6877 25.92 84.0217 25.938 83.3977 25.974V25.596L84.1717 25.452C84.4357 25.416 84.5677 25.182 84.5677 24.75V21.708C84.5677 21.42 84.5497 21.162 84.5137 20.934C84.4897 20.694 84.4297 20.496 84.3337 20.34C84.2497 20.184 84.1237 20.064 83.9557 19.98C83.7877 19.896 83.5657 19.854 83.2897 19.854C82.9657 19.854 82.6357 19.944 82.2997 20.124C81.9757 20.304 81.6757 20.538 81.3997 20.826V24.948C81.3997 25.14 81.5437 25.272 81.8317 25.344L82.5697 25.596V25.974C82.3657 25.95 82.1557 25.938 81.9397 25.938C81.7357 25.926 81.4477 25.92 81.0757 25.92H80.4997C80.1037 25.92 79.7257 25.926 79.3657 25.938C79.0057 25.938 78.7237 25.95 78.5197 25.974V25.596L79.3657 25.416C79.6057 25.356 79.7257 25.176 79.7257 24.876V21.312C79.7257 20.94 79.6477 20.688 79.4917 20.556C79.3477 20.424 79.0837 20.328 78.6997 20.268V19.944C78.8917 19.896 79.0957 19.836 79.3117 19.764C79.5397 19.68 79.7557 19.578 79.9597 19.458C80.1757 19.326 80.3737 19.176 80.5537 19.008C80.7457 18.84 80.8957 18.642 81.0037 18.414H81.3997V20.106C81.7957 19.686 82.2277 19.356 82.6957 19.116C83.1757 18.864 83.6257 18.738 84.0457 18.738C84.7417 18.738 85.2817 18.942 85.6657 19.35C86.0617 19.758 86.2597 20.376 86.2597 21.204V24.696C86.2597 24.924 86.2897 25.098 86.3497 25.218C86.4097 25.326 86.5297 25.404 86.7097 25.452L87.3937 25.596V25.974ZM90.3682 14.922C90.6442 14.922 90.8782 15.024 91.0702 15.228C91.2742 15.42 91.3762 15.654 91.3762 15.93C91.3762 16.17 91.2742 16.392 91.0702 16.596C90.8662 16.788 90.6262 16.884 90.3502 16.884C90.0742 16.884 89.8462 16.794 89.6662 16.614C89.4862 16.422 89.3962 16.194 89.3962 15.93C89.3962 15.654 89.4922 15.42 89.6842 15.228C89.8762 15.024 90.1042 14.922 90.3682 14.922ZM92.2582 25.992C92.0662 25.968 91.7902 25.95 91.4302 25.938C91.0702 25.926 90.6502 25.92 90.1702 25.92C89.6902 25.92 89.2702 25.926 88.9102 25.938C88.5502 25.95 88.2742 25.968 88.0822 25.992V25.596L88.8922 25.416C89.2642 25.344 89.4502 25.122 89.4502 24.75V21.366C89.4502 21.078 89.3782 20.868 89.2342 20.736C89.0902 20.604 88.8022 20.49 88.3702 20.394V20.034C88.5862 19.986 88.8082 19.92 89.0362 19.836C89.2642 19.74 89.4862 19.638 89.7022 19.53C89.9182 19.41 90.1162 19.284 90.2962 19.152C90.4762 19.02 90.6202 18.876 90.7282 18.72C90.8002 18.72 90.8662 18.726 90.9262 18.738C90.9982 18.738 91.0642 18.738 91.1242 18.738V24.804C91.1242 24.984 91.1482 25.122 91.1962 25.218C91.2562 25.302 91.3642 25.362 91.5202 25.398L92.2582 25.596V25.992ZM101.808 25.974C101.184 25.938 100.518 25.92 99.8098 25.92C99.1018 25.92 98.4358 25.938 97.8118 25.974V25.596L98.5858 25.452C98.8498 25.416 98.9818 25.182 98.9818 24.75V21.708C98.9818 21.42 98.9638 21.162 98.9278 20.934C98.9038 20.694 98.8438 20.496 98.7478 20.34C98.6638 20.184 98.5378 20.064 98.3698 19.98C98.2018 19.896 97.9798 19.854 97.7038 19.854C97.3798 19.854 97.0498 19.944 96.7138 20.124C96.3898 20.304 96.0898 20.538 95.8138 20.826V24.948C95.8138 25.14 95.9578 25.272 96.2458 25.344L96.9838 25.596V25.974C96.7798 25.95 96.5698 25.938 96.3538 25.938C96.1498 25.926 95.8618 25.92 95.4898 25.92H94.9138C94.5178 25.92 94.1398 25.926 93.7798 25.938C93.4198 25.938 93.1378 25.95 92.9338 25.974V25.596L93.7798 25.416C94.0198 25.356 94.1398 25.176 94.1398 24.876V21.312C94.1398 20.94 94.0618 20.688 93.9058 20.556C93.7618 20.424 93.4978 20.328 93.1138 20.268V19.944C93.3058 19.896 93.5098 19.836 93.7258 19.764C93.9538 19.68 94.1698 19.578 94.3738 19.458C94.5898 19.326 94.7878 19.176 94.9678 19.008C95.1598 18.84 95.3098 18.642 95.4178 18.414H95.8138V20.106C96.2098 19.686 96.6418 19.356 97.1098 19.116C97.5898 18.864 98.0398 18.738 98.4598 18.738C99.1558 18.738 99.6958 18.942 100.08 19.35C100.476 19.758 100.674 20.376 100.674 21.204V24.696C100.674 24.924 100.704 25.098 100.764 25.218C100.824 25.326 100.944 25.404 101.124 25.452L101.808 25.596V25.974ZM105.556 25.866C105.1 25.866 104.692 25.788 104.332 25.632C103.984 25.464 103.69 25.242 103.45 24.966C103.21 24.678 103.024 24.336 102.892 23.94C102.772 23.544 102.712 23.112 102.712 22.644C102.712 22.044 102.808 21.51 103 21.042C103.192 20.574 103.45 20.184 103.774 19.872C104.098 19.548 104.47 19.302 104.89 19.134C105.322 18.966 105.778 18.882 106.258 18.882C106.594 18.882 106.888 18.906 107.14 18.954C107.392 19.002 107.602 19.056 107.77 19.116C107.974 19.176 108.142 19.248 108.274 19.332L109.39 18.666L109.552 18.72V25.542C109.552 25.998 109.462 26.424 109.282 26.82C109.102 27.204 108.85 27.54 108.526 27.828C108.214 28.116 107.836 28.344 107.392 28.512C106.948 28.68 106.462 28.764 105.934 28.764C105.274 28.764 104.746 28.716 104.35 28.62C103.954 28.524 103.654 28.404 103.45 28.26C103.246 28.116 103.108 27.954 103.036 27.774C102.976 27.606 102.946 27.45 102.946 27.306C102.946 27.066 103.018 26.886 103.162 26.766C103.306 26.646 103.492 26.586 103.72 26.586C103.948 26.586 104.116 26.628 104.224 26.712C104.332 26.784 104.416 26.88 104.476 27C104.536 27.108 104.584 27.228 104.62 27.36C104.668 27.504 104.74 27.63 104.836 27.738C104.932 27.858 105.064 27.954 105.232 28.026C105.412 28.11 105.664 28.152 105.988 28.152C106.624 28.152 107.104 27.96 107.428 27.576C107.764 27.192 107.932 26.592 107.932 25.776V23.778C107.86 24.042 107.758 24.3 107.626 24.552C107.506 24.804 107.35 25.026 107.158 25.218C106.966 25.41 106.738 25.566 106.474 25.686C106.21 25.806 105.904 25.866 105.556 25.866ZM107.932 22.05C107.932 21.75 107.908 21.45 107.86 21.15C107.824 20.85 107.746 20.586 107.626 20.358C107.518 20.118 107.35 19.926 107.122 19.782C106.906 19.626 106.618 19.548 106.258 19.548C106.042 19.548 105.82 19.596 105.592 19.692C105.376 19.776 105.178 19.926 104.998 20.142C104.83 20.346 104.692 20.622 104.584 20.97C104.476 21.306 104.422 21.726 104.422 22.23C104.422 22.59 104.452 22.938 104.512 23.274C104.584 23.598 104.686 23.88 104.818 24.12C104.95 24.36 105.124 24.552 105.34 24.696C105.556 24.84 105.808 24.912 106.096 24.912C106.384 24.912 106.642 24.834 106.87 24.678C107.098 24.522 107.29 24.318 107.446 24.066C107.602 23.802 107.722 23.502 107.806 23.166C107.89 22.818 107.932 22.464 107.932 22.104V22.05ZM177.671 16.074C177.671 15.738 177.575 15.504 177.383 15.372C177.191 15.228 176.885 15.108 176.465 15.012V14.688C176.585 14.688 176.741 14.67 176.933 14.634C177.137 14.598 177.353 14.556 177.581 14.508C177.809 14.448 178.037 14.382 178.265 14.31C178.505 14.226 178.721 14.136 178.913 14.04H179.345V20.322C179.717 19.83 180.095 19.458 180.479 19.206C180.875 18.942 181.319 18.792 181.811 18.756C181.907 18.756 182.003 18.756 182.099 18.756C182.195 18.756 182.291 18.762 182.387 18.774C182.975 18.822 183.437 19.05 183.773 19.458C184.109 19.866 184.277 20.442 184.277 21.186V24.858C184.277 24.978 184.301 25.086 184.349 25.182C184.397 25.278 184.523 25.356 184.727 25.416L185.339 25.596V25.992C184.967 25.968 184.613 25.95 184.277 25.938C183.953 25.926 183.683 25.92 183.467 25.92C183.263 25.92 182.981 25.926 182.621 25.938C182.273 25.95 181.913 25.968 181.541 25.992V25.596L182.171 25.398C182.339 25.338 182.453 25.266 182.513 25.182C182.573 25.086 182.603 24.936 182.603 24.732V21.33C182.603 20.886 182.501 20.538 182.297 20.286C182.093 20.034 181.763 19.908 181.307 19.908C180.851 19.908 180.461 20.046 180.137 20.322C179.825 20.598 179.561 20.904 179.345 21.24V24.732C179.345 24.864 179.369 24.978 179.417 25.074C179.465 25.17 179.555 25.242 179.687 25.29L180.641 25.596V25.992C180.449 25.968 180.167 25.95 179.795 25.938C179.423 25.926 179.009 25.92 178.553 25.92C178.109 25.92 177.713 25.926 177.365 25.938C177.029 25.95 176.765 25.968 176.573 25.992V25.596L177.293 25.398C177.449 25.35 177.551 25.278 177.599 25.182C177.647 25.086 177.671 24.966 177.671 24.822V16.074ZM188.314 14.922C188.59 14.922 188.824 15.024 189.016 15.228C189.22 15.42 189.322 15.654 189.322 15.93C189.322 16.17 189.22 16.392 189.016 16.596C188.812 16.788 188.572 16.884 188.296 16.884C188.02 16.884 187.792 16.794 187.612 16.614C187.432 16.422 187.342 16.194 187.342 15.93C187.342 15.654 187.438 15.42 187.63 15.228C187.822 15.024 188.05 14.922 188.314 14.922ZM190.204 25.992C190.012 25.968 189.736 25.95 189.376 25.938C189.016 25.926 188.596 25.92 188.116 25.92C187.636 25.92 187.216 25.926 186.856 25.938C186.496 25.95 186.22 25.968 186.028 25.992V25.596L186.838 25.416C187.21 25.344 187.396 25.122 187.396 24.75V21.366C187.396 21.078 187.324 20.868 187.18 20.736C187.036 20.604 186.748 20.49 186.316 20.394V20.034C186.532 19.986 186.754 19.92 186.982 19.836C187.21 19.74 187.432 19.638 187.648 19.53C187.864 19.41 188.062 19.284 188.242 19.152C188.422 19.02 188.566 18.876 188.674 18.72C188.746 18.72 188.812 18.726 188.872 18.738C188.944 18.738 189.01 18.738 189.07 18.738V24.804C189.07 24.984 189.094 25.122 189.142 25.218C189.202 25.302 189.31 25.362 189.466 25.398L190.204 25.596V25.992ZM195.577 20.97C195.541 20.79 195.475 20.604 195.379 20.412C195.295 20.22 195.181 20.046 195.037 19.89C194.893 19.722 194.725 19.584 194.533 19.476C194.341 19.368 194.119 19.314 193.867 19.314C193.519 19.314 193.225 19.386 192.985 19.53C192.745 19.674 192.625 19.926 192.625 20.286C192.625 20.634 192.787 20.904 193.111 21.096C193.447 21.276 193.915 21.456 194.515 21.636C195.259 21.876 195.775 22.176 196.063 22.536C196.351 22.896 196.495 23.316 196.495 23.796C196.495 24.216 196.411 24.582 196.243 24.894C196.087 25.194 195.871 25.446 195.595 25.65C195.331 25.842 195.019 25.986 194.659 26.082C194.311 26.166 193.945 26.208 193.561 26.208C193.129 26.208 192.721 26.172 192.337 26.1C191.965 26.016 191.641 25.896 191.365 25.74L191.185 23.598H191.581C191.749 24.246 192.019 24.75 192.391 25.11C192.763 25.458 193.213 25.632 193.741 25.632C194.125 25.632 194.455 25.536 194.731 25.344C195.007 25.14 195.145 24.846 195.145 24.462C195.145 24.114 195.013 23.838 194.749 23.634C194.485 23.43 194.065 23.244 193.489 23.076C192.637 22.836 192.037 22.542 191.689 22.194C191.353 21.846 191.185 21.378 191.185 20.79C191.185 20.466 191.263 20.178 191.419 19.926C191.575 19.662 191.779 19.446 192.031 19.278C192.283 19.098 192.577 18.966 192.913 18.882C193.249 18.786 193.597 18.738 193.957 18.738C194.329 18.738 194.683 18.774 195.019 18.846C195.355 18.918 195.643 19.026 195.883 19.17L195.991 20.97H195.577ZM200.029 17.244H200.353C200.353 17.568 200.353 17.892 200.353 18.216C200.365 18.528 200.371 18.846 200.371 19.17L202.693 19.116V19.89L200.371 19.962V23.364C200.371 23.964 200.425 24.42 200.533 24.732C200.653 25.032 200.935 25.17 201.379 25.146C201.559 25.146 201.757 25.122 201.973 25.074C202.201 25.014 202.453 24.882 202.729 24.678L202.891 24.93C202.687 25.242 202.393 25.536 202.009 25.812C201.637 26.076 201.133 26.208 200.497 26.208C199.861 26.208 199.399 26.046 199.111 25.722C198.835 25.386 198.697 24.792 198.697 23.94V19.998C198.529 19.998 198.367 20.004 198.211 20.016C198.055 20.016 197.893 20.016 197.725 20.016C197.557 20.016 197.467 19.95 197.455 19.818C197.455 19.686 197.539 19.584 197.707 19.512C197.959 19.404 198.187 19.29 198.391 19.17C198.607 19.05 198.781 18.924 198.913 18.792C199.045 18.66 199.231 18.462 199.471 18.198C199.711 17.934 199.897 17.616 200.029 17.244ZM207.373 26.208C206.785 26.208 206.257 26.118 205.789 25.938C205.321 25.746 204.925 25.482 204.601 25.146C204.277 24.81 204.025 24.42 203.845 23.976C203.677 23.52 203.593 23.022 203.593 22.482C203.593 21.93 203.677 21.426 203.845 20.97C204.013 20.502 204.265 20.106 204.601 19.782C204.937 19.446 205.345 19.188 205.825 19.008C206.317 18.816 206.881 18.72 207.517 18.72C208.153 18.72 208.711 18.822 209.191 19.026C209.671 19.218 210.073 19.488 210.397 19.836C210.721 20.172 210.967 20.574 211.135 21.042C211.303 21.498 211.387 21.99 211.387 22.518C211.387 23.058 211.291 23.556 211.099 24.012C210.907 24.456 210.637 24.84 210.289 25.164C209.941 25.488 209.521 25.746 209.029 25.938C208.537 26.118 207.985 26.208 207.373 26.208ZM205.465 22.608C205.465 23.556 205.639 24.306 205.987 24.858C206.347 25.398 206.833 25.668 207.445 25.668C208.057 25.668 208.549 25.38 208.921 24.804C209.293 24.228 209.479 23.46 209.479 22.5C209.479 21.54 209.305 20.766 208.957 20.178C208.609 19.578 208.111 19.278 207.463 19.278C206.815 19.278 206.317 19.56 205.969 20.124C205.633 20.688 205.465 21.516 205.465 22.608ZM212.307 25.992V25.704L212.991 25.542C213.231 25.47 213.381 25.38 213.441 25.272C213.513 25.152 213.549 24.936 213.549 24.624V21.168C213.549 20.928 213.501 20.754 213.405 20.646C213.309 20.526 213.081 20.436 212.721 20.376L212.343 20.304L212.361 19.998C212.829 19.866 213.291 19.668 213.747 19.404C214.203 19.14 214.569 18.78 214.845 18.324H215.169L215.241 20.448C215.337 20.232 215.445 20.04 215.565 19.872C215.685 19.692 215.847 19.494 216.051 19.278C216.255 19.062 216.447 18.918 216.627 18.846C216.819 18.774 216.993 18.738 217.149 18.738C217.449 18.738 217.695 18.828 217.887 19.008C218.091 19.176 218.193 19.434 218.193 19.782C218.193 20.106 218.115 20.364 217.959 20.556C217.815 20.736 217.605 20.826 217.329 20.826C217.185 20.826 217.059 20.796 216.951 20.736C216.843 20.664 216.741 20.586 216.645 20.502C216.561 20.418 216.477 20.346 216.393 20.286C216.309 20.214 216.231 20.178 216.159 20.178C216.051 20.178 215.949 20.226 215.853 20.322C215.757 20.406 215.667 20.514 215.583 20.646C215.499 20.778 215.427 20.928 215.367 21.096C215.319 21.252 215.289 21.402 215.277 21.546C215.265 21.666 215.253 21.774 215.241 21.87C215.229 21.966 215.229 22.056 215.241 22.14V24.66C215.241 24.96 215.295 25.158 215.403 25.254C215.511 25.338 215.727 25.422 216.051 25.506L216.969 25.686V25.974C216.681 25.95 216.357 25.938 215.997 25.938C215.637 25.926 215.271 25.92 214.899 25.92H214.557C214.161 25.92 213.771 25.926 213.387 25.938C213.003 25.95 212.643 25.968 212.307 25.992ZM221.237 14.922C221.513 14.922 221.747 15.024 221.939 15.228C222.143 15.42 222.245 15.654 222.245 15.93C222.245 16.17 222.143 16.392 221.939 16.596C221.735 16.788 221.495 16.884 221.219 16.884C220.943 16.884 220.715 16.794 220.535 16.614C220.355 16.422 220.265 16.194 220.265 15.93C220.265 15.654 220.361 15.42 220.553 15.228C220.745 15.024 220.973 14.922 221.237 14.922ZM223.127 25.992C222.935 25.968 222.659 25.95 222.299 25.938C221.939 25.926 221.519 25.92 221.039 25.92C220.559 25.92 220.139 25.926 219.779 25.938C219.419 25.95 219.143 25.968 218.951 25.992V25.596L219.761 25.416C220.133 25.344 220.319 25.122 220.319 24.75V21.366C220.319 21.078 220.247 20.868 220.103 20.736C219.959 20.604 219.671 20.49 219.239 20.394V20.034C219.455 19.986 219.677 19.92 219.905 19.836C220.133 19.74 220.355 19.638 220.571 19.53C220.787 19.41 220.985 19.284 221.165 19.152C221.345 19.02 221.489 18.876 221.597 18.72C221.669 18.72 221.735 18.726 221.795 18.738C221.867 18.738 221.933 18.738 221.993 18.738V24.804C221.993 24.984 222.017 25.122 222.065 25.218C222.125 25.302 222.233 25.362 222.389 25.398L223.127 25.596V25.992ZM230.409 24.552C230.265 24.768 230.097 24.978 229.905 25.182C229.725 25.374 229.515 25.548 229.275 25.704C229.035 25.848 228.771 25.968 228.483 26.064C228.195 26.16 227.883 26.208 227.547 26.208C227.007 26.208 226.515 26.118 226.071 25.938C225.639 25.758 225.267 25.506 224.955 25.182C224.655 24.858 224.421 24.48 224.253 24.048C224.097 23.604 224.019 23.118 224.019 22.59C224.019 22.014 224.115 21.492 224.307 21.024C224.499 20.556 224.769 20.154 225.117 19.818C225.465 19.47 225.879 19.206 226.359 19.026C226.851 18.834 227.397 18.738 227.997 18.738C228.645 18.738 229.179 18.84 229.599 19.044C230.019 19.236 230.229 19.512 230.229 19.872C230.229 20.088 230.169 20.262 230.049 20.394C229.929 20.514 229.785 20.58 229.617 20.592C229.449 20.592 229.281 20.532 229.113 20.412C228.957 20.28 228.795 20.136 228.627 19.98C228.459 19.824 228.273 19.68 228.069 19.548C227.865 19.416 227.637 19.35 227.385 19.35C227.085 19.35 226.827 19.44 226.611 19.62C226.395 19.788 226.221 20.01 226.089 20.286C225.957 20.55 225.855 20.85 225.783 21.186C225.723 21.522 225.693 21.858 225.693 22.194C225.693 23.022 225.921 23.688 226.377 24.192C226.833 24.696 227.403 24.966 228.087 25.002C228.543 25.038 228.939 24.978 229.275 24.822C229.623 24.666 229.941 24.45 230.229 24.174L230.409 24.552ZM234.229 26.154C233.737 26.154 233.311 26.07 232.951 25.902C232.591 25.722 232.291 25.482 232.051 25.182C231.823 24.882 231.649 24.528 231.529 24.12C231.421 23.712 231.367 23.274 231.367 22.806C231.367 22.17 231.469 21.612 231.673 21.132C231.877 20.64 232.141 20.226 232.465 19.89C232.801 19.554 233.185 19.302 233.617 19.134C234.061 18.966 234.517 18.882 234.985 18.882C235.273 18.882 235.531 18.906 235.759 18.954C235.987 19.002 236.185 19.056 236.353 19.116C236.545 19.176 236.719 19.248 236.875 19.332L237.973 18.738L238.135 18.792C238.135 19.728 238.135 20.658 238.135 21.582C238.147 22.494 238.153 23.418 238.153 24.354C238.153 24.834 238.357 25.062 238.765 25.038C238.861 25.038 238.939 25.026 238.999 25.002C239.059 24.966 239.113 24.936 239.161 24.912C239.209 24.876 239.257 24.834 239.305 24.786L239.431 24.966C239.335 25.194 239.215 25.392 239.071 25.56C238.939 25.716 238.777 25.854 238.585 25.974C238.393 26.094 238.153 26.154 237.865 26.154C237.397 26.154 237.061 26.01 236.857 25.722C236.653 25.434 236.551 25.062 236.551 24.606V24.138C236.479 24.39 236.383 24.642 236.263 24.894C236.143 25.134 235.987 25.35 235.795 25.542C235.615 25.722 235.393 25.872 235.129 25.992C234.877 26.1 234.577 26.154 234.229 26.154ZM236.551 22.086C236.551 21.762 236.527 21.45 236.479 21.15C236.443 20.85 236.365 20.586 236.245 20.358C236.125 20.118 235.963 19.926 235.759 19.782C235.555 19.638 235.285 19.566 234.949 19.566C234.745 19.566 234.529 19.614 234.301 19.71C234.073 19.806 233.863 19.962 233.671 20.178C233.479 20.394 233.323 20.682 233.203 21.042C233.083 21.402 233.023 21.84 233.023 22.356C233.023 22.74 233.059 23.106 233.131 23.454C233.215 23.79 233.329 24.084 233.473 24.336C233.629 24.588 233.815 24.792 234.031 24.948C234.259 25.092 234.517 25.164 234.805 25.164C235.069 25.164 235.309 25.086 235.525 24.93C235.741 24.774 235.921 24.57 236.065 24.318C236.221 24.054 236.341 23.748 236.425 23.4C236.509 23.052 236.551 22.68 236.551 22.284V22.086ZM244.309 25.974C244.021 25.962 243.691 25.95 243.319 25.938C242.959 25.926 242.587 25.92 242.203 25.92C241.831 25.92 241.459 25.926 241.087 25.938C240.727 25.95 240.403 25.962 240.115 25.974V25.578L241.051 25.362C241.207 25.326 241.315 25.278 241.375 25.218C241.435 25.158 241.465 25.038 241.465 24.858V15.93C241.465 15.678 241.393 15.492 241.249 15.372C241.105 15.252 240.787 15.12 240.295 14.976V14.634C240.415 14.61 240.571 14.58 240.763 14.544C240.955 14.508 241.165 14.466 241.393 14.418C241.621 14.37 241.849 14.316 242.077 14.256C242.317 14.184 242.539 14.112 242.743 14.04H243.157V24.822C243.157 25.062 243.181 25.212 243.229 25.272C243.277 25.32 243.391 25.368 243.571 25.416L244.309 25.578V25.974ZM111.295 54.992V54.704L111.979 54.542C112.219 54.47 112.369 54.38 112.429 54.272C112.501 54.152 112.537 53.936 112.537 53.624V50.168C112.537 49.928 112.489 49.754 112.393 49.646C112.297 49.526 112.069 49.436 111.709 49.376L111.331 49.304L111.349 48.998C111.817 48.866 112.279 48.668 112.735 48.404C113.191 48.14 113.557 47.78 113.833 47.324H114.157L114.229 49.448C114.325 49.232 114.433 49.04 114.553 48.872C114.673 48.692 114.835 48.494 115.039 48.278C115.243 48.062 115.435 47.918 115.615 47.846C115.807 47.774 115.981 47.738 116.137 47.738C116.437 47.738 116.683 47.828 116.875 48.008C117.079 48.176 117.181 48.434 117.181 48.782C117.181 49.106 117.103 49.364 116.947 49.556C116.803 49.736 116.593 49.826 116.317 49.826C116.173 49.826 116.047 49.796 115.939 49.736C115.831 49.664 115.729 49.586 115.633 49.502C115.549 49.418 115.465 49.346 115.381 49.286C115.297 49.214 115.219 49.178 115.147 49.178C115.039 49.178 114.937 49.226 114.841 49.322C114.745 49.406 114.655 49.514 114.571 49.646C114.487 49.778 114.415 49.928 114.355 50.096C114.307 50.252 114.277 50.402 114.265 50.546C114.253 50.666 114.241 50.774 114.229 50.87C114.217 50.966 114.217 51.056 114.229 51.14V53.66C114.229 53.96 114.283 54.158 114.391 54.254C114.499 54.338 114.715 54.422 115.039 54.506L115.957 54.686V54.974C115.669 54.95 115.345 54.938 114.985 54.938C114.625 54.926 114.259 54.92 113.887 54.92H113.545C113.149 54.92 112.759 54.926 112.375 54.938C111.991 54.95 111.631 54.968 111.295 54.992ZM124.617 50.582H119.919C119.895 50.702 119.877 50.792 119.865 50.852C119.865 50.912 119.865 51.002 119.865 51.122C119.865 51.542 119.925 51.926 120.045 52.274C120.165 52.622 120.333 52.922 120.549 53.174C120.765 53.426 121.023 53.624 121.323 53.768C121.635 53.9 121.983 53.966 122.367 53.966C122.787 53.966 123.171 53.9 123.519 53.768C123.879 53.624 124.257 53.36 124.653 52.976L124.725 53.318C124.557 53.582 124.365 53.828 124.149 54.056C123.945 54.284 123.711 54.488 123.447 54.668C123.183 54.836 122.883 54.968 122.547 55.064C122.211 55.16 121.833 55.208 121.413 55.208C120.933 55.208 120.495 55.118 120.099 54.938C119.703 54.758 119.361 54.506 119.073 54.182C118.785 53.846 118.557 53.45 118.389 52.994C118.233 52.538 118.155 52.04 118.155 51.5C118.155 50.948 118.239 50.444 118.407 49.988C118.587 49.532 118.833 49.136 119.145 48.8C119.457 48.464 119.835 48.206 120.279 48.026C120.723 47.834 121.215 47.738 121.755 47.738C122.223 47.738 122.631 47.81 122.979 47.954C123.327 48.098 123.615 48.302 123.843 48.566C124.083 48.818 124.263 49.118 124.383 49.466C124.515 49.814 124.593 50.186 124.617 50.582ZM120.009 50.024H122.133C122.373 50.024 122.553 49.994 122.673 49.934C122.805 49.874 122.853 49.724 122.817 49.484C122.781 49.148 122.679 48.86 122.511 48.62C122.355 48.368 122.085 48.242 121.701 48.242C121.269 48.242 120.909 48.398 120.621 48.71C120.333 49.01 120.129 49.448 120.009 50.024ZM128.752 48.026L131.056 48.08V48.71L128.788 48.782V53.192C128.788 53.576 128.848 53.864 128.968 54.056C129.1 54.236 129.292 54.35 129.544 54.398L130.606 54.578V54.974C129.898 54.938 129.16 54.92 128.392 54.92H127.852C127.432 54.92 127.036 54.926 126.664 54.938C126.292 54.938 126.004 54.95 125.8 54.974V54.596L126.358 54.47C126.538 54.434 126.676 54.392 126.772 54.344C126.88 54.296 126.952 54.236 126.988 54.164C127.036 54.08 127.066 53.978 127.078 53.858C127.09 53.726 127.096 53.552 127.096 53.336V48.998C126.868 48.95 126.43 48.914 125.782 48.89V48.62C126.058 48.5 126.28 48.398 126.448 48.314C126.616 48.23 126.742 48.152 126.826 48.08C126.922 47.996 126.982 47.918 127.006 47.846C127.042 47.774 127.06 47.696 127.06 47.612C127.06 47.396 127.096 47.048 127.168 46.568C127.252 46.076 127.414 45.578 127.654 45.074C127.906 44.558 128.26 44.102 128.716 43.706C129.184 43.31 129.808 43.094 130.588 43.058C130.684 43.046 130.774 43.046 130.858 43.058C130.954 43.058 131.05 43.058 131.146 43.058C131.566 43.094 131.908 43.19 132.172 43.346C132.436 43.49 132.568 43.712 132.568 44.012C132.568 44.288 132.49 44.51 132.334 44.678C132.178 44.846 131.956 44.93 131.668 44.93C131.476 44.93 131.302 44.876 131.146 44.768C131.002 44.66 130.858 44.546 130.714 44.426C130.582 44.294 130.456 44.174 130.336 44.066C130.216 43.958 130.096 43.904 129.976 43.904C129.652 43.904 129.4 43.988 129.22 44.156C129.052 44.324 128.932 44.546 128.86 44.822C128.788 45.098 128.746 45.41 128.734 45.758C128.734 46.094 128.734 46.43 128.734 46.766C128.734 47.09 128.734 47.36 128.734 47.576C128.734 47.78 128.74 47.93 128.752 48.026ZM138.468 50.582H133.77C133.746 50.702 133.728 50.792 133.716 50.852C133.716 50.912 133.716 51.002 133.716 51.122C133.716 51.542 133.776 51.926 133.896 52.274C134.016 52.622 134.184 52.922 134.4 53.174C134.616 53.426 134.874 53.624 135.174 53.768C135.486 53.9 135.834 53.966 136.218 53.966C136.638 53.966 137.022 53.9 137.37 53.768C137.73 53.624 138.108 53.36 138.504 52.976L138.576 53.318C138.408 53.582 138.216 53.828 138 54.056C137.796 54.284 137.562 54.488 137.298 54.668C137.034 54.836 136.734 54.968 136.398 55.064C136.062 55.16 135.684 55.208 135.264 55.208C134.784 55.208 134.346 55.118 133.95 54.938C133.554 54.758 133.212 54.506 132.924 54.182C132.636 53.846 132.408 53.45 132.24 52.994C132.084 52.538 132.006 52.04 132.006 51.5C132.006 50.948 132.09 50.444 132.258 49.988C132.438 49.532 132.684 49.136 132.996 48.8C133.308 48.464 133.686 48.206 134.13 48.026C134.574 47.834 135.066 47.738 135.606 47.738C136.074 47.738 136.482 47.81 136.83 47.954C137.178 48.098 137.466 48.302 137.694 48.566C137.934 48.818 138.114 49.118 138.234 49.466C138.366 49.814 138.444 50.186 138.468 50.582ZM133.86 50.024H135.984C136.224 50.024 136.404 49.994 136.524 49.934C136.656 49.874 136.704 49.724 136.668 49.484C136.632 49.148 136.53 48.86 136.362 48.62C136.206 48.368 135.936 48.242 135.552 48.242C135.12 48.242 134.76 48.398 134.472 48.71C134.184 49.01 133.98 49.448 133.86 50.024ZM139.49 54.992V54.704L140.174 54.542C140.414 54.47 140.564 54.38 140.624 54.272C140.696 54.152 140.732 53.936 140.732 53.624V50.168C140.732 49.928 140.684 49.754 140.588 49.646C140.492 49.526 140.264 49.436 139.904 49.376L139.526 49.304L139.544 48.998C140.012 48.866 140.474 48.668 140.93 48.404C141.386 48.14 141.752 47.78 142.028 47.324H142.352L142.424 49.448C142.52 49.232 142.628 49.04 142.748 48.872C142.868 48.692 143.03 48.494 143.234 48.278C143.438 48.062 143.63 47.918 143.81 47.846C144.002 47.774 144.176 47.738 144.332 47.738C144.632 47.738 144.878 47.828 145.07 48.008C145.274 48.176 145.376 48.434 145.376 48.782C145.376 49.106 145.298 49.364 145.142 49.556C144.998 49.736 144.788 49.826 144.512 49.826C144.368 49.826 144.242 49.796 144.134 49.736C144.026 49.664 143.924 49.586 143.828 49.502C143.744 49.418 143.66 49.346 143.576 49.286C143.492 49.214 143.414 49.178 143.342 49.178C143.234 49.178 143.132 49.226 143.036 49.322C142.94 49.406 142.85 49.514 142.766 49.646C142.682 49.778 142.61 49.928 142.55 50.096C142.502 50.252 142.472 50.402 142.46 50.546C142.448 50.666 142.436 50.774 142.424 50.87C142.412 50.966 142.412 51.056 142.424 51.14V53.66C142.424 53.96 142.478 54.158 142.586 54.254C142.694 54.338 142.91 54.422 143.234 54.506L144.152 54.686V54.974C143.864 54.95 143.54 54.938 143.18 54.938C142.82 54.926 142.454 54.92 142.082 54.92H141.74C141.344 54.92 140.954 54.926 140.57 54.938C140.186 54.95 139.826 54.968 139.49 54.992ZM152.812 50.582H148.114C148.09 50.702 148.072 50.792 148.06 50.852C148.06 50.912 148.06 51.002 148.06 51.122C148.06 51.542 148.12 51.926 148.24 52.274C148.36 52.622 148.528 52.922 148.744 53.174C148.96 53.426 149.218 53.624 149.518 53.768C149.83 53.9 150.178 53.966 150.562 53.966C150.982 53.966 151.366 53.9 151.714 53.768C152.074 53.624 152.452 53.36 152.848 52.976L152.92 53.318C152.752 53.582 152.56 53.828 152.344 54.056C152.14 54.284 151.906 54.488 151.642 54.668C151.378 54.836 151.078 54.968 150.742 55.064C150.406 55.16 150.028 55.208 149.608 55.208C149.128 55.208 148.69 55.118 148.294 54.938C147.898 54.758 147.556 54.506 147.268 54.182C146.98 53.846 146.752 53.45 146.584 52.994C146.428 52.538 146.35 52.04 146.35 51.5C146.35 50.948 146.434 50.444 146.602 49.988C146.782 49.532 147.028 49.136 147.34 48.8C147.652 48.464 148.03 48.206 148.474 48.026C148.918 47.834 149.41 47.738 149.95 47.738C150.418 47.738 150.826 47.81 151.174 47.954C151.522 48.098 151.81 48.302 152.038 48.566C152.278 48.818 152.458 49.118 152.578 49.466C152.71 49.814 152.788 50.186 152.812 50.582ZM148.204 50.024H150.328C150.568 50.024 150.748 49.994 150.868 49.934C151 49.874 151.048 49.724 151.012 49.484C150.976 49.148 150.874 48.86 150.706 48.62C150.55 48.368 150.28 48.242 149.896 48.242C149.464 48.242 149.104 48.398 148.816 48.71C148.528 49.01 148.324 49.448 148.204 50.024ZM162.69 54.974C162.066 54.938 161.4 54.92 160.692 54.92C159.984 54.92 159.318 54.938 158.694 54.974V54.596L159.468 54.452C159.732 54.416 159.864 54.182 159.864 53.75V50.708C159.864 50.42 159.846 50.162 159.81 49.934C159.786 49.694 159.726 49.496 159.63 49.34C159.546 49.184 159.42 49.064 159.252 48.98C159.084 48.896 158.862 48.854 158.586 48.854C158.262 48.854 157.932 48.944 157.596 49.124C157.272 49.304 156.972 49.538 156.696 49.826V53.948C156.696 54.14 156.84 54.272 157.128 54.344L157.866 54.596V54.974C157.662 54.95 157.452 54.938 157.236 54.938C157.032 54.926 156.744 54.92 156.372 54.92H155.796C155.4 54.92 155.022 54.926 154.662 54.938C154.302 54.938 154.02 54.95 153.816 54.974V54.596L154.662 54.416C154.902 54.356 155.022 54.176 155.022 53.876V50.312C155.022 49.94 154.944 49.688 154.788 49.556C154.644 49.424 154.38 49.328 153.996 49.268V48.944C154.188 48.896 154.392 48.836 154.608 48.764C154.836 48.68 155.052 48.578 155.256 48.458C155.472 48.326 155.67 48.176 155.85 48.008C156.042 47.84 156.192 47.642 156.3 47.414H156.696V49.106C157.092 48.686 157.524 48.356 157.992 48.116C158.472 47.864 158.922 47.738 159.342 47.738C160.038 47.738 160.578 47.942 160.962 48.35C161.358 48.758 161.556 49.376 161.556 50.204V53.696C161.556 53.924 161.586 54.098 161.646 54.218C161.706 54.326 161.826 54.404 162.006 54.452L162.69 54.596V54.974ZM169.984 53.552C169.84 53.768 169.672 53.978 169.48 54.182C169.3 54.374 169.09 54.548 168.85 54.704C168.61 54.848 168.346 54.968 168.058 55.064C167.77 55.16 167.458 55.208 167.122 55.208C166.582 55.208 166.09 55.118 165.646 54.938C165.214 54.758 164.842 54.506 164.53 54.182C164.23 53.858 163.996 53.48 163.828 53.048C163.672 52.604 163.594 52.118 163.594 51.59C163.594 51.014 163.69 50.492 163.882 50.024C164.074 49.556 164.344 49.154 164.692 48.818C165.04 48.47 165.454 48.206 165.934 48.026C166.426 47.834 166.972 47.738 167.572 47.738C168.22 47.738 168.754 47.84 169.174 48.044C169.594 48.236 169.804 48.512 169.804 48.872C169.804 49.088 169.744 49.262 169.624 49.394C169.504 49.514 169.36 49.58 169.192 49.592C169.024 49.592 168.856 49.532 168.688 49.412C168.532 49.28 168.37 49.136 168.202 48.98C168.034 48.824 167.848 48.68 167.644 48.548C167.44 48.416 167.212 48.35 166.96 48.35C166.66 48.35 166.402 48.44 166.186 48.62C165.97 48.788 165.796 49.01 165.664 49.286C165.532 49.55 165.43 49.85 165.358 50.186C165.298 50.522 165.268 50.858 165.268 51.194C165.268 52.022 165.496 52.688 165.952 53.192C166.408 53.696 166.978 53.966 167.662 54.002C168.118 54.038 168.514 53.978 168.85 53.822C169.198 53.666 169.516 53.45 169.804 53.174L169.984 53.552ZM177.404 50.582H172.706C172.682 50.702 172.664 50.792 172.652 50.852C172.652 50.912 172.652 51.002 172.652 51.122C172.652 51.542 172.712 51.926 172.832 52.274C172.952 52.622 173.12 52.922 173.336 53.174C173.552 53.426 173.81 53.624 174.11 53.768C174.422 53.9 174.77 53.966 175.154 53.966C175.574 53.966 175.958 53.9 176.306 53.768C176.666 53.624 177.044 53.36 177.44 52.976L177.512 53.318C177.344 53.582 177.152 53.828 176.936 54.056C176.732 54.284 176.498 54.488 176.234 54.668C175.97 54.836 175.67 54.968 175.334 55.064C174.998 55.16 174.62 55.208 174.2 55.208C173.72 55.208 173.282 55.118 172.886 54.938C172.49 54.758 172.148 54.506 171.86 54.182C171.572 53.846 171.344 53.45 171.176 52.994C171.02 52.538 170.942 52.04 170.942 51.5C170.942 50.948 171.026 50.444 171.194 49.988C171.374 49.532 171.62 49.136 171.932 48.8C172.244 48.464 172.622 48.206 173.066 48.026C173.51 47.834 174.002 47.738 174.542 47.738C175.01 47.738 175.418 47.81 175.766 47.954C176.114 48.098 176.402 48.302 176.63 48.566C176.87 48.818 177.05 49.118 177.17 49.466C177.302 49.814 177.38 50.186 177.404 50.582ZM172.796 50.024H174.92C175.16 50.024 175.34 49.994 175.46 49.934C175.592 49.874 175.64 49.724 175.604 49.484C175.568 49.148 175.466 48.86 175.298 48.62C175.142 48.368 174.872 48.242 174.488 48.242C174.056 48.242 173.696 48.398 173.408 48.71C173.12 49.01 172.916 49.448 172.796 50.024Z" fill="black"/>
<path d="M114.58 19.008C114.844 19.044 115.402 19.062 116.254 19.062C117.118 19.062 117.73 19.044 118.09 19.008V19.44C117.958 19.44 117.856 19.476 117.784 19.548C117.712 19.608 117.706 19.71 117.766 19.854L119.404 23.85L120.43 21.78L119.854 20.376C119.722 20.052 119.608 19.842 119.512 19.746C119.416 19.65 119.314 19.59 119.206 19.566L118.72 19.44V19.008C118.888 19.032 119.122 19.05 119.422 19.062C119.734 19.062 120.142 19.062 120.646 19.062C121.618 19.062 122.26 19.044 122.572 19.008V19.44L122.32 19.476C121.852 19.548 121.684 19.722 121.816 19.998L123.4 23.742L124.75 20.7C124.858 20.46 124.858 20.226 124.75 19.998C124.654 19.758 124.48 19.614 124.228 19.566L123.49 19.44V19.008C123.754 19.044 124.258 19.062 125.002 19.062C125.386 19.062 125.734 19.062 126.046 19.062C126.358 19.05 126.598 19.032 126.766 19.008V19.44L126.316 19.53C126.124 19.566 125.95 19.674 125.794 19.854C125.65 20.034 125.518 20.262 125.398 20.538L122.842 26.334H122.302L120.7 22.464L118.828 26.334H118.306L115.462 20.034C115.318 19.71 115.09 19.53 114.778 19.494L114.58 19.44V19.008ZM129.448 14.85C129.76 14.85 130.024 14.97 130.24 15.21C130.468 15.438 130.582 15.708 130.582 16.02C130.582 16.296 130.468 16.548 130.24 16.776C130.024 17.004 129.754 17.118 129.43 17.118C129.118 17.118 128.854 17.016 128.638 16.812C128.434 16.596 128.332 16.332 128.332 16.02C128.332 15.708 128.44 15.438 128.656 15.21C128.872 14.97 129.136 14.85 129.448 14.85ZM131.266 25.992C131.074 25.968 130.786 25.95 130.402 25.938C130.018 25.926 129.586 25.92 129.106 25.92C128.626 25.92 128.194 25.926 127.81 25.938C127.426 25.95 127.138 25.968 126.946 25.992V25.524L127.63 25.344C128.002 25.272 128.188 25.05 128.188 24.678V21.438C128.188 21.15 128.116 20.94 127.972 20.808C127.828 20.676 127.54 20.562 127.108 20.466V20.034C127.312 19.986 127.546 19.92 127.81 19.836C128.074 19.74 128.332 19.638 128.584 19.53C128.836 19.41 129.07 19.284 129.286 19.152C129.502 19.008 129.67 18.864 129.79 18.72C129.874 18.72 129.952 18.726 130.024 18.738C130.096 18.738 130.174 18.738 130.258 18.738V24.732C130.258 24.912 130.282 25.05 130.33 25.146C130.39 25.23 130.498 25.29 130.654 25.326L131.266 25.524V25.992ZM134.659 17.244H135.055C135.055 17.568 135.055 17.892 135.055 18.216C135.067 18.528 135.073 18.846 135.073 19.17L137.323 19.116V19.962L135.073 20.034V23.274C135.073 23.802 135.139 24.192 135.271 24.444C135.403 24.696 135.679 24.822 136.099 24.822C136.279 24.822 136.477 24.804 136.693 24.768C136.909 24.72 137.143 24.588 137.395 24.372L137.557 24.624C137.473 24.792 137.359 24.972 137.215 25.164C137.071 25.344 136.891 25.512 136.675 25.668C136.471 25.824 136.237 25.956 135.973 26.064C135.709 26.16 135.409 26.208 135.073 26.208C134.401 26.208 133.891 26.04 133.543 25.704C133.207 25.356 133.039 24.768 133.039 23.94V20.07C132.871 20.07 132.709 20.076 132.553 20.088C132.397 20.088 132.235 20.088 132.067 20.088C131.899 20.088 131.809 20.01 131.797 19.854C131.797 19.698 131.881 19.584 132.049 19.512C132.313 19.404 132.553 19.29 132.769 19.17C132.997 19.05 133.183 18.93 133.327 18.81C133.399 18.75 133.495 18.672 133.615 18.576C133.747 18.468 133.879 18.348 134.011 18.216C134.143 18.084 134.263 17.934 134.371 17.766C134.491 17.598 134.587 17.424 134.659 17.244ZM139.066 16.146C139.066 15.798 138.952 15.552 138.724 15.408C138.508 15.252 138.25 15.144 137.95 15.084V14.688C138.07 14.688 138.244 14.67 138.472 14.634C138.712 14.598 138.964 14.556 139.228 14.508C139.504 14.448 139.774 14.382 140.038 14.31C140.302 14.226 140.524 14.136 140.704 14.04H141.136V20.268C141.448 19.824 141.772 19.482 142.108 19.242C142.456 18.99 142.858 18.834 143.314 18.774C143.41 18.762 143.5 18.756 143.584 18.756C143.68 18.744 143.782 18.738 143.89 18.738C144.562 18.738 145.084 18.948 145.456 19.368C145.828 19.776 146.014 20.382 146.014 21.186V24.714C146.014 24.834 146.038 24.954 146.086 25.074C146.134 25.182 146.26 25.272 146.464 25.344L146.968 25.524V25.992C146.584 25.968 146.212 25.95 145.852 25.938C145.504 25.926 145.222 25.92 145.006 25.92C144.802 25.92 144.502 25.926 144.106 25.938C143.71 25.95 143.326 25.968 142.954 25.992V25.524L143.512 25.326C143.68 25.266 143.794 25.182 143.854 25.074C143.914 24.954 143.944 24.792 143.944 24.588V21.402C143.944 21.006 143.866 20.694 143.71 20.466C143.566 20.238 143.272 20.124 142.828 20.124C142.612 20.124 142.408 20.172 142.216 20.268C142.036 20.352 141.874 20.46 141.73 20.592C141.586 20.712 141.46 20.85 141.352 21.006C141.256 21.15 141.184 21.276 141.136 21.384V24.588C141.136 24.72 141.16 24.846 141.208 24.966C141.256 25.074 141.346 25.158 141.478 25.218L142.252 25.524V25.992C142.06 25.968 141.76 25.95 141.352 25.938C140.944 25.926 140.53 25.92 140.11 25.92C139.69 25.92 139.3 25.926 138.94 25.938C138.592 25.95 138.322 25.968 138.13 25.992V25.524L138.688 25.326C138.832 25.266 138.928 25.17 138.976 25.038C139.036 24.906 139.066 24.768 139.066 24.624V16.146ZM151.472 26.208C150.836 26.208 150.284 26.118 149.816 25.938C149.348 25.746 148.952 25.482 148.628 25.146C148.316 24.81 148.082 24.42 147.926 23.976C147.77 23.52 147.692 23.022 147.692 22.482C147.692 21.93 147.77 21.426 147.926 20.97C148.082 20.502 148.316 20.106 148.628 19.782C148.952 19.446 149.36 19.188 149.852 19.008C150.344 18.816 150.932 18.72 151.616 18.72C152.3 18.72 152.882 18.816 153.362 19.008C153.854 19.2 154.256 19.47 154.568 19.818C154.892 20.154 155.126 20.556 155.27 21.024C155.426 21.48 155.504 21.978 155.504 22.518C155.504 23.07 155.408 23.574 155.216 24.03C155.036 24.474 154.772 24.858 154.424 25.182C154.088 25.506 153.668 25.758 153.164 25.938C152.66 26.118 152.096 26.208 151.472 26.208ZM149.96 22.608C149.96 23.508 150.092 24.222 150.356 24.75C150.632 25.266 151.034 25.524 151.562 25.524C152.078 25.524 152.48 25.248 152.768 24.696C153.056 24.144 153.2 23.412 153.2 22.5C153.2 21.588 153.062 20.85 152.786 20.286C152.522 19.71 152.114 19.422 151.562 19.422C151.022 19.422 150.62 19.692 150.356 20.232C150.092 20.76 149.96 21.552 149.96 22.608ZM156.231 19.062H159.471V23.364C159.471 23.94 159.567 24.348 159.759 24.588C159.963 24.828 160.239 24.948 160.587 24.948C160.875 24.948 161.121 24.906 161.325 24.822C161.541 24.726 161.769 24.576 162.009 24.372V20.214C162.009 20.118 162.003 20.034 161.991 19.962C161.979 19.89 161.931 19.83 161.847 19.782C161.775 19.722 161.649 19.674 161.469 19.638C161.289 19.602 161.037 19.566 160.713 19.53V19.062H164.079V24.174C164.079 24.354 164.085 24.504 164.097 24.624C164.109 24.744 164.145 24.84 164.205 24.912C164.277 24.972 164.385 25.014 164.529 25.038C164.685 25.062 164.901 25.08 165.177 25.092C165.177 25.164 165.177 25.242 165.177 25.326C165.189 25.398 165.195 25.47 165.195 25.542L162.009 26.19V24.822C161.805 25.038 161.613 25.236 161.433 25.416C161.253 25.584 161.067 25.728 160.875 25.848C160.683 25.968 160.467 26.058 160.227 26.118C159.999 26.178 159.729 26.208 159.417 26.208C158.673 26.208 158.151 25.986 157.851 25.542C157.551 25.098 157.401 24.51 157.401 23.778V20.196C157.401 20.088 157.389 20.004 157.365 19.944C157.341 19.872 157.287 19.812 157.203 19.764C157.119 19.704 156.999 19.656 156.843 19.62C156.699 19.584 156.495 19.542 156.231 19.494V19.062ZM168.603 17.244H168.999C168.999 17.568 168.999 17.892 168.999 18.216C169.011 18.528 169.017 18.846 169.017 19.17L171.267 19.116V19.962L169.017 20.034V23.274C169.017 23.802 169.083 24.192 169.215 24.444C169.347 24.696 169.623 24.822 170.043 24.822C170.223 24.822 170.421 24.804 170.637 24.768C170.853 24.72 171.087 24.588 171.339 24.372L171.501 24.624C171.417 24.792 171.303 24.972 171.159 25.164C171.015 25.344 170.835 25.512 170.619 25.668C170.415 25.824 170.181 25.956 169.917 26.064C169.653 26.16 169.353 26.208 169.017 26.208C168.345 26.208 167.835 26.04 167.487 25.704C167.151 25.356 166.983 24.768 166.983 23.94V20.07C166.815 20.07 166.653 20.076 166.497 20.088C166.341 20.088 166.179 20.088 166.011 20.088C165.843 20.088 165.753 20.01 165.741 19.854C165.741 19.698 165.825 19.584 165.993 19.512C166.257 19.404 166.497 19.29 166.713 19.17C166.941 19.05 167.127 18.93 167.271 18.81C167.343 18.75 167.439 18.672 167.559 18.576C167.691 18.468 167.823 18.348 167.955 18.216C168.087 18.084 168.207 17.934 168.315 17.766C168.435 17.598 168.531 17.424 168.603 17.244Z" fill="#FF351A"/>
<rect x="1" y="1" width="287" height="63" rx="16" stroke="black" stroke-width="2"/>
</svg>
