<svg width="329" height="54" viewBox="0 0 329 54" fill="none" xmlns="http://www.w3.org/2000/svg">
<path d="M0.96 35.2C3.072 38.704 7.152 40.912 11.28 40.912C17.52 40.912 22.416 36.304 22.416 30.4C22.416 23.68 17.424 20.608 10.416 20.608H9.264V17.536H21.312V11.2H2.256V26.848H10.656C13.776 26.848 15.696 27.808 15.696 30.544C15.696 33.04 13.872 34.672 11.28 34.672C9.744 34.672 7.872 34.192 6.528 32.08L0.96 35.2ZM3.264 35.632L6 34C7.584 35.584 9.6 36.016 11.28 36.016C14.928 36.016 17.472 33.856 17.472 30.544C17.472 27.376 15.6 25.504 11.376 25.504H4.032V12.544H19.536V16.192H7.488V21.952H10.416C16.368 21.952 20.64 24.592 20.64 30.4C20.64 35.536 16.512 39.568 11.28 39.568C8.16 39.568 5.232 38.176 3.264 35.632ZM7.536 13.552H19.104V13.312H7.536V13.552ZM7.536 14.512H19.104V14.272H7.536V14.512ZM7.536 15.472H19.104V15.232H7.536V15.472ZM7.536 22.864H14.208L12.96 22.624H7.536V22.864ZM7.536 23.824H16.656L16.08 23.584H7.536V23.824ZM7.536 24.784H17.952L17.664 24.544H7.536V24.784ZM14.544 25.504L15.168 25.744H18.816L18.576 25.504H14.544ZM16.272 26.464L16.56 26.704H19.344L19.2 26.464H16.272ZM17.232 27.664H19.776L19.68 27.424H17.088L17.232 27.664ZM17.616 28.624H20.064L19.968 28.384H17.568L17.616 28.624ZM17.856 29.584H20.16L20.112 29.344H17.76L17.856 29.584ZM17.904 30.544H20.208V30.304H17.904V30.544ZM17.808 31.504H20.112L20.16 31.264H17.856L17.808 31.504ZM17.616 32.464H19.92L20.016 32.224H17.664L17.616 32.464ZM17.184 33.424H19.632L19.728 33.184H17.28L17.184 33.424ZM16.512 34.384H19.2L19.344 34.144H16.704L16.512 34.384ZM15.456 35.344H18.624L18.816 35.104H15.792L15.456 35.344ZM13.2 36.304H17.904L18.144 36.064H13.968L13.2 36.304ZM10.896 37.264H16.8L17.088 37.024H10.896V37.264ZM10.896 38.224H15.168L15.648 37.984H10.896V38.224ZM10.896 39.088H11.76L13.056 38.944H10.896V39.088ZM24.3184 37.408C24.3184 39.472 25.7104 40.72 27.7744 40.72C29.8384 40.72 31.2304 39.472 31.2304 37.408C31.2304 35.344 29.8384 34.096 27.7744 34.096C25.7104 34.096 24.3184 35.344 24.3184 37.408ZM25.8064 37.408C25.8064 36.064 26.7184 35.296 27.7744 35.296C28.8784 35.296 29.7904 36.064 29.7904 37.408C29.7904 38.752 28.8784 39.52 27.7744 39.52C26.7184 39.52 25.8064 38.752 25.8064 37.408ZM27.1024 36.064H28.4464L28.0624 35.824H27.4864L27.1024 36.064ZM26.4304 37.024H29.1184L29.0224 36.784H26.5264L26.4304 37.024ZM26.4304 38.032H29.1664L29.2624 37.792H26.3344L26.4304 38.032ZM27.1504 38.8L27.4864 39.04H28.0624L28.4464 38.8H27.1504ZM44.4915 40H51.5475V11.2H44.4915V40ZM46.2675 38.656V12.544H49.7715V38.656H46.2675ZM46.7475 13.216H49.2915V12.976H46.7475V13.216ZM46.7475 14.176H49.2915V13.936H46.7475V14.176ZM46.7475 15.136H49.2915V14.896H46.7475V15.136ZM46.7475 16.096H49.2915V15.856H46.7475V16.096ZM46.7475 17.056H49.2915V16.816H46.7475V17.056ZM46.7475 18.016H49.2915V17.776H46.7475V18.016ZM46.7475 18.976H49.2915V18.736H46.7475V18.976ZM46.7475 19.936H49.2915V19.696H46.7475V19.936ZM46.7475 20.896H49.2915V20.656H46.7475V20.896ZM46.7475 21.856H49.2915V21.616H46.7475V21.856ZM46.7475 22.816H49.2915V22.576H46.7475V22.816ZM46.7475 23.776H49.2915V23.536H46.7475V23.776ZM46.7475 24.736H49.2915V24.496H46.7475V24.736ZM46.7475 25.696H49.2915V25.456H46.7475V25.696ZM46.7475 26.656H49.2915V26.416H46.7475V26.656ZM56.1634 40H63.2194V27.088L69.5074 40.96H70.6594L76.9474 27.184V40H83.9554V11.2H77.4754L70.0834 26.752L62.7394 11.2H56.1634V40ZM57.9394 38.656V12.544H61.5394L69.4114 29.392H70.7554L78.6754 12.544H82.1794V38.656H78.7234V21.136H78.0514L70.0834 38.032L62.2594 21.136H61.4434V38.656H57.9394ZM79.2034 13.312H81.6994V13.072H79.2034V13.312ZM58.8034 13.312H61.2994L61.2034 13.072H58.6594L58.8034 13.312ZM79.2034 14.272H81.6994V14.032H79.2034V14.272ZM59.2834 14.272H61.7314L61.6354 14.032H59.1394L59.2834 14.272ZM79.2034 15.232H81.6994V14.992H79.2034V15.232ZM59.7634 15.232H62.2114L62.1154 14.992H59.6194L59.7634 15.232ZM79.2034 16.192H81.6994V15.952H79.2034V16.192ZM60.2434 16.192H62.6434L62.5474 15.952H60.0994L60.2434 16.192ZM79.2034 17.152H81.6994V16.912H79.2034V17.152ZM60.7234 17.152H63.1234L63.0274 16.912H60.5794L60.7234 17.152ZM79.2034 18.112H81.6994V17.872H79.2034V18.112ZM61.2514 18.112H63.5554L63.4594 17.872H61.1074L61.2514 18.112ZM79.2034 19.072H81.6994V18.832H79.2034V19.072ZM61.7314 19.072H63.9874L63.8914 18.832H61.5874L61.7314 19.072ZM79.2034 20.032H81.6994V19.792H79.2034V20.032ZM62.2114 20.032H64.4194L64.3234 19.792H62.0674L62.2114 20.032ZM79.2034 20.992H81.6994V20.752H79.2034V20.992ZM62.6914 20.992H64.8994L64.7554 20.752H62.5474L62.6914 20.992ZM79.2034 21.952H81.6994V21.712H79.2034V21.952ZM63.1714 21.952H65.3314L65.2354 21.712H63.0274L63.1714 21.952ZM79.2034 22.912H81.6994V22.672H79.2034V22.912ZM63.6514 22.912H65.8114L65.6674 22.672H63.5074L63.6514 22.912ZM79.2034 23.872H81.6994V23.632H79.2034V23.872ZM64.0834 23.872H66.2434L66.1474 23.632H63.9394L64.0834 23.872ZM79.2034 24.832H81.6994V24.592H79.2034V24.832ZM64.5154 24.832H66.6754L66.5794 24.592H64.3714L64.5154 24.832ZM79.2034 25.792H81.6994V25.552H79.2034V25.792ZM64.9474 25.792H67.1074L67.0114 25.552H64.8034L64.9474 25.792ZM79.2034 26.752H81.6994V26.512H79.2034V26.752ZM65.4274 26.752H67.5874L67.4914 26.512H65.2834L65.4274 26.752ZM79.2034 27.712H81.6994V27.472H79.2034V27.712ZM65.8594 27.712H68.0194L67.9234 27.472H65.7154L65.8594 27.712ZM79.2034 28.672H81.6994V28.432H79.2034V28.672ZM66.2914 28.672H68.4994L68.4034 28.432H66.1474L66.2914 28.672ZM79.2034 29.632H81.6994V29.392H79.2034V29.632ZM66.7714 29.632H68.9314L68.7874 29.392H66.6274L66.7714 29.632ZM79.2034 30.592H81.6994V30.352H79.2034V30.592ZM67.2034 30.592H69.4114L69.2674 30.352H67.0594L67.2034 30.592ZM79.2034 31.552H81.6994V31.312H79.2034V31.552ZM67.6354 31.552H69.8914L69.7474 31.312H67.4914L67.6354 31.552ZM79.2034 32.512H81.6994V32.272H79.2034V32.512ZM67.9234 32.272L68.0674 32.512H70.3714L70.2274 32.272H67.9234ZM79.2034 33.472H81.6994V33.232H79.2034V33.472ZM68.3554 33.232L68.4994 33.472H70.8514L70.7074 33.232H68.3554ZM79.2034 34.432H81.6994V34.192H79.2034V34.432ZM68.8354 34.192L68.9794 34.48H71.1874L71.2834 34.336L71.1394 34.192H68.8354ZM79.2034 35.392H81.6994V35.152H79.2034V35.392ZM69.2674 35.152L69.4114 35.392H70.7554L70.8994 35.152H69.2674ZM79.2034 36.352H81.6994V36.112H79.2034V36.352ZM69.6994 36.112L69.8434 36.352H70.3234L70.4674 36.112H69.6994ZM69.8914 36.976L70.0834 37.216L70.2754 36.976H69.8914ZM79.2034 37.312H81.6994V37.072H79.2034V37.312ZM79.2034 38.224H81.6994V38.032H79.2034V38.224ZM88.554 40H95.562V29.632H100.602C105.93 29.632 109.962 25.792 109.962 20.416C109.962 15.568 106.506 11.2 100.602 11.2H88.554V40ZM90.33 38.656V12.544H100.698C105.498 12.544 108.186 16.144 108.186 20.272C108.186 24.88 105.066 28.288 100.698 28.288H93.786V38.656H90.33ZM93.834 13.312H102.714C102.234 13.216 101.562 13.12 101.034 13.072H93.834V13.312ZM93.834 14.272H104.682L104.346 14.032H93.834V14.272ZM93.834 15.232H105.834L105.594 14.992H93.834V15.232ZM93.786 24.928H100.122C102.858 24.928 104.394 22.96 104.394 20.32C104.394 17.872 102.858 15.76 100.122 15.76H93.786V24.928ZM103.098 16.192H106.602L106.41 15.952H102.762L103.098 16.192ZM103.914 17.152H107.034L106.938 16.912H103.77L103.914 17.152ZM95.562 23.584V17.2H99.93C101.802 17.2 102.762 18.64 102.762 20.224C102.762 21.904 101.754 23.584 99.93 23.584H95.562ZM104.49 18.112H107.418L107.322 17.872H104.346L104.49 18.112ZM104.778 19.072H107.562V18.832H104.682L104.778 19.072ZM104.874 20.032H107.658V19.792H104.874V20.032ZM104.826 20.992H107.658V20.896L107.706 20.752H104.874L104.826 20.992ZM104.682 21.952H107.514L107.61 21.712H104.73L104.682 21.952ZM104.298 22.912H107.274L107.37 22.672H104.442L104.298 22.912ZM103.674 23.872H106.89L107.034 23.632H103.866L103.674 23.872ZM102.474 24.832H106.314L106.506 24.592H102.858L102.474 24.832ZM93.834 25.792H105.594L105.834 25.552H93.834V25.792ZM93.834 26.752H104.298L104.73 26.512H93.834V26.752ZM93.834 27.712H101.61C101.994 27.664 102.474 27.568 102.858 27.472H93.834V27.712ZM114.476 40H134.06V33.952H121.532V11.2H114.476V40ZM116.252 38.656V12.544H119.756V35.296H132.284V38.656H116.252ZM118.844 36.16H131.804V35.92H119.132L118.844 36.16ZM117.884 37.12H131.804V36.88H118.124L117.884 37.12ZM116.876 38.08H131.804V37.84H117.116L116.876 38.08ZM137.445 40H144.501V11.2H137.445V40ZM139.221 38.656V12.544H142.725V38.656H139.221ZM139.701 13.216H142.245V12.976H139.701V13.216ZM139.701 14.176H142.245V13.936H139.701V14.176ZM139.701 15.136H142.245V14.896H139.701V15.136ZM139.701 16.096H142.245V15.856H139.701V16.096ZM139.701 17.056H142.245V16.816H139.701V17.056ZM139.701 18.016H142.245V17.776H139.701V18.016ZM139.701 18.976H142.245V18.736H139.701V18.976ZM139.701 19.936H142.245V19.696H139.701V19.936ZM139.701 20.896H142.245V20.656H139.701V20.896ZM139.701 21.856H142.245V21.616H139.701V21.856ZM139.701 22.816H142.245V22.576H139.701V22.816ZM139.701 23.776H142.245V23.536H139.701V23.776ZM139.701 24.736H142.245V24.496H139.701V24.736ZM139.701 25.696H142.245V25.456H139.701V25.696ZM139.701 26.656H142.245V26.416H139.701V26.656ZM149.405 25.6C149.405 34.192 155.885 40.96 165.005 40.96C170.333 40.96 174.317 38.704 177.197 35.68L172.493 31.072C170.477 33.04 167.885 34.288 165.005 34.288C159.869 34.288 156.557 30.448 156.557 25.6C156.557 20.752 159.869 16.912 165.005 16.912C167.885 16.912 170.477 18.16 172.493 20.128L177.341 15.52C174.269 12.304 170.477 10.24 165.005 10.24C155.885 10.24 149.405 17.008 149.405 25.6ZM151.181 25.6C151.181 17.776 156.989 11.584 165.005 11.584C169.325 11.584 172.637 12.928 175.181 15.52L172.445 18.16C170.381 16.576 167.741 15.568 165.005 15.568C158.812 15.568 154.733 19.984 154.733 25.6C154.733 31.216 158.812 35.632 165.005 35.632C167.885 35.632 170.621 34.528 172.349 32.992L175.085 35.776C172.397 38.272 169.229 39.616 165.005 39.616C156.989 39.616 151.181 33.424 151.181 25.6ZM162.557 12.304H165.005V12.112C163.613 12.112 163.373 12.16 162.557 12.304ZM159.389 13.264H165.005V13.024H160.013L159.389 13.264ZM157.661 14.224H165.005V13.984H158.045L157.661 14.224ZM156.269 15.184H163.133L165.005 15.04V14.944H156.653L156.269 15.184ZM155.309 16.144H159.965L160.589 15.904H155.549L155.309 16.144ZM154.445 17.104H158.333L158.669 16.864H154.637L154.445 17.104ZM153.773 18.064H157.229L157.517 17.824H153.965L153.773 18.064ZM153.197 19.024H156.413L156.605 18.784H153.341L153.197 19.024ZM152.765 19.984H155.693L155.885 19.744H152.861L152.765 19.984ZM152.429 20.944H155.213L155.357 20.704H152.477L152.429 20.944ZM152.141 21.904H154.829L154.925 21.664H152.189L152.141 21.904ZM151.901 22.864H154.541L154.637 22.624H151.949L151.901 22.864ZM151.757 23.824H154.349L154.445 23.584H151.805L151.757 23.824ZM151.661 24.784H154.253L154.301 24.544H151.709L151.661 24.784ZM151.661 25.744H154.253V25.504H151.661V25.744ZM151.709 26.704H154.301L154.253 26.464H151.661L151.709 26.704ZM151.805 27.664H154.445L154.349 27.424H151.757L151.805 27.664ZM151.997 28.624H154.637L154.541 28.384H151.901L151.997 28.624ZM152.189 29.584H154.925L154.829 29.344H152.141L152.189 29.584ZM152.477 30.544H155.357L155.213 30.304H152.429L152.477 30.544ZM152.909 31.504H155.933L155.741 31.264H152.765L152.909 31.504ZM153.389 32.464H156.653L156.413 32.224H153.245L153.389 32.464ZM153.965 33.424H157.517L157.277 33.184H153.821L153.965 33.424ZM154.685 34.384H158.669L158.381 34.144H154.541L154.685 34.384ZM155.357 35.104L155.597 35.344H160.541L160.061 35.104H155.357ZM156.461 36.064L156.749 36.304H165.005V36.16C164.573 36.112 163.901 36.064 163.421 36.064H156.461ZM157.805 37.024L158.141 37.264H165.005V37.024H157.805ZM159.484 37.984L160.109 38.224H165.005V37.984H159.484ZM162.749 38.944L164.909 39.088H165.005V38.944H162.749ZM178.284 40H185.868L187.26 37.024H198.636L200.076 40H207.66L193.548 10.24H192.3L178.284 40ZM180.78 38.656L192.924 12.832L205.164 38.656H201.276L193.308 21.28H192.636L184.572 38.656H180.78ZM192.828 14.08H193.02L192.924 13.888L192.828 14.08ZM192.444 14.944H193.356L193.212 14.704H192.54L192.444 14.944ZM191.964 15.904H193.788L193.692 15.664H192.108L191.964 15.904ZM191.532 16.864H194.268L194.124 16.624H191.628L191.532 16.864ZM191.052 17.824H194.7L194.604 17.584H191.196L191.052 17.824ZM190.62 18.784H195.18L195.036 18.544H190.716L190.62 18.784ZM190.188 19.744H195.612L195.516 19.504H190.284L190.188 19.744ZM189.708 20.704H196.092L195.948 20.464H189.852L189.708 20.704ZM194.076 21.664H196.524L196.428 21.424H193.932L194.076 21.664ZM189.276 21.664H191.82L191.964 21.424H189.372L189.276 21.664ZM194.508 22.624H197.004L196.86 22.384H194.364L194.508 22.624ZM188.796 22.624H191.388L191.532 22.384H188.94L188.796 22.624ZM194.94 23.584H197.436L197.34 23.344H194.796L194.94 23.584ZM188.364 23.584H190.908L191.052 23.344H188.46L188.364 23.584ZM195.372 24.544H197.916L197.772 24.304H195.228L195.372 24.544ZM187.884 24.544H190.476L190.62 24.304H188.028L187.884 24.544ZM189.516 31.936L192.828 24.688H192.924L196.188 31.936H189.516ZM195.804 25.504H198.348L198.252 25.264H195.66L195.804 25.504ZM187.452 25.504H189.996L190.14 25.264H187.548L187.452 25.504ZM196.236 26.464H198.828L198.684 26.224H196.092L196.236 26.464ZM186.972 26.464H189.564L189.708 26.224H187.116L186.972 26.464ZM196.668 27.424H199.26L199.164 27.184H196.524L196.668 27.424ZM186.54 27.424H189.084L189.228 27.184H186.636L186.54 27.424ZM197.1 28.384H199.74L199.596 28.144H196.956L197.1 28.384ZM186.108 28.384H188.652L188.796 28.144H186.204L186.108 28.384ZM197.388 29.104L197.532 29.344H200.172L200.076 29.104H197.388ZM185.628 29.344H188.22L188.364 29.104H185.772L185.628 29.344ZM197.772 30.064L197.916 30.304H200.652L200.508 30.064H197.772ZM185.196 30.304H187.74L187.884 30.064H185.292L185.196 30.304ZM198.204 31.024L198.348 31.264H201.084L200.988 31.024H198.204ZM184.716 31.264H187.308L187.452 31.024H184.86L184.716 31.264ZM198.636 31.984L198.78 32.224H201.564L201.42 31.984H198.636ZM184.284 32.224H186.876L187.02 31.984H184.38L184.284 32.224ZM199.02 32.944L199.164 33.184H201.996L201.9 32.944H199.02ZM183.804 33.184H186.444L186.588 32.944H183.948L183.804 33.184ZM187.788 35.728L188.844 33.328H196.956L198.06 35.728H187.788ZM189.276 34.144H196.476L196.332 33.904H189.372L189.276 34.144ZM188.844 35.104H196.812L196.716 34.864H188.94L188.844 35.104ZM211.534 40H218.59V17.44H225.118V11.2H205.054V17.44H211.534V40ZM213.31 38.656V16.096H206.83V12.544H223.342V16.096H216.814V38.656H213.31ZM207.31 13.504H222.862V13.264H207.31V13.504ZM207.31 14.464H222.862V14.224H207.31V14.464ZM207.31 15.424H222.862V15.184H207.31V15.424ZM228.382 40H235.438V11.2H228.382V40ZM230.158 38.656V12.544H233.662V38.656H230.158ZM230.638 13.216H233.182V12.976H230.638V13.216ZM230.638 14.176H233.182V13.936H230.638V14.176ZM230.638 15.136H233.182V14.896H230.638V15.136ZM230.638 16.096H233.182V15.856H230.638V16.096ZM230.638 17.056H233.182V16.816H230.638V17.056ZM230.638 18.016H233.182V17.776H230.638V18.016ZM230.638 18.976H233.182V18.736H230.638V18.976ZM230.638 19.936H233.182V19.696H230.638V19.936ZM230.638 20.896H233.182V20.656H230.638V20.896ZM230.638 21.856H233.182V21.616H230.638V21.856ZM230.638 22.816H233.182V22.576H230.638V22.816ZM230.638 23.776H233.182V23.536H230.638V23.776ZM230.638 24.736H233.182V24.496H230.638V24.736ZM230.638 25.696H233.182V25.456H230.638V25.696ZM230.638 26.656H233.182V26.416H230.638V26.656ZM240.342 25.6C240.342 34.192 246.726 40.96 255.846 40.96C264.918 40.96 271.35 34.192 271.35 25.6C271.35 17.008 264.918 10.24 255.846 10.24C246.726 10.24 240.342 17.008 240.342 25.6ZM242.118 25.6C242.118 17.776 247.83 11.584 255.846 11.584C263.814 11.584 269.574 17.776 269.574 25.6C269.574 33.424 263.814 39.52 255.846 39.52C247.83 39.52 242.118 33.424 242.118 25.6ZM253.494 12.304H258.39L255.846 12.112L253.494 12.304ZM250.326 13.264H261.366L260.742 13.024H250.95L250.326 13.264ZM248.598 14.224H262.998L262.71 13.984H248.982L248.598 14.224ZM247.206 15.184H254.07L255.846 15.04L257.766 15.184H264.39L264.15 14.944H247.59L247.206 15.184ZM245.67 25.6C245.67 31.216 249.654 35.776 255.846 35.776C261.99 35.776 266.022 31.216 266.022 25.6C266.022 19.984 261.99 15.568 255.846 15.568C249.654 15.568 245.67 19.984 245.67 25.6ZM260.262 15.904L260.79 16.144H265.446L265.158 15.856L265.206 15.904H260.262ZM246.246 16.144H250.902L251.526 15.904H246.486L246.246 16.144ZM262.086 16.864L262.422 17.104H266.262L266.022 16.864H262.086ZM245.382 17.104H249.27L249.606 16.864H245.574L245.382 17.104ZM247.494 25.6C247.494 20.752 250.71 16.912 255.846 16.912C260.934 16.912 264.198 20.752 264.198 25.6C264.198 30.448 260.934 34.288 255.846 34.288C250.71 34.288 247.494 30.448 247.494 25.6ZM263.238 17.824L263.526 18.064H266.934L266.742 17.824H263.238ZM244.71 18.064H248.166L248.454 17.824H244.902L244.71 18.064ZM264.102 18.784L264.342 19.024H267.462L267.318 18.784H264.102ZM244.134 19.024H247.35L247.542 18.784H244.278L244.134 19.024ZM264.966 19.984H267.894L267.798 19.744H264.822L264.966 19.984ZM243.702 19.984H246.63L246.822 19.744H243.798L243.702 19.984ZM265.494 20.944H268.278L268.182 20.704H265.35L265.494 20.944ZM243.366 20.944H246.15L246.294 20.704H243.414L243.366 20.944ZM265.926 21.904H268.614L268.518 21.664H265.782L265.926 21.904ZM243.078 21.904H245.766L245.862 21.664H243.126L243.078 21.904ZM266.166 22.864H268.854L268.758 22.624H266.07L266.166 22.864ZM242.838 22.864H245.478L245.574 22.624H242.886L242.838 22.864ZM266.358 23.824H268.998L268.95 23.584H266.31L266.358 23.824ZM242.694 23.824H245.286L245.382 23.584H242.742L242.694 23.824ZM266.454 24.784H269.046V24.544H266.454V24.784ZM242.598 24.784H245.19L245.238 24.544H242.646L242.598 24.784ZM266.502 25.744H269.094V25.504H266.502V25.744ZM242.598 25.744H245.19V25.504H242.598V25.744ZM266.406 26.704H269.046V26.464H266.454L266.406 26.704ZM242.646 26.704H245.238L245.19 26.464H242.598L242.646 26.704ZM266.31 27.664H268.902L268.998 27.424H266.358L266.31 27.664ZM242.742 27.664H245.382L245.286 27.424H242.694L242.742 27.664ZM266.07 28.624H268.758L268.806 28.384H266.166L266.07 28.624ZM242.934 28.624H245.574L245.478 28.384H242.838L242.934 28.624ZM276.242 40H283.298V22.912L294.53 40H301.874V11.2H294.866V28.288L283.682 11.2H276.242V40ZM278.018 38.656V12.544H282.578L295.778 32.608H296.642V12.544H300.098V38.656H295.634L282.242 18.352H281.522V38.656H278.018ZM279.41 13.312H282.482L282.29 13.072H279.266L279.41 13.312ZM280.082 14.272H283.106L282.914 14.032H279.938L280.082 14.272ZM280.706 15.232H283.73L283.538 14.992H280.562L280.706 15.232ZM281.378 16.192H284.354L284.162 15.952H281.234L281.378 16.192ZM282.002 17.152H284.978L284.786 16.912H281.858L282.002 17.152ZM282.674 18.112H285.602L285.41 17.872H282.53L282.674 18.112ZM283.298 19.072H286.273L286.082 18.832H283.154L283.298 19.072ZM283.922 20.032H286.898L286.706 19.792H283.778L283.922 20.032ZM284.594 20.992H287.522L287.33 20.752H284.45L284.594 20.992ZM285.218 21.952H288.146L287.954 21.712H285.074L285.218 21.952ZM285.842 22.912H288.77L288.578 22.672H285.698L285.842 22.912ZM286.466 23.872H289.442L289.25 23.632H286.322L286.466 23.872ZM287.09 24.832H290.066L289.874 24.592H286.946L287.09 24.832ZM287.714 25.792H290.69L290.498 25.552H287.57L287.714 25.792ZM288.386 26.752H291.314L291.122 26.512H288.242L288.386 26.752ZM289.01 27.712H291.938L291.746 27.472H288.866L289.01 27.712ZM289.634 28.672H292.562L292.37 28.432H289.49L289.634 28.672ZM290.258 29.632H293.234L293.042 29.392H290.114L290.258 29.632ZM290.738 30.352L290.882 30.592H293.858L293.666 30.352H290.738ZM291.41 31.312L291.554 31.552H294.482L294.29 31.312H291.41ZM292.034 32.272L292.178 32.512H295.106L294.914 32.272H292.034ZM292.658 33.232L292.802 33.472H295.826L295.634 33.232H292.658ZM293.282 34.192L293.426 34.432H296.546L296.306 34.192H293.282ZM293.906 35.152L294.05 35.392H297.266L297.026 35.152H293.906ZM294.53 36.112L294.674 36.352H297.938L297.746 36.112H294.53ZM295.202 37.072L295.346 37.312H298.706L298.466 37.072H295.202ZM295.73 37.936L295.874 38.176H299.378L299.138 37.936H295.73ZM306.332 31.552C306.332 36.736 309.884 40.96 316.172 40.96C321.596 40.96 325.916 36.736 325.916 31.648C325.916 27.136 323.516 24.256 318.38 22.72C315.932 22 313.292 21.616 313.292 19.456C313.292 17.584 314.78 16.672 316.316 16.672C318.284 16.672 319.292 18.016 319.292 19.648H325.916C325.532 14.32 322.508 10.24 316.124 10.24C310.7 10.24 306.332 14.464 306.332 19.552C306.332 24.496 309.02 26.752 313.868 28.48C316.22 29.296 319.052 29.92 319.052 32.08C319.052 33.568 317.948 34.576 316.172 34.576C314.54 34.576 313.196 33.232 313.196 31.552H306.332ZM308.012 32.896H311.756C312.188 34.48 313.724 35.872 316.172 35.92C318.428 35.92 320.636 34.624 320.636 32.08C320.636 28.96 317.324 28.24 314.588 27.232C309.308 25.36 307.964 23.104 307.964 19.552C307.964 15.184 311.708 11.584 316.172 11.584C321.788 11.584 323.9 15.472 324.188 18.304H320.588C320.156 17.104 319.148 15.328 316.172 15.328C313.58 15.328 311.708 16.96 311.708 19.456C311.708 22.288 314.156 22.96 316.988 23.776C321.404 25.024 324.284 26.8 324.284 31.648C324.284 36.016 320.636 39.616 316.172 39.616C311.612 39.616 308.108 36.496 308.012 32.896ZM314.012 12.4H316.172V12.16H315.164L314.012 12.4ZM311.948 13.36H316.172V13.12H312.332L311.948 13.36ZM310.604 14.368H316.172V14.128H310.892L310.604 14.368ZM309.788 15.328H313.676L314.204 15.088H309.98L309.788 15.328ZM309.212 16.336H312.332L312.668 16.048H309.356L309.212 16.336ZM308.828 17.296H311.66L311.804 17.056H308.876L308.828 17.296ZM308.54 18.304H311.324L311.42 18.016H308.636L308.54 18.304ZM308.444 19.264H311.228V19.024H308.444V19.264ZM308.444 20.224H311.276L311.228 19.984H308.444V20.224ZM308.588 21.232H311.516L311.42 20.992H308.54L308.588 21.232ZM308.828 22.192H312.236L311.948 21.904L311.996 21.952H308.78L308.828 22.192ZM309.404 23.2H313.532L313.148 22.96H309.26L309.404 23.2ZM310.268 24.16H316.46L315.548 23.92H310.028L310.268 24.16ZM311.66 25.168H319.388L318.668 24.88H311.132L311.66 25.168ZM313.004 25.888L313.388 26.128H321.02L320.732 25.888H313.004ZM314.972 26.848L315.692 27.136H322.268L322.028 26.848H314.972ZM317.756 27.856L318.284 28.096H322.94L322.844 27.856H317.756ZM319.58 28.816L319.868 29.056H323.372L323.276 28.816H319.58ZM320.588 30.064H323.708L323.612 29.824H320.444L320.588 30.064ZM320.972 31.024H323.756V30.784H320.924L320.972 31.024ZM321.116 32.032H323.756L323.804 31.792H321.116V32.032ZM321.02 32.992H323.66L323.708 32.752H321.068L321.02 32.992ZM320.684 34H323.372L323.468 33.712H320.828L320.684 34ZM319.964 34.96H322.892L323.036 34.72H320.204L319.964 34.96ZM318.524 35.968H322.316L322.364 35.872L322.508 35.68H319.1L318.524 35.968ZM316.172 36.928H321.404L321.644 36.688H316.172V36.928ZM316.172 37.888H320.156L320.492 37.648H316.172V37.888ZM316.172 38.896H317.708L318.62 38.656H316.172V38.896Z" fill="black"/>
</svg>
