<svg width="211" height="65" viewBox="0 0 211 65" fill="none" xmlns="http://www.w3.org/2000/svg">
<rect x="1" y="1" width="209" height="63" rx="16" fill="black" stroke="black" stroke-width="2"/>
<path d="M69.834 33.5244L68.8672 36.8467C68.7324 37.3154 68.665 37.6465 68.665 37.8398C68.665 38.1094 68.7529 38.3145 68.9287 38.4551C69.1045 38.5898 69.5029 38.6631 70.124 38.6748L70.0098 39H64.1914L64.2881 38.6748C64.7803 38.6689 65.1289 38.6221 65.334 38.5342C65.5391 38.4404 65.709 38.291 65.8438 38.0859C65.9434 37.9512 66.0928 37.5381 66.292 36.8467L68.498 29.2793C68.6504 28.7754 68.7266 28.415 68.7266 28.1982C68.7266 27.9814 68.6299 27.7998 68.4365 27.6533C68.2432 27.501 67.8916 27.4189 67.3818 27.4072L67.4785 27.082H72.1982C73.4932 27.082 74.4248 27.2461 74.9932 27.5742C75.8721 28.0898 76.3115 28.8633 76.3115 29.8945C76.3115 30.8906 75.8721 31.7695 74.9932 32.5312C74.1201 33.2871 72.9424 33.665 71.46 33.665C71.0146 33.665 70.4727 33.6182 69.834 33.5244ZM70.0098 32.8477C70.3906 32.8945 70.707 32.918 70.959 32.918C71.7676 32.918 72.4033 32.5488 72.8662 31.8105C73.3291 31.0723 73.5605 30.3018 73.5605 29.499C73.5605 28.9541 73.4111 28.5322 73.1123 28.2334C72.8135 27.9287 72.4004 27.7764 71.873 27.7764C71.7617 27.7764 71.624 27.7822 71.46 27.7939L70.0098 32.8477ZM81.6465 26.8096L79.3613 34.7285C80.1523 33.5625 80.7266 32.7744 81.084 32.3643C81.6172 31.7725 82.0742 31.374 82.4551 31.1689C82.8418 30.958 83.2109 30.8525 83.5625 30.8525C83.8613 30.8525 84.1162 30.9668 84.3271 31.1953C84.5439 31.418 84.6523 31.7168 84.6523 32.0918C84.6523 32.4082 84.582 32.8037 84.4414 33.2783L83.3252 37.0225C83.2256 37.3506 83.1758 37.5703 83.1758 37.6816C83.1758 37.7344 83.1963 37.7842 83.2373 37.8311C83.2783 37.8721 83.3252 37.8926 83.3779 37.8926C83.4482 37.8926 83.5186 37.8633 83.5889 37.8047C83.7764 37.6582 83.9756 37.4238 84.1865 37.1016C84.2393 37.0195 84.3242 36.8965 84.4414 36.7324L84.7842 36.9258C84.2803 37.7578 83.8027 38.3291 83.3516 38.6396C82.9004 38.9502 82.4727 39.1055 82.0684 39.1055C81.7051 39.1055 81.4209 39.0117 81.2158 38.8242C81.0107 38.6367 80.9082 38.4023 80.9082 38.1211C80.9082 37.8633 80.9785 37.4971 81.1191 37.0225L82.209 33.2783C82.2793 33.0205 82.3145 32.833 82.3145 32.7158C82.3145 32.6514 82.2881 32.5957 82.2354 32.5488C82.1885 32.4961 82.1328 32.4697 82.0684 32.4697C81.8574 32.4697 81.5674 32.6455 81.1982 32.9971C80.4365 33.7178 79.6748 34.8486 78.9131 36.3896L78.1309 39H75.9512L78.834 29.0684C78.9512 28.6465 79.0098 28.3447 79.0098 28.1631C79.0098 28.0166 78.9512 27.9023 78.834 27.8203C78.6816 27.709 78.4473 27.6621 78.1309 27.6797L78.1924 27.3281L81.1191 26.8096H81.6465ZM86.208 31.6436L88.915 30.8525C89.1318 31.1221 89.2842 31.377 89.3721 31.6172C89.5303 32.0332 89.6416 32.6074 89.7061 33.3398C89.8291 34.7812 89.9141 36.3193 89.9609 37.9541C90.5879 37.1279 91.3057 36.0352 92.1143 34.6758C92.3604 34.2656 92.4834 33.8789 92.4834 33.5156C92.4834 33.2871 92.3398 33.0703 92.0527 32.8652C91.7715 32.6602 91.5957 32.502 91.5254 32.3906C91.4551 32.2734 91.4199 32.124 91.4199 31.9424C91.4199 31.6494 91.5254 31.3945 91.7363 31.1777C91.9531 30.9609 92.2139 30.8525 92.5186 30.8525C92.8408 30.8525 93.1191 30.9756 93.3535 31.2217C93.5938 31.4678 93.7139 31.7578 93.7139 32.0918C93.7139 32.4844 93.6025 32.9414 93.3799 33.4629C93.1631 33.9785 92.6504 34.8662 91.8418 36.126C90.8047 37.7373 89.7881 39.1318 88.792 40.3096C88.1533 41.0596 87.6377 41.5986 87.2451 41.9268C86.8525 42.2607 86.4453 42.5244 86.0234 42.7178C85.7715 42.8291 85.5225 42.8848 85.2764 42.8848C84.9424 42.8848 84.6582 42.7676 84.4238 42.5332C84.1836 42.2988 84.0635 42.0205 84.0635 41.6982C84.0635 41.376 84.1719 41.1035 84.3887 40.8809C84.5996 40.6582 84.8486 40.5469 85.1357 40.5469C85.4932 40.5469 85.8213 40.7344 86.1201 41.1094C86.3193 41.3613 86.4834 41.4873 86.6123 41.4873C86.7471 41.4873 86.8789 41.4492 87.0078 41.373C87.1836 41.2793 87.4297 41.0625 87.7461 40.7227C87.7812 39.9902 87.7988 39.4365 87.7988 39.0615C87.7988 38.5576 87.7754 37.8486 87.7285 36.9346L87.5791 33.5859C87.5264 32.9707 87.3945 32.5283 87.1836 32.2588C87.0195 32.0596 86.8057 31.96 86.542 31.96C86.4424 31.96 86.3311 31.9688 86.208 31.9863V31.6436ZM100.446 30.8525L100.06 33.5684H99.7344C99.6875 32.8652 99.4707 32.3115 99.084 31.9072C98.7031 31.5029 98.293 31.3008 97.8535 31.3008C97.584 31.3008 97.3613 31.3799 97.1855 31.5381C97.0098 31.6963 96.9219 31.8867 96.9219 32.1094C96.9219 32.2969 96.96 32.4727 97.0361 32.6367C97.1123 32.8008 97.2822 33.0234 97.5459 33.3047C98.4717 34.3008 99.0342 34.9863 99.2334 35.3613C99.4326 35.7363 99.5322 36.1377 99.5322 36.5654C99.5322 37.0283 99.415 37.4678 99.1807 37.8838C98.9463 38.2939 98.5947 38.625 98.126 38.877C97.6631 39.123 97.1797 39.2461 96.6758 39.2461C96.3359 39.2461 95.917 39.1787 95.4189 39.0439C95.0908 38.9502 94.8447 38.9033 94.6807 38.9033C94.5342 38.9033 94.4199 38.9268 94.3379 38.9736C94.2559 39.0146 94.165 39.1055 94.0654 39.2461H93.7402L94.1709 36.3193H94.4521C94.6572 37.0283 94.8477 37.5352 95.0234 37.8398C95.2051 38.1387 95.4453 38.3789 95.7441 38.5605C96.043 38.7363 96.3301 38.8242 96.6055 38.8242C96.9277 38.8242 97.1943 38.7246 97.4053 38.5254C97.6162 38.3203 97.7217 38.0771 97.7217 37.7959C97.7217 37.5205 97.6514 37.2539 97.5107 36.9961C97.376 36.7383 97.0596 36.3369 96.5615 35.792C95.876 35.0479 95.4248 34.4736 95.208 34.0693C95.0557 33.7764 94.9795 33.4424 94.9795 33.0674C94.9795 32.4346 95.208 31.9072 95.665 31.4854C96.1279 31.0635 96.7754 30.8525 97.6074 30.8525C97.9707 30.8525 98.416 30.917 98.9434 31.0459C99.207 31.1104 99.418 31.1426 99.5762 31.1426C99.8047 31.1426 99.9893 31.0459 100.13 30.8525H100.446ZM104.806 26.8096C105.169 26.8096 105.474 26.9355 105.72 27.1875C105.972 27.4395 106.098 27.7441 106.098 28.1016C106.098 28.459 105.972 28.7637 105.72 29.0156C105.468 29.2676 105.163 29.3936 104.806 29.3936C104.454 29.3936 104.152 29.2676 103.9 29.0156C103.648 28.7637 103.522 28.459 103.522 28.1016C103.522 27.7441 103.646 27.4395 103.892 27.1875C104.144 26.9355 104.448 26.8096 104.806 26.8096ZM105.351 30.8525L103.549 37.1016C103.449 37.459 103.399 37.6934 103.399 37.8047C103.399 37.8691 103.426 37.9307 103.479 37.9893C103.531 38.042 103.587 38.0684 103.646 38.0684C103.745 38.0684 103.845 38.0244 103.944 37.9365C104.208 37.7197 104.524 37.3271 104.894 36.7588L105.192 36.9346C104.308 38.4756 103.367 39.2461 102.371 39.2461C101.99 39.2461 101.686 39.1406 101.457 38.9297C101.234 38.7129 101.123 38.4404 101.123 38.1123C101.123 37.8955 101.173 37.6201 101.272 37.2861L102.494 33.085C102.611 32.6807 102.67 32.376 102.67 32.1709C102.67 32.042 102.614 31.9277 102.503 31.8281C102.392 31.7285 102.239 31.6787 102.046 31.6787C101.958 31.6787 101.853 31.6816 101.729 31.6875L101.844 31.3359L104.823 30.8525H105.351ZM112.531 36.8818L112.795 37.1191C112.227 37.7988 111.667 38.2969 111.116 38.6133C110.384 39.0352 109.625 39.2461 108.84 39.2461C108.312 39.2461 107.844 39.1348 107.434 38.9121C107.029 38.6836 106.73 38.3672 106.537 37.9629C106.344 37.5527 106.247 37.1338 106.247 36.7061C106.247 35.7451 106.508 34.8018 107.029 33.876C107.551 32.9443 108.239 32.209 109.095 31.6699C109.95 31.125 110.791 30.8525 111.617 30.8525C112.279 30.8525 112.777 30.999 113.111 31.292C113.445 31.585 113.612 31.9482 113.612 32.3818C113.612 32.7744 113.486 33.1084 113.234 33.3838C112.982 33.6592 112.701 33.7969 112.391 33.7969C112.121 33.7969 111.896 33.709 111.714 33.5332C111.538 33.3574 111.45 33.1494 111.45 32.9092C111.45 32.5928 111.608 32.3174 111.925 32.083C112.142 31.9189 112.25 31.7754 112.25 31.6523C112.25 31.5469 112.206 31.4619 112.118 31.3975C112.001 31.3037 111.849 31.2568 111.661 31.2568C111.169 31.2568 110.706 31.4561 110.272 31.8545C109.698 32.3818 109.259 33.0498 108.954 33.8584C108.649 34.667 108.497 35.4346 108.497 36.1611C108.497 36.7354 108.652 37.1953 108.963 37.541C109.273 37.8809 109.643 38.0508 110.07 38.0508C110.445 38.0508 110.85 37.9541 111.283 37.7607C111.723 37.5674 112.139 37.2744 112.531 36.8818ZM117.813 26.8096C118.177 26.8096 118.481 26.9355 118.728 27.1875C118.979 27.4395 119.105 27.7441 119.105 28.1016C119.105 28.459 118.979 28.7637 118.728 29.0156C118.476 29.2676 118.171 29.3936 117.813 29.3936C117.462 29.3936 117.16 29.2676 116.908 29.0156C116.656 28.7637 116.53 28.459 116.53 28.1016C116.53 27.7441 116.653 27.4395 116.899 27.1875C117.151 26.9355 117.456 26.8096 117.813 26.8096ZM118.358 30.8525L116.557 37.1016C116.457 37.459 116.407 37.6934 116.407 37.8047C116.407 37.8691 116.434 37.9307 116.486 37.9893C116.539 38.042 116.595 38.0684 116.653 38.0684C116.753 38.0684 116.853 38.0244 116.952 37.9365C117.216 37.7197 117.532 37.3271 117.901 36.7588L118.2 36.9346C117.315 38.4756 116.375 39.2461 115.379 39.2461C114.998 39.2461 114.693 39.1406 114.465 38.9297C114.242 38.7129 114.131 38.4404 114.131 38.1123C114.131 37.8955 114.181 37.6201 114.28 37.2861L115.502 33.085C115.619 32.6807 115.678 32.376 115.678 32.1709C115.678 32.042 115.622 31.9277 115.511 31.8281C115.399 31.7285 115.247 31.6787 115.054 31.6787C114.966 31.6787 114.86 31.6816 114.737 31.6875L114.852 31.3359L117.831 30.8525H118.358ZM123.491 32.127L122.463 36.1875C121.982 38.1035 121.514 39.4922 121.057 40.3535C120.6 41.2148 120.063 41.8506 119.448 42.2607C118.839 42.6768 118.139 42.8848 117.348 42.8848C116.85 42.8848 116.483 42.7881 116.249 42.5947C116.015 42.4072 115.897 42.1846 115.897 41.9268C115.897 41.6865 115.994 41.4785 116.188 41.3027C116.381 41.127 116.636 41.0391 116.952 41.0391C117.216 41.0391 117.418 41.1064 117.559 41.2412C117.699 41.376 117.77 41.5459 117.77 41.751C117.77 41.9385 117.726 42.0762 117.638 42.1641C117.55 42.2578 117.506 42.3193 117.506 42.3486L117.55 42.4102C117.585 42.4395 117.626 42.4541 117.673 42.4541C117.849 42.4541 117.998 42.3984 118.121 42.2871C118.432 42.0117 118.663 41.6777 118.815 41.2852C118.921 41.0156 119.123 40.3037 119.422 39.1494L121.215 32.127H119.993L120.283 31.0986C120.723 31.1045 121.042 31.0488 121.241 30.9316C121.44 30.8145 121.651 30.5508 121.874 30.1406C122.519 28.9512 123.198 28.0986 123.913 27.583C124.628 27.0674 125.425 26.8096 126.304 26.8096C126.866 26.8096 127.273 26.918 127.525 27.1348C127.783 27.3516 127.912 27.6328 127.912 27.9785C127.912 28.2832 127.827 28.5264 127.657 28.708C127.487 28.8838 127.276 28.9717 127.024 28.9717C126.79 28.9717 126.597 28.8984 126.444 28.752C126.292 28.6055 126.216 28.4297 126.216 28.2246C126.216 28.0781 126.263 27.9229 126.356 27.7588C126.456 27.5947 126.506 27.4834 126.506 27.4248C126.506 27.3604 126.482 27.3076 126.436 27.2666C126.395 27.2256 126.339 27.2051 126.269 27.2051C125.923 27.2051 125.568 27.4189 125.205 27.8467C124.607 28.5322 124.127 29.6162 123.764 31.0986H125.038L124.73 32.127H123.491ZM125.231 31.6436L127.938 30.8525C128.155 31.1221 128.308 31.377 128.396 31.6172C128.554 32.0332 128.665 32.6074 128.729 33.3398C128.853 34.7812 128.938 36.3193 128.984 37.9541C129.611 37.1279 130.329 36.0352 131.138 34.6758C131.384 34.2656 131.507 33.8789 131.507 33.5156C131.507 33.2871 131.363 33.0703 131.076 32.8652C130.795 32.6602 130.619 32.502 130.549 32.3906C130.479 32.2734 130.443 32.124 130.443 31.9424C130.443 31.6494 130.549 31.3945 130.76 31.1777C130.977 30.9609 131.237 30.8525 131.542 30.8525C131.864 30.8525 132.143 30.9756 132.377 31.2217C132.617 31.4678 132.737 31.7578 132.737 32.0918C132.737 32.4844 132.626 32.9414 132.403 33.4629C132.187 33.9785 131.674 34.8662 130.865 36.126C129.828 37.7373 128.812 39.1318 127.815 40.3096C127.177 41.0596 126.661 41.5986 126.269 41.9268C125.876 42.2607 125.469 42.5244 125.047 42.7178C124.795 42.8291 124.546 42.8848 124.3 42.8848C123.966 42.8848 123.682 42.7676 123.447 42.5332C123.207 42.2988 123.087 42.0205 123.087 41.6982C123.087 41.376 123.195 41.1035 123.412 40.8809C123.623 40.6582 123.872 40.5469 124.159 40.5469C124.517 40.5469 124.845 40.7344 125.144 41.1094C125.343 41.3613 125.507 41.4873 125.636 41.4873C125.771 41.4873 125.902 41.4492 126.031 41.373C126.207 41.2793 126.453 41.0625 126.77 40.7227C126.805 39.9902 126.822 39.4365 126.822 39.0615C126.822 38.5576 126.799 37.8486 126.752 36.9346L126.603 33.5859C126.55 32.9707 126.418 32.5283 126.207 32.2588C126.043 32.0596 125.829 31.96 125.565 31.96C125.466 31.96 125.354 31.9688 125.231 31.9863V31.6436ZM143.671 39H137.343V38.6748C138.989 37.1514 140.378 35.751 141.509 34.4736C142.458 33.4131 143.053 32.6045 143.293 32.0479C143.539 31.4854 143.662 30.9199 143.662 30.3516C143.662 29.8184 143.492 29.3848 143.152 29.0508C142.818 28.7168 142.399 28.5498 141.896 28.5498C141.081 28.5498 140.384 28.998 139.804 29.8945L139.479 29.7451C139.783 28.8779 140.179 28.2188 140.665 27.7676C141.339 27.1465 142.13 26.8359 143.038 26.8359C143.882 26.8359 144.579 27.0967 145.13 27.6182C145.687 28.1396 145.965 28.7432 145.965 29.4287C145.965 30.0322 145.83 30.6299 145.561 31.2217C145.291 31.8076 144.734 32.5459 143.891 33.4365C143.246 34.1162 141.939 35.2969 139.971 36.9785H142.265C143.003 36.9785 143.519 36.8965 143.812 36.7324C144.11 36.5625 144.389 36.2256 144.646 35.7217H145.06L143.671 39Z" fill="white"/>
</svg>
