<svg width="213" height="38" viewBox="0 0 213 38" fill="none" xmlns="http://www.w3.org/2000/svg">
<path d="M82.8389 10.5244L81.8721 13.8467C81.7373 14.3154 81.6699 14.6465 81.6699 14.8398C81.6699 15.1094 81.7578 15.3145 81.9336 15.4551C82.1094 15.5898 82.5078 15.6631 83.1289 15.6748L83.0146 16H77.1963L77.293 15.6748C77.7852 15.6689 78.1338 15.6221 78.3389 15.5342C78.5439 15.4404 78.7139 15.291 78.8486 15.0859C78.9482 14.9512 79.0977 14.5381 79.2969 13.8467L81.5029 6.2793C81.6553 5.77539 81.7314 5.41504 81.7314 5.19824C81.7314 4.98145 81.6348 4.7998 81.4414 4.65332C81.248 4.50098 80.8965 4.41895 80.3867 4.40723L80.4834 4.08203H85.2031C86.498 4.08203 87.4297 4.24609 87.998 4.57422C88.877 5.08984 89.3164 5.86328 89.3164 6.89453C89.3164 7.89062 88.877 8.76953 87.998 9.53125C87.125 10.2871 85.9473 10.665 84.4648 10.665C84.0195 10.665 83.4775 10.6182 82.8389 10.5244ZM83.0146 9.84766C83.3955 9.89453 83.7119 9.91797 83.9639 9.91797C84.7725 9.91797 85.4082 9.54883 85.8711 8.81055C86.334 8.07227 86.5654 7.30176 86.5654 6.49902C86.5654 5.9541 86.416 5.53223 86.1172 5.2334C85.8184 4.92871 85.4053 4.77637 84.8779 4.77637C84.7666 4.77637 84.6289 4.78223 84.4648 4.79395L83.0146 9.84766ZM94.6514 3.80957L92.3662 11.7285C93.1572 10.5625 93.7314 9.77441 94.0889 9.36426C94.6221 8.77246 95.0791 8.37402 95.46 8.16895C95.8467 7.95801 96.2158 7.85254 96.5674 7.85254C96.8662 7.85254 97.1211 7.9668 97.332 8.19531C97.5488 8.41797 97.6572 8.7168 97.6572 9.0918C97.6572 9.4082 97.5869 9.80371 97.4463 10.2783L96.3301 14.0225C96.2305 14.3506 96.1807 14.5703 96.1807 14.6816C96.1807 14.7344 96.2012 14.7842 96.2422 14.8311C96.2832 14.8721 96.3301 14.8926 96.3828 14.8926C96.4531 14.8926 96.5234 14.8633 96.5938 14.8047C96.7812 14.6582 96.9805 14.4238 97.1914 14.1016C97.2441 14.0195 97.3291 13.8965 97.4463 13.7324L97.7891 13.9258C97.2852 14.7578 96.8076 15.3291 96.3564 15.6396C95.9053 15.9502 95.4775 16.1055 95.0732 16.1055C94.71 16.1055 94.4258 16.0117 94.2207 15.8242C94.0156 15.6367 93.9131 15.4023 93.9131 15.1211C93.9131 14.8633 93.9834 14.4971 94.124 14.0225L95.2139 10.2783C95.2842 10.0205 95.3193 9.83301 95.3193 9.71582C95.3193 9.65137 95.293 9.5957 95.2402 9.54883C95.1934 9.49609 95.1377 9.46973 95.0732 9.46973C94.8623 9.46973 94.5723 9.64551 94.2031 9.99707C93.4414 10.7178 92.6797 11.8486 91.918 13.3896L91.1357 16H88.9561L91.8389 6.06836C91.9561 5.64648 92.0146 5.34473 92.0146 5.16309C92.0146 5.0166 91.9561 4.90234 91.8389 4.82031C91.6865 4.70898 91.4521 4.66211 91.1357 4.67969L91.1973 4.32812L94.124 3.80957H94.6514ZM107.378 7.97559L105.673 13.8203L105.497 14.5322C105.479 14.6201 105.471 14.6846 105.471 14.7256C105.471 14.7959 105.494 14.8574 105.541 14.9102C105.594 14.9629 105.646 14.9893 105.699 14.9893C105.822 14.9893 105.992 14.8955 106.209 14.708C106.297 14.6318 106.508 14.3623 106.842 13.8994L107.149 14.0576C106.733 14.8193 106.288 15.376 105.813 15.7275C105.345 16.0732 104.838 16.2461 104.293 16.2461C103.959 16.2461 103.704 16.1611 103.528 15.9912C103.353 15.8154 103.265 15.5957 103.265 15.332C103.265 15.1035 103.358 14.6787 103.546 14.0576L103.757 13.3457C103.077 14.5117 102.424 15.3379 101.797 15.8242C101.434 16.1055 101.047 16.2461 100.637 16.2461C100.098 16.2461 99.708 16.0264 99.4678 15.5869C99.2275 15.1416 99.1074 14.6406 99.1074 14.084C99.1074 13.2578 99.3594 12.3115 99.8633 11.2451C100.367 10.1729 101.029 9.31152 101.85 8.66113C102.523 8.12207 103.156 7.85254 103.748 7.85254C104.076 7.85254 104.34 7.94922 104.539 8.14258C104.738 8.33008 104.885 8.67578 104.979 9.17969L105.295 8.09863L107.378 7.97559ZM104.565 9.64551C104.565 9.1709 104.492 8.82812 104.346 8.61719C104.24 8.4707 104.097 8.39746 103.915 8.39746C103.733 8.39746 103.546 8.48535 103.353 8.66113C102.96 9.02441 102.535 9.7627 102.078 10.876C101.627 11.9834 101.401 12.9414 101.401 13.75C101.401 14.0605 101.451 14.2861 101.551 14.4268C101.656 14.5615 101.771 14.6289 101.894 14.6289C102.157 14.6289 102.424 14.4766 102.693 14.1719C103.08 13.7383 103.429 13.208 103.739 12.5811C104.29 11.4795 104.565 10.501 104.565 9.64551ZM114.453 7.85254L114.066 10.5684H113.741C113.694 9.86523 113.478 9.31152 113.091 8.90723C112.71 8.50293 112.3 8.30078 111.86 8.30078C111.591 8.30078 111.368 8.37988 111.192 8.53809C111.017 8.69629 110.929 8.88672 110.929 9.10938C110.929 9.29688 110.967 9.47266 111.043 9.63672C111.119 9.80078 111.289 10.0234 111.553 10.3047C112.479 11.3008 113.041 11.9863 113.24 12.3613C113.439 12.7363 113.539 13.1377 113.539 13.5654C113.539 14.0283 113.422 14.4678 113.188 14.8838C112.953 15.2939 112.602 15.625 112.133 15.877C111.67 16.123 111.187 16.2461 110.683 16.2461C110.343 16.2461 109.924 16.1787 109.426 16.0439C109.098 15.9502 108.852 15.9033 108.688 15.9033C108.541 15.9033 108.427 15.9268 108.345 15.9736C108.263 16.0146 108.172 16.1055 108.072 16.2461H107.747L108.178 13.3193H108.459C108.664 14.0283 108.854 14.5352 109.03 14.8398C109.212 15.1387 109.452 15.3789 109.751 15.5605C110.05 15.7363 110.337 15.8242 110.612 15.8242C110.935 15.8242 111.201 15.7246 111.412 15.5254C111.623 15.3203 111.729 15.0771 111.729 14.7959C111.729 14.5205 111.658 14.2539 111.518 13.9961C111.383 13.7383 111.066 13.3369 110.568 12.792C109.883 12.0479 109.432 11.4736 109.215 11.0693C109.062 10.7764 108.986 10.4424 108.986 10.0674C108.986 9.43457 109.215 8.90723 109.672 8.48535C110.135 8.06348 110.782 7.85254 111.614 7.85254C111.978 7.85254 112.423 7.91699 112.95 8.0459C113.214 8.11035 113.425 8.14258 113.583 8.14258C113.812 8.14258 113.996 8.0459 114.137 7.85254H114.453ZM117.582 12.7041C117.529 13.085 117.503 13.3984 117.503 13.6445C117.503 14.084 117.629 14.4355 117.881 14.6992C118.139 14.9629 118.481 15.0947 118.909 15.0947C119.319 15.0947 119.729 14.9951 120.14 14.7959C120.556 14.5967 121.036 14.248 121.581 13.75L121.845 13.9873C121.171 14.8018 120.515 15.3818 119.876 15.7275C119.237 16.0732 118.531 16.2461 117.758 16.2461C116.779 16.2461 116.103 16.0117 115.728 15.543C115.353 15.0742 115.165 14.5322 115.165 13.917C115.165 12.9561 115.443 11.9951 116 11.0342C116.562 10.0732 117.324 9.30273 118.285 8.72266C119.252 8.14258 120.222 7.85254 121.194 7.85254C121.687 7.85254 122.059 7.96973 122.311 8.2041C122.562 8.43848 122.688 8.73438 122.688 9.0918C122.688 9.51953 122.565 9.93555 122.319 10.3398C121.979 10.8906 121.552 11.3359 121.036 11.6758C120.521 12.0098 119.943 12.2646 119.305 12.4404C118.877 12.5576 118.303 12.6455 117.582 12.7041ZM117.661 12.2471C118.177 12.1709 118.575 12.0684 118.856 11.9395C119.144 11.8047 119.422 11.5938 119.691 11.3066C119.967 11.0137 120.204 10.6475 120.403 10.208C120.603 9.7627 120.702 9.34668 120.702 8.95996C120.702 8.7959 120.655 8.66699 120.562 8.57324C120.474 8.47949 120.359 8.43262 120.219 8.43262C119.938 8.43262 119.621 8.62891 119.27 9.02148C118.625 9.73633 118.089 10.8115 117.661 12.2471ZM135.274 3.83594L132.365 13.8379C132.213 14.3594 132.137 14.6904 132.137 14.8311C132.137 14.9717 132.189 15.1182 132.295 15.2705C132.406 15.417 132.523 15.5137 132.646 15.5605C132.775 15.6016 133.156 15.6396 133.789 15.6748L133.692 16H127.689L127.786 15.6748C128.384 15.6631 128.8 15.6133 129.034 15.5254C129.269 15.4375 129.459 15.2939 129.605 15.0947C129.758 14.8955 129.928 14.4766 130.115 13.8379L131.838 7.89648C132.102 6.99414 132.239 6.5166 132.251 6.46387C132.286 6.31152 132.304 6.16797 132.304 6.0332C132.304 5.76953 132.222 5.56152 132.058 5.40918C131.899 5.25098 131.671 5.17188 131.372 5.17188C131.226 5.17188 130.936 5.19531 130.502 5.24219L130.432 4.91699L134.905 3.83594H135.274ZM79.8887 27.5L79.0098 30.5C79.6074 30.4922 79.9961 30.4688 80.1758 30.4297C80.4688 30.3711 80.7344 30.248 80.9727 30.0605C81.2109 29.8691 81.4102 29.6055 81.5703 29.2695H81.7988L80.8906 32.4043H80.6562C80.6953 32.2012 80.7148 32.0391 80.7148 31.918C80.7148 31.6758 80.6641 31.4824 80.5625 31.3379C80.4648 31.1934 80.3379 31.0957 80.1816 31.0449C80.0254 30.9902 79.5957 30.9551 78.8926 30.9395L78.1777 33.418L78.0371 33.916C78.0176 34.0137 78.0078 34.1094 78.0078 34.2031C78.0078 34.3398 78.0332 34.4473 78.084 34.5254C78.1387 34.6035 78.2246 34.666 78.3418 34.7129C78.459 34.7559 78.6816 34.7793 79.0098 34.7832L78.9453 35H74.9785L75.043 34.7832C75.4258 34.7832 75.7051 34.7129 75.8809 34.5723C76.0566 34.4277 76.2148 34.1152 76.3555 33.6348L77.7734 28.7715C77.9219 28.2598 78 27.9316 78.0078 27.7871C78 27.6504 77.9375 27.5352 77.8203 27.4414C77.7031 27.3438 77.4629 27.2871 77.0996 27.2715L77.1582 27.0547H83.6504L83.1172 29.1523H82.9004C82.877 28.7148 82.8086 28.3906 82.6953 28.1797C82.582 27.9648 82.3945 27.7988 82.1328 27.6816C81.875 27.5605 81.4609 27.5 80.8906 27.5H79.8887ZM85.6777 26.873C85.9199 26.873 86.123 26.957 86.2871 27.125C86.4551 27.293 86.5391 27.4961 86.5391 27.7344C86.5391 27.9727 86.4551 28.1758 86.2871 28.3438C86.1191 28.5117 85.916 28.5957 85.6777 28.5957C85.4434 28.5957 85.2422 28.5117 85.0742 28.3438C84.9062 28.1758 84.8223 27.9727 84.8223 27.7344C84.8223 27.4961 84.9043 27.293 85.0684 27.125C85.2363 26.957 85.4395 26.873 85.6777 26.873ZM86.041 29.5684L84.8398 33.7344C84.7734 33.9727 84.7402 34.1289 84.7402 34.2031C84.7402 34.2461 84.7578 34.2871 84.793 34.3262C84.8281 34.3613 84.8652 34.3789 84.9043 34.3789C84.9707 34.3789 85.0371 34.3496 85.1035 34.291C85.2793 34.1465 85.4902 33.8848 85.7363 33.5059L85.9355 33.623C85.3457 34.6504 84.7188 35.1641 84.0547 35.1641C83.8008 35.1641 83.5977 35.0938 83.4453 34.9531C83.2969 34.8086 83.2227 34.627 83.2227 34.4082C83.2227 34.2637 83.2559 34.0801 83.3223 33.8574L84.1367 31.0566C84.2148 30.7871 84.2539 30.584 84.2539 30.4473C84.2539 30.3613 84.2168 30.2852 84.1426 30.2188C84.0684 30.1523 83.9668 30.1191 83.8379 30.1191C83.7793 30.1191 83.709 30.1211 83.627 30.125L83.7031 29.8906L85.6895 29.5684H86.041ZM89.1641 29.5684L88.2793 32.8613C89.0059 31.2559 89.5527 30.2676 89.9199 29.8965C90.1348 29.6777 90.3613 29.5684 90.5996 29.5684C90.7637 29.5684 90.8965 29.6289 90.998 29.75C91.0996 29.8672 91.1504 30.0352 91.1504 30.2539C91.1504 30.6328 91.0586 30.9512 90.875 31.209C90.7578 31.373 90.627 31.4551 90.4824 31.4551C90.3262 31.4551 90.209 31.3828 90.1309 31.2383C90.0527 31.0938 89.998 31.0098 89.9668 30.9863C89.9355 30.959 89.9023 30.9453 89.8672 30.9453C89.8281 30.9453 89.7871 30.957 89.7441 30.9805C89.6582 31.0273 89.5449 31.1426 89.4043 31.3262C89.2676 31.5059 89.0977 31.8086 88.8945 32.2344C88.6914 32.6602 88.5332 33.0215 88.4199 33.3184C88.3066 33.6113 88.1484 34.1719 87.9453 35H86.5273L87.4941 31.1152C87.5645 30.8262 87.5996 30.6348 87.5996 30.541C87.5996 30.4355 87.5801 30.3535 87.541 30.2949C87.5059 30.2363 87.4551 30.1934 87.3887 30.166C87.3262 30.1387 87.1934 30.125 86.9902 30.125L87.043 29.9551L88.8125 29.5684H89.1641ZM95.4629 29.5684L95.2051 31.3789H94.9883C94.957 30.9102 94.8125 30.541 94.5547 30.2715C94.3008 30.002 94.0273 29.8672 93.7344 29.8672C93.5547 29.8672 93.4062 29.9199 93.2891 30.0254C93.1719 30.1309 93.1133 30.2578 93.1133 30.4062C93.1133 30.5312 93.1387 30.6484 93.1895 30.7578C93.2402 30.8672 93.3535 31.0156 93.5293 31.2031C94.1465 31.8672 94.5215 32.3242 94.6543 32.5742C94.7871 32.8242 94.8535 33.0918 94.8535 33.377C94.8535 33.6855 94.7754 33.9785 94.6191 34.2559C94.4629 34.5293 94.2285 34.75 93.916 34.918C93.6074 35.082 93.2852 35.1641 92.9492 35.1641C92.7227 35.1641 92.4434 35.1191 92.1113 35.0293C91.8926 34.9668 91.7285 34.9355 91.6191 34.9355C91.5215 34.9355 91.4453 34.9512 91.3906 34.9824C91.3359 35.0098 91.2754 35.0703 91.209 35.1641H90.9922L91.2793 33.2129H91.4668C91.6035 33.6855 91.7305 34.0234 91.8477 34.2266C91.9688 34.4258 92.1289 34.5859 92.3281 34.707C92.5273 34.8242 92.7188 34.8828 92.9023 34.8828C93.1172 34.8828 93.2949 34.8164 93.4355 34.6836C93.5762 34.5469 93.6465 34.3848 93.6465 34.1973C93.6465 34.0137 93.5996 33.8359 93.5059 33.6641C93.416 33.4922 93.2051 33.2246 92.873 32.8613C92.416 32.3652 92.1152 31.9824 91.9707 31.7129C91.8691 31.5176 91.8184 31.2949 91.8184 31.0449C91.8184 30.623 91.9707 30.2715 92.2754 29.9902C92.584 29.709 93.0156 29.5684 93.5703 29.5684C93.8125 29.5684 94.1094 29.6113 94.4609 29.6973C94.6367 29.7402 94.7773 29.7617 94.8828 29.7617C95.0352 29.7617 95.1582 29.6973 95.252 29.5684H95.4629ZM99.1133 28.1387L98.6445 29.7324H99.4121L99.207 30.4062H98.4512L97.4727 33.8047C97.4102 34.0156 97.3789 34.1758 97.3789 34.2852C97.3789 34.3359 97.3965 34.3809 97.4316 34.4199C97.4668 34.4551 97.5059 34.4727 97.5488 34.4727C97.6152 34.4727 97.6836 34.4453 97.7539 34.3906C97.9336 34.2539 98.1426 34.0156 98.3809 33.6758L98.5859 33.8047C98.3164 34.2734 98.0195 34.6172 97.6953 34.8359C97.3711 35.0547 97.0527 35.1641 96.7402 35.1641C96.4746 35.1641 96.2676 35.0977 96.1191 34.9648C95.9746 34.8281 95.9023 34.6562 95.9023 34.4492C95.9023 34.2227 95.9531 33.9316 96.0547 33.5762L96.9805 30.4062H96.1836L96.3008 29.9727C96.8008 29.7891 97.2227 29.5742 97.5664 29.3281C97.9102 29.082 98.3242 28.6855 98.8086 28.1387H99.1133ZM107.352 26.8906L105.412 33.5586C105.311 33.9062 105.26 34.127 105.26 34.2207C105.26 34.3145 105.295 34.4121 105.365 34.5137C105.439 34.6113 105.518 34.6758 105.6 34.707C105.686 34.7344 105.939 34.7598 106.361 34.7832L106.297 35H102.295L102.359 34.7832C102.758 34.7754 103.035 34.7422 103.191 34.6836C103.348 34.625 103.475 34.5293 103.572 34.3965C103.674 34.2637 103.787 33.9844 103.912 33.5586L105.061 29.5977C105.236 28.9961 105.328 28.6777 105.336 28.6426C105.359 28.541 105.371 28.4453 105.371 28.3555C105.371 28.1797 105.316 28.041 105.207 27.9395C105.102 27.834 104.949 27.7812 104.75 27.7812C104.652 27.7812 104.459 27.7969 104.17 27.8281L104.123 27.6113L107.105 26.8906H107.352ZM110.82 33.3242H108.225L108.512 32.3398L113.27 26.8906H114.037L112.443 32.3398H113.363L113.053 33.3242H112.156L111.617 35.1641H110.287L110.82 33.3242ZM111.119 32.3398L112.098 28.8652L109.086 32.3398H111.119ZM123.559 26.873L121.654 33.4297C121.533 33.8398 121.473 34.0879 121.473 34.1738C121.473 34.2168 121.488 34.2539 121.52 34.2852C121.551 34.3164 121.584 34.332 121.619 34.332C121.686 34.332 121.762 34.2988 121.848 34.2324C121.992 34.123 122.168 33.916 122.375 33.6113L122.586 33.7227C122.035 34.6836 121.43 35.1641 120.77 35.1641C120.535 35.1641 120.354 35.1035 120.225 34.9824C120.1 34.8574 120.037 34.6992 120.037 34.5078C120.037 34.3242 120.088 34.0625 120.189 33.7227L120.365 33.125C119.877 33.9883 119.453 34.5625 119.094 34.8477C118.82 35.0586 118.555 35.1641 118.297 35.1641C118.004 35.1641 117.756 35.0449 117.553 34.8066C117.354 34.5684 117.254 34.2207 117.254 33.7637C117.254 33.1816 117.383 32.6074 117.641 32.041C117.898 31.4746 118.195 31.002 118.531 30.623C118.871 30.2441 119.193 29.9746 119.498 29.8145C119.807 29.6504 120.109 29.5684 120.406 29.5684C120.559 29.5684 120.693 29.5996 120.811 29.6621C120.932 29.7246 121.068 29.8418 121.221 30.0137L121.654 28.5547C121.76 28.1953 121.812 27.9375 121.812 27.7812C121.812 27.6875 121.777 27.6074 121.707 27.541C121.637 27.4746 121.543 27.4414 121.426 27.4414C121.371 27.4414 121.303 27.4473 121.221 27.459L121.279 27.2305L123.207 26.873H123.559ZM120.98 30.5879C120.98 30.3496 120.934 30.1758 120.84 30.0664C120.746 29.957 120.637 29.9023 120.512 29.9023C120.387 29.9023 120.252 29.9668 120.107 30.0957C119.83 30.3457 119.539 30.8496 119.234 31.6074C118.934 32.3613 118.783 32.9961 118.783 33.5117C118.783 33.6992 118.816 33.8379 118.883 33.9277C118.949 34.0176 119.023 34.0625 119.105 34.0625C119.242 34.0625 119.379 34 119.516 33.875C119.848 33.5781 120.174 33.0684 120.494 32.3457C120.818 31.6191 120.98 31.0332 120.98 30.5879ZM128.762 29.6504L127.625 33.5469L127.508 34.0215C127.496 34.0801 127.49 34.123 127.49 34.1504C127.49 34.1973 127.506 34.2383 127.537 34.2734C127.572 34.3086 127.607 34.3262 127.643 34.3262C127.725 34.3262 127.838 34.2637 127.982 34.1387C128.041 34.0879 128.182 33.9082 128.404 33.5996L128.609 33.7051C128.332 34.2129 128.035 34.584 127.719 34.8184C127.406 35.0488 127.068 35.1641 126.705 35.1641C126.482 35.1641 126.312 35.1074 126.195 34.9941C126.078 34.877 126.02 34.7305 126.02 34.5547C126.02 34.4023 126.082 34.1191 126.207 33.7051L126.348 33.2305C125.895 34.0078 125.459 34.5586 125.041 34.8828C124.799 35.0703 124.541 35.1641 124.268 35.1641C123.908 35.1641 123.648 35.0176 123.488 34.7246C123.328 34.4277 123.248 34.0938 123.248 33.7227C123.248 33.1719 123.416 32.541 123.752 31.8301C124.088 31.1152 124.529 30.541 125.076 30.1074C125.525 29.748 125.947 29.5684 126.342 29.5684C126.561 29.5684 126.736 29.6328 126.869 29.7617C127.002 29.8867 127.1 30.1172 127.162 30.4531L127.373 29.7324L128.762 29.6504ZM126.887 30.7637C126.887 30.4473 126.838 30.2188 126.74 30.0781C126.67 29.9805 126.574 29.9316 126.453 29.9316C126.332 29.9316 126.207 29.9902 126.078 30.1074C125.816 30.3496 125.533 30.8418 125.229 31.584C124.928 32.3223 124.777 32.9609 124.777 33.5C124.777 33.707 124.811 33.8574 124.877 33.9512C124.947 34.041 125.023 34.0859 125.105 34.0859C125.281 34.0859 125.459 33.9844 125.639 33.7812C125.896 33.4922 126.129 33.1387 126.336 32.7207C126.703 31.9863 126.887 31.334 126.887 30.7637ZM129.318 30.0957L131.123 29.5684C131.268 29.748 131.369 29.918 131.428 30.0781C131.533 30.3555 131.607 30.7383 131.65 31.2266C131.732 32.1875 131.789 33.2129 131.82 34.3027C132.238 33.752 132.717 33.0234 133.256 32.1172C133.42 31.8438 133.502 31.5859 133.502 31.3438C133.502 31.1914 133.406 31.0469 133.215 30.9102C133.027 30.7734 132.91 30.668 132.863 30.5938C132.816 30.5156 132.793 30.416 132.793 30.2949C132.793 30.0996 132.863 29.9297 133.004 29.7852C133.148 29.6406 133.322 29.5684 133.525 29.5684C133.74 29.5684 133.926 29.6504 134.082 29.8145C134.242 29.9785 134.322 30.1719 134.322 30.3945C134.322 30.6562 134.248 30.9609 134.1 31.3086C133.955 31.6523 133.613 32.2441 133.074 33.084C132.383 34.1582 131.705 35.0879 131.041 35.873C130.615 36.373 130.271 36.7324 130.01 36.9512C129.748 37.1738 129.477 37.3496 129.195 37.4785C129.027 37.5527 128.861 37.5898 128.697 37.5898C128.475 37.5898 128.285 37.5117 128.129 37.3555C127.969 37.1992 127.889 37.0137 127.889 36.7988C127.889 36.584 127.961 36.4023 128.105 36.2539C128.246 36.1055 128.412 36.0312 128.604 36.0312C128.842 36.0312 129.061 36.1562 129.26 36.4062C129.393 36.5742 129.502 36.6582 129.588 36.6582C129.678 36.6582 129.766 36.6328 129.852 36.582C129.969 36.5195 130.133 36.375 130.344 36.1484C130.367 35.6602 130.379 35.291 130.379 35.041C130.379 34.7051 130.363 34.2324 130.332 33.623L130.232 31.3906C130.197 30.9805 130.109 30.6855 129.969 30.5059C129.859 30.373 129.717 30.3066 129.541 30.3066C129.475 30.3066 129.4 30.3125 129.318 30.3242V30.0957ZM138.811 29.5684L138.553 31.3789H138.336C138.305 30.9102 138.16 30.541 137.902 30.2715C137.648 30.002 137.375 29.8672 137.082 29.8672C136.902 29.8672 136.754 29.9199 136.637 30.0254C136.52 30.1309 136.461 30.2578 136.461 30.4062C136.461 30.5312 136.486 30.6484 136.537 30.7578C136.588 30.8672 136.701 31.0156 136.877 31.2031C137.494 31.8672 137.869 32.3242 138.002 32.5742C138.135 32.8242 138.201 33.0918 138.201 33.377C138.201 33.6855 138.123 33.9785 137.967 34.2559C137.811 34.5293 137.576 34.75 137.264 34.918C136.955 35.082 136.633 35.1641 136.297 35.1641C136.07 35.1641 135.791 35.1191 135.459 35.0293C135.24 34.9668 135.076 34.9355 134.967 34.9355C134.869 34.9355 134.793 34.9512 134.738 34.9824C134.684 35.0098 134.623 35.0703 134.557 35.1641H134.34L134.627 33.2129H134.814C134.951 33.6855 135.078 34.0234 135.195 34.2266C135.316 34.4258 135.477 34.5859 135.676 34.707C135.875 34.8242 136.066 34.8828 136.25 34.8828C136.465 34.8828 136.643 34.8164 136.783 34.6836C136.924 34.5469 136.994 34.3848 136.994 34.1973C136.994 34.0137 136.947 33.8359 136.854 33.6641C136.764 33.4922 136.553 33.2246 136.221 32.8613C135.764 32.3652 135.463 31.9824 135.318 31.7129C135.217 31.5176 135.166 31.2949 135.166 31.0449C135.166 30.623 135.318 30.2715 135.623 29.9902C135.932 29.709 136.363 29.5684 136.918 29.5684C137.16 29.5684 137.457 29.6113 137.809 29.6973C137.984 29.7402 138.125 29.7617 138.23 29.7617C138.383 29.7617 138.506 29.6973 138.6 29.5684H138.811Z" fill="black"/>
<path d="M212.354 18.3536C212.549 18.1583 212.549 17.8417 212.354 17.6464L209.172 14.4645C208.976 14.2692 208.66 14.2692 208.464 14.4645C208.269 14.6597 208.269 14.9763 208.464 15.1716L211.293 18L208.464 20.8284C208.269 21.0237 208.269 21.3403 208.464 21.5355C208.66 21.7308 208.976 21.7308 209.172 21.5355L212.354 18.3536ZM162 18.5L212 18.5V17.5L162 17.5V18.5Z" fill="black"/>
<path d="M0.646447 17.6464C0.451184 17.8417 0.451184 18.1583 0.646447 18.3536L3.82843 21.5355C4.02369 21.7308 4.34027 21.7308 4.53553 21.5355C4.7308 21.3403 4.7308 21.0237 4.53553 20.8284L1.70711 18L4.53553 15.1716C4.7308 14.9763 4.7308 14.6597 4.53553 14.4645C4.34027 14.2692 4.02369 14.2692 3.82843 14.4645L0.646447 17.6464ZM51 17.5L1 17.5V18.5L51 18.5V17.5Z" fill="black"/>
</svg>
