<svg width="211" height="65" viewBox="0 0 211 65" fill="none" xmlns="http://www.w3.org/2000/svg">
<path d="M54.6835 11.67C55.2715 11.67 55.7635 11.67 56.1595 11.67C56.5555 11.658 56.8555 11.646 57.0595 11.634L59.6695 11.49C59.8975 11.478 60.0535 11.472 60.1375 11.472C60.2335 11.472 60.3055 11.472 60.3535 11.472C60.9175 11.472 61.4455 11.538 61.9375 11.67C62.4295 11.79 62.8555 11.988 63.2155 12.264C63.5755 12.528 63.8575 12.87 64.0615 13.29C64.2775 13.71 64.3855 14.208 64.3855 14.784C64.3855 15.312 64.2775 15.774 64.0615 16.17C63.8575 16.566 63.5815 16.902 63.2335 17.178C62.8975 17.442 62.5075 17.64 62.0635 17.772C61.6315 17.904 61.1935 17.97 60.7495 17.97C60.4015 17.97 60.0955 17.922 59.8315 17.826C59.5675 17.73 59.3215 17.568 59.0935 17.34L59.1295 17.178C59.2855 17.238 59.4535 17.28 59.6335 17.304C59.8135 17.316 59.9695 17.322 60.1015 17.322C60.4015 17.322 60.6715 17.28 60.9115 17.196C61.1635 17.112 61.3795 16.98 61.5595 16.8C61.7395 16.608 61.8775 16.356 61.9735 16.044C62.0815 15.732 62.1355 15.342 62.1355 14.874C62.1355 14.082 61.9375 13.44 61.5415 12.948C61.1455 12.444 60.5395 12.192 59.7235 12.192C59.5555 12.192 59.4115 12.198 59.2915 12.21C59.1835 12.21 59.0815 12.216 58.9855 12.228C58.8895 12.24 58.8055 12.258 58.7335 12.282C58.6735 12.294 58.6135 12.312 58.5535 12.336V21.57C58.5535 21.75 58.5895 21.906 58.6615 22.038C58.7455 22.158 58.9195 22.242 59.1835 22.29L60.2635 22.488V22.992C59.7595 22.968 59.2795 22.95 58.8235 22.938C58.3795 22.926 57.9955 22.92 57.6715 22.92C57.2995 22.92 56.9155 22.926 56.5195 22.938C56.1355 22.95 55.6435 22.962 55.0435 22.974V22.47L56.0515 22.272C56.2315 22.236 56.3515 22.17 56.4115 22.074C56.4715 21.978 56.5015 21.816 56.5015 21.588V13.47C56.5015 13.014 56.3575 12.708 56.0695 12.552C55.7935 12.396 55.3315 12.282 54.6835 12.21V11.67ZM69.4231 22.974C69.1351 22.962 68.7991 22.95 68.4151 22.938C68.0431 22.926 67.6591 22.92 67.2631 22.92C66.8671 22.92 66.4771 22.926 66.0931 22.938C65.7211 22.95 65.3911 22.962 65.1031 22.974V22.506L65.9311 22.29C66.0871 22.254 66.1951 22.206 66.2551 22.146C66.3151 22.086 66.3451 21.966 66.3451 21.786V13.002C66.3451 12.75 66.2731 12.564 66.1291 12.444C65.9851 12.324 65.6671 12.192 65.1751 12.048V11.634C65.2951 11.61 65.4691 11.58 65.6971 11.544C65.9251 11.508 66.1771 11.466 66.4531 11.418C66.7291 11.37 67.0051 11.316 67.2811 11.256C67.5571 11.184 67.7971 11.112 68.0011 11.04H68.4151V21.75C68.4151 21.99 68.4391 22.14 68.4871 22.2C68.5351 22.248 68.6491 22.296 68.8291 22.344L69.4231 22.506V22.974ZM72.9246 23.19C72.4326 23.19 72.0066 23.106 71.6466 22.938C71.2986 22.758 71.0106 22.518 70.7826 22.218C70.5666 21.918 70.4046 21.564 70.2966 21.156C70.1886 20.748 70.1346 20.31 70.1346 19.842C70.1346 19.206 70.2306 18.642 70.4226 18.15C70.6146 17.658 70.8726 17.244 71.1966 16.908C71.5206 16.572 71.8986 16.32 72.3306 16.152C72.7626 15.972 73.2186 15.882 73.6986 15.882C74.0346 15.882 74.3286 15.906 74.5806 15.954C74.8326 16.002 75.0426 16.056 75.2106 16.116C75.4146 16.176 75.5826 16.248 75.7146 16.332L76.9026 15.666L77.0646 15.72V21.264C77.0646 21.744 77.2686 21.972 77.6766 21.948C77.7726 21.948 77.8446 21.936 77.8926 21.912C77.9526 21.876 78.0066 21.846 78.0546 21.822C78.1026 21.786 78.1446 21.75 78.1806 21.714L78.2886 21.966C78.1926 22.194 78.0666 22.398 77.9106 22.578C77.7786 22.734 77.5986 22.878 77.3706 23.01C77.1546 23.13 76.8846 23.19 76.5606 23.19C76.0326 23.19 75.6546 23.034 75.4266 22.722C75.2106 22.398 75.1026 22.008 75.1026 21.552V21.12C75.0426 21.384 74.9526 21.642 74.8326 21.894C74.7246 22.134 74.5866 22.35 74.4186 22.542C74.2506 22.734 74.0406 22.89 73.7886 23.01C73.5486 23.13 73.2606 23.19 72.9246 23.19ZM75.1026 19.05C75.1026 18.798 75.0906 18.534 75.0666 18.258C75.0426 17.982 74.9886 17.73 74.9046 17.502C74.8206 17.262 74.6886 17.064 74.5086 16.908C74.3406 16.752 74.1066 16.674 73.8066 16.674C73.6386 16.674 73.4586 16.722 73.2666 16.818C73.0866 16.902 72.9186 17.046 72.7626 17.25C72.6066 17.454 72.4746 17.736 72.3666 18.096C72.2706 18.444 72.2226 18.876 72.2226 19.392C72.2226 19.752 72.2466 20.094 72.2946 20.418C72.3546 20.742 72.4446 21.024 72.5646 21.264C72.6846 21.504 72.8286 21.696 72.9966 21.84C73.1766 21.972 73.3866 22.038 73.6266 22.038C73.8666 22.038 74.0766 21.96 74.2566 21.804C74.4366 21.648 74.5866 21.444 74.7066 21.192C74.8386 20.928 74.9346 20.628 74.9946 20.292C75.0666 19.956 75.1026 19.608 75.1026 19.248V19.05ZM87.8316 22.974C87.2076 22.938 86.5116 22.92 85.7436 22.92C84.9876 22.92 84.2976 22.938 83.6736 22.974V22.524L84.3036 22.38C84.5676 22.344 84.6996 22.11 84.6996 21.678V18.654C84.6996 18.39 84.6876 18.162 84.6636 17.97C84.6516 17.766 84.6096 17.598 84.5376 17.466C84.4776 17.322 84.3756 17.22 84.2316 17.16C84.0996 17.088 83.9136 17.052 83.6736 17.052C83.3976 17.052 83.1036 17.142 82.7916 17.322C82.4916 17.49 82.2396 17.694 82.0356 17.934V21.876C82.0356 22.068 82.1796 22.2 82.4676 22.272L82.9896 22.524V22.974C82.8816 22.962 82.7736 22.956 82.6656 22.956C82.5696 22.944 82.4616 22.938 82.3416 22.938C82.2216 22.926 82.0896 22.92 81.9456 22.92C81.8016 22.92 81.6216 22.92 81.4056 22.92H80.8476C80.4636 22.92 80.0736 22.926 79.6776 22.938C79.2936 22.938 79.0116 22.95 78.8316 22.974V22.524L79.6056 22.344C79.7256 22.32 79.8156 22.266 79.8756 22.182C79.9356 22.098 79.9656 21.972 79.9656 21.804V18.258C79.9656 17.886 79.8876 17.634 79.7316 17.502C79.5876 17.37 79.3236 17.274 78.9396 17.214V16.872C79.1316 16.824 79.3536 16.764 79.6056 16.692C79.8696 16.62 80.1276 16.53 80.3796 16.422C80.6316 16.302 80.8656 16.164 81.0816 16.008C81.2976 15.84 81.4596 15.642 81.5676 15.414H82.0356V17.16C82.3956 16.716 82.7856 16.368 83.2056 16.116C83.6256 15.864 84.0456 15.738 84.4656 15.738C85.1616 15.738 85.7196 15.942 86.1396 16.35C86.5596 16.758 86.7696 17.376 86.7696 18.204V21.624C86.7696 21.864 86.7996 22.038 86.8596 22.146C86.9196 22.254 87.0396 22.332 87.2196 22.38L87.8316 22.524V22.974ZM97.3765 22.974C96.7525 22.938 96.0565 22.92 95.2885 22.92C94.5325 22.92 93.8425 22.938 93.2185 22.974V22.524L93.8485 22.38C94.1125 22.344 94.2445 22.11 94.2445 21.678V18.654C94.2445 18.39 94.2325 18.162 94.2085 17.97C94.1965 17.766 94.1545 17.598 94.0825 17.466C94.0225 17.322 93.9205 17.22 93.7765 17.16C93.6445 17.088 93.4585 17.052 93.2185 17.052C92.9425 17.052 92.6485 17.142 92.3365 17.322C92.0365 17.49 91.7845 17.694 91.5805 17.934V21.876C91.5805 22.068 91.7245 22.2 92.0125 22.272L92.5345 22.524V22.974C92.4265 22.962 92.3185 22.956 92.2105 22.956C92.1145 22.944 92.0065 22.938 91.8865 22.938C91.7665 22.926 91.6345 22.92 91.4905 22.92C91.3465 22.92 91.1665 22.92 90.9505 22.92H90.3925C90.0085 22.92 89.6185 22.926 89.2225 22.938C88.8385 22.938 88.5565 22.95 88.3765 22.974V22.524L89.1505 22.344C89.2705 22.32 89.3605 22.266 89.4205 22.182C89.4805 22.098 89.5105 21.972 89.5105 21.804V18.258C89.5105 17.886 89.4325 17.634 89.2765 17.502C89.1325 17.37 88.8685 17.274 88.4845 17.214V16.872C88.6765 16.824 88.8985 16.764 89.1505 16.692C89.4145 16.62 89.6725 16.53 89.9245 16.422C90.1765 16.302 90.4105 16.164 90.6265 16.008C90.8425 15.84 91.0045 15.642 91.1125 15.414H91.5805V17.16C91.9405 16.716 92.3305 16.368 92.7505 16.116C93.1705 15.864 93.5905 15.738 94.0105 15.738C94.7065 15.738 95.2645 15.942 95.6845 16.35C96.1045 16.758 96.3145 17.376 96.3145 18.204V21.624C96.3145 21.864 96.3445 22.038 96.4045 22.146C96.4645 22.254 96.5845 22.332 96.7645 22.38L97.3765 22.524V22.974ZM100.423 11.85C100.735 11.85 100.999 11.97 101.215 12.21C101.443 12.438 101.557 12.708 101.557 13.02C101.557 13.296 101.443 13.548 101.215 13.776C100.999 14.004 100.729 14.118 100.405 14.118C100.093 14.118 99.8294 14.016 99.6134 13.812C99.4094 13.596 99.3074 13.332 99.3074 13.02C99.3074 12.708 99.4154 12.438 99.6314 12.21C99.8474 11.97 100.111 11.85 100.423 11.85ZM102.241 22.992C102.049 22.968 101.761 22.95 101.377 22.938C100.993 22.926 100.561 22.92 100.081 22.92C99.6014 22.92 99.1694 22.926 98.7854 22.938C98.4014 22.95 98.1134 22.968 97.9214 22.992V22.524L98.6054 22.344C98.9774 22.272 99.1634 22.05 99.1634 21.678V18.438C99.1634 18.15 99.0914 17.94 98.9474 17.808C98.8034 17.676 98.5154 17.562 98.0834 17.466V17.034C98.2874 16.986 98.5214 16.92 98.7854 16.836C99.0494 16.74 99.3074 16.638 99.5594 16.53C99.8114 16.41 100.045 16.284 100.261 16.152C100.477 16.008 100.645 15.864 100.765 15.72C100.849 15.72 100.927 15.726 100.999 15.738C101.071 15.738 101.149 15.738 101.233 15.738V21.732C101.233 21.912 101.257 22.05 101.305 22.146C101.365 22.23 101.473 22.29 101.629 22.326L102.241 22.524V22.992ZM111.773 22.974C111.149 22.938 110.453 22.92 109.685 22.92C108.929 22.92 108.239 22.938 107.615 22.974V22.524L108.245 22.38C108.509 22.344 108.641 22.11 108.641 21.678V18.654C108.641 18.39 108.629 18.162 108.605 17.97C108.593 17.766 108.551 17.598 108.479 17.466C108.419 17.322 108.317 17.22 108.173 17.16C108.041 17.088 107.855 17.052 107.615 17.052C107.339 17.052 107.045 17.142 106.733 17.322C106.433 17.49 106.181 17.694 105.977 17.934V21.876C105.977 22.068 106.121 22.2 106.409 22.272L106.931 22.524V22.974C106.823 22.962 106.715 22.956 106.607 22.956C106.511 22.944 106.403 22.938 106.283 22.938C106.163 22.926 106.031 22.92 105.887 22.92C105.743 22.92 105.563 22.92 105.347 22.92H104.789C104.405 22.92 104.015 22.926 103.619 22.938C103.235 22.938 102.953 22.95 102.773 22.974V22.524L103.547 22.344C103.667 22.32 103.757 22.266 103.817 22.182C103.877 22.098 103.907 21.972 103.907 21.804V18.258C103.907 17.886 103.829 17.634 103.673 17.502C103.529 17.37 103.265 17.274 102.881 17.214V16.872C103.073 16.824 103.295 16.764 103.547 16.692C103.811 16.62 104.069 16.53 104.321 16.422C104.573 16.302 104.807 16.164 105.023 16.008C105.239 15.84 105.401 15.642 105.509 15.414H105.977V17.16C106.337 16.716 106.727 16.368 107.147 16.116C107.567 15.864 107.987 15.738 108.407 15.738C109.103 15.738 109.661 15.942 110.081 16.35C110.501 16.758 110.711 17.376 110.711 18.204V21.624C110.711 21.864 110.741 22.038 110.801 22.146C110.861 22.254 110.981 22.332 111.161 22.38L111.773 22.524V22.974ZM115.288 22.866C114.796 22.866 114.37 22.788 114.01 22.632C113.662 22.464 113.374 22.242 113.146 21.966C112.93 21.678 112.768 21.336 112.66 20.94C112.552 20.544 112.498 20.112 112.498 19.644C112.498 19.008 112.594 18.456 112.786 17.988C112.978 17.52 113.236 17.13 113.56 16.818C113.884 16.506 114.262 16.272 114.694 16.116C115.126 15.96 115.582 15.882 116.062 15.882C116.398 15.882 116.692 15.906 116.944 15.954C117.196 16.002 117.406 16.056 117.574 16.116C117.778 16.176 117.946 16.248 118.078 16.332L119.266 15.666L119.428 15.72V22.542C119.428 22.998 119.332 23.424 119.14 23.82C118.96 24.204 118.708 24.54 118.384 24.828C118.06 25.116 117.676 25.344 117.232 25.512C116.788 25.68 116.302 25.764 115.774 25.764C115.114 25.764 114.586 25.716 114.19 25.62C113.794 25.536 113.488 25.422 113.272 25.278C113.056 25.134 112.912 24.972 112.84 24.792C112.78 24.624 112.75 24.45 112.75 24.27C112.75 24.018 112.828 23.826 112.984 23.694C113.152 23.55 113.362 23.478 113.614 23.478C113.866 23.478 114.058 23.52 114.19 23.604C114.322 23.676 114.418 23.772 114.478 23.892C114.55 24.012 114.604 24.138 114.64 24.27C114.676 24.414 114.73 24.546 114.802 24.666C114.886 24.786 115.006 24.882 115.162 24.954C115.318 25.038 115.54 25.08 115.828 25.08C116.344 25.08 116.746 24.9 117.034 24.54C117.322 24.18 117.466 23.592 117.466 22.776V20.922C117.406 21.174 117.316 21.42 117.196 21.66C117.088 21.888 116.95 22.092 116.782 22.272C116.614 22.452 116.404 22.596 116.152 22.704C115.912 22.812 115.624 22.866 115.288 22.866ZM117.466 19.05C117.466 18.798 117.454 18.534 117.43 18.258C117.406 17.982 117.352 17.73 117.268 17.502C117.184 17.262 117.052 17.064 116.872 16.908C116.704 16.752 116.47 16.674 116.17 16.674C116.002 16.674 115.822 16.71 115.63 16.782C115.45 16.842 115.282 16.968 115.126 17.16C114.97 17.34 114.838 17.598 114.73 17.934C114.634 18.258 114.586 18.678 114.586 19.194C114.586 19.926 114.7 20.532 114.928 21.012C115.156 21.48 115.51 21.714 115.99 21.714C116.23 21.714 116.44 21.648 116.62 21.516C116.8 21.372 116.95 21.186 117.07 20.958C117.202 20.718 117.298 20.442 117.358 20.13C117.43 19.806 117.466 19.464 117.466 19.104V19.05ZM36.7757 42.146C36.7757 41.798 36.6617 41.552 36.4337 41.408C36.2177 41.252 35.9597 41.144 35.6597 41.084V40.688C35.7797 40.688 35.9537 40.67 36.1817 40.634C36.4217 40.598 36.6737 40.556 36.9377 40.508C37.2137 40.448 37.4837 40.382 37.7477 40.31C38.0117 40.226 38.2337 40.136 38.4137 40.04H38.8457V46.268C39.1577 45.824 39.4817 45.482 39.8177 45.242C40.1657 44.99 40.5677 44.834 41.0237 44.774C41.1197 44.762 41.2097 44.756 41.2937 44.756C41.3897 44.744 41.4917 44.738 41.5997 44.738C42.2717 44.738 42.7937 44.948 43.1657 45.368C43.5377 45.776 43.7237 46.382 43.7237 47.186V50.714C43.7237 50.834 43.7477 50.954 43.7957 51.074C43.8437 51.182 43.9697 51.272 44.1737 51.344L44.6777 51.524V51.992C44.2937 51.968 43.9217 51.95 43.5617 51.938C43.2137 51.926 42.9317 51.92 42.7157 51.92C42.5117 51.92 42.2117 51.926 41.8157 51.938C41.4197 51.95 41.0357 51.968 40.6637 51.992V51.524L41.2217 51.326C41.3897 51.266 41.5037 51.182 41.5637 51.074C41.6237 50.954 41.6537 50.792 41.6537 50.588V47.402C41.6537 47.006 41.5757 46.694 41.4197 46.466C41.2757 46.238 40.9817 46.124 40.5377 46.124C40.3217 46.124 40.1177 46.172 39.9257 46.268C39.7457 46.352 39.5837 46.46 39.4397 46.592C39.2957 46.712 39.1697 46.85 39.0617 47.006C38.9657 47.15 38.8937 47.276 38.8457 47.384V50.588C38.8457 50.72 38.8697 50.846 38.9177 50.966C38.9657 51.074 39.0557 51.158 39.1877 51.218L39.9617 51.524V51.992C39.7697 51.968 39.4697 51.95 39.0617 51.938C38.6537 51.926 38.2397 51.92 37.8197 51.92C37.3997 51.92 37.0097 51.926 36.6497 51.938C36.3017 51.95 36.0317 51.968 35.8397 51.992V51.524L36.3977 51.326C36.5417 51.266 36.6377 51.17 36.6857 51.038C36.7457 50.906 36.7757 50.768 36.7757 50.624V42.146ZM47.7242 40.85C48.0362 40.85 48.3002 40.97 48.5162 41.21C48.7442 41.438 48.8582 41.708 48.8582 42.02C48.8582 42.296 48.7442 42.548 48.5162 42.776C48.3002 43.004 48.0302 43.118 47.7062 43.118C47.3942 43.118 47.1302 43.016 46.9142 42.812C46.7102 42.596 46.6082 42.332 46.6082 42.02C46.6082 41.708 46.7162 41.438 46.9322 41.21C47.1482 40.97 47.4122 40.85 47.7242 40.85ZM49.5422 51.992C49.3502 51.968 49.0622 51.95 48.6782 51.938C48.2942 51.926 47.8622 51.92 47.3822 51.92C46.9022 51.92 46.4702 51.926 46.0862 51.938C45.7022 51.95 45.4142 51.968 45.2222 51.992V51.524L45.9062 51.344C46.2782 51.272 46.4642 51.05 46.4642 50.678V47.438C46.4642 47.15 46.3922 46.94 46.2482 46.808C46.1042 46.676 45.8162 46.562 45.3842 46.466V46.034C45.5882 45.986 45.8222 45.92 46.0862 45.836C46.3502 45.74 46.6082 45.638 46.8602 45.53C47.1122 45.41 47.3462 45.284 47.5622 45.152C47.7782 45.008 47.9462 44.864 48.0662 44.72C48.1502 44.72 48.2282 44.726 48.3002 44.738C48.3722 44.738 48.4502 44.738 48.5342 44.738V50.732C48.5342 50.912 48.5582 51.05 48.6062 51.146C48.6662 51.23 48.7742 51.29 48.9302 51.326L49.5422 51.524V51.992ZM54.8438 47.114C54.8078 46.946 54.7538 46.766 54.6818 46.574C54.6218 46.37 54.5258 46.184 54.3938 46.016C54.2738 45.848 54.1118 45.71 53.9078 45.602C53.7038 45.482 53.4458 45.422 53.1338 45.422C52.9898 45.422 52.8458 45.434 52.7018 45.458C52.5698 45.482 52.4438 45.524 52.3238 45.584C52.2038 45.644 52.1078 45.728 52.0358 45.836C51.9638 45.944 51.9278 46.082 51.9278 46.25C51.9278 46.43 51.9758 46.586 52.0718 46.718C52.1678 46.838 52.2998 46.946 52.4678 47.042C52.6478 47.126 52.8578 47.204 53.0978 47.276C53.3498 47.348 53.6258 47.426 53.9258 47.51C54.3218 47.618 54.6458 47.744 54.8978 47.888C55.1498 48.032 55.3478 48.194 55.4918 48.374C55.6358 48.554 55.7318 48.752 55.7798 48.968C55.8398 49.172 55.8698 49.394 55.8698 49.634C55.8698 50.114 55.7798 50.522 55.5998 50.858C55.4198 51.182 55.1798 51.446 54.8798 51.65C54.5798 51.842 54.2318 51.986 53.8358 52.082C53.4518 52.166 53.0558 52.208 52.6478 52.208C52.2158 52.208 51.8018 52.172 51.4058 52.1C51.0218 52.016 50.6918 51.896 50.4158 51.74L50.2358 49.526H50.6858C50.8538 50.174 51.1058 50.666 51.4418 51.002C51.7898 51.338 52.2578 51.506 52.8458 51.506C53.1938 51.506 53.5058 51.422 53.7818 51.254C54.0698 51.086 54.2138 50.81 54.2138 50.426C54.2138 50.078 54.0878 49.826 53.8358 49.67C53.5958 49.502 53.1758 49.346 52.5758 49.202C51.6998 48.998 51.0878 48.722 50.7398 48.374C50.3918 48.014 50.2178 47.522 50.2178 46.898C50.2178 46.538 50.3018 46.226 50.4698 45.962C50.6498 45.686 50.8778 45.458 51.1538 45.278C51.4418 45.098 51.7598 44.966 52.1078 44.882C52.4678 44.786 52.8338 44.738 53.2058 44.738C53.5778 44.738 53.9438 44.774 54.3038 44.846C54.6638 44.918 54.9638 45.026 55.2038 45.17L55.3118 47.114H54.8438ZM59.4045 43.244H59.8005C59.8005 43.568 59.8005 43.892 59.8005 44.216C59.8125 44.528 59.8185 44.846 59.8185 45.17L62.0685 45.116V45.962L59.8185 46.034V49.274C59.8185 49.802 59.8845 50.192 60.0165 50.444C60.1485 50.696 60.4245 50.822 60.8445 50.822C61.0245 50.822 61.2225 50.804 61.4385 50.768C61.6545 50.72 61.8885 50.588 62.1405 50.372L62.3025 50.624C62.2185 50.792 62.1045 50.972 61.9605 51.164C61.8165 51.344 61.6365 51.512 61.4205 51.668C61.2165 51.824 60.9825 51.956 60.7185 52.064C60.4545 52.16 60.1545 52.208 59.8185 52.208C59.1465 52.208 58.6365 52.04 58.2885 51.704C57.9525 51.356 57.7845 50.768 57.7845 49.94V46.07C57.6165 46.07 57.4545 46.076 57.2985 46.088C57.1425 46.088 56.9805 46.088 56.8125 46.088C56.6445 46.088 56.5545 46.01 56.5425 45.854C56.5425 45.698 56.6265 45.584 56.7945 45.512C57.0585 45.404 57.2985 45.29 57.5145 45.17C57.7425 45.05 57.9285 44.93 58.0725 44.81C58.1445 44.75 58.2405 44.672 58.3605 44.576C58.4925 44.468 58.6245 44.348 58.7565 44.216C58.8885 44.084 59.0085 43.934 59.1165 43.766C59.2365 43.598 59.3325 43.424 59.4045 43.244ZM66.6549 52.208C66.0189 52.208 65.4669 52.118 64.9989 51.938C64.5309 51.746 64.1349 51.482 63.8109 51.146C63.4989 50.81 63.2649 50.42 63.1089 49.976C62.9529 49.52 62.8749 49.022 62.8749 48.482C62.8749 47.93 62.9529 47.426 63.1089 46.97C63.2649 46.502 63.4989 46.106 63.8109 45.782C64.1349 45.446 64.5429 45.188 65.0349 45.008C65.5269 44.816 66.1149 44.72 66.7989 44.72C67.4829 44.72 68.0649 44.816 68.5449 45.008C69.0369 45.2 69.4389 45.47 69.7509 45.818C70.0749 46.154 70.3089 46.556 70.4529 47.024C70.6089 47.48 70.6869 47.978 70.6869 48.518C70.6869 49.07 70.5909 49.574 70.3989 50.03C70.2189 50.474 69.9549 50.858 69.6069 51.182C69.2709 51.506 68.8509 51.758 68.3469 51.938C67.8429 52.118 67.2789 52.208 66.6549 52.208ZM65.1429 48.608C65.1429 49.508 65.2749 50.222 65.5389 50.75C65.8149 51.266 66.2169 51.524 66.7449 51.524C67.2609 51.524 67.6629 51.248 67.9509 50.696C68.2389 50.144 68.3829 49.412 68.3829 48.5C68.3829 47.588 68.2449 46.85 67.9689 46.286C67.7049 45.71 67.2969 45.422 66.7449 45.422C66.2049 45.422 65.8029 45.692 65.5389 46.232C65.2749 46.76 65.1429 47.552 65.1429 48.608ZM71.4496 51.992V51.704L71.9896 51.542C72.2296 51.47 72.3796 51.38 72.4396 51.272C72.5116 51.152 72.5476 50.936 72.5476 50.624V47.168C72.5476 46.928 72.4996 46.748 72.4036 46.628C72.3076 46.508 72.0796 46.424 71.7196 46.376L71.4136 46.34V45.998C71.6416 45.938 71.8876 45.86 72.1516 45.764C72.4276 45.656 72.6916 45.536 72.9436 45.404C73.2076 45.26 73.4476 45.098 73.6636 44.918C73.8916 44.738 74.0776 44.54 74.2216 44.324H74.5456C74.5456 44.672 74.5516 44.996 74.5636 45.296C74.5756 45.596 74.5936 45.944 74.6176 46.34C74.7136 46.136 74.8036 45.956 74.8876 45.8C74.9836 45.644 75.1276 45.452 75.3196 45.224C75.4996 45.008 75.6856 44.876 75.8776 44.828C76.0696 44.768 76.2436 44.738 76.3996 44.738C76.6996 44.738 76.9636 44.828 77.1916 45.008C77.4196 45.188 77.5336 45.488 77.5336 45.908C77.5336 46.292 77.4496 46.604 77.2816 46.844C77.1136 47.072 76.8616 47.186 76.5256 47.186C76.3576 47.186 76.2136 47.138 76.0936 47.042C75.9856 46.946 75.8896 46.844 75.8056 46.736C75.7336 46.628 75.6616 46.526 75.5896 46.43C75.5176 46.334 75.4456 46.286 75.3736 46.286C75.2056 46.286 75.0556 46.4 74.9236 46.628C74.8036 46.856 74.7196 47.138 74.6716 47.474C74.6476 47.618 74.6296 47.75 74.6176 47.87C74.6056 47.978 74.6056 48.074 74.6176 48.158V50.66C74.6176 50.936 74.6716 51.122 74.7796 51.218C74.8876 51.314 75.1036 51.41 75.4276 51.506L76.0216 51.686V51.974C75.7576 51.95 75.4576 51.938 75.1216 51.938C74.7856 51.926 74.4676 51.92 74.1676 51.92H73.7536C73.3576 51.92 72.9616 51.926 72.5656 51.938C72.1696 51.95 71.7976 51.968 71.4496 51.992ZM80.6832 40.85C80.9952 40.85 81.2592 40.97 81.4752 41.21C81.7032 41.438 81.8172 41.708 81.8172 42.02C81.8172 42.296 81.7032 42.548 81.4752 42.776C81.2592 43.004 80.9892 43.118 80.6652 43.118C80.3532 43.118 80.0892 43.016 79.8732 42.812C79.6692 42.596 79.5672 42.332 79.5672 42.02C79.5672 41.708 79.6752 41.438 79.8912 41.21C80.1072 40.97 80.3712 40.85 80.6832 40.85ZM82.5012 51.992C82.3092 51.968 82.0212 51.95 81.6372 51.938C81.2532 51.926 80.8212 51.92 80.3412 51.92C79.8612 51.92 79.4292 51.926 79.0452 51.938C78.6612 51.95 78.3732 51.968 78.1812 51.992V51.524L78.8652 51.344C79.2372 51.272 79.4232 51.05 79.4232 50.678V47.438C79.4232 47.15 79.3512 46.94 79.2072 46.808C79.0632 46.676 78.7752 46.562 78.3432 46.466V46.034C78.5472 45.986 78.7812 45.92 79.0452 45.836C79.3092 45.74 79.5672 45.638 79.8192 45.53C80.0712 45.41 80.3052 45.284 80.5212 45.152C80.7372 45.008 80.9052 44.864 81.0252 44.72C81.1092 44.72 81.1872 44.726 81.2592 44.738C81.3312 44.738 81.4092 44.738 81.4932 44.738V50.732C81.4932 50.912 81.5172 51.05 81.5652 51.146C81.6252 51.23 81.7332 51.29 81.8892 51.326L82.5012 51.524V51.992ZM89.6928 50.228C89.5608 50.444 89.4048 50.672 89.2248 50.912C89.0568 51.14 88.8468 51.35 88.5948 51.542C88.3548 51.734 88.0728 51.896 87.7488 52.028C87.4248 52.148 87.0588 52.208 86.6508 52.208C85.5948 52.208 84.7548 51.89 84.1308 51.254C83.5188 50.606 83.2128 49.724 83.2128 48.608C83.2128 48.032 83.3148 47.51 83.5188 47.042C83.7228 46.562 84.0048 46.154 84.3648 45.818C84.7248 45.47 85.1448 45.206 85.6248 45.026C86.1168 44.834 86.6508 44.738 87.2268 44.738C87.8748 44.738 88.4088 44.84 88.8288 45.044C89.2488 45.248 89.4588 45.542 89.4588 45.926C89.4588 46.166 89.3928 46.352 89.2608 46.484C89.1408 46.616 88.9848 46.682 88.7928 46.682C88.6128 46.682 88.4388 46.622 88.2708 46.502C88.1028 46.37 87.9288 46.232 87.7488 46.088C87.5688 45.944 87.3828 45.812 87.1908 45.692C87.0108 45.56 86.8248 45.494 86.6328 45.494C86.3688 45.494 86.1468 45.578 85.9668 45.746C85.7868 45.902 85.6368 46.106 85.5168 46.358C85.4088 46.61 85.3308 46.892 85.2828 47.204C85.2348 47.504 85.2108 47.798 85.2108 48.086C85.2108 48.506 85.2648 48.872 85.3728 49.184C85.4808 49.484 85.6308 49.736 85.8228 49.94C86.0148 50.144 86.2368 50.306 86.4888 50.426C86.7408 50.534 87.0048 50.606 87.2808 50.642C87.7128 50.714 88.1208 50.678 88.5048 50.534C88.9008 50.378 89.2548 50.162 89.5668 49.886L89.6928 50.228ZM93.2977 52.19C92.8057 52.19 92.3797 52.106 92.0197 51.938C91.6717 51.758 91.3837 51.518 91.1557 51.218C90.9397 50.918 90.7777 50.564 90.6697 50.156C90.5617 49.748 90.5077 49.31 90.5077 48.842C90.5077 48.206 90.6037 47.642 90.7957 47.15C90.9877 46.658 91.2457 46.244 91.5697 45.908C91.8937 45.572 92.2717 45.32 92.7037 45.152C93.1357 44.972 93.5917 44.882 94.0717 44.882C94.4077 44.882 94.7017 44.906 94.9537 44.954C95.2057 45.002 95.4157 45.056 95.5837 45.116C95.7877 45.176 95.9557 45.248 96.0877 45.332L97.2757 44.666L97.4377 44.72V50.264C97.4377 50.744 97.6417 50.972 98.0497 50.948C98.1457 50.948 98.2177 50.936 98.2657 50.912C98.3257 50.876 98.3797 50.846 98.4277 50.822C98.4757 50.786 98.5177 50.75 98.5537 50.714L98.6617 50.966C98.5657 51.194 98.4397 51.398 98.2837 51.578C98.1517 51.734 97.9717 51.878 97.7437 52.01C97.5277 52.13 97.2577 52.19 96.9337 52.19C96.4057 52.19 96.0277 52.034 95.7997 51.722C95.5837 51.398 95.4757 51.008 95.4757 50.552V50.12C95.4157 50.384 95.3257 50.642 95.2057 50.894C95.0977 51.134 94.9597 51.35 94.7917 51.542C94.6237 51.734 94.4137 51.89 94.1617 52.01C93.9217 52.13 93.6337 52.19 93.2977 52.19ZM95.4757 48.05C95.4757 47.798 95.4637 47.534 95.4397 47.258C95.4157 46.982 95.3617 46.73 95.2777 46.502C95.1937 46.262 95.0617 46.064 94.8817 45.908C94.7137 45.752 94.4797 45.674 94.1797 45.674C94.0117 45.674 93.8317 45.722 93.6397 45.818C93.4597 45.902 93.2917 46.046 93.1357 46.25C92.9797 46.454 92.8477 46.736 92.7397 47.096C92.6437 47.444 92.5957 47.876 92.5957 48.392C92.5957 48.752 92.6197 49.094 92.6677 49.418C92.7277 49.742 92.8177 50.024 92.9377 50.264C93.0577 50.504 93.2017 50.696 93.3697 50.84C93.5497 50.972 93.7597 51.038 93.9997 51.038C94.2397 51.038 94.4497 50.96 94.6297 50.804C94.8097 50.648 94.9597 50.444 95.0797 50.192C95.2117 49.928 95.3077 49.628 95.3677 49.292C95.4397 48.956 95.4757 48.608 95.4757 48.248V48.05ZM103.525 51.974C103.237 51.962 102.901 51.95 102.517 51.938C102.145 51.926 101.761 51.92 101.365 51.92C100.969 51.92 100.579 51.926 100.195 51.938C99.8226 51.95 99.4926 51.962 99.2046 51.974V51.506L100.033 51.29C100.189 51.254 100.297 51.206 100.357 51.146C100.417 51.086 100.447 50.966 100.447 50.786V42.002C100.447 41.75 100.375 41.564 100.231 41.444C100.087 41.324 99.7686 41.192 99.2766 41.048V40.634C99.3966 40.61 99.5706 40.58 99.7986 40.544C100.027 40.508 100.279 40.466 100.555 40.418C100.831 40.37 101.107 40.316 101.383 40.256C101.659 40.184 101.899 40.112 102.103 40.04H102.517V50.75C102.517 50.99 102.541 51.14 102.589 51.2C102.637 51.248 102.751 51.296 102.931 51.344L103.525 51.506V51.974ZM108.592 51.992V51.704L109.132 51.542C109.372 51.47 109.522 51.38 109.582 51.272C109.654 51.152 109.69 50.936 109.69 50.624V47.168C109.69 46.928 109.642 46.748 109.546 46.628C109.45 46.508 109.222 46.424 108.862 46.376L108.556 46.34V45.998C108.784 45.938 109.03 45.86 109.294 45.764C109.57 45.656 109.834 45.536 110.086 45.404C110.35 45.26 110.59 45.098 110.806 44.918C111.034 44.738 111.22 44.54 111.364 44.324H111.688C111.688 44.672 111.694 44.996 111.706 45.296C111.718 45.596 111.736 45.944 111.76 46.34C111.856 46.136 111.946 45.956 112.03 45.8C112.126 45.644 112.27 45.452 112.462 45.224C112.642 45.008 112.828 44.876 113.02 44.828C113.212 44.768 113.386 44.738 113.542 44.738C113.842 44.738 114.106 44.828 114.334 45.008C114.562 45.188 114.676 45.488 114.676 45.908C114.676 46.292 114.592 46.604 114.424 46.844C114.256 47.072 114.004 47.186 113.668 47.186C113.5 47.186 113.356 47.138 113.236 47.042C113.128 46.946 113.032 46.844 112.948 46.736C112.876 46.628 112.804 46.526 112.732 46.43C112.66 46.334 112.588 46.286 112.516 46.286C112.348 46.286 112.198 46.4 112.066 46.628C111.946 46.856 111.862 47.138 111.814 47.474C111.79 47.618 111.772 47.75 111.76 47.87C111.748 47.978 111.748 48.074 111.76 48.158V50.66C111.76 50.936 111.814 51.122 111.922 51.218C112.03 51.314 112.246 51.41 112.57 51.506L113.164 51.686V51.974C112.9 51.95 112.6 51.938 112.264 51.938C111.928 51.926 111.61 51.92 111.31 51.92H110.896C110.5 51.92 110.104 51.926 109.708 51.938C109.312 51.95 108.94 51.968 108.592 51.992ZM122.128 47.69H117.664C117.64 47.81 117.622 47.882 117.61 47.906C117.61 47.93 117.61 48.002 117.61 48.122C117.61 48.506 117.664 48.86 117.772 49.184C117.88 49.496 118.03 49.772 118.222 50.012C118.426 50.24 118.666 50.42 118.942 50.552C119.23 50.684 119.542 50.75 119.878 50.75C120.298 50.75 120.682 50.696 121.03 50.588C121.39 50.468 121.768 50.216 122.164 49.832L122.236 50.102C122.092 50.378 121.924 50.642 121.732 50.894C121.552 51.146 121.33 51.368 121.066 51.56C120.802 51.752 120.49 51.908 120.13 52.028C119.782 52.148 119.368 52.208 118.888 52.208C118.384 52.208 117.922 52.124 117.502 51.956C117.082 51.776 116.722 51.524 116.422 51.2C116.134 50.876 115.906 50.486 115.738 50.03C115.582 49.574 115.504 49.064 115.504 48.5C115.504 47.936 115.588 47.426 115.756 46.97C115.936 46.502 116.182 46.106 116.494 45.782C116.818 45.446 117.208 45.188 117.664 45.008C118.12 44.828 118.63 44.738 119.194 44.738C119.71 44.738 120.148 44.816 120.508 44.972C120.868 45.128 121.162 45.344 121.39 45.62C121.63 45.884 121.804 46.196 121.912 46.556C122.032 46.916 122.104 47.294 122.128 47.69ZM117.754 47.024H119.446C119.77 47.024 119.932 46.868 119.932 46.556C119.932 46.208 119.878 45.914 119.77 45.674C119.662 45.422 119.446 45.296 119.122 45.296C118.45 45.296 117.994 45.872 117.754 47.024ZM126.301 45.026L128.587 45.08V45.71L126.337 45.782V50.12C126.337 50.504 126.397 50.792 126.517 50.984C126.649 51.164 126.841 51.278 127.093 51.326L128.065 51.506V51.974C127.309 51.938 126.505 51.92 125.653 51.92H125.095C124.687 51.92 124.273 51.926 123.853 51.938C123.445 51.938 123.151 51.95 122.971 51.974V51.524L123.529 51.398C123.709 51.362 123.847 51.326 123.943 51.29C124.039 51.242 124.111 51.182 124.159 51.11C124.207 51.026 124.237 50.918 124.249 50.786C124.261 50.654 124.267 50.48 124.267 50.264V45.998C124.039 45.95 123.601 45.914 122.953 45.89V45.62C123.241 45.5 123.469 45.398 123.637 45.314C123.805 45.218 123.931 45.134 124.015 45.062C124.111 44.99 124.171 44.918 124.195 44.846C124.219 44.774 124.231 44.696 124.231 44.612C124.231 44.504 124.243 44.318 124.267 44.054C124.291 43.778 124.345 43.472 124.429 43.136C124.525 42.788 124.657 42.434 124.825 42.074C124.993 41.714 125.215 41.384 125.491 41.084C125.779 40.772 126.127 40.52 126.535 40.328C126.955 40.136 127.459 40.04 128.047 40.04C128.143 40.04 128.239 40.046 128.335 40.058C128.431 40.058 128.527 40.064 128.623 40.076C129.007 40.136 129.331 40.25 129.595 40.418C129.871 40.574 130.009 40.82 130.009 41.156C130.009 41.504 129.919 41.78 129.739 41.984C129.571 42.188 129.313 42.29 128.965 42.29C128.689 42.29 128.467 42.224 128.299 42.092C128.143 41.948 128.011 41.792 127.903 41.624C127.795 41.444 127.699 41.288 127.615 41.156C127.543 41.012 127.465 40.94 127.381 40.94C127.081 40.94 126.853 41.03 126.697 41.21C126.553 41.378 126.445 41.6 126.373 41.876C126.313 42.14 126.283 42.44 126.283 42.776C126.283 43.112 126.283 43.442 126.283 43.766C126.283 44.09 126.283 44.36 126.283 44.576C126.283 44.78 126.289 44.93 126.301 45.026ZM136.19 47.69H131.726C131.702 47.81 131.684 47.882 131.672 47.906C131.672 47.93 131.672 48.002 131.672 48.122C131.672 48.506 131.726 48.86 131.834 49.184C131.942 49.496 132.092 49.772 132.284 50.012C132.488 50.24 132.728 50.42 133.004 50.552C133.292 50.684 133.604 50.75 133.94 50.75C134.36 50.75 134.744 50.696 135.092 50.588C135.452 50.468 135.83 50.216 136.226 49.832L136.298 50.102C136.154 50.378 135.986 50.642 135.794 50.894C135.614 51.146 135.392 51.368 135.128 51.56C134.864 51.752 134.552 51.908 134.192 52.028C133.844 52.148 133.43 52.208 132.95 52.208C132.446 52.208 131.984 52.124 131.564 51.956C131.144 51.776 130.784 51.524 130.484 51.2C130.196 50.876 129.968 50.486 129.8 50.03C129.644 49.574 129.566 49.064 129.566 48.5C129.566 47.936 129.65 47.426 129.818 46.97C129.998 46.502 130.244 46.106 130.556 45.782C130.88 45.446 131.27 45.188 131.726 45.008C132.182 44.828 132.692 44.738 133.256 44.738C133.772 44.738 134.21 44.816 134.57 44.972C134.93 45.128 135.224 45.344 135.452 45.62C135.692 45.884 135.866 46.196 135.974 46.556C136.094 46.916 136.166 47.294 136.19 47.69ZM131.816 47.024H133.508C133.832 47.024 133.994 46.868 133.994 46.556C133.994 46.208 133.94 45.914 133.832 45.674C133.724 45.422 133.508 45.296 133.184 45.296C132.512 45.296 132.056 45.872 131.816 47.024ZM137.051 51.992V51.704L137.591 51.542C137.831 51.47 137.981 51.38 138.041 51.272C138.113 51.152 138.149 50.936 138.149 50.624V47.168C138.149 46.928 138.101 46.748 138.005 46.628C137.909 46.508 137.681 46.424 137.321 46.376L137.015 46.34V45.998C137.243 45.938 137.489 45.86 137.753 45.764C138.029 45.656 138.293 45.536 138.545 45.404C138.809 45.26 139.049 45.098 139.265 44.918C139.493 44.738 139.679 44.54 139.823 44.324H140.147C140.147 44.672 140.153 44.996 140.165 45.296C140.177 45.596 140.195 45.944 140.219 46.34C140.315 46.136 140.405 45.956 140.489 45.8C140.585 45.644 140.729 45.452 140.921 45.224C141.101 45.008 141.287 44.876 141.479 44.828C141.671 44.768 141.845 44.738 142.001 44.738C142.301 44.738 142.565 44.828 142.793 45.008C143.021 45.188 143.135 45.488 143.135 45.908C143.135 46.292 143.051 46.604 142.883 46.844C142.715 47.072 142.463 47.186 142.127 47.186C141.959 47.186 141.815 47.138 141.695 47.042C141.587 46.946 141.491 46.844 141.407 46.736C141.335 46.628 141.263 46.526 141.191 46.43C141.119 46.334 141.047 46.286 140.975 46.286C140.807 46.286 140.657 46.4 140.525 46.628C140.405 46.856 140.321 47.138 140.273 47.474C140.249 47.618 140.231 47.75 140.219 47.87C140.207 47.978 140.207 48.074 140.219 48.158V50.66C140.219 50.936 140.273 51.122 140.381 51.218C140.489 51.314 140.705 51.41 141.029 51.506L141.623 51.686V51.974C141.359 51.95 141.059 51.938 140.723 51.938C140.387 51.926 140.069 51.92 139.769 51.92H139.355C138.959 51.92 138.563 51.926 138.167 51.938C137.771 51.95 137.399 51.968 137.051 51.992ZM150.587 47.69H146.123C146.099 47.81 146.081 47.882 146.069 47.906C146.069 47.93 146.069 48.002 146.069 48.122C146.069 48.506 146.123 48.86 146.231 49.184C146.339 49.496 146.489 49.772 146.681 50.012C146.885 50.24 147.125 50.42 147.401 50.552C147.689 50.684 148.001 50.75 148.337 50.75C148.757 50.75 149.141 50.696 149.489 50.588C149.849 50.468 150.227 50.216 150.623 49.832L150.695 50.102C150.551 50.378 150.383 50.642 150.191 50.894C150.011 51.146 149.789 51.368 149.525 51.56C149.261 51.752 148.949 51.908 148.589 52.028C148.241 52.148 147.827 52.208 147.347 52.208C146.843 52.208 146.381 52.124 145.961 51.956C145.541 51.776 145.181 51.524 144.881 51.2C144.593 50.876 144.365 50.486 144.197 50.03C144.041 49.574 143.963 49.064 143.963 48.5C143.963 47.936 144.047 47.426 144.215 46.97C144.395 46.502 144.641 46.106 144.953 45.782C145.277 45.446 145.667 45.188 146.123 45.008C146.579 44.828 147.089 44.738 147.653 44.738C148.169 44.738 148.607 44.816 148.967 44.972C149.327 45.128 149.621 45.344 149.849 45.62C150.089 45.884 150.263 46.196 150.371 46.556C150.491 46.916 150.563 47.294 150.587 47.69ZM146.213 47.024H147.905C148.229 47.024 148.391 46.868 148.391 46.556C148.391 46.208 148.337 45.914 148.229 45.674C148.121 45.422 147.905 45.296 147.581 45.296C146.909 45.296 146.453 45.872 146.213 47.024ZM160.412 51.974C159.788 51.938 159.092 51.92 158.324 51.92C157.568 51.92 156.878 51.938 156.254 51.974V51.524L156.884 51.38C157.148 51.344 157.28 51.11 157.28 50.678V47.654C157.28 47.39 157.268 47.162 157.244 46.97C157.232 46.766 157.19 46.598 157.118 46.466C157.058 46.322 156.956 46.22 156.812 46.16C156.68 46.088 156.494 46.052 156.254 46.052C155.978 46.052 155.684 46.142 155.372 46.322C155.072 46.49 154.82 46.694 154.616 46.934V50.876C154.616 51.068 154.76 51.2 155.048 51.272L155.57 51.524V51.974C155.462 51.962 155.354 51.956 155.246 51.956C155.15 51.944 155.042 51.938 154.922 51.938C154.802 51.926 154.67 51.92 154.526 51.92C154.382 51.92 154.202 51.92 153.986 51.92H153.428C153.044 51.92 152.654 51.926 152.258 51.938C151.874 51.938 151.592 51.95 151.412 51.974V51.524L152.186 51.344C152.306 51.32 152.396 51.266 152.456 51.182C152.516 51.098 152.546 50.972 152.546 50.804V47.258C152.546 46.886 152.468 46.634 152.312 46.502C152.168 46.37 151.904 46.274 151.52 46.214V45.872C151.712 45.824 151.934 45.764 152.186 45.692C152.45 45.62 152.708 45.53 152.96 45.422C153.212 45.302 153.446 45.164 153.662 45.008C153.878 44.84 154.04 44.642 154.148 44.414H154.616V46.16C154.976 45.716 155.366 45.368 155.786 45.116C156.206 44.864 156.626 44.738 157.046 44.738C157.742 44.738 158.3 44.942 158.72 45.35C159.14 45.758 159.35 46.376 159.35 47.204V50.624C159.35 50.864 159.38 51.038 159.44 51.146C159.5 51.254 159.62 51.332 159.8 51.38L160.412 51.524V51.974ZM167.617 50.228C167.485 50.444 167.329 50.672 167.149 50.912C166.981 51.14 166.771 51.35 166.519 51.542C166.279 51.734 165.997 51.896 165.673 52.028C165.349 52.148 164.983 52.208 164.575 52.208C163.519 52.208 162.679 51.89 162.055 51.254C161.443 50.606 161.137 49.724 161.137 48.608C161.137 48.032 161.239 47.51 161.443 47.042C161.647 46.562 161.929 46.154 162.289 45.818C162.649 45.47 163.069 45.206 163.549 45.026C164.041 44.834 164.575 44.738 165.151 44.738C165.799 44.738 166.333 44.84 166.753 45.044C167.173 45.248 167.383 45.542 167.383 45.926C167.383 46.166 167.317 46.352 167.185 46.484C167.065 46.616 166.909 46.682 166.717 46.682C166.537 46.682 166.363 46.622 166.195 46.502C166.027 46.37 165.853 46.232 165.673 46.088C165.493 45.944 165.307 45.812 165.115 45.692C164.935 45.56 164.749 45.494 164.557 45.494C164.293 45.494 164.071 45.578 163.891 45.746C163.711 45.902 163.561 46.106 163.441 46.358C163.333 46.61 163.255 46.892 163.207 47.204C163.159 47.504 163.135 47.798 163.135 48.086C163.135 48.506 163.189 48.872 163.297 49.184C163.405 49.484 163.555 49.736 163.747 49.94C163.939 50.144 164.161 50.306 164.413 50.426C164.665 50.534 164.929 50.606 165.205 50.642C165.637 50.714 166.045 50.678 166.429 50.534C166.825 50.378 167.179 50.162 167.491 49.886L167.617 50.228ZM175.056 47.69H170.592C170.568 47.81 170.55 47.882 170.538 47.906C170.538 47.93 170.538 48.002 170.538 48.122C170.538 48.506 170.592 48.86 170.7 49.184C170.808 49.496 170.958 49.772 171.15 50.012C171.354 50.24 171.594 50.42 171.87 50.552C172.158 50.684 172.47 50.75 172.806 50.75C173.226 50.75 173.61 50.696 173.958 50.588C174.318 50.468 174.696 50.216 175.092 49.832L175.164 50.102C175.02 50.378 174.852 50.642 174.66 50.894C174.48 51.146 174.258 51.368 173.994 51.56C173.73 51.752 173.418 51.908 173.058 52.028C172.71 52.148 172.296 52.208 171.816 52.208C171.312 52.208 170.85 52.124 170.43 51.956C170.01 51.776 169.65 51.524 169.35 51.2C169.062 50.876 168.834 50.486 168.666 50.03C168.51 49.574 168.432 49.064 168.432 48.5C168.432 47.936 168.516 47.426 168.684 46.97C168.864 46.502 169.11 46.106 169.422 45.782C169.746 45.446 170.136 45.188 170.592 45.008C171.048 44.828 171.558 44.738 172.122 44.738C172.638 44.738 173.076 44.816 173.436 44.972C173.796 45.128 174.09 45.344 174.318 45.62C174.558 45.884 174.732 46.196 174.84 46.556C174.96 46.916 175.032 47.294 175.056 47.69ZM170.682 47.024H172.374C172.698 47.024 172.86 46.868 172.86 46.556C172.86 46.208 172.806 45.914 172.698 45.674C172.59 45.422 172.374 45.296 172.05 45.296C171.378 45.296 170.922 45.872 170.682 47.024Z" fill="black"/>
<path d="M124.104 16.008C124.368 16.044 124.926 16.062 125.778 16.062C126.642 16.062 127.254 16.044 127.614 16.008V16.44C127.482 16.44 127.38 16.476 127.308 16.548C127.236 16.608 127.23 16.71 127.29 16.854L128.928 20.85L129.954 18.78L129.378 17.376C129.246 17.052 129.132 16.842 129.036 16.746C128.94 16.65 128.838 16.59 128.73 16.566L128.244 16.44V16.008C128.412 16.032 128.646 16.05 128.946 16.062C129.258 16.062 129.666 16.062 130.17 16.062C131.142 16.062 131.784 16.044 132.096 16.008V16.44L131.844 16.476C131.376 16.548 131.208 16.722 131.34 16.998L132.924 20.742L134.274 17.7C134.382 17.46 134.382 17.226 134.274 16.998C134.178 16.758 134.004 16.614 133.752 16.566L133.014 16.44V16.008C133.278 16.044 133.782 16.062 134.526 16.062C134.91 16.062 135.258 16.062 135.57 16.062C135.882 16.05 136.122 16.032 136.29 16.008V16.44L135.84 16.53C135.648 16.566 135.474 16.674 135.318 16.854C135.174 17.034 135.042 17.262 134.922 17.538L132.366 23.334H131.826L130.224 19.464L128.352 23.334H127.83L124.986 17.034C124.842 16.71 124.614 16.53 124.302 16.494L124.104 16.44V16.008ZM138.972 11.85C139.284 11.85 139.548 11.97 139.764 12.21C139.992 12.438 140.106 12.708 140.106 13.02C140.106 13.296 139.992 13.548 139.764 13.776C139.548 14.004 139.278 14.118 138.954 14.118C138.642 14.118 138.378 14.016 138.162 13.812C137.958 13.596 137.856 13.332 137.856 13.02C137.856 12.708 137.964 12.438 138.18 12.21C138.396 11.97 138.66 11.85 138.972 11.85ZM140.79 22.992C140.598 22.968 140.31 22.95 139.926 22.938C139.542 22.926 139.11 22.92 138.63 22.92C138.15 22.92 137.718 22.926 137.334 22.938C136.95 22.95 136.662 22.968 136.47 22.992V22.524L137.154 22.344C137.526 22.272 137.712 22.05 137.712 21.678V18.438C137.712 18.15 137.64 17.94 137.496 17.808C137.352 17.676 137.064 17.562 136.632 17.466V17.034C136.836 16.986 137.07 16.92 137.334 16.836C137.598 16.74 137.856 16.638 138.108 16.53C138.36 16.41 138.594 16.284 138.81 16.152C139.026 16.008 139.194 15.864 139.314 15.72C139.398 15.72 139.476 15.726 139.548 15.738C139.62 15.738 139.698 15.738 139.782 15.738V21.732C139.782 21.912 139.806 22.05 139.854 22.146C139.914 22.23 140.022 22.29 140.178 22.326L140.79 22.524V22.992ZM144.184 14.244H144.58C144.58 14.568 144.58 14.892 144.58 15.216C144.592 15.528 144.598 15.846 144.598 16.17L146.848 16.116V16.962L144.598 17.034V20.274C144.598 20.802 144.664 21.192 144.796 21.444C144.928 21.696 145.204 21.822 145.624 21.822C145.804 21.822 146.002 21.804 146.218 21.768C146.434 21.72 146.668 21.588 146.92 21.372L147.082 21.624C146.998 21.792 146.884 21.972 146.74 22.164C146.596 22.344 146.416 22.512 146.2 22.668C145.996 22.824 145.762 22.956 145.498 23.064C145.234 23.16 144.934 23.208 144.598 23.208C143.926 23.208 143.416 23.04 143.068 22.704C142.732 22.356 142.564 21.768 142.564 20.94V17.07C142.396 17.07 142.234 17.076 142.078 17.088C141.922 17.088 141.76 17.088 141.592 17.088C141.424 17.088 141.334 17.01 141.322 16.854C141.322 16.698 141.406 16.584 141.574 16.512C141.838 16.404 142.078 16.29 142.294 16.17C142.522 16.05 142.708 15.93 142.852 15.81C142.924 15.75 143.02 15.672 143.14 15.576C143.272 15.468 143.404 15.348 143.536 15.216C143.668 15.084 143.788 14.934 143.896 14.766C144.016 14.598 144.112 14.424 144.184 14.244ZM148.59 13.146C148.59 12.798 148.476 12.552 148.248 12.408C148.032 12.252 147.774 12.144 147.474 12.084V11.688C147.594 11.688 147.768 11.67 147.996 11.634C148.236 11.598 148.488 11.556 148.752 11.508C149.028 11.448 149.298 11.382 149.562 11.31C149.826 11.226 150.048 11.136 150.228 11.04H150.66V17.268C150.972 16.824 151.296 16.482 151.632 16.242C151.98 15.99 152.382 15.834 152.838 15.774C152.934 15.762 153.024 15.756 153.108 15.756C153.204 15.744 153.306 15.738 153.414 15.738C154.086 15.738 154.608 15.948 154.98 16.368C155.352 16.776 155.538 17.382 155.538 18.186V21.714C155.538 21.834 155.562 21.954 155.61 22.074C155.658 22.182 155.784 22.272 155.988 22.344L156.492 22.524V22.992C156.108 22.968 155.736 22.95 155.376 22.938C155.028 22.926 154.746 22.92 154.53 22.92C154.326 22.92 154.026 22.926 153.63 22.938C153.234 22.95 152.85 22.968 152.478 22.992V22.524L153.036 22.326C153.204 22.266 153.318 22.182 153.378 22.074C153.438 21.954 153.468 21.792 153.468 21.588V18.402C153.468 18.006 153.39 17.694 153.234 17.466C153.09 17.238 152.796 17.124 152.352 17.124C152.136 17.124 151.932 17.172 151.74 17.268C151.56 17.352 151.398 17.46 151.254 17.592C151.11 17.712 150.984 17.85 150.876 18.006C150.78 18.15 150.708 18.276 150.66 18.384V21.588C150.66 21.72 150.684 21.846 150.732 21.966C150.78 22.074 150.87 22.158 151.002 22.218L151.776 22.524V22.992C151.584 22.968 151.284 22.95 150.876 22.938C150.468 22.926 150.054 22.92 149.634 22.92C149.214 22.92 148.824 22.926 148.464 22.938C148.116 22.95 147.846 22.968 147.654 22.992V22.524L148.212 22.326C148.356 22.266 148.452 22.17 148.5 22.038C148.56 21.906 148.59 21.768 148.59 21.624V13.146Z" fill="#4AA900"/>
<rect x="1" y="1" width="209" height="63" rx="16" stroke="black" stroke-width="2"/>
</svg>
