<svg width="289" height="65" viewBox="0 0 289 65" fill="none" xmlns="http://www.w3.org/2000/svg">
<path d="M56.9443 14.67C57.5323 14.67 58.0243 14.67 58.4203 14.67C58.8163 14.658 59.1163 14.646 59.3203 14.634L61.9123 14.49C62.0923 14.478 62.2243 14.472 62.3083 14.472C62.4043 14.472 62.4823 14.472 62.5423 14.472C63.7663 14.472 64.7263 14.766 65.4223 15.354C66.1303 15.942 66.4843 16.752 66.4843 17.784C66.4843 18.288 66.3823 18.744 66.1783 19.152C65.9863 19.548 65.7223 19.89 65.3863 20.178C65.0503 20.454 64.6663 20.67 64.2343 20.826C63.8143 20.97 63.3703 21.042 62.9023 21.042C62.5423 21.042 62.2243 20.994 61.9483 20.898C61.6723 20.79 61.4263 20.616 61.2103 20.376L61.2823 20.25C61.4383 20.31 61.6003 20.352 61.7683 20.376C61.9363 20.388 62.0983 20.394 62.2543 20.394C62.9023 20.394 63.4363 20.196 63.8563 19.8C64.2883 19.392 64.5043 18.75 64.5043 17.874C64.5043 17.13 64.3003 16.5 63.8923 15.984C63.4843 15.468 62.8543 15.186 62.0023 15.138C61.7143 15.126 61.4563 15.126 61.2283 15.138C60.9883 15.138 60.7723 15.18 60.5803 15.264V24.678C60.5803 24.858 60.6163 25.002 60.6883 25.11C60.7723 25.206 60.9463 25.284 61.2103 25.344L62.3803 25.578V25.992C61.8763 25.968 61.4143 25.95 60.9943 25.938C60.5743 25.926 60.2143 25.92 59.9143 25.92C59.5903 25.92 59.2243 25.926 58.8163 25.938C58.4203 25.938 57.9163 25.95 57.3043 25.974V25.56L58.3123 25.38C58.4923 25.344 58.6123 25.278 58.6723 25.182C58.7323 25.086 58.7623 24.924 58.7623 24.696V16.398C58.7623 15.942 58.6183 15.636 58.3303 15.48C58.0543 15.324 57.5923 15.21 56.9443 15.138V14.67ZM71.4901 25.974C71.2021 25.962 70.8721 25.95 70.5001 25.938C70.1401 25.926 69.7681 25.92 69.3841 25.92C69.0121 25.92 68.6401 25.926 68.2681 25.938C67.9081 25.95 67.5841 25.962 67.2961 25.974V25.578L68.2321 25.362C68.3881 25.326 68.4961 25.278 68.5561 25.218C68.6161 25.158 68.6461 25.038 68.6461 24.858V15.93C68.6461 15.678 68.5741 15.492 68.4301 15.372C68.2861 15.252 67.9681 15.12 67.4761 14.976V14.634C67.5961 14.61 67.7521 14.58 67.9441 14.544C68.1361 14.508 68.3461 14.466 68.5741 14.418C68.8021 14.37 69.0301 14.316 69.2581 14.256C69.4981 14.184 69.7201 14.112 69.9241 14.04H70.3381V24.822C70.3381 25.062 70.3621 25.212 70.4101 25.272C70.4581 25.32 70.5721 25.368 70.7521 25.416L71.4901 25.578V25.974ZM75.2608 26.154C74.7688 26.154 74.3428 26.07 73.9828 25.902C73.6228 25.722 73.3228 25.482 73.0828 25.182C72.8548 24.882 72.6808 24.528 72.5608 24.12C72.4528 23.712 72.3988 23.274 72.3988 22.806C72.3988 22.17 72.5008 21.612 72.7048 21.132C72.9088 20.64 73.1728 20.226 73.4968 19.89C73.8328 19.554 74.2168 19.302 74.6488 19.134C75.0928 18.966 75.5488 18.882 76.0168 18.882C76.3048 18.882 76.5628 18.906 76.7908 18.954C77.0188 19.002 77.2168 19.056 77.3848 19.116C77.5768 19.176 77.7508 19.248 77.9068 19.332L79.0048 18.738L79.1668 18.792C79.1668 19.728 79.1668 20.658 79.1668 21.582C79.1788 22.494 79.1848 23.418 79.1848 24.354C79.1848 24.834 79.3888 25.062 79.7968 25.038C79.8928 25.038 79.9708 25.026 80.0308 25.002C80.0908 24.966 80.1448 24.936 80.1928 24.912C80.2408 24.876 80.2888 24.834 80.3368 24.786L80.4628 24.966C80.3668 25.194 80.2468 25.392 80.1028 25.56C79.9708 25.716 79.8088 25.854 79.6168 25.974C79.4248 26.094 79.1848 26.154 78.8968 26.154C78.4288 26.154 78.0928 26.01 77.8888 25.722C77.6848 25.434 77.5828 25.062 77.5828 24.606V24.138C77.5108 24.39 77.4148 24.642 77.2948 24.894C77.1748 25.134 77.0188 25.35 76.8268 25.542C76.6468 25.722 76.4248 25.872 76.1608 25.992C75.9088 26.1 75.6088 26.154 75.2608 26.154ZM77.5828 22.086C77.5828 21.762 77.5588 21.45 77.5108 21.15C77.4748 20.85 77.3968 20.586 77.2768 20.358C77.1568 20.118 76.9948 19.926 76.7908 19.782C76.5868 19.638 76.3168 19.566 75.9808 19.566C75.7768 19.566 75.5608 19.614 75.3328 19.71C75.1048 19.806 74.8948 19.962 74.7028 20.178C74.5108 20.394 74.3548 20.682 74.2348 21.042C74.1148 21.402 74.0548 21.84 74.0548 22.356C74.0548 22.74 74.0908 23.106 74.1628 23.454C74.2468 23.79 74.3608 24.084 74.5048 24.336C74.6608 24.588 74.8468 24.792 75.0628 24.948C75.2908 25.092 75.5488 25.164 75.8368 25.164C76.1008 25.164 76.3408 25.086 76.5568 24.93C76.7728 24.774 76.9528 24.57 77.0968 24.318C77.2528 24.054 77.3728 23.748 77.4568 23.4C77.5408 23.052 77.5828 22.68 77.5828 22.284V22.086ZM90.0217 25.974C89.3977 25.938 88.7317 25.92 88.0237 25.92C87.3157 25.92 86.6497 25.938 86.0257 25.974V25.596L86.7997 25.452C87.0637 25.416 87.1957 25.182 87.1957 24.75V21.708C87.1957 21.42 87.1777 21.162 87.1417 20.934C87.1177 20.694 87.0577 20.496 86.9617 20.34C86.8777 20.184 86.7517 20.064 86.5837 19.98C86.4157 19.896 86.1937 19.854 85.9177 19.854C85.5937 19.854 85.2637 19.944 84.9277 20.124C84.6037 20.304 84.3037 20.538 84.0277 20.826V24.948C84.0277 25.14 84.1717 25.272 84.4597 25.344L85.1977 25.596V25.974C84.9937 25.95 84.7837 25.938 84.5677 25.938C84.3637 25.926 84.0757 25.92 83.7037 25.92H83.1277C82.7317 25.92 82.3537 25.926 81.9937 25.938C81.6337 25.938 81.3517 25.95 81.1477 25.974V25.596L81.9937 25.416C82.2337 25.356 82.3537 25.176 82.3537 24.876V21.312C82.3537 20.94 82.2757 20.688 82.1197 20.556C81.9757 20.424 81.7117 20.328 81.3277 20.268V19.944C81.5197 19.896 81.7237 19.836 81.9397 19.764C82.1677 19.68 82.3837 19.578 82.5877 19.458C82.8037 19.326 83.0017 19.176 83.1817 19.008C83.3737 18.84 83.5237 18.642 83.6317 18.414H84.0277V20.106C84.4237 19.686 84.8557 19.356 85.3237 19.116C85.8037 18.864 86.2537 18.738 86.6737 18.738C87.3697 18.738 87.9097 18.942 88.2937 19.35C88.6897 19.758 88.8877 20.376 88.8877 21.204V24.696C88.8877 24.924 88.9177 25.098 88.9777 25.218C89.0377 25.326 89.1577 25.404 89.3377 25.452L90.0217 25.596V25.974ZM99.5842 25.974C98.9602 25.938 98.2942 25.92 97.5862 25.92C96.8782 25.92 96.2122 25.938 95.5882 25.974V25.596L96.3622 25.452C96.6262 25.416 96.7582 25.182 96.7582 24.75V21.708C96.7582 21.42 96.7402 21.162 96.7042 20.934C96.6802 20.694 96.6202 20.496 96.5242 20.34C96.4402 20.184 96.3142 20.064 96.1462 19.98C95.9782 19.896 95.7562 19.854 95.4802 19.854C95.1562 19.854 94.8262 19.944 94.4902 20.124C94.1662 20.304 93.8662 20.538 93.5902 20.826V24.948C93.5902 25.14 93.7342 25.272 94.0222 25.344L94.7602 25.596V25.974C94.5562 25.95 94.3462 25.938 94.1302 25.938C93.9262 25.926 93.6382 25.92 93.2662 25.92H92.6902C92.2942 25.92 91.9162 25.926 91.5562 25.938C91.1962 25.938 90.9142 25.95 90.7102 25.974V25.596L91.5562 25.416C91.7962 25.356 91.9162 25.176 91.9162 24.876V21.312C91.9162 20.94 91.8382 20.688 91.6822 20.556C91.5382 20.424 91.2742 20.328 90.8902 20.268V19.944C91.0822 19.896 91.2862 19.836 91.5022 19.764C91.7302 19.68 91.9462 19.578 92.1502 19.458C92.3662 19.326 92.5642 19.176 92.7442 19.008C92.9362 18.84 93.0862 18.642 93.1942 18.414H93.5902V20.106C93.9862 19.686 94.4182 19.356 94.8862 19.116C95.3662 18.864 95.8162 18.738 96.2362 18.738C96.9322 18.738 97.4722 18.942 97.8562 19.35C98.2522 19.758 98.4502 20.376 98.4502 21.204V24.696C98.4502 24.924 98.4802 25.098 98.5402 25.218C98.6002 25.326 98.7202 25.404 98.9002 25.452L99.5842 25.596V25.974ZM102.559 14.922C102.835 14.922 103.069 15.024 103.261 15.228C103.465 15.42 103.567 15.654 103.567 15.93C103.567 16.17 103.465 16.392 103.261 16.596C103.057 16.788 102.817 16.884 102.541 16.884C102.265 16.884 102.037 16.794 101.857 16.614C101.677 16.422 101.587 16.194 101.587 15.93C101.587 15.654 101.683 15.42 101.875 15.228C102.067 15.024 102.295 14.922 102.559 14.922ZM104.449 25.992C104.257 25.968 103.981 25.95 103.621 25.938C103.261 25.926 102.841 25.92 102.361 25.92C101.881 25.92 101.461 25.926 101.101 25.938C100.741 25.95 100.465 25.968 100.273 25.992V25.596L101.083 25.416C101.455 25.344 101.641 25.122 101.641 24.75V21.366C101.641 21.078 101.569 20.868 101.425 20.736C101.281 20.604 100.993 20.49 100.561 20.394V20.034C100.777 19.986 100.999 19.92 101.227 19.836C101.455 19.74 101.677 19.638 101.893 19.53C102.109 19.41 102.307 19.284 102.487 19.152C102.667 19.02 102.811 18.876 102.919 18.72C102.991 18.72 103.057 18.726 103.117 18.738C103.189 18.738 103.255 18.738 103.315 18.738V24.804C103.315 24.984 103.339 25.122 103.387 25.218C103.447 25.302 103.555 25.362 103.711 25.398L104.449 25.596V25.992ZM113.998 25.974C113.374 25.938 112.708 25.92 112 25.92C111.292 25.92 110.626 25.938 110.002 25.974V25.596L110.776 25.452C111.04 25.416 111.172 25.182 111.172 24.75V21.708C111.172 21.42 111.154 21.162 111.118 20.934C111.094 20.694 111.034 20.496 110.938 20.34C110.854 20.184 110.728 20.064 110.56 19.98C110.392 19.896 110.17 19.854 109.894 19.854C109.57 19.854 109.24 19.944 108.904 20.124C108.58 20.304 108.28 20.538 108.004 20.826V24.948C108.004 25.14 108.148 25.272 108.436 25.344L109.174 25.596V25.974C108.97 25.95 108.76 25.938 108.544 25.938C108.34 25.926 108.052 25.92 107.68 25.92H107.104C106.708 25.92 106.33 25.926 105.97 25.938C105.61 25.938 105.328 25.95 105.124 25.974V25.596L105.97 25.416C106.21 25.356 106.33 25.176 106.33 24.876V21.312C106.33 20.94 106.252 20.688 106.096 20.556C105.952 20.424 105.688 20.328 105.304 20.268V19.944C105.496 19.896 105.7 19.836 105.916 19.764C106.144 19.68 106.36 19.578 106.564 19.458C106.78 19.326 106.978 19.176 107.158 19.008C107.35 18.84 107.5 18.642 107.608 18.414H108.004V20.106C108.4 19.686 108.832 19.356 109.3 19.116C109.78 18.864 110.23 18.738 110.65 18.738C111.346 18.738 111.886 18.942 112.27 19.35C112.666 19.758 112.864 20.376 112.864 21.204V24.696C112.864 24.924 112.894 25.098 112.954 25.218C113.014 25.326 113.134 25.404 113.314 25.452L113.998 25.596V25.974ZM117.747 25.866C117.291 25.866 116.883 25.788 116.523 25.632C116.175 25.464 115.881 25.242 115.641 24.966C115.401 24.678 115.215 24.336 115.083 23.94C114.963 23.544 114.903 23.112 114.903 22.644C114.903 22.044 114.999 21.51 115.191 21.042C115.383 20.574 115.641 20.184 115.965 19.872C116.289 19.548 116.661 19.302 117.081 19.134C117.513 18.966 117.969 18.882 118.449 18.882C118.785 18.882 119.079 18.906 119.331 18.954C119.583 19.002 119.793 19.056 119.961 19.116C120.165 19.176 120.333 19.248 120.465 19.332L121.581 18.666L121.743 18.72V25.542C121.743 25.998 121.653 26.424 121.473 26.82C121.293 27.204 121.041 27.54 120.717 27.828C120.405 28.116 120.027 28.344 119.583 28.512C119.139 28.68 118.653 28.764 118.125 28.764C117.465 28.764 116.937 28.716 116.541 28.62C116.145 28.524 115.845 28.404 115.641 28.26C115.437 28.116 115.299 27.954 115.227 27.774C115.167 27.606 115.137 27.45 115.137 27.306C115.137 27.066 115.209 26.886 115.353 26.766C115.497 26.646 115.683 26.586 115.911 26.586C116.139 26.586 116.307 26.628 116.415 26.712C116.523 26.784 116.607 26.88 116.667 27C116.727 27.108 116.775 27.228 116.811 27.36C116.859 27.504 116.931 27.63 117.027 27.738C117.123 27.858 117.255 27.954 117.423 28.026C117.603 28.11 117.855 28.152 118.179 28.152C118.815 28.152 119.295 27.96 119.619 27.576C119.955 27.192 120.123 26.592 120.123 25.776V23.778C120.051 24.042 119.949 24.3 119.817 24.552C119.697 24.804 119.541 25.026 119.349 25.218C119.157 25.41 118.929 25.566 118.665 25.686C118.401 25.806 118.095 25.866 117.747 25.866ZM120.123 22.05C120.123 21.75 120.099 21.45 120.051 21.15C120.015 20.85 119.937 20.586 119.817 20.358C119.709 20.118 119.541 19.926 119.313 19.782C119.097 19.626 118.809 19.548 118.449 19.548C118.233 19.548 118.011 19.596 117.783 19.692C117.567 19.776 117.369 19.926 117.189 20.142C117.021 20.346 116.883 20.622 116.775 20.97C116.667 21.306 116.613 21.726 116.613 22.23C116.613 22.59 116.643 22.938 116.703 23.274C116.775 23.598 116.877 23.88 117.009 24.12C117.141 24.36 117.315 24.552 117.531 24.696C117.747 24.84 117.999 24.912 118.287 24.912C118.575 24.912 118.833 24.834 119.061 24.678C119.289 24.522 119.481 24.318 119.637 24.066C119.793 23.802 119.913 23.502 119.997 23.166C120.081 22.818 120.123 22.464 120.123 22.104V22.05ZM165.481 16.074C165.481 15.738 165.385 15.504 165.193 15.372C165.001 15.228 164.695 15.108 164.275 15.012V14.688C164.395 14.688 164.551 14.67 164.743 14.634C164.947 14.598 165.163 14.556 165.391 14.508C165.619 14.448 165.847 14.382 166.075 14.31C166.315 14.226 166.531 14.136 166.723 14.04H167.155V20.322C167.527 19.83 167.905 19.458 168.289 19.206C168.685 18.942 169.129 18.792 169.621 18.756C169.717 18.756 169.813 18.756 169.909 18.756C170.005 18.756 170.101 18.762 170.197 18.774C170.785 18.822 171.247 19.05 171.583 19.458C171.919 19.866 172.087 20.442 172.087 21.186V24.858C172.087 24.978 172.111 25.086 172.159 25.182C172.207 25.278 172.333 25.356 172.537 25.416L173.149 25.596V25.992C172.777 25.968 172.423 25.95 172.087 25.938C171.763 25.926 171.493 25.92 171.277 25.92C171.073 25.92 170.791 25.926 170.431 25.938C170.083 25.95 169.723 25.968 169.351 25.992V25.596L169.981 25.398C170.149 25.338 170.263 25.266 170.323 25.182C170.383 25.086 170.413 24.936 170.413 24.732V21.33C170.413 20.886 170.311 20.538 170.107 20.286C169.903 20.034 169.573 19.908 169.117 19.908C168.661 19.908 168.271 20.046 167.947 20.322C167.635 20.598 167.371 20.904 167.155 21.24V24.732C167.155 24.864 167.179 24.978 167.227 25.074C167.275 25.17 167.365 25.242 167.497 25.29L168.451 25.596V25.992C168.259 25.968 167.977 25.95 167.605 25.938C167.233 25.926 166.819 25.92 166.363 25.92C165.919 25.92 165.523 25.926 165.175 25.938C164.839 25.95 164.575 25.968 164.383 25.992V25.596L165.103 25.398C165.259 25.35 165.361 25.278 165.409 25.182C165.457 25.086 165.481 24.966 165.481 24.822V16.074ZM176.123 14.922C176.399 14.922 176.633 15.024 176.825 15.228C177.029 15.42 177.131 15.654 177.131 15.93C177.131 16.17 177.029 16.392 176.825 16.596C176.621 16.788 176.381 16.884 176.105 16.884C175.829 16.884 175.601 16.794 175.421 16.614C175.241 16.422 175.151 16.194 175.151 15.93C175.151 15.654 175.247 15.42 175.439 15.228C175.631 15.024 175.859 14.922 176.123 14.922ZM178.013 25.992C177.821 25.968 177.545 25.95 177.185 25.938C176.825 25.926 176.405 25.92 175.925 25.92C175.445 25.92 175.025 25.926 174.665 25.938C174.305 25.95 174.029 25.968 173.837 25.992V25.596L174.647 25.416C175.019 25.344 175.205 25.122 175.205 24.75V21.366C175.205 21.078 175.133 20.868 174.989 20.736C174.845 20.604 174.557 20.49 174.125 20.394V20.034C174.341 19.986 174.563 19.92 174.791 19.836C175.019 19.74 175.241 19.638 175.457 19.53C175.673 19.41 175.871 19.284 176.051 19.152C176.231 19.02 176.375 18.876 176.483 18.72C176.555 18.72 176.621 18.726 176.681 18.738C176.753 18.738 176.819 18.738 176.879 18.738V24.804C176.879 24.984 176.903 25.122 176.951 25.218C177.011 25.302 177.119 25.362 177.275 25.398L178.013 25.596V25.992ZM183.387 20.97C183.351 20.79 183.285 20.604 183.189 20.412C183.105 20.22 182.991 20.046 182.847 19.89C182.703 19.722 182.535 19.584 182.343 19.476C182.151 19.368 181.929 19.314 181.677 19.314C181.329 19.314 181.035 19.386 180.795 19.53C180.555 19.674 180.435 19.926 180.435 20.286C180.435 20.634 180.597 20.904 180.921 21.096C181.257 21.276 181.725 21.456 182.325 21.636C183.069 21.876 183.585 22.176 183.873 22.536C184.161 22.896 184.305 23.316 184.305 23.796C184.305 24.216 184.221 24.582 184.053 24.894C183.897 25.194 183.681 25.446 183.405 25.65C183.141 25.842 182.829 25.986 182.469 26.082C182.121 26.166 181.755 26.208 181.371 26.208C180.939 26.208 180.531 26.172 180.147 26.1C179.775 26.016 179.451 25.896 179.175 25.74L178.995 23.598H179.391C179.559 24.246 179.829 24.75 180.201 25.11C180.573 25.458 181.023 25.632 181.551 25.632C181.935 25.632 182.265 25.536 182.541 25.344C182.817 25.14 182.955 24.846 182.955 24.462C182.955 24.114 182.823 23.838 182.559 23.634C182.295 23.43 181.875 23.244 181.299 23.076C180.447 22.836 179.847 22.542 179.499 22.194C179.163 21.846 178.995 21.378 178.995 20.79C178.995 20.466 179.073 20.178 179.229 19.926C179.385 19.662 179.589 19.446 179.841 19.278C180.093 19.098 180.387 18.966 180.723 18.882C181.059 18.786 181.407 18.738 181.767 18.738C182.139 18.738 182.493 18.774 182.829 18.846C183.165 18.918 183.453 19.026 183.693 19.17L183.801 20.97H183.387ZM187.839 17.244H188.163C188.163 17.568 188.163 17.892 188.163 18.216C188.175 18.528 188.181 18.846 188.181 19.17L190.503 19.116V19.89L188.181 19.962V23.364C188.181 23.964 188.235 24.42 188.343 24.732C188.463 25.032 188.745 25.17 189.189 25.146C189.369 25.146 189.567 25.122 189.783 25.074C190.011 25.014 190.263 24.882 190.539 24.678L190.701 24.93C190.497 25.242 190.203 25.536 189.819 25.812C189.447 26.076 188.943 26.208 188.307 26.208C187.671 26.208 187.209 26.046 186.921 25.722C186.645 25.386 186.507 24.792 186.507 23.94V19.998C186.339 19.998 186.177 20.004 186.021 20.016C185.865 20.016 185.703 20.016 185.535 20.016C185.367 20.016 185.277 19.95 185.265 19.818C185.265 19.686 185.349 19.584 185.517 19.512C185.769 19.404 185.997 19.29 186.201 19.17C186.417 19.05 186.591 18.924 186.723 18.792C186.855 18.66 187.041 18.462 187.281 18.198C187.521 17.934 187.707 17.616 187.839 17.244ZM195.183 26.208C194.595 26.208 194.067 26.118 193.599 25.938C193.131 25.746 192.735 25.482 192.411 25.146C192.087 24.81 191.835 24.42 191.655 23.976C191.487 23.52 191.403 23.022 191.403 22.482C191.403 21.93 191.487 21.426 191.655 20.97C191.823 20.502 192.075 20.106 192.411 19.782C192.747 19.446 193.155 19.188 193.635 19.008C194.127 18.816 194.691 18.72 195.327 18.72C195.963 18.72 196.521 18.822 197.001 19.026C197.481 19.218 197.883 19.488 198.207 19.836C198.531 20.172 198.777 20.574 198.945 21.042C199.113 21.498 199.197 21.99 199.197 22.518C199.197 23.058 199.101 23.556 198.909 24.012C198.717 24.456 198.447 24.84 198.099 25.164C197.751 25.488 197.331 25.746 196.839 25.938C196.347 26.118 195.795 26.208 195.183 26.208ZM193.275 22.608C193.275 23.556 193.449 24.306 193.797 24.858C194.157 25.398 194.643 25.668 195.255 25.668C195.867 25.668 196.359 25.38 196.731 24.804C197.103 24.228 197.289 23.46 197.289 22.5C197.289 21.54 197.115 20.766 196.767 20.178C196.419 19.578 195.921 19.278 195.273 19.278C194.625 19.278 194.127 19.56 193.779 20.124C193.443 20.688 193.275 21.516 193.275 22.608ZM200.117 25.992V25.704L200.801 25.542C201.041 25.47 201.191 25.38 201.251 25.272C201.323 25.152 201.359 24.936 201.359 24.624V21.168C201.359 20.928 201.311 20.754 201.215 20.646C201.119 20.526 200.891 20.436 200.531 20.376L200.153 20.304L200.171 19.998C200.639 19.866 201.101 19.668 201.557 19.404C202.013 19.14 202.379 18.78 202.655 18.324H202.979L203.051 20.448C203.147 20.232 203.255 20.04 203.375 19.872C203.495 19.692 203.657 19.494 203.861 19.278C204.065 19.062 204.257 18.918 204.437 18.846C204.629 18.774 204.803 18.738 204.959 18.738C205.259 18.738 205.505 18.828 205.697 19.008C205.901 19.176 206.003 19.434 206.003 19.782C206.003 20.106 205.925 20.364 205.769 20.556C205.625 20.736 205.415 20.826 205.139 20.826C204.995 20.826 204.869 20.796 204.761 20.736C204.653 20.664 204.551 20.586 204.455 20.502C204.371 20.418 204.287 20.346 204.203 20.286C204.119 20.214 204.041 20.178 203.969 20.178C203.861 20.178 203.759 20.226 203.663 20.322C203.567 20.406 203.477 20.514 203.393 20.646C203.309 20.778 203.237 20.928 203.177 21.096C203.129 21.252 203.099 21.402 203.087 21.546C203.075 21.666 203.063 21.774 203.051 21.87C203.039 21.966 203.039 22.056 203.051 22.14V24.66C203.051 24.96 203.105 25.158 203.213 25.254C203.321 25.338 203.537 25.422 203.861 25.506L204.779 25.686V25.974C204.491 25.95 204.167 25.938 203.807 25.938C203.447 25.926 203.081 25.92 202.709 25.92H202.367C201.971 25.92 201.581 25.926 201.197 25.938C200.813 25.95 200.453 25.968 200.117 25.992ZM209.047 14.922C209.323 14.922 209.557 15.024 209.749 15.228C209.953 15.42 210.055 15.654 210.055 15.93C210.055 16.17 209.953 16.392 209.749 16.596C209.545 16.788 209.305 16.884 209.029 16.884C208.753 16.884 208.525 16.794 208.345 16.614C208.165 16.422 208.075 16.194 208.075 15.93C208.075 15.654 208.171 15.42 208.363 15.228C208.555 15.024 208.783 14.922 209.047 14.922ZM210.937 25.992C210.745 25.968 210.469 25.95 210.109 25.938C209.749 25.926 209.329 25.92 208.849 25.92C208.369 25.92 207.949 25.926 207.589 25.938C207.229 25.95 206.953 25.968 206.761 25.992V25.596L207.571 25.416C207.943 25.344 208.129 25.122 208.129 24.75V21.366C208.129 21.078 208.057 20.868 207.913 20.736C207.769 20.604 207.481 20.49 207.049 20.394V20.034C207.265 19.986 207.487 19.92 207.715 19.836C207.943 19.74 208.165 19.638 208.381 19.53C208.597 19.41 208.795 19.284 208.975 19.152C209.155 19.02 209.299 18.876 209.407 18.72C209.479 18.72 209.545 18.726 209.605 18.738C209.677 18.738 209.743 18.738 209.803 18.738V24.804C209.803 24.984 209.827 25.122 209.875 25.218C209.935 25.302 210.043 25.362 210.199 25.398L210.937 25.596V25.992ZM218.219 24.552C218.075 24.768 217.907 24.978 217.715 25.182C217.535 25.374 217.325 25.548 217.085 25.704C216.845 25.848 216.581 25.968 216.293 26.064C216.005 26.16 215.693 26.208 215.357 26.208C214.817 26.208 214.325 26.118 213.881 25.938C213.449 25.758 213.077 25.506 212.765 25.182C212.465 24.858 212.231 24.48 212.063 24.048C211.907 23.604 211.829 23.118 211.829 22.59C211.829 22.014 211.925 21.492 212.117 21.024C212.309 20.556 212.579 20.154 212.927 19.818C213.275 19.47 213.689 19.206 214.169 19.026C214.661 18.834 215.207 18.738 215.807 18.738C216.455 18.738 216.989 18.84 217.409 19.044C217.829 19.236 218.039 19.512 218.039 19.872C218.039 20.088 217.979 20.262 217.859 20.394C217.739 20.514 217.595 20.58 217.427 20.592C217.259 20.592 217.091 20.532 216.923 20.412C216.767 20.28 216.605 20.136 216.437 19.98C216.269 19.824 216.083 19.68 215.879 19.548C215.675 19.416 215.447 19.35 215.195 19.35C214.895 19.35 214.637 19.44 214.421 19.62C214.205 19.788 214.031 20.01 213.899 20.286C213.767 20.55 213.665 20.85 213.593 21.186C213.533 21.522 213.503 21.858 213.503 22.194C213.503 23.022 213.731 23.688 214.187 24.192C214.643 24.696 215.213 24.966 215.897 25.002C216.353 25.038 216.749 24.978 217.085 24.822C217.433 24.666 217.751 24.45 218.039 24.174L218.219 24.552ZM222.038 26.154C221.546 26.154 221.12 26.07 220.76 25.902C220.4 25.722 220.1 25.482 219.86 25.182C219.632 24.882 219.458 24.528 219.338 24.12C219.23 23.712 219.176 23.274 219.176 22.806C219.176 22.17 219.278 21.612 219.482 21.132C219.686 20.64 219.95 20.226 220.274 19.89C220.61 19.554 220.994 19.302 221.426 19.134C221.87 18.966 222.326 18.882 222.794 18.882C223.082 18.882 223.34 18.906 223.568 18.954C223.796 19.002 223.994 19.056 224.162 19.116C224.354 19.176 224.528 19.248 224.684 19.332L225.782 18.738L225.944 18.792C225.944 19.728 225.944 20.658 225.944 21.582C225.956 22.494 225.962 23.418 225.962 24.354C225.962 24.834 226.166 25.062 226.574 25.038C226.67 25.038 226.748 25.026 226.808 25.002C226.868 24.966 226.922 24.936 226.97 24.912C227.018 24.876 227.066 24.834 227.114 24.786L227.24 24.966C227.144 25.194 227.024 25.392 226.88 25.56C226.748 25.716 226.586 25.854 226.394 25.974C226.202 26.094 225.962 26.154 225.674 26.154C225.206 26.154 224.87 26.01 224.666 25.722C224.462 25.434 224.36 25.062 224.36 24.606V24.138C224.288 24.39 224.192 24.642 224.072 24.894C223.952 25.134 223.796 25.35 223.604 25.542C223.424 25.722 223.202 25.872 222.938 25.992C222.686 26.1 222.386 26.154 222.038 26.154ZM224.36 22.086C224.36 21.762 224.336 21.45 224.288 21.15C224.252 20.85 224.174 20.586 224.054 20.358C223.934 20.118 223.772 19.926 223.568 19.782C223.364 19.638 223.094 19.566 222.758 19.566C222.554 19.566 222.338 19.614 222.11 19.71C221.882 19.806 221.672 19.962 221.48 20.178C221.288 20.394 221.132 20.682 221.012 21.042C220.892 21.402 220.832 21.84 220.832 22.356C220.832 22.74 220.868 23.106 220.94 23.454C221.024 23.79 221.138 24.084 221.282 24.336C221.438 24.588 221.624 24.792 221.84 24.948C222.068 25.092 222.326 25.164 222.614 25.164C222.878 25.164 223.118 25.086 223.334 24.93C223.55 24.774 223.73 24.57 223.874 24.318C224.03 24.054 224.15 23.748 224.234 23.4C224.318 23.052 224.36 22.68 224.36 22.284V22.086ZM232.119 25.974C231.831 25.962 231.501 25.95 231.129 25.938C230.769 25.926 230.397 25.92 230.013 25.92C229.641 25.92 229.269 25.926 228.897 25.938C228.537 25.95 228.213 25.962 227.925 25.974V25.578L228.861 25.362C229.017 25.326 229.125 25.278 229.185 25.218C229.245 25.158 229.275 25.038 229.275 24.858V15.93C229.275 15.678 229.203 15.492 229.059 15.372C228.915 15.252 228.597 15.12 228.105 14.976V14.634C228.225 14.61 228.381 14.58 228.573 14.544C228.765 14.508 228.975 14.466 229.203 14.418C229.431 14.37 229.659 14.316 229.887 14.256C230.127 14.184 230.349 14.112 230.553 14.04H230.967V24.822C230.967 25.062 230.991 25.212 231.039 25.272C231.087 25.32 231.201 25.368 231.381 25.416L232.119 25.578V25.974ZM111.295 54.992V54.704L111.979 54.542C112.219 54.47 112.369 54.38 112.429 54.272C112.501 54.152 112.537 53.936 112.537 53.624V50.168C112.537 49.928 112.489 49.754 112.393 49.646C112.297 49.526 112.069 49.436 111.709 49.376L111.331 49.304L111.349 48.998C111.817 48.866 112.279 48.668 112.735 48.404C113.191 48.14 113.557 47.78 113.833 47.324H114.157L114.229 49.448C114.325 49.232 114.433 49.04 114.553 48.872C114.673 48.692 114.835 48.494 115.039 48.278C115.243 48.062 115.435 47.918 115.615 47.846C115.807 47.774 115.981 47.738 116.137 47.738C116.437 47.738 116.683 47.828 116.875 48.008C117.079 48.176 117.181 48.434 117.181 48.782C117.181 49.106 117.103 49.364 116.947 49.556C116.803 49.736 116.593 49.826 116.317 49.826C116.173 49.826 116.047 49.796 115.939 49.736C115.831 49.664 115.729 49.586 115.633 49.502C115.549 49.418 115.465 49.346 115.381 49.286C115.297 49.214 115.219 49.178 115.147 49.178C115.039 49.178 114.937 49.226 114.841 49.322C114.745 49.406 114.655 49.514 114.571 49.646C114.487 49.778 114.415 49.928 114.355 50.096C114.307 50.252 114.277 50.402 114.265 50.546C114.253 50.666 114.241 50.774 114.229 50.87C114.217 50.966 114.217 51.056 114.229 51.14V53.66C114.229 53.96 114.283 54.158 114.391 54.254C114.499 54.338 114.715 54.422 115.039 54.506L115.957 54.686V54.974C115.669 54.95 115.345 54.938 114.985 54.938C114.625 54.926 114.259 54.92 113.887 54.92H113.545C113.149 54.92 112.759 54.926 112.375 54.938C111.991 54.95 111.631 54.968 111.295 54.992ZM124.617 50.582H119.919C119.895 50.702 119.877 50.792 119.865 50.852C119.865 50.912 119.865 51.002 119.865 51.122C119.865 51.542 119.925 51.926 120.045 52.274C120.165 52.622 120.333 52.922 120.549 53.174C120.765 53.426 121.023 53.624 121.323 53.768C121.635 53.9 121.983 53.966 122.367 53.966C122.787 53.966 123.171 53.9 123.519 53.768C123.879 53.624 124.257 53.36 124.653 52.976L124.725 53.318C124.557 53.582 124.365 53.828 124.149 54.056C123.945 54.284 123.711 54.488 123.447 54.668C123.183 54.836 122.883 54.968 122.547 55.064C122.211 55.16 121.833 55.208 121.413 55.208C120.933 55.208 120.495 55.118 120.099 54.938C119.703 54.758 119.361 54.506 119.073 54.182C118.785 53.846 118.557 53.45 118.389 52.994C118.233 52.538 118.155 52.04 118.155 51.5C118.155 50.948 118.239 50.444 118.407 49.988C118.587 49.532 118.833 49.136 119.145 48.8C119.457 48.464 119.835 48.206 120.279 48.026C120.723 47.834 121.215 47.738 121.755 47.738C122.223 47.738 122.631 47.81 122.979 47.954C123.327 48.098 123.615 48.302 123.843 48.566C124.083 48.818 124.263 49.118 124.383 49.466C124.515 49.814 124.593 50.186 124.617 50.582ZM120.009 50.024H122.133C122.373 50.024 122.553 49.994 122.673 49.934C122.805 49.874 122.853 49.724 122.817 49.484C122.781 49.148 122.679 48.86 122.511 48.62C122.355 48.368 122.085 48.242 121.701 48.242C121.269 48.242 120.909 48.398 120.621 48.71C120.333 49.01 120.129 49.448 120.009 50.024ZM128.752 48.026L131.056 48.08V48.71L128.788 48.782V53.192C128.788 53.576 128.848 53.864 128.968 54.056C129.1 54.236 129.292 54.35 129.544 54.398L130.606 54.578V54.974C129.898 54.938 129.16 54.92 128.392 54.92H127.852C127.432 54.92 127.036 54.926 126.664 54.938C126.292 54.938 126.004 54.95 125.8 54.974V54.596L126.358 54.47C126.538 54.434 126.676 54.392 126.772 54.344C126.88 54.296 126.952 54.236 126.988 54.164C127.036 54.08 127.066 53.978 127.078 53.858C127.09 53.726 127.096 53.552 127.096 53.336V48.998C126.868 48.95 126.43 48.914 125.782 48.89V48.62C126.058 48.5 126.28 48.398 126.448 48.314C126.616 48.23 126.742 48.152 126.826 48.08C126.922 47.996 126.982 47.918 127.006 47.846C127.042 47.774 127.06 47.696 127.06 47.612C127.06 47.396 127.096 47.048 127.168 46.568C127.252 46.076 127.414 45.578 127.654 45.074C127.906 44.558 128.26 44.102 128.716 43.706C129.184 43.31 129.808 43.094 130.588 43.058C130.684 43.046 130.774 43.046 130.858 43.058C130.954 43.058 131.05 43.058 131.146 43.058C131.566 43.094 131.908 43.19 132.172 43.346C132.436 43.49 132.568 43.712 132.568 44.012C132.568 44.288 132.49 44.51 132.334 44.678C132.178 44.846 131.956 44.93 131.668 44.93C131.476 44.93 131.302 44.876 131.146 44.768C131.002 44.66 130.858 44.546 130.714 44.426C130.582 44.294 130.456 44.174 130.336 44.066C130.216 43.958 130.096 43.904 129.976 43.904C129.652 43.904 129.4 43.988 129.22 44.156C129.052 44.324 128.932 44.546 128.86 44.822C128.788 45.098 128.746 45.41 128.734 45.758C128.734 46.094 128.734 46.43 128.734 46.766C128.734 47.09 128.734 47.36 128.734 47.576C128.734 47.78 128.74 47.93 128.752 48.026ZM138.468 50.582H133.77C133.746 50.702 133.728 50.792 133.716 50.852C133.716 50.912 133.716 51.002 133.716 51.122C133.716 51.542 133.776 51.926 133.896 52.274C134.016 52.622 134.184 52.922 134.4 53.174C134.616 53.426 134.874 53.624 135.174 53.768C135.486 53.9 135.834 53.966 136.218 53.966C136.638 53.966 137.022 53.9 137.37 53.768C137.73 53.624 138.108 53.36 138.504 52.976L138.576 53.318C138.408 53.582 138.216 53.828 138 54.056C137.796 54.284 137.562 54.488 137.298 54.668C137.034 54.836 136.734 54.968 136.398 55.064C136.062 55.16 135.684 55.208 135.264 55.208C134.784 55.208 134.346 55.118 133.95 54.938C133.554 54.758 133.212 54.506 132.924 54.182C132.636 53.846 132.408 53.45 132.24 52.994C132.084 52.538 132.006 52.04 132.006 51.5C132.006 50.948 132.09 50.444 132.258 49.988C132.438 49.532 132.684 49.136 132.996 48.8C133.308 48.464 133.686 48.206 134.13 48.026C134.574 47.834 135.066 47.738 135.606 47.738C136.074 47.738 136.482 47.81 136.83 47.954C137.178 48.098 137.466 48.302 137.694 48.566C137.934 48.818 138.114 49.118 138.234 49.466C138.366 49.814 138.444 50.186 138.468 50.582ZM133.86 50.024H135.984C136.224 50.024 136.404 49.994 136.524 49.934C136.656 49.874 136.704 49.724 136.668 49.484C136.632 49.148 136.53 48.86 136.362 48.62C136.206 48.368 135.936 48.242 135.552 48.242C135.12 48.242 134.76 48.398 134.472 48.71C134.184 49.01 133.98 49.448 133.86 50.024ZM139.49 54.992V54.704L140.174 54.542C140.414 54.47 140.564 54.38 140.624 54.272C140.696 54.152 140.732 53.936 140.732 53.624V50.168C140.732 49.928 140.684 49.754 140.588 49.646C140.492 49.526 140.264 49.436 139.904 49.376L139.526 49.304L139.544 48.998C140.012 48.866 140.474 48.668 140.93 48.404C141.386 48.14 141.752 47.78 142.028 47.324H142.352L142.424 49.448C142.52 49.232 142.628 49.04 142.748 48.872C142.868 48.692 143.03 48.494 143.234 48.278C143.438 48.062 143.63 47.918 143.81 47.846C144.002 47.774 144.176 47.738 144.332 47.738C144.632 47.738 144.878 47.828 145.07 48.008C145.274 48.176 145.376 48.434 145.376 48.782C145.376 49.106 145.298 49.364 145.142 49.556C144.998 49.736 144.788 49.826 144.512 49.826C144.368 49.826 144.242 49.796 144.134 49.736C144.026 49.664 143.924 49.586 143.828 49.502C143.744 49.418 143.66 49.346 143.576 49.286C143.492 49.214 143.414 49.178 143.342 49.178C143.234 49.178 143.132 49.226 143.036 49.322C142.94 49.406 142.85 49.514 142.766 49.646C142.682 49.778 142.61 49.928 142.55 50.096C142.502 50.252 142.472 50.402 142.46 50.546C142.448 50.666 142.436 50.774 142.424 50.87C142.412 50.966 142.412 51.056 142.424 51.14V53.66C142.424 53.96 142.478 54.158 142.586 54.254C142.694 54.338 142.91 54.422 143.234 54.506L144.152 54.686V54.974C143.864 54.95 143.54 54.938 143.18 54.938C142.82 54.926 142.454 54.92 142.082 54.92H141.74C141.344 54.92 140.954 54.926 140.57 54.938C140.186 54.95 139.826 54.968 139.49 54.992ZM152.812 50.582H148.114C148.09 50.702 148.072 50.792 148.06 50.852C148.06 50.912 148.06 51.002 148.06 51.122C148.06 51.542 148.12 51.926 148.24 52.274C148.36 52.622 148.528 52.922 148.744 53.174C148.96 53.426 149.218 53.624 149.518 53.768C149.83 53.9 150.178 53.966 150.562 53.966C150.982 53.966 151.366 53.9 151.714 53.768C152.074 53.624 152.452 53.36 152.848 52.976L152.92 53.318C152.752 53.582 152.56 53.828 152.344 54.056C152.14 54.284 151.906 54.488 151.642 54.668C151.378 54.836 151.078 54.968 150.742 55.064C150.406 55.16 150.028 55.208 149.608 55.208C149.128 55.208 148.69 55.118 148.294 54.938C147.898 54.758 147.556 54.506 147.268 54.182C146.98 53.846 146.752 53.45 146.584 52.994C146.428 52.538 146.35 52.04 146.35 51.5C146.35 50.948 146.434 50.444 146.602 49.988C146.782 49.532 147.028 49.136 147.34 48.8C147.652 48.464 148.03 48.206 148.474 48.026C148.918 47.834 149.41 47.738 149.95 47.738C150.418 47.738 150.826 47.81 151.174 47.954C151.522 48.098 151.81 48.302 152.038 48.566C152.278 48.818 152.458 49.118 152.578 49.466C152.71 49.814 152.788 50.186 152.812 50.582ZM148.204 50.024H150.328C150.568 50.024 150.748 49.994 150.868 49.934C151 49.874 151.048 49.724 151.012 49.484C150.976 49.148 150.874 48.86 150.706 48.62C150.55 48.368 150.28 48.242 149.896 48.242C149.464 48.242 149.104 48.398 148.816 48.71C148.528 49.01 148.324 49.448 148.204 50.024ZM162.69 54.974C162.066 54.938 161.4 54.92 160.692 54.92C159.984 54.92 159.318 54.938 158.694 54.974V54.596L159.468 54.452C159.732 54.416 159.864 54.182 159.864 53.75V50.708C159.864 50.42 159.846 50.162 159.81 49.934C159.786 49.694 159.726 49.496 159.63 49.34C159.546 49.184 159.42 49.064 159.252 48.98C159.084 48.896 158.862 48.854 158.586 48.854C158.262 48.854 157.932 48.944 157.596 49.124C157.272 49.304 156.972 49.538 156.696 49.826V53.948C156.696 54.14 156.84 54.272 157.128 54.344L157.866 54.596V54.974C157.662 54.95 157.452 54.938 157.236 54.938C157.032 54.926 156.744 54.92 156.372 54.92H155.796C155.4 54.92 155.022 54.926 154.662 54.938C154.302 54.938 154.02 54.95 153.816 54.974V54.596L154.662 54.416C154.902 54.356 155.022 54.176 155.022 53.876V50.312C155.022 49.94 154.944 49.688 154.788 49.556C154.644 49.424 154.38 49.328 153.996 49.268V48.944C154.188 48.896 154.392 48.836 154.608 48.764C154.836 48.68 155.052 48.578 155.256 48.458C155.472 48.326 155.67 48.176 155.85 48.008C156.042 47.84 156.192 47.642 156.3 47.414H156.696V49.106C157.092 48.686 157.524 48.356 157.992 48.116C158.472 47.864 158.922 47.738 159.342 47.738C160.038 47.738 160.578 47.942 160.962 48.35C161.358 48.758 161.556 49.376 161.556 50.204V53.696C161.556 53.924 161.586 54.098 161.646 54.218C161.706 54.326 161.826 54.404 162.006 54.452L162.69 54.596V54.974ZM169.984 53.552C169.84 53.768 169.672 53.978 169.48 54.182C169.3 54.374 169.09 54.548 168.85 54.704C168.61 54.848 168.346 54.968 168.058 55.064C167.77 55.16 167.458 55.208 167.122 55.208C166.582 55.208 166.09 55.118 165.646 54.938C165.214 54.758 164.842 54.506 164.53 54.182C164.23 53.858 163.996 53.48 163.828 53.048C163.672 52.604 163.594 52.118 163.594 51.59C163.594 51.014 163.69 50.492 163.882 50.024C164.074 49.556 164.344 49.154 164.692 48.818C165.04 48.47 165.454 48.206 165.934 48.026C166.426 47.834 166.972 47.738 167.572 47.738C168.22 47.738 168.754 47.84 169.174 48.044C169.594 48.236 169.804 48.512 169.804 48.872C169.804 49.088 169.744 49.262 169.624 49.394C169.504 49.514 169.36 49.58 169.192 49.592C169.024 49.592 168.856 49.532 168.688 49.412C168.532 49.28 168.37 49.136 168.202 48.98C168.034 48.824 167.848 48.68 167.644 48.548C167.44 48.416 167.212 48.35 166.96 48.35C166.66 48.35 166.402 48.44 166.186 48.62C165.97 48.788 165.796 49.01 165.664 49.286C165.532 49.55 165.43 49.85 165.358 50.186C165.298 50.522 165.268 50.858 165.268 51.194C165.268 52.022 165.496 52.688 165.952 53.192C166.408 53.696 166.978 53.966 167.662 54.002C168.118 54.038 168.514 53.978 168.85 53.822C169.198 53.666 169.516 53.45 169.804 53.174L169.984 53.552ZM177.404 50.582H172.706C172.682 50.702 172.664 50.792 172.652 50.852C172.652 50.912 172.652 51.002 172.652 51.122C172.652 51.542 172.712 51.926 172.832 52.274C172.952 52.622 173.12 52.922 173.336 53.174C173.552 53.426 173.81 53.624 174.11 53.768C174.422 53.9 174.77 53.966 175.154 53.966C175.574 53.966 175.958 53.9 176.306 53.768C176.666 53.624 177.044 53.36 177.44 52.976L177.512 53.318C177.344 53.582 177.152 53.828 176.936 54.056C176.732 54.284 176.498 54.488 176.234 54.668C175.97 54.836 175.67 54.968 175.334 55.064C174.998 55.16 174.62 55.208 174.2 55.208C173.72 55.208 173.282 55.118 172.886 54.938C172.49 54.758 172.148 54.506 171.86 54.182C171.572 53.846 171.344 53.45 171.176 52.994C171.02 52.538 170.942 52.04 170.942 51.5C170.942 50.948 171.026 50.444 171.194 49.988C171.374 49.532 171.62 49.136 171.932 48.8C172.244 48.464 172.622 48.206 173.066 48.026C173.51 47.834 174.002 47.738 174.542 47.738C175.01 47.738 175.418 47.81 175.766 47.954C176.114 48.098 176.402 48.302 176.63 48.566C176.87 48.818 177.05 49.118 177.17 49.466C177.302 49.814 177.38 50.186 177.404 50.582ZM172.796 50.024H174.92C175.16 50.024 175.34 49.994 175.46 49.934C175.592 49.874 175.64 49.724 175.604 49.484C175.568 49.148 175.466 48.86 175.298 48.62C175.142 48.368 174.872 48.242 174.488 48.242C174.056 48.242 173.696 48.398 173.408 48.71C173.12 49.01 172.916 49.448 172.796 50.024Z" fill="black"/>
<path d="M126.77 19.008C127.034 19.044 127.592 19.062 128.444 19.062C129.308 19.062 129.92 19.044 130.28 19.008V19.44C130.148 19.44 130.046 19.476 129.974 19.548C129.902 19.608 129.896 19.71 129.956 19.854L131.594 23.85L132.62 21.78L132.044 20.376C131.912 20.052 131.798 19.842 131.702 19.746C131.606 19.65 131.504 19.59 131.396 19.566L130.91 19.44V19.008C131.078 19.032 131.312 19.05 131.612 19.062C131.924 19.062 132.332 19.062 132.836 19.062C133.808 19.062 134.45 19.044 134.762 19.008V19.44L134.51 19.476C134.042 19.548 133.874 19.722 134.006 19.998L135.59 23.742L136.94 20.7C137.048 20.46 137.048 20.226 136.94 19.998C136.844 19.758 136.67 19.614 136.418 19.566L135.68 19.44V19.008C135.944 19.044 136.448 19.062 137.192 19.062C137.576 19.062 137.924 19.062 138.236 19.062C138.548 19.05 138.788 19.032 138.956 19.008V19.44L138.506 19.53C138.314 19.566 138.14 19.674 137.984 19.854C137.84 20.034 137.708 20.262 137.588 20.538L135.032 26.334H134.492L132.89 22.464L131.018 26.334H130.496L127.652 20.034C127.508 19.71 127.28 19.53 126.968 19.494L126.77 19.44V19.008ZM141.638 14.85C141.95 14.85 142.214 14.97 142.43 15.21C142.658 15.438 142.772 15.708 142.772 16.02C142.772 16.296 142.658 16.548 142.43 16.776C142.214 17.004 141.944 17.118 141.62 17.118C141.308 17.118 141.044 17.016 140.828 16.812C140.624 16.596 140.522 16.332 140.522 16.02C140.522 15.708 140.63 15.438 140.846 15.21C141.062 14.97 141.326 14.85 141.638 14.85ZM143.456 25.992C143.264 25.968 142.976 25.95 142.592 25.938C142.208 25.926 141.776 25.92 141.296 25.92C140.816 25.92 140.384 25.926 140 25.938C139.616 25.95 139.328 25.968 139.136 25.992V25.524L139.82 25.344C140.192 25.272 140.378 25.05 140.378 24.678V21.438C140.378 21.15 140.306 20.94 140.162 20.808C140.018 20.676 139.73 20.562 139.298 20.466V20.034C139.502 19.986 139.736 19.92 140 19.836C140.264 19.74 140.522 19.638 140.774 19.53C141.026 19.41 141.26 19.284 141.476 19.152C141.692 19.008 141.86 18.864 141.98 18.72C142.064 18.72 142.142 18.726 142.214 18.738C142.286 18.738 142.364 18.738 142.448 18.738V24.732C142.448 24.912 142.472 25.05 142.52 25.146C142.58 25.23 142.688 25.29 142.844 25.326L143.456 25.524V25.992ZM146.85 17.244H147.246C147.246 17.568 147.246 17.892 147.246 18.216C147.258 18.528 147.264 18.846 147.264 19.17L149.514 19.116V19.962L147.264 20.034V23.274C147.264 23.802 147.33 24.192 147.462 24.444C147.594 24.696 147.87 24.822 148.29 24.822C148.47 24.822 148.668 24.804 148.884 24.768C149.1 24.72 149.334 24.588 149.586 24.372L149.748 24.624C149.664 24.792 149.55 24.972 149.406 25.164C149.262 25.344 149.082 25.512 148.866 25.668C148.662 25.824 148.428 25.956 148.164 26.064C147.9 26.16 147.6 26.208 147.264 26.208C146.592 26.208 146.082 26.04 145.734 25.704C145.398 25.356 145.23 24.768 145.23 23.94V20.07C145.062 20.07 144.9 20.076 144.744 20.088C144.588 20.088 144.426 20.088 144.258 20.088C144.09 20.088 144 20.01 143.988 19.854C143.988 19.698 144.072 19.584 144.24 19.512C144.504 19.404 144.744 19.29 144.96 19.17C145.188 19.05 145.374 18.93 145.518 18.81C145.59 18.75 145.686 18.672 145.806 18.576C145.938 18.468 146.07 18.348 146.202 18.216C146.334 18.084 146.454 17.934 146.562 17.766C146.682 17.598 146.778 17.424 146.85 17.244ZM151.256 16.146C151.256 15.798 151.142 15.552 150.914 15.408C150.698 15.252 150.44 15.144 150.14 15.084V14.688C150.26 14.688 150.434 14.67 150.662 14.634C150.902 14.598 151.154 14.556 151.418 14.508C151.694 14.448 151.964 14.382 152.228 14.31C152.492 14.226 152.714 14.136 152.894 14.04H153.326V20.268C153.638 19.824 153.962 19.482 154.298 19.242C154.646 18.99 155.048 18.834 155.504 18.774C155.6 18.762 155.69 18.756 155.774 18.756C155.87 18.744 155.972 18.738 156.08 18.738C156.752 18.738 157.274 18.948 157.646 19.368C158.018 19.776 158.204 20.382 158.204 21.186V24.714C158.204 24.834 158.228 24.954 158.276 25.074C158.324 25.182 158.45 25.272 158.654 25.344L159.158 25.524V25.992C158.774 25.968 158.402 25.95 158.042 25.938C157.694 25.926 157.412 25.92 157.196 25.92C156.992 25.92 156.692 25.926 156.296 25.938C155.9 25.95 155.516 25.968 155.144 25.992V25.524L155.702 25.326C155.87 25.266 155.984 25.182 156.044 25.074C156.104 24.954 156.134 24.792 156.134 24.588V21.402C156.134 21.006 156.056 20.694 155.9 20.466C155.756 20.238 155.462 20.124 155.018 20.124C154.802 20.124 154.598 20.172 154.406 20.268C154.226 20.352 154.064 20.46 153.92 20.592C153.776 20.712 153.65 20.85 153.542 21.006C153.446 21.15 153.374 21.276 153.326 21.384V24.588C153.326 24.72 153.35 24.846 153.398 24.966C153.446 25.074 153.536 25.158 153.668 25.218L154.442 25.524V25.992C154.25 25.968 153.95 25.95 153.542 25.938C153.134 25.926 152.72 25.92 152.3 25.92C151.88 25.92 151.49 25.926 151.13 25.938C150.782 25.95 150.512 25.968 150.32 25.992V25.524L150.878 25.326C151.022 25.266 151.118 25.17 151.166 25.038C151.226 24.906 151.256 24.768 151.256 24.624V16.146Z" fill="#4AA900"/>
<rect x="1" y="1" width="287" height="63" rx="16" stroke="black" stroke-width="2"/>
</svg>
