<svg width="146" height="85" viewBox="0 0 146 85" fill="none" xmlns="http://www.w3.org/2000/svg">
<rect x="1" y="60" width="59" height="24" rx="12" fill="white" stroke="black" stroke-width="2"/>
<path d="M7.008 40H2.064V10.864H9.792C16.544 10.864 19.92 13.872 19.92 19.888C19.92 26.032 16.816 29.104 10.608 29.104H7.008V40ZM7.008 25.168H9.456C13.072 25.168 14.88 23.408 14.88 19.888C14.88 16.496 13.024 14.8 9.312 14.8H7.008V25.168ZM26.9666 7.216V22.624C28.1826 21.152 30.1186 20.416 32.7746 20.416C34.7586 20.416 36.3426 21.184 37.5266 22.72C38.7106 24.256 39.3026 26.16 39.3026 28.432V40H34.6946V29.968C34.6946 25.968 33.4626 23.968 30.9986 23.968C28.3106 23.968 26.9666 26.176 26.9666 30.592V40H22.3106V7.216H26.9666ZM40.962 21.04H46.338L51.282 32.416L56.466 21.04H61.746L48.306 47.92H43.122L48.978 37.072L40.962 21.04ZM73.4074 24.976C72.3834 24.016 71.3114 23.536 70.1914 23.536C68.4954 23.536 67.6474 24.304 67.6474 25.84C67.6474 26.704 68.4154 27.408 69.9514 27.952C72.7674 28.976 74.5114 29.92 75.1834 30.784C75.8554 31.616 76.1914 32.656 76.1914 33.904C76.1914 35.952 75.4714 37.584 74.0314 38.8C72.6234 40.016 70.8794 40.624 68.7994 40.624C66.1114 40.624 63.8874 39.568 62.1274 37.456L64.1914 34.816C65.7914 36.416 67.2634 37.216 68.6074 37.216C70.5594 37.216 71.5354 36.272 71.5354 34.384C71.5354 33.424 71.0234 32.72 69.9994 32.272C68.9754 31.792 68.1914 31.44 67.6474 31.216C64.7034 29.936 63.2314 28.384 63.2314 26.56C63.2314 24.736 63.7754 23.264 64.8634 22.144C65.9834 20.992 67.4394 20.416 69.2314 20.416C71.7914 20.416 73.8234 21.072 75.3274 22.384L73.4074 24.976ZM84.8351 13.072C84.8351 13.808 84.5631 14.448 84.0191 14.992C83.4751 15.536 82.8351 15.808 82.0991 15.808C81.3631 15.808 80.7231 15.536 80.1791 14.992C79.6351 14.448 79.3631 13.808 79.3631 13.072C79.3631 12.336 79.6351 11.696 80.1791 11.152C80.7231 10.608 81.3631 10.336 82.0991 10.336C82.8351 10.336 83.4751 10.608 84.0191 11.152C84.5631 11.696 84.8351 12.336 84.8351 13.072ZM84.4511 40H79.7951V21.04H84.4511V40ZM101.832 25.984C100.648 24.8 99.32 24.208 97.848 24.208C96.12 24.208 94.76 24.832 93.768 26.08C92.776 27.328 92.28 28.864 92.28 30.688C92.28 32.48 92.84 33.952 93.96 35.104C95.08 36.256 96.44 36.832 98.04 36.832C99.416 36.832 100.68 36.224 101.832 35.008V39.472C100.488 40.24 98.936 40.624 97.176 40.624C94.424 40.624 92.136 39.648 90.312 37.696C88.488 35.744 87.576 33.36 87.576 30.544C87.576 27.728 88.504 25.344 90.36 23.392C92.248 21.408 94.6 20.416 97.416 20.416C99.08 20.416 100.552 20.816 101.832 21.616V25.984ZM110.898 13.072C110.898 13.808 110.626 14.448 110.082 14.992C109.538 15.536 108.898 15.808 108.162 15.808C107.426 15.808 106.786 15.536 106.242 14.992C105.698 14.448 105.426 13.808 105.426 13.072C105.426 12.336 105.698 11.696 106.242 11.152C106.786 10.608 107.426 10.336 108.162 10.336C108.898 10.336 109.538 10.608 110.082 11.152C110.626 11.696 110.898 12.336 110.898 13.072ZM110.514 40H105.858V21.04H110.514V40ZM120.215 40H115.559V25.216H113.351V21.424H115.559V15.472C115.559 9.68 117.815 6.784 122.327 6.784C123.255 6.784 124.119 6.992 124.919 7.408V11.44C124.087 11.024 123.351 10.816 122.711 10.816C121.847 10.816 121.207 11.136 120.791 11.776C120.407 12.384 120.215 13.872 120.215 16.24V21.424H124.919V25.216H120.215V40ZM124.493 21.04H129.869L134.813 32.416L139.997 21.04H145.277L131.837 47.92H126.653L132.509 37.072L124.493 21.04Z" fill="black"/>
<path d="M19.066 68.288C18.598 67.628 18.004 67.298 17.284 67.298C16.828 67.298 16.444 67.436 16.132 67.712C15.82 67.988 15.664 68.36 15.664 68.828C15.664 69.284 16.228 69.83 17.356 70.466C18.496 71.102 19.072 71.42 19.084 71.42C19.888 72.02 20.29 72.728 20.29 73.544C20.29 74.66 19.966 75.566 19.318 76.262C18.682 76.946 17.806 77.288 16.69 77.288C15.274 77.288 14.158 76.58 13.342 75.164L14.512 74.012C14.668 74.432 14.956 74.816 15.376 75.164C15.796 75.512 16.228 75.686 16.672 75.686C17.2 75.686 17.614 75.506 17.914 75.146C18.226 74.786 18.382 74.348 18.382 73.832C18.382 73.46 18.268 73.136 18.04 72.86C17.812 72.572 17.038 72.14 15.718 71.564C14.41 70.976 13.756 70.142 13.756 69.062C13.756 68.138 14.056 67.364 14.656 66.74C15.268 66.104 16.03 65.786 16.942 65.786C18.202 65.786 19.198 66.194 19.93 67.01L19.066 68.288ZM23.4733 77H21.7273V71.456H20.8813V70.034H21.7273V67.478H23.4733V70.034H24.8593V71.456H23.4733V77ZM27.014 69.89V73.742C27.014 75.122 27.494 75.812 28.454 75.812C29.414 75.812 29.894 75.122 29.894 73.742V69.89H31.64V74.066C31.64 76.178 30.578 77.234 28.454 77.234C26.33 77.234 25.268 76.178 25.268 74.066V69.89H27.014ZM38.0599 76.334C37.5919 76.934 36.8539 77.234 35.8459 77.234C34.8379 77.234 34.0339 76.85 33.4339 76.082C32.8459 75.314 32.5519 74.414 32.5519 73.382C32.5519 72.35 32.8519 71.474 33.4519 70.754C34.0639 70.022 34.8439 69.656 35.7919 69.656C36.7999 69.656 37.5439 69.95 38.0239 70.538L38.0599 64.706H39.8059V77H38.0599V76.334ZM38.2579 73.436C38.2579 72.812 38.0659 72.278 37.6819 71.834C37.2979 71.39 36.8359 71.168 36.2959 71.168C35.7559 71.168 35.2879 71.39 34.8919 71.834C34.5079 72.266 34.3159 72.806 34.3159 73.454C34.3159 74.09 34.5019 74.63 34.8739 75.074C35.2579 75.506 35.7379 75.722 36.3139 75.722C36.8899 75.722 37.3579 75.512 37.7179 75.092C38.0779 74.66 38.2579 74.108 38.2579 73.436ZM40.4193 69.89H42.4353L44.2893 74.156L46.2333 69.89H48.2133L43.1733 79.97H41.2293L43.4253 75.902L40.4193 69.89Z" fill="black"/>
</svg>
