<svg width="74" height="17" viewBox="0 0 74 17" fill="none" xmlns="http://www.w3.org/2000/svg">
<path d="M2.772 13H0.918V2.074H2.772V13ZM6.13983 6.52C6.58383 5.944 7.26783 5.656 8.19183 5.656C8.99583 5.656 9.63183 6.028 10.0998 6.772C10.5558 6.028 11.2938 5.656 12.3138 5.656C13.8138 5.656 14.5638 6.628 14.5638 8.572V13H12.8358V9.256C12.8358 7.744 12.4218 6.988 11.5938 6.988C10.7658 6.988 10.3518 7.828 10.3518 9.508V13H8.60583V9.4C8.60583 7.792 8.23983 6.988 7.50783 6.988C6.59583 6.988 6.13983 7.828 6.13983 9.508V13H4.39383V5.89H6.13983V6.52ZM17.7765 6.538C18.2805 5.95 19.0305 5.656 20.0265 5.656C20.9625 5.656 21.7365 6.028 22.3485 6.772C22.9725 7.516 23.2845 8.392 23.2845 9.4C23.2845 10.492 22.9785 11.404 22.3665 12.136C21.7545 12.868 20.9625 13.234 19.9905 13.234C18.9465 13.234 18.2205 12.934 17.8125 12.334L17.7765 16.006H16.0305V5.89H17.7765V6.538ZM21.5025 9.436C21.5025 8.824 21.3285 8.296 20.9805 7.852C20.6325 7.396 20.1525 7.168 19.5405 7.168C18.9765 7.168 18.5085 7.396 18.1365 7.852C17.7645 8.308 17.5785 8.836 17.5785 9.436C17.5785 10.024 17.7765 10.552 18.1725 11.02C18.5685 11.488 19.0245 11.722 19.5405 11.722C20.1525 11.722 20.6325 11.506 20.9805 11.074C21.3285 10.642 21.5025 10.096 21.5025 9.436ZM26.112 13H24.366V0.705999H26.112V13ZM29.8268 2.902C29.8268 3.178 29.7248 3.418 29.5208 3.622C29.3168 3.826 29.0768 3.928 28.8008 3.928C28.5248 3.928 28.2848 3.826 28.0808 3.622C27.8768 3.418 27.7748 3.178 27.7748 2.902C27.7748 2.626 27.8768 2.386 28.0808 2.182C28.2848 1.978 28.5248 1.876 28.8008 1.876C29.0768 1.876 29.3168 1.978 29.5208 2.182C29.7248 2.386 29.8268 2.626 29.8268 2.902ZM29.6828 13H27.9368V5.89H29.6828V13ZM36.2007 7.744C35.7567 7.3 35.2587 7.078 34.7067 7.078C34.0587 7.078 33.5487 7.312 33.1767 7.78C32.8047 8.248 32.6187 8.824 32.6187 9.508C32.6187 10.18 32.8287 10.732 33.2487 11.164C33.6687 11.596 34.1787 11.812 34.7787 11.812C35.2947 11.812 35.7687 11.584 36.2007 11.128V12.802C35.6967 13.09 35.1147 13.234 34.4547 13.234C33.4227 13.234 32.5647 12.868 31.8807 12.136C31.1967 11.404 30.8547 10.51 30.8547 9.454C30.8547 8.398 31.2027 7.504 31.8987 6.772C32.6067 6.028 33.4887 5.656 34.5447 5.656C35.1687 5.656 35.7207 5.806 36.2007 6.106V7.744ZM44.1903 13H42.4803V12.352C41.9763 12.94 41.2263 13.234 40.2303 13.234C39.2343 13.234 38.4363 12.85 37.8363 12.082C37.2483 11.314 36.9543 10.414 36.9543 9.382C36.9543 8.35 37.2543 7.474 37.8543 6.754C38.4663 6.022 39.2463 5.656 40.1943 5.656C41.2023 5.656 41.9643 5.956 42.4803 6.556V5.89H44.1903V13ZM42.6783 9.436C42.6783 8.776 42.4923 8.236 42.1203 7.816C41.7483 7.384 41.2683 7.168 40.6803 7.168C40.1043 7.168 39.6303 7.378 39.2583 7.798C38.8983 8.206 38.7183 8.752 38.7183 9.436C38.7183 10.12 38.9043 10.672 39.2763 11.092C39.6483 11.512 40.1283 11.722 40.7163 11.722C41.3043 11.722 41.7783 11.518 42.1383 11.11C42.4983 10.702 42.6783 10.144 42.6783 9.436ZM47.7917 13H46.0457V7.456H45.1997V6.034H46.0457V3.478H47.7917V6.034H49.1777V7.456H47.7917V13ZM51.7643 2.902C51.7643 3.178 51.6623 3.418 51.4583 3.622C51.2543 3.826 51.0143 3.928 50.7383 3.928C50.4623 3.928 50.2223 3.826 50.0183 3.622C49.8143 3.418 49.7123 3.178 49.7123 2.902C49.7123 2.626 49.8143 2.386 50.0183 2.182C50.2223 1.978 50.4623 1.876 50.7383 1.876C51.0143 1.876 51.2543 1.978 51.4583 2.182C51.6623 2.386 51.7643 2.626 51.7643 2.902ZM51.6203 13H49.8743V5.89H51.6203V13ZM60.2802 9.436C60.2802 10.552 59.9382 11.464 59.2542 12.172C58.5702 12.88 57.6702 13.234 56.5542 13.234C55.4502 13.234 54.5502 12.88 53.8542 12.172C53.1582 11.464 52.8102 10.558 52.8102 9.454C52.8102 8.338 53.1522 7.426 53.8362 6.718C54.5202 6.01 55.4202 5.656 56.5362 5.656C57.6522 5.656 58.5522 6.01 59.2362 6.718C59.9322 7.414 60.2802 8.32 60.2802 9.436ZM54.5742 9.472C54.5742 10.132 54.7602 10.672 55.1322 11.092C55.5042 11.512 55.9842 11.722 56.5722 11.722C57.1602 11.722 57.6282 11.5 57.9762 11.056C58.3362 10.6 58.5162 10.066 58.5162 9.454C58.5162 8.83 58.3362 8.296 57.9762 7.852C57.6162 7.396 57.1422 7.168 56.5542 7.168C55.9782 7.168 55.5042 7.384 55.1322 7.816C54.7602 8.248 54.5742 8.8 54.5742 9.472ZM62.9875 6.538C63.4795 5.95 64.2055 5.656 65.1655 5.656C66.7975 5.656 67.6135 6.658 67.6135 8.662V13H65.8855V9.238C65.8855 7.738 65.4235 6.988 64.4995 6.988C63.4915 6.988 62.9875 7.792 62.9875 9.4V13H61.2415V5.89H62.9875V6.538ZM72.8618 7.366C72.4778 7.006 72.0758 6.826 71.6558 6.826C71.0198 6.826 70.7018 7.114 70.7018 7.69C70.7018 8.014 70.9898 8.278 71.5658 8.482C72.6218 8.866 73.2758 9.22 73.5278 9.544C73.7798 9.856 73.9058 10.246 73.9058 10.714C73.9058 11.482 73.6358 12.094 73.0957 12.55C72.5678 13.006 71.9138 13.234 71.1338 13.234C70.1258 13.234 69.2918 12.838 68.6318 12.046L69.4058 11.056C70.0058 11.656 70.5578 11.956 71.0618 11.956C71.7938 11.956 72.1598 11.602 72.1598 10.894C72.1598 10.534 71.9678 10.27 71.5838 10.102C71.1998 9.922 70.9058 9.79 70.7018 9.706C69.5978 9.226 69.0458 8.644 69.0458 7.96C69.0458 7.276 69.2498 6.724 69.6578 6.304C70.0778 5.872 70.6238 5.656 71.2958 5.656C72.2558 5.656 73.0178 5.902 73.5818 6.394L72.8618 7.366Z" fill="black"/>
</svg>
