<svg width="118" height="16" viewBox="0 0 118 16" fill="none" xmlns="http://www.w3.org/2000/svg">
<path d="M6.46376 12.172C5.57576 12.172 4.74176 12.04 3.96176 11.776C3.19376 11.5 2.52176 11.116 1.94576 10.624C1.36976 10.12 0.913758 9.514 0.577758 8.806C0.253758 8.098 0.0917578 7.312 0.0917578 6.448C0.0917578 5.56 0.259758 4.75 0.595758 4.018C0.943758 3.286 1.41176 2.662 1.99976 2.146C2.58776 1.63 3.27176 1.234 4.05176 0.957999C4.84376 0.67 5.68376 0.526 6.57176 0.526C7.47176 0.526 8.29976 0.676 9.05576 0.975999C9.82376 1.276 10.4898 1.69 11.0538 2.218C11.6178 2.734 12.0558 3.352 12.3678 4.072C12.6918 4.78 12.8538 5.554 12.8538 6.394C12.8538 7.234 12.6978 8.008 12.3858 8.716C12.0858 9.424 11.6538 10.036 11.0898 10.552C10.5378 11.056 9.86576 11.452 9.07376 11.74C8.29376 12.028 7.42376 12.172 6.46376 12.172ZM2.70176 6.538C2.70176 7.15 2.78576 7.756 2.95376 8.356C3.13376 8.944 3.39176 9.472 3.72776 9.94C4.06376 10.408 4.46576 10.786 4.93376 11.074C5.41376 11.362 5.95976 11.506 6.57176 11.506C7.74776 11.506 8.65976 11.086 9.30776 10.246C9.95576 9.394 10.2798 8.146 10.2798 6.502C10.2798 5.794 10.2018 5.122 10.0458 4.486C9.88976 3.85 9.64976 3.298 9.32576 2.83C9.01376 2.35 8.61776 1.972 8.13776 1.696C7.65776 1.408 7.09976 1.264 6.46376 1.264C5.81576 1.264 5.25176 1.414 4.77176 1.714C4.30376 2.014 3.91376 2.41 3.60176 2.902C3.30176 3.394 3.07376 3.958 2.91776 4.594C2.77376 5.218 2.70176 5.866 2.70176 6.538ZM22.6557 11.974C22.0317 11.938 21.3357 11.92 20.5677 11.92C19.8117 11.92 19.1217 11.938 18.4977 11.974V11.524L19.1277 11.38C19.3917 11.344 19.5237 11.11 19.5237 10.678V7.654C19.5237 7.39 19.5117 7.162 19.4877 6.97C19.4757 6.766 19.4337 6.598 19.3617 6.466C19.3017 6.322 19.1997 6.22 19.0557 6.16C18.9237 6.088 18.7377 6.052 18.4977 6.052C18.2217 6.052 17.9277 6.142 17.6157 6.322C17.3157 6.49 17.0637 6.694 16.8597 6.934V10.876C16.8597 11.068 17.0037 11.2 17.2917 11.272L17.8137 11.524V11.974C17.7057 11.962 17.5977 11.956 17.4897 11.956C17.3937 11.944 17.2857 11.938 17.1657 11.938C17.0457 11.926 16.9137 11.92 16.7697 11.92C16.6257 11.92 16.4457 11.92 16.2297 11.92H15.6717C15.2877 11.92 14.8977 11.926 14.5017 11.938C14.1177 11.938 13.8357 11.95 13.6557 11.974V11.524L14.4297 11.344C14.5497 11.32 14.6397 11.266 14.6997 11.182C14.7597 11.098 14.7897 10.972 14.7897 10.804V7.258C14.7897 6.886 14.7117 6.634 14.5557 6.502C14.4117 6.37 14.1477 6.274 13.7637 6.214V5.872C13.9557 5.824 14.1777 5.764 14.4297 5.692C14.6937 5.62 14.9517 5.53 15.2037 5.422C15.4557 5.302 15.6897 5.164 15.9057 5.008C16.1217 4.84 16.2837 4.642 16.3917 4.414H16.8597V6.16C17.2197 5.716 17.6097 5.368 18.0297 5.116C18.4497 4.864 18.8697 4.738 19.2897 4.738C19.9857 4.738 20.5437 4.942 20.9637 5.35C21.3837 5.758 21.5937 6.376 21.5937 7.204V10.624C21.5937 10.864 21.6237 11.038 21.6837 11.146C21.7437 11.254 21.8637 11.332 22.0437 11.38L22.6557 11.524V11.974ZM30.6707 12.19C30.1787 12.19 29.7527 12.106 29.3927 11.938C29.0447 11.758 28.7567 11.518 28.5287 11.218C28.3127 10.918 28.1507 10.564 28.0427 10.156C27.9347 9.748 27.8807 9.31 27.8807 8.842C27.8807 8.206 27.9767 7.642 28.1687 7.15C28.3607 6.658 28.6187 6.244 28.9427 5.908C29.2667 5.572 29.6447 5.32 30.0767 5.152C30.5087 4.972 30.9647 4.882 31.4447 4.882C31.7807 4.882 32.0747 4.906 32.3267 4.954C32.5787 5.002 32.7887 5.056 32.9567 5.116C33.1607 5.176 33.3287 5.248 33.4607 5.332L34.6487 4.666L34.8107 4.72V10.264C34.8107 10.744 35.0147 10.972 35.4227 10.948C35.5187 10.948 35.5907 10.936 35.6387 10.912C35.6987 10.876 35.7527 10.846 35.8007 10.822C35.8487 10.786 35.8907 10.75 35.9267 10.714L36.0347 10.966C35.9387 11.194 35.8127 11.398 35.6567 11.578C35.5247 11.734 35.3447 11.878 35.1167 12.01C34.9007 12.13 34.6307 12.19 34.3067 12.19C33.7787 12.19 33.4007 12.034 33.1727 11.722C32.9567 11.398 32.8487 11.008 32.8487 10.552V10.12C32.7887 10.384 32.6987 10.642 32.5787 10.894C32.4707 11.134 32.3327 11.35 32.1647 11.542C31.9967 11.734 31.7867 11.89 31.5347 12.01C31.2947 12.13 31.0067 12.19 30.6707 12.19ZM32.8487 8.05C32.8487 7.798 32.8367 7.534 32.8127 7.258C32.7887 6.982 32.7347 6.73 32.6507 6.502C32.5667 6.262 32.4347 6.064 32.2547 5.908C32.0867 5.752 31.8527 5.674 31.5527 5.674C31.3847 5.674 31.2047 5.722 31.0127 5.818C30.8327 5.902 30.6647 6.046 30.5087 6.25C30.3527 6.454 30.2207 6.736 30.1127 7.096C30.0167 7.444 29.9687 7.876 29.9687 8.392C29.9687 8.752 29.9927 9.094 30.0407 9.418C30.1007 9.742 30.1907 10.024 30.3107 10.264C30.4307 10.504 30.5747 10.696 30.7427 10.84C30.9227 10.972 31.1327 11.038 31.3727 11.038C31.6127 11.038 31.8227 10.96 32.0027 10.804C32.1827 10.648 32.3327 10.444 32.4527 10.192C32.5847 9.928 32.6807 9.628 32.7407 9.292C32.8127 8.956 32.8487 8.608 32.8487 8.248V8.05ZM46.5856 2.11C46.5856 1.882 46.5736 1.702 46.5496 1.57C46.5256 1.426 46.4656 1.312 46.3696 1.228C46.2736 1.132 46.1296 1.048 45.9376 0.975999C45.7576 0.903999 45.5056 0.825999 45.1816 0.741999V0.454C45.3736 0.442 45.6076 0.424 45.8836 0.399999C46.1716 0.375999 46.4596 0.345999 46.7476 0.309999C47.0356 0.274 47.3116 0.238 47.5756 0.202C47.8396 0.153999 48.0496 0.0999994 48.2056 0.0399995H48.6556V10.516C48.6556 10.732 48.6616 10.9 48.6736 11.02C48.6976 11.14 48.7516 11.23 48.8356 11.29C48.9196 11.338 49.0396 11.368 49.1956 11.38C49.3636 11.392 49.5916 11.404 49.8796 11.416V11.884C49.6516 11.932 49.3816 11.98 49.0696 12.028C48.7696 12.064 48.4576 12.1 48.1336 12.136C47.8216 12.172 47.5276 12.208 47.2516 12.244C46.9756 12.268 46.7536 12.286 46.5856 12.298V11.11C46.2136 11.41 45.8476 11.668 45.4876 11.884C45.1396 12.1 44.7196 12.208 44.2276 12.208C43.8196 12.208 43.4356 12.154 43.0756 12.046C42.7156 11.938 42.3916 11.71 42.1036 11.362C41.8156 11.014 41.5996 10.624 41.4556 10.192C41.3236 9.76 41.2576 9.292 41.2576 8.788C41.2576 8.104 41.3716 7.51 41.5996 7.006C41.8276 6.49 42.1216 6.064 42.4816 5.728C42.8416 5.392 43.2436 5.146 43.6876 4.99C44.1316 4.822 44.5696 4.738 45.0016 4.738C45.3856 4.738 45.7036 4.786 45.9556 4.882C46.2076 4.966 46.4176 5.08 46.5856 5.224V2.11ZM46.5856 10.534V7.51C46.5856 7.258 46.5676 7.018 46.5316 6.79C46.4956 6.55 46.4296 6.34 46.3336 6.16C46.2376 5.968 46.0936 5.818 45.9016 5.71C45.7216 5.602 45.4816 5.548 45.1816 5.548C44.9176 5.548 44.6836 5.626 44.4796 5.782C44.2756 5.926 44.1016 6.13 43.9576 6.394C43.8136 6.658 43.6996 6.964 43.6156 7.312C43.5436 7.66 43.5076 8.038 43.5076 8.446C43.5076 9.19 43.6456 9.802 43.9216 10.282C44.1976 10.762 44.6176 11.002 45.1816 11.002C45.5536 11.002 45.8356 10.96 46.0276 10.876C46.2196 10.792 46.4056 10.678 46.5856 10.534ZM53.3816 12.19C52.8896 12.19 52.4636 12.106 52.1036 11.938C51.7556 11.758 51.4676 11.518 51.2396 11.218C51.0236 10.918 50.8616 10.564 50.7536 10.156C50.6456 9.748 50.5916 9.31 50.5916 8.842C50.5916 8.206 50.6876 7.642 50.8796 7.15C51.0716 6.658 51.3296 6.244 51.6536 5.908C51.9776 5.572 52.3556 5.32 52.7876 5.152C53.2196 4.972 53.6756 4.882 54.1556 4.882C54.4916 4.882 54.7856 4.906 55.0376 4.954C55.2896 5.002 55.4996 5.056 55.6676 5.116C55.8716 5.176 56.0396 5.248 56.1716 5.332L57.3596 4.666L57.5216 4.72V10.264C57.5216 10.744 57.7256 10.972 58.1336 10.948C58.2296 10.948 58.3016 10.936 58.3496 10.912C58.4096 10.876 58.4636 10.846 58.5116 10.822C58.5596 10.786 58.6016 10.75 58.6376 10.714L58.7456 10.966C58.6496 11.194 58.5236 11.398 58.3676 11.578C58.2356 11.734 58.0556 11.878 57.8276 12.01C57.6116 12.13 57.3416 12.19 57.0176 12.19C56.4896 12.19 56.1116 12.034 55.8836 11.722C55.6676 11.398 55.5596 11.008 55.5596 10.552V10.12C55.4996 10.384 55.4096 10.642 55.2896 10.894C55.1816 11.134 55.0436 11.35 54.8756 11.542C54.7076 11.734 54.4976 11.89 54.2456 12.01C54.0056 12.13 53.7176 12.19 53.3816 12.19ZM55.5596 8.05C55.5596 7.798 55.5476 7.534 55.5236 7.258C55.4996 6.982 55.4456 6.73 55.3616 6.502C55.2776 6.262 55.1456 6.064 54.9656 5.908C54.7976 5.752 54.5636 5.674 54.2636 5.674C54.0956 5.674 53.9156 5.722 53.7236 5.818C53.5436 5.902 53.3756 6.046 53.2196 6.25C53.0636 6.454 52.9316 6.736 52.8236 7.096C52.7276 7.444 52.6796 7.876 52.6796 8.392C52.6796 8.752 52.7036 9.094 52.7516 9.418C52.8116 9.742 52.9016 10.024 53.0216 10.264C53.1416 10.504 53.2856 10.696 53.4536 10.84C53.6336 10.972 53.8436 11.038 54.0836 11.038C54.3236 11.038 54.5336 10.96 54.7136 10.804C54.8936 10.648 55.0436 10.444 55.1636 10.192C55.2956 9.928 55.3916 9.628 55.4516 9.292C55.5236 8.956 55.5596 8.608 55.5596 8.248V8.05ZM61.7906 0.85C62.1026 0.85 62.3666 0.97 62.5826 1.21C62.8106 1.438 62.9246 1.708 62.9246 2.02C62.9246 2.296 62.8106 2.548 62.5826 2.776C62.3666 3.004 62.0966 3.118 61.7726 3.118C61.4606 3.118 61.1966 3.016 60.9806 2.812C60.7766 2.596 60.6746 2.332 60.6746 2.02C60.6746 1.708 60.7826 1.438 60.9986 1.21C61.2146 0.97 61.4786 0.85 61.7906 0.85ZM63.6086 11.992C63.4166 11.968 63.1286 11.95 62.7446 11.938C62.3606 11.926 61.9286 11.92 61.4486 11.92C60.9686 11.92 60.5366 11.926 60.1526 11.938C59.7686 11.95 59.4806 11.968 59.2886 11.992V11.524L59.9726 11.344C60.3446 11.272 60.5306 11.05 60.5306 10.678V7.438C60.5306 7.15 60.4586 6.94 60.3146 6.808C60.1706 6.676 59.8826 6.562 59.4506 6.466V6.034C59.6546 5.986 59.8886 5.92 60.1526 5.836C60.4166 5.74 60.6746 5.638 60.9266 5.53C61.1786 5.41 61.4126 5.284 61.6286 5.152C61.8446 5.008 62.0126 4.864 62.1326 4.72C62.2166 4.72 62.2946 4.726 62.3666 4.738C62.4386 4.738 62.5166 4.738 62.6006 4.738V10.732C62.6006 10.912 62.6246 11.05 62.6726 11.146C62.7326 11.23 62.8406 11.29 62.9966 11.326L63.6086 11.524V11.992ZM68.4601 11.974C68.1721 11.962 67.8361 11.95 67.4521 11.938C67.0801 11.926 66.6961 11.92 66.3001 11.92C65.9041 11.92 65.5141 11.926 65.1301 11.938C64.7581 11.95 64.4281 11.962 64.1401 11.974V11.506L64.9681 11.29C65.1241 11.254 65.2321 11.206 65.2921 11.146C65.3521 11.086 65.3821 10.966 65.3821 10.786V2.002C65.3821 1.75 65.3101 1.564 65.1661 1.444C65.0221 1.324 64.7041 1.192 64.2121 1.048V0.633999C64.3321 0.61 64.5061 0.58 64.7341 0.543999C64.9621 0.507999 65.2141 0.465999 65.4901 0.417999C65.7661 0.37 66.0421 0.316 66.3181 0.256C66.5941 0.183999 66.8341 0.111999 67.0381 0.0399995H67.4521V10.75C67.4521 10.99 67.4761 11.14 67.5241 11.2C67.5721 11.248 67.6861 11.296 67.8661 11.344L68.4601 11.506V11.974ZM72.5917 13.99C72.3757 14.518 72.0577 14.902 71.6377 15.142C71.2297 15.394 70.7917 15.52 70.3237 15.52C70.1917 15.52 70.0597 15.502 69.9277 15.466C69.7957 15.442 69.6817 15.394 69.5857 15.322C69.5017 15.262 69.4297 15.184 69.3697 15.088C69.3217 15.004 69.2977 14.902 69.2977 14.782C69.2977 14.446 69.3877 14.224 69.5677 14.116C69.7477 14.02 69.9637 13.972 70.2157 13.972C70.4677 13.972 70.7257 14.002 70.9897 14.062C71.2537 14.134 71.4517 14.17 71.5837 14.17C71.6437 14.17 71.7157 14.14 71.7997 14.08C71.8837 14.02 71.9677 13.936 72.0517 13.828C72.1357 13.732 72.2017 13.612 72.2497 13.468C72.3097 13.324 72.3397 13.168 72.3397 13C72.3397 12.832 72.3097 12.64 72.2497 12.424C72.1897 12.22 72.1177 12.016 72.0337 11.812C71.9617 11.608 71.8897 11.422 71.8177 11.254L69.4597 6.07C69.3397 5.794 69.1837 5.62 68.9917 5.548L68.6317 5.422V4.972C70.1557 5.104 71.4217 5.104 72.4297 4.972V5.422C72.1057 5.422 71.9317 5.452 71.9077 5.512C71.8837 5.572 71.8957 5.662 71.9437 5.782L73.5817 9.94L75.0037 6.43C75.0637 6.262 75.0877 6.088 75.0757 5.908C75.0757 5.728 74.9737 5.614 74.7697 5.566L73.7617 5.332V4.972C74.8177 5.092 75.9217 5.092 77.0737 4.972V5.332L76.4977 5.476C76.4017 5.5 76.3177 5.536 76.2457 5.584C76.1857 5.62 76.1257 5.68 76.0657 5.764C76.0057 5.836 75.9397 5.944 75.8677 6.088C75.7957 6.22 75.7177 6.394 75.6337 6.61L72.5917 13.99ZM81.7534 1.066L81.8074 0.598L85.0114 0.0399995V5.368C85.3594 5.188 85.6894 5.038 86.0014 4.918C86.3254 4.798 86.6734 4.738 87.0454 4.738C88.1134 4.738 88.9294 5.074 89.4934 5.746C90.0574 6.406 90.3394 7.276 90.3394 8.356C90.3394 9.616 89.9974 10.576 89.3134 11.236C88.6414 11.884 87.7474 12.208 86.6314 12.208C86.3434 12.208 86.0914 12.178 85.8754 12.118C85.6594 12.046 85.4674 11.974 85.2994 11.902C85.1314 11.83 84.9754 11.764 84.8314 11.704C84.6874 11.632 84.5494 11.596 84.4174 11.596C84.2134 11.596 84.0514 11.656 83.9314 11.776C83.8114 11.884 83.6854 12.058 83.5534 12.298H82.9234V2.542C82.9234 2.35 82.9174 2.188 82.9054 2.056C82.8934 1.912 82.8514 1.786 82.7794 1.678C82.7074 1.57 82.5934 1.468 82.4374 1.372C82.2814 1.276 82.0534 1.174 81.7534 1.066ZM85.0114 9.76C85.0114 10.3 85.1194 10.684 85.3354 10.912C85.5514 11.14 85.9114 11.254 86.4154 11.254C86.6794 11.254 86.9194 11.182 87.1354 11.038C87.3514 10.894 87.5314 10.702 87.6754 10.462C87.8194 10.222 87.9274 9.952 87.9994 9.652C88.0834 9.34 88.1254 9.022 88.1254 8.698C88.1254 8.302 88.0834 7.924 87.9994 7.564C87.9274 7.204 87.8074 6.886 87.6394 6.61C87.4834 6.322 87.2734 6.1 87.0094 5.944C86.7454 5.776 86.4334 5.692 86.0734 5.692C85.7854 5.692 85.5334 5.77 85.3174 5.926C85.1134 6.082 85.0114 6.244 85.0114 6.412V9.76ZM94.0222 12.19C93.5302 12.19 93.1042 12.106 92.7442 11.938C92.3962 11.758 92.1082 11.518 91.8802 11.218C91.6642 10.918 91.5022 10.564 91.3942 10.156C91.2862 9.748 91.2322 9.31 91.2322 8.842C91.2322 8.206 91.3282 7.642 91.5202 7.15C91.7122 6.658 91.9702 6.244 92.2942 5.908C92.6182 5.572 92.9962 5.32 93.4282 5.152C93.8602 4.972 94.3162 4.882 94.7962 4.882C95.1322 4.882 95.4262 4.906 95.6782 4.954C95.9302 5.002 96.1402 5.056 96.3082 5.116C96.5122 5.176 96.6802 5.248 96.8122 5.332L98.0002 4.666L98.1622 4.72V10.264C98.1622 10.744 98.3662 10.972 98.7742 10.948C98.8702 10.948 98.9422 10.936 98.9902 10.912C99.0502 10.876 99.1042 10.846 99.1522 10.822C99.2002 10.786 99.2422 10.75 99.2782 10.714L99.3862 10.966C99.2902 11.194 99.1642 11.398 99.0082 11.578C98.8762 11.734 98.6962 11.878 98.4682 12.01C98.2522 12.13 97.9822 12.19 97.6582 12.19C97.1302 12.19 96.7522 12.034 96.5242 11.722C96.3082 11.398 96.2002 11.008 96.2002 10.552V10.12C96.1402 10.384 96.0502 10.642 95.9302 10.894C95.8222 11.134 95.6842 11.35 95.5162 11.542C95.3482 11.734 95.1382 11.89 94.8862 12.01C94.6462 12.13 94.3582 12.19 94.0222 12.19ZM96.2002 8.05C96.2002 7.798 96.1882 7.534 96.1642 7.258C96.1402 6.982 96.0862 6.73 96.0022 6.502C95.9182 6.262 95.7862 6.064 95.6062 5.908C95.4382 5.752 95.2042 5.674 94.9042 5.674C94.7362 5.674 94.5562 5.722 94.3642 5.818C94.1842 5.902 94.0162 6.046 93.8602 6.25C93.7042 6.454 93.5722 6.736 93.4642 7.096C93.3682 7.444 93.3202 7.876 93.3202 8.392C93.3202 8.752 93.3442 9.094 93.3922 9.418C93.4522 9.742 93.5422 10.024 93.6622 10.264C93.7822 10.504 93.9262 10.696 94.0942 10.84C94.2742 10.972 94.4842 11.038 94.7242 11.038C94.9642 11.038 95.1742 10.96 95.3542 10.804C95.5342 10.648 95.6842 10.444 95.8042 10.192C95.9362 9.928 96.0322 9.628 96.0922 9.292C96.1642 8.956 96.2002 8.608 96.2002 8.248V8.05ZM104.699 7.114C104.663 6.946 104.609 6.766 104.537 6.574C104.477 6.37 104.381 6.184 104.249 6.016C104.129 5.848 103.967 5.71 103.763 5.602C103.559 5.482 103.301 5.422 102.989 5.422C102.845 5.422 102.701 5.434 102.557 5.458C102.425 5.482 102.299 5.524 102.179 5.584C102.059 5.644 101.963 5.728 101.891 5.836C101.819 5.944 101.783 6.082 101.783 6.25C101.783 6.43 101.831 6.586 101.927 6.718C102.023 6.838 102.155 6.946 102.323 7.042C102.503 7.126 102.713 7.204 102.953 7.276C103.205 7.348 103.481 7.426 103.781 7.51C104.177 7.618 104.501 7.744 104.753 7.888C105.005 8.032 105.203 8.194 105.347 8.374C105.491 8.554 105.587 8.752 105.635 8.968C105.695 9.172 105.725 9.394 105.725 9.634C105.725 10.114 105.635 10.522 105.455 10.858C105.275 11.182 105.035 11.446 104.735 11.65C104.435 11.842 104.087 11.986 103.691 12.082C103.307 12.166 102.911 12.208 102.503 12.208C102.071 12.208 101.657 12.172 101.261 12.1C100.877 12.016 100.547 11.896 100.271 11.74L100.091 9.526H100.541C100.709 10.174 100.961 10.666 101.297 11.002C101.645 11.338 102.113 11.506 102.701 11.506C103.049 11.506 103.361 11.422 103.637 11.254C103.925 11.086 104.069 10.81 104.069 10.426C104.069 10.078 103.943 9.826 103.691 9.67C103.451 9.502 103.031 9.346 102.431 9.202C101.555 8.998 100.943 8.722 100.595 8.374C100.247 8.014 100.073 7.522 100.073 6.898C100.073 6.538 100.157 6.226 100.325 5.962C100.505 5.686 100.733 5.458 101.009 5.278C101.297 5.098 101.615 4.966 101.963 4.882C102.323 4.786 102.689 4.738 103.061 4.738C103.433 4.738 103.799 4.774 104.159 4.846C104.519 4.918 104.819 5.026 105.059 5.17L105.167 7.114H104.699ZM108.9 0.85C109.212 0.85 109.476 0.97 109.692 1.21C109.92 1.438 110.034 1.708 110.034 2.02C110.034 2.296 109.92 2.548 109.692 2.776C109.476 3.004 109.206 3.118 108.882 3.118C108.57 3.118 108.306 3.016 108.09 2.812C107.886 2.596 107.784 2.332 107.784 2.02C107.784 1.708 107.892 1.438 108.108 1.21C108.324 0.97 108.588 0.85 108.9 0.85ZM110.718 11.992C110.526 11.968 110.238 11.95 109.854 11.938C109.47 11.926 109.038 11.92 108.558 11.92C108.078 11.92 107.646 11.926 107.262 11.938C106.878 11.95 106.59 11.968 106.398 11.992V11.524L107.082 11.344C107.454 11.272 107.64 11.05 107.64 10.678V7.438C107.64 7.15 107.568 6.94 107.424 6.808C107.28 6.676 106.992 6.562 106.56 6.466V6.034C106.764 5.986 106.998 5.92 107.262 5.836C107.526 5.74 107.784 5.638 108.036 5.53C108.288 5.41 108.522 5.284 108.738 5.152C108.954 5.008 109.122 4.864 109.242 4.72C109.326 4.72 109.404 4.726 109.476 4.738C109.548 4.738 109.626 4.738 109.71 4.738V10.732C109.71 10.912 109.734 11.05 109.782 11.146C109.842 11.23 109.95 11.29 110.106 11.326L110.718 11.524V11.992ZM116.019 7.114C115.983 6.946 115.929 6.766 115.857 6.574C115.797 6.37 115.701 6.184 115.569 6.016C115.449 5.848 115.287 5.71 115.083 5.602C114.879 5.482 114.621 5.422 114.309 5.422C114.165 5.422 114.021 5.434 113.877 5.458C113.745 5.482 113.619 5.524 113.499 5.584C113.379 5.644 113.283 5.728 113.211 5.836C113.139 5.944 113.103 6.082 113.103 6.25C113.103 6.43 113.151 6.586 113.247 6.718C113.343 6.838 113.475 6.946 113.643 7.042C113.823 7.126 114.033 7.204 114.273 7.276C114.525 7.348 114.801 7.426 115.101 7.51C115.497 7.618 115.821 7.744 116.073 7.888C116.325 8.032 116.523 8.194 116.667 8.374C116.811 8.554 116.907 8.752 116.955 8.968C117.015 9.172 117.045 9.394 117.045 9.634C117.045 10.114 116.955 10.522 116.775 10.858C116.595 11.182 116.355 11.446 116.055 11.65C115.755 11.842 115.407 11.986 115.011 12.082C114.627 12.166 114.231 12.208 113.823 12.208C113.391 12.208 112.977 12.172 112.581 12.1C112.197 12.016 111.867 11.896 111.591 11.74L111.411 9.526H111.861C112.029 10.174 112.281 10.666 112.617 11.002C112.965 11.338 113.433 11.506 114.021 11.506C114.369 11.506 114.681 11.422 114.957 11.254C115.245 11.086 115.389 10.81 115.389 10.426C115.389 10.078 115.263 9.826 115.011 9.67C114.771 9.502 114.351 9.346 113.751 9.202C112.875 8.998 112.263 8.722 111.915 8.374C111.567 8.014 111.393 7.522 111.393 6.898C111.393 6.538 111.477 6.226 111.645 5.962C111.825 5.686 112.053 5.458 112.329 5.278C112.617 5.098 112.935 4.966 113.283 4.882C113.643 4.786 114.009 4.738 114.381 4.738C114.753 4.738 115.119 4.774 115.479 4.846C115.839 4.918 116.139 5.026 116.379 5.17L116.487 7.114H116.019Z" fill="#151CBD"/>
</svg>
