<svg width="124" height="14" viewBox="0 0 124 14" fill="none" xmlns="http://www.w3.org/2000/svg">
<path d="M8.028 13H5.742L2.646 8.14L2.628 13H0.774V2.074H3.672C6.108 2.074 7.326 3.172 7.326 5.368C7.326 6.196 7.11 6.886 6.678 7.438C6.258 7.99 5.682 8.308 4.95 8.392L8.028 13ZM2.628 7.384H3.186C4.71 7.384 5.472 6.73 5.472 5.422C5.472 4.162 4.716 3.532 3.204 3.532H2.628V7.384ZM10.1559 9.616C10.1559 10.3 10.3059 10.864 10.6059 11.308C10.9059 11.752 11.3199 11.974 11.8479 11.974C12.6759 11.974 13.2039 11.566 13.4319 10.75L15.0879 11.02C14.5479 12.496 13.4679 13.234 11.8479 13.234C10.7679 13.234 9.90394 12.892 9.25594 12.208C8.61994 11.512 8.30194 10.612 8.30194 9.508C8.30194 8.344 8.60794 7.414 9.21994 6.718C9.84394 6.01 10.6839 5.656 11.7399 5.656C12.8079 5.656 13.6359 5.992 14.2239 6.664C14.8239 7.324 15.1239 8.23 15.1239 9.382V9.616H10.1559ZM13.5039 8.644C13.5039 8.152 13.3479 7.72 13.0359 7.348C12.7359 6.976 12.3399 6.79 11.8479 6.79C11.3679 6.79 10.9719 6.988 10.6599 7.384C10.3599 7.768 10.2099 8.188 10.2099 8.644H13.5039ZM19.8637 7.366C19.4797 7.006 19.0777 6.826 18.6577 6.826C18.0217 6.826 17.7037 7.114 17.7037 7.69C17.7037 8.014 17.9917 8.278 18.5677 8.482C19.6237 8.866 20.2777 9.22 20.5297 9.544C20.7817 9.856 20.9077 10.246 20.9077 10.714C20.9077 11.482 20.6377 12.094 20.0977 12.55C19.5697 13.006 18.9157 13.234 18.1357 13.234C17.1277 13.234 16.2937 12.838 15.6337 12.046L16.4077 11.056C17.0077 11.656 17.5597 11.956 18.0637 11.956C18.7957 11.956 19.1617 11.602 19.1617 10.894C19.1617 10.534 18.9697 10.27 18.5857 10.102C18.2017 9.922 17.9077 9.79 17.7037 9.706C16.5997 9.226 16.0477 8.644 16.0477 7.96C16.0477 7.276 16.2517 6.724 16.6597 6.304C17.0797 5.872 17.6257 5.656 18.2977 5.656C19.2577 5.656 20.0197 5.902 20.5837 6.394L19.8637 7.366ZM23.3571 9.616C23.3571 10.3 23.5071 10.864 23.8071 11.308C24.1071 11.752 24.5211 11.974 25.0491 11.974C25.8771 11.974 26.4051 11.566 26.6331 10.75L28.2891 11.02C27.7491 12.496 26.6691 13.234 25.0491 13.234C23.9691 13.234 23.1051 12.892 22.4571 12.208C21.8211 11.512 21.5031 10.612 21.5031 9.508C21.5031 8.344 21.8091 7.414 22.4211 6.718C23.0451 6.01 23.8851 5.656 24.9411 5.656C26.0091 5.656 26.8371 5.992 27.4251 6.664C28.0251 7.324 28.3251 8.23 28.3251 9.382V9.616H23.3571ZM26.7051 8.644C26.7051 8.152 26.5491 7.72 26.2371 7.348C25.9371 6.976 25.5411 6.79 25.0491 6.79C24.5691 6.79 24.1731 6.988 23.8611 7.384C23.5611 7.768 23.4111 8.188 23.4111 8.644H26.7051ZM35.9989 13H34.2889V12.352C33.7849 12.94 33.0349 13.234 32.0389 13.234C31.0429 13.234 30.2449 12.85 29.6449 12.082C29.0569 11.314 28.7629 10.414 28.7629 9.382C28.7629 8.35 29.0629 7.474 29.6629 6.754C30.2749 6.022 31.0549 5.656 32.0029 5.656C33.0109 5.656 33.7729 5.956 34.2889 6.556V5.89H35.9989V13ZM34.4869 9.436C34.4869 8.776 34.3009 8.236 33.9289 7.816C33.5569 7.384 33.0769 7.168 32.4889 7.168C31.9129 7.168 31.4389 7.378 31.0669 7.798C30.7069 8.206 30.5269 8.752 30.5269 9.436C30.5269 10.12 30.7129 10.672 31.0849 11.092C31.4569 11.512 31.9369 11.722 32.5249 11.722C33.1129 11.722 33.5869 11.518 33.9469 11.11C34.3069 10.702 34.4869 10.144 34.4869 9.436ZM39.2043 6.628C39.6483 5.98 40.3443 5.656 41.2923 5.656C41.5923 5.656 41.8683 5.716 42.1203 5.836L41.9043 7.42C41.6403 7.252 41.3523 7.168 41.0403 7.168C39.8163 7.168 39.2043 8.044 39.2043 9.796V13H37.4583V5.89H39.2043V6.628ZM47.6089 7.744C47.1649 7.3 46.6669 7.078 46.1149 7.078C45.4669 7.078 44.9569 7.312 44.5849 7.78C44.2129 8.248 44.0269 8.824 44.0269 9.508C44.0269 10.18 44.2369 10.732 44.6569 11.164C45.0769 11.596 45.5869 11.812 46.1869 11.812C46.7029 11.812 47.1769 11.584 47.6089 11.128V12.802C47.1049 13.09 46.5229 13.234 45.8629 13.234C44.8309 13.234 43.9729 12.868 43.2889 12.136C42.6049 11.404 42.2629 10.51 42.2629 9.454C42.2629 8.398 42.6109 7.504 43.3069 6.772C44.0149 6.028 44.8969 5.656 45.9529 5.656C46.5769 5.656 47.1289 5.806 47.6089 6.106V7.744ZM50.6125 0.705999V6.484C51.0685 5.932 51.7945 5.656 52.7905 5.656C53.5345 5.656 54.1285 5.944 54.5725 6.52C55.0165 7.096 55.2385 7.81 55.2385 8.662V13H53.5105V9.238C53.5105 7.738 53.0485 6.988 52.1245 6.988C51.1165 6.988 50.6125 7.816 50.6125 9.472V13H48.8665V0.705999H50.6125ZM71.2505 13.45L70.4585 12.496C69.6425 13.024 68.7065 13.288 67.6505 13.288C66.0785 13.288 64.7825 12.73 63.7625 11.614C62.7425 10.498 62.2325 9.148 62.2325 7.564C62.2325 5.968 62.7425 4.606 63.7625 3.478C64.7945 2.35 66.0905 1.786 67.6505 1.786C69.2105 1.786 70.5005 2.35 71.5205 3.478C72.5405 4.606 73.0505 5.956 73.0505 7.528C73.0505 9.148 72.5945 10.486 71.6825 11.542L73.1045 13.27L71.2505 13.45ZM70.2785 10.012C70.8545 9.328 71.1425 8.476 71.1425 7.456C71.1425 6.388 70.8125 5.47 70.1525 4.702C69.5045 3.922 68.6705 3.532 67.6505 3.532C66.6425 3.532 65.8085 3.952 65.1485 4.792C64.4885 5.62 64.1585 6.568 64.1585 7.636C64.1585 8.692 64.4825 9.604 65.1305 10.372C65.7905 11.14 66.6305 11.524 67.6505 11.524C68.2145 11.524 68.7185 11.386 69.1625 11.11L67.1465 8.806L69.0545 8.626L70.2785 10.012ZM75.7484 5.89V9.742C75.7484 11.122 76.2284 11.812 77.1884 11.812C78.1484 11.812 78.6284 11.122 78.6284 9.742V5.89H80.3744V10.066C80.3744 12.178 79.3124 13.234 77.1884 13.234C75.0644 13.234 74.0024 12.178 74.0024 10.066V5.89H75.7484ZM83.1403 9.616C83.1403 10.3 83.2903 10.864 83.5903 11.308C83.8903 11.752 84.3043 11.974 84.8323 11.974C85.6603 11.974 86.1883 11.566 86.4163 10.75L88.0723 11.02C87.5323 12.496 86.4523 13.234 84.8323 13.234C83.7523 13.234 82.8883 12.892 82.2403 12.208C81.6043 11.512 81.2863 10.612 81.2863 9.508C81.2863 8.344 81.5923 7.414 82.2043 6.718C82.8283 6.01 83.6683 5.656 84.7243 5.656C85.7923 5.656 86.6203 5.992 87.2083 6.664C87.8083 7.324 88.1083 8.23 88.1083 9.382V9.616H83.1403ZM86.4883 8.644C86.4883 8.152 86.3323 7.72 86.0203 7.348C85.7203 6.976 85.3243 6.79 84.8323 6.79C84.3523 6.79 83.9563 6.988 83.6443 7.384C83.3443 7.768 83.1943 8.188 83.1943 8.644H86.4883ZM92.8481 7.366C92.4641 7.006 92.0621 6.826 91.6421 6.826C91.0061 6.826 90.6881 7.114 90.6881 7.69C90.6881 8.014 90.9761 8.278 91.5521 8.482C92.6081 8.866 93.2621 9.22 93.5141 9.544C93.7661 9.856 93.8921 10.246 93.8921 10.714C93.8921 11.482 93.6221 12.094 93.0821 12.55C92.5541 13.006 91.9001 13.234 91.1201 13.234C90.1121 13.234 89.2781 12.838 88.6181 12.046L89.3921 11.056C89.9921 11.656 90.5441 11.956 91.0481 11.956C91.7801 11.956 92.1461 11.602 92.1461 10.894C92.1461 10.534 91.9541 10.27 91.5701 10.102C91.1861 9.922 90.8921 9.79 90.6881 9.706C89.5841 9.226 89.0321 8.644 89.0321 7.96C89.0321 7.276 89.2361 6.724 89.6441 6.304C90.0641 5.872 90.6101 5.656 91.2821 5.656C92.2421 5.656 93.0041 5.902 93.5681 6.394L92.8481 7.366ZM97.1335 13H95.3875V7.456H94.5415V6.034H95.3875V3.478H97.1335V6.034H98.5195V7.456H97.1335V13ZM101.106 2.902C101.106 3.178 101.004 3.418 100.8 3.622C100.596 3.826 100.356 3.928 100.08 3.928C99.8041 3.928 99.5641 3.826 99.3601 3.622C99.1561 3.418 99.0541 3.178 99.0541 2.902C99.0541 2.626 99.1561 2.386 99.3601 2.182C99.5641 1.978 99.8041 1.876 100.08 1.876C100.356 1.876 100.596 1.978 100.8 2.182C101.004 2.386 101.106 2.626 101.106 2.902ZM100.962 13H99.2161V5.89H100.962V13ZM109.622 9.436C109.622 10.552 109.28 11.464 108.596 12.172C107.912 12.88 107.012 13.234 105.896 13.234C104.792 13.234 103.892 12.88 103.196 12.172C102.5 11.464 102.152 10.558 102.152 9.454C102.152 8.338 102.494 7.426 103.178 6.718C103.862 6.01 104.762 5.656 105.878 5.656C106.994 5.656 107.894 6.01 108.578 6.718C109.274 7.414 109.622 8.32 109.622 9.436ZM103.916 9.472C103.916 10.132 104.102 10.672 104.474 11.092C104.846 11.512 105.326 11.722 105.914 11.722C106.502 11.722 106.97 11.5 107.318 11.056C107.678 10.6 107.858 10.066 107.858 9.454C107.858 8.83 107.678 8.296 107.318 7.852C106.958 7.396 106.484 7.168 105.896 7.168C105.32 7.168 104.846 7.384 104.474 7.816C104.102 8.248 103.916 8.8 103.916 9.472ZM112.329 6.538C112.821 5.95 113.547 5.656 114.507 5.656C116.139 5.656 116.955 6.658 116.955 8.662V13H115.227V9.238C115.227 7.738 114.765 6.988 113.841 6.988C112.833 6.988 112.329 7.792 112.329 9.4V13H110.583V5.89H112.329V6.538ZM122.204 7.366C121.82 7.006 121.418 6.826 120.998 6.826C120.362 6.826 120.044 7.114 120.044 7.69C120.044 8.014 120.332 8.278 120.908 8.482C121.964 8.866 122.618 9.22 122.87 9.544C123.122 9.856 123.248 10.246 123.248 10.714C123.248 11.482 122.978 12.094 122.438 12.55C121.91 13.006 121.256 13.234 120.476 13.234C119.468 13.234 118.634 12.838 117.974 12.046L118.748 11.056C119.348 11.656 119.9 11.956 120.404 11.956C121.136 11.956 121.502 11.602 121.502 10.894C121.502 10.534 121.31 10.27 120.926 10.102C120.542 9.922 120.248 9.79 120.044 9.706C118.94 9.226 118.388 8.644 118.388 7.96C118.388 7.276 118.592 6.724 119 6.304C119.42 5.872 119.966 5.656 120.638 5.656C121.598 5.656 122.36 5.902 122.924 6.394L122.204 7.366Z" fill="black"/>
</svg>
