<svg width="83" height="17" viewBox="0 0 83 17" fill="none" xmlns="http://www.w3.org/2000/svg">
<path d="M6.066 4.288C5.598 3.628 5.004 3.298 4.284 3.298C3.828 3.298 3.444 3.436 3.132 3.712C2.82 3.988 2.664 4.36 2.664 4.828C2.664 5.284 3.228 5.83 4.356 6.466C5.496 7.102 6.072 7.42 6.084 7.42C6.888 8.02 7.29 8.728 7.29 9.544C7.29 10.66 6.966 11.566 6.318 12.262C5.682 12.946 4.806 13.288 3.69 13.288C2.274 13.288 1.158 12.58 0.342 11.164L1.512 10.012C1.668 10.432 1.956 10.816 2.376 11.164C2.796 11.512 3.228 11.686 3.672 11.686C4.2 11.686 4.614 11.506 4.914 11.146C5.226 10.786 5.382 10.348 5.382 9.832C5.382 9.46 5.268 9.136 5.04 8.86C4.812 8.572 4.038 8.14 2.718 7.564C1.41 6.976 0.756 6.142 0.756 5.062C0.756 4.138 1.056 3.364 1.656 2.74C2.268 2.104 3.03 1.786 3.942 1.786C5.202 1.786 6.198 2.194 6.93 3.01L6.066 4.288ZM10.4733 13H8.72733V7.456H7.88133V6.034H8.72733V3.478H10.4733V6.034H11.8593V7.456H10.4733V13ZM14.014 5.89V9.742C14.014 11.122 14.494 11.812 15.454 11.812C16.414 11.812 16.894 11.122 16.894 9.742V5.89H18.64V10.066C18.64 12.178 17.578 13.234 15.454 13.234C13.33 13.234 12.268 12.178 12.268 10.066V5.89H14.014ZM25.0599 12.334C24.5919 12.934 23.8539 13.234 22.8459 13.234C21.8379 13.234 21.0339 12.85 20.4339 12.082C19.8459 11.314 19.5519 10.414 19.5519 9.382C19.5519 8.35 19.8519 7.474 20.4519 6.754C21.0639 6.022 21.8439 5.656 22.7919 5.656C23.7999 5.656 24.5439 5.95 25.0239 6.538L25.0599 0.705999H26.8059V13H25.0599V12.334ZM25.2579 9.436C25.2579 8.812 25.0659 8.278 24.6819 7.834C24.2979 7.39 23.8359 7.168 23.2959 7.168C22.7559 7.168 22.2879 7.39 21.8919 7.834C21.5079 8.266 21.3159 8.806 21.3159 9.454C21.3159 10.09 21.5019 10.63 21.8739 11.074C22.2579 11.506 22.7379 11.722 23.3139 11.722C23.8899 11.722 24.3579 11.512 24.7179 11.092C25.0779 10.66 25.2579 10.108 25.2579 9.436ZM27.4193 5.89H29.4353L31.2893 10.156L33.2333 5.89H35.2133L30.1733 15.97H28.2293L30.4253 11.902L27.4193 5.89ZM41.8541 2.074H44.9141C46.4741 2.074 47.7401 2.59 48.7121 3.622C49.6961 4.654 50.1881 5.956 50.1881 7.528C50.1881 9.1 49.6901 10.408 48.6941 11.452C47.7101 12.484 46.4441 13 44.8961 13H41.8541V2.074ZM43.7081 11.326H44.3381C46.9541 11.326 48.2621 10.066 48.2621 7.546C48.2621 5.014 46.9541 3.748 44.3381 3.748H43.7081V11.326ZM52.5016 9.616C52.5016 10.3 52.6516 10.864 52.9516 11.308C53.2516 11.752 53.6656 11.974 54.1936 11.974C55.0216 11.974 55.5496 11.566 55.7776 10.75L57.4336 11.02C56.8936 12.496 55.8136 13.234 54.1936 13.234C53.1136 13.234 52.2496 12.892 51.6016 12.208C50.9656 11.512 50.6476 10.612 50.6476 9.508C50.6476 8.344 50.9536 7.414 51.5656 6.718C52.1896 6.01 53.0296 5.656 54.0856 5.656C55.1536 5.656 55.9816 5.992 56.5696 6.664C57.1696 7.324 57.4696 8.23 57.4696 9.382V9.616H52.5016ZM55.8496 8.644C55.8496 8.152 55.6936 7.72 55.3816 7.348C55.0816 6.976 54.6856 6.79 54.1936 6.79C53.7136 6.79 53.3176 6.988 53.0056 7.384C52.7056 7.768 52.5556 8.188 52.5556 8.644H55.8496ZM62.2094 7.366C61.8254 7.006 61.4234 6.826 61.0034 6.826C60.3674 6.826 60.0494 7.114 60.0494 7.69C60.0494 8.014 60.3374 8.278 60.9134 8.482C61.9694 8.866 62.6234 9.22 62.8754 9.544C63.1274 9.856 63.2534 10.246 63.2534 10.714C63.2534 11.482 62.9834 12.094 62.4434 12.55C61.9154 13.006 61.2614 13.234 60.4814 13.234C59.4734 13.234 58.6394 12.838 57.9794 12.046L58.7534 11.056C59.3534 11.656 59.9054 11.956 60.4094 11.956C61.1414 11.956 61.5074 11.602 61.5074 10.894C61.5074 10.534 61.3154 10.27 60.9314 10.102C60.5474 9.922 60.2534 9.79 60.0494 9.706C58.9454 9.226 58.3934 8.644 58.3934 7.96C58.3934 7.276 58.5974 6.724 59.0054 6.304C59.4254 5.872 59.9714 5.656 60.6434 5.656C61.6034 5.656 62.3654 5.902 62.9294 6.394L62.2094 7.366ZM66.4948 2.902C66.4948 3.178 66.3928 3.418 66.1888 3.622C65.9848 3.826 65.7448 3.928 65.4688 3.928C65.1928 3.928 64.9528 3.826 64.7488 3.622C64.5448 3.418 64.4428 3.178 64.4428 2.902C64.4428 2.626 64.5448 2.386 64.7488 2.182C64.9528 1.978 65.1928 1.876 65.4688 1.876C65.7448 1.876 65.9848 1.978 66.1888 2.182C66.3928 2.386 66.4948 2.626 66.4948 2.902ZM66.3508 13H64.6048V5.89H66.3508V13ZM74.7946 12.388C74.7946 14.824 73.6606 16.042 71.3926 16.042C70.3846 16.042 69.5326 15.766 68.8366 15.214C68.1406 14.674 67.7926 13.966 67.7926 13.09H69.6466C69.6466 13.438 69.8206 13.78 70.1686 14.116C70.5166 14.452 70.9066 14.62 71.3386 14.62C72.4786 14.62 73.0486 13.936 73.0486 12.568V12.118C72.5566 12.742 71.8066 13.054 70.7986 13.054C69.8026 13.054 69.0166 12.706 68.4406 12.01C67.8766 11.314 67.5946 10.462 67.5946 9.454C67.5946 8.362 67.9006 7.45 68.5126 6.718C69.1246 5.986 69.9166 5.62 70.8886 5.62C71.8726 5.62 72.5926 5.926 73.0486 6.538V5.854H74.7946V12.388ZM73.3006 9.292C73.3006 8.644 73.1206 8.122 72.7606 7.726C72.4006 7.33 71.9266 7.132 71.3386 7.132C70.7506 7.132 70.2706 7.348 69.8986 7.78C69.5386 8.212 69.3586 8.758 69.3586 9.418C69.3586 10.834 70.0186 11.542 71.3386 11.542C71.9386 11.542 72.4126 11.332 72.7606 10.912C73.1206 10.48 73.3006 9.94 73.3006 9.292ZM77.9113 6.538C78.4033 5.95 79.1293 5.656 80.0893 5.656C81.7213 5.656 82.5373 6.658 82.5373 8.662V13H80.8093V9.238C80.8093 7.738 80.3473 6.988 79.4233 6.988C78.4153 6.988 77.9113 7.792 77.9113 9.4V13H76.1653V5.89H77.9113V6.538Z" fill="black"/>
</svg>
